<?xml version="1.0" encoding="UTF-8" standalone="no"?>
<!-- Created with Inkscape (http://www.inkscape.org/) -->

<svg
   width="1080"
   height="1920"
   viewBox="0 0 285.75001 508"
   version="1.1"
   id="svg5"
   inkscape:export-filename="/Users/albertotomasoni/ALBERTO.png"
   inkscape:export-xdpi="96"
   inkscape:export-ydpi="96"
   inkscape:version="1.1.1 (c3084ef, 2021-09-22)"
   sodipodi:docname="Alberto.svg"
   xmlns:inkscape="http://www.inkscape.org/namespaces/inkscape"
   xmlns:sodipodi="http://sodipodi.sourceforge.net/DTD/sodipodi-0.dtd"
   xmlns="http://www.w3.org/2000/svg"
   xmlns:svg="http://www.w3.org/2000/svg">
  <sodipodi:namedview
     id="namedview7"
     pagecolor="#ffffff"
     bordercolor="#666666"
     borderopacity="1.0"
     inkscape:pageshadow="2"
     inkscape:pageopacity="0.0"
     inkscape:pagecheckerboard="0"
     inkscape:document-units="px"
     showgrid="false"
     units="px"
     inkscape:zoom="0.23597074"
     inkscape:cx="27.545788"
     inkscape:cy="1103.9504"
     inkscape:window-width="1440"
     inkscape:window-height="775"
     inkscape:window-x="0"
     inkscape:window-y="25"
     inkscape:window-maximized="0"
     inkscape:current-layer="text2874" />
  <defs
     id="defs2" />
  <g
     inkscape:label="ALBERTO"
     inkscape:groupmode="layer"
     id="g2878">
    <path
       style="fill=currentColor;stroke-width:0.016325"
       d="m 112.57583,385.88567 v -1.08561 l 11.65194,-0.002 c 11.52474,-0.002 11.64998,-0.002 11.47237,-0.0329 -1.03134,-0.17913 -1.46366,-0.26231 -2.16306,-0.41612 -7.38103,-1.62339 -13.31562,-5.01198 -16.92264,-9.66263 -0.58953,-0.76011 -1.15705,-1.61761 -1.63138,-2.46494 -0.17999,-0.32154 -0.53255,-1.02337 -0.68886,-1.3713 -0.96808,-2.15478 -1.51183,-4.3817 -1.67019,-6.84016 -0.0104,-0.16162 -0.0255,-0.2963 -0.0335,-0.29929 -0.0195,-0.007 -0.0195,-225.89124 -4e-5,-225.89124 0.008,0 0.0194,-0.0679 0.0253,-0.15101 0.0953,-1.34138 0.25224,-2.36663 0.53277,-3.4813 0.94754,-3.76502 3.046,-7.04202 6.25238,-9.76385 4.43227,-3.76246 10.87439,-6.28344 18.22559,-7.13217 0.32017,-0.037 10.17677,-0.037 10.49695,0 5.49804,0.63477 10.54349,2.21734 14.58635,4.57517 2.81153,1.63971 5.10283,3.62435 6.81763,5.90514 1.59142,2.1167 2.67362,4.48368 3.22068,7.04423 0.19381,0.90712 0.30749,1.74715 0.38608,2.85278 0.006,0.0831 0.0173,0.15101 0.0253,0.15101 0.0195,0 0.0195,225.88398 0,225.89124 -0.008,0.003 -0.0231,0.13767 -0.0335,0.29929 -0.17664,2.74235 -0.84056,5.23073 -2.01666,7.55846 -1.29491,2.56289 -3.16733,4.82494 -5.61605,6.7847 -3.45177,2.76254 -7.99922,4.82483 -13.16609,5.97091 -0.76189,0.16899 -1.32361,0.27731 -2.36712,0.45647 -0.0568,0.01 4.19317,0.0161 11.56216,0.0174 l 11.65194,0.002 v 1.08561 1.08561 h -30.29913 -30.29913 v -1.08561 z m 32.01325,-2.73368 c 1.24171,-0.0564 2.21653,-0.13236 3.265,-0.25431 6.67195,-0.77597 12.49845,-3.06083 16.61438,-6.51533 3.09597,-2.59844 5.14446,-5.80231 6.02702,-9.42634 0.24596,-1.00998 0.38062,-1.88155 0.47027,-3.04374 0.0277,-0.35903 0.029,-5.31141 0.029,-113.10751 0,-90.9616 -0.004,-112.7872 -0.0207,-113.01772 -0.10151,-1.39908 -0.316,-2.57777 -0.69183,-3.80188 -0.61505,-2.00326 -1.6609,-3.91551 -3.05902,-5.59314 -0.68242,-0.81885 -1.59663,-1.73374 -2.4319,-2.43373 -1.65021,-1.38293 -3.61807,-2.60118 -5.78198,-3.57948 -3.34339,-1.51154 -7.17193,-2.51652 -11.29394,-2.96461 -2.50207,-0.27199 -5.20558,-0.32866 -7.77884,-0.16305 -7.38744,0.47543 -14.01561,2.74466 -18.53374,6.34523 -1.06016,0.84487 -2.06086,1.81762 -2.87593,2.79564 -1.39813,1.67763 -2.44398,3.58988 -3.05903,5.59314 -0.37582,1.22411 -0.59031,2.4028 -0.69183,3.80188 -0.0167,0.23052 -0.0207,22.05612 -0.0207,113.01772 0,107.7961 0.001,112.74848 0.029,113.10751 0.0896,1.16219 0.2243,2.03376 0.47026,3.04374 1.02579,4.21215 3.62288,7.84576 7.60039,10.63371 4.20348,2.94636 9.81807,4.83986 16.05317,5.41391 0.88937,0.0819 1.81341,0.1352 2.95481,0.17048 0.34241,0.0106 2.36838,-0.006 2.72627,-0.0221 z m 2.04811,-19.47447 c -0.15058,-0.0684 -0.28507,-0.3267 -0.35748,-0.68661 -0.0554,-0.27515 -0.15921,-0.46295 -0.37562,-0.67929 -0.17413,-0.17407 -0.38211,-0.31708 -0.65336,-0.44928 l -0.19638,-0.0957 -0.0344,0.10147 c -0.13495,0.39863 -0.48657,0.83036 -1.10319,1.35453 l -0.20658,0.17563 -6.45543,-0.004 -6.45543,-0.004 -0.11191,-0.0571 c -0.19297,-0.0985 -0.27314,-0.25323 -0.27482,-0.53038 -0.001,-0.19425 0.043,-0.29006 0.20103,-0.43643 0.44898,-0.41567 1.68292,-0.67678 3.60907,-0.7637 1.31764,-0.0594 2.52282,-0.19328 3.00882,-0.33414 0.15015,-0.0435 0.28591,-0.10453 0.31762,-0.14274 0.0342,-0.0412 0.61627,-1.70309 0.93936,-2.68193 0.8164,-2.4734 1.24662,-4.26229 1.19691,-4.97681 -0.0412,-0.59224 -0.44842,-1.75378 -1.24273,-3.54482 -0.47427,-1.06942 -0.93608,-2.04577 -1.35515,-2.86503 -1.19182,-2.32998 -2.97631,-5.89942 -3.71345,-7.42786 -0.67376,-1.39703 -1.15853,-2.45479 -1.39064,-3.03436 -0.53878,-1.34532 -0.82228,-2.90313 -0.89468,-4.91614 l -0.0156,-0.43284 -0.20569,-0.3426 c -0.33099,-0.55125 -0.56937,-1.05068 -0.66412,-1.39134 l -0.0374,-0.13459 -0.0898,-0.0247 c -0.73987,-0.20401 -1.69116,-0.78343 -2.59228,-1.57895 -0.16065,-0.14183 -0.1817,-0.16622 -0.16375,-0.18974 0.0113,-0.0149 0.0685,-0.0821 0.12698,-0.14944 0.46131,-0.53094 0.86625,-0.89936 1.31489,-1.19636 0.19437,-0.12867 0.52889,-0.30585 0.68565,-0.36315 0.046,-0.0168 0.18849,-0.10965 0.3265,-0.21273 1.03567,-0.77361 1.98741,-1.19051 3.02012,-1.32297 0.39832,-0.0511 1.34727,-0.0339 1.96716,0.0356 1.41531,0.15872 2.48771,0.61443 3.20862,1.36347 0.29259,0.304 0.52829,0.66449 0.81547,1.24722 0.56502,1.14651 0.8697,2.40203 0.93851,3.86742 0.009,0.18767 0.018,0.34295 0.0204,0.34506 0.002,0.002 0.13288,0.068 0.29001,0.14639 1.04942,0.52357 1.98868,1.06118 2.56302,1.46704 0.84787,0.59914 1.43766,1.29682 1.9972,2.36255 0.12057,0.22964 0.12815,0.23988 0.21076,0.28469 0.0471,0.0256 0.19222,0.11811 0.32241,0.20568 1.29067,0.86809 3.44676,3.12794 6.36835,6.6748 0.52146,0.63307 0.62936,0.76832 1.0288,1.28967 1.48749,1.9415 2.96198,3.64328 4.78291,5.52018 0.40831,0.42087 0.50146,0.53634 0.70736,0.87689 0.32996,0.54574 0.48427,1.05624 0.4341,1.43612 -0.0377,0.28556 -0.13154,0.47601 -0.33501,0.68002 -0.26169,0.26239 -0.58797,0.44094 -0.99633,0.54519 -0.45405,0.11592 -1.05414,0.11 -1.74182,-0.0172 l -0.19145,-0.0354 -0.233,0.0869 c -2.14581,0.80061 -4.74718,1.27668 -7.55001,1.38168 l -0.29727,0.0112 -0.0506,0.21384 c -0.0278,0.11761 -0.37255,1.56922 -0.76603,3.2258 l -0.7154,3.01195 0.17821,0.16936 c 0.71024,0.67494 1.18323,1.37198 1.43039,2.10798 l 0.074,0.22038 -0.0187,0.13031 c -0.0239,0.16586 -0.0806,0.28138 -0.18372,0.37412 -0.0836,0.0752 -0.22631,0.14069 -0.30509,0.14005 -0.0244,-1.6e-4 -0.074,-0.0138 -0.11026,-0.0303 z m -4.32544,-2.38183 c 0.29203,-0.0806 0.51008,-0.22937 0.65449,-0.44659 0.0972,-0.14624 0.15168,-0.28753 0.22566,-0.58546 0.0323,-0.13019 0.39893,-1.5034 0.81467,-3.05156 0.74164,-2.76174 0.75564,-2.81672 0.74235,-2.91389 -0.0722,-0.52785 -0.81767,-1.02186 -2.14025,-1.41828 l -0.19081,-0.0572 v 0.47459 0.4746 l -1.22437,3.74522 c -0.6734,2.05987 -1.22437,3.76331 -1.22437,3.78542 v 0.0402 l 1.10602,-0.006 c 1.08158,-0.005 1.1089,-0.006 1.23661,-0.0416 z m 3.65768,-6.26392 c 0.10323,-0.13534 0.29755,-0.68998 0.351,-1.0018 0.0753,-0.43958 0.0184,-0.87863 -0.16913,-1.30481 -0.15213,-0.34564 -0.37569,-0.65897 -0.72768,-1.01983 l -0.23482,-0.24073 0.17262,0.0808 c 0.84747,0.39673 1.80139,0.61741 2.97424,0.68806 0.34901,0.021 1.34932,0.0105 1.62434,-0.0171 0.92151,-0.0924 1.6605,-0.24303 2.54669,-0.51901 0.53743,-0.16738 1.43257,-0.52269 1.85863,-0.73775 l 0.10054,-0.0508 0.16326,0.0986 c 0.1958,0.11828 0.36582,0.19487 0.56337,0.25384 0.21205,0.0633 0.52738,0.0741 0.7324,0.0251 0.36909,-0.0882 0.58708,-0.28744 0.67071,-0.6131 0.0548,-0.21324 0.0154,-0.37789 -0.14997,-0.62776 -0.10673,-0.16126 -0.53545,-0.60102 -0.79638,-0.8169 -0.23361,-0.19329 -0.73536,-0.56734 -1.07745,-0.80327 l -0.29385,-0.20264 -0.34061,-0.43203 c -4.86616,-6.17217 -8.12517,-9.85027 -9.62755,-10.86558 -0.16002,-0.10816 -0.44895,-0.26746 -0.48508,-0.26746 -0.008,0 -0.026,0.0606 -0.0405,0.13468 -0.0531,0.27031 -0.21252,0.50706 -0.46982,0.69791 -0.21141,0.15682 -0.54234,0.30977 -0.87132,0.40269 -0.0857,0.0242 -0.15522,0.0482 -0.15457,0.0533 6.6e-4,0.005 0.17163,0.12167 0.37996,0.25904 0.64366,0.42443 1.08556,0.76995 1.48549,1.16149 0.56497,0.5531 0.812,0.99499 0.7899,1.41296 -0.0225,0.42621 -0.2654,0.70391 -0.95058,1.08696 -1.14601,0.64068 -2.08046,0.81601 -2.74284,0.51463 -0.19253,-0.0876 -1.67297,-1.24117 -2.4591,-1.91616 -1.49233,-1.28134 -2.31178,-2.24075 -2.85466,-3.34222 -0.33796,-0.6857 -0.47724,-1.22039 -0.47838,-1.83656 -6.7e-4,-0.3575 0.0253,-0.53357 0.12149,-0.82441 0.10943,-0.3308 0.27975,-0.60906 0.52729,-0.86152 0.25211,-0.2571 0.50794,-0.43382 0.93808,-0.64796 0.41305,-0.20564 0.593,-0.26536 0.61633,-0.20456 0.0222,0.0578 -0.0585,0.15499 -0.46723,0.56313 -0.43834,0.43767 -0.57867,0.6068 -0.74499,0.89787 -0.32056,0.56101 -0.40234,1.23165 -0.21897,1.79575 0.2147,0.66047 0.83381,1.53844 1.82734,2.59142 1.3104,1.38878 2.26976,2.10455 3.19196,2.38152 0.24332,0.0731 0.39387,0.0944 0.67041,0.0949 0.3802,6.5e-4 0.6332,-0.0636 0.96773,-0.24586 0.50741,-0.27651 0.70813,-0.6106 0.57551,-0.95793 -0.11695,-0.30626 -0.42887,-0.60398 -1.04533,-0.99773 -1.02565,-0.65512 -1.61393,-1.16561 -1.91393,-1.66081 -0.0797,-0.13148 -0.12282,-0.24794 -0.16247,-0.43824 -0.0544,-0.26123 -0.0253,-0.44078 0.0715,-0.44078 0.0516,0 0.17877,0.0733 0.29893,0.17231 0.4137,0.34085 0.9272,0.51675 1.51823,0.52012 0.24269,10e-4 0.24585,9.8e-4 0.35465,-0.0506 0.29858,-0.14144 0.43772,-0.47311 0.43682,-1.04133 -5e-4,-0.32476 -0.023,-0.4642 -0.0997,-0.61682 -0.37659,-0.74953 -1.00059,-1.43523 -1.75287,-1.92617 -0.71843,-0.46885 -1.61973,-0.82748 -2.65688,-1.05717 -0.0875,-0.0194 -0.15917,-0.0409 -0.15917,-0.0478 0,-0.007 -0.007,-0.16243 -0.0167,-0.34556 -0.11501,-2.29769 -0.5826,-3.89135 -1.47062,-5.01217 -0.15947,-0.20127 -0.54162,-0.58762 -0.72474,-0.73272 -0.37319,-0.29566 -0.83444,-0.54471 -1.28151,-0.69191 -0.50163,-0.16518 -0.90386,-0.22757 -1.47741,-0.22917 -0.43151,-10e-4 -0.59671,0.0171 -0.94135,0.10425 -0.50393,0.12743 -1.05057,0.40045 -1.54413,0.77117 l -0.15101,0.11343 2.3e-4,0.41106 2.3e-4,0.41106 0.16523,0.12231 c 0.51734,0.38298 0.77063,0.80067 0.74254,1.2245 -0.005,0.081 -0.0299,0.20958 -0.0589,0.30877 -0.0687,0.2348 -0.0905,0.43475 -0.0667,0.61292 0.0455,0.34191 0.18634,0.62954 0.45595,0.9312 0.35406,0.39614 0.53984,0.82963 0.63319,1.4774 0.0171,0.11875 0.0288,0.40462 0.0381,0.93053 0.0106,0.59996 0.0204,0.81786 0.047,1.03934 0.13533,1.12796 0.44376,2.18657 1.00281,3.44186 0.54713,1.22852 1.27735,2.64035 2.54995,4.93014 2.2307,4.01369 3.33654,6.2069 3.94306,7.82026 0.4538,1.2071 0.77329,2.47436 0.84152,3.33785 0.0346,0.43789 0.0725,0.63916 0.13303,0.70602 0.0391,0.0433 0.0649,0.0351 0.11736,-0.0373 0.0619,-0.0855 0.13197,-0.27996 0.23144,-0.64249 l 0.0802,-0.29213 v -0.92 c 0,-0.50599 0.004,-0.91999 0.009,-0.91999 0.0465,0 0.97752,0.36717 1.35435,0.53412 1.61962,0.71758 2.5286,1.45297 2.7513,2.22589 0.0283,0.0983 0.0376,0.1912 0.0487,0.48866 0.0192,0.51317 0.0519,0.68565 0.12989,0.68565 0.0173,0 0.0509,-0.0256 0.0748,-0.0569 z m -13.16401,-27.58852 c -0.29857,-0.0567 -0.48145,-0.22937 -0.54972,-0.51896 -0.0312,-0.13246 -0.0314,-0.43115 -3.9e-4,-0.59338 0.0619,-0.32336 0.25262,-0.53919 0.53899,-0.60981 0.11364,-0.028 0.40324,-0.0249 0.53545,0.006 0.37672,0.0874 0.56591,0.36344 0.56591,0.82576 0,0.56352 -0.28495,0.87317 -0.83311,0.9053 -0.084,0.005 -0.18425,-8.1e-4 -0.25713,-0.0146 z m -2.39289,1.27952 c 0.14845,-0.0917 0.24983,-0.28314 0.22675,-0.42809 -0.033,-0.2072 -0.22341,-0.46569 -0.53364,-0.72446 l -0.12772,-0.10652 -0.61611,0.14208 c -0.33886,0.0781 -0.6188,0.14459 -0.6221,0.14766 -0.013,0.0122 0.19404,0.21377 0.34178,0.33282 0.29598,0.23844 0.64321,0.4282 1.1253,0.61496 0.0763,0.0296 0.14157,0.0541 0.145,0.0545 0.003,3.3e-4 0.0308,-0.0144 0.0607,-0.0329 z m -1.41379,-1.38625 0.87339,-0.15692 0.004,-0.42913 0.004,-0.42914 -0.0533,0.0115 c -0.0293,0.006 -0.13615,0.0435 -0.23737,0.0825 -0.50024,0.19286 -0.96207,0.49706 -1.39132,0.91643 -0.17689,0.17284 -0.18443,0.1828 -0.1306,0.17253 0.0314,-0.006 0.45016,-0.0815 0.93052,-0.16782 z m 4.42433,-7.80774 c 9.7e-4,-1.61307 0.14406,-2.68953 0.49128,-3.69581 0.44685,-1.29503 1.18093,-2.27885 2.38165,-3.19196 1.46052,-1.11065 3.39327,-1.90019 5.28711,-2.15977 1.54865,-0.21228 3.16264,-0.0342 4.80988,0.53054 0.5641,0.19342 0.99229,0.37515 1.55904,0.66165 1.32546,0.67008 2.39814,1.52776 3.07149,2.45586 0.63419,0.87412 1.03668,1.96321 1.19704,3.23906 0.0764,0.60768 0.10584,1.17482 0.10628,2.04615 l 2.7e-4,0.55913 h -9.45215 -9.45215 z m 17.53275,-0.9328 c 0,-0.14627 -0.0314,-0.65422 -0.0581,-0.94049 -0.11968,-1.28202 -0.44113,-2.20662 -1.03298,-2.97115 -0.13178,-0.17023 -0.44989,-0.49866 -0.64753,-0.66855 -1.21373,-1.0433 -3.20097,-1.91541 -5.04176,-2.21259 -0.53746,-0.0868 -0.68517,-0.0979 -1.30049,-0.0977 -0.60254,0 -0.74857,0.0107 -1.25702,0.0909 -1.83602,0.28967 -3.8319,1.18098 -5.06013,2.25973 -1.01841,0.89448 -1.51121,2.01891 -1.64905,3.76265 -0.0229,0.29006 -0.0475,0.83745 -0.0384,0.85298 0.004,0.007 3.62483,0.0122 8.04633,0.0122 h 8.03908 z M 142.18931,306.055 c -0.11223,-0.003 -0.40608,-0.0132 -0.65299,-0.0228 -6.23232,-0.24331 -13.32146,-2.21426 -21.18164,-5.88899 -0.80063,-0.3743 -1.26519,-0.59805 -1.26519,-0.60936 0,-0.0116 0.46066,-0.23678 1.1754,-0.57462 7.34948,-3.47404 14.02094,-5.44864 19.9491,-5.90446 1.5079,-0.11594 3.14598,-0.13344 4.61181,-0.0493 5.91706,0.33979 12.49947,2.18217 19.76639,5.53253 0.56916,0.2624 1.38924,0.65138 1.82071,0.8636 l 0.2667,0.13118 -0.079,0.04 c -0.14749,0.0746 -1.08921,0.52005 -1.53189,0.72457 -7.40939,3.42313 -14.1081,5.32711 -20.03073,5.69338 -0.84141,0.052 -2.16787,0.082 -2.84871,0.0643 z m 1.57536,-2.53723 c 0.93288,-0.0257 1.7441,-0.0742 2.60383,-0.15564 4.14642,-0.39276 8.42022,-1.45707 12.93152,-3.22034 0.68467,-0.2676 1.35454,-0.54664 1.341,-0.55858 -0.0306,-0.027 -1.18712,-0.50522 -1.83587,-0.75916 -6.29267,-2.46312 -12.18496,-3.53802 -17.75858,-3.23962 -4.62139,0.24742 -9.42639,1.37654 -14.52106,3.41228 -0.6321,0.25256 -1.39512,0.56859 -1.41635,0.58663 -0.0199,0.0169 1.11114,0.47211 2.06935,0.83281 5.81288,2.18808 11.45471,3.24311 16.58616,3.10162 z m 1.1443,-16.45718 c -0.006,-0.85642 -0.0169,-2.98229 -0.0247,-4.72416 -0.0155,-3.5003 -0.006,-3.21833 -0.1225,-3.64876 -0.47419,-1.75281 -2.55424,-3.91097 -6.10472,-6.33396 l -0.32294,-0.22038 0.009,-0.0816 c 0.0174,-0.15499 3.38675,-22.62153 3.39359,-22.62838 0.004,-0.004 0.10528,-0.0284 0.22556,-0.0548 0.49426,-0.10833 1.14355,-0.15886 1.6716,-0.13011 1.82571,0.0994 3.12346,0.93085 3.71883,2.38259 l 0.0569,0.13876 0.007,18.4085 0.007,18.40851 -0.36825,0.01 c -0.20253,0.006 -0.76587,0.0147 -1.25186,0.0204 l -0.88363,0.0104 z m 0.82381,-23.5336 0.0509,-11.12039 -0.0623,-0.11935 c -0.0744,-0.14258 -0.30022,-0.3789 -0.46295,-0.48446 -0.34889,-0.22633 -0.84223,-0.37522 -1.35855,-0.41002 -0.26008,-0.0175 -0.46732,-0.002 -0.55905,0.0413 -0.031,0.0147 -0.0821,0.0582 -0.11362,0.0967 l -0.0573,0.07 -1.37268,9.56193 c -0.75497,5.25907 -1.37045,9.57312 -1.36773,9.58679 0.003,0.0137 0.17759,0.13112 0.38859,0.26102 1.44165,0.88752 2.54342,1.72677 3.41193,2.59893 0.60354,0.60608 1.0425,1.17754 1.33047,1.73207 l 0.11427,0.22006 0.004,-0.4571 c 0.002,-0.25141 0.0265,-5.46127 0.0545,-11.57748 z m 4.69947,-18.65573 c -0.40488,-0.0663 -0.75403,-0.19362 -1.50073,-0.54709 -0.17508,-0.0829 -0.43251,-0.20473 -0.57206,-0.27078 -0.40005,-0.18932 -0.72426,-0.28368 -1.18287,-0.34424 -0.25607,-0.0338 -0.98506,-0.0384 -1.33865,-0.008 -0.63407,0.0538 -1.15054,0.10726 -1.52638,0.15812 -0.22896,0.031 -0.88277,0.11536 -1.45292,0.18751 -2.16418,0.27386 -2.92958,0.38257 -3.96008,0.56248 -1.18115,0.2062 -2.40479,0.24113 -3.41064,0.0974 -0.79738,-0.11399 -1.52163,-0.33502 -2.19869,-0.67101 -0.24903,-0.12357 -0.29457,-0.15256 -0.38975,-0.24809 -0.18687,-0.18755 -0.26577,-0.40169 -0.26543,-0.72035 4.1e-4,-0.38419 0.14989,-0.76315 0.39813,-1.00937 0.0998,-0.099 0.14145,-0.11971 0.35798,-0.1781 0.13523,-0.0365 0.18958,-0.042 0.42445,-0.0433 0.33871,-0.002 0.47834,0.0206 1.1101,0.17898 0.48288,0.12104 0.75112,0.17413 0.97949,0.19389 0.10551,0.009 0.16759,0.001 0.44894,-0.0564 1.57088,-0.32238 3.0101,-0.87563 4.17919,-1.60654 0.11672,-0.073 0.48771,-0.34141 0.82441,-0.59652 1.0347,-0.78395 1.77737,-1.35366 4.65262,-3.56906 0.60606,-0.46697 1.35538,-1.04398 1.66514,-1.28223 l 0.56321,-0.43319 -0.005,-0.36597 c -0.003,-0.20129 -0.10804,-6.59926 -0.23386,-14.21771 -0.12581,-7.61845 -0.22924,-13.99498 -0.22983,-14.17007 -0.001,-0.3412 0.0208,-0.47842 0.1016,-0.63691 0.0514,-0.10069 0.16757,-0.20822 0.28229,-0.26123 0.0977,-0.0451 0.11475,-0.0474 0.48486,-0.0639 0.41748,-0.0187 1.90784,-0.0457 2.94666,-0.0534 l 0.653,-0.005 0.0191,0.0968 c 0.14574,0.73837 0.15736,5.66732 0.0378,16.01589 -0.009,0.78115 -0.0346,2.974 -0.0568,4.873 -0.0982,8.38909 -0.10082,8.75505 -0.0668,9.30523 0.0305,0.49255 0.0715,1.02289 0.14031,1.81207 0.0763,0.87548 0.13029,1.55484 0.14663,1.84472 0.0247,0.43889 0.0927,0.75057 0.31845,1.46109 0.23039,0.725 0.30127,1.01623 0.33573,1.37946 0.0345,0.36333 -0.002,0.64042 -0.14181,1.06928 -0.22935,0.70495 -0.59192,1.29578 -1.03407,1.68511 -0.278,0.24477 -0.4377,0.33365 -0.74335,0.41368 -0.1713,0.0448 -0.55866,0.0571 -0.76028,0.0241 z m 0.31894,-1.32348 c 0.0528,-0.0138 0.13334,-0.045 0.17889,-0.0694 0.11118,-0.0596 0.31113,-0.25997 0.41684,-0.41782 0.15165,-0.22645 0.36097,-0.69866 0.42618,-0.9614 0.0126,-0.0506 0.0166,-0.16207 0.0115,-0.31834 -0.0103,-0.31743 -0.0513,-0.49414 -0.26636,-1.14653 -0.0932,-0.28283 -0.1881,-0.59137 -0.21084,-0.68564 -0.0721,-0.29876 -0.16177,-1.18829 -0.30209,-2.99564 -0.0453,-0.58362 -0.0996,-1.27049 -0.12064,-1.52638 l -0.0382,-0.46527 0.0212,-3.15888 c 0.0249,-3.71736 0.072,-10.37121 0.13618,-19.23897 0.0254,-3.51068 0.0452,-6.38408 0.044,-6.38533 -0.004,-0.004 -1.97728,0.0643 -1.98277,0.0685 -0.003,0.002 0.003,0.43271 0.0126,0.95658 0.0515,2.74177 0.12056,6.41292 0.16376,8.69868 0.10536,5.57566 0.14832,8.14 0.19664,11.73765 0.0444,3.30183 0.0366,6.65686 -0.017,7.37888 -0.0248,0.33385 -0.0359,0.372 -0.12906,0.44312 -0.0429,0.0327 -0.52535,0.40775 -1.07219,0.83341 -0.54685,0.42565 -2.04478,1.58867 -3.32873,2.58448 -1.28396,0.99582 -2.46303,1.91375 -2.62016,2.03986 -1.40907,1.13093 -3.05536,1.89636 -5.33826,2.48199 l -0.35099,0.09 0.3918,-0.008 c 0.54699,-0.0107 1.02315,-0.0643 2.04878,-0.23076 0.82211,-0.13341 1.18905,-0.18733 1.54271,-0.22669 0.5068,-0.0564 0.84087,-0.10044 1.9902,-0.2624 2.1161,-0.29819 2.78397,-0.36205 3.95209,-0.37789 0.48566,-0.007 0.7285,-0.004 0.83257,0.0101 0.49687,0.0656 0.95164,0.21283 1.68147,0.54423 0.19753,0.0897 0.49505,0.22144 0.66114,0.29277 0.16609,0.0713 0.38742,0.16983 0.49184,0.21887 0.26194,0.12304 0.39037,0.14436 0.5769,0.0958 z m -21.8504,-43.02528 c -1.17522,-0.0215 -3.1532,-0.0754 -4.1547,-0.11312 -0.23345,-0.009 -0.86617,-0.016 -1.40604,-0.016 h -0.9816 l -0.0725,-0.0857 c -0.40776,-0.48215 -0.44155,-0.98573 -0.107,-1.59472 0.14849,-0.27029 0.35437,-0.43723 0.66373,-0.53819 0.62899,-0.20528 1.80359,-0.10229 3.2376,0.28385 0.22147,0.0596 0.31455,0.0757 0.55982,0.0969 0.70495,0.0608 1.51437,0.0643 2.0658,0.009 1.03174,-0.10348 1.83914,-0.36417 2.50574,-0.80905 0.57342,-0.38269 0.98208,-0.77708 1.15707,-1.11666 0.0977,-0.18961 0.12945,-0.30581 0.1294,-0.47357 0,-0.12063 -0.009,-0.16436 -0.0682,-0.33466 -0.13821,-0.39726 -0.17513,-0.68051 -0.16153,-1.23941 0.0135,-0.55427 0.0641,-0.91305 0.27516,-1.95212 0.1481,-0.72897 0.23677,-1.14028 0.35086,-1.6274 l 0.0925,-0.39485 -0.0519,-0.12743 c -0.10746,-0.26382 -0.26151,-0.46616 -0.43018,-0.56501 -0.20841,-0.12213 -0.5096,-0.12225 -0.73367,-3.1e-4 -0.0763,0.0415 -0.1763,0.13892 -0.31932,0.31098 -0.17417,0.20954 -0.56484,0.38235 -1.05842,0.46818 -0.12217,0.0212 -0.13273,0.0207 -0.19463,-0.0108 -0.19388,-0.0986 -0.42976,-0.30152 -0.5551,-0.47762 -0.15536,-0.21828 -0.21672,-0.38956 -0.28543,-0.79677 -0.0535,-0.31733 -0.0854,-0.46753 -0.12452,-0.58684 -0.0203,-0.062 -0.0446,-0.0924 -0.12038,-0.15068 -0.25828,-0.19879 -0.42478,-0.4889 -0.42478,-0.74016 0,-0.0671 -0.008,-0.0806 -0.12525,-0.20472 -0.28213,-0.29932 -0.406,-0.5834 -0.36612,-0.83961 0.0499,-0.32069 0.29275,-0.56077 0.98928,-0.97812 0.55971,-0.33536 0.93156,-0.59909 1.35159,-0.95859 0.12756,-0.10918 0.27601,-0.23205 0.32988,-0.27306 0.32132,-0.24457 0.69673,-0.44218 1.06112,-0.55856 0.70193,-0.22418 1.03071,-0.33431 1.33697,-0.44785 l 0.34114,-0.12647 0.0194,-0.0649 c 0.10534,-0.35238 0.50126,-0.58745 1.20834,-0.71741 0.40574,-0.0746 0.70721,-0.0975 1.28967,-0.0979 0.42237,-2.9e-4 0.58985,0.006 0.77544,0.029 1.0682,0.13275 2.01309,0.49267 2.94665,1.12242 0.74038,0.49944 1.35127,1.14442 1.95491,2.06399 0.44731,0.68141 0.91157,1.5854 1.27758,2.48761 l 0.10186,0.25108 0.16122,0.14748 c 0.77003,0.70439 1.58862,1.22208 2.50386,1.58351 1.92745,0.76114 4.15113,0.82733 6.83786,0.20355 l 0.29972,-0.0696 0.1815,-0.21222 c 0.96807,-1.13193 2.07678,-1.81019 3.25949,-1.99402 0.26811,-0.0417 0.64081,-0.0382 0.85876,0.008 0.58901,0.12471 1.1128,0.43592 1.6643,0.98884 0.46649,0.46769 0.8758,1.01911 1.3197,1.77792 l 0.14152,0.24192 -0.0608,0.1009 c -0.0789,0.13083 -0.23722,0.28856 -0.33839,0.33711 -0.10834,0.052 -0.28157,0.0628 -0.41113,0.0257 -0.29547,-0.0847 -0.62817,-0.36983 -1.04838,-0.8986 -0.45242,-0.56932 -0.79766,-0.84521 -1.20564,-0.96343 -0.3537,-0.1025 -0.70809,-0.0595 -1.08909,0.13227 -0.16411,0.0826 -0.38917,0.23273 -0.50453,0.3366 l -0.0779,0.0701 0.4443,0.24487 c 1.52454,0.84026 3.09076,1.8813 4.37221,2.90617 1.33178,1.06511 2.29907,2.18748 2.89802,3.36262 0.20778,0.40765 0.31108,0.69786 0.37773,1.06112 0.0378,0.20577 0.0378,0.62024 1.6e-4,0.82441 -0.0929,0.50314 -0.34938,0.96732 -0.78055,1.4124 l -0.18159,0.18745 h -7.77641 -7.77641 l -0.0746,-0.0939 c -0.33644,-0.42327 -0.39832,-0.8421 -0.17639,-1.19395 0.0318,-0.0504 0.103,-0.13818 0.15824,-0.19507 0.34072,-0.35084 0.76797,-0.49136 1.49623,-0.4921 0.64657,-6.5e-4 1.32689,0.10518 2.36022,0.36716 0.71948,0.18242 1.09632,0.24584 1.56593,0.26354 0.93098,0.0351 1.64104,-0.23732 2.09752,-0.80477 0.0534,-0.0663 0.12723,-0.17145 0.16416,-0.23361 l 0.0671,-0.11303 -0.0641,-0.13569 c -0.24858,-0.5264 -0.83514,-0.88517 -1.76988,-1.08252 -0.57985,-0.12243 -1.17435,-0.11912 -1.6742,0.009 -0.24631,0.0633 -0.45766,0.14406 -0.72253,0.27611 -0.39606,0.19746 -0.80285,0.34787 -1.43217,0.52954 -1.17114,0.33808 -3.27976,0.77724 -4.77947,0.99542 -1.1865,0.17261 -2.07946,0.24405 -3.05277,0.24424 -0.72622,1.7e-4 -0.89249,-0.0105 -1.74677,-0.11164 -0.73748,-0.0873 -1.23996,-0.0244 -1.4524,0.18195 -0.0903,0.0877 -0.12218,0.17 -0.1226,0.31674 -3.9e-4,0.13776 0.0244,0.23614 0.10697,0.42389 0.0658,0.14956 0.0686,0.18808 0.019,0.26162 -0.22586,0.33515 -1.39513,0.53996 -3.62804,0.63547 -1.13138,0.0484 -3.92385,0.0639 -5.68925,0.0315 z m 6.87291,-1.80662 c 1.6e-4,-0.11553 0.0433,-0.38002 0.0923,-0.56609 0.2185,-0.82953 0.73666,-1.28774 1.63809,-1.4486 0.0845,-0.0151 0.26653,-0.0215 0.5877,-0.0208 0.46462,0.001 0.46598,0.001 0.98766,0.0767 1.44033,0.20846 2.52501,0.28906 3.8935,0.28934 0.94585,2e-4 1.5784,-0.0306 2.17938,-0.10629 1.36811,-0.1722 3.07318,-0.66566 5.13878,-1.48722 0.48254,-0.19192 1.34823,-0.5555 1.68352,-0.70705 l 0.11273,-0.051 -0.0111,-0.34794 c -0.037,-1.15744 -0.20351,-1.77213 -0.52241,-1.92816 -0.10086,-0.0493 -0.10255,-0.0494 -0.53268,-0.003 -0.80025,0.0859 -1.95428,0.0865 -2.80789,0.002 -2.00833,-0.19988 -3.77582,-0.86303 -5.26815,-1.97658 -0.23807,-0.17765 -0.62737,-0.50205 -0.81045,-0.67535 -0.0756,-0.0716 -0.14132,-0.13012 -0.14605,-0.13012 -0.005,0 -0.13706,0.15979 -0.29407,0.35507 -1.53365,1.90746 -3.36544,3.43986 -5.61073,4.6937 -0.35864,0.20028 -1.24277,0.64563 -1.54888,0.7802 -0.22546,0.0991 -0.2412,0.11456 -0.29611,0.29053 -0.0428,0.13727 -0.0431,0.38312 -7.1e-4,0.57497 0.0923,0.41754 0.39807,0.99958 0.85804,1.63356 0.21867,0.30139 0.64025,0.83028 0.66182,0.83028 0.009,0 0.0157,-0.0349 0.0158,-0.0775 z m 25.32395,-0.71241 c 0.1421,-0.0265 0.2366,-0.0676 0.26677,-0.11608 0.0174,-0.028 0.006,-0.0722 -0.0814,-0.31017 -0.56791,-1.549 -1.45584,-2.80834 -2.6954,-3.82283 -1.08597,-0.8888 -2.26248,-1.45613 -3.55052,-1.71212 -0.16928,-0.0336 -0.52644,-0.0254 -0.67469,0.0156 -0.301,0.0832 -0.48583,0.2654 -0.56066,0.55277 -0.0606,0.23254 -0.0157,0.67448 0.10715,1.05661 0.0482,0.14981 0.12473,0.27393 0.33241,0.5389 0.93376,1.19136 2.81532,2.42214 5.49738,3.59599 0.17509,0.0766 0.36976,0.16208 0.43261,0.18989 l 0.11428,0.0506 0.34282,-0.008 c 0.19367,-0.004 0.39784,-0.018 0.46929,-0.0313 z m -26.31171,-4.25066 c 2.67275,-1.35246 4.90199,-3.2233 6.48869,-5.44547 l 0.18458,-0.25851 -0.0288,-0.14146 c -0.0866,-0.42613 -0.32759,-0.97719 -0.61602,-1.40877 -0.27428,-0.41039 -0.52306,-0.70497 -0.92346,-1.09343 -0.90365,-0.8767 -1.79298,-1.37932 -2.58753,-1.46237 l -0.10054,-0.0105 0.0315,0.0476 c 0.22537,0.33996 0.43036,0.72557 0.50525,0.95045 0.16959,0.50922 0.0975,0.87508 -0.21975,1.11575 -0.12999,0.0986 -0.32904,0.18681 -0.54402,0.24111 -0.24879,0.0628 -0.39496,0.14025 -0.54136,0.28673 -0.1259,0.12595 -0.19921,0.25542 -0.24512,0.43286 -0.0359,0.1388 -0.0356,0.41783 5.9e-4,0.62035 0.08,0.44711 -0.0782,0.91844 -0.49475,1.47372 -0.1844,0.24583 -0.42314,0.51196 -0.68158,0.75975 l -0.21601,0.20711 -0.0939,0.23672 c -0.27584,0.69556 -0.46325,1.43069 -0.55765,2.18754 -0.0239,0.19138 -0.0295,0.35707 -0.0295,0.86522 -1e-5,0.34569 0.006,0.64846 0.0124,0.67282 l 0.0124,0.0443 0.15901,-0.0781 c 0.0875,-0.043 0.30592,-0.15251 0.4855,-0.24338 z m -3.66333,-4.01838 c 0.089,-0.0418 0.19152,-0.13938 0.27599,-0.26256 0.19932,-0.29068 0.47294,-0.42331 0.8733,-0.42331 0.46332,0 0.82899,0.19382 1.00398,0.53214 0.0224,0.0434 0.0423,0.0816 0.0442,0.085 0.007,0.0121 0.15321,-0.0824 0.31788,-0.20491 0.54041,-0.40218 0.91572,-0.93481 1.0735,-1.52344 0.0654,-0.24387 0.0829,-0.39879 0.0996,-0.88155 0.0185,-0.53351 0.007,-0.66817 -0.0707,-0.83817 -0.0659,-0.14394 -0.14105,-0.21271 -0.33277,-0.30451 -0.36564,-0.17507 -0.49721,-0.31646 -0.52471,-0.56388 -0.0384,-0.34543 0.0641,-0.60444 0.34115,-0.86178 l 0.12963,-0.12043 -0.25722,0.0626 c -0.41639,0.10142 -0.99837,0.22023 -1.38365,0.28247 -0.5069,0.0819 -0.67754,0.11748 -0.87338,0.18213 -0.37632,0.12423 -0.70168,0.31766 -1.1101,0.65996 -0.39726,0.33294 -1.05536,0.81151 -1.53876,1.11899 -0.11009,0.07 -0.12902,0.0891 -0.14473,0.14586 -0.055,0.19859 0.0426,0.4692 0.26959,0.74789 l 0.0773,0.0949 -0.0196,0.12145 c -0.0561,0.3479 0.14955,0.59405 0.56557,0.67688 0.0921,0.0183 0.10588,0.0165 0.28456,-0.0385 0.10325,-0.0318 0.26854,-0.0919 0.36731,-0.13368 0.0988,-0.0417 0.21263,-0.0868 0.25303,-0.10022 0.10217,-0.0338 0.2489,-0.0206 0.35205,0.0316 0.0772,0.0391 0.25198,0.18148 0.25198,0.20524 0,0.006 -0.0496,0.0282 -0.1102,0.0495 -0.14032,0.0491 -0.50377,0.22587 -0.63667,0.30957 -0.11053,0.0696 -0.27937,0.12214 -0.49232,0.15318 l -0.13211,0.0192 v 0.079 c 0,0.0972 0.0406,0.29889 0.0829,0.41206 0.0396,0.10594 0.12882,0.21138 0.21671,0.25622 0.0651,0.0332 0.0808,0.0347 0.30845,0.0288 0.0112,-2.9e-4 0.0571,0.0108 0.10203,0.0245 0.10433,0.032 0.23985,0.023 0.33628,-0.0223 z m 2.26755,-1.5635 c -1.34822,-0.14276 -2.03223,-0.3549 -2.16893,-0.67266 -0.0931,-0.2164 -0.10871,-0.50605 -0.0371,-0.68737 0.0603,-0.15267 0.0651,-0.15569 0.16783,-0.10533 l 0.0876,0.043 -1.7e-4,0.18241 c -1.6e-4,0.17327 0.003,0.18786 0.0534,0.2913 0.15066,0.30637 0.59478,0.53817 1.30361,0.68042 0.25909,0.052 0.66637,0.10767 0.92017,0.1258 0.0853,0.006 0.16427,0.0159 0.1755,0.0218 0.0117,0.006 -0.0408,0.0367 -0.12264,0.0713 -0.14407,0.061 -0.20005,0.0683 -0.37935,0.0493 z m -1.83889,-1.91099 c 0.0124,-0.29033 0.0382,-0.4367 0.0981,-0.55486 0.0592,-0.11688 0.11727,-0.17943 0.21243,-0.22891 0.0741,-0.0385 0.1059,-0.0442 0.27948,-0.0495 0.25981,-0.008 0.45842,0.0315 0.66636,0.13284 0.0824,0.0402 0.16636,0.0907 0.18649,0.11219 l 0.0366,0.0392 -0.0856,0.0895 c -0.22919,0.23972 -0.61888,0.44792 -1.03553,0.55325 -0.0435,0.011 -0.072,0.0288 -0.0784,0.0489 -0.006,0.0174 -0.0322,0.0503 -0.0594,0.0731 -0.04,0.0336 -0.0667,0.0415 -0.14044,0.0415 h -0.0911 z m -0.48541,0.0327 c -0.0464,-0.15859 -0.0566,-0.48147 -0.0196,-0.62026 0.0631,-0.2372 0.20189,-0.39227 0.46804,-0.52309 0.21459,-0.10548 0.32079,-0.13374 0.54541,-0.14512 0.162,-0.008 0.49936,0.0227 0.77136,0.0706 0.10434,0.0184 0.0408,0.0843 -0.11493,0.11922 -0.0403,0.009 -0.20455,0.0233 -0.36489,0.0317 -0.23468,0.0123 -0.31572,0.023 -0.41557,0.0549 -0.23583,0.0755 -0.38676,0.21184 -0.5096,0.46026 -0.0676,0.13664 -0.13291,0.34838 -0.15018,0.48662 l -0.0117,0.0937 h -0.095 c -0.0764,0 -0.0966,-0.006 -0.10332,-0.0286 z m 5.02762,-0.67538 c 0.25479,-0.0953 0.44254,-0.43732 0.47392,-0.86325 0.0175,-0.23758 -0.0448,-0.3158 -0.23835,-0.29943 -0.14015,0.0119 -0.16016,0.0188 -0.22704,0.0793 -0.0882,0.0797 -0.14211,0.21216 -0.1796,0.4413 -0.0267,0.16297 -0.047,0.22836 -0.12302,0.39647 -0.0964,0.21303 -0.10937,0.27249 -0.0625,0.28629 0.0555,0.0163 0.26957,-0.008 0.35661,-0.0406 z m -0.99973,6.5e-4 c 0.0346,-0.01 0.0942,-0.0463 0.13238,-0.0815 0.14169,-0.1306 0.22936,-0.37041 0.28643,-0.78352 0.041,-0.29654 0.0779,-0.40346 0.1754,-0.50769 0.0939,-0.10041 0.2058,-0.14423 0.36786,-0.14407 0.11916,1.6e-4 0.33705,0.0438 0.4466,0.0896 0.0329,0.0137 0.063,0.0218 0.067,0.0178 0.004,-0.004 -0.0211,-0.0609 -0.0556,-0.12664 -0.0836,-0.15923 -0.23678,-0.31996 -0.36821,-0.38643 -0.19633,-0.0993 -0.45397,-0.12541 -0.59053,-0.0599 -0.14256,0.0684 -0.34761,0.30948 -0.47227,0.55518 -0.0255,0.0502 -0.10841,0.14769 -0.21525,0.25304 -0.30588,0.3016 -0.47227,0.52195 -0.52292,0.69248 -0.0229,0.0771 -0.0223,0.083 0.0153,0.14716 0.0543,0.0926 0.20699,0.23305 0.29644,0.27262 0.0818,0.0362 0.24849,0.0762 0.32541,0.0781 0.0269,6.7e-4 0.0773,-0.007 0.11191,-0.0163 z m 4.34481,-7.37215 c -5.88107,-0.0466 -10.98279,-0.0853 -11.33716,-0.0859 l -0.64431,-0.001 0.1464,-0.13338 c 0.2277,-0.20746 0.50155,-0.48678 0.98157,-1.00121 0.85577,-0.91711 1.21512,-1.23441 1.62816,-1.43761 0.24872,-0.12236 0.3632,-0.14522 0.66222,-0.13223 0.13057,0.006 0.36227,0.0189 0.51491,0.0294 0.3695,0.0254 1.79001,0.0258 2.21203,6.2e-4 0.96631,-0.0577 1.67589,-0.12927 2.47324,-0.24953 0.39519,-0.0596 0.39495,-0.0596 0.40461,-0.0935 0.004,-0.0149 0.0605,-0.19615 0.125,-0.40266 0.62015,-1.98566 1.75888,-6.54969 2.04177,-8.18345 l 0.0178,-0.1026 -0.11774,-0.19942 c -0.46152,-0.78164 -0.90823,-1.48225 -2.05796,-3.22769 -1.41637,-2.15021 -1.99556,-3.07625 -2.65115,-4.23877 -0.43895,-0.77837 -0.94876,-1.77078 -1.23993,-2.41365 -0.12292,-0.2714 -0.10305,-0.24724 -0.44944,-0.54661 -0.3009,-0.26005 -0.85803,-0.80737 -1.12198,-1.10221 -1.423,-1.58957 -2.26732,-3.33431 -2.50052,-5.16714 -0.0993,-0.78058 -0.0859,-1.26193 0.0889,-3.18308 0.0924,-1.01588 0.13868,-1.69111 0.13888,-2.02659 l 8e-5,-0.14105 -0.13468,-0.0356 c -0.48859,-0.12928 -1.09061,-0.32812 -2.02838,-0.66994 -1.2771,-0.4655 -1.89604,-0.65108 -2.55486,-0.76605 -1.00785,-0.17586 -2.01844,-0.10818 -3.01131,0.20169 -0.0715,0.0223 -0.13192,0.0386 -0.13433,0.0362 -0.009,-0.009 0.32936,-0.76531 0.48673,-1.08796 0.25997,-0.533 0.46247,-0.83983 0.74726,-1.13225 0.47619,-0.48893 0.93561,-0.70987 1.76927,-0.85081 0.39945,-0.0675 0.73791,-0.0924 1.68509,-0.12365 1.17347,-0.0388 1.77801,-0.1448 2.40433,-0.42176 0.12601,-0.0557 0.16675,-0.0652 0.35459,-0.0823 0.11672,-0.0106 0.58321,-0.0629 1.03664,-0.11616 0.93796,-0.11015 1.31934,-0.15101 1.7386,-0.18624 1.58069,-0.13281 2.75126,-0.0424 3.79107,0.29278 0.27515,0.0887 0.41542,0.17531 0.64671,0.39932 0.27476,0.2661 0.48262,0.56602 0.69644,1.00485 0.1489,0.30562 0.21854,0.47711 0.33596,0.8274 0.16435,0.49025 0.25004,0.87702 0.37368,1.68665 0.099,0.64797 0.16321,1.0165 0.22095,1.26738 0.0545,0.23681 0.15745,0.56836 0.18516,0.59636 0.0103,0.0105 0.1584,0.0757 0.32899,0.1449 1.32922,0.53944 2.67264,1.19177 3.73842,1.81527 1.53145,0.89592 2.85273,1.88635 4.09193,3.06731 0.36346,0.34638 1.11709,1.18834 2.29227,2.56093 1.72775,2.01799 3.18652,3.82881 6.87151,8.5298 2.9873,3.81092 4.50301,5.68583 6.20278,7.67273 0.90671,1.05988 1.9386,2.22169 2.63885,2.97114 0.54514,0.58343 0.98714,1.21597 1.19156,1.7052 0.22735,0.54412 0.19799,0.96454 -0.0842,1.20611 -0.16031,0.13722 -0.43811,0.23759 -0.75677,0.27345 l -0.16451,0.0185 -0.0551,0.17158 c -0.0711,0.22151 -0.24955,0.57483 -0.38955,0.77131 -0.13174,0.18486 -0.46618,0.52697 -0.65183,0.66677 -0.77439,0.58313 -1.77988,0.94194 -2.96518,1.05812 -0.27556,0.027 -0.301,0.027 -0.54603,-6.7e-4 -1.26996,-0.14327 -2.49174,-0.49832 -3.57912,-1.0401 -1.67188,-0.833 -3.16544,-2.14792 -4.59399,-4.04453 -0.53986,-0.71674 -1.32796,-1.89436 -1.77359,-2.6502 -0.0302,-0.0513 -0.0574,-0.0907 -0.0605,-0.0876 -0.003,0.003 -0.0235,0.094 -0.0454,0.2021 -0.10385,0.51184 -0.28262,0.87085 -0.5675,1.13972 -0.0756,0.0714 -0.19279,0.16077 -0.2631,0.20075 -0.27599,0.15694 -0.66896,0.24864 -0.91551,0.21362 -0.59325,-0.0842 -1.13611,-0.38187 -1.87708,-1.0291 l -0.22826,-0.19938 -0.0269,0.251 c -0.0587,0.5468 -0.15338,1.06423 -0.29982,1.63862 -0.15816,0.62038 -0.29791,1.0432 -0.78238,2.36712 l -0.20311,0.55505 0.31301,0.0106 c 0.99605,0.0337 2.45276,0.41828 3.6025,0.95113 0.96698,0.44816 1.70753,1.02114 2.09259,1.6191 0.0982,0.15251 0.2546,0.50526 0.23955,0.54033 -0.003,0.007 -4.81762,-0.0245 -10.69868,-0.0711 z m 20.19408,-2.02171 c 0.9783,-0.11371 1.70506,-0.41465 2.20526,-0.91315 0.0996,-0.0993 0.21595,-0.23008 0.2586,-0.29072 l 0.0775,-0.11026 -0.0611,-0.0856 c -0.78008,-1.09337 -2.17842,-2.53271 -3.56883,-3.67348 -0.22663,-0.18593 -1.4249,-0.97042 -2.88551,-1.88909 -3.39885,-2.13774 -7.07803,-4.27361 -11.8531,-6.88105 -1.33623,-0.72964 -5.04647,-2.7249 -5.40314,-2.90564 l -0.085,-0.0431 0.0537,0.0786 c 0.0296,0.0432 0.27029,0.37977 0.53499,0.7479 0.99203,1.37967 1.30869,1.82181 1.555,2.17122 0.99396,1.40996 1.7077,2.50798 2.28681,3.51803 0.19672,0.34309 0.31234,0.55598 0.6454,1.18827 l 0.0971,0.18427 0.16983,-0.11233 c 0.0934,-0.0618 0.28633,-0.1943 0.42872,-0.29448 0.14239,-0.10017 0.26404,-0.18213 0.27035,-0.18213 0.006,0 0.63346,0.74465 1.3937,1.65477 1.33937,1.60346 1.38452,1.65542 1.45602,1.67543 0.45044,0.12612 0.58162,-0.45175 0.407,-1.79282 -0.06,-0.46103 -0.35075,-3.07581 -0.34575,-3.10982 0.005,-0.0324 1.42457,1.68114 1.729,2.08668 0.39268,0.52307 0.777,1.07539 1.57331,2.261 1.39419,2.07582 2.01555,2.90678 2.85808,3.82217 1.5027,1.63267 3.13461,2.563 4.9776,2.83766 0.54136,0.0807 0.88684,0.097 1.22447,0.0577 z m -18.93706,-1.33795 c 1.0541,-0.27807 1.76911,-1.45176 2.21792,-3.64071 0.0405,-0.19738 0.0717,-0.36079 0.0693,-0.36315 -0.002,-0.002 -0.0588,0.0599 -0.12544,0.13823 -0.18546,0.21812 -0.53239,0.56963 -0.83619,0.84725 -0.2846,0.26008 -0.94863,0.82214 -0.97128,0.82214 -0.007,0 -0.0555,-0.19284 -0.10747,-0.42853 -0.28783,-1.3047 -0.52541,-2.14681 -0.7703,-2.73035 l -0.0274,-0.0653 -0.16977,0.63667 c -0.18922,0.70965 -0.36885,1.34493 -0.51281,1.81358 -0.28964,0.94291 -0.36689,1.32877 -0.36574,1.82689 5.7e-4,0.24618 0.006,0.31696 0.0363,0.43632 0.10546,0.42138 0.35655,0.65777 0.78514,0.73919 0.19824,0.0376 0.57141,0.0222 0.77769,-0.0322 z m 20.17494,-3.81877 c -0.0165,-0.0215 -0.23224,-0.2804 -0.4795,-0.57545 -0.76412,-0.91179 -1.22823,-1.48419 -3.03596,-3.74431 -2.2188,-2.77406 -3.03856,-3.77629 -6.56948,-8.03188 -2.96401,-3.57232 -4.45221,-5.38472 -5.71709,-6.96259 -0.33099,-0.4129 -0.477,-0.56419 -1.00997,-1.04652 -0.71424,-0.64637 -1.54956,-1.28995 -2.40793,-1.85522 -1.3619,-0.89686 -3.06966,-1.75725 -4.93268,-2.48515 -0.1675,-0.0654 -0.34531,-0.14605 -0.39513,-0.17912 -0.3104,-0.20603 -0.52072,-0.62336 -0.62977,-1.24967 -0.0463,-0.26612 -0.0755,-0.51207 -0.12377,-1.04479 -0.0461,-0.50903 -0.0743,-0.72316 -0.12128,-0.92237 -0.0169,-0.0718 -0.0535,-0.24153 -0.0812,-0.37711 -0.27814,-1.35982 -0.77983,-2.01013 -1.70381,-2.20854 -0.0827,-0.0178 -0.20309,-0.0374 -0.26758,-0.0436 l -0.11724,-0.0113 -0.0101,0.0632 c -0.0867,0.54404 -0.23968,1.00682 -0.49521,1.49827 -0.41997,0.80769 -1.02059,1.47964 -1.63903,1.83367 -0.0827,0.0473 -0.15471,0.0861 -0.16004,0.0861 -0.01,0 -0.27738,-0.56456 -0.27703,-0.58474 1.7e-4,-0.006 0.0439,-0.0351 0.0974,-0.0645 0.64986,-0.35694 1.07669,-1.30063 1.03913,-2.29741 -0.01,-0.25769 -0.0399,-0.50026 -0.0653,-0.52575 -0.0179,-0.0179 -1.27566,0.15001 -2.39369,0.31959 -0.0707,0.0107 -0.0672,0.0122 0.094,0.0389 0.28978,0.048 0.55192,0.18456 0.74816,0.38981 0.13018,0.13616 0.16996,0.19067 0.16985,0.2327 -6.7e-4,0.25344 -0.31486,0.45287 -0.79181,0.50258 -0.47832,0.0499 -0.95237,-0.0902 -1.13676,-0.33578 -0.0578,-0.0769 -0.11196,-0.22365 -0.11196,-0.30307 0,-0.11541 0.31919,-0.36461 0.57954,-0.45246 0.0652,-0.022 0.0652,-0.022 -0.0408,-0.013 -0.29332,0.0249 -1.33321,0.15906 -2.21203,0.28545 -0.54035,0.0777 -1.97136,0.27619 -2.00751,0.27843 -0.009,5.7e-4 0.0886,0.03 0.21747,0.0653 0.47585,0.13049 1.08403,0.34365 1.95329,0.68463 1.53029,0.60027 2.25888,0.80755 3.11781,0.88701 l 0.21197,0.0196 -0.005,0.13031 c -0.003,0.0717 -0.0261,0.56742 -0.0525,1.10165 -0.0754,1.52954 -0.0811,1.68017 -0.0919,2.42426 -0.0213,1.47063 0.0684,2.58288 0.29004,3.59597 0.43806,2.00276 1.40685,3.4684 2.98561,4.51681 0.30413,0.20196 0.71341,0.44367 0.72746,0.42961 0.004,-0.004 -0.0507,-0.12808 -0.12191,-0.27537 -0.58189,-1.20342 -0.71291,-2.51767 -0.35704,-3.5816 0.37776,-1.12939 1.31429,-2.16144 2.67387,-2.94655 0.41182,-0.23781 0.95404,-0.48835 1.40373,-0.6486 0.4712,-0.16791 0.98172,-0.2617 1.06802,-0.19621 0.0309,0.0235 0.0309,0.0246 -6.8e-4,0.0791 -0.0469,0.081 -0.23279,0.2237 -0.82457,0.63329 -1.09581,0.75844 -1.69871,1.24666 -2.17915,1.76464 -0.61361,0.66155 -0.92341,1.26891 -0.96306,1.88803 -0.0119,0.18554 0.0148,0.69367 0.0514,0.9778 0.14904,1.15802 0.57249,2.13233 1.32061,3.03854 0.20266,0.24548 0.7057,0.74335 0.98872,0.97854 0.58812,0.48874 1.27171,0.95438 2.17122,1.47896 0.54167,0.31589 0.94288,0.53419 5.28929,2.8779 4.43721,2.39268 6.28162,3.41978 8.55428,4.76366 2.79733,1.65413 5.47764,3.41014 7.47684,4.89849 0.17508,0.13034 0.32078,0.23742 0.32378,0.23795 0.003,5.2e-4 -0.008,-0.0166 -0.0245,-0.038 z m -18.83281,-1.42562 c 0.28673,-0.39475 0.3782,-0.56206 0.42234,-0.77247 0.043,-0.20495 0.008,-0.3591 -0.12808,-0.56488 -0.0408,-0.0616 -0.16401,-0.26997 -0.27389,-0.46301 -2.3341,-4.10056 -4.74641,-7.59225 -7.11641,-10.3006 -0.31394,-0.35877 -0.28375,-0.32652 -0.26027,-0.27798 0.10469,0.21642 0.65585,1.17464 1.01934,1.77217 0.47972,0.78859 0.78319,1.2572 2.30768,3.5635 1.08015,1.63409 1.62302,2.50644 2.16196,3.47415 0.70436,1.26472 1.28962,2.57802 1.64449,3.69017 0.0206,0.0646 0.0424,0.11446 0.0485,0.11073 0.006,-0.004 0.0845,-0.10802 0.17439,-0.23178 z"
       id="path966" />
    <g
       aria-label="ALBERTO"
       transform="matrix(2.7839642,0,0,2.7839642,-1007.0916,-810.36416)"
       id="text2874"
       style="font-weight:500;font-size:19.0077px;line-height:1.25;font-family:'Helvetica Neue';-inkscape-font-specification:'Helvetica Neue Medium';text-align:center;text-anchor:middle;white-space:pre;inline-size:858.441;stroke-width:1.51181;stroke-linecap:round;paint-order:markers fill stroke;stop-color:#000000">
      <path
         d="m 393.09494,321.43809 h -2.39497 l -0.38016,2.10985 h -2.12886 l 2.66108,-13.30539 h 2.09085 l 2.66108,13.30539 h -2.12887 z m -0.36115,-2.09085 -0.83634,-4.77093 -0.83633,4.77093 z"
         style="font-weight:normal;font-family:Bison;-inkscape-font-specification:Bison"
         id="path22640" />
      <path
         d="m 402.16102,321.4571 h -3.42139 v -11.21455 h -2.09085 v 13.30539 h 5.51224 z"
         style="font-weight:normal;font-family:Bison;-inkscape-font-specification:Bison"
         id="path22642" />
      <path
         d="m 406.33796,323.54794 q 1.36855,0 2.18589,-0.7413 0.4942,-0.43717 0.72229,-1.06443 0.2471,-0.57023 0.2471,-1.38756 v -1.21649 q 0,-1.65367 -1.04543,-2.39497 0.76031,-0.70329 0.76031,-2.05284 v -1.2355 q 0,-0.79832 -0.2471,-1.40657 -0.22809,-0.62725 -0.72229,-1.06443 -0.83634,-0.7413 -2.18589,-0.7413 h -2.87016 v 13.30539 z m -1.06443,-5.58826 h 1.06443 q 0.53222,0 0.77932,0.22809 0.28511,0.26611 0.28511,0.95039 v 1.21649 q 0,0.64626 -0.26611,0.89336 -0.22809,0.20909 -0.79832,0.20909 h -1.06443 z m 0,-5.62628 h 0.77931 q 0.57024,0 0.79833,0.20908 0.26611,0.26611 0.26611,0.91237 v 1.2355 q 0,0.66527 -0.28512,0.95039 -0.2471,0.22809 -0.77932,0.22809 h -0.77931 z"
         style="font-weight:normal;font-family:Bison;-inkscape-font-specification:Bison"
         id="path22644" />
      <path
         d="m 412.84691,312.3334 v 3.34536 h 2.35696 v 2.09084 h -2.35696 v 3.6875 h 3.42139 v 2.09084 h -5.51224 v -13.30539 h 5.51224 v 2.09085 z"
         style="font-weight:normal;font-family:Bison;-inkscape-font-specification:Bison"
         id="path22646" />
      <path
         d="m 423.80336,323.54794 h -2.12886 l -1.08344,-5.34116 h -0.95038 v 5.34116 h -2.09085 v -13.30539 h 3.15528 q 1.34954,0 2.20489,0.79833 0.95039,0.87435 0.95039,2.471 v 1.42558 q 0,1.61565 -0.95039,2.49 -0.13305,0.13306 -0.30412,0.2471 z m -2.03382,-10.03606 q 0,-0.66527 -0.28512,-0.95039 -0.2471,-0.22809 -0.77931,-0.22809 h -1.06443 v 3.78253 h 1.06443 q 0.53221,0 0.77931,-0.22809 0.28512,-0.26611 0.28512,-0.95038 z"
         style="font-weight:normal;font-family:Bison;-inkscape-font-specification:Bison"
         id="path22648" />
      <path
         d="m 430.86443,312.3334 h -2.12886 v 11.21454 h -2.09085 V 312.3334 h -2.12886 v -2.09085 h 6.34857 z"
         style="font-weight:normal;font-family:Bison;-inkscape-font-specification:Bison"
         id="path22650" />
      <path
         d="m 434.78981,323.7 q 1.36856,0 2.2049,-0.77931 0.95038,-0.91237 0.95038,-2.49001 v -7.07086 q 0,-1.57764 -0.95038,-2.49001 -0.83634,-0.77932 -2.2049,-0.77932 -1.36855,0 -2.20489,0.77932 -0.95038,0.91237 -0.95038,2.49001 v 7.07086 q 0,1.57764 0.95038,2.49001 0.83634,0.77931 2.20489,0.77931 z m 0,-11.51866 q 0.55123,0 0.77932,0.22809 0.28511,0.2471 0.28511,0.95039 v 7.07086 q 0,0.70329 -0.28511,0.95039 -0.22809,0.22809 -0.77932,0.22809 -0.53221,0 -0.77931,-0.22809 -0.28512,-0.26611 -0.28512,-0.95039 v -7.07086 q 0,-0.68428 0.28512,-0.95039 0.2471,-0.22809 0.77931,-0.22809 z"
         style="font-weight:normal;font-family:Bison;-inkscape-font-specification:Bison"
         id="path22652" />
    </g>
  </g>
</svg>
