<?xml version="1.0" encoding="UTF-8" standalone="no"?>
<!-- Created with Inkscape (http://www.inkscape.org/) -->

<svg
   width="1080"
   height="1920"
   viewBox="0 0 285.75001 508"
   version="1.1"
   id="svg5"
   inkscape:export-filename="/Users/albertotomasoni/ALBERTO.png"
   inkscape:export-xdpi="96"
   inkscape:export-ydpi="96"
   inkscape:version="1.1.1 (c3084ef, 2021-09-22)"
   sodipodi:docname="Alessia.svg"
   xmlns:inkscape="http://www.inkscape.org/namespaces/inkscape"
   xmlns:sodipodi="http://sodipodi.sourceforge.net/DTD/sodipodi-0.dtd"
   xmlns="http://www.w3.org/2000/svg"
   xmlns:svg="http://www.w3.org/2000/svg">
  <sodipodi:namedview
     id="namedview7"
     pagecolor="#ffffff"
     bordercolor="#666666"
     borderopacity="1.0"
     inkscape:pageshadow="2"
     inkscape:pageopacity="0.0"
     inkscape:pagecheckerboard="0"
     inkscape:document-units="px"
     showgrid="false"
     units="px"
     inkscape:zoom="0.36406221"
     inkscape:cx="446.35229"
     inkscape:cy="642.74729"
     inkscape:window-width="1440"
     inkscape:window-height="758"
     inkscape:window-x="0"
     inkscape:window-y="25"
     inkscape:window-maximized="0"
     inkscape:current-layer="text2874" />
  <defs
     id="defs2" />
  <g
     inkscape:label="Alessia"
     inkscape:groupmode="layer"
     id="g2878">
    <g
       aria-label="Alessia"
       transform="matrix(2.7839642,0,0,2.7839642,-1007.5298,-810.36416)"
       id="text2874"
       style="font-weight:500;font-size:19.0077px;font-family:'Helvetica Neue';-inkscape-font-specification:'Helvetica Neue Medium';text-align:center;text-anchor:middle;white-space:pre;stroke-width:1.51181;stroke-linecap:round;paint-order:markers fill stroke">
      <path
         d="m 394.74698,321.43809 h -2.39497 l -0.38016,2.10985 h -2.12886 l 2.66108,-13.30539 h 2.09084 l 2.66108,13.30539 h -2.12886 z m -0.36115,-2.09085 -0.83634,-4.77093 -0.83634,4.77093 z"
         style="-inkscape-font-specification:Bison"
         id="path51566" />
      <path
         d="m 403.81305,321.4571 h -3.42138 v -11.21455 h -2.09085 v 13.30539 h 5.51223 z"
         style="-inkscape-font-specification:Bison"
         id="path51568" />
      <path
         d="m 406.92557,312.3334 v 3.34536 h 2.35695 v 2.09084 h -2.35695 v 3.6875 h 3.42138 v 2.09084 h -5.51223 v -13.30539 h 5.51223 v 2.09085 z"
         style="-inkscape-font-specification:Bison"
         id="path51570" />
      <path
         d="m 414.47964,323.7 q 1.36856,0 2.20489,-0.77931 0.95039,-0.91237 0.95039,-2.49001 v -0.83634 q 0,-1.82474 -1.40657,-3.07925 -0.38015,-0.34213 -1.36855,-0.87435 -0.55123,-0.30412 -0.74131,-0.45618 -0.70328,-0.62726 -0.70328,-1.50161 v -0.32313 q 0,-0.68428 0.28512,-0.95039 0.2471,-0.22809 0.77931,-0.22809 0.55122,0 0.77932,0.22809 0.28511,0.2471 0.28511,0.95039 v 1.15947 h 2.09085 v -1.15947 q 0,-1.57764 -0.95039,-2.49001 -0.83633,-0.77932 -2.20489,-0.77932 -1.36855,0 -2.20489,0.77932 -0.95039,0.91237 -0.95039,2.49001 v 0.32313 q 0,0.89336 0.36115,1.67267 0.36115,0.77932 1.04542,1.38757 0.41817,0.36114 1.31153,0.83634 0.64627,0.36114 0.79833,0.4942 0.70328,0.64626 0.70328,1.52061 v 0.83634 q 0,0.70329 -0.28511,0.95039 -0.2281,0.22809 -0.77932,0.22809 -0.53221,0 -0.77931,-0.22809 -0.28512,-0.26611 -0.28512,-0.95039 v -1.7297 h -2.09085 v 1.7297 q 0,1.57764 0.95039,2.49001 0.83634,0.77931 2.20489,0.77931 z"
         style="-inkscape-font-specification:Bison"
         id="path51572" />
      <path
         d="m 421.7189,323.7 q 1.36856,0 2.2049,-0.77931 0.95038,-0.91237 0.95038,-2.49001 v -0.83634 q 0,-1.82474 -1.40657,-3.07925 -0.38015,-0.34213 -1.36855,-0.87435 -0.55123,-0.30412 -0.7413,-0.45618 -0.70329,-0.62726 -0.70329,-1.50161 v -0.32313 q 0,-0.68428 0.28512,-0.95039 0.2471,-0.22809 0.77931,-0.22809 0.55123,0 0.77932,0.22809 0.28511,0.2471 0.28511,0.95039 v 1.15947 h 2.09085 v -1.15947 q 0,-1.57764 -0.95038,-2.49001 -0.83634,-0.77932 -2.2049,-0.77932 -1.36855,0 -2.20489,0.77932 -0.95039,0.91237 -0.95039,2.49001 v 0.32313 q 0,0.89336 0.36115,1.67267 0.36115,0.77932 1.04542,1.38757 0.41817,0.36114 1.31154,0.83634 0.64626,0.36114 0.79832,0.4942 0.70328,0.64626 0.70328,1.52061 v 0.83634 q 0,0.70329 -0.28511,0.95039 -0.22809,0.22809 -0.77932,0.22809 -0.53221,0 -0.77931,-0.22809 -0.28512,-0.26611 -0.28512,-0.95039 v -1.7297 h -2.09085 v 1.7297 q 0,1.57764 0.95039,2.49001 0.83634,0.77931 2.20489,0.77931 z"
         style="-inkscape-font-specification:Bison"
         id="path51574" />
      <path
         d="m 428.19785,310.24255 h -2.09084 v 13.30539 h 2.09084 z"
         style="-inkscape-font-specification:Bison"
         id="path51576" />
      <path
         d="m 434.09885,321.43809 h -2.39497 l -0.38015,2.10985 h -2.12886 l 2.66108,-13.30539 h 2.09084 l 2.66108,13.30539 h -2.12886 z m -0.36114,-2.09085 -0.83634,-4.77093 -0.83634,4.77093 z"
         style="-inkscape-font-specification:Bison"
         id="path51578" />
    </g>
    <path
       style="fill=currentColor;stroke-width:0.0163205"
       d="m 112.58412,373.3696 v -1.08531 l 11.64875,-0.002 c 11.52158,-0.002 11.6468,-0.002 11.46923,-0.0329 -1.03106,-0.17909 -1.46325,-0.26224 -2.16246,-0.41601 -7.37913,-1.62298 -13.31192,-5.01053 -16.91802,-9.65999 -0.58936,-0.7599 -1.15673,-1.61716 -1.63093,-2.46426 -0.17994,-0.32145 -0.5324,-1.02309 -0.68867,-1.37093 -0.96781,-2.15419 -1.51142,-4.3805 -1.66973,-6.83828 -0.0104,-0.16158 -0.0255,-0.29622 -0.0335,-0.29921 -0.0195,-0.007 -0.0195,-213.39319 -3e-5,-213.39319 0.008,0 0.0194,-0.0679 0.0253,-0.15096 0.0953,-1.34101 0.25217,-2.36599 0.53262,-3.48035 0.94728,-3.76399 3.04516,-7.0401 6.25067,-9.76118 4.43106,-3.76143 10.87142,-6.28172 18.2206,-7.13022 0.32009,-0.037 10.17399,-0.037 10.49408,0 5.49653,0.6346 10.54061,2.21673 14.58236,4.57392 2.81076,1.63927 5.10144,3.62336 6.81576,5.90353 1.59098,2.11612 2.67289,4.48245 3.2198,7.04229 0.19376,0.90688 0.30741,1.74668 0.38597,2.85201 0.006,0.083 0.0173,0.15096 0.0253,0.15096 0.0195,0 0.0195,213.38593 0,213.39319 -0.008,0.003 -0.0231,0.13763 -0.0335,0.29921 -0.1766,2.7416 -0.84033,5.2293 -2.01611,7.55639 -1.29456,2.56218 -3.16647,4.82362 -5.61452,6.78284 -3.45097,2.7619 -7.9968,4.82346 -13.16248,5.96927 -0.76168,0.16895 -1.32325,0.27724 -2.36647,0.45636 -0.0568,0.01 4.19202,0.0161 11.55899,0.0174 l 11.64876,0.002 v 1.08531 1.08531 H 142.875 112.58416 v -1.08531 z m 32.00449,-2.73293 c 1.24137,-0.0564 2.21592,-0.13233 3.2641,-0.25424 6.67013,-0.77576 12.49504,-3.06 16.60983,-6.51354 3.09513,-2.59774 5.14306,-5.80073 6.02538,-9.42377 0.24589,-1.0097 0.38052,-1.88103 0.47014,-3.04291 0.0277,-0.3589 0.029,-5.04608 0.029,-106.85843 0,-85.91054 -0.004,-106.53825 -0.0207,-106.76868 -0.10149,-1.39869 -0.31592,-2.57707 -0.69164,-3.80083 -0.61488,-2.00272 -1.66045,-3.91445 -3.05819,-5.59161 -0.68223,-0.81863 -1.59619,-1.73327 -2.43123,-2.43307 -1.64976,-1.38255 -3.61708,-2.60047 -5.7804,-3.5785 -3.34247,-1.51113 -7.16997,-2.51583 -11.29084,-2.9638 -2.50139,-0.27191 -5.20416,-0.32857 -7.77672,-0.16301 -7.38542,0.4753 -14.01177,2.74391 -18.52867,6.3435 -1.05987,0.84463 -2.06029,1.81712 -2.87514,2.79488 -1.39774,1.67716 -2.44331,3.58889 -3.05819,5.59161 -0.37572,1.22376 -0.59015,2.40214 -0.69164,3.80083 -0.0167,0.23043 -0.0207,20.85814 -0.0207,106.76868 0,101.81235 10e-4,106.49953 0.029,106.85843 0.0896,1.16188 0.22425,2.03321 0.47014,3.04291 1.0255,4.211 3.62189,7.84362 7.5983,10.6308 4.20245,2.94562 9.81522,4.83852 16.04878,5.41243 0.88913,0.0819 1.81292,0.13516 2.95401,0.17043 0.34231,0.0106 2.36773,-0.006 2.72552,-0.0221 z m -5.9325,-19.52922 c -5.87946,-0.0476 -10.80272,-0.087 -10.94058,-0.0876 l -0.25065,-0.001 0.0875,-0.0769 c 0.19679,-0.17303 0.48748,-0.46817 1.01731,-1.0329 0.30739,-0.32764 0.62785,-0.66196 0.71214,-0.74295 0.46434,-0.44612 0.7975,-0.68156 1.12432,-0.79449 0.14581,-0.0504 0.16768,-0.0535 0.36721,-0.052 0.11669,8.2e-4 0.32968,0.0103 0.4733,0.021 0.4045,0.0301 1.56837,0.041 2.08902,0.0196 1.03923,-0.0427 2.13803,-0.15218 3.00966,-0.29987 l 0.12093,-0.0205 0.0309,-0.0895 c 0.49332,-1.42891 1.8015,-6.58589 2.11837,-8.35077 l 0.0504,-0.28052 -0.18306,-0.30702 c -0.44247,-0.74208 -0.88693,-1.43826 -1.90478,-2.98356 -1.44344,-2.19147 -1.96574,-3.02106 -2.60989,-4.14541 -0.46533,-0.81222 -1.0094,-1.85902 -1.35034,-2.59804 l -0.14448,-0.31319 -0.11554,-0.0948 c -0.36448,-0.29917 -0.95252,-0.8626 -1.28802,-1.23414 -1.40902,-1.5603 -2.26665,-3.28683 -2.52281,-5.0788 -0.058,-0.40581 -0.0736,-0.64355 -0.0736,-1.12612 -7e-5,-0.51202 0.0137,-0.71965 0.146,-2.1951 0.086,-0.9588 0.11723,-1.39384 0.13232,-1.84014 0.01,-0.29163 0.008,-0.33049 -0.014,-0.33049 -0.0462,0 -0.60406,-0.16356 -0.98363,-0.28842 -0.20645,-0.0679 -0.69852,-0.24089 -1.09347,-0.38439 -1.2647,-0.45952 -1.79198,-0.62309 -2.40728,-0.7467 -1.10487,-0.22197 -2.09042,-0.17823 -3.15547,0.14007 -0.10632,0.0318 -0.19583,0.0552 -0.1989,0.0522 -0.009,-0.009 0.43573,-1.00182 0.54363,-1.21264 0.39336,-0.76862 0.80003,-1.21852 1.39086,-1.53875 0.2784,-0.15088 0.79077,-0.28776 1.32196,-0.35316 0.31533,-0.0388 0.5833,-0.0562 1.1506,-0.0746 1.09573,-0.0356 1.51246,-0.0779 2.01592,-0.2045 0.19723,-0.0496 0.51123,-0.15757 0.66611,-0.22909 0.1047,-0.0483 0.15078,-0.0585 0.36721,-0.0808 0.13612,-0.014 0.61838,-0.0689 1.07168,-0.12195 1.41789,-0.1659 1.8162,-0.20232 2.5278,-0.23116 1.10844,-0.0449 2.10314,0.0694 2.94216,0.33798 0.2183,0.0699 0.34575,0.13708 0.50857,0.26805 0.44955,0.36164 0.84162,0.99819 1.14108,1.85264 0.18794,0.53622 0.27709,0.92894 0.42053,1.85237 0.15636,1.0066 0.23231,1.37908 0.34436,1.68873 l 0.0479,0.13244 0.25672,0.10392 c 3.31942,1.34356 5.87677,2.94198 7.99058,4.99433 0.42692,0.41451 1.96902,2.178 3.27573,3.74602 1.46508,1.75808 2.60908,3.19081 5.95541,7.45847 3.97712,5.07213 6.07294,7.59949 8.43751,10.17483 0.65881,0.71753 0.78771,0.87504 1.07717,1.3161 0.37916,0.57775 0.55597,1.07621 0.50621,1.4271 -0.0559,0.39439 -0.38514,0.63803 -0.94882,0.70227 -0.093,0.0106 -0.1772,0.0215 -0.18712,0.0241 -0.01,0.003 -0.0379,0.0685 -0.0622,0.14641 -0.13509,0.43328 -0.35102,0.78807 -0.69385,1.14003 -0.30171,0.30975 -0.61691,0.53537 -1.062,0.76015 -0.5949,0.30043 -1.24582,0.49248 -2.0254,0.59762 -0.36188,0.0488 -0.60638,0.0488 -0.96941,0 -3.13828,-0.42273 -5.57704,-1.94188 -7.84627,-4.88755 -0.5593,-0.72603 -1.18277,-1.64083 -1.7662,-2.59151 -0.1059,-0.17256 -0.19886,-0.30983 -0.20658,-0.30505 -0.008,0.005 -0.0142,0.0248 -0.0143,0.0444 -5e-4,0.0703 -0.0655,0.34314 -0.12193,0.51176 -0.224,0.66942 -0.6427,1.04714 -1.29868,1.17159 -0.16746,0.0318 -0.2633,0.0317 -0.44535,0 -0.54638,-0.0956 -1.08798,-0.40655 -1.81405,-1.04156 -0.0987,-0.0864 -0.18325,-0.15704 -0.18781,-0.15707 -0.005,0 -0.0215,0.12298 -0.0378,0.27332 -0.0628,0.58253 -0.20236,1.28669 -0.37752,1.90542 -0.15338,0.54182 -0.26675,0.8753 -0.70122,2.06263 -0.11294,0.30862 -0.20532,0.562 -0.2053,0.56306 0,9.8e-4 0.12303,0.003 0.27336,0.004 0.89273,0.006 2.34533,0.37231 3.48667,0.8789 1.11894,0.49664 1.94199,1.13284 2.30477,1.78155 0.072,0.12872 0.18468,0.3928 0.18541,0.43448 4.6e-4,0.0265 -0.0282,0.0284 -0.39527,0.0264 -0.21768,-0.001 -5.20624,-0.041 -11.0857,-0.0886 z m 20.95552,-2.01589 c 0.40784,-0.0409 0.88884,-0.15221 1.22331,-0.28298 0.55191,-0.21581 0.99992,-0.54932 1.27558,-0.94956 l 0.0589,-0.0854 -0.11872,-0.16046 c -0.83785,-1.13242 -2.0504,-2.37871 -3.4392,-3.53494 -0.15934,-0.13267 -0.39693,-0.30129 -0.75074,-0.53283 -4.84675,-3.17186 -10.16171,-6.24324 -18.4865,-10.68287 -0.46676,-0.24892 -0.89557,-0.47844 -0.95289,-0.51004 -0.0573,-0.0316 -0.0982,-0.0474 -0.0909,-0.035 0.0277,0.0466 0.3445,0.49079 0.92984,1.3036 0.33291,0.46227 0.75951,1.05716 0.94802,1.32196 1.46321,2.05543 2.38911,3.519 3.0955,4.89309 0.1251,0.24334 0.1855,0.34526 0.20109,0.33927 0.0306,-0.0117 0.27251,-0.17464 0.59186,-0.39854 l 0.26702,-0.18722 0.0375,0.0472 c 0.0206,0.026 0.63877,0.76698 1.37366,1.64666 1.01196,1.21131 1.35092,1.60667 1.3969,1.62931 0.0893,0.044 0.22596,0.0412 0.29472,-0.006 0.17352,-0.11891 0.23415,-0.38515 0.21731,-0.95429 -0.01,-0.32958 -0.0227,-0.46305 -0.11601,-1.19956 -0.0614,-0.48464 -0.30509,-2.7098 -0.29934,-2.73363 0.005,-0.0213 1.48699,1.77098 1.70871,2.06673 0.40297,0.53751 0.79312,1.09842 1.64841,2.3699 0.82888,1.23219 1.10194,1.62372 1.54968,2.22208 1.2406,1.6579 2.38769,2.75116 3.62552,3.45538 0.99871,0.56818 2.13356,0.90342 3.29674,0.97391 0.21527,0.013 0.23051,0.0126 0.5141,-0.0159 z m -19.08046,-1.30611 c 0.0708,-0.009 0.19464,-0.0385 0.27515,-0.0648 0.89349,-0.29199 1.53822,-1.27623 1.97158,-3.00981 0.0822,-0.32868 0.21192,-0.94133 0.20178,-0.95272 -0.003,-0.003 -0.026,0.0186 -0.051,0.0489 -0.20857,0.25194 -0.77469,0.81918 -1.11578,1.11801 -0.21868,0.19158 -0.74467,0.63178 -0.76301,0.63854 -0.006,0.002 -0.0582,-0.21075 -0.11594,-0.4733 -0.21226,-0.96531 -0.38546,-1.62459 -0.56917,-2.16651 -0.11494,-0.33908 -0.20261,-0.57122 -0.21572,-0.57122 -0.005,0 -0.078,0.25888 -0.16171,0.5753 -0.17323,0.65455 -0.40508,1.4718 -0.56372,1.98702 -0.22114,0.71821 -0.31389,1.16858 -0.32939,1.59941 -0.018,0.50055 0.0779,0.80884 0.32182,1.0347 0.24198,0.22401 0.61322,0.30276 1.11512,0.23652 z m 20.31792,-3.87163 c -0.8416,-0.99399 -1.64322,-1.97787 -3.32654,-4.08284 -2.37155,-2.96559 -3.16491,-3.93622 -6.68997,-8.18472 -3.13391,-3.77709 -4.29565,-5.19217 -5.8016,-7.06678 -0.21124,-0.26295 -0.34597,-0.41191 -0.53757,-0.59434 -2.06851,-1.96959 -4.4278,-3.41911 -7.62894,-4.68713 -0.21622,-0.0856 -0.42682,-0.1728 -0.468,-0.19368 -0.24553,-0.12441 -0.44962,-0.40506 -0.58003,-0.79761 -0.10958,-0.32986 -0.16896,-0.70208 -0.24513,-1.53659 -0.0487,-0.53347 -0.0764,-0.73869 -0.13004,-0.96291 -0.0215,-0.0898 -0.0441,-0.19259 -0.0502,-0.22849 -0.0738,-0.432 -0.23499,-0.95395 -0.39126,-1.26678 -0.29539,-0.59133 -0.7853,-0.96249 -1.4055,-1.06483 -0.23006,-0.038 -0.31582,-0.0457 -0.31582,-0.0283 0,0.0608 -0.0911,0.48831 -0.13963,0.65533 -0.27443,0.9445 -0.9233,1.92528 -1.64568,2.48746 -0.14872,0.11574 -0.47215,0.3188 -0.50778,0.3188 -0.0181,0 -0.28555,-0.54628 -0.28555,-0.58318 0,-0.009 0.0311,-0.0297 0.0692,-0.0468 0.0381,-0.0171 0.12435,-0.0719 0.19176,-0.12188 0.45756,-0.33912 0.78639,-1.00454 0.86645,-1.75337 0.0228,-0.21351 0.0102,-0.64354 -0.0244,-0.82992 -0.0131,-0.0705 -0.027,-0.13139 -0.031,-0.13541 -0.0192,-0.0192 -2.44662,0.3189 -2.47207,0.34435 -0.005,0.005 0.0272,0.009 0.0713,0.009 0.32088,9.8e-4 0.75047,0.23446 0.96232,0.52306 0.0541,0.0737 0.0589,0.0884 0.0493,0.1524 -0.029,0.19361 -0.22886,0.3448 -0.56415,0.42683 -0.0597,0.0146 -0.21311,0.0297 -0.35089,0.0345 -0.20855,0.007 -0.27018,0.003 -0.41617,-0.0262 -0.40881,-0.0831 -0.66287,-0.29235 -0.69503,-0.57244 l -0.0103,-0.09 0.12878,-0.12304 c 0.14094,-0.13466 0.26075,-0.21068 0.42732,-0.27118 0.0923,-0.0335 0.0987,-0.0382 0.0432,-0.0311 -0.0359,0.005 -0.10201,0.0122 -0.14689,0.0171 -0.58864,0.064 -1.16158,0.13957 -2.66024,0.35089 -0.5655,0.0797 -1.12554,0.158 -1.24453,0.17391 -0.11899,0.0159 -0.21079,0.0337 -0.204,0.0395 0.007,0.006 0.0931,0.0309 0.19185,0.0558 0.38973,0.0983 1.06143,0.33272 1.94214,0.67784 0.92659,0.36311 1.51571,0.56762 1.97394,0.68523 0.40861,0.10489 0.82773,0.18075 1.12696,0.204 0.0718,0.006 0.15709,0.0139 0.18951,0.0186 l 0.0589,0.008 -0.006,0.10912 c -0.006,0.0956 -0.0537,1.07981 -0.10359,2.11652 -0.10456,2.1728 -0.0369,3.66722 0.22249,4.91247 0.42463,2.03874 1.3874,3.53235 2.96018,4.5923 0.29762,0.20057 0.78338,0.49007 0.78338,0.46688 0,-0.005 -0.0321,-0.0727 -0.0714,-0.15111 -0.30016,-0.59893 -0.48562,-1.19788 -0.57472,-1.85613 -0.0399,-0.29459 -0.0409,-0.90658 -0.002,-1.16787 0.0649,-0.4351 0.17707,-0.79041 0.37847,-1.19861 0.34785,-0.70501 0.89201,-1.33265 1.64653,-1.89915 0.74516,-0.55946 1.69589,-1.04121 2.5318,-1.2829 0.47339,-0.13688 0.77284,-0.15756 0.77497,-0.0535 5.9e-4,0.0284 -0.13295,0.15592 -0.2772,0.26485 -0.0853,0.0644 -0.33497,0.24089 -0.55489,0.39221 -0.96745,0.66566 -1.46751,1.05775 -1.95555,1.53323 -0.73756,0.71857 -1.11379,1.35457 -1.19612,2.02193 -0.0212,0.17169 -0.009,0.58143 0.0269,0.93286 0.14682,1.42245 0.71558,2.60348 1.75589,3.64607 0.62713,0.6285 1.37225,1.18424 2.46228,1.83646 0.68193,0.40804 0.91315,0.5344 5.82648,3.1839 3.7842,2.04062 5.68666,3.09611 7.66032,4.24999 3.12075,1.8245 5.87195,3.61293 8.129,5.28428 0.16116,0.11933 0.29573,0.21698 0.29904,0.21698 0.003,0 -0.0147,-0.0245 -0.0401,-0.0544 z m -18.80437,-1.41094 c 0.21545,-0.29826 0.29797,-0.433 0.35986,-0.58754 0.11575,-0.28909 0.0913,-0.50827 -0.0852,-0.7624 -0.0249,-0.0359 -0.12054,-0.19747 -0.21247,-0.35905 -2.136,-3.75407 -4.31024,-6.97121 -6.45247,-9.54749 -0.2815,-0.33855 -0.78529,-0.92493 -0.89738,-1.04451 -0.0732,-0.0781 -0.0753,-0.0792 -0.049,-0.0245 0.0919,0.1911 0.5548,0.99983 0.9003,1.57295 0.50849,0.84348 0.8342,1.34974 2.02778,3.15183 1.27927,1.93147 1.75942,2.68817 2.30418,3.63131 0.6069,1.05072 1.11902,2.09618 1.50346,3.0692 0.12713,0.3218 0.3384,0.90618 0.3876,1.07213 0.0113,0.0381 0.0249,0.0691 0.0302,0.0688 0.005,-3.2e-4 0.0877,-0.10864 0.18313,-0.24072 z m -2.04392,-36.14934 c -0.31682,-0.60812 -2.08009,-3.99196 -3.91839,-7.51964 l -3.34237,-6.41395 0.68133,-0.012 c 0.37473,-0.007 1.04043,-0.0103 1.47934,-0.008 l 0.79802,0.004 3.91534,7.51341 c 2.15344,4.13237 3.91314,7.5152 3.91045,7.5174 -0.003,0.002 -0.66703,0.009 -1.4763,0.0144 l -1.47139,0.0104 z m 6.13967,-6.45347 c -2.89385,-5.5453 -3.91381,-7.51373 -3.8984,-7.52355 0.0115,-0.007 0.67688,-0.0116 1.47866,-0.009 l 1.45779,0.004 3.91574,7.51429 c 2.15365,4.13286 3.91573,7.5167 3.91573,7.51967 0,0.003 -0.6638,0.005 -1.47512,0.005 h -1.47512 z m -13.15173,-30.05545 0.004,-18.19327 0.0376,-0.18768 c 0.0691,-0.34486 0.15178,-0.5922 0.28938,-0.86619 0.53125,-1.05778 1.61196,-1.80032 2.91261,-2.00122 0.26395,-0.0408 0.88659,-0.0401 1.11795,0.001 0.70226,0.1253 1.3133,0.40307 1.88502,0.8569 0.19151,0.15202 0.51126,0.4697 0.659,0.65475 0.36774,0.46058 0.63374,1.00763 0.75691,1.55663 l 0.0444,0.19782 0.004,12.05677 0.004,12.05676 h -1.24046 -1.24045 l -1.6e-4,-11.90172 c -1.7e-4,-7.62334 -0.006,-11.95158 -0.016,-12.04044 -0.0613,-0.53413 -0.32661,-0.93673 -0.75824,-1.15045 -0.22601,-0.11191 -0.36561,-0.14384 -0.62914,-0.14391 -0.26392,0 -0.45364,0.043 -0.67683,0.15357 -0.31019,0.1537 -0.50201,0.37474 -0.6147,0.7083 l -0.0386,0.11424 -0.004,18.16063 -0.004,18.16063 h -1.24856 -1.24855 l 0.004,-18.19327 z m 12.06102,-0.0326 0.004,-18.22591 0.0455,-0.20401 c 0.11586,-0.51895 0.34,-0.99089 0.65762,-1.38468 0.3825,-0.47423 0.95122,-0.89083 1.54874,-1.1345 0.51675,-0.21073 0.96852,-0.29638 1.55861,-0.29548 0.30986,4.7e-4 0.40032,0.006 0.57918,0.0383 0.76866,0.13668 1.50227,0.51065 2.09738,1.06916 0.68874,0.64637 1.1111,1.44653 1.207,2.28663 0.0113,0.0992 0.0168,4.01964 0.0169,12.08135 l 1.6e-4,11.93446 -1.24444,-0.004 -1.24444,-0.004 -0.008,-12.02005 -0.008,-12.02004 -0.036,-0.12636 c -0.0882,-0.30947 -0.17283,-0.45757 -0.38146,-0.66769 -0.14279,-0.14381 -0.17269,-0.16541 -0.34277,-0.24759 -0.28759,-0.13897 -0.52145,-0.18034 -0.80651,-0.1427 -0.33375,0.0441 -0.59985,0.16937 -0.81685,0.38464 -0.16649,0.16515 -0.24481,0.29563 -0.30565,0.50919 l -0.0363,0.12731 -0.004,18.13615 -0.004,18.13614 h -1.24036 -1.24036 l 0.004,-18.22591 z m -0.1404,-26.94438 c -0.006,-0.75218 -0.0146,-2.8291 -0.0195,-4.61537 -0.005,-1.9704 -0.0154,-3.31518 -0.0253,-3.41915 -0.095,-0.99568 -0.75684,-2.14573 -1.95936,-3.40475 -1.02642,-1.07464 -2.37688,-2.1763 -4.23729,-3.45663 -0.194,-0.13351 -0.33004,-0.23776 -0.33011,-0.25297 -1.6e-4,-0.0278 3.37395,-22.5721 3.38755,-22.63441 0.0102,-0.0466 0.0363,-0.0564 0.28664,-0.10798 0.44487,-0.0916 0.69638,-0.11444 1.27103,-0.11517 0.54243,-6.8e-4 0.68891,0.01 1.06083,0.074 0.75192,0.1303 1.45891,0.44183 1.96662,0.86657 0.45156,0.37776 0.79722,0.85266 1.03305,1.4193 l 0.0643,0.1546 0.007,18.40346 0.007,18.40346 -0.0744,0.009 c -0.0409,0.005 -0.5848,0.013 -1.20865,0.0183 -0.62385,0.005 -1.15336,0.0132 -1.17669,0.0176 l -0.0424,0.008 z m 0.82263,-23.72046 0.0509,-11.12437 -0.036,-0.0715 c -0.1745,-0.34608 -0.52943,-0.61663 -1.02564,-0.78182 -0.33376,-0.1111 -0.65602,-0.16282 -1.01455,-0.16282 -0.28245,0 -0.35577,0.0201 -0.45947,0.12592 l -0.0765,0.0781 -1.37187,9.55751 c -0.75453,5.25664 -1.37187,9.57144 -1.37187,9.58847 0,0.0214 0.0414,0.0555 0.13464,0.11087 0.50721,0.30108 1.26655,0.79692 1.73288,1.13155 1.59477,1.14439 2.73203,2.31631 3.27732,3.37722 l 0.10219,0.19883 0.004,-0.4518 c 0.002,-0.24849 0.0265,-5.45776 0.0545,-11.57616 z m -16.82737,-18.65375 c -1.17491,-0.0215 -3.15234,-0.0754 -4.15357,-0.11309 -0.23338,-0.009 -0.86593,-0.016 -1.40566,-0.016 h -0.98133 l -0.0725,-0.0857 c -0.40765,-0.48203 -0.44143,-0.98546 -0.10696,-1.59428 0.14845,-0.27023 0.35426,-0.43712 0.66354,-0.53805 0.62881,-0.20522 1.8031,-0.10226 3.23672,0.28377 0.22141,0.0596 0.31446,0.0757 0.55966,0.0969 0.70476,0.0608 1.51396,0.0643 2.06523,0.009 1.03146,-0.10344 1.83865,-0.36406 2.50506,-0.80882 0.57326,-0.38259 0.98181,-0.77687 1.15675,-1.11636 0.0977,-0.18955 0.12942,-0.30573 0.12937,-0.47344 0,-0.1206 -0.009,-0.16431 -0.0682,-0.33457 -0.13818,-0.39715 -0.17509,-0.68032 -0.16149,-1.23907 0.0135,-0.55411 0.064,-0.9128 0.27508,-1.95159 0.14806,-0.72876 0.23671,-1.13996 0.35077,-1.62694 l 0.0924,-0.39475 -0.0519,-0.12739 c -0.10742,-0.26375 -0.26143,-0.46603 -0.43006,-0.56486 -0.20835,-0.1221 -0.50946,-0.12222 -0.73346,-3.1e-4 -0.0763,0.0415 -0.17626,0.13888 -0.31923,0.31089 -0.17413,0.20949 -0.56469,0.38225 -1.05814,0.46806 -0.12213,0.0212 -0.13269,0.0207 -0.19457,-0.0108 -0.19383,-0.0985 -0.42964,-0.30144 -0.55495,-0.47749 -0.15532,-0.21822 -0.21666,-0.38945 -0.28535,-0.79655 -0.0535,-0.31725 -0.0854,-0.4674 -0.12449,-0.58668 -0.0203,-0.0619 -0.0446,-0.0924 -0.12035,-0.15064 -0.2582,-0.19873 -0.42466,-0.48877 -0.42466,-0.73996 0,-0.0671 -0.008,-0.0806 -0.12521,-0.20466 -0.28206,-0.29924 -0.4059,-0.58324 -0.36602,-0.83938 0.0499,-0.3206 0.29266,-0.56062 0.989,-0.97785 0.55956,-0.33528 0.9313,-0.59893 1.35123,-0.95833 0.12752,-0.10915 0.27593,-0.23199 0.32979,-0.27298 0.32122,-0.24451 0.69653,-0.44206 1.06083,-0.55841 0.70173,-0.22412 1.03042,-0.33423 1.33659,-0.44773 l 0.34105,-0.12644 0.0194,-0.0649 c 0.1053,-0.35229 0.50112,-0.58729 1.20801,-0.71722 0.40562,-0.0746 0.70701,-0.0974 1.28931,-0.0978 0.42226,-2.9e-4 0.58969,0.006 0.77523,0.029 1.06791,0.13271 2.01254,0.49254 2.94585,1.12211 0.74017,0.4993 1.3509,1.14411 1.95438,2.06343 0.44717,0.68122 0.91131,1.58496 1.27722,2.48692 l 0.10183,0.25101 0.16118,0.14744 c 0.76982,0.7042 1.58818,1.22175 2.50317,1.58308 1.92692,0.76093 4.15,0.82711 6.836,0.2035 l 0.29963,-0.0696 0.18146,-0.21217 c 0.9678,-1.13162 2.07621,-1.8097 3.25859,-1.99347 0.26803,-0.0417 0.64063,-0.0382 0.85853,0.008 0.58884,0.12467 1.11249,0.4358 1.66384,0.98857 0.46636,0.46756 0.87555,1.01883 1.31933,1.77743 l 0.14149,0.24185 -0.0608,0.10088 c -0.0789,0.13079 -0.23716,0.28847 -0.3383,0.33702 -0.10831,0.052 -0.2815,0.0628 -0.41102,0.0257 -0.29539,-0.0846 -0.628,-0.36973 -1.04809,-0.89836 -0.4523,-0.56917 -0.79745,-0.84497 -1.20531,-0.96317 -0.3536,-0.10247 -0.7079,-0.0594 -1.08879,0.13223 -0.16407,0.0826 -0.38907,0.23267 -0.50439,0.33651 l -0.0779,0.0701 0.44418,0.2448 c 1.52413,0.84003 3.08991,1.88079 4.37101,2.90537 1.33142,1.06482 2.29845,2.18689 2.89724,3.3617 0.20771,0.40755 0.31099,0.69767 0.37762,1.06084 0.0377,0.20571 0.0378,0.62006 1.6e-4,0.82418 -0.0928,0.503 -0.34928,0.96705 -0.78034,1.41201 l -0.18153,0.1874 h -7.77429 -7.77428 l -0.0746,-0.0938 c -0.33635,-0.42316 -0.39821,-0.84188 -0.17634,-1.19363 0.0318,-0.0504 0.10297,-0.13814 0.1582,-0.19501 0.34062,-0.35075 0.76776,-0.49123 1.49581,-0.49197 0.6464,-6.5e-4 1.32653,0.10515 2.35958,0.36707 0.71929,0.18236 1.09602,0.24576 1.5655,0.26346 0.93073,0.0351 1.64059,-0.23726 2.09695,-0.80455 0.0533,-0.0663 0.12719,-0.1714 0.16411,-0.23355 l 0.0671,-0.11299 -0.0641,-0.13566 c -0.24851,-0.52626 -0.83491,-0.88492 -1.76939,-1.08223 -0.5797,-0.12239 -1.17403,-0.11908 -1.67374,0.009 -0.24625,0.0633 -0.45754,0.14402 -0.72233,0.27604 -0.39596,0.19741 -0.80264,0.34778 -1.43178,0.5294 -1.17083,0.33798 -3.27887,0.77703 -4.77817,0.99514 -1.18617,0.17256 -2.07889,0.24399 -3.05194,0.24418 -0.72602,1.6e-4 -0.89224,-0.0105 -1.74629,-0.11161 -0.73728,-0.0873 -1.23961,-0.0244 -1.452,0.18189 -0.0903,0.0877 -0.12214,0.16996 -0.12257,0.31666 -3.9e-4,0.13772 0.0244,0.23607 0.10695,0.42377 0.0657,0.14952 0.0685,0.18803 0.019,0.26155 -0.2258,0.33506 -1.39474,0.53981 -3.62704,0.63529 -1.13108,0.0484 -3.92278,0.0638 -5.68769,0.0315 z m 6.87102,-1.80612 c 1.6e-4,-0.1155 0.0432,-0.37992 0.0922,-0.56594 0.21844,-0.8293 0.73645,-1.28739 1.63764,-1.4482 0.0845,-0.0151 0.26645,-0.0215 0.58753,-0.0208 0.4645,0.001 0.46586,0.001 0.98739,0.0767 1.43994,0.2084 2.52432,0.28898 3.89244,0.28926 0.94559,2e-4 1.57797,-0.0306 2.17879,-0.10627 1.36773,-0.17214 3.07233,-0.66547 5.13737,-1.48681 0.4824,-0.19186 1.34786,-0.55534 1.68305,-0.70685 l 0.1127,-0.0509 -0.0111,-0.34784 c -0.037,-1.15712 -0.20345,-1.77165 -0.52227,-1.92763 -0.10083,-0.0493 -0.10252,-0.0494 -0.53253,-0.003 -0.80003,0.0858 -1.95375,0.0865 -2.80713,0.002 -2.00777,-0.19982 -3.77478,-0.86279 -5.2667,-1.97604 -0.23801,-0.1776 -0.6272,-0.50191 -0.81023,-0.67516 -0.0756,-0.0716 -0.14129,-0.13009 -0.14601,-0.13009 -0.005,0 -0.13702,0.15974 -0.29399,0.35497 -1.53323,1.90694 -3.36452,3.43892 -5.6092,4.69242 -0.35854,0.20022 -1.24242,0.64545 -1.54845,0.77999 -0.2254,0.0991 -0.24113,0.11452 -0.29603,0.29045 -0.0428,0.13723 -0.0431,0.38301 -7.1e-4,0.57481 0.0923,0.41742 0.39797,0.9993 0.85781,1.63311 0.21861,0.30131 0.64007,0.83005 0.66163,0.83005 0.009,0 0.0157,-0.0349 0.0158,-0.0775 z m 25.31702,-0.71222 c 0.14206,-0.0265 0.23653,-0.0676 0.26669,-0.11605 0.0174,-0.028 0.006,-0.0722 -0.0814,-0.31009 -0.56776,-1.54857 -1.45545,-2.80756 -2.69466,-3.82178 -1.08567,-0.88855 -2.26187,-1.45573 -3.54955,-1.71164 -0.16923,-0.0336 -0.5263,-0.0254 -0.67451,0.0155 -0.30092,0.0831 -0.4857,0.26532 -0.56051,0.55261 -0.0605,0.23248 -0.0157,0.6743 0.10712,1.05633 0.0482,0.14976 0.12471,0.27385 0.33233,0.53875 0.9335,1.19103 2.81454,2.42148 5.49587,3.595 0.17504,0.0766 0.36966,0.16204 0.43249,0.18985 l 0.11425,0.0506 0.34273,-0.008 c 0.19362,-0.004 0.39773,-0.018 0.46916,-0.0313 z m -26.30451,-4.2495 c 2.67202,-1.35209 4.90065,-3.22241 6.48692,-5.44398 l 0.18453,-0.25843 -0.0288,-0.14142 c -0.0866,-0.42602 -0.32751,-0.97693 -0.61586,-1.40839 -0.2742,-0.41028 -0.52291,-0.70478 -0.9232,-1.09313 -0.9034,-0.87646 -1.7925,-1.37894 -2.58683,-1.46197 l -0.10051,-0.0105 0.0315,0.0476 c 0.22531,0.33987 0.43024,0.72537 0.50511,0.95019 0.16954,0.50908 0.0975,0.87483 -0.21969,1.11544 -0.12995,0.0986 -0.32894,0.18676 -0.54386,0.24104 -0.24873,0.0628 -0.39486,0.14021 -0.54122,0.28665 -0.12586,0.12593 -0.19915,0.25536 -0.24505,0.43275 -0.0359,0.13876 -0.0356,0.41772 5.9e-4,0.62018 0.08,0.44699 -0.0782,0.91819 -0.49462,1.47331 -0.18435,0.24577 -0.42303,0.51183 -0.68139,0.75955 l -0.21595,0.20706 -0.0938,0.23664 c -0.27578,0.69537 -0.46312,1.4303 -0.55751,2.18695 -0.0239,0.19133 -0.0295,0.35697 -0.0295,0.86498 0,0.34559 0.006,0.64828 0.0124,0.67264 l 0.0124,0.0443 0.15896,-0.0781 c 0.0874,-0.043 0.30584,-0.15246 0.48537,-0.24331 z m -3.66232,-4.01728 c 0.0889,-0.0418 0.19146,-0.13934 0.2759,-0.26248 0.19927,-0.29061 0.47281,-0.4232 0.87307,-0.4232 0.46319,0 0.82877,0.19377 1.00371,0.532 0.0224,0.0434 0.0423,0.0816 0.0441,0.085 0.007,0.0121 0.15317,-0.0823 0.31779,-0.20485 0.54027,-0.40208 0.91548,-0.93455 1.07321,-1.52303 0.0653,-0.24379 0.0828,-0.39868 0.0995,-0.88131 0.0185,-0.53336 0.007,-0.66798 -0.0707,-0.83793 -0.0659,-0.1439 -0.14102,-0.21266 -0.33269,-0.30443 -0.36554,-0.17502 -0.49707,-0.31637 -0.52456,-0.56373 -0.0384,-0.34533 0.0641,-0.60427 0.34105,-0.86154 l 0.1296,-0.1204 -0.25715,0.0626 c -0.41628,0.10139 -0.9981,0.22017 -1.38327,0.28239 -0.50677,0.0819 -0.67735,0.11744 -0.87315,0.18208 -0.37621,0.12419 -0.70148,0.31757 -1.10979,0.65977 -0.39715,0.33285 -1.05507,0.8113 -1.53834,1.11869 -0.11006,0.07 -0.12898,0.0891 -0.14468,0.14582 -0.0549,0.19853 0.0426,0.46907 0.26951,0.74768 l 0.0773,0.0949 -0.0196,0.12142 c -0.0561,0.3478 0.1495,0.59388 0.56541,0.67669 0.0921,0.0183 0.10585,0.0165 0.28448,-0.0385 0.10322,-0.0318 0.26847,-0.0919 0.36721,-0.13364 0.0987,-0.0417 0.21257,-0.0868 0.25296,-0.10019 0.10214,-0.0338 0.24883,-0.0206 0.35195,0.0316 0.0772,0.0391 0.25191,0.18143 0.25191,0.20518 0,0.006 -0.0496,0.0282 -0.11016,0.0495 -0.14028,0.0491 -0.50363,0.2258 -0.6365,0.30948 -0.1105,0.0696 -0.27929,0.12211 -0.49219,0.15314 l -0.13207,0.0192 v 0.079 c 0,0.0971 0.0406,0.2988 0.0829,0.41194 0.0396,0.10591 0.12878,0.21132 0.21665,0.25615 0.065,0.0332 0.0808,0.0347 0.30836,0.0288 0.0112,-2.9e-4 0.0571,0.0108 0.102,0.0245 0.10431,0.032 0.23979,0.023 0.3362,-0.0223 z m 2.26692,-1.56307 c -1.34785,-0.14273 -2.03167,-0.3548 -2.16833,-0.67247 -0.0931,-0.21635 -0.10868,-0.50591 -0.0371,-0.68718 0.0603,-0.15263 0.0651,-0.15565 0.16778,-0.10531 l 0.0876,0.043 -1.6e-4,0.18236 c -1.6e-4,0.17322 0.003,0.18781 0.0534,0.29122 0.15061,0.30628 0.59461,0.53803 1.30325,0.68024 0.25902,0.052 0.66618,0.10764 0.91992,0.12576 0.0853,0.006 0.16422,0.0159 0.17544,0.0218 0.0117,0.006 -0.0407,0.0366 -0.1226,0.0713 -0.14403,0.061 -0.2,0.0683 -0.37925,0.0493 z m -1.83838,-1.91047 c 0.0124,-0.29025 0.0382,-0.43657 0.0981,-0.55471 0.0592,-0.11684 0.11724,-0.17938 0.21237,-0.22885 0.074,-0.0385 0.10587,-0.0441 0.2794,-0.0495 0.25975,-0.008 0.4583,0.0315 0.66618,0.13281 0.0824,0.0402 0.16632,0.0906 0.18644,0.11215 l 0.0366,0.0392 -0.0856,0.0895 c -0.22912,0.23965 -0.61871,0.4478 -1.03524,0.5531 -0.0435,0.011 -0.072,0.0288 -0.0784,0.0488 -0.006,0.0174 -0.0322,0.0502 -0.0594,0.0731 -0.04,0.0336 -0.0667,0.0415 -0.14041,0.0415 h -0.0911 z m -0.48528,0.0326 c -0.0464,-0.15854 -0.0566,-0.48134 -0.0196,-0.62008 0.0631,-0.23714 0.20184,-0.39217 0.46792,-0.52295 0.21453,-0.10546 0.3207,-0.13371 0.54526,-0.14509 0.16195,-0.008 0.49922,0.0227 0.77114,0.0706 0.10432,0.0184 0.0408,0.0843 -0.11489,0.11919 -0.0403,0.009 -0.2045,0.0233 -0.3648,0.0317 -0.23461,0.0122 -0.31563,0.023 -0.41545,0.0549 -0.23576,0.0755 -0.38666,0.21179 -0.50946,0.46014 -0.0675,0.1366 -0.13287,0.34828 -0.15014,0.48648 l -0.0117,0.0937 h -0.0949 c -0.0764,0 -0.0966,-0.006 -0.10329,-0.0286 z m 5.02624,-0.6752 c 0.25473,-0.0953 0.44243,-0.43719 0.4738,-0.86301 0.0175,-0.23751 -0.0448,-0.31571 -0.23829,-0.29934 -0.14011,0.0118 -0.16011,0.0188 -0.22698,0.0792 -0.0882,0.0796 -0.14207,0.2121 -0.17955,0.44118 -0.0267,0.16292 -0.0469,0.22829 -0.12299,0.39636 -0.0964,0.21297 -0.10934,0.27242 -0.0625,0.28621 0.0554,0.0163 0.26949,-0.008 0.35651,-0.0406 z m -0.99946,6.6e-4 c 0.0346,-0.01 0.0942,-0.0463 0.13235,-0.0815 0.14165,-0.13057 0.22929,-0.37031 0.28635,-0.78331 0.041,-0.29645 0.0779,-0.40335 0.17535,-0.50754 0.0939,-0.10039 0.20575,-0.14419 0.36776,-0.14403 0.11913,1.6e-4 0.33696,0.0438 0.44648,0.0896 0.0329,0.0137 0.063,0.0217 0.067,0.0178 0.004,-0.004 -0.0211,-0.0609 -0.0555,-0.12661 -0.0836,-0.15918 -0.23671,-0.31987 -0.36811,-0.38632 -0.19628,-0.0993 -0.45384,-0.12538 -0.59037,-0.0598 -0.14252,0.0684 -0.34751,0.30939 -0.47214,0.55503 -0.0254,0.0502 -0.10838,0.14765 -0.21519,0.25297 -0.3058,0.30152 -0.47215,0.52181 -0.52278,0.6923 -0.0229,0.0771 -0.0223,0.0829 0.0153,0.14711 0.0542,0.0926 0.20695,0.23299 0.29636,0.27255 0.0818,0.0362 0.24843,0.0762 0.32533,0.0781 0.0269,6.7e-4 0.0773,-0.007 0.11187,-0.0163 z m 4.34363,-7.37013 c -5.87946,-0.0466 -10.97979,-0.0852 -11.33406,-0.0859 l -0.64413,-0.001 0.14635,-0.13334 c 0.22765,-0.2074 0.50142,-0.48665 0.9813,-1.00093 0.85554,-0.91687 1.21479,-1.23408 1.62772,-1.43722 0.24866,-0.12233 0.36311,-0.14518 0.66205,-0.1322 0.13052,0.006 0.36216,0.0189 0.51476,0.0294 0.3694,0.0254 1.78953,0.0258 2.21143,6.2e-4 0.96604,-0.0577 1.67543,-0.12923 2.47255,-0.24946 0.39509,-0.0596 0.39485,-0.0595 0.4045,-0.0935 0.004,-0.0149 0.0605,-0.1961 0.12497,-0.40255 0.61999,-1.98512 1.7584,-6.5479 2.04121,-8.18122 l 0.0178,-0.10257 -0.11771,-0.19936 c -0.46139,-0.78143 -0.90798,-1.48184 -2.0574,-3.22681 -1.41598,-2.14962 -1.99501,-3.0754 -2.65042,-4.23761 -0.43883,-0.77815 -0.9485,-1.77029 -1.23959,-2.41299 -0.12289,-0.27132 -0.10302,-0.24716 -0.44932,-0.54645 -0.30082,-0.25999 -0.8578,-0.80715 -1.12167,-1.10192 -1.42261,-1.58913 -2.2667,-3.33339 -2.49984,-5.16572 -0.0993,-0.78037 -0.0858,-1.26159 0.0888,-3.18221 0.0924,-1.0156 0.13864,-1.69064 0.13884,-2.02603 l 8e-5,-0.14102 -0.13465,-0.0356 c -0.48845,-0.12924 -1.0903,-0.32802 -2.02782,-0.66975 -1.27674,-0.46537 -1.89551,-0.6509 -2.55415,-0.76584 -1.00758,-0.17582 -2.0179,-0.10815 -3.01049,0.20163 -0.0714,0.0223 -0.13189,0.0386 -0.1343,0.0362 -0.009,-0.009 0.32927,-0.76511 0.4866,-1.08767 0.2599,-0.53285 0.46235,-0.8396 0.74706,-1.13193 0.47605,-0.48881 0.93536,-0.70968 1.76879,-0.85059 0.39934,-0.0675 0.7377,-0.0923 1.68462,-0.12362 1.17315,-0.0387 1.77753,-0.14476 2.40367,-0.42164 0.12597,-0.0557 0.16671,-0.0652 0.3545,-0.0823 0.11669,-0.0106 0.58305,-0.0629 1.03635,-0.11612 0.93771,-0.11013 1.31898,-0.15097 1.73813,-0.18619 1.58026,-0.13278 2.7505,-0.0424 3.79003,0.2927 0.27507,0.0887 0.41531,0.17526 0.64653,0.3992 0.27468,0.26603 0.48249,0.56588 0.69625,1.00459 0.14886,0.30553 0.21848,0.47697 0.33587,0.82717 0.16431,0.49011 0.24997,0.87678 0.37358,1.68618 0.0989,0.6478 0.16316,1.01623 0.22089,1.26704 0.0545,0.23675 0.1574,0.5682 0.1851,0.59619 0.0103,0.0105 0.15836,0.0756 0.32891,0.14487 1.32885,0.53929 2.6719,1.19144 3.73739,1.81477 1.53104,0.89568 2.85195,1.88584 4.09081,3.06647 0.36337,0.34629 1.11679,1.18801 2.29164,2.56023 1.72728,2.01744 3.18566,3.82776 6.86964,8.52746 2.98647,3.80988 4.50177,5.68428 6.20108,7.67063 0.90646,1.05959 1.93806,2.22109 2.63813,2.97033 0.54498,0.58327 0.98686,1.21563 1.19123,1.70474 0.22729,0.54396 0.19793,0.96426 -0.0842,1.20577 -0.16027,0.13718 -0.43799,0.23753 -0.75657,0.27338 l -0.16446,0.0185 -0.055,0.17153 c -0.0711,0.22144 -0.24948,0.57467 -0.38945,0.77109 -0.13169,0.18481 -0.46605,0.52683 -0.65164,0.66659 -0.77419,0.58297 -1.7794,0.94168 -2.96437,1.05783 -0.27549,0.027 -0.30092,0.027 -0.54588,-6.7e-4 -1.26962,-0.14323 -2.49106,-0.49818 -3.57815,-1.03981 -1.67142,-0.83278 -3.16457,-2.14733 -4.59273,-4.04342 -0.53971,-0.71655 -1.3276,-1.89385 -1.77311,-2.64948 -0.0302,-0.0512 -0.0574,-0.0907 -0.0605,-0.0876 -0.003,0.003 -0.0235,0.094 -0.0454,0.20205 -0.10383,0.5117 -0.28254,0.87061 -0.56735,1.1394 -0.0756,0.0714 -0.19274,0.16073 -0.26302,0.2007 -0.27592,0.1569 -0.66878,0.24857 -0.91527,0.21357 -0.59308,-0.0842 -1.1358,-0.38177 -1.87656,-1.02883 l -0.2282,-0.19932 -0.0269,0.25093 c -0.0587,0.54665 -0.15334,1.06394 -0.29974,1.63818 -0.15812,0.6202 -0.29783,1.0429 -0.78217,2.36647 l -0.20305,0.5549 0.31293,0.0106 c 0.99577,0.0337 2.45209,0.41817 3.60151,0.95087 0.96672,0.44804 1.70706,1.02086 2.09201,1.61866 0.0982,0.15246 0.25453,0.50511 0.23949,0.54017 -0.003,0.007 -4.8163,-0.0245 -10.69576,-0.0711 z m 20.18855,-2.02116 c 0.97803,-0.11368 1.7046,-0.41454 2.20465,-0.9129 0.0996,-0.0992 0.2159,-0.23001 0.25853,-0.29064 l 0.0775,-0.11023 -0.0611,-0.0856 c -0.77988,-1.09308 -2.17783,-2.53202 -3.56786,-3.67248 -0.22657,-0.18588 -1.42451,-0.97015 -2.88472,-1.88857 -3.39792,-2.13716 -7.0761,-4.27244 -11.84986,-6.87917 -1.33586,-0.72944 -5.04508,-2.72415 -5.40166,-2.90485 l -0.085,-0.0431 0.0537,0.0786 c 0.0295,0.0432 0.27022,0.37967 0.53484,0.74769 0.99176,1.3793 1.30833,1.82132 1.55458,2.17063 0.99369,1.40957 1.70723,2.50729 2.28619,3.51706 0.19665,0.343 0.31225,0.55583 0.64522,1.18794 l 0.097,0.18423 0.16979,-0.1123 c 0.0934,-0.0618 0.28626,-0.19425 0.4286,-0.2944 0.14235,-0.10014 0.26398,-0.18208 0.27028,-0.18208 0.006,0 0.63329,0.74444 1.39332,1.65432 1.339,1.60302 1.38414,1.65496 1.45562,1.67497 0.45031,0.12608 0.58146,-0.45163 0.40689,-1.79233 -0.06,-0.46091 -0.35065,-3.07497 -0.34566,-3.10897 0.005,-0.0324 1.42418,1.68068 1.72853,2.0861 0.39257,0.52294 0.77679,1.0751 1.57288,2.26039 1.39381,2.07525 2.015,2.90599 2.8573,3.82113 1.50229,1.63221 3.13375,2.56229 4.97623,2.83688 0.54122,0.0807 0.88661,0.0969 1.22414,0.0577 z m -18.93188,-1.33758 c 1.05381,-0.27799 1.76863,-1.45137 2.21732,-3.63972 0.0405,-0.19732 0.0716,-0.36069 0.0693,-0.36304 -0.002,-0.002 -0.0588,0.0598 -0.1254,0.13818 -0.18541,0.21806 -0.53224,0.56948 -0.83596,0.84702 -0.28452,0.26001 -0.94837,0.82192 -0.97101,0.82192 -0.007,0 -0.0555,-0.19279 -0.10745,-0.42841 -0.28774,-1.30435 -0.52526,-2.14623 -0.77008,-2.72961 l -0.0274,-0.0653 -0.16972,0.6365 c -0.18916,0.70945 -0.36875,1.34456 -0.51267,1.81308 -0.28956,0.94265 -0.36679,1.3284 -0.36564,1.82639 5.8e-4,0.24612 0.006,0.31687 0.0363,0.4362 0.10543,0.42126 0.35645,0.65759 0.78493,0.73898 0.19818,0.0376 0.57125,0.0222 0.77747,-0.0322 z m 20.16942,-3.81773 c -0.0165,-0.0214 -0.23217,-0.28033 -0.47937,-0.57529 -0.7639,-0.91154 -1.22789,-1.48378 -3.03512,-3.74328 -2.2182,-2.7733 -3.03773,-3.77527 -6.56769,-8.02968 -2.9632,-3.57134 -4.45099,-5.38326 -5.71552,-6.9607 -0.3309,-0.41278 -0.47687,-0.56403 -1.00969,-1.04622 -0.71405,-0.6462 -1.54914,-1.2896 -2.40728,-1.85471 -1.36153,-0.89662 -3.06882,-1.75677 -4.93132,-2.48448 -0.16746,-0.0654 -0.34522,-0.14601 -0.39503,-0.17907 -0.31032,-0.20598 -0.52058,-0.62319 -0.6296,-1.24932 -0.0463,-0.26605 -0.0755,-0.51194 -0.12373,-1.04451 -0.0461,-0.50889 -0.0743,-0.72297 -0.12125,-0.92211 -0.0169,-0.0718 -0.0535,-0.24147 -0.0812,-0.37701 -0.27806,-1.35945 -0.77961,-2.00958 -1.70334,-2.20794 -0.0827,-0.0178 -0.20304,-0.0373 -0.2675,-0.0435 l -0.11721,-0.0113 -0.0101,0.0632 c -0.0867,0.54389 -0.2396,1.00655 -0.49507,1.49786 -0.41985,0.80747 -1.02031,1.47923 -1.63858,1.83317 -0.0827,0.0473 -0.15466,0.086 -0.16,0.086 -0.01,0 -0.2773,-0.5644 -0.27695,-0.58457 1.7e-4,-0.006 0.0439,-0.0351 0.0974,-0.0645 0.64968,-0.35684 1.0764,-1.30027 1.03885,-2.29678 -0.01,-0.25762 -0.0399,-0.50013 -0.0653,-0.52561 -0.0179,-0.0179 -1.27532,0.14998 -2.39304,0.3195 -0.0707,0.0107 -0.0672,0.0122 0.094,0.0389 0.28969,0.048 0.55177,0.18451 0.74795,0.3897 0.13014,0.13612 0.16992,0.19061 0.16981,0.23264 -6.7e-4,0.25337 -0.31478,0.45274 -0.7916,0.50244 -0.47819,0.0498 -0.95211,-0.0901 -1.13645,-0.33569 -0.0577,-0.0769 -0.11192,-0.22358 -0.11192,-0.30299 0,-0.11537 0.3191,-0.3645 0.57938,-0.45233 0.0652,-0.022 0.0651,-0.022 -0.0408,-0.013 -0.29325,0.0249 -1.33285,0.15901 -2.21143,0.28537 -0.5402,0.0777 -1.97081,0.27612 -2.00696,0.27836 -0.009,5.7e-4 0.0886,0.0299 0.21741,0.0653 0.47572,0.13045 1.08373,0.34356 1.95275,0.68444 1.52988,0.60011 2.25827,0.80733 3.11696,0.88676 l 0.21192,0.0196 -0.005,0.13027 c -0.003,0.0717 -0.0261,0.56726 -0.0525,1.10134 -0.0754,1.52913 -0.0811,1.67971 -0.0918,2.4236 -0.0213,1.47023 0.0684,2.58217 0.28996,3.59498 0.43794,2.00222 1.40646,3.46746 2.98479,4.51558 0.30405,0.20191 0.71321,0.44355 0.72726,0.42949 0.004,-0.004 -0.0507,-0.12804 -0.12187,-0.27529 -0.58174,-1.20309 -0.71272,-2.51699 -0.35695,-3.58062 0.37766,-1.12909 1.31393,-2.16084 2.67314,-2.94574 0.41171,-0.23775 0.95378,-0.48822 1.40335,-0.64843 0.47106,-0.16786 0.98144,-0.26163 1.06772,-0.19616 0.0309,0.0235 0.0309,0.0246 -6.8e-4,0.0791 -0.0469,0.0809 -0.23272,0.22363 -0.82434,0.63311 -1.09551,0.75824 -1.69825,1.24632 -2.17856,1.76416 -0.61343,0.66137 -0.92316,1.26856 -0.96279,1.88751 -0.0119,0.18549 0.0148,0.69348 0.0514,0.97754 0.14899,1.1577 0.57233,2.13174 1.32024,3.0377 0.20261,0.24542 0.70551,0.74315 0.98846,0.97828 0.58795,0.4886 1.27135,0.95411 2.17062,1.47855 0.54152,0.3158 0.94262,0.53404 5.28784,2.87712 4.436,2.39202 6.2799,3.41884 8.55194,4.76235 2.79657,1.65367 5.47614,3.4092 7.47479,4.89715 0.17504,0.1303 0.3207,0.23735 0.32369,0.23788 0.003,5.2e-4 -0.008,-0.0166 -0.0245,-0.038 z m -18.82766,-1.42522 c 0.28666,-0.39465 0.3781,-0.56191 0.42223,-0.77226 0.043,-0.2049 0.008,-0.35901 -0.12805,-0.56473 -0.0407,-0.0616 -0.16396,-0.2699 -0.27381,-0.46289 -2.33346,-4.09943 -4.74511,-7.59017 -7.11446,-10.29778 -0.31386,-0.35867 -0.28367,-0.32642 -0.2602,-0.2779 0.10466,0.21637 0.65567,1.17432 1.01906,1.77169 0.47959,0.78837 0.78297,1.25685 2.30705,3.56252 1.07986,1.63364 1.62257,2.50576 2.16137,3.4732 0.70416,1.26437 1.28926,2.57731 1.64404,3.68916 0.0206,0.0646 0.0424,0.11442 0.0484,0.1107 0.006,-0.004 0.0845,-0.10799 0.17434,-0.23171 z"
       id="path1004" />
  </g>
</svg>
