<?xml version="1.0" encoding="UTF-8" standalone="no"?>
<!-- Created with Inkscape (http://www.inkscape.org/) -->

<svg
   width="1080"
   height="1920"
   viewBox="0 0 285.75001 508"
   version="1.1"
   id="svg5"
   inkscape:export-filename="/Users/albertotomasoni/ALBERTO.png"
   inkscape:export-xdpi="96"
   inkscape:export-ydpi="96"
   inkscape:version="1.1.1 (c3084ef, 2021-09-22)"
   sodipodi:docname="Alice.svg"
   xmlns:inkscape="http://www.inkscape.org/namespaces/inkscape"
   xmlns:sodipodi="http://sodipodi.sourceforge.net/DTD/sodipodi-0.dtd"
   xmlns="http://www.w3.org/2000/svg"
   xmlns:svg="http://www.w3.org/2000/svg">
  <sodipodi:namedview
     id="namedview7"
     pagecolor="#ffffff"
     bordercolor="#666666"
     borderopacity="1.0"
     inkscape:pageshadow="2"
     inkscape:pageopacity="0.0"
     inkscape:pagecheckerboard="0"
     inkscape:document-units="px"
     showgrid="false"
     units="px"
     inkscape:zoom="0.63067915"
     inkscape:cx="300.46974"
     inkscape:cy="233.08207"
     inkscape:window-width="1440"
     inkscape:window-height="758"
     inkscape:window-x="0"
     inkscape:window-y="25"
     inkscape:window-maximized="0"
     inkscape:current-layer="g2878" />
  <defs
     id="defs2" />
  <g
     inkscape:label="ALBERTO"
     inkscape:groupmode="layer"
     id="g2878">
    <g
       aria-label="alice"
       transform="matrix(2.7839642,0,0,2.7839642,-1007.2003,-810.36416)"
       id="text2874"
       style="font-weight:500;font-size:19.0077px;line-height:1.25;font-family:'Helvetica Neue';-inkscape-font-specification:'Helvetica Neue Medium';text-align:center;text-anchor:middle;white-space:pre;inline-size:858.441;stroke-width:1.51181;stroke-linecap:round;paint-order:markers fill stroke;stop-color:#000000">
      <path
         d="m 402.24611,321.43809 h -2.39497 l -0.38016,2.10985 h -2.12886 l 2.66108,-13.30539 h 2.09085 l 2.66107,13.30539 h -2.12886 z m -0.36115,-2.09085 -0.83634,-4.77093 -0.83634,4.77093 z"
         style="font-weight:normal;font-family:Bison;-inkscape-font-specification:Bison"
         id="path51871" />
      <path
         d="m 411.31219,321.4571 h -3.42139 v -11.21455 h -2.09085 v 13.30539 h 5.51224 z"
         style="font-weight:normal;font-family:Bison;-inkscape-font-specification:Bison"
         id="path51873" />
      <path
         d="m 414.4247,310.24255 h -2.09085 v 13.30539 h 2.09085 z"
         style="font-weight:normal;font-family:Bison;-inkscape-font-specification:Bison"
         id="path51875" />
      <path
         d="m 418.91913,323.7 q 1.36855,0 2.20489,-0.77931 0.95039,-0.91237 0.95039,-2.49001 v -1.71069 h -2.09085 v 1.71069 q 0,0.70329 -0.26611,0.95039 -0.2471,0.22809 -0.79832,0.22809 -0.53222,0 -0.77932,-0.22809 -0.28511,-0.26611 -0.28511,-0.95039 v -7.07086 q 0,-0.68428 0.28511,-0.95039 0.2471,-0.22809 0.77932,-0.22809 0.55122,0 0.79832,0.22809 0.26611,0.2471 0.26611,0.95039 v 1.17847 h 2.09085 v -1.17847 q 0,-1.57764 -0.95039,-2.49001 -0.83634,-0.77932 -2.20489,-0.77932 -1.33054,0 -2.2049,0.77932 -0.95038,0.95038 -0.95038,2.49001 v 7.07086 q 0,1.53962 0.95038,2.49001 0.87436,0.77931 2.2049,0.77931 z"
         style="font-weight:normal;font-family:Bison;-inkscape-font-specification:Bison"
         id="path51877" />
      <path
         d="m 425.45065,312.3334 v 3.34536 h 2.35695 v 2.09084 h -2.35695 v 3.6875 h 3.42138 v 2.09084 h -5.51223 v -13.30539 h 5.51223 v 2.09085 z"
         style="font-weight:normal;font-family:Bison;-inkscape-font-specification:Bison"
         id="path51879" />
    </g>
    <path
       style="fill=currentColor;stroke-width:0.0163251"
       d="m 112.57565,307.49132 v -1.08562 l 11.65202,-0.002 c 11.52481,-0.002 11.65006,-0.002 11.47245,-0.0329 -1.03135,-0.17914 -1.46367,-0.26231 -2.16307,-0.41613 -7.3812,-1.62343 -13.31566,-5.01193 -16.92277,-9.6627 -0.58953,-0.76011 -1.15706,-1.61761 -1.63138,-2.46495 -0.17999,-0.32154 -0.53255,-1.02337 -0.68887,-1.37131 -0.96808,-2.15479 -1.51184,-4.38173 -1.6702,-6.8402 -0.0104,-0.16162 -0.0255,-0.2963 -0.0335,-0.29929 -0.0195,-0.007 -0.0195,-147.49976 -4e-5,-147.49976 0.008,0 0.0194,-0.068 0.0253,-0.15101 0.0953,-1.34139 0.25224,-2.36665 0.53277,-3.48132 0.94755,-3.76505 3.04602,-7.04208 6.25242,-9.76392 4.4323,-3.76249 10.87447,-6.28349 18.22572,-7.13222 0.32017,-0.037 10.17684,-0.037 10.49702,0 5.49808,0.63478 10.54357,2.21735 14.58645,4.5752 2.81155,1.63973 5.10287,3.62437 6.81768,5.90518 1.59143,2.11672 2.67364,4.48371 3.2207,7.04427 0.19381,0.90714 0.30749,1.74717 0.38608,2.85281 0.006,0.083 0.0173,0.15101 0.0253,0.15101 0.0195,0 0.0195,147.49249 0,147.49976 -0.008,0.003 -0.0231,0.13767 -0.0336,0.29929 -0.17664,2.74236 -0.84056,5.23076 -2.01667,7.55851 -1.29492,2.5629 -3.16736,4.82497 -5.61609,6.78475 -3.45195,2.76267 -7.99905,4.82481 -13.16618,5.97094 -0.7619,0.169 -1.32362,0.27731 -2.36713,0.45648 -0.0568,0.01 4.19319,0.0161 11.56223,0.0174 l 11.65202,0.002 v 1.08562 1.08561 h -30.29934 -30.29933 v -1.08561 z m 32.01347,-2.7337 c 1.24172,-0.0564 2.21654,-0.13237 3.26502,-0.25432 6.672,-0.77598 12.49854,-3.06085 16.61449,-6.51536 3.09599,-2.59847 5.1445,-5.80236 6.02707,-9.42641 0.24596,-1.00999 0.38062,-1.88156 0.47027,-3.04376 0.0277,-0.35876 0.029,-3.64809 0.029,-73.91177 0,-59.27927 -0.004,-73.59168 -0.0207,-73.82198 -0.10152,-1.39909 -0.31601,-2.57779 -0.69184,-3.8019 -0.61505,-2.00329 -1.66091,-3.91554 -3.05904,-5.59318 -0.68243,-0.81886 -1.59664,-1.73376 -2.43192,-2.43375 -1.65022,-1.38294 -3.61809,-2.6012 -5.78201,-3.57951 -3.34341,-1.51155 -7.17198,-2.51653 -11.29402,-2.96462 -2.50209,-0.272 -5.20561,-0.32867 -7.77889,-0.16306 -7.38749,0.47543 -14.01571,2.74468 -18.53387,6.34528 -1.06017,0.84487 -2.06087,1.81763 -2.87595,2.79566 -1.39813,1.67764 -2.444,3.58989 -3.05905,5.59318 -0.37583,1.22411 -0.59032,2.40281 -0.69183,3.8019 -0.0167,0.2303 -0.0207,14.54271 -0.0207,73.82198 0,70.26368 0.001,73.55301 0.029,73.91177 0.0896,1.1622 0.22431,2.03377 0.47027,3.04376 1.02579,4.21218 3.6229,7.84581 7.60044,10.63377 4.20362,2.94645 9.81796,4.83988 16.05328,5.41395 0.88937,0.0819 1.81342,0.13521 2.95483,0.17049 0.34241,0.0106 2.3684,-0.006 2.72629,-0.0221 z m 0.31989,-21.01302 c -0.006,-0.85643 -0.0169,-2.98233 -0.0247,-4.72421 -0.0155,-3.48585 -0.007,-3.21407 -0.11726,-3.63233 -0.46321,-1.75217 -2.54432,-3.9126 -6.13264,-6.36638 -0.19118,-0.13073 -0.29783,-0.21369 -0.29783,-0.23165 0,-0.024 3.36284,-22.49435 3.38724,-22.63339 0.009,-0.0497 0.0112,-0.0509 0.20042,-0.0938 0.44777,-0.1016 0.84202,-0.14302 1.367,-0.1436 0.21549,-2.5e-4 0.47628,0.008 0.57954,0.018 1.42641,0.14 2.47729,0.71277 3.13495,1.70866 0.12413,0.18798 0.28147,0.49037 0.35557,0.68338 l 0.0502,0.1306 0.006,18.40039 0.006,18.40039 -0.31111,0.01 c -0.17111,0.006 -0.73446,0.0148 -1.25188,0.0206 l -0.94077,0.0105 z m 0.82382,-23.53378 0.0509,-11.12046 -0.0615,-0.11707 c -0.25527,-0.48577 -0.98094,-0.84254 -1.82059,-0.89506 -0.41228,-0.0258 -0.57208,0.008 -0.68265,0.14598 l -0.049,0.061 -1.37183,9.55595 c -0.75451,5.25577 -1.37183,9.57165 -1.37183,9.59085 0,0.0192 0.0104,0.0389 0.023,0.0437 0.0531,0.0204 0.73169,0.44277 1.08599,0.67596 2.00653,1.32065 3.39136,2.65348 4.02552,3.87435 l 0.11399,0.21944 0.004,-0.4571 c 0.002,-0.25141 0.0265,-5.46131 0.0545,-11.57756 z m -24.12941,-18.65735 c -1.08829,-0.15477 -1.81355,-0.82224 -2.23016,-2.05246 -0.1196,-0.35319 -0.23101,-0.84982 -0.2852,-1.27128 -0.0175,-0.13601 -0.0164,-0.18733 0.008,-0.37547 0.15538,-1.19395 0.55586,-2.02781 1.22573,-2.55212 0.518,-0.40544 1.10799,-0.58611 1.98349,-0.6074 1.7669,-0.043 4.15929,0.56414 6.92112,1.75633 l 0.26865,0.11596 h 15.10373 15.10372 l 0.1691,-0.0336 c 0.78576,-0.15637 1.49635,-0.4289 2.03015,-0.77862 0.83174,-0.54491 1.30627,-1.2951 1.46369,-2.31398 0.0476,-0.30796 0.0512,-0.92287 0.007,-1.2407 -0.13423,-0.97264 -0.57165,-1.69601 -1.31742,-2.17868 -0.52555,-0.34015 -1.20353,-0.56231 -2.04389,-0.66975 -0.25689,-0.0328 -0.30752,-0.0329 -15.38356,-0.0329 h -15.12581 l -0.47625,0.17814 c -2.79236,1.04448 -4.95912,1.59397 -6.6476,1.68582 -0.65818,0.0358 -1.12753,-0.0382 -1.56386,-0.2464 -0.91754,-0.43793 -1.50314,-1.47394 -1.71809,-3.03958 -0.0266,-0.19392 -0.0267,-0.21842 -7.7e-4,-0.42445 0.21132,-1.68112 0.95343,-2.70048 2.2139,-3.041 0.37453,-0.10118 0.52517,-0.11587 1.18356,-0.11535 0.64048,5.1e-4 0.79368,0.0113 1.3958,0.0986 1.44763,0.20977 3.2828,0.77419 5.27105,1.62114 l 0.34904,0.14869 14.76798,1.6e-4 c 9.72928,1.6e-4 14.86266,0.006 15.0455,0.0166 2.04407,0.12123 3.63113,0.63929 4.8374,1.57907 0.74084,0.57718 1.30501,1.27992 1.77595,2.21218 0.38095,0.75412 0.59183,1.41362 0.70332,2.1996 0.0412,0.29056 0.0411,1.15901 -2.6e-4,1.45293 -0.12475,0.88735 -0.40626,1.69425 -0.88849,2.54671 -0.64639,1.14266 -1.52949,1.98015 -2.70827,2.56841 -1.08276,0.54035 -2.34924,0.8389 -3.92372,0.92496 -0.19923,0.0109 -5.28856,0.0165 -14.95427,0.0165 l -14.65225,1e-5 -0.44028,0.16529 c -2.2818,0.85665 -4.24505,1.40766 -5.74592,1.61266 -0.66122,0.0903 -1.3882,0.12158 -1.7223,0.0741 z m 1.39041,-1.72205 c 1.12943,-0.0765 2.29848,-0.42249 3.55647,-1.05253 0.39138,-0.19602 1.22426,-0.66767 1.22385,-0.69306 -2.6e-4,-0.0165 -0.40041,-0.23669 -0.79572,-0.43786 -1.3298,-0.67673 -2.43316,-1.04146 -3.6262,-1.19868 -0.21801,-0.0287 -0.35328,-0.0358 -0.68768,-0.0359 -0.38629,-1.6e-4 -0.43041,0.003 -0.61219,0.042 -0.37231,0.0801 -0.5929,0.19066 -0.80881,0.40547 -0.23328,0.23209 -0.35135,0.51368 -0.39244,0.93592 -0.0223,0.22944 -0.0108,0.58769 0.0257,0.79407 0.13353,0.75676 0.6507,1.17099 1.5482,1.24006 0.24647,0.019 0.2953,0.019 0.56885,4.8e-4 z m 0.39984,-10.42139 c 1.0417,-0.1369 2.01577,-0.45128 3.14203,-1.01409 0.53652,-0.2681 1.23424,-0.66799 1.22414,-0.70158 -0.0111,-0.037 -0.84096,-0.47799 -1.28845,-0.68476 -0.85028,-0.39289 -1.63846,-0.66413 -2.39548,-0.82437 -0.87443,-0.1851 -1.68853,-0.21572 -2.17675,-0.0819 -0.57103,0.15656 -0.90907,0.52076 -1.02479,1.10408 -0.0448,0.22607 -0.0399,0.80401 0.009,1.03254 0.0687,0.32198 0.1764,0.53744 0.36662,0.73327 0.25185,0.25928 0.58809,0.40319 1.08818,0.46574 0.12952,0.0162 0.86569,-0.004 1.05563,-0.029 z m 17.07713,-9.64293 c -0.39198,-0.74245 -7.734,-14.84302 -7.73023,-14.84614 0.003,-0.002 0.66802,-0.007 1.47874,-0.0102 l 1.47403,-0.006 3.91698,7.51667 c 2.15434,4.13418 3.91492,7.51875 3.9124,7.52126 -0.003,0.003 -0.66616,0.01 -1.47476,0.0159 l -1.47018,0.0113 z m 5.68216,-7.33467 c -2.15227,-4.1245 -3.91537,-7.50923 -3.91801,-7.52164 -0.004,-0.0191 0.22402,-0.0226 1.47229,-0.0226 h 1.47709 l 3.91381,7.50953 c 2.1526,4.13025 3.91402,7.51505 3.91427,7.52178 2.5e-4,0.007 -0.66255,0.0122 -1.47289,0.0121 l -1.47334,-1.6e-4 -3.91322,-7.49908 z M 128.90072,200.5199 c -1.17523,-0.0215 -3.15322,-0.0754 -4.15473,-0.11312 -0.23345,-0.009 -0.86617,-0.016 -1.40605,-0.0161 h -0.9816 l -0.0725,-0.0857 c -0.40776,-0.48216 -0.44155,-0.98574 -0.10699,-1.59473 0.14849,-0.2703 0.35437,-0.43724 0.66373,-0.5382 0.62899,-0.20527 1.80361,-0.10229 3.23762,0.28385 0.22148,0.0596 0.31455,0.0757 0.55982,0.0969 0.70496,0.0608 1.51439,0.0643 2.06582,0.009 1.03175,-0.10347 1.83916,-0.36416 2.50576,-0.80905 0.57342,-0.38269 0.98208,-0.77708 1.15707,-1.11667 0.0977,-0.1896 0.12946,-0.30581 0.12941,-0.47357 0,-0.12064 -0.009,-0.16436 -0.0682,-0.33466 -0.13822,-0.39726 -0.17514,-0.68052 -0.16154,-1.23942 0.0135,-0.55427 0.0641,-0.91306 0.27516,-1.95214 0.1481,-0.72897 0.23678,-1.14028 0.35086,-1.6274 l 0.0925,-0.39486 -0.0519,-0.12742 c -0.10745,-0.26383 -0.2615,-0.46617 -0.43018,-0.56502 -0.2084,-0.12213 -0.5096,-0.12226 -0.73367,-3.1e-4 -0.0763,0.0415 -0.17631,0.13892 -0.31932,0.31098 -0.17418,0.20955 -0.56484,0.38235 -1.05843,0.46819 -0.12216,0.0212 -0.13273,0.0206 -0.19463,-0.0108 -0.19388,-0.0986 -0.42976,-0.30152 -0.5551,-0.47762 -0.15536,-0.21828 -0.21672,-0.38956 -0.28544,-0.79678 -0.0535,-0.31733 -0.0854,-0.46752 -0.12451,-0.58684 -0.0203,-0.0619 -0.0446,-0.0924 -0.12039,-0.15068 -0.25827,-0.19879 -0.42478,-0.4889 -0.42478,-0.74017 0,-0.0671 -0.008,-0.0806 -0.12525,-0.20471 -0.28213,-0.29933 -0.40601,-0.58341 -0.36612,-0.83962 0.0499,-0.32069 0.29275,-0.56077 0.98928,-0.97813 0.55971,-0.33536 0.93156,-0.59909 1.35161,-0.9586 0.12756,-0.10917 0.276,-0.23205 0.32988,-0.27305 0.32131,-0.24457 0.69673,-0.44219 1.06113,-0.55857 0.70193,-0.22418 1.03071,-0.33432 1.33697,-0.44786 l 0.34114,-0.12647 0.0194,-0.0649 c 0.10534,-0.35238 0.50126,-0.58745 1.20835,-0.71741 0.40574,-0.0746 0.70721,-0.0975 1.28968,-0.0979 0.42237,-3e-4 0.58985,0.006 0.77544,0.029 1.06821,0.13275 2.01311,0.49268 2.94668,1.12243 0.74038,0.49944 1.35128,1.14442 1.95492,2.06401 0.44731,0.68141 0.91158,1.5854 1.27759,2.48761 l 0.10186,0.25109 0.16122,0.14748 c 0.77003,0.70439 1.58863,1.22209 2.50387,1.58352 1.92746,0.76114 4.15117,0.82734 6.83792,0.20355 l 0.29972,-0.0696 0.1815,-0.21223 c 0.96808,-1.13194 2.07679,-1.81021 3.25951,-1.99403 0.26811,-0.0417 0.64081,-0.0382 0.85877,0.008 0.58901,0.12471 1.1128,0.43592 1.66431,0.98884 0.46649,0.4677 0.8758,1.01912 1.3197,1.77793 l 0.14153,0.24193 -0.0609,0.1009 c -0.0789,0.13083 -0.23723,0.28856 -0.33839,0.33711 -0.10835,0.052 -0.28158,0.0628 -0.41114,0.0257 -0.29548,-0.0847 -0.62818,-0.36983 -1.04839,-0.89861 -0.45243,-0.56932 -0.79767,-0.84521 -1.20564,-0.96343 -0.3537,-0.1025 -0.7081,-0.0595 -1.0891,0.13226 -0.16412,0.0826 -0.38918,0.23274 -0.50453,0.33661 l -0.0779,0.0701 0.4443,0.24488 c 1.52456,0.84026 3.09078,1.88131 4.37224,2.90618 1.33179,1.06512 2.2991,2.1875 2.89805,3.36264 0.20777,0.40766 0.31108,0.69787 0.37773,1.06113 0.0378,0.20578 0.0378,0.62024 1.6e-4,0.82442 -0.0929,0.50314 -0.34938,0.96732 -0.78056,1.41241 l -0.18159,0.18745 h -7.77646 -7.77647 l -0.0746,-0.0939 c -0.33644,-0.42328 -0.39832,-0.84211 -0.17639,-1.19396 0.0318,-0.0504 0.103,-0.13818 0.15825,-0.19507 0.34071,-0.35085 0.76797,-0.49137 1.49623,-0.4921 0.64658,-6.6e-4 1.3269,0.10518 2.36024,0.36716 0.71949,0.18242 1.09633,0.24584 1.56594,0.26354 0.93099,0.0351 1.64106,-0.23733 2.09754,-0.80477 0.0534,-0.0663 0.12723,-0.17145 0.16416,-0.23362 l 0.0672,-0.11302 -0.0641,-0.1357 c -0.24859,-0.52641 -0.83515,-0.88517 -1.76989,-1.08253 -0.57986,-0.12243 -1.17436,-0.11912 -1.67421,0.009 -0.24632,0.0633 -0.45767,0.14406 -0.72254,0.27611 -0.39607,0.19747 -0.80286,0.34788 -1.43218,0.52955 -1.17115,0.33808 -3.27979,0.77725 -4.77951,0.99542 -1.1865,0.17262 -2.07947,0.24406 -3.05279,0.24425 -0.72622,1.6e-4 -0.89249,-0.0105 -1.74678,-0.11164 -0.73748,-0.0873 -1.23996,-0.0244 -1.45241,0.18195 -0.0903,0.0877 -0.12218,0.17 -0.1226,0.31674 -3.9e-4,0.13776 0.0244,0.23614 0.10698,0.42389 0.0658,0.14956 0.0686,0.18808 0.019,0.26162 -0.22586,0.33516 -1.39513,0.53996 -3.62806,0.63548 -1.13139,0.0484 -3.92387,0.0638 -5.68929,0.0315 z m 6.87296,-1.80663 c 1.6e-4,-0.11553 0.0433,-0.38002 0.0923,-0.5661 0.2185,-0.82953 0.73666,-1.28775 1.6381,-1.4486 0.0845,-0.0151 0.26653,-0.0215 0.5877,-0.0208 0.46463,10e-4 0.46598,10e-4 0.98767,0.0767 1.44034,0.20845 2.52502,0.28906 3.89353,0.28934 0.94585,2e-4 1.57841,-0.0307 2.1794,-0.1063 1.36811,-0.17219 3.07319,-0.66566 5.13881,-1.48723 0.48253,-0.19192 1.34824,-0.5555 1.68352,-0.70705 l 0.11274,-0.051 -0.0111,-0.34794 c -0.037,-1.15745 -0.20351,-1.77215 -0.52241,-1.92817 -0.10087,-0.0494 -0.10256,-0.0494 -0.53269,-0.003 -0.80025,0.0859 -1.9543,0.0865 -2.80791,0.002 -2.00834,-0.19987 -3.77584,-0.86303 -5.26818,-1.97659 -0.23808,-0.17765 -0.62738,-0.50205 -0.81046,-0.67535 -0.0756,-0.0716 -0.14132,-0.13012 -0.14605,-0.13012 -0.005,0 -0.13706,0.15978 -0.29407,0.35507 -1.53367,1.90748 -3.36546,3.43988 -5.61077,4.69373 -0.35864,0.20028 -1.24278,0.64564 -1.54889,0.78021 -0.22547,0.0991 -0.2412,0.11455 -0.29612,0.29053 -0.0428,0.13727 -0.0431,0.38312 -7e-4,0.57498 0.0924,0.41753 0.39807,0.99958 0.85805,1.63356 0.21866,0.30139 0.64025,0.83029 0.66182,0.83029 0.009,0 0.0157,-0.0349 0.0158,-0.0776 z m 25.32412,-0.71242 c 0.1421,-0.0265 0.2366,-0.0676 0.26677,-0.11608 0.0174,-0.028 0.006,-0.0722 -0.0814,-0.31017 -0.56791,-1.54901 -1.45585,-2.80836 -2.69542,-3.82286 -1.08597,-0.8888 -2.2625,-1.45613 -3.55054,-1.71212 -0.16928,-0.0337 -0.52645,-0.0254 -0.6747,0.0155 -0.301,0.0832 -0.48583,0.26541 -0.56066,0.55277 -0.0606,0.23255 -0.0157,0.67449 0.10715,1.05662 0.0482,0.14981 0.12474,0.27394 0.33242,0.53891 0.93376,1.19137 2.81533,2.42215 5.49741,3.59601 0.17509,0.0766 0.36976,0.16208 0.43262,0.1899 l 0.11427,0.0506 0.34283,-0.008 c 0.19367,-0.004 0.39784,-0.018 0.46929,-0.0313 z m -26.31189,-4.25068 c 2.67277,-1.35248 4.90202,-3.22332 6.48874,-5.44552 l 0.18458,-0.2585 -0.0288,-0.14146 c -0.0866,-0.42614 -0.3276,-0.9772 -0.61603,-1.40878 -0.27428,-0.4104 -0.52306,-0.70498 -0.92346,-1.09344 -0.90366,-0.87671 -1.793,-1.37933 -2.58755,-1.46238 l -0.10054,-0.0105 0.0316,0.0476 c 0.22537,0.33996 0.43036,0.72558 0.50525,0.95045 0.16959,0.50923 0.0975,0.87509 -0.21976,1.11576 -0.12998,0.0986 -0.32903,0.18682 -0.54401,0.24111 -0.24879,0.0628 -0.39496,0.14025 -0.54137,0.28673 -0.1259,0.12596 -0.19921,0.25543 -0.24512,0.43287 -0.0359,0.1388 -0.0356,0.41783 5.9e-4,0.62036 0.08,0.4471 -0.0782,0.91844 -0.49475,1.47372 -0.1844,0.24584 -0.42315,0.51197 -0.68158,0.75976 l -0.21602,0.20711 -0.0939,0.23672 c -0.27585,0.69556 -0.46325,1.4307 -0.55766,2.18756 -0.0239,0.19138 -0.0295,0.35707 -0.0295,0.86523 0,0.34568 0.006,0.64845 0.0124,0.67282 l 0.0124,0.0443 0.159,-0.0782 c 0.0875,-0.043 0.30593,-0.1525 0.48551,-0.24337 z m -3.66335,-4.01841 c 0.089,-0.0418 0.19152,-0.13939 0.27598,-0.26256 0.19933,-0.29069 0.47295,-0.42331 0.87331,-0.42331 0.46333,0 0.829,0.19382 1.00399,0.53214 0.0224,0.0434 0.0423,0.0816 0.0442,0.085 0.007,0.0121 0.15321,-0.0824 0.31788,-0.2049 0.54042,-0.40219 0.91573,-0.93482 1.07351,-1.52346 0.0654,-0.24386 0.0829,-0.39879 0.0996,-0.88155 0.0185,-0.53352 0.007,-0.66817 -0.0707,-0.83817 -0.0659,-0.14394 -0.14106,-0.21272 -0.33278,-0.30452 -0.36565,-0.17507 -0.49722,-0.31646 -0.52471,-0.56388 -0.0384,-0.34544 0.0641,-0.60444 0.34114,-0.86179 l 0.12964,-0.12043 -0.25723,0.0627 c -0.41639,0.10142 -0.99837,0.22024 -1.38365,0.28248 -0.50691,0.0819 -0.67754,0.11747 -0.87339,0.18213 -0.37633,0.12423 -0.70168,0.31765 -1.11011,0.65995 -0.39726,0.33295 -1.05537,0.81153 -1.53877,1.119 -0.11009,0.07 -0.12901,0.0891 -0.14472,0.14586 -0.055,0.1986 0.0426,0.46921 0.26958,0.7479 l 0.0773,0.0949 -0.0196,0.12145 c -0.0561,0.3479 0.14955,0.59405 0.56557,0.67689 0.0921,0.0183 0.10588,0.0165 0.28456,-0.0385 0.10325,-0.0318 0.26854,-0.0919 0.36731,-0.13368 0.0988,-0.0418 0.21263,-0.0868 0.25304,-0.10022 0.10216,-0.0338 0.2489,-0.0206 0.35204,0.0316 0.0772,0.0391 0.25199,0.18148 0.25199,0.20524 0,0.006 -0.0496,0.0283 -0.1102,0.0495 -0.14032,0.0491 -0.50377,0.22587 -0.63668,0.30957 -0.11052,0.0696 -0.27937,0.12214 -0.49232,0.15318 l -0.13211,0.0192 v 0.079 c 0,0.0972 0.0406,0.29889 0.083,0.41207 0.0396,0.10594 0.12882,0.21137 0.21671,0.25621 0.0651,0.0332 0.0808,0.0347 0.30845,0.0289 0.0112,-3e-4 0.0571,0.0107 0.10203,0.0245 0.10434,0.032 0.23986,0.023 0.33629,-0.0223 z m 2.26756,-1.56352 c -1.34823,-0.14276 -2.03224,-0.35489 -2.16894,-0.67266 -0.0931,-0.2164 -0.10871,-0.50605 -0.0371,-0.68737 0.0603,-0.15267 0.0651,-0.15569 0.16782,-0.10533 l 0.0876,0.043 -1.6e-4,0.1824 c -1.6e-4,0.17328 0.003,0.18787 0.0534,0.29131 0.15066,0.30637 0.59478,0.53818 1.30362,0.68043 0.25909,0.052 0.66637,0.10767 0.92018,0.1258 0.0853,0.006 0.16427,0.0159 0.17549,0.0218 0.0117,0.006 -0.0408,0.0367 -0.12263,0.0713 -0.14407,0.061 -0.20006,0.0683 -0.37936,0.0493 z m -1.8389,-1.911 c 0.0123,-0.29033 0.0382,-0.4367 0.0981,-0.55486 0.0592,-0.11688 0.11727,-0.17943 0.21243,-0.22892 0.0741,-0.0385 0.1059,-0.0442 0.27948,-0.0495 0.25982,-0.008 0.45842,0.0315 0.66637,0.13284 0.0824,0.0402 0.16636,0.0907 0.18649,0.11219 l 0.0366,0.0392 -0.0856,0.0895 c -0.22919,0.23972 -0.61889,0.44792 -1.03554,0.55325 -0.0435,0.011 -0.072,0.0288 -0.0784,0.0489 -0.006,0.0174 -0.0322,0.0503 -0.0594,0.0731 -0.04,0.0336 -0.0667,0.0415 -0.14044,0.0415 h -0.0911 z m -0.48541,0.0327 c -0.0464,-0.15858 -0.0566,-0.48147 -0.0197,-0.62026 0.0632,-0.2372 0.2019,-0.39227 0.46805,-0.52309 0.21459,-0.10549 0.32079,-0.13375 0.54542,-0.14513 0.16199,-0.008 0.49936,0.0227 0.77136,0.0706 0.10434,0.0184 0.0408,0.0843 -0.11493,0.11922 -0.0403,0.009 -0.20456,0.0233 -0.3649,0.0317 -0.23468,0.0123 -0.31572,0.023 -0.41556,0.0549 -0.23584,0.0755 -0.38678,0.21185 -0.50961,0.46027 -0.0676,0.13664 -0.13291,0.34838 -0.15018,0.48663 l -0.0117,0.0937 h -0.095 c -0.0764,0 -0.0966,-0.006 -0.10332,-0.0286 z m 5.02765,-0.67539 c 0.2548,-0.0953 0.44255,-0.43732 0.47392,-0.86325 0.0175,-0.23757 -0.0448,-0.3158 -0.23835,-0.29943 -0.14015,0.0119 -0.16016,0.0188 -0.22704,0.0793 -0.0882,0.0797 -0.14211,0.21215 -0.1796,0.4413 -0.0267,0.16296 -0.047,0.22836 -0.12302,0.39647 -0.0964,0.21303 -0.10937,0.27249 -0.0625,0.28629 0.0555,0.0163 0.26957,-0.008 0.35661,-0.0406 z m -0.99974,6.6e-4 c 0.0346,-0.01 0.0942,-0.0463 0.13239,-0.0815 0.14169,-0.13061 0.22935,-0.37042 0.28642,-0.78353 0.041,-0.29654 0.0779,-0.40346 0.1754,-0.50769 0.0939,-0.10041 0.20581,-0.14423 0.36787,-0.14407 0.11916,1.6e-4 0.33705,0.0438 0.4466,0.0896 0.0329,0.0137 0.063,0.0218 0.067,0.0178 0.004,-0.004 -0.0211,-0.0609 -0.0556,-0.12664 -0.0836,-0.15923 -0.23678,-0.31996 -0.36821,-0.38643 -0.19633,-0.0993 -0.45397,-0.12541 -0.59054,-0.0599 -0.14255,0.0684 -0.3476,0.30948 -0.47226,0.55519 -0.0255,0.0502 -0.10841,0.14769 -0.21526,0.25304 -0.30588,0.30161 -0.47228,0.52196 -0.52292,0.69249 -0.0229,0.0771 -0.0223,0.083 0.0153,0.14716 0.0543,0.0926 0.20699,0.23305 0.29644,0.27262 0.0818,0.0362 0.2485,0.0762 0.32541,0.0781 0.0269,6.7e-4 0.0773,-0.007 0.11191,-0.0163 z m 4.34484,-7.3722 c -5.88111,-0.0466 -10.98286,-0.0853 -11.33724,-0.0859 l -0.64431,-10e-4 0.1464,-0.13338 c 0.22771,-0.20746 0.50156,-0.48679 0.98157,-1.00121 0.85578,-0.91713 1.21513,-1.23442 1.62818,-1.43762 0.24872,-0.12237 0.36321,-0.14523 0.66223,-0.13224 0.13056,0.006 0.36227,0.0189 0.51491,0.0294 0.3695,0.0254 1.79002,0.0258 2.21205,6.2e-4 0.96631,-0.0577 1.6759,-0.12927 2.47324,-0.24953 0.3952,-0.0596 0.39496,-0.0595 0.40462,-0.0935 0.004,-0.0149 0.0605,-0.19615 0.125,-0.40266 0.62016,-1.98567 1.75889,-6.54974 2.04179,-8.18351 l 0.0178,-0.1026 -0.11774,-0.19942 c -0.46153,-0.78165 -0.90824,-1.48226 -2.05798,-3.22771 -1.41638,-2.15023 -1.99557,-3.07627 -2.65116,-4.2388 -0.43896,-0.77838 -0.94878,-1.77079 -1.23995,-2.41367 -0.12292,-0.2714 -0.10305,-0.24724 -0.44944,-0.54661 -0.3009,-0.26005 -0.85804,-0.80738 -1.12198,-1.10222 -1.42301,-1.58958 -2.26734,-3.33433 -2.50055,-5.16717 -0.0993,-0.78059 -0.0859,-1.26194 0.0889,-3.18311 0.0924,-1.01589 0.13868,-1.69111 0.13888,-2.0266 l 8e-5,-0.14105 -0.13469,-0.0356 c -0.48859,-0.12928 -1.09061,-0.32812 -2.02839,-0.66994 -1.2771,-0.46551 -1.89604,-0.65109 -2.55487,-0.76605 -1.00786,-0.17587 -2.01846,-0.10819 -3.01133,0.20168 -0.0715,0.0223 -0.13193,0.0386 -0.13434,0.0362 -0.009,-0.009 0.32937,-0.76533 0.48674,-1.08797 0.25997,-0.53301 0.46247,-0.83984 0.74727,-1.13226 0.47618,-0.48894 0.93562,-0.70987 1.76928,-0.85082 0.39945,-0.0675 0.73791,-0.0924 1.6851,-0.12365 1.17348,-0.0388 1.77802,-0.1448 2.40434,-0.42176 0.12601,-0.0557 0.16676,-0.0652 0.3546,-0.0823 0.11672,-0.0106 0.58321,-0.0629 1.03664,-0.11615 0.93797,-0.11016 1.31935,-0.15101 1.73862,-0.18624 1.5807,-0.13282 2.75128,-0.0424 3.7911,0.29278 0.27514,0.0887 0.41542,0.17531 0.64671,0.39932 0.27475,0.2661 0.48262,0.56603 0.69644,1.00486 0.1489,0.30562 0.21854,0.47711 0.33597,0.8274 0.16435,0.49026 0.25004,0.87703 0.37368,1.68666 0.099,0.64798 0.1632,1.01651 0.22095,1.26739 0.0545,0.23682 0.15745,0.56836 0.18516,0.59637 0.0104,0.0105 0.1584,0.0757 0.32899,0.1449 1.32923,0.53944 2.67265,1.19177 3.73845,1.81528 1.53146,0.89593 2.85275,1.88637 4.09196,3.06733 0.36346,0.34638 1.1171,1.18835 2.29228,2.56095 1.72776,2.018 3.18655,3.82883 6.87156,8.52985 2.98731,3.81095 4.50304,5.68588 6.20282,7.67278 0.90672,1.05989 1.93861,2.22171 2.63887,2.97117 0.54514,0.58343 0.98714,1.21597 1.19156,1.70521 0.22736,0.54412 0.198,0.96454 -0.0842,1.20611 -0.16031,0.13722 -0.43811,0.2376 -0.75678,0.27346 l -0.1645,0.0185 -0.0551,0.17158 c -0.0711,0.22151 -0.24954,0.57483 -0.38955,0.77131 -0.13173,0.18486 -0.46618,0.52698 -0.65183,0.66678 -0.7744,0.58313 -1.7799,0.94194 -2.9652,1.05813 -0.27556,0.027 -0.301,0.027 -0.54603,-6.7e-4 -1.26997,-0.14327 -2.49176,-0.49833 -3.57915,-1.04011 -1.67189,-0.83301 -3.16546,-2.14793 -4.59402,-4.04456 -0.53986,-0.71674 -1.32797,-1.89437 -1.7736,-2.65022 -0.0302,-0.0513 -0.0574,-0.0907 -0.0605,-0.0876 -0.003,0.003 -0.0235,0.094 -0.0454,0.20211 -0.10385,0.51184 -0.28262,0.87086 -0.5675,1.13972 -0.0756,0.0714 -0.1928,0.16077 -0.2631,0.20075 -0.276,0.15695 -0.66897,0.24864 -0.91553,0.21363 -0.59324,-0.0842 -1.13611,-0.38188 -1.87709,-1.02911 l -0.22826,-0.19938 -0.0269,0.251 c -0.0587,0.54681 -0.15338,1.06423 -0.29982,1.63863 -0.15816,0.62038 -0.29792,1.0432 -0.78239,2.36714 l -0.20311,0.55505 0.31302,0.0106 c 0.99605,0.0337 2.45278,0.41829 3.60252,0.95114 0.96699,0.44816 1.70754,1.02115 2.0926,1.61911 0.0982,0.15251 0.2546,0.50526 0.23956,0.54033 -0.003,0.007 -4.81765,-0.0245 -10.69876,-0.0711 z m 20.19422,-2.02173 c 0.9783,-0.11371 1.70508,-0.41465 2.20527,-0.91315 0.0996,-0.0992 0.21596,-0.23008 0.2586,-0.29072 l 0.0775,-0.11026 -0.0611,-0.0856 c -0.78009,-1.09339 -2.17844,-2.53273 -3.56886,-3.67351 -0.22663,-0.18593 -1.42491,-0.97042 -2.88553,-1.8891 -3.39887,-2.13775 -7.07808,-4.27364 -11.85318,-6.88109 -1.33623,-0.72966 -5.0465,-2.72492 -5.40318,-2.90567 l -0.085,-0.0431 0.0537,0.0786 c 0.0295,0.0432 0.27029,0.37977 0.53499,0.7479 0.99204,1.37968 1.30869,1.82182 1.55501,2.17123 0.99397,1.40998 1.70771,2.508 2.28683,3.51806 0.19671,0.34309 0.31234,0.55598 0.6454,1.18827 l 0.0971,0.18428 0.16983,-0.11234 c 0.0934,-0.0618 0.28633,-0.1943 0.42872,-0.29447 0.14239,-0.10018 0.26405,-0.18214 0.27035,-0.18214 0.006,0 0.63347,0.74466 1.39371,1.65479 1.33939,1.60347 1.38454,1.65542 1.45603,1.67544 0.45045,0.12611 0.58163,-0.45176 0.40701,-1.79284 -0.06,-0.46103 -0.35075,-3.07582 -0.34576,-3.10984 0.005,-0.0324 1.42458,1.68116 1.72902,2.08669 0.39268,0.52308 0.77701,1.0754 1.57331,2.26102 1.39421,2.07583 2.01558,2.9068 2.85811,3.8222 1.50271,1.63268 3.13463,2.56301 4.97763,2.83768 0.54136,0.0807 0.88685,0.097 1.22448,0.0577 z m -18.93719,-1.33795 c 1.05411,-0.27807 1.76912,-1.45177 2.21794,-3.64074 0.0405,-0.19738 0.0717,-0.36079 0.0693,-0.36315 -0.002,-0.002 -0.0588,0.0599 -0.12544,0.13823 -0.18546,0.21812 -0.53238,0.56964 -0.83619,0.84726 -0.2846,0.26008 -0.94863,0.82214 -0.97129,0.82214 -0.007,0 -0.0555,-0.19284 -0.10747,-0.42853 -0.28782,-1.30471 -0.52541,-2.14683 -0.7703,-2.73037 l -0.0274,-0.0653 -0.16976,0.63668 c -0.18922,0.70965 -0.36886,1.34494 -0.51282,1.81359 -0.28964,0.94292 -0.36689,1.32877 -0.36574,1.8269 5.7e-4,0.24619 0.006,0.31696 0.0363,0.43632 0.10546,0.42138 0.35655,0.65778 0.78515,0.73919 0.19823,0.0377 0.57141,0.0222 0.77769,-0.0322 z m 20.17507,-3.8188 c -0.0165,-0.0215 -0.23223,-0.28041 -0.4795,-0.57545 -0.76412,-0.9118 -1.22823,-1.4842 -3.03597,-3.74433 -2.21882,-2.77408 -3.03858,-3.77633 -6.56953,-8.03194 -2.96404,-3.57234 -4.45224,-5.38476 -5.71713,-6.96264 -0.33099,-0.4129 -0.477,-0.56419 -1.00997,-1.04652 -0.71425,-0.64638 -1.54957,-1.28996 -2.40795,-1.85524 -1.36191,-0.89686 -3.06968,-1.75726 -4.93271,-2.48517 -0.16751,-0.0654 -0.34532,-0.14605 -0.39514,-0.17912 -0.3104,-0.20603 -0.52072,-0.62336 -0.62978,-1.24967 -0.0463,-0.26612 -0.0755,-0.51208 -0.12376,-1.04481 -0.0461,-0.50903 -0.0743,-0.72316 -0.12128,-0.92236 -0.0169,-0.0718 -0.0535,-0.24154 -0.0812,-0.37712 -0.27813,-1.35982 -0.77983,-2.01014 -1.70382,-2.20855 -0.0827,-0.0178 -0.20309,-0.0374 -0.26757,-0.0436 l -0.11725,-0.0113 -0.0101,0.0632 c -0.0867,0.54404 -0.23968,1.00682 -0.49521,1.49828 -0.41997,0.80769 -1.0206,1.47964 -1.63905,1.83368 -0.0827,0.0473 -0.1547,0.0861 -0.16004,0.0861 -0.01,0 -0.27738,-0.56456 -0.27702,-0.58474 1.6e-4,-0.006 0.0439,-0.0351 0.0974,-0.0645 0.64987,-0.35694 1.0767,-1.30063 1.03914,-2.29742 -0.01,-0.25769 -0.0399,-0.50027 -0.0654,-0.52576 -0.0179,-0.0179 -1.27567,0.15002 -2.39371,0.31959 -0.0707,0.0107 -0.0672,0.0122 0.094,0.0389 0.28978,0.048 0.55193,0.18456 0.74817,0.38981 0.13018,0.13616 0.16997,0.19067 0.16985,0.23271 -6.6e-4,0.25343 -0.31486,0.45286 -0.79182,0.50258 -0.47832,0.0499 -0.95237,-0.0902 -1.13677,-0.33578 -0.0577,-0.0769 -0.11195,-0.22365 -0.11195,-0.30308 0,-0.11541 0.31919,-0.36461 0.57954,-0.45246 0.0652,-0.022 0.0652,-0.022 -0.0408,-0.013 -0.29332,0.0249 -1.33322,0.15906 -2.21205,0.28545 -0.54034,0.0777 -1.97136,0.27619 -2.00752,0.27843 -0.009,5.8e-4 0.0886,0.03 0.21747,0.0653 0.47586,0.13049 1.08404,0.34366 1.9533,0.68464 1.5303,0.60027 2.2589,0.80755 3.11784,0.88701 l 0.21197,0.0196 -0.005,0.13031 c -0.003,0.0717 -0.0261,0.56741 -0.0525,1.10165 -0.0754,1.52955 -0.0811,1.68018 -0.0919,2.42427 -0.0213,1.47064 0.0684,2.5829 0.29004,3.596 0.43806,2.00277 1.40686,3.46843 2.98563,4.51684 0.30414,0.20197 0.71341,0.44367 0.72747,0.42962 0.004,-0.004 -0.0507,-0.12809 -0.12191,-0.27538 -0.5819,-1.20343 -0.71292,-2.51769 -0.35705,-3.58162 0.37776,-1.1294 1.3143,-2.16145 2.67389,-2.94657 0.41182,-0.23781 0.95405,-0.48835 1.40374,-0.6486 0.4712,-0.16792 0.98172,-0.26171 1.06803,-0.19622 0.0309,0.0235 0.0309,0.0246 -6.9e-4,0.0791 -0.0469,0.081 -0.23278,0.2237 -0.82457,0.63329 -1.09582,0.75845 -1.69872,1.24668 -2.17917,1.76466 -0.6136,0.66156 -0.92341,1.26892 -0.96306,1.88804 -0.0119,0.18555 0.0148,0.69368 0.0514,0.97781 0.14903,1.15803 0.57248,2.13235 1.32061,3.03856 0.20266,0.24548 0.70571,0.74335 0.98873,0.97855 0.58812,0.48874 1.27171,0.95438 2.17124,1.47897 0.54166,0.31589 0.94287,0.53419 5.28932,2.87792 4.43724,2.39269 6.28166,3.4198 8.55434,4.76369 2.79735,1.65413 5.47767,3.41016 7.47688,4.89852 0.17509,0.13034 0.32079,0.23742 0.32378,0.23795 0.003,5.2e-4 -0.008,-0.0166 -0.0245,-0.038 z m -18.83293,-1.42562 c 0.28673,-0.39477 0.3782,-0.56207 0.42234,-0.77248 0.043,-0.20495 0.008,-0.35911 -0.12808,-0.56489 -0.0408,-0.0616 -0.16401,-0.26997 -0.27389,-0.46301 -2.33411,-4.10058 -4.74644,-7.5923 -7.11645,-10.30067 -0.31395,-0.35877 -0.28376,-0.32652 -0.26028,-0.27798 0.10469,0.21642 0.65585,1.17465 1.01935,1.77218 0.47972,0.7886 0.78319,1.25721 2.3077,3.56353 1.08015,1.63409 1.62302,2.50646 2.16197,3.47417 0.70436,1.26473 1.28962,2.57803 1.6445,3.69019 0.0206,0.0646 0.0424,0.11446 0.0485,0.11074 0.006,-0.004 0.0845,-0.10803 0.17439,-0.23178 z"
       id="path1402" />
  </g>
</svg>
