<?xml version="1.0" encoding="UTF-8" standalone="no"?>
<!-- Created with Inkscape (http://www.inkscape.org/) -->

<svg
   width="1080"
   height="1920"
   viewBox="0 0 285.75001 508"
   version="1.1"
   id="svg5"
   inkscape:export-filename="/Users/albertotomasoni/ALBERTO.png"
   inkscape:export-xdpi="96"
   inkscape:export-ydpi="96"
   inkscape:version="1.1.1 (c3084ef, 2021-09-22)"
   sodipodi:docname="Andrea.svg"
   xmlns:inkscape="http://www.inkscape.org/namespaces/inkscape"
   xmlns:sodipodi="http://sodipodi.sourceforge.net/DTD/sodipodi-0.dtd"
   xmlns="http://www.w3.org/2000/svg"
   xmlns:svg="http://www.w3.org/2000/svg">
  <sodipodi:namedview
     id="namedview7"
     pagecolor="#ffffff"
     bordercolor="#666666"
     borderopacity="1.0"
     inkscape:pageshadow="2"
     inkscape:pageopacity="0.0"
     inkscape:pagecheckerboard="0"
     inkscape:document-units="px"
     showgrid="false"
     units="px"
     inkscape:zoom="0.41747016"
     inkscape:cx="777.30106"
     inkscape:cy="927.01236"
     inkscape:window-width="1440"
     inkscape:window-height="900"
     inkscape:window-x="0"
     inkscape:window-y="0"
     inkscape:window-maximized="0"
     inkscape:current-layer="g2878" />
  <defs
     id="defs2" />
  <g
     inkscape:label="ALBERTO"
     inkscape:groupmode="layer"
     id="g2878">
    <g
       aria-label="andrea"
       transform="matrix(2.7839642,0,0,2.7839642,-1007.5298,-810.36416)"
       id="text2874"
       style="font-weight:500;font-size:19.0077px;line-height:1.25;font-family:'Helvetica Neue';-inkscape-font-specification:'Helvetica Neue Medium';text-align:center;text-anchor:middle;white-space:pre;inline-size:858.441;stroke-width:1.51181;stroke-linecap:round;paint-order:markers fill stroke;stop-color:#000000">
      <path
         d="m 395.52659,321.43809 h -2.39497 l -0.38016,2.10985 h -2.12886 l 2.66108,-13.30539 h 2.09085 l 2.66107,13.30539 h -2.12886 z m -0.36115,-2.09085 -0.83634,-4.77093 -0.83634,4.77093 z"
         style="font-weight:normal;font-family:Bison;-inkscape-font-specification:Bison"
         id="path912" />
      <path
         d="m 405.50504,323.54794 h -1.2165 l -3.19329,-6.74773 v 6.74773 h -2.09085 v -13.30539 h 1.2165 l 3.19329,6.72873 v -6.72873 h 2.09085 z"
         style="font-weight:normal;font-family:Bison;-inkscape-font-specification:Bison"
         id="path914" />
      <path
         d="m 410.10609,323.54794 q 1.36855,0 2.18588,-0.7413 0.4752,-0.41817 0.7413,-1.06443 0.2281,-0.60824 0.2281,-1.38756 v -6.84277 q 0,-1.59665 -0.95039,-2.471 -0.85534,-0.79833 -2.20489,-0.79833 h -3.15528 v 13.30539 z m -1.06443,-11.21454 h 1.06443 q 0.53221,0 0.77931,0.22809 0.28512,0.28512 0.28512,0.95039 v 6.84277 q 0,0.66527 -0.26611,0.89336 -0.22809,0.20909 -0.79832,0.20909 h -1.06443 z"
         style="font-weight:normal;font-family:Bison;-inkscape-font-specification:Bison"
         id="path916" />
      <path
         d="m 420.85197,323.54794 h -2.12886 l -1.08344,-5.34116 h -0.95038 v 5.34116 h -2.09085 v -13.30539 h 3.15528 q 1.34954,0 2.20489,0.79833 0.95039,0.87435 0.95039,2.471 v 1.42558 q 0,1.61565 -0.95039,2.49 -0.13305,0.13306 -0.30412,0.2471 z m -2.03382,-10.03606 q 0,-0.66527 -0.28512,-0.95039 -0.2471,-0.22809 -0.77931,-0.22809 h -1.06443 v 3.78253 h 1.06443 q 0.53221,0 0.77931,-0.22809 0.28512,-0.26611 0.28512,-0.95038 z"
         style="font-weight:normal;font-family:Bison;-inkscape-font-specification:Bison"
         id="path918" />
      <path
         d="m 424.22554,312.3334 v 3.34536 h 2.35696 v 2.09084 h -2.35696 v 3.6875 h 3.42139 v 2.09084 h -5.51223 v -13.30539 h 5.51223 v 2.09085 z"
         style="font-weight:normal;font-family:Bison;-inkscape-font-specification:Bison"
         id="path920" />
      <path
         d="m 433.31924,321.43809 h -2.39497 l -0.38015,2.10985 h -2.12887 l 2.66108,-13.30539 h 2.09085 l 2.66108,13.30539 h -2.12887 z m -0.36115,-2.09085 -0.83633,-4.77093 -0.83634,4.77093 z"
         style="font-weight:normal;font-family:Bison;-inkscape-font-specification:Bison"
         id="path922" />
    </g>
    <path
       style="fill=currentColor;stroke-width:0.0163251"
       d="m 112.57565,299.68795 v -1.08562 l 11.65202,-0.002 c 11.52481,-0.002 11.65006,-0.002 11.47245,-0.033 -1.03135,-0.17913 -1.46367,-0.26231 -2.16307,-0.41612 -7.3812,-1.62344 -13.31566,-5.01193 -16.92277,-9.6627 -0.58953,-0.76011 -1.15706,-1.61762 -1.63138,-2.46496 -0.17999,-0.32154 -0.53255,-1.02337 -0.68887,-1.3713 -0.96808,-2.1548 -1.51184,-4.38174 -1.6702,-6.84021 -0.0104,-0.16162 -0.0255,-0.2963 -0.0335,-0.29929 -0.0195,-0.007 -0.0195,-139.69639 -4e-5,-139.69639 0.008,0 0.0194,-0.0679 0.0253,-0.15101 0.0953,-1.34138 0.25224,-2.36665 0.53277,-3.48132 0.94755,-3.76505 3.04602,-7.04207 6.25242,-9.76392 4.4323,-3.76249 10.87447,-6.28349 18.22572,-7.13222 0.32017,-0.037 10.17684,-0.037 10.49702,0 5.49808,0.63478 10.54357,2.21735 14.58645,4.57521 2.81155,1.63972 5.10287,3.62436 6.81768,5.90518 1.59143,2.11671 2.67364,4.4837 3.2207,7.04427 0.19381,0.90713 0.30749,1.74716 0.38608,2.8528 0.006,0.0831 0.0173,0.15101 0.0253,0.15101 0.0195,0 0.0195,139.68913 0,139.69639 -0.008,0.003 -0.0232,0.13767 -0.0336,0.29929 -0.17664,2.74237 -0.84056,5.23077 -2.01667,7.55851 -1.29492,2.56291 -3.16736,4.82497 -5.61609,6.78475 -3.45195,2.76268 -7.99905,4.82481 -13.16618,5.97094 -0.7619,0.169 -1.32362,0.27732 -2.36713,0.45649 -0.0568,0.01 4.19319,0.0161 11.56223,0.0174 l 11.65202,0.002 v 1.08562 1.08562 h -30.29934 -30.29933 v -1.08562 z m 32.01347,-2.7337 c 1.24172,-0.0564 2.21654,-0.13236 3.26502,-0.25431 6.672,-0.77598 12.49854,-3.06085 16.61449,-6.51537 3.09599,-2.59846 5.1445,-5.80236 6.02707,-9.42641 0.24596,-1.00998 0.38062,-1.88155 0.47027,-3.04376 0.0277,-0.35872 0.029,-3.48251 0.029,-70.01008 0,-56.1255 -0.004,-69.69004 -0.0207,-69.9203 -0.10152,-1.39909 -0.31601,-2.57779 -0.69184,-3.8019 -0.61505,-2.00328 -1.66091,-3.91554 -3.05904,-5.59318 -0.68243,-0.81886 -1.59664,-1.73375 -2.43192,-2.43375 -1.65022,-1.38294 -3.61809,-2.6012 -5.78201,-3.57951 -3.34341,-1.51155 -7.17198,-2.51653 -11.29402,-2.96462 -2.50209,-0.272 -5.20561,-0.32867 -7.77889,-0.16306 -7.38749,0.47543 -14.01571,2.74468 -18.53387,6.34528 -1.06017,0.84487 -2.06087,1.81763 -2.87595,2.79566 -1.39813,1.67764 -2.444,3.5899 -3.05905,5.59318 -0.37583,1.22411 -0.59032,2.40281 -0.69183,3.8019 -0.0167,0.23026 -0.0207,13.7948 -0.0207,69.9203 0,66.52757 0.001,69.65136 0.029,70.01008 0.0897,1.16221 0.22431,2.03378 0.47027,3.04376 1.02579,4.21218 3.6229,7.84582 7.60044,10.63378 4.20362,2.94645 9.81796,4.83988 16.05328,5.41395 0.88937,0.0819 1.81342,0.1352 2.95483,0.17048 0.34241,0.0106 2.3684,-0.006 2.72629,-0.0221 z m -5.80356,-19.53469 c -5.88111,-0.0476 -10.83514,-0.087 -11.00895,-0.0876 l -0.31602,-10e-4 0.0875,-0.0769 c 0.19696,-0.17324 0.47106,-0.45167 1.00101,-1.01684 0.59166,-0.63096 0.85034,-0.88862 1.10261,-1.09828 0.28646,-0.23807 0.56998,-0.40634 0.80809,-0.4796 0.11599,-0.0357 0.38534,-0.0382 0.79993,-0.008 0.40946,0.0303 1.53965,0.0412 2.05696,0.0199 0.99812,-0.0411 1.89439,-0.12657 2.81557,-0.2685 l 0.33417,-0.0515 0.087,-0.26936 c 0.56708,-1.75636 1.77565,-6.55599 2.06874,-8.21567 l 0.0425,-0.24087 -0.26776,-0.44479 c -0.46132,-0.76629 -0.88687,-1.43041 -1.9378,-3.02414 -1.34021,-2.03244 -1.90555,-2.93473 -2.56739,-4.0976 -0.43237,-0.7597 -0.97209,-1.80392 -1.28256,-2.48141 l -0.13465,-0.29385 -0.23192,-0.1983 c -1.19916,-1.02535 -2.13932,-2.18475 -2.8025,-3.45604 -0.66902,-1.28247 -1.01613,-2.73706 -0.97449,-4.08374 0.0113,-0.36521 0.0607,-1.02098 0.15734,-2.08961 0.0781,-0.86383 0.11001,-1.31146 0.12437,-1.74679 l 0.0108,-0.3265 -0.26741,-0.0717 c -0.40654,-0.10908 -0.98029,-0.30016 -1.91624,-0.63821 -1.14083,-0.41204 -1.49087,-0.52521 -2.01615,-0.65186 -0.5991,-0.14445 -1.06635,-0.20228 -1.6325,-0.20204 -0.6449,2.8e-4 -1.16117,0.0779 -1.83451,0.27576 -0.1066,0.0313 -0.19619,0.0546 -0.19907,0.0517 -0.008,-0.008 0.43313,-0.99386 0.5373,-1.20032 0.33546,-0.66478 0.69092,-1.09568 1.16471,-1.41192 0.27856,-0.18592 0.49272,-0.27404 0.92348,-0.37997 0.44382,-0.10914 0.9103,-0.15931 1.73441,-0.18654 1.11039,-0.0367 1.45824,-0.068 1.93206,-0.17397 0.24373,-0.0545 0.55891,-0.15603 0.76158,-0.24533 0.15119,-0.0666 0.18134,-0.0738 0.40812,-0.0971 0.13469,-0.0138 0.61219,-0.0684 1.06113,-0.1212 0.91404,-0.10752 1.33197,-0.15185 1.76311,-0.18701 1.5493,-0.12635 2.71551,-0.0316 3.74661,0.3044 0.19184,0.0625 0.27249,0.10244 0.40812,0.20205 0.55731,0.40927 1.04162,1.25358 1.35596,2.36386 0.099,0.34974 0.16768,0.69677 0.27662,1.39809 0.11344,0.73031 0.16275,1.01059 0.22116,1.25703 0.0408,0.17197 0.14493,0.51449 0.16697,0.54899 0.006,0.0101 0.16604,0.0811 0.35459,0.15767 3.24689,1.31875 5.78831,2.91187 7.88309,4.9416 0.56759,0.54997 2.5624,2.85855 4.1827,4.8406 1.25282,1.53253 2.06511,2.5548 4.76713,5.99947 2.78174,3.54629 3.90824,4.95117 5.43239,6.7749 1.13131,1.35368 2.344,2.74144 3.31524,3.79386 0.46803,0.50715 0.59328,0.65261 0.81685,0.94868 0.54973,0.72801 0.81954,1.3632 0.75934,1.78768 -0.0569,0.40107 -0.39176,0.64185 -0.98182,0.70596 l -0.17375,0.0189 -0.0272,0.0987 c -0.0448,0.16242 -0.15169,0.41506 -0.24693,0.58363 -0.31883,0.56429 -0.85139,1.03532 -1.56591,1.38499 -0.47729,0.23357 -0.92876,0.38337 -1.49374,0.49565 -0.65188,0.12954 -1.06095,0.14775 -1.57094,0.0699 -0.76098,-0.11613 -1.34184,-0.25223 -1.96489,-0.46038 -2.26608,-0.75706 -4.17788,-2.26058 -6.00922,-4.72592 -0.51089,-0.68775 -1.17254,-1.68149 -1.66044,-2.49382 -0.0608,-0.10117 -0.0912,-0.11706 -0.0917,-0.0478 -5.1e-4,0.0706 -0.0656,0.34353 -0.12257,0.51371 -0.16326,0.48791 -0.42815,0.81541 -0.81586,1.00872 -0.332,0.16552 -0.65121,0.21722 -0.95502,0.15468 -0.56973,-0.11728 -1.08997,-0.41954 -1.794,-1.04233 -0.0933,-0.0825 -0.17417,-0.15008 -0.1797,-0.15008 -0.006,0 -0.023,0.11938 -0.0388,0.26529 -0.093,0.85649 -0.30184,1.75748 -0.63275,2.73037 -0.095,0.27942 -0.53645,1.50321 -0.62869,1.74303 -0.013,0.0339 -0.0237,0.0638 -0.0237,0.0665 0,0.003 0.0628,0.002 0.13952,-0.002 0.46088,-0.0242 1.40395,0.13638 2.23578,0.38068 1.82141,0.53493 3.16619,1.36798 3.68886,2.28515 0.0808,0.14183 0.16699,0.33823 0.18257,0.41616 l 0.01,0.0493 -0.33263,-0.002 c -0.18294,-0.001 -5.14443,-0.0411 -11.02554,-0.0886 z m 20.89609,-2.02504 c 0.86165,-0.10016 1.57472,-0.38067 2.05847,-0.80978 0.1337,-0.11859 0.2925,-0.29396 0.3768,-0.41611 l 0.0586,-0.0849 -0.19055,-0.25387 c -0.82797,-1.10307 -2.03852,-2.34033 -3.36455,-3.43878 -0.24636,-0.20407 -0.30754,-0.24649 -1.08547,-0.75252 -4.7226,-3.07197 -9.81728,-6.01208 -17.90045,-10.33025 -0.5926,-0.31658 -1.13186,-0.60528 -1.19835,-0.64157 -0.0665,-0.0363 -0.11482,-0.0557 -0.1074,-0.043 0.0214,0.0364 0.3255,0.46198 1.00213,1.40242 1.5703,2.18253 2.20625,3.11089 2.90763,4.24452 0.40696,0.65777 0.86058,1.45957 1.12449,1.98758 0.0639,0.12795 0.12177,0.23263 0.12849,0.23263 0.0118,0 0.34125,-0.22207 0.69912,-0.47125 0.095,-0.0661 0.1785,-0.11389 0.18556,-0.10611 0.007,0.008 0.62813,0.75137 1.38016,1.65243 1.08771,1.30325 1.37931,1.64328 1.4259,1.66275 0.039,0.0163 0.0935,0.0223 0.16314,0.0178 0.0993,-0.006 0.10807,-0.0104 0.17354,-0.0797 0.13758,-0.14562 0.18177,-0.38591 0.16637,-0.90471 -0.01,-0.32967 -0.0227,-0.46324 -0.11608,-1.19989 -0.0618,-0.48729 -0.30516,-2.71054 -0.29943,-2.73512 0.007,-0.0295 1.52969,1.82649 1.82221,2.22088 0.32804,0.44228 0.59658,0.82635 1.11859,1.59986 1.28255,1.90046 1.47171,2.17385 1.92585,2.78342 1.26332,1.69569 2.39579,2.78206 3.649,3.50045 0.96473,0.55302 2.02963,0.8822 3.14532,0.97228 0.3832,0.0309 0.4051,0.0307 0.75095,-0.01 z m -19.07678,-1.31226 c 0.36145,-0.0737 0.6541,-0.23215 0.94296,-0.51069 0.53972,-0.52043 0.93726,-1.35302 1.24514,-2.60776 0.0638,-0.2601 0.19866,-0.90078 0.19116,-0.90828 -0.002,-0.002 -0.0439,0.0451 -0.0931,0.10475 -0.14437,0.17494 -0.65656,0.69226 -0.93022,0.93953 -0.26912,0.24318 -0.91293,0.78609 -0.92038,0.77615 -0.002,-0.003 -0.0578,-0.24837 -0.12292,-0.54467 -0.22805,-1.03696 -0.43299,-1.78845 -0.63886,-2.34264 -0.055,-0.14815 -0.10396,-0.28222 -0.10873,-0.29794 -0.016,-0.0526 -0.0334,-0.0294 -0.0609,0.0816 -0.13242,0.53346 -0.46917,1.73891 -0.66241,2.37122 -0.24875,0.81392 -0.33726,1.23514 -0.35336,1.68148 -0.0177,0.49111 0.0768,0.80408 0.30907,1.02353 0.20067,0.18958 0.42601,0.2626 0.81731,0.26485 0.16552,9.5e-4 0.26861,-0.007 0.38527,-0.0312 z m 20.26562,-3.84066 c -0.0821,-0.0911 -0.68761,-0.81679 -1.0592,-1.26928 -0.5699,-0.69398 -1.20593,-1.48334 -2.48414,-3.08299 -2.06731,-2.58719 -3.14512,-3.90475 -6.55906,-8.01806 -2.8851,-3.47612 -4.19629,-5.07275 -5.68437,-6.92183 -0.31956,-0.39708 -0.39681,-0.48218 -0.66874,-0.73665 -2.08562,-1.95175 -4.35487,-3.3399 -7.51497,-4.59711 -0.49528,-0.19704 -0.5558,-0.22535 -0.65001,-0.30405 -0.25069,-0.20945 -0.42513,-0.55922 -0.53121,-1.06516 -0.0559,-0.26671 -0.0838,-0.48313 -0.14077,-1.09225 -0.0553,-0.5915 -0.0855,-0.82409 -0.13123,-1.01216 -0.0175,-0.0718 -0.0509,-0.2261 -0.0743,-0.34283 -0.16337,-0.81478 -0.3943,-1.34882 -0.73958,-1.71025 -0.32131,-0.33636 -0.71124,-0.51405 -1.26223,-0.57522 l -0.0929,-0.0103 -0.0102,0.0623 c -0.091,0.55682 -0.21423,0.94099 -0.45783,1.4272 -0.26956,0.53798 -0.56592,0.95195 -0.96913,1.35375 -0.12196,0.12151 -0.29316,0.27432 -0.38048,0.33957 -0.1593,0.11906 -0.4458,0.29606 -0.47975,0.29639 -0.0169,1.6e-4 -0.28387,-0.54837 -0.28387,-0.58318 0,-0.009 0.0312,-0.0297 0.0694,-0.0468 0.10325,-0.0462 0.30722,-0.20535 0.41766,-0.32587 0.52389,-0.57173 0.77531,-1.58431 0.60501,-2.43656 l -0.0173,-0.0867 -0.0925,0.0108 c -0.59245,0.0688 -2.29282,0.31087 -2.34536,0.3339 -0.0245,0.0107 -0.0119,0.0146 0.05,0.0154 0.16289,0.002 0.42557,0.0909 0.60079,0.20304 0.11047,0.0707 0.27207,0.22105 0.34651,0.32246 0.0536,0.0731 0.0582,0.0874 0.0485,0.15237 -0.0278,0.18555 -0.21317,0.32964 -0.53969,0.41959 -0.11284,0.0311 -0.17168,0.036 -0.43262,0.036 -0.26052,0 -0.31995,-0.005 -0.43261,-0.0359 -0.37423,-0.10277 -0.58874,-0.29376 -0.62181,-0.55365 -0.0107,-0.0842 -0.01,-0.087 0.0601,-0.16325 0.13998,-0.15285 0.32525,-0.27546 0.50127,-0.33174 0.0512,-0.0164 0.0857,-0.0301 0.0767,-0.0305 -0.0249,-0.001 -0.67851,0.0755 -1.03664,0.12151 -0.17509,0.0225 -0.86564,0.1179 -1.53456,0.212 -0.66892,0.0941 -1.34086,0.18785 -1.4932,0.20835 l -0.27698,0.0373 0.26066,0.0716 c 0.37905,0.10412 0.98713,0.31278 1.57482,0.5404 1.08537,0.42037 1.24376,0.47957 1.61619,0.60398 0.68691,0.22947 1.23117,0.35594 1.75494,0.40779 0.0988,0.01 0.2098,0.0214 0.24673,0.0259 l 0.0672,0.008 -0.006,0.10952 c -0.007,0.12623 -0.0931,1.8799 -0.12271,2.50932 -0.0264,0.56112 -0.0266,2.19326 -4.2e-4,2.59568 0.028,0.43003 0.0633,0.7968 0.11044,1.1463 0.3457,2.56496 1.41611,4.3353 3.35095,5.54214 0.25182,0.15708 0.5068,0.29817 0.5182,0.28677 0.004,-0.004 -0.0106,-0.0402 -0.0329,-0.0801 -0.0741,-0.1325 -0.23576,-0.50137 -0.31205,-0.71184 -0.22821,-0.62957 -0.32248,-1.15392 -0.32359,-1.79997 -7.4e-4,-0.42428 0.0199,-0.61556 0.10339,-0.95597 0.14074,-0.57422 0.43011,-1.14508 0.84359,-1.66421 0.30211,-0.3793 0.82559,-0.86009 1.29859,-1.19269 0.79083,-0.5561 1.85264,-1.04814 2.62567,-1.21673 0.20677,-0.0451 0.44968,-0.0527 0.47371,-0.0148 0.0234,0.0369 0.0209,0.0435 -0.0451,0.11651 -0.0837,0.0927 -0.22282,0.19613 -0.82047,0.61029 -0.81559,0.56521 -1.21776,0.87162 -1.64067,1.25007 -0.81169,0.72636 -1.26693,1.37912 -1.42496,2.04322 -0.0409,0.17186 -0.0436,0.2066 -0.0419,0.54277 0.007,1.41289 0.43255,2.63817 1.2908,3.71577 0.21317,0.26765 0.78545,0.84477 1.07398,1.08305 0.58366,0.48203 1.25281,0.93808 2.1141,1.44082 0.61899,0.36131 0.89587,0.51216 5.19953,2.83281 2.98731,1.61085 4.06409,2.19874 5.51787,3.01265 4.32086,2.41904 7.74172,4.57649 10.60314,6.68713 0.20202,0.14902 0.37043,0.27094 0.37424,0.27095 0.004,1e-5 -0.008,-0.0165 -0.0261,-0.0367 z m -18.80708,-1.45672 c 0.46518,-0.64841 0.5216,-0.94008 0.25584,-1.32263 -0.025,-0.0359 -0.1352,-0.22324 -0.24499,-0.41629 -2.32879,-4.09463 -4.74859,-7.60003 -7.11936,-10.31336 -0.14318,-0.16387 -0.26403,-0.29794 -0.26857,-0.29794 -0.0153,0 0.32083,0.60667 0.61063,1.10195 0.57598,0.98435 1.04269,1.71707 2.38647,3.7466 0.84827,1.28116 1.13917,1.72764 1.48908,2.28551 0.99208,1.58173 1.70844,2.94249 2.22435,4.22526 0.13028,0.32394 0.35932,0.95025 0.42643,1.1661 0.016,0.0516 0.0333,0.0937 0.0384,0.0934 0.005,-2.4e-4 0.0959,-0.12112 0.20168,-0.26863 z m -6.15207,-35.04302 c -4.36171,-0.15378 -9.26766,-1.43758 -14.69442,-3.84527 -0.50994,-0.22625 -1.1989,-0.54373 -1.80661,-0.8325 l -0.3402,-0.16166 0.32388,-0.15867 c 1.17513,-0.57569 2.73544,-1.2667 4.03783,-1.78824 4.2708,-1.71022 8.1244,-2.6641 11.72141,-2.90139 2.51802,-0.16611 5.13287,0.0588 7.99112,0.68744 3.34057,0.73469 7.16384,2.11816 10.95944,3.96574 l 0.39712,0.19331 -0.20121,0.0962 c -0.47942,0.22934 -1.06473,0.50258 -1.46642,0.68458 -6.37,2.88612 -11.98876,4.23434 -16.92194,4.06041 z m 1.99266,-1.89388 c 3.46557,-0.13547 7.20174,-0.97211 11.04392,-2.47307 0.53234,-0.20796 1.0321,-0.41244 1.04877,-0.42911 0.013,-0.013 -0.002,-0.0196 -0.70595,-0.30947 -2.31495,-0.95339 -4.58623,-1.65976 -6.7749,-2.107 -3.81887,-0.78036 -7.32681,-0.80098 -11.11738,-0.0653 -2.29232,0.44487 -4.84257,1.2269 -7.21029,2.21102 -0.24988,0.10387 -0.49322,0.20418 -0.54076,0.22292 -0.0527,0.0208 -0.0806,0.0399 -0.0714,0.0491 0.008,0.008 0.24919,0.10908 0.53537,0.22403 3.70161,1.48674 7.23031,2.36082 10.57658,2.6199 1.07096,0.0829 2.09083,0.101 3.21604,0.057 z m 26.49747,0.34146 c -0.006,-0.86508 -0.0165,-2.80338 -0.0241,-4.30733 l -0.0138,-2.73445 -0.0426,-0.19644 c -0.27304,-1.25942 -1.38029,-2.67502 -3.35891,-4.29431 -0.69315,-0.56728 -1.36863,-1.06487 -2.52613,-1.86089 -0.005,-0.003 3.05512,-20.45856 3.07579,-20.56322 0.008,-0.0401 0.0207,-0.0466 0.15048,-0.0771 0.80951,-0.19005 1.77433,-0.18683 2.55333,0.009 1.15455,0.28951 1.97171,0.97622 2.40381,2.02006 l 0.0576,0.13924 v 16.69957 16.69956 l -0.64891,0.0101 c -0.35692,0.006 -0.86658,0.0145 -1.13261,0.0198 l -0.48367,0.01 z m 0.75066,-21.47747 0.0429,-9.81569 -0.0454,-0.0897 c -0.18159,-0.35892 -0.65725,-0.65566 -1.23978,-0.77345 -0.35055,-0.0709 -0.77955,-0.0843 -0.90951,-0.0285 -0.0295,0.0127 -0.0811,0.0516 -0.11454,0.0865 l -0.0609,0.0634 -1.24155,8.65196 c -0.68286,4.75858 -1.24554,8.67429 -1.2504,8.70157 -0.009,0.049 -0.005,0.0518 0.29027,0.23164 2.20352,1.34106 3.74918,2.74712 4.37565,3.98049 l 0.0863,0.16998 0.012,-0.6813 c 0.007,-0.37471 0.0313,-5.09836 0.0549,-10.49699 z m -34.423,-0.31527 c -4.66274,-0.0787 -8.01385,-0.37108 -9.99094,-0.87169 -0.40144,-0.10165 -0.55223,-0.14942 -0.62805,-0.19895 -0.12633,-0.0826 -0.39217,-0.36641 -0.50538,-0.53965 -0.34479,-0.52761 -0.50664,-1.16616 -0.52712,-2.07964 -0.0238,-1.06255 0.15029,-1.92667 0.55723,-2.76538 0.15193,-0.31312 0.29451,-0.55308 0.4792,-0.80645 0.0694,-0.0952 0.13717,-0.1951 0.15066,-0.22203 0.14851,-0.29665 1.98228,-0.52951 5.33017,-0.67686 0.41302,-0.0182 0.84081,-0.0375 0.95064,-0.043 l 0.19969,-0.01 -0.079,-0.0923 c -0.24784,-0.28943 -0.42525,-0.6784 -0.50195,-1.10054 -0.0393,-0.21608 -0.0388,-0.65555 9.2e-4,-0.86092 0.0338,-0.17491 0.11941,-0.43391 0.18884,-0.57145 0.11862,-0.23498 0.46431,-0.67448 0.5468,-0.69519 0.0206,-0.005 0.15754,0.0131 0.30441,0.0405 0.68403,0.12778 1.30136,0.2176 1.71528,0.24957 0.37003,0.0286 1.20769,-0.014 2.00449,-0.10191 1.20787,-0.13326 2.53127,-0.38367 4.00781,-0.75836 0.26038,-0.0661 0.5726,-0.1388 0.69382,-0.1616 1.66531,-0.31332 3.38079,0.003 5.17554,0.95496 0.41246,0.21873 0.89881,0.51593 1.2826,0.78378 0.25798,0.18005 0.92482,0.50946 1.48822,0.73515 1.19448,0.47851 2.29337,0.72625 3.46486,0.78114 1.03088,0.0483 3.71611,-0.1285 6.46473,-0.42566 0.41752,-0.0451 0.79952,-0.0863 0.84891,-0.0914 0.0494,-0.005 0.10264,-0.0159 0.11835,-0.024 0.0272,-0.014 0.0286,0.19937 0.0286,4.36918 0,2.41112 -0.006,4.38385 -0.0126,4.38385 -0.007,0 -0.27323,-0.04 -0.59178,-0.0888 -2.0932,-0.32114 -3.85735,-0.53796 -5.12572,-0.62998 -0.40273,-0.0292 -1.12722,-0.038 -1.43661,-0.0175 -1.43155,0.0952 -4.46483,0.48585 -9.45221,1.21746 -1.50341,0.22054 -1.99852,0.26775 -3.33848,0.3183 -0.49144,0.0186 -2.69341,0.0181 -3.81191,-8e-4 z m 4.2935,-1.48151 c 2.07192,-0.16705 4.83549,-0.49042 8.74208,-1.02292 2.85856,-0.38965 4.0851,-0.47612 5.33013,-0.37579 0.88256,0.0711 2.21983,0.2537 3.52846,0.48173 0.20597,0.0359 0.38524,0.0653 0.39836,0.0653 0.0208,0 0.0238,-0.352 0.0238,-2.77527 v -2.77526 h -0.0485 c -0.0267,0 -0.20117,0.0146 -0.38772,0.0324 -1.54319,0.14734 -3.35056,0.22847 -5.09488,0.22871 -0.93023,1.6e-4 -1.15921,-0.0101 -1.68454,-0.0751 -1.78396,-0.22072 -3.59339,-0.87725 -5.57502,-2.02284 -0.95446,-0.55178 -1.83759,-0.85518 -2.87321,-0.98711 -0.97667,-0.12441 -2.01362,-0.0651 -3.13441,0.17933 -0.16162,0.0352 -0.44445,0.097 -0.62852,0.1373 -1.02857,0.22505 -2.12416,0.37636 -3.14082,0.43377 -0.39565,0.0223 -1.39602,0.0225 -1.7696,3e-4 -0.2546,-0.0151 -0.75753,-0.0609 -1.01399,-0.0923 l -0.0882,-0.0108 0.01,0.2352 c 0.0169,0.41635 0.11044,0.65372 0.35362,0.89784 0.25592,0.2569 0.57628,0.39154 1.11105,0.46696 0.28551,0.0403 1.2685,0.0401 1.74678,-3.7e-4 0.98355,-0.0832 2.14986,-0.25016 3.39036,-0.48549 1.268,-0.24055 1.69994,-0.28883 2.42953,-0.27157 0.84898,0.0201 1.48204,0.16206 2.10594,0.4723 0.38198,0.18995 0.685,0.41303 0.99599,0.73322 0.17709,0.18234 0.3998,0.45312 0.3998,0.4861 0,0.0153 -0.10067,0.0232 -0.84074,0.0662 -1.85512,0.10778 -7.55967,0.37653 -15.6231,0.73602 l -1.87738,0.0837 -0.0979,0.0586 c -0.64191,0.38408 -0.99547,1.08088 -1.145,2.25654 -0.0334,0.26291 -0.048,1.02443 -0.0237,1.24085 0.056,0.49918 0.21848,0.81767 0.48384,0.9483 0.28627,0.14094 1.45785,0.28053 3.68053,0.43854 2.03434,0.14462 2.98918,0.18679 5.19954,0.22964 1.35746,0.0263 1.33943,0.0262 3.06911,0.0235 1.491,-0.002 1.64969,-0.005 2.0488,-0.0374 z m -14.70087,-15.61164 c -0.4309,-0.2069 -0.88838,-0.42656 -1.01662,-0.48815 l -0.23315,-0.11197 0.23117,-0.46211 c 0.13973,-0.27932 0.83147,-1.80531 1.74871,-3.85773 1.39778,-3.12765 2.56851,-5.70564 2.59105,-5.7056 0.005,1e-5 0.483,0.91095 1.06198,2.02431 0.57898,1.11336 1.05649,2.02427 1.06113,2.02424 0.005,0 0.24235,-0.44998 0.52824,-0.99991 0.51477,-0.9902 1.57662,-2.96703 1.59374,-2.96703 0.005,0 0.19118,0.36548 0.414,0.81217 0.43321,0.86849 1.61293,3.15408 1.62823,3.15455 0.0162,4.9e-4 1.07382,-2.04891 1.56655,-3.03562 l 0.47662,-0.95445 0.0251,0.0484 c 0.0138,0.0266 0.26164,0.48551 0.55074,1.01975 0.2891,0.53423 0.7483,1.4011 1.02044,1.92635 0.27215,0.52526 0.50366,0.96474 0.51447,0.97663 0.0157,0.0172 0.11616,-0.16352 0.49895,-0.89788 0.2636,-0.50572 0.72202,-1.40209 1.01871,-1.99193 l 0.53944,-1.07244 1.05398,1.94583 c 0.57968,1.07021 1.06032,1.94475 1.06808,1.94341 0.0327,-0.006 0.98626,-1.79473 1.49277,-2.80092 l 0.54831,-1.08921 0.50064,0.99942 c 0.38836,0.7753 0.62463,1.2204 1.05356,1.98479 0.30412,0.54195 0.55934,0.9864 0.56716,0.98767 0.0211,0.003 0.64203,-1.1925 1.38645,-2.67006 l 0.6555,-1.30105 0.40494,0.8113 c 0.4557,0.91298 1.62403,3.17058 1.64036,3.1697 0.006,-3.3e-4 0.25306,-0.4343 0.54936,-0.9644 0.40991,-0.73335 0.66218,-1.21041 1.05501,-1.99511 l 0.51628,-1.03129 0.48502,0.97129 c 0.37618,0.75333 0.61357,1.20116 1.05791,1.99569 0.31509,0.56341 0.57709,1.02427 0.58223,1.02412 0.0154,-4.6e-4 1.19305,-2.28182 1.62837,-3.15455 0.22282,-0.44669 0.40887,-0.81217 0.41344,-0.81217 0.005,0 0.19796,0.38017 0.42975,0.84482 0.43901,0.88006 1.59621,3.12195 1.61153,3.12209 0.005,0 0.2705,-0.46824 0.59037,-1.04064 0.53285,-0.95355 0.61758,-1.11627 1.01151,-1.94266 0.23647,-0.49606 0.43462,-0.90194 0.44033,-0.90196 0.0212,0 1.12111,1.96898 1.64805,2.95033 0.3,0.5587 0.54999,1.01601 0.55553,1.01623 0.021,8.5e-4 1.28613,-2.21518 1.73611,-3.04094 0.25833,-0.47407 0.4716,-0.85975 0.47393,-0.85707 0.0352,0.0406 1.33536,2.35212 2.92226,5.19532 1.27439,2.28328 2.08059,3.74552 2.23,4.04466 0.12872,0.25769 0.2306,0.47137 0.22641,0.47485 -0.0176,0.0146 -1.91941,1.03857 -1.93755,1.0432 -0.033,0.008 -0.5257,-0.85698 -2.02074,-3.54908 -0.78116,-1.40661 -1.42473,-2.55244 -1.43017,-2.54628 -0.005,0.006 -0.26675,0.50706 -0.58069,1.11313 -0.49285,0.95145 -0.64169,1.22178 -1.08985,1.97942 -0.28547,0.48261 -0.52371,0.87731 -0.52941,0.87712 -0.012,-4e-4 -0.59011,-1.05946 -1.48355,-2.71775 -0.34346,-0.63748 -0.63001,-1.16088 -0.63678,-1.16311 -0.007,-0.002 -0.2463,0.44588 -0.5323,0.99581 -0.51159,0.98371 -1.57698,2.96703 -1.5938,2.96703 -0.005,0 -0.20928,-0.40221 -0.45454,-0.8938 -0.48011,-0.9623 -1.57015,-3.0732 -1.58695,-3.0732 -0.006,0 -0.23247,0.42792 -0.50408,0.95094 -0.48469,0.93332 -1.60151,3.01538 -1.61769,3.01583 -0.005,1.6e-4 -0.21285,-0.40933 -0.46292,-0.9099 -0.40063,-0.80191 -1.54827,-3.03048 -1.57558,-3.0596 -0.013,-0.0139 -1.13219,2.14491 -1.65079,3.1842 -0.21677,0.43441 -0.39992,0.78336 -0.40699,0.77544 -0.0344,-0.0385 -1.16582,-2.15255 -1.60956,-3.00745 -0.31223,-0.60153 -0.50726,-0.96044 -0.51452,-0.94685 -0.25522,0.47776 -0.99711,1.92106 -1.44338,2.80802 l -0.58866,1.16995 -0.55786,-1.03119 c -0.30682,-0.56715 -0.78311,-1.46462 -1.05842,-1.99437 -0.2753,-0.52975 -0.50212,-0.96478 -0.50404,-0.96674 -0.009,-0.009 -0.93039,1.77838 -1.45512,2.82355 l -0.58811,1.17138 -1.02757,-1.89773 c -0.56517,-1.04376 -1.04328,-1.92564 -1.06248,-1.95974 l -0.0349,-0.062 -0.51492,0.95172 c -0.28321,0.52345 -0.73974,1.40168 -1.01451,1.95164 -0.27477,0.54995 -0.50324,0.99991 -0.5077,0.99991 -0.004,0 -0.2144,-0.41323 -0.46655,-0.91829 -0.35011,-0.7013 -0.5999,-1.17162 -1.05707,-1.99037 -0.32925,-0.58965 -0.60324,-1.06716 -0.60886,-1.06113 -0.0274,0.0294 -1.17545,2.25877 -1.57558,3.05966 -0.25008,0.50057 -0.45843,0.91013 -0.46299,0.91013 -0.005,0 -0.21634,-0.41691 -0.4706,-0.92645 -0.4993,-1.00061 -1.55218,-3.04055 -1.56932,-3.04055 -0.006,0 -0.26843,0.46098 -0.58365,1.0244 -0.44359,0.79285 -0.6814,1.24119 -1.05209,1.9835 -0.26342,0.5275 -0.48268,0.9591 -0.48724,0.9591 -0.005,0 -0.22004,-0.42425 -0.47885,-0.94278 -0.37364,-0.7486 -0.58199,-1.1403 -1.01162,-1.90187 -0.29759,-0.5275 -0.54541,-0.9591 -0.55072,-0.9591 -0.005,0 -0.4715,1.04869 -1.03598,2.33041 -0.89724,2.03733 -1.54312,3.48049 -1.57417,3.51737 -0.005,0.006 -0.3623,-0.15771 -0.79321,-0.3646 z m 19.1168,-15.06058 c -5.88111,-0.0466 -10.98286,-0.0853 -11.33724,-0.0859 l -0.64431,-0.001 0.1464,-0.13337 c 0.22771,-0.20746 0.50156,-0.48679 0.98157,-1.00122 0.85578,-0.91712 1.21513,-1.23442 1.62818,-1.43762 0.24872,-0.12236 0.36321,-0.14522 0.66223,-0.13223 0.13056,0.006 0.36227,0.0189 0.51491,0.0294 0.3695,0.0254 1.79002,0.0258 2.21205,6.2e-4 0.96631,-0.0577 1.6759,-0.12927 2.47324,-0.24954 0.3952,-0.0596 0.39496,-0.0595 0.40462,-0.0935 0.004,-0.0149 0.0605,-0.19615 0.125,-0.40267 0.62016,-1.98567 1.75889,-6.54974 2.04179,-8.18351 l 0.0178,-0.1026 -0.11774,-0.19941 c -0.46153,-0.78165 -0.90824,-1.48227 -2.05798,-3.22772 -1.41638,-2.15023 -1.99557,-3.07627 -2.65116,-4.2388 -0.43896,-0.77837 -0.94878,-1.77079 -1.23995,-2.41366 -0.12292,-0.27141 -0.10305,-0.24724 -0.44944,-0.54661 -0.3009,-0.26006 -0.85804,-0.80738 -1.12198,-1.10223 -1.42301,-1.58958 -2.26734,-3.33432 -2.50055,-5.16717 -0.0993,-0.78059 -0.0859,-1.26194 0.0889,-3.1831 0.0924,-1.01589 0.13868,-1.69112 0.13888,-2.0266 l 8e-5,-0.14106 -0.13469,-0.0356 c -0.48859,-0.12928 -1.09061,-0.32812 -2.02839,-0.66994 -1.2771,-0.4655 -1.89604,-0.65109 -2.55487,-0.76605 -1.00786,-0.17587 -2.01846,-0.10818 -3.01133,0.20169 -0.0715,0.0223 -0.13193,0.0386 -0.13434,0.0362 -0.009,-0.009 0.32937,-0.76532 0.48674,-1.08797 0.25997,-0.533 0.46247,-0.83984 0.74727,-1.13226 0.47618,-0.48894 0.93562,-0.70987 1.76928,-0.85082 0.39945,-0.0675 0.73791,-0.0924 1.6851,-0.12365 1.17348,-0.0387 1.77802,-0.1448 2.40434,-0.42176 0.12601,-0.0557 0.16676,-0.0652 0.3546,-0.0823 0.11672,-0.0106 0.58321,-0.0629 1.03664,-0.11616 0.93797,-0.11016 1.31935,-0.15101 1.73862,-0.18624 1.5807,-0.13282 2.75128,-0.0424 3.7911,0.29278 0.27514,0.0887 0.41542,0.17531 0.64671,0.39932 0.27475,0.2661 0.48262,0.56603 0.69644,1.00486 0.1489,0.30562 0.21854,0.47711 0.33597,0.8274 0.16435,0.49026 0.25004,0.87703 0.37368,1.68667 0.099,0.64797 0.1632,1.0165 0.22095,1.26738 0.0545,0.23682 0.15745,0.56837 0.18516,0.59637 0.0103,0.0105 0.1584,0.0757 0.32899,0.1449 1.32923,0.53945 2.67265,1.19178 3.73845,1.81528 1.53146,0.89593 2.85275,1.88637 4.09196,3.06734 0.36346,0.34638 1.1171,1.18834 2.29228,2.56094 1.72776,2.01801 3.18655,3.82884 6.87156,8.52986 2.98731,3.81095 4.50304,5.68587 6.20282,7.67278 0.90672,1.05988 1.93861,2.22171 2.63887,2.97116 0.54514,0.58344 0.98714,1.21598 1.19156,1.70522 0.22736,0.54412 0.198,0.96454 -0.0842,1.20611 -0.16031,0.13722 -0.43811,0.2376 -0.75678,0.27346 l -0.1645,0.0185 -0.0551,0.17158 c -0.0711,0.22151 -0.24954,0.57483 -0.38955,0.77131 -0.13173,0.18486 -0.46618,0.52698 -0.65183,0.66677 -0.7744,0.58314 -1.7799,0.94195 -2.9652,1.05813 -0.27556,0.027 -0.301,0.027 -0.54603,-6.7e-4 -1.26997,-0.14327 -2.49176,-0.49832 -3.57915,-1.0401 -1.67189,-0.83301 -3.16546,-2.14794 -4.59402,-4.04456 -0.53986,-0.71675 -1.32797,-1.89438 -1.7736,-2.65022 -0.0302,-0.0513 -0.0574,-0.0907 -0.0605,-0.0876 -0.003,0.003 -0.0235,0.094 -0.0454,0.2021 -0.10385,0.51184 -0.28262,0.87086 -0.5675,1.13973 -0.0756,0.0714 -0.1928,0.16077 -0.2631,0.20075 -0.276,0.15695 -0.66897,0.24864 -0.91553,0.21363 -0.59324,-0.0842 -1.13611,-0.38188 -1.87709,-1.02912 l -0.22826,-0.19938 -0.0269,0.251 c -0.0587,0.54681 -0.15338,1.06424 -0.29982,1.63864 -0.15816,0.62038 -0.29792,1.0432 -0.78239,2.36714 l -0.20311,0.55505 0.31302,0.0106 c 0.99605,0.0337 2.45278,0.41829 3.60252,0.95115 0.96699,0.44816 1.70754,1.02114 2.0926,1.61911 0.0982,0.1525 0.2546,0.50525 0.23956,0.54032 -0.003,0.007 -4.81765,-0.0245 -10.69876,-0.0711 z m 20.19422,-2.02173 c 0.9783,-0.11371 1.70508,-0.41465 2.20527,-0.91316 0.0996,-0.0992 0.21596,-0.23007 0.2586,-0.29071 l 0.0775,-0.11027 -0.0611,-0.0856 c -0.78009,-1.09338 -2.17844,-2.53272 -3.56886,-3.6735 -0.22663,-0.18594 -1.42491,-0.97043 -2.88553,-1.8891 -3.39887,-2.13776 -7.07808,-4.27364 -11.85318,-6.8811 -1.33623,-0.72965 -5.0465,-2.72492 -5.40318,-2.90566 l -0.085,-0.0431 0.0537,0.0786 c 0.0295,0.0432 0.27029,0.37977 0.53499,0.7479 0.99204,1.37969 1.30869,1.82183 1.55501,2.17124 0.99397,1.40997 1.70771,2.508 2.28683,3.51805 0.19671,0.3431 0.31234,0.55598 0.6454,1.18828 l 0.0971,0.18428 0.16983,-0.11234 c 0.0934,-0.0618 0.28633,-0.1943 0.42872,-0.29448 0.14239,-0.10017 0.26405,-0.18213 0.27035,-0.18213 0.006,0 0.63347,0.74465 1.39371,1.65478 1.33939,1.60347 1.38454,1.65543 1.45603,1.67544 0.45045,0.12612 0.58163,-0.45175 0.40701,-1.79283 -0.06,-0.46104 -0.35075,-3.07583 -0.34576,-3.10984 0.005,-0.0324 1.42458,1.68115 1.72902,2.08669 0.39268,0.52308 0.77701,1.07539 1.57331,2.26102 1.39421,2.07583 2.01558,2.9068 2.85811,3.8222 1.50271,1.63267 3.13463,2.56301 4.97763,2.83767 0.54136,0.0807 0.88685,0.097 1.22448,0.0577 z m -18.93719,-1.33796 c 1.05411,-0.27807 1.76912,-1.45177 2.21794,-3.64074 0.0405,-0.19737 0.0717,-0.36079 0.0693,-0.36314 -0.002,-0.002 -0.0588,0.0598 -0.12544,0.13823 -0.18546,0.21811 -0.53238,0.56963 -0.83619,0.84725 -0.2846,0.26008 -0.94863,0.82215 -0.97129,0.82215 -0.007,0 -0.0555,-0.19284 -0.10747,-0.42853 -0.28782,-1.30471 -0.52541,-2.14683 -0.7703,-2.73037 l -0.0274,-0.0653 -0.16976,0.63668 c -0.18922,0.70965 -0.36886,1.34493 -0.51282,1.81358 -0.28964,0.94292 -0.36689,1.32878 -0.36574,1.82691 5.7e-4,0.24618 0.006,0.31696 0.0363,0.43631 0.10546,0.42139 0.35655,0.65779 0.78515,0.7392 0.19823,0.0377 0.57141,0.0222 0.77769,-0.0322 z m 20.17507,-3.81879 c -0.0165,-0.0215 -0.23223,-0.28041 -0.4795,-0.57546 -0.76412,-0.91179 -1.22823,-1.4842 -3.03597,-3.74433 -2.21882,-2.77408 -3.03858,-3.77632 -6.56953,-8.03193 -2.96404,-3.57235 -4.45224,-5.38477 -5.71713,-6.96265 -0.33099,-0.4129 -0.477,-0.56419 -1.00997,-1.04652 -0.71425,-0.64637 -1.54957,-1.28996 -2.40795,-1.85523 -1.36191,-0.89687 -3.06968,-1.75727 -4.93271,-2.48518 -0.16751,-0.0654 -0.34532,-0.14604 -0.39514,-0.17911 -0.3104,-0.20604 -0.52072,-0.62337 -0.62978,-1.24968 -0.0463,-0.26612 -0.0755,-0.51208 -0.12376,-1.0448 -0.0462,-0.50904 -0.0743,-0.72317 -0.12128,-0.92237 -0.0169,-0.0718 -0.0535,-0.24153 -0.0812,-0.37712 -0.27813,-1.35982 -0.77983,-2.01014 -1.70382,-2.20855 -0.0827,-0.0178 -0.20309,-0.0374 -0.26757,-0.0436 l -0.11725,-0.0113 -0.0101,0.0632 c -0.0867,0.54404 -0.23968,1.00683 -0.49521,1.49828 -0.41997,0.8077 -1.0206,1.47964 -1.63905,1.83368 -0.0827,0.0473 -0.1547,0.0861 -0.16004,0.0861 -0.01,0 -0.27738,-0.56456 -0.27702,-0.58474 1.6e-4,-0.006 0.0439,-0.0351 0.0974,-0.0645 0.64987,-0.35695 1.0767,-1.30064 1.03914,-2.29742 -0.01,-0.2577 -0.0399,-0.50028 -0.0653,-0.52576 -0.0179,-0.0179 -1.27567,0.15001 -2.39371,0.31959 -0.0707,0.0107 -0.0672,0.0122 0.094,0.0389 0.28978,0.048 0.55193,0.18456 0.74817,0.38981 0.13018,0.13616 0.16997,0.19067 0.16985,0.23271 -6.6e-4,0.25344 -0.31486,0.45286 -0.79182,0.50258 -0.47832,0.0499 -0.95237,-0.0902 -1.13677,-0.33578 -0.0577,-0.0769 -0.11195,-0.22365 -0.11195,-0.30307 0,-0.11541 0.31919,-0.36462 0.57954,-0.45247 0.0652,-0.022 0.0652,-0.022 -0.0408,-0.013 -0.29332,0.0249 -1.33322,0.15906 -2.21205,0.28545 -0.54034,0.0777 -1.97136,0.27619 -2.00752,0.27844 -0.009,5.7e-4 0.0886,0.03 0.21747,0.0653 0.47586,0.13048 1.08404,0.34365 1.9533,0.68463 1.5303,0.60027 2.2589,0.80756 3.11784,0.88701 l 0.21197,0.0196 -0.005,0.13031 c -0.003,0.0717 -0.0261,0.56742 -0.0525,1.10165 -0.0754,1.52956 -0.0811,1.68018 -0.0919,2.42428 -0.0213,1.47064 0.0684,2.58289 0.29004,3.59599 0.43806,2.00278 1.40686,3.46843 2.98563,4.51684 0.30414,0.20197 0.71341,0.44368 0.72747,0.42962 0.004,-0.004 -0.0507,-0.12808 -0.12191,-0.27537 -0.5819,-1.20343 -0.71292,-2.51769 -0.35705,-3.58163 0.37776,-1.1294 1.3143,-2.16145 2.67389,-2.94656 0.41182,-0.23782 0.95405,-0.48836 1.40374,-0.64861 0.4712,-0.16791 0.98172,-0.26171 1.06803,-0.19622 0.0309,0.0235 0.0309,0.0246 -6.9e-4,0.0791 -0.0469,0.081 -0.23278,0.2237 -0.82457,0.63329 -1.09582,0.75845 -1.69872,1.24667 -2.17917,1.76466 -0.6136,0.66155 -0.92341,1.26891 -0.96306,1.88803 -0.0119,0.18555 0.0148,0.69368 0.0514,0.97781 0.14903,1.15803 0.57248,2.13235 1.32061,3.03856 0.20266,0.24549 0.70571,0.74336 0.98873,0.97856 0.58812,0.48874 1.27171,0.95437 2.17124,1.47896 0.54166,0.31589 0.94287,0.53419 5.28932,2.87792 4.43724,2.3927 6.28166,3.41981 8.55434,4.76369 2.79735,1.65414 5.47767,3.41017 7.47688,4.89852 0.17509,0.13035 0.32079,0.23743 0.32378,0.23796 0.003,5.2e-4 -0.008,-0.0166 -0.0245,-0.038 z m -18.83293,-1.42563 c 0.28673,-0.39476 0.3782,-0.56207 0.42234,-0.77247 0.043,-0.20495 0.008,-0.35911 -0.12808,-0.56489 -0.0408,-0.0616 -0.16401,-0.26997 -0.27389,-0.46302 -2.33411,-4.10058 -4.74644,-7.5923 -7.11645,-10.30067 -0.31395,-0.35877 -0.28376,-0.32652 -0.26028,-0.27798 0.10469,0.21643 0.65585,1.17465 1.01935,1.77219 0.47972,0.78859 0.78319,1.2572 2.3077,3.56352 1.08015,1.6341 1.62302,2.50646 2.16197,3.47417 0.70436,1.26473 1.28962,2.57804 1.6445,3.6902 0.0206,0.0646 0.0424,0.11446 0.0485,0.11073 0.006,-0.004 0.0845,-0.10802 0.17439,-0.23178 z"
       id="path1334" />
  </g>
</svg>
