<?xml version="1.0" encoding="UTF-8" standalone="no"?>
<!-- Created with Inkscape (http://www.inkscape.org/) -->

<svg
   width="1080"
   height="1920"
   viewBox="0 0 285.75001 508"
   version="1.1"
   id="svg5"
   inkscape:export-filename="/Users/albertotomasoni/ALBERTO.png"
   inkscape:export-xdpi="96"
   inkscape:export-ydpi="96"
   inkscape:version="1.1.1 (c3084ef, 2021-09-22)"
   sodipodi:docname="Brigida.svg"
   xmlns:inkscape="http://www.inkscape.org/namespaces/inkscape"
   xmlns:sodipodi="http://sodipodi.sourceforge.net/DTD/sodipodi-0.dtd"
   xmlns="http://www.w3.org/2000/svg"
   xmlns:svg="http://www.w3.org/2000/svg">
  <sodipodi:namedview
     id="namedview7"
     pagecolor="#ffffff"
     bordercolor="#666666"
     borderopacity="1.0"
     inkscape:pageshadow="2"
     inkscape:pageopacity="0.0"
     inkscape:pagecheckerboard="0"
     inkscape:document-units="px"
     showgrid="false"
     units="px"
     inkscape:zoom="0.28885168"
     inkscape:cx="908.7709"
     inkscape:cy="910.50189"
     inkscape:window-width="1440"
     inkscape:window-height="758"
     inkscape:window-x="0"
     inkscape:window-y="25"
     inkscape:window-maximized="0"
     inkscape:current-layer="g2878" />
  <defs
     id="defs2" />
  <g
     inkscape:label="ALBERTO"
     inkscape:groupmode="layer"
     id="g2878">
    <g
       aria-label="brigida"
       transform="matrix(2.7839642,0,0,2.7839642,-1008.2442,-810.36416)"
       id="text2874"
       style="font-weight:500;font-size:19.0077px;line-height:1.25;font-family:'Helvetica Neue';-inkscape-font-specification:'Helvetica Neue Medium';text-align:center;text-anchor:middle;white-space:pre;inline-size:858.441;stroke-width:1.51181;stroke-linecap:round;paint-order:markers fill stroke;stop-color:#000000">
      <path
         d="m 394.49527,323.54794 q 1.36856,0 2.18589,-0.7413 0.4942,-0.43717 0.72229,-1.06443 0.2471,-0.57023 0.2471,-1.38756 v -1.21649 q 0,-1.65367 -1.04542,-2.39497 0.7603,-0.70329 0.7603,-2.05284 v -1.2355 q 0,-0.79832 -0.2471,-1.40657 -0.22809,-0.62725 -0.72229,-1.06443 -0.83634,-0.7413 -2.18588,-0.7413 h -2.87017 v 13.30539 z m -1.06443,-5.58826 h 1.06443 q 0.53222,0 0.77932,0.22809 0.28511,0.26611 0.28511,0.95039 v 1.21649 q 0,0.64626 -0.2661,0.89336 -0.2281,0.20909 -0.79833,0.20909 h -1.06443 z m 0,-5.62628 h 0.77932 q 0.57023,0 0.79832,0.20908 0.26611,0.26611 0.26611,0.91237 v 1.2355 q 0,0.66527 -0.28512,0.95039 -0.2471,0.22809 -0.77931,0.22809 h -0.77932 z"
         style="font-weight:normal;font-family:Bison;-inkscape-font-specification:Bison"
         id="path1039" />
      <path
         d="m 405.16691,323.54794 h -2.12886 l -1.08344,-5.34116 h -0.95039 v 5.34116 h -2.09085 v -13.30539 h 3.15528 q 1.34955,0 2.2049,0.79833 0.95038,0.87435 0.95038,2.471 v 1.42558 q 0,1.61565 -0.95038,2.49 -0.13306,0.13306 -0.30413,0.2471 z m -2.03383,-10.03606 q 0,-0.66527 -0.28511,-0.95039 -0.2471,-0.22809 -0.77932,-0.22809 h -1.06443 v 3.78253 h 1.06443 q 0.53222,0 0.77932,-0.22809 0.28511,-0.26611 0.28511,-0.95038 z"
         style="font-weight:normal;font-family:Bison;-inkscape-font-specification:Bison"
         id="path1041" />
      <path
         d="m 408.54048,310.24255 h -2.09085 v 13.30539 h 2.09085 z"
         style="font-weight:normal;font-family:Bison;-inkscape-font-specification:Bison"
         id="path1043" />
      <path
         d="m 413.03491,323.7 q 1.36855,0 2.20489,-0.77931 0.95039,-0.91237 0.95039,-2.49001 v -4.58086 h -3.13627 v 2.09085 h 1.04542 v 2.49001 q 0,0.70329 -0.26611,0.95039 -0.2471,0.22809 -0.79832,0.22809 -0.53222,0 -0.77932,-0.22809 -0.28511,-0.26611 -0.28511,-0.95039 v -7.07086 q 0,-0.68428 0.28511,-0.95039 0.2471,-0.22809 0.77932,-0.22809 0.55122,0 0.79832,0.22809 0.26611,0.2471 0.26611,0.95039 v 1.17847 h 2.09085 v -1.17847 q 0,-1.57764 -0.95039,-2.49001 -0.83634,-0.77932 -2.20489,-0.77932 -1.33054,0 -2.2049,0.77932 -0.95038,0.95038 -0.95038,2.49001 v 7.07086 q 0,1.53962 0.95038,2.49001 0.87436,0.77931 2.2049,0.77931 z"
         style="font-weight:normal;font-family:Bison;-inkscape-font-specification:Bison"
         id="path1045" />
      <path
         d="m 419.64068,310.24255 h -2.09085 v 13.30539 h 2.09085 z"
         style="font-weight:normal;font-family:Bison;-inkscape-font-specification:Bison"
         id="path1047" />
      <path
         d="m 424.30618,323.54794 q 1.36855,0 2.18588,-0.7413 0.4752,-0.41817 0.7413,-1.06443 0.2281,-0.60824 0.2281,-1.38756 v -6.84277 q 0,-1.59665 -0.95039,-2.471 -0.85535,-0.79833 -2.20489,-0.79833 h -3.15528 v 13.30539 z m -1.06443,-11.21454 h 1.06443 q 0.53221,0 0.77931,0.22809 0.28512,0.28512 0.28512,0.95039 v 6.84277 q 0,0.66527 -0.26611,0.89336 -0.22809,0.20909 -0.79832,0.20909 h -1.06443 z"
         style="font-weight:normal;font-family:Bison;-inkscape-font-specification:Bison"
         id="path1049" />
      <path
         d="m 433.11506,321.43809 h -2.39497 l -0.38016,2.10985 h -2.12886 l 2.66108,-13.30539 h 2.09085 l 2.66107,13.30539 h -2.12886 z m -0.36115,-2.09085 -0.83634,-4.77093 -0.83634,4.77093 z"
         style="font-weight:normal;font-family:Bison;-inkscape-font-specification:Bison"
         id="path1051" />
    </g>
    <path
       style="fill=currentColor;stroke-width:0.0163251"
       d="m 112.57566,414.48586 v -1.08562 l 11.65202,-0.002 c 11.52482,-0.002 11.65007,-0.002 11.47245,-0.033 -1.03135,-0.17913 -1.46367,-0.26231 -2.16307,-0.41612 -7.38108,-1.6234 -13.31571,-5.01201 -16.92276,-9.6627 -0.58953,-0.76011 -1.15706,-1.61762 -1.63139,-2.46496 -0.17999,-0.32154 -0.53255,-1.02337 -0.68887,-1.3713 -0.96808,-2.1548 -1.51184,-4.38173 -1.67019,-6.84021 -0.0104,-0.16162 -0.0255,-0.2963 -0.0336,-0.29929 -0.0195,-0.007 -0.0195,-254.4943 -4e-5,-254.4943 0.008,0 0.0194,-0.0679 0.0253,-0.15101 0.0953,-1.34139 0.25225,-2.36665 0.53278,-3.48132 0.94754,-3.76505 3.04601,-7.04208 6.25242,-9.76392 4.4323,-3.76249 10.87446,-6.28349 18.22571,-7.13222 0.32018,-0.037 10.17685,-0.037 10.49702,0 5.49808,0.63478 10.54357,2.21735 14.58646,4.5752 2.81154,1.63973 5.10286,3.62437 6.81767,5.90519 1.59143,2.11671 2.67364,4.4837 3.22071,7.04426 0.1938,0.90714 0.30749,1.74717 0.38607,2.85281 0.006,0.0831 0.0173,0.15101 0.0253,0.15101 0.0195,0 0.0195,254.48704 0,254.4943 -0.008,0.003 -0.0231,0.13767 -0.0336,0.29929 -0.17664,2.74237 -0.84056,5.23077 -2.01667,7.55851 -1.29492,2.56291 -3.16736,4.82497 -5.61609,6.78475 -3.4518,2.76256 -7.99927,4.82486 -13.16617,5.97094 -0.76191,0.169 -1.32362,0.27732 -2.36714,0.45649 -0.0568,0.01 4.19319,0.0161 11.56223,0.0174 l 11.65203,0.002 v 1.08562 1.08562 H 142.87504 112.5757 v -1.08562 z m 32.01347,-2.7337 c 1.24172,-0.0564 2.21654,-0.13236 3.26502,-0.25431 6.672,-0.77598 12.49854,-3.06085 16.61449,-6.51537 3.096,-2.59846 5.1445,-5.80236 6.02707,-9.42641 0.24596,-1.00998 0.38062,-1.88156 0.47027,-3.04376 0.0277,-0.35909 0.029,-5.91831 0.029,-127.40904 0,-102.52167 -0.004,-127.08869 -0.0207,-127.31925 -0.10151,-1.39909 -0.316,-2.57779 -0.69183,-3.8019 -0.61505,-2.00328 -1.66092,-3.91554 -3.05905,-5.59318 -0.68242,-0.81886 -1.59664,-1.73375 -2.43192,-2.43375 -1.65022,-1.38294 -3.61809,-2.6012 -5.78201,-3.57951 -3.34341,-1.51155 -7.17198,-2.51653 -11.29401,-2.96462 -2.50209,-0.272 -5.20562,-0.32867 -7.7789,-0.16306 -7.38749,0.47543 -14.0157,2.74468 -18.53387,6.34528 -1.06017,0.84487 -2.06087,1.81763 -2.87595,2.79566 -1.39813,1.67764 -2.44399,3.5899 -3.05904,5.59318 -0.37583,1.22411 -0.59032,2.40281 -0.69184,3.8019 -0.0167,0.23056 -0.0207,24.79758 -0.0207,127.31925 0,121.49073 0.001,127.04995 0.029,127.40904 0.0896,1.1622 0.22431,2.03378 0.47027,3.04376 1.02579,4.21218 3.6229,7.84582 7.60044,10.63378 4.20351,2.94638 9.81814,4.83989 16.05328,5.41395 0.88937,0.0819 1.81343,0.1352 2.95484,0.17048 0.3424,0.0106 2.36839,-0.006 2.72628,-0.0221 z m -5.98314,-19.5347 c -5.8811,-0.0476 -10.79473,-0.087 -10.91915,-0.0876 l -0.22624,-0.001 0.0875,-0.0769 c 0.19898,-0.17496 0.48929,-0.46979 1.01737,-1.0332 0.7065,-0.75379 0.98573,-1.02133 1.30664,-1.25198 0.26444,-0.19008 0.55845,-0.32033 0.77001,-0.34113 0.0524,-0.005 0.26418,0.003 0.4707,0.0173 0.80666,0.0572 2.11127,0.05 3.0283,-0.0167 0.66483,-0.0483 1.4789,-0.1407 2.04725,-0.23226 l 0.27599,-0.0444 0.031,-0.0898 c 0.49925,-1.44703 1.81787,-6.6522 2.12651,-8.3943 l 0.0425,-0.23991 -0.21808,-0.36412 c -0.4654,-0.77702 -0.83822,-1.36043 -1.88092,-2.94346 -1.44022,-2.18653 -1.98954,-3.05994 -2.62573,-4.17491 -0.45244,-0.79292 -0.99292,-1.83505 -1.32465,-2.5541 l -0.14452,-0.31328 -0.1156,-0.0947 c -0.36347,-0.29783 -0.9503,-0.86018 -1.28837,-1.2346 -1.45825,-1.61499 -2.31956,-3.39313 -2.54779,-5.2598 -0.092,-0.75262 -0.0765,-1.23431 0.10427,-3.23237 0.0787,-0.86951 0.11048,-1.3149 0.12478,-1.74678 l 0.0108,-0.3265 -0.15337,-0.0388 c -0.41192,-0.10412 -1.01649,-0.30343 -1.97361,-0.65063 -0.83376,-0.30247 -1.2897,-0.45696 -1.67244,-0.56669 -1.40098,-0.40165 -2.59707,-0.41151 -3.86738,-0.0319 -0.10635,0.0318 -0.19588,0.0553 -0.19896,0.0522 -0.0109,-0.011 0.44852,-1.02872 0.56774,-1.25763 0.388,-0.745 0.78062,-1.17396 1.3673,-1.49381 0.30196,-0.16464 0.87557,-0.30979 1.46109,-0.36973 0.25818,-0.0264 0.65535,-0.0474 1.43661,-0.0759 0.81719,-0.0298 1.26507,-0.0889 1.75236,-0.23128 0.17816,-0.0521 0.44732,-0.15267 0.55387,-0.20703 0.045,-0.0229 0.13691,-0.04 0.31523,-0.0584 0.13846,-0.0143 0.62274,-0.0695 1.07617,-0.1227 1.04067,-0.12211 1.21026,-0.14025 1.68148,-0.17987 1.36851,-0.11507 2.4248,-0.0637 3.34294,0.1627 0.36053,0.0889 0.64577,0.18594 0.7738,0.26329 0.55975,0.33821 1.06926,1.148 1.40691,2.23608 0.14727,0.47458 0.20484,0.74609 0.32854,1.54964 0.15375,0.99873 0.24112,1.42887 0.35304,1.73818 l 0.0479,0.13248 0.25679,0.10404 c 2.86087,1.15895 5.10252,2.47391 7.03986,4.12962 0.67527,0.57711 1.11925,1.01442 1.73321,1.70723 1.71089,1.9306 3.30937,3.85286 5.53001,6.65018 0.57626,0.72591 1.10859,1.4025 2.65415,3.37341 4.2673,5.4417 6.34267,7.94893 8.70132,10.51188 0.6207,0.67447 0.81034,0.90604 1.08621,1.3264 0.37887,0.5773 0.55477,1.07412 0.50558,1.42798 -0.0544,0.39159 -0.38625,0.63655 -0.94916,0.70069 -0.093,0.0106 -0.17726,0.0215 -0.18718,0.0241 -0.01,0.003 -0.0382,0.0698 -0.0629,0.14912 -0.34986,1.12574 -1.44273,1.97783 -3.02351,2.35735 -0.56213,0.13496 -1.1677,0.20268 -1.49333,0.16698 -1.82444,-0.20002 -3.47498,-0.80971 -4.93609,-1.82337 -1.7054,-1.18311 -3.23834,-2.95653 -4.90834,-5.67831 -0.10868,-0.17712 -0.20396,-0.3181 -0.21175,-0.3133 -0.008,0.005 -0.0142,0.0234 -0.0142,0.0414 0,0.0713 -0.0717,0.37244 -0.12559,0.52765 -0.23116,0.66563 -0.64897,1.04042 -1.29241,1.15935 -0.17179,0.0317 -0.26636,0.0317 -0.45122,-3.3e-4 -0.5414,-0.0937 -1.08629,-0.40692 -1.81208,-1.04169 -0.0988,-0.0864 -0.18331,-0.15708 -0.18786,-0.15711 -0.005,0 -0.0216,0.12301 -0.0378,0.2734 -0.0629,0.58269 -0.20241,1.28705 -0.37762,1.90595 -0.1536,0.54258 -0.26619,0.8729 -0.73419,2.15401 -0.0949,0.2599 -0.17262,0.47421 -0.17262,0.47625 0,0.002 0.0533,-3.2e-4 0.11835,-0.005 0.14469,-0.0109 0.53869,0.0179 0.8223,0.0602 1.47952,0.22053 3.07667,0.81725 4.07701,1.52321 0.45878,0.32378 0.85044,0.7282 1.04888,1.08302 0.072,0.12876 0.18473,0.39291 0.18546,0.43461 6.2e-4,0.0351 1.50554,0.0432 -11.53317,-0.0622 z m 21.092,-2.0256 c 0.6619,-0.0814 1.24793,-0.26831 1.67282,-0.53355 0.31716,-0.19796 0.60541,-0.47067 0.77506,-0.73326 l 0.0289,-0.0447 -0.18819,-0.24914 c -0.84871,-1.12355 -2.00044,-2.30123 -3.36197,-3.4377 -0.18199,-0.1519 -0.40134,-0.30578 -0.89788,-0.62992 -4.84531,-3.16291 -10.20568,-6.25565 -18.4922,-10.66933 -0.40854,-0.2176 -0.78208,-0.41745 -0.83011,-0.44409 -0.048,-0.0266 -0.0816,-0.0388 -0.0747,-0.027 0.0255,0.0434 0.17773,0.25671 0.93002,1.30297 0.42287,0.58811 0.91205,1.27132 1.08707,1.51823 1.36532,1.92625 2.27508,3.37174 2.95718,4.69857 0.12513,0.24341 0.18556,0.34536 0.20115,0.33937 0.0306,-0.0117 0.27263,-0.17473 0.59252,-0.399 l 0.26758,-0.18763 0.0296,0.0395 c 0.0163,0.0217 0.63437,0.76305 1.37349,1.64746 1.04429,1.24959 1.35786,1.61491 1.40673,1.63893 0.0904,0.0444 0.22235,0.0414 0.29252,-0.007 0.17386,-0.11914 0.2345,-0.38511 0.21764,-0.95474 -0.01,-0.32967 -0.0227,-0.46317 -0.11604,-1.19989 -0.0614,-0.48477 -0.30518,-2.71057 -0.29943,-2.7344 0.005,-0.0214 1.48741,1.77148 1.70919,2.06731 0.40282,0.53732 0.78916,1.09281 1.65041,2.37306 0.83032,1.23427 1.11265,1.63865 1.57288,2.25286 1.22049,1.62883 2.3734,2.72461 3.60224,3.42369 0.99388,0.56544 2.10939,0.89725 3.27318,0.97363 0.23283,0.0153 0.32734,0.0116 0.62035,-0.0245 z m -19.15747,-1.29799 c 0.0673,-0.01 0.18752,-0.0388 0.26706,-0.0648 0.99069,-0.32364 1.68366,-1.5124 2.10692,-3.61437 0.0325,-0.16146 0.0622,-0.30825 0.066,-0.32621 0.004,-0.0182 -0.0449,0.0253 -0.10984,0.0979 -0.20802,0.2327 -0.66686,0.692 -0.92621,0.92712 -0.22751,0.20627 -0.86709,0.74829 -0.89491,0.75841 -0.006,0.002 -0.0584,-0.2108 -0.11612,-0.47342 -0.209,-0.95045 -0.38576,-1.62548 -0.56108,-2.14264 -0.11932,-0.35197 -0.21136,-0.59586 -0.22488,-0.59586 -0.006,0 -0.0234,0.0496 -0.0385,0.11019 -0.14002,0.56305 -0.44287,1.64972 -0.65403,2.34673 -0.26384,0.87094 -0.34553,1.25621 -0.36171,1.70597 -0.0177,0.49124 0.0759,0.79926 0.31326,1.03173 0.22886,0.22411 0.63777,0.31036 1.13405,0.23919 z m 20.31366,-3.87206 c -0.84806,-1.00161 -1.63543,-1.96799 -3.32783,-4.08437 -2.33729,-2.92284 -3.21557,-3.99726 -6.72542,-8.22744 -3.05301,-3.67958 -4.15878,-5.02542 -5.5329,-6.7341 -0.45795,-0.56945 -0.55037,-0.67514 -0.79055,-0.90405 -2.06134,-1.96457 -4.43466,-3.41548 -7.69594,-4.70485 -0.37409,-0.14791 -0.43838,-0.17972 -0.54708,-0.2708 -0.30518,-0.25572 -0.49121,-0.73074 -0.59064,-1.50824 -0.0183,-0.14319 -0.0519,-0.46605 -0.0747,-0.71746 -0.048,-0.53087 -0.0759,-0.73725 -0.12993,-0.96318 -0.0215,-0.0898 -0.0441,-0.19263 -0.0502,-0.22855 -0.006,-0.0359 -0.0325,-0.1608 -0.0586,-0.27752 -0.22323,-0.99923 -0.59164,-1.57807 -1.19754,-1.88155 -0.21255,-0.10647 -0.44238,-0.16826 -0.76986,-0.207 l -0.0842,-0.01 -0.0106,0.0698 c -0.006,0.0383 -0.0257,0.14687 -0.044,0.24115 -0.20468,1.04987 -0.90869,2.20619 -1.73413,2.84824 -0.14823,0.1153 -0.47228,0.31883 -0.50762,0.31883 -0.0192,0 -0.28593,-0.54507 -0.28593,-0.58421 0,-0.0109 0.009,-0.0198 0.0204,-0.0198 0.0112,0 0.0756,-0.0354 0.14313,-0.0786 0.47919,-0.30703 0.82109,-0.91109 0.94878,-1.67631 0.0316,-0.1896 0.0276,-0.79199 -0.007,-0.96896 -0.0145,-0.075 -0.0295,-0.13954 -0.0334,-0.14344 -0.0187,-0.0187 -2.44872,0.32018 -2.47353,0.34498 -0.005,0.005 0.0264,0.008 0.0687,0.008 0.17885,0 0.47046,0.10208 0.65769,0.23021 0.10617,0.0727 0.23991,0.20033 0.31026,0.29616 0.0519,0.0707 0.0567,0.0859 0.0472,0.14952 -0.0293,0.19541 -0.22716,0.3438 -0.57247,0.42936 -0.0871,0.0216 -0.18423,0.0283 -0.40813,0.0284 -0.25538,0 -0.31202,-0.005 -0.43261,-0.0374 -0.36608,-0.0989 -0.58363,-0.29658 -0.61361,-0.55766 l -0.0103,-0.09 0.12917,-0.12223 c 0.1462,-0.13835 0.2615,-0.21208 0.42377,-0.27093 0.0928,-0.0337 0.1007,-0.0391 0.0465,-0.0321 -0.0359,0.005 -0.13876,0.0164 -0.22855,0.0261 -0.40018,0.043 -1.40012,0.17534 -2.51406,0.33262 -0.66443,0.0938 -1.27986,0.17979 -1.36762,0.19102 -0.0878,0.0113 -0.15387,0.0254 -0.14692,0.0313 0.007,0.006 0.0934,0.0314 0.19221,0.0564 0.4135,0.1049 0.98128,0.30355 1.98349,0.69394 1.17283,0.45686 1.72077,0.63657 2.31686,0.75987 0.22985,0.0475 0.55828,0.0987 0.72777,0.11344 0.0628,0.005 0.14815,0.0138 0.18955,0.0186 l 0.0753,0.009 -0.006,0.10899 c -0.006,0.0956 -0.0538,1.08134 -0.10361,2.11695 -0.10459,2.17341 -0.0369,3.66824 0.22255,4.91385 0.42792,2.05454 1.40331,3.55668 3.00182,4.62287 0.26815,0.17885 0.74279,0.45855 0.74279,0.43772 0,-0.005 -0.0321,-0.0728 -0.0714,-0.15115 -0.30025,-0.5991 -0.48576,-1.19822 -0.57488,-1.85665 -0.0399,-0.29467 -0.0409,-0.90683 -0.002,-1.16819 0.18695,-1.2538 0.93879,-2.34298 2.25188,-3.26228 0.53205,-0.3725 1.2086,-0.72682 1.83981,-0.96355 0.68351,-0.25635 1.2387,-0.35008 1.24158,-0.20962 4.5e-4,0.0225 -0.11754,0.14288 -0.2183,0.22273 -0.0549,0.0435 -0.3312,0.23919 -0.61403,0.43488 -1.08228,0.74885 -1.50037,1.08097 -2.0327,1.61468 -0.6178,0.61939 -0.94542,1.13761 -1.082,1.71149 -0.0408,0.17145 -0.0435,0.2064 -0.0418,0.5424 0.006,1.28361 0.36898,2.44507 1.06887,3.4228 0.71647,1.00089 1.73576,1.84052 3.45082,2.84258 0.53556,0.31291 1.28685,0.72182 5.32701,2.89929 4.11102,2.21567 6.032,3.28271 8.17044,4.53839 2.96755,1.74253 5.56965,3.43866 7.81449,5.09373 0.18382,0.13553 0.33679,0.24641 0.33993,0.24641 0.003,0 -0.015,-0.0245 -0.0404,-0.0544 z m -18.80955,-1.41133 c 0.33349,-0.4614 0.42599,-0.65676 0.42677,-0.90138 5.3e-4,-0.16049 -0.0339,-0.2683 -0.13411,-0.42014 -0.0342,-0.0517 -0.20376,-0.3402 -0.37688,-0.64099 -2.34229,-4.06953 -4.48036,-7.17531 -6.79928,-9.87667 -0.18113,-0.211 -0.36411,-0.42037 -0.40663,-0.46526 l -0.0773,-0.0816 0.0773,0.14693 c 0.14013,0.26641 0.49269,0.88417 0.75274,1.31897 0.52504,0.87788 0.90993,1.47836 2.09493,3.26838 0.88399,1.33532 1.10811,1.67847 1.46555,2.24396 1.06257,1.68104 1.78956,3.05184 2.33211,4.3974 0.1375,0.34102 0.37117,0.98233 0.42191,1.15794 0.0149,0.0516 0.0321,0.0936 0.0382,0.0933 0.006,-3.3e-4 0.0892,-0.10868 0.18471,-0.24079 z m -5.98535,-35.06458 c -5.51173,-0.0483 -10.03896,-0.33561 -12.96211,-0.82261 -1.16792,-0.19457 -2.43359,-0.49804 -2.62218,-0.62872 -0.128,-0.0887 -0.33648,-0.28156 -0.45727,-0.423 -0.48902,-0.57269 -0.77271,-1.31775 -0.89824,-2.35904 -0.0498,-0.4132 -0.0543,-1.43783 -0.008,-1.86922 0.0713,-0.66752 0.18983,-1.21753 0.3874,-1.7978 0.23335,-0.68539 0.6085,-1.39607 1.03102,-1.95318 0.0529,-0.0697 0.10616,-0.15055 0.11837,-0.17958 0.0122,-0.029 0.043,-0.0722 0.0684,-0.0959 0.36641,-0.34214 2.41862,-0.61467 6.06202,-0.80504 0.89393,-0.0467 1.75926,-0.0854 2.22837,-0.0996 0.17958,-0.005 0.33599,-0.0129 0.34759,-0.0165 0.0133,-0.004 -0.0173,-0.0532 -0.0831,-0.13336 -0.35957,-0.43761 -0.57672,-0.92643 -0.67575,-1.52112 -0.0362,-0.21756 -0.041,-0.84226 -0.008,-1.02991 0.083,-0.47057 0.25151,-0.87661 0.51986,-1.25277 0.12833,-0.17991 0.41769,-0.50548 0.4707,-0.52964 0.0293,-0.0133 0.13878,10e-4 0.49224,0.0663 0.84023,0.1542 1.51935,0.25651 2.08712,0.3144 0.23562,0.024 0.86105,0.0233 1.30764,-0.002 2.0824,-0.11602 4.14413,-0.45219 6.71613,-1.0951 0.4265,-0.1066 0.84156,-0.20841 0.92237,-0.22623 1.00258,-0.22105 2.1647,-0.25613 3.26502,-0.0986 1.13205,0.16211 2.36828,0.56626 3.56614,1.16581 0.64292,0.3218 1.1752,0.63454 1.86734,1.09718 0.51068,0.34134 0.65377,0.42273 1.18633,0.67479 1.64545,0.77881 3.25192,1.25749 4.79141,1.42773 0.4648,0.0514 0.6,0.0594 1.15908,0.0686 1.74305,0.0287 5.08839,-0.20697 8.8642,-0.62451 0.63209,-0.0699 0.82244,-0.0961 0.84482,-0.11637 0.0276,-0.025 0.0289,0.23107 0.0289,5.8782 v 5.90436 l -0.0367,-0.009 c -0.0608,-0.0142 -1.37447,-0.21213 -2.15899,-0.32524 -2.60421,-0.37546 -4.52493,-0.5902 -5.94079,-0.66417 -0.45354,-0.0237 -1.46553,-0.0102 -1.87076,0.0249 -2.27361,0.197 -6.48996,0.75002 -12.63561,1.65732 -1.3371,0.19739 -1.61838,0.23028 -2.51406,0.29398 -1.47249,0.1047 -2.7,0.12806 -5.46074,0.10385 z m 3.28134,-1.94822 c 2.15647,-0.0767 6.38942,-0.54824 13.10904,-1.46039 2.28878,-0.31068 3.17777,-0.40751 4.60367,-0.50143 0.48602,-0.032 1.76355,-0.0272 2.21205,0.008 1.06251,0.0841 2.23946,0.23126 3.68946,0.46128 0.51869,0.0823 1.65685,0.27375 1.7427,0.29318 l 0.0367,0.008 v -3.73875 -3.73875 h -0.0394 c -0.0217,0 -0.22553,0.018 -0.45302,0.04 -1.10489,0.10691 -2.49705,0.1999 -3.7929,0.25335 -1.091,0.045 -1.68917,0.0562 -3.03646,0.0569 -1.59062,8.2e-4 -1.65868,-0.002 -2.42427,-0.0983 -2.34791,-0.29535 -4.87851,-1.21657 -7.42791,-2.70403 -1.39436,-0.81353 -2.68105,-1.22713 -4.31798,-1.38798 -0.28954,-0.0284 -1.57031,-0.0282 -1.87739,4.9e-4 -0.44137,0.0411 -0.80343,0.0873 -1.1754,0.1501 -0.37538,0.0634 -0.54738,0.0987 -1.29785,0.26696 -2.80335,0.62838 -5.40485,0.81687 -7.80127,0.56522 -0.17392,-0.0183 -0.36125,-0.0395 -0.41629,-0.0471 -0.055,-0.008 -0.10557,-0.0107 -0.11231,-0.007 -0.0184,0.0109 -0.0147,0.40976 0.005,0.55274 0.13152,0.94554 0.79661,1.46013 2.06891,1.60069 0.32135,0.0355 1.11048,0.0478 1.5868,0.0247 1.5197,-0.0737 3.30558,-0.32121 5.8307,-0.80811 1.39615,-0.26918 2.62731,-0.32431 3.68682,-0.16506 1.52135,0.22866 2.73449,0.92927 3.57308,2.06347 0.0556,0.0753 0.099,0.13904 0.0963,0.14174 -0.008,0.008 -0.97049,0.0681 -1.80014,0.11302 -3.00139,0.16264 -9.71515,0.47723 -19.82116,0.92876 l -3.03898,0.13579 -0.0791,0.0458 c -0.3207,0.18564 -0.63983,0.47344 -0.84174,0.75906 -0.45506,0.64373 -0.72996,1.65585 -0.79814,2.93852 -0.0736,1.38479 0.18133,2.15571 0.77985,2.3582 0.61863,0.20931 3.21397,0.45828 7.31912,0.70214 1.55044,0.0921 5.22681,0.18004 8.08907,0.19349 0.39507,0.002 0.93135,0.005 1.19173,0.007 0.26039,0.002 0.67913,-0.004 0.93053,-0.0126 z m 5.56936,-20.40071 c -0.006,-0.75263 -0.0146,-2.83033 -0.0196,-4.61711 -0.005,-1.97095 -0.0154,-3.31611 -0.0253,-3.4201 -0.0868,-0.90949 -0.64955,-1.95298 -1.66837,-3.0936 -0.22291,-0.24956 -0.80539,-0.83371 -1.09718,-1.10031 -0.93002,-0.84977 -2.01768,-1.69549 -3.43463,-2.67064 l -0.33187,-0.22838 0.01,-0.0818 c 0.0404,-0.33445 3.38855,-22.60799 3.40016,-22.6196 0.0235,-0.0235 0.45593,-0.11033 0.74549,-0.14965 0.22613,-0.0307 0.34121,-0.0359 0.8027,-0.0364 0.5799,-6.5e-4 0.75787,0.0144 1.18357,0.10019 1.37765,0.27749 2.3699,1.059 2.86991,2.2604 l 0.0644,0.15465 0.007,18.40882 0.007,18.40881 -0.0581,0.008 c -0.0319,0.005 -0.56129,0.0126 -1.17634,0.0177 -0.61505,0.005 -1.15205,0.0134 -1.19334,0.0182 l -0.0751,0.009 z m 0.82285,-23.72755 0.0509,-11.12749 -0.0361,-0.0715 c -0.1745,-0.34609 -0.52027,-0.61018 -1.02041,-0.77937 -0.33443,-0.11314 -0.65743,-0.16554 -1.02034,-0.16554 -0.28254,0 -0.35588,0.0201 -0.45959,0.12596 l -0.0765,0.0781 -1.37228,9.56029 c -0.75475,5.25815 -1.37227,9.57417 -1.37227,9.59115 0,0.0213 0.0417,0.0556 0.13468,0.11081 0.46184,0.27417 1.15503,0.72376 1.59578,1.03504 1.67923,1.18596 2.85444,2.38149 3.41593,3.47501 l 0.10212,0.19889 0.004,-0.45193 c 0.002,-0.24857 0.0265,-5.4593 0.0545,-11.57941 z m 14.16521,-18.6581 c -0.20472,-0.0512 -0.45709,-0.26418 -0.57012,-0.4811 -0.0697,-0.13379 -0.0865,-0.1891 -0.24811,-0.81626 -0.0671,-0.26038 -0.2554,-0.95828 -0.41847,-1.55088 -0.76006,-2.7621 -0.96201,-3.77006 -1.08102,-5.39544 -0.0284,-0.38731 -0.0283,-2.233 1.7e-4,-2.71812 0.0572,-0.97677 0.0946,-1.43053 0.29004,-3.51806 0.18061,-1.92902 0.2007,-2.26537 0.17302,-2.89722 -0.0665,-1.51766 -0.35766,-2.95899 -0.96479,-4.77556 -0.18781,-0.56193 -0.25884,-0.74509 -0.39173,-1.01021 -0.73348,-1.46319 -2.21213,-2.8366 -4.03879,-3.75134 -1.16626,-0.58403 -2.39454,-0.97571 -3.80356,-1.2129 -1.8718,-0.31508 -3.6152,-0.30593 -7.66745,0.0402 -3.04637,0.26024 -3.99618,0.3216 -5.41583,0.34987 -1.14926,0.0229 -2.55096,-0.0226 -2.98303,-0.0969 -1.12108,-0.19263 -2.12489,-1.02513 -2.70118,-2.2402 -0.25348,-0.53446 -0.32003,-0.8229 -0.30611,-1.32673 0.0149,-0.54105 0.0755,-0.77984 0.54684,-2.15821 0.25285,-0.73936 0.32003,-1.05896 0.31069,-1.47816 -0.006,-0.27944 -0.0154,-0.30662 -0.12376,-0.36656 -0.0917,-0.0507 -0.21216,-0.0702 -0.43356,-0.0701 -0.32838,2.3e-4 -0.68959,0.0524 -1.3501,0.19522 -0.4453,0.0962 -0.57323,0.11486 -0.78886,0.11473 -0.55993,-3.3e-4 -1.14047,-0.21174 -1.81528,-0.66107 -0.49222,-0.32775 -0.75954,-0.56221 -0.98649,-0.86523 -0.2642,-0.35275 -0.38014,-0.63658 -0.38013,-0.93053 1e-5,-0.34801 0.1605,-0.58367 0.55066,-0.80857 0.97735,-0.56336 2.32131,-0.94948 3.31399,-0.95209 0.2507,-6.5e-4 0.3617,0.0161 0.58208,0.0882 0.25197,0.0823 0.45957,0.19447 1.02594,0.55413 0.50779,0.32246 0.70031,0.41311 1.15908,0.54576 0.13917,0.0402 0.34854,0.1055 0.46527,0.14502 0.89794,0.30401 1.47208,0.7196 1.72436,1.24817 0.23556,0.49355 0.23768,1.29436 0.006,2.19955 -0.0874,0.34116 -0.19546,0.66773 -0.45605,1.37815 -0.19011,0.51826 -0.41707,1.1893 -0.41707,1.23312 0,0.0141 0.0865,0.0282 0.28977,0.0473 0.84357,0.0793 1.47986,0.10772 2.67323,0.11947 1.39283,0.0137 2.36386,-0.011 5.54237,-0.1413 3.11877,-0.12781 4.26428,-0.15614 5.7301,-0.14171 1.25976,0.0124 2.07361,0.0467 2.99565,0.12641 3.77528,0.32622 6.13328,1.26671 7.9586,3.1743 1.08634,1.1353 1.9157,2.64933 2.43221,4.44011 0.54936,1.90468 0.76727,4.15669 0.65241,6.74226 -0.0755,1.69844 -0.15641,2.51453 -0.42515,4.28533 -0.29395,1.93696 -0.37409,2.57601 -0.43097,3.43643 -0.0943,1.42644 -0.0248,2.55204 0.31804,5.15056 0.21442,1.62519 0.29058,2.33164 0.35103,3.25592 0.0449,0.68652 0.0301,0.8867 -0.0824,1.11535 -0.0731,0.14862 -0.18542,0.2625 -0.32802,0.3327 -0.0978,0.0481 -0.12601,0.0543 -0.26577,0.0576 -0.086,0.002 -0.18389,-0.003 -0.21753,-0.0115 z m -0.64879,-13.04325 c 0.40755,-2.6704 0.5329,-3.65322 0.61945,-4.85671 0.0772,-1.07414 0.0744,-2.17294 -0.008,-3.06911 -0.17148,-1.86443 -0.69203,-3.51242 -1.59853,-5.06078 -0.18481,-0.31564 -0.56231,-0.8839 -0.78084,-1.1754 -0.56702,-0.75634 -1.15427,-1.32187 -1.86454,-1.79558 -0.34726,-0.2316 -0.55688,-0.35145 -0.93022,-0.53187 -1.32199,-0.63883 -2.95539,-0.9931 -5.22433,-1.13309 -0.80804,-0.0499 -1.16304,-0.0598 -2.46509,-0.0688 -1.62374,-0.0113 -2.54911,0.005 -6.19536,0.10902 -3.49475,0.0997 -6.84869,0.16252 -7.57484,0.14186 -0.53215,-0.0151 -0.87678,-0.0768 -1.15092,-0.2059 -0.34648,-0.16318 -0.53349,-0.3993 -0.6167,-0.77865 -0.0306,-0.13954 -0.0353,-0.21231 -0.0355,-0.5447 -1.7e-4,-0.33052 0.005,-0.41076 0.0368,-0.57954 0.0814,-0.43109 0.1986,-0.81109 0.476,-1.54271 0.29748,-0.78459 0.41642,-1.14496 0.48086,-1.45691 0.0678,-0.3281 -0.005,-0.58576 -0.23219,-0.81743 -0.22529,-0.23016 -0.52781,-0.37229 -1.19031,-0.55926 -0.50503,-0.14252 -0.65559,-0.21191 -1.31723,-0.60709 -0.43634,-0.26062 -0.68553,-0.38889 -0.91571,-0.47135 -0.11976,-0.0429 -0.1482,-0.0467 -0.34282,-0.0452 -0.34119,0.003 -0.95752,0.11464 -1.34662,0.24475 -0.42857,0.1433 -0.64362,0.30849 -0.64284,0.4938 4.5e-4,0.10616 0.0488,0.18967 0.18302,0.31632 0.28113,0.2652 0.63524,0.43404 1.03476,0.49336 0.19778,0.0294 0.62285,0.0334 0.9186,0.009 0.10775,-0.009 0.38691,-0.0308 0.62036,-0.0485 0.23344,-0.0177 0.53401,-0.0433 0.66791,-0.0569 0.96088,-0.0977 1.45922,-0.006 1.7689,0.32491 0.33215,0.35507 0.41971,1.09284 0.22298,1.87883 -0.0668,0.26696 -0.14707,0.51068 -0.34133,1.03664 -0.27918,0.75591 -0.37375,1.06817 -0.44247,1.4611 -0.0426,0.24355 -0.0394,0.61693 0.007,0.85435 0.17413,0.88507 0.73944,1.62582 1.4343,1.87941 0.52048,0.18995 1.74441,0.22296 3.93073,0.10602 0.57658,-0.0308 0.94494,-0.0539 2.46509,-0.15441 2.99237,-0.19783 4.10795,-0.25692 5.54236,-0.2936 2.11933,-0.0542 3.88839,0.0406 5.03769,0.26981 0.62313,0.1243 1.86815,0.47152 2.63509,0.73489 1.07117,0.36784 2.02475,0.81973 2.7667,1.3111 0.47424,0.31408 0.80292,0.58202 1.19289,0.97246 0.36637,0.36681 0.60711,0.66253 0.95778,1.1765 0.85501,1.25316 1.46998,2.62413 1.84172,4.10575 0.36392,1.4505 0.50925,2.90713 0.47154,4.72611 -0.0207,0.99903 -0.0688,1.71872 -0.21981,3.28771 -0.13446,1.39729 -0.16298,1.76953 -0.11082,1.44657 0.013,-0.0808 0.11847,-0.76769 0.23426,-1.5264 z M 128.19876,246.6217 c -0.0763,-0.007 -0.25834,-0.0206 -0.40449,-0.0293 -0.28997,-0.0173 -0.38274,-0.0434 -0.3923,-0.11047 -0.0125,-0.0877 0.28405,-0.26668 0.59273,-0.35772 0.14912,-0.044 0.36442,-0.0684 0.43858,-0.0498 0.048,0.012 0.34658,0.2293 0.44855,0.32635 0.12191,0.11602 0.1237,0.18433 0.006,0.21967 -0.0723,0.0217 -0.47107,0.0224 -0.6888,0.001 z m 16.71025,-8.08133 c -0.006,-0.85637 -0.017,-2.98589 -0.0247,-4.73227 -0.0139,-3.13291 -0.0146,-3.17755 -0.0485,-3.34969 -0.16861,-0.85579 -0.6647,-1.73727 -1.55298,-2.75945 -0.24871,-0.2862 -0.95007,-0.99117 -1.28119,-1.28779 -0.96035,-0.86026 -1.95143,-1.62456 -3.4201,-2.63749 -0.1302,-0.0898 -0.23887,-0.17437 -0.2415,-0.18794 -0.004,-0.0208 3.35903,-22.51416 3.38557,-22.64379 0.0105,-0.0511 0.0292,-0.0579 0.33204,-0.11857 1.24151,-0.24897 2.55034,-0.11418 3.52418,0.36293 0.81622,0.39989 1.44818,1.08549 1.77962,1.93065 l 0.048,0.12244 0.007,18.40848 0.007,18.40847 -0.76005,0.0104 c -0.41803,0.006 -0.98137,0.0149 -1.25188,0.0205 l -0.49183,0.0102 z m 0.82385,-23.54303 0.0509,-11.12982 -0.0526,-0.0937 c -0.2788,-0.49653 -0.91289,-0.82131 -1.76238,-0.90269 -0.2482,-0.0238 -0.50589,-0.0133 -0.59586,0.0243 -0.0656,0.0274 -0.16107,0.10782 -0.18915,0.15933 -0.0137,0.0252 -2.75753,19.09263 -2.75753,19.16278 0,0.0212 0.0551,0.0633 0.18366,0.1403 0.82956,0.49688 1.69339,1.08664 2.36162,1.61234 0.83173,0.65434 1.5953,1.40551 2.07637,2.04267 0.22881,0.30305 0.45279,0.66103 0.57502,0.91905 l 0.0518,0.10943 0.004,-0.4571 c 0.002,-0.25141 0.0265,-5.46552 0.0545,-11.58692 z m -3.55984,-18.63236 c -2.80229,-0.08 -5.38416,-0.41964 -8.31762,-1.09409 -4.32603,-0.99462 -9.18734,-2.75158 -14.06405,-5.08297 -0.24692,-0.11804 -0.50588,-0.24091 -0.57546,-0.27304 -0.0696,-0.0321 -0.12652,-0.0636 -0.12652,-0.0699 0,-0.0196 1.19402,-0.59142 2.13858,-1.02412 7.23942,-3.31637 13.75643,-5.14516 19.59009,-5.49733 1.33092,-0.0804 2.76008,-0.0804 4.12208,-1.6e-4 5.41381,0.31915 11.47746,1.93467 18.0682,4.81385 1.06025,0.46318 2.21202,0.99427 3.20218,1.47657 l 0.47224,0.23001 -0.29266,0.14072 c -6.25528,3.00765 -12.01003,4.95552 -17.23809,5.83478 -1.67482,0.28167 -3.24559,0.45007 -4.87303,0.52245 -0.38362,0.0171 -1.78138,0.0324 -2.10594,0.0232 z m 1.59986,-2.53699 c 4.40296,-0.12103 8.81856,-0.98398 13.59063,-2.65603 1.14279,-0.40041 3.31311,-1.24704 3.27801,-1.27873 -0.0219,-0.0197 -0.99391,-0.42411 -1.58088,-0.65764 -4.80532,-1.91177 -9.41239,-3.01526 -13.81034,-3.30787 -0.91213,-0.0607 -1.32538,-0.0734 -2.3753,-0.0734 -1.04685,0 -1.43532,0.0121 -2.35897,0.0734 -4.43819,0.29439 -9.1263,1.42983 -14.04773,3.4023 -0.68397,0.27414 -1.37673,0.5638 -1.36809,0.57204 0.0292,0.0278 1.58683,0.64266 2.27453,0.89781 5.79213,2.14899 11.31021,3.16797 16.39814,3.0281 z m 6.60349,-14.93649 c -0.44791,-0.0797 -0.70177,-0.18053 -1.93452,-0.76874 -0.48121,-0.22961 -0.802,-0.325 -1.29268,-0.38438 -0.26261,-0.0318 -0.91805,-0.0359 -1.27852,-0.008 -0.50907,0.0394 -1.25589,0.11687 -1.66515,0.17276 -0.23345,0.0319 -0.97543,0.12774 -1.64884,0.21303 -1.80832,0.22903 -2.41148,0.31447 -3.45275,0.48907 -1.03911,0.17424 -1.42431,0.20993 -2.27735,0.21097 -0.66896,8.2e-4 -0.8278,-0.009 -1.3458,-0.0824 -0.80674,-0.11451 -1.51522,-0.3308 -2.2043,-0.67293 -0.36147,-0.17947 -0.49527,-0.31202 -0.58851,-0.58302 -0.14434,-0.41955 -0.008,-1.01035 0.31296,-1.35378 0.12481,-0.13364 0.17881,-0.16136 0.43803,-0.22486 0.10805,-0.0265 0.19336,-0.0342 0.38381,-0.035 0.3132,-10e-4 0.46485,0.024 1.11827,0.18563 0.54225,0.13415 0.73642,0.17218 0.96317,0.18861 0.1228,0.009 0.17585,0.002 0.46092,-0.0572 0.83156,-0.17365 1.58702,-0.39566 2.30618,-0.67773 0.65609,-0.25734 1.34497,-0.60169 1.89727,-0.94839 0.23302,-0.14629 1.62333,-1.20106 4.05322,-3.07504 1.31648,-1.01529 3.119,-2.40173 3.408,-2.62132 l 0.21485,-0.16325 -0.009,-0.35916 c -0.005,-0.19753 -0.11063,-6.59982 -0.23532,-14.2273 -0.1247,-7.62748 -0.23111,-13.9563 -0.23648,-14.06405 -0.0113,-0.22806 0.0104,-0.46555 0.056,-0.61208 0.0614,-0.19724 0.21206,-0.3564 0.3931,-0.41525 0.10265,-0.0334 0.68288,-0.0549 1.99166,-0.074 0.59709,-0.009 1.29604,-0.0204 1.55323,-0.026 l 0.46762,-0.0102 0.0175,0.0545 c 0.0418,0.13004 0.0742,0.60296 0.1011,1.47475 0.028,0.90832 0.0372,4.94711 0.0173,7.59932 -0.0244,3.2522 -0.035,4.26805 -0.12417,11.86017 -0.0706,6.01205 -0.0762,6.57204 -0.079,7.90134 -0.003,1.52166 -0.027,1.08999 0.22633,4.10573 0.0313,0.37261 0.0641,0.80604 0.0728,0.96318 0.0252,0.4515 0.0881,0.73703 0.33256,1.51009 0.22142,0.70009 0.28374,0.95806 0.32164,1.33141 0.0433,0.42618 -0.0297,0.81957 -0.25713,1.38672 -0.26332,0.65659 -0.64145,1.17803 -1.10176,1.51933 -0.215,0.15942 -0.39998,0.23877 -0.66457,0.28511 -0.18296,0.032 -0.50827,0.0285 -0.71209,-0.008 z m 0.50545,-1.36117 c 0.1008,-0.0479 0.15629,-0.0893 0.26116,-0.1951 0.21448,-0.21634 0.37413,-0.49239 0.54975,-0.95057 l 0.0876,-0.22856 -7e-4,-0.29385 c -8.8e-4,-0.36926 -0.0281,-0.4968 -0.24415,-1.14275 -0.23745,-0.71001 -0.2603,-0.80573 -0.31767,-1.3305 -0.0725,-0.66299 -0.1164,-1.16407 -0.22892,-2.61201 -0.045,-0.57913 -0.0952,-1.21091 -0.11164,-1.40395 -0.0285,-0.33566 -0.0289,-0.49044 -0.009,-3.54254 0.0235,-3.58543 0.0865,-12.49904 0.14388,-20.36553 0.021,-2.8822 0.0335,-5.24447 0.0277,-5.2495 -0.008,-0.007 -1.95027,0.0562 -1.97558,0.0643 -0.003,10e-4 -10e-4,0.2205 0.005,0.48762 0.006,0.26711 0.0215,1.08806 0.0348,1.82432 0.0132,0.73626 0.0496,2.68303 0.0809,4.32615 0.14559,7.66047 0.19171,10.2989 0.2367,13.54165 0.0752,5.41762 0.062,8.52689 -0.0378,8.90325 -0.0223,0.0841 0.1887,-0.0825 -4.39445,3.47135 -1.38274,1.07221 -2.57842,2.00282 -2.65708,2.06804 -1.35552,1.12386 -3.2316,2.00169 -5.39935,2.5264 -0.17509,0.0424 -0.33303,0.0833 -0.35099,0.0909 -0.0455,0.0193 0.0756,0.0192 0.47343,-6e-4 0.54988,-0.0273 1.00334,-0.0801 1.82841,-0.21262 0.99512,-0.15989 1.33815,-0.2115 1.5672,-0.23577 0.42772,-0.0453 1.0005,-0.12005 2.00799,-0.2619 2.306,-0.32467 2.97718,-0.3874 4.17106,-0.38985 0.77789,-0.002 0.80808,0.001 1.20492,0.10584 0.36653,0.0968 0.71426,0.22985 1.30914,0.50101 0.15713,0.0716 0.44243,0.19793 0.634,0.28066 0.19158,0.0827 0.37363,0.16537 0.40456,0.18363 0.12244,0.0722 0.2828,0.11173 0.43168,0.10631 0.12163,-0.004 0.15634,-0.013 0.26775,-0.0659 z"
       id="path1004" />
  </g>
</svg>
