<?xml version="1.0" encoding="UTF-8" standalone="no"?>
<!-- Created with Inkscape (http://www.inkscape.org/) -->

<svg
   width="1080"
   height="1920"
   viewBox="0 0 285.75001 508"
   version="1.1"
   id="svg5"
   inkscape:export-filename="/Users/albertotomasoni/ALBERTO.png"
   inkscape:export-xdpi="96"
   inkscape:export-ydpi="96"
   inkscape:version="1.1.1 (c3084ef, 2021-09-22)"
   sodipodi:docname="claudia.svg"
   xmlns:inkscape="http://www.inkscape.org/namespaces/inkscape"
   xmlns:sodipodi="http://sodipodi.sourceforge.net/DTD/sodipodi-0.dtd"
   xmlns="http://www.w3.org/2000/svg"
   xmlns:svg="http://www.w3.org/2000/svg">
  <sodipodi:namedview
     id="namedview7"
     pagecolor="#ffffff"
     bordercolor="#666666"
     borderopacity="1.0"
     inkscape:pageshadow="2"
     inkscape:pageopacity="0.0"
     inkscape:pagecheckerboard="0"
     inkscape:document-units="px"
     showgrid="false"
     units="px"
     inkscape:zoom="0.40129353"
     inkscape:cx="614.26358"
     inkscape:cy="879.65534"
     inkscape:window-width="1440"
     inkscape:window-height="900"
     inkscape:window-x="0"
     inkscape:window-y="0"
     inkscape:window-maximized="0"
     inkscape:current-layer="g2878" />
  <defs
     id="defs2" />
  <g
     inkscape:label="ALBERTO"
     inkscape:groupmode="layer"
     id="g2878">
    <text
       xml:space="preserve"
       style="font-weight:500;font-size:19.0077px;line-height:1.25;font-family:'Helvetica Neue';-inkscape-font-specification:'Helvetica Neue Medium';text-align:center;text-decoration-color:#000000;text-anchor:middle;white-space:pre;inline-size:858.441;fill=currentColor;stroke-width:1.51181;stroke-linecap:round;paint-order:markers fill stroke;stop-color:#000000"
       x="413.24438"
       y="323.54794"
       id="text2874"
       transform="matrix(2.7692394,0,0,2.7692394,-1001.9189,-805.79815)"><tspan
         x="413.24438"
         y="323.54794"
         id="tspan2024"><tspan
           style="font-weight:normal;font-family:Bison;-inkscape-font-specification:Bison"
           id="tspan2022">claudia</tspan></tspan></text>
    <path
       style="fill=currentColor;stroke-width:0.0163251"
       d="m 112.57565,366.11467 v -1.08562 l 11.65202,-0.002 c 11.52481,-0.002 11.65006,-0.002 11.47245,-0.033 -1.03135,-0.17913 -1.46367,-0.26231 -2.16307,-0.41612 -7.3812,-1.62344 -13.31566,-5.01193 -16.92277,-9.6627 -0.58953,-0.76011 -1.15706,-1.61762 -1.63138,-2.46496 -0.17999,-0.32154 -0.53255,-1.02337 -0.68887,-1.3713 -0.96808,-2.1548 -1.51184,-4.38173 -1.6702,-6.84021 -0.0104,-0.16162 -0.0255,-0.2963 -0.0335,-0.29929 -0.0195,-0.007 -0.0195,-206.12311 -4e-5,-206.12311 0.008,0 0.0194,-0.0679 0.0253,-0.15101 0.0953,-1.34139 0.25224,-2.36665 0.53277,-3.48132 0.94755,-3.76505 3.04602,-7.04208 6.25242,-9.76392 4.4323,-3.76249 10.87447,-6.28349 18.22572,-7.13222 0.18427,-0.0213 0.8756,-0.0245 5.24851,-0.0245 4.3729,0 5.06424,0.003 5.24851,0.0245 5.49808,0.63478 10.54357,2.21735 14.58645,4.5752 2.81155,1.63973 5.10287,3.62437 6.81768,5.90519 1.59143,2.11671 2.67364,4.4837 3.2207,7.04426 0.19381,0.90714 0.30749,1.74717 0.38608,2.85281 0.006,0.0831 0.0173,0.15101 0.0253,0.15101 0.0195,0 0.0195,206.11585 0,206.12311 -0.008,0.003 -0.0232,0.13767 -0.0336,0.29929 -0.17664,2.74237 -0.84056,5.23077 -2.01667,7.55851 -1.29492,2.56291 -3.16736,4.82497 -5.61609,6.78475 -3.45195,2.76268 -7.99905,4.82481 -13.16618,5.97094 -0.7619,0.169 -1.32362,0.27732 -2.36713,0.45649 -0.0568,0.01 4.19319,0.0161 11.56223,0.0173 l 11.65202,0.002 v 1.08562 1.08562 h -30.29934 -30.29933 v -1.08562 z m 32.01347,-2.7337 c 1.24172,-0.0564 2.21654,-0.13236 3.26502,-0.25431 6.672,-0.77598 12.49854,-3.06085 16.61449,-6.51537 3.09599,-2.59846 5.1445,-5.80236 6.02707,-9.42641 0.24596,-1.00998 0.38062,-1.88156 0.47027,-3.04376 0.0277,-0.35899 0.029,-4.89197 0.029,-103.22344 0,-82.97221 -0.004,-102.90318 -0.0207,-103.13366 -0.10152,-1.39909 -0.31601,-2.57779 -0.69184,-3.8019 -0.61505,-2.00328 -1.66091,-3.91554 -3.05904,-5.59318 -0.68243,-0.81886 -1.59664,-1.73375 -2.43192,-2.43375 -1.65022,-1.38294 -3.61809,-2.6012 -5.78201,-3.57951 -3.34341,-1.51155 -7.17198,-2.51653 -11.29402,-2.96462 -2.50209,-0.272 -5.20561,-0.32867 -7.77889,-0.16306 -7.38749,0.47543 -14.01571,2.74468 -18.53387,6.34528 -1.06017,0.84487 -2.06087,1.81763 -2.87595,2.79566 -1.39813,1.67764 -2.444,3.5899 -3.05905,5.59318 -0.37583,1.22411 -0.59032,2.40281 -0.69183,3.8019 -0.0167,0.23048 -0.0207,20.16145 -0.0207,103.13366 0,98.33147 0.001,102.86445 0.029,103.22344 0.0897,1.1622 0.22431,2.03378 0.47027,3.04376 1.02579,4.21218 3.6229,7.84582 7.60044,10.63378 4.20362,2.94645 9.81796,4.83988 16.05328,5.41395 0.88937,0.0819 1.81342,0.1352 2.95483,0.17048 0.34241,0.0106 2.3684,-0.006 2.72629,-0.0221 z m -5.85254,-19.5347 c -5.88111,-0.0476 -10.82411,-0.087 -10.98446,-0.0876 l -0.29153,-10e-4 0.0875,-0.0769 c 0.19656,-0.17283 0.48754,-0.46811 1.01817,-1.0332 0.30774,-0.32772 0.62459,-0.65904 0.70413,-0.73626 0.53328,-0.51773 0.94467,-0.78496 1.30495,-0.84769 0.0965,-0.0168 0.19068,-0.0151 0.57138,0.0105 0.55985,0.0376 2.01543,0.0429 2.56177,0.009 0.79883,-0.0493 1.52607,-0.12244 2.22021,-0.22344 0.59637,-0.0868 0.53054,-0.0668 0.56668,-0.17151 0.49847,-1.44387 1.82135,-6.66558 2.12662,-8.39426 l 0.0424,-0.24007 -0.1831,-0.30682 c -0.48155,-0.8069 -0.91356,-1.48245 -2.05094,-3.20711 -1.30227,-1.9747 -1.88266,-2.9016 -2.5386,-4.05418 -0.43979,-0.77277 -0.96484,-1.78868 -1.28249,-2.48141 l -0.13474,-0.29386 -0.23192,-0.1983 c -0.90517,-0.77397 -1.68421,-1.64984 -2.28481,-2.5688 -0.75803,-1.15984 -1.23218,-2.38326 -1.41485,-3.65069 -0.0578,-0.40134 -0.0736,-0.64122 -0.0736,-1.12439 -7e-5,-0.51217 0.0137,-0.71985 0.14604,-2.19572 0.086,-0.95907 0.11727,-1.39423 0.13236,-1.84065 0.01,-0.29172 0.008,-0.33059 -0.014,-0.33059 -0.0439,0 -0.58549,-0.15833 -0.95461,-0.27906 -0.19569,-0.064 -0.73781,-0.25436 -1.20471,-0.42303 -0.89992,-0.3251 -1.32411,-0.46748 -1.70114,-0.571 -1.38513,-0.38028 -2.50439,-0.3823 -3.78202,-0.007 -0.1066,0.0313 -0.19619,0.0546 -0.19907,0.0517 -0.008,-0.008 0.43313,-0.99387 0.5373,-1.20032 0.38941,-0.77171 0.81141,-1.23691 1.41465,-1.55948 0.30191,-0.16144 0.8548,-0.30019 1.44309,-0.36216 0.2322,-0.0245 0.67083,-0.0475 1.42196,-0.0746 0.73163,-0.0264 1.13933,-0.0728 1.57141,-0.17882 0.22489,-0.0552 0.51745,-0.15413 0.69503,-0.23505 0.11064,-0.0504 0.15639,-0.0607 0.37457,-0.0838 0.13669,-0.0145 0.58646,-0.0659 0.99948,-0.11431 1.01531,-0.11889 1.28913,-0.14826 1.73862,-0.18649 1.59347,-0.13557 2.77322,-0.0468 3.80657,0.28634 0.22,0.0709 0.29675,0.10804 0.43795,0.21173 0.55661,0.40877 1.04202,1.25498 1.35596,2.36386 0.099,0.34975 0.16768,0.69677 0.27662,1.39809 0.15661,1.00822 0.23235,1.37939 0.34499,1.69069 0.0475,0.13129 0.05,0.13451 0.12515,0.16278 0.18093,0.068 0.98783,0.40852 1.32952,0.56104 2.73074,1.21887 4.94924,2.67671 6.80939,4.47467 0.45789,0.44259 1.92648,2.12021 3.303,3.77314 1.53479,1.84298 2.65227,3.24093 5.72726,7.16466 1.59754,2.0385 2.69813,3.42736 3.5899,4.53021 1.89666,2.34561 3.57623,4.3095 5.09455,5.95694 0.46914,0.50903 0.59355,0.65361 0.81636,0.94868 0.35717,0.47299 0.61006,0.93203 0.71032,1.28934 0.19706,0.70224 -0.11849,1.10988 -0.93324,1.20558 l -0.16642,0.0195 -0.068,0.19565 c -0.0847,0.24365 -0.11925,0.32164 -0.22287,0.5028 -0.59775,1.04493 -1.95816,1.76884 -3.6865,1.96162 -0.29483,0.0329 -0.45552,0.0312 -0.76257,-0.008 -2.28511,-0.29186 -4.17917,-1.16488 -5.94608,-2.74066 -0.24043,-0.21443 -0.83406,-0.81297 -1.08361,-1.09257 -0.6634,-0.74333 -1.28659,-1.56392 -1.96106,-2.58225 -0.23368,-0.35282 -0.63854,-0.99116 -0.81549,-1.28576 -0.0608,-0.10117 -0.0912,-0.11707 -0.0917,-0.0479 -5.1e-4,0.0703 -0.0655,0.34323 -0.12196,0.5119 -0.2249,0.67209 -0.65696,1.05903 -1.30966,1.17285 -0.18587,0.0324 -0.27008,0.0307 -0.46743,-0.009 -0.55961,-0.11349 -1.06364,-0.40594 -1.78185,-1.03387 -0.0987,-0.0863 -0.18323,-0.15688 -0.18786,-0.15688 -0.005,0 -0.0214,0.11938 -0.0372,0.26528 -0.0929,0.85496 -0.29844,1.74365 -0.62968,2.72221 -0.0916,0.27063 -0.53472,1.49891 -0.63176,1.75119 -0.013,0.0339 -0.0237,0.0632 -0.0236,0.0653 0,0.002 0.11941,0.004 0.26528,0.005 0.93854,0.006 2.44573,0.39523 3.6202,0.93555 1.05256,0.48426 1.8312,1.10038 2.18093,1.72576 0.0721,0.12887 0.18481,0.39304 0.18555,0.43475 4.5e-4,0.0264 -0.0263,0.0284 -0.35457,0.0264 -0.19529,-0.001 -5.16689,-0.0411 -11.048,-0.0886 z m 20.94507,-2.02502 c 0.56962,-0.0662 1.12945,-0.22834 1.5264,-0.44204 0.3683,-0.19828 0.70576,-0.48879 0.90671,-0.78055 l 0.0607,-0.0882 -0.18782,-0.24981 c -0.83202,-1.10659 -2.01118,-2.31458 -3.32082,-3.402 -0.25836,-0.21451 -0.41616,-0.327 -0.90605,-0.6459 -4.9563,-3.22639 -10.06836,-6.17948 -18.26509,-10.55122 -0.53424,-0.28494 -1.01826,-0.54393 -1.0756,-0.57554 -0.0573,-0.0316 -0.0983,-0.0474 -0.0911,-0.035 0.021,0.0358 0.3273,0.46441 1.00182,1.40191 0.74513,1.03565 1.11985,1.56257 1.50037,2.10979 1.07579,1.54709 1.92998,2.93595 2.51025,4.0815 0.0762,0.15038 0.14252,0.27344 0.14742,0.27344 0.0166,0 0.24172,-0.14978 0.55845,-0.37149 0.174,-0.1218 0.32112,-0.2142 0.32831,-0.20622 0.007,0.008 0.62836,0.7517 1.38043,1.65275 0.98452,1.17952 1.38171,1.6442 1.41848,1.65949 0.0528,0.022 0.10881,0.0291 0.20441,0.0261 0.0432,-0.001 0.0723,-0.0188 0.13233,-0.0793 0.14529,-0.14643 0.18972,-0.37888 0.17395,-0.91012 -0.01,-0.32967 -0.0227,-0.46324 -0.11608,-1.19989 -0.0618,-0.48729 -0.30516,-2.71053 -0.29943,-2.73512 0.007,-0.0295 1.52969,1.8265 1.82221,2.22088 0.32785,0.44202 0.59629,0.826 1.11849,1.59986 1.30421,1.93277 1.47975,2.18596 1.96946,2.84056 0.59298,0.79266 1.01447,1.28593 1.59092,1.86186 0.70351,0.70287 1.30432,1.17452 2.01457,1.58151 1.01676,0.5826 2.14692,0.91764 3.32502,0.98574 0.23522,0.0136 0.26701,0.0123 0.57125,-0.023 z m -18.96331,-1.33556 c 0.60675,-0.1694 1.09945,-0.6395 1.49263,-1.42415 0.29794,-0.59456 0.54718,-1.3989 0.73654,-2.3769 0.0204,-0.10549 0.0327,-0.19147 0.0272,-0.19105 -0.005,4.9e-4 -0.043,0.0424 -0.0834,0.0932 -0.11634,0.14634 -0.70427,0.73973 -0.95501,0.96387 -0.26318,0.23528 -0.8893,0.76084 -0.8959,0.75205 -0.002,-0.003 -0.0579,-0.24837 -0.12314,-0.54467 -0.19104,-0.86706 -0.35805,-1.51092 -0.52083,-2.00799 -0.0869,-0.26535 -0.2354,-0.66116 -0.24804,-0.66116 -0.006,0 -0.0493,0.14875 -0.0969,0.33058 -0.21854,0.83351 -0.43441,1.59948 -0.62915,2.23245 -0.22144,0.71974 -0.31347,1.16713 -0.32907,1.59986 -0.0177,0.49111 0.0768,0.80408 0.30907,1.02353 0.21916,0.20705 0.42694,0.26845 0.87701,0.25913 0.24699,-0.005 0.30646,-0.0117 0.43904,-0.0487 z m 20.15176,-3.81737 c -0.0835,-0.0917 -0.77537,-0.92315 -1.20559,-1.44887 -0.60419,-0.73833 -1.25312,-1.5444 -2.39849,-2.97931 -1.92575,-2.41255 -3.12995,-3.88413 -6.57585,-8.03594 -2.82096,-3.39884 -4.07992,-4.93178 -5.57418,-6.78723 -0.35314,-0.4385 -0.42654,-0.51988 -0.70144,-0.77779 -2.06704,-1.93924 -4.3501,-3.33585 -7.51205,-4.59534 -0.23931,-0.0953 -0.46861,-0.19017 -0.50956,-0.21079 -0.23011,-0.11585 -0.44079,-0.39788 -0.56744,-0.75966 -0.11146,-0.31839 -0.17185,-0.68232 -0.24764,-1.49245 -0.058,-0.61977 -0.0842,-0.81699 -0.13864,-1.04481 -0.0215,-0.0898 -0.0441,-0.19263 -0.0502,-0.22855 -0.006,-0.0359 -0.0324,-0.16034 -0.0585,-0.27651 -0.15625,-0.69747 -0.37944,-1.18225 -0.69767,-1.51538 -0.32539,-0.34062 -0.69452,-0.50751 -1.2705,-0.57444 l -0.0849,-0.01 -0.0101,0.0617 c -0.10978,0.67278 -0.30983,1.21696 -0.66398,1.80619 -0.30333,0.50469 -0.75458,1.02317 -1.14335,1.31372 -0.1593,0.11906 -0.4458,0.29606 -0.47975,0.29638 -0.0169,1.7e-4 -0.28387,-0.54835 -0.28387,-0.58316 0,-0.009 0.0312,-0.0297 0.0694,-0.0468 0.10325,-0.0462 0.30722,-0.20535 0.41765,-0.32587 0.34195,-0.37319 0.57522,-0.93748 0.64069,-1.54991 0.0228,-0.21357 0.0102,-0.64372 -0.0243,-0.83015 -0.0131,-0.0705 -0.0271,-0.13145 -0.0311,-0.13548 -0.0185,-0.0185 -2.44578,0.31754 -2.47021,0.34196 -0.004,0.004 0.0505,0.0111 0.12021,0.0165 0.3356,0.0263 0.70157,0.23554 0.91354,0.52219 0.0519,0.0702 0.0568,0.0854 0.0469,0.14693 -0.031,0.19386 -0.20498,0.32991 -0.53984,0.42216 -0.11284,0.0311 -0.17168,0.036 -0.43262,0.036 -0.26052,0 -0.31995,-0.005 -0.43261,-0.0359 -0.37693,-0.1035 -0.59172,-0.29625 -0.62177,-0.55794 l -0.0103,-0.09 0.12994,-0.12416 c 0.13881,-0.1326 0.29267,-0.22886 0.44239,-0.27674 0.0508,-0.0163 0.0863,-0.0299 0.0789,-0.0304 -0.0798,-0.005 -1.34117,0.15909 -2.74538,0.35752 -0.56566,0.0799 -1.15177,0.16178 -1.30245,0.1819 -0.15068,0.0201 -0.26822,0.0415 -0.2612,0.0476 0.007,0.006 0.0936,0.0312 0.19234,0.0559 0.2663,0.0666 1.03709,0.32673 1.50191,0.50698 1.09082,0.42299 1.35188,0.52145 1.66351,0.62738 0.7007,0.23817 1.35356,0.3888 1.87903,0.43352 0.0628,0.005 0.1445,0.0134 0.18143,0.018 l 0.0672,0.008 -0.006,0.10953 c -0.007,0.12622 -0.0931,1.8799 -0.12271,2.50931 -0.0264,0.56113 -0.0266,2.19327 -4.2e-4,2.59569 0.028,0.43003 0.0633,0.79679 0.11044,1.14629 0.33416,2.47936 1.34491,4.21391 3.15797,5.41942 0.25571,0.17005 0.67346,0.41326 0.70978,0.41326 0.005,0 -0.0197,-0.0569 -0.0546,-0.12652 -0.30794,-0.6142 -0.49347,-1.21013 -0.58324,-1.87331 -0.0399,-0.29466 -0.0409,-0.90682 -0.002,-1.16819 0.0649,-0.43522 0.17712,-0.79063 0.37858,-1.19894 0.44819,-0.90839 1.22691,-1.6949 2.34223,-2.36565 0.83402,-0.50157 1.93776,-0.92415 2.42956,-0.93017 0.11835,-10e-4 0.15492,0.004 0.16708,0.0226 0.0235,0.0369 0.021,0.0435 -0.045,0.11651 -0.0828,0.0916 -0.22224,0.19568 -0.78994,0.58945 -1.02875,0.71356 -1.43573,1.03318 -1.9384,1.52241 -0.65155,0.63414 -1.0168,1.19957 -1.15798,1.79264 -0.0406,0.1708 -0.0434,0.20609 -0.0417,0.54185 0.007,1.41187 0.43261,2.63851 1.2889,3.71395 0.21861,0.27454 0.81763,0.87498 1.11593,1.11853 0.63258,0.5165 1.36377,1.00444 2.33526,1.55835 0.57684,0.32888 1.03314,0.57652 5.55052,3.0123 2.47413,1.33405 3.84819,2.08662 5.22402,2.8612 4.20214,2.36571 7.4849,4.44295 10.28481,6.50794 0.20202,0.149 0.37043,0.27091 0.37423,0.27091 0.004,0 -0.008,-0.0165 -0.0265,-0.0367 z m -18.80669,-1.45672 c 0.46518,-0.64842 0.52147,-0.93926 0.25598,-1.32263 -0.0249,-0.0359 -0.17342,-0.28936 -0.33009,-0.56321 -2.14045,-3.74125 -4.26374,-6.86435 -6.42624,-9.45222 -0.35134,-0.42045 -0.86379,-1.01215 -0.87658,-1.01215 -0.0103,0 0.021,0.0596 0.20994,0.39996 0.64969,1.17026 1.41237,2.38769 2.78174,4.44042 1.64672,2.4685 2.40604,3.72785 3.10058,5.1424 0.27571,0.56153 0.45745,0.97023 0.66467,1.49469 0.12717,0.32188 0.3385,0.90643 0.3877,1.07243 0.0113,0.0381 0.0249,0.0692 0.0302,0.0689 0.005,-1.7e-4 0.0962,-0.12112 0.20207,-0.26863 z m -5.40651,-42.54811 -3.91929,-7.52119 0.62419,-0.012 c 0.3433,-0.007 1.00917,-0.0103 1.47972,-0.008 l 0.85553,0.004 3.91638,7.51542 c 2.15401,4.13348 3.91414,7.51728 3.91139,7.51953 -0.003,0.002 -0.66731,0.009 -1.47681,0.0139 l -1.47181,0.01 z m 9.48484,-0.039 c -2.88251,-5.52348 -3.91498,-7.51594 -3.89971,-7.52566 0.0114,-0.007 0.67703,-0.0115 1.47914,-0.009 l 1.45836,0.004 3.90984,7.50137 c 2.15041,4.12575 3.91369,7.51056 3.91841,7.52178 0.007,0.0162 -0.29315,0.0204 -1.46849,0.0204 h -1.47707 z m -10.03349,-11.87661 c -5.5645,-0.047 -10.11481,-0.33672 -13.06006,-0.83147 -1.12656,-0.18924 -2.39153,-0.49395 -2.57321,-0.61984 -0.11248,-0.0779 -0.32628,-0.27153 -0.42366,-0.38362 -0.69527,-0.8003 -1.00463,-1.9286 -0.97317,-3.54934 0.0126,-0.64881 0.0633,-1.11181 0.1827,-1.66872 0.21615,-1.00802 0.6714,-2.01288 1.26879,-2.80056 0.0529,-0.0697 0.10617,-0.15055 0.11838,-0.17957 0.0306,-0.0728 0.0971,-0.13182 0.21261,-0.18863 0.49159,-0.2419 1.86477,-0.4419 4.16289,-0.60632 1.07369,-0.0768 3.01815,-0.17742 3.97516,-0.20565 0.18406,-0.005 0.34387,-0.0127 0.35512,-0.0162 0.0125,-0.004 -0.0204,-0.0569 -0.0844,-0.13621 -0.36627,-0.45367 -0.57473,-0.92346 -0.67381,-1.5185 -0.0362,-0.21757 -0.041,-0.84226 -0.008,-1.02991 0.083,-0.47057 0.2515,-0.87662 0.51986,-1.25278 0.12807,-0.17953 0.41765,-0.50546 0.47045,-0.52952 0.0289,-0.0132 0.14042,0.002 0.49225,0.0658 1.57643,0.28716 2.20867,0.35651 2.9934,0.32835 2.19085,-0.0786 4.39336,-0.42669 7.28098,-1.15063 1.17701,-0.29508 1.60143,-0.36044 2.45693,-0.37837 0.51468,-0.0108 0.89215,0.008 1.3713,0.0687 1.89757,0.23981 3.83876,1.04709 5.84284,2.42984 0.19908,0.13736 0.35334,0.22584 0.66117,0.37923 1.9864,0.98982 3.89448,1.52923 5.8051,1.64108 0.35627,0.0209 1.4068,0.0117 2.05696,-0.018 2.18133,-0.0995 4.45797,-0.28738 7.3378,-0.60555 0.57288,-0.0633 0.74907,-0.088 0.77136,-0.10818 0.0276,-0.025 0.0289,0.23131 0.0289,5.87822 v 5.90435 l -0.0367,-0.009 c -0.0202,-0.005 -0.34895,-0.0559 -0.73055,-0.11385 -4.35939,-0.66132 -7.04538,-0.94102 -8.53802,-0.88907 -1.60822,0.056 -5.88952,0.60041 -13.40287,1.70437 -1.26829,0.18635 -1.3735,0.19979 -1.91821,0.24516 -1.65262,0.13765 -2.95542,0.16922 -5.94232,0.14398 z m 3.20787,-1.94826 c 2.19941,-0.0767 6.65425,-0.57509 13.49268,-1.50949 2.64285,-0.36113 4.24351,-0.49806 5.57501,-0.47694 1.11295,0.0177 2.50147,0.16682 4.52205,0.48579 0.48786,0.077 1.7131,0.28313 1.79167,0.30141 l 0.0367,0.009 v -3.73875 -3.73875 h -0.0424 c -0.0233,0 -0.19045,0.0146 -0.37139,0.0324 -1.37869,0.13594 -3.00917,0.2355 -4.85921,0.29672 -0.84548,0.028 -3.40695,0.0285 -3.73028,8.3e-4 -2.67537,-0.22931 -5.19489,-1.08019 -8.07274,-2.72627 -0.88789,-0.50785 -1.38416,-0.737 -2.12226,-0.97994 -0.7863,-0.25879 -1.60771,-0.41647 -2.47863,-0.47579 -0.32295,-0.022 -1.16467,-0.0219 -1.49808,1.6e-4 -0.78874,0.0522 -1.49237,0.16217 -2.48907,0.38912 -2.93953,0.66935 -5.61879,0.86802 -8.04722,0.59673 -0.20202,-0.0226 -0.38935,-0.0426 -0.41629,-0.0445 l -0.049,-0.003 -0.005,0.20406 c -0.0239,1.00593 0.51966,1.64419 1.59653,1.87479 0.95668,0.20486 2.68034,0.13703 4.94336,-0.19455 0.81742,-0.11976 1.7282,-0.2757 2.67229,-0.45754 1.26285,-0.24323 1.76421,-0.29873 2.7018,-0.29905 0.6746,-2.3e-4 0.88327,0.0145 1.37621,0.0973 1.47605,0.24776 2.63703,0.9276 3.45107,2.02087 l 0.12368,0.16611 -0.12461,0.0115 c -1.00642,0.0926 -9.40715,0.49269 -23.70039,1.12871 l -0.843,0.0375 -0.12018,0.071 c -0.30422,0.17982 -0.5995,0.45079 -0.80119,0.73525 -0.37891,0.53439 -0.6409,1.35601 -0.75468,2.36667 -0.0399,0.35478 -0.063,0.89819 -0.0516,1.21622 0.0263,0.73268 0.15603,1.18662 0.41984,1.46864 0.17388,0.18588 0.31373,0.25117 0.69888,0.32626 0.933,0.18193 2.97818,0.36915 6.33537,0.57996 1.17443,0.0737 1.4822,0.0883 2.59569,0.12244 2.35129,0.0722 3.85431,0.0965 7.39526,0.11983 0.211,10e-4 0.59301,-0.005 0.8489,-0.0137 z m 7.38478,-19.05155 c -0.198,-0.042 -0.32439,-0.26546 -0.43813,-0.77478 -0.0896,-0.40123 -0.43134,-0.76796 -0.96396,-1.03446 -0.26396,-0.13207 -0.24623,-0.13039 -0.27653,-0.0262 -0.10923,0.37574 -0.5009,0.85333 -1.14088,1.39117 l -0.17969,0.15101 -6.35977,-3.3e-4 c -4.13594,-2.1e-4 -6.39911,-0.006 -6.47228,-0.0166 -0.27693,-0.04 -0.41023,-0.18214 -0.45273,-0.48267 -0.0244,-0.1728 -0.001,-0.2835 0.0868,-0.4154 0.31764,-0.47566 1.56975,-0.78156 3.60473,-0.88066 0.88011,-0.0428 1.43725,-0.0842 1.99166,-0.14767 0.92411,-0.10586 1.43564,-0.23713 1.47819,-0.37935 0.006,-0.02 0.0917,-0.26404 0.19055,-0.54239 1.00854,-2.8406 1.63309,-4.93408 1.83121,-6.13822 0.0677,-0.41139 0.0813,-0.54496 0.0821,-0.8081 6.4e-4,-0.20562 -0.006,-0.28668 -0.0375,-0.43261 -0.18346,-0.86074 -0.75225,-2.30001 -1.7903,-4.53021 -0.3092,-0.66429 -0.52885,-1.10633 -1.41149,-2.84056 -0.62912,-1.23613 -2.46907,-4.92248 -2.88038,-5.77092 -0.93282,-1.92416 -1.47174,-3.10998 -1.70281,-3.74689 -0.4551,-1.25433 -0.70662,-2.75253 -0.77064,-4.59016 l -0.0152,-0.43572 -0.20041,-0.33156 c -0.33318,-0.55122 -0.57363,-1.05338 -0.66958,-1.39837 l -0.0379,-0.13627 -0.17142,-0.0525 c -0.77416,-0.23695 -1.65801,-0.79272 -2.61936,-1.6471 l -0.0808,-0.0718 0.15428,-0.17779 c 0.65703,-0.75718 1.3395,-1.2924 1.96415,-1.54037 0.0933,-0.037 0.19036,-0.0976 0.3549,-0.22137 1.00407,-0.75537 1.97072,-1.18573 2.96946,-1.32204 0.40766,-0.0556 1.28795,-0.0478 1.92636,0.0172 1.60035,0.16293 2.82338,0.72362 3.51573,1.61178 0.54526,0.69948 1.06867,1.91047 1.3094,3.02953 0.14173,0.65885 0.19344,1.08653 0.24532,2.02894 l 0.01,0.17392 0.10057,0.0446 c 0.0553,0.0245 0.31888,0.15732 0.58571,0.2951 1.3727,0.7088 2.20406,1.2318 2.76725,1.74088 0.52604,0.47548 1.04315,1.18047 1.43201,1.95229 0.0813,0.1613 0.0934,0.17694 0.16672,0.21443 0.24033,0.12295 0.8085,0.5443 1.22181,0.90609 0.85977,0.75262 2.03787,1.9707 3.32393,3.43676 0.94544,1.07775 2.54479,2.98995 2.94248,3.51805 1.45165,1.92768 3.29043,4.06425 4.96601,5.77028 0.26884,0.27373 0.47717,0.50066 0.53263,0.58017 0.3254,0.46657 0.55434,0.93549 0.63708,1.30485 0.0428,0.19084 0.0462,0.47915 0.008,0.62968 -0.0362,0.14099 -0.13898,0.34538 -0.23172,0.46093 -0.148,0.18437 -0.4689,0.4072 -0.74642,0.51828 -0.35058,0.14033 -0.6188,0.18574 -1.09775,0.18585 -0.37904,1.7e-4 -0.58347,-0.0201 -0.96318,-0.095 l -0.1959,-0.0387 -0.22039,0.0825 c -2.12866,0.79673 -4.58986,1.25358 -7.46056,1.38481 -0.21998,0.0101 -0.4022,0.0205 -0.40494,0.0232 -0.003,0.003 -0.34858,1.45447 -0.76854,3.22621 l -0.76358,3.22136 0.24109,0.23422 c 0.72775,0.70699 1.1763,1.39648 1.40351,2.15743 0.0328,0.10975 0.0344,0.13257 0.0177,0.24037 -0.0215,0.13828 -0.0642,0.23736 -0.14067,0.32675 -0.0956,0.11171 -0.28354,0.19168 -0.39497,0.16806 z m -4.44078,-2.38869 c 0.50667,-0.12213 0.76733,-0.39688 0.9088,-0.95791 0.0282,-0.11192 0.39693,-1.48909 0.81934,-3.06038 0.57252,-2.12966 0.7675,-2.87767 0.76596,-2.93852 -0.009,-0.37043 -0.3823,-0.74418 -1.06513,-1.06742 -0.30956,-0.14654 -0.82929,-0.33633 -1.23447,-0.4508 l -0.0367,-0.0104 v 0.4753 0.4753 l -1.22438,3.74462 c -0.67341,2.05955 -1.22438,3.75864 -1.22438,3.77577 0,0.0171 0.005,0.0365 0.012,0.0431 0.007,0.007 0.49697,0.009 1.0897,0.005 0.92857,-0.006 1.09313,-0.0106 1.18929,-0.0338 z m 3.72761,-6.30191 c 0.11753,-0.17989 0.31115,-0.77855 0.34896,-1.07899 0.0259,-0.20596 0.011,-0.55771 -0.0316,-0.74315 -0.12289,-0.5352 -0.41848,-1.02093 -0.93226,-1.53196 l -0.20399,-0.20288 0.13052,0.0655 c 1.00776,0.50581 2.40824,0.76628 3.94243,0.73324 1.66078,-0.0358 3.19531,-0.40949 4.94817,-1.20511 l 0.28737,-0.13044 0.1126,0.0726 c 0.36611,0.23613 0.76441,0.35491 1.11534,0.33262 0.48153,-0.0306 0.79225,-0.25733 0.89333,-0.65189 0.0576,-0.22492 4.4e-4,-0.4159 -0.20857,-0.69667 -0.2846,-0.38228 -0.96965,-0.9627 -1.83175,-1.55196 l -0.27467,-0.18774 -0.32865,-0.41629 c -5.49684,-6.96261 -8.78775,-10.59684 -10.086,-11.13823 l -0.059,-0.0246 -0.0276,0.14109 c -0.0744,0.37978 -0.3223,0.65769 -0.79511,0.89124 -0.11581,0.0572 -0.30781,0.13471 -0.42666,0.17224 -0.11886,0.0375 -0.2299,0.0734 -0.24676,0.0798 -0.024,0.009 0.0522,0.0668 0.35099,0.2661 1.15815,0.77255 1.83956,1.40651 2.1287,1.98044 0.11995,0.23809 0.16181,0.4062 0.15025,0.60343 -0.0152,0.25864 -0.11211,0.45257 -0.32951,0.65908 -0.13755,0.13066 -0.23259,0.19737 -0.51483,0.36138 -0.53254,0.30946 -1.04198,0.52755 -1.48727,0.63671 -0.51316,0.12579 -0.99523,0.10571 -1.34513,-0.056 -0.27652,-0.12783 -1.93808,-1.43718 -2.84542,-2.24227 -0.34792,-0.30871 -1.15193,-1.10623 -1.36089,-1.34992 -0.49731,-0.57994 -0.88341,-1.15699 -1.15783,-1.7304 -0.71731,-1.49888 -0.57398,-2.83389 0.39063,-3.63845 0.20617,-0.17196 0.43067,-0.31225 0.76164,-0.47593 0.42998,-0.21265 0.61219,-0.26807 0.61219,-0.1862 0,0.0651 -0.10646,0.18948 -0.45327,0.52943 -0.19236,0.18855 -0.40332,0.40894 -0.4688,0.48975 -0.23076,0.28479 -0.39247,0.56949 -0.49002,0.86276 -0.0954,0.28683 -0.11434,0.40925 -0.11396,0.7371 3.1e-4,0.26789 0.004,0.30937 0.0458,0.46959 0.18616,0.7194 0.76219,1.56282 1.88493,2.75992 1.53163,1.63307 2.67439,2.38837 3.73371,2.46777 0.30274,0.0227 0.6584,-0.0476 0.95361,-0.18858 0.35072,-0.16745 0.59196,-0.37019 0.69016,-0.58004 0.0427,-0.0913 0.0512,-0.12906 0.0508,-0.22549 -0.001,-0.22753 -0.10872,-0.42236 -0.37646,-0.68124 -0.20641,-0.19959 -0.29363,-0.26518 -0.71932,-0.54097 -0.73505,-0.47621 -1.13026,-0.77769 -1.48041,-1.12931 -0.40273,-0.40442 -0.5754,-0.72578 -0.60636,-1.12853 -0.0112,-0.14645 -0.003,-0.2035 0.0362,-0.24248 0.0599,-0.0599 0.1573,-0.0203 0.36788,0.14964 0.32146,0.2594 0.65086,0.40293 1.09203,0.47584 0.53827,0.089 0.77209,0.0522 0.95911,-0.15067 0.0889,-0.0964 0.16015,-0.2407 0.2009,-0.40661 0.0424,-0.17255 0.0586,-0.55946 0.0337,-0.80233 -0.0177,-0.17288 -0.0213,-0.18378 -0.12543,-0.38364 -0.6433,-1.2347 -1.81537,-2.13772 -3.46267,-2.66782 -0.27375,-0.0881 -0.76203,-0.21827 -0.96308,-0.25675 l -0.10059,-0.0193 -0.009,-0.16549 c -0.0369,-0.66283 -0.0479,-0.82177 -0.0764,-1.10419 -0.23136,-2.28919 -0.91846,-3.85866 -2.10907,-4.81753 -0.61974,-0.49913 -1.27989,-0.7786 -2.14252,-0.90703 -0.27991,-0.0417 -1.02651,-0.0423 -1.24887,-0.001 -0.6798,0.12601 -1.2545,0.38186 -1.84021,0.81923 l -0.17594,0.13139 -0.004,0.41629 -0.004,0.41629 0.0851,0.0571 c 0.13684,0.0919 0.35577,0.27942 0.45859,0.39287 0.33685,0.37168 0.43692,0.7389 0.31556,1.15802 -0.0679,0.23438 -0.0822,0.32747 -0.0807,0.5224 0.003,0.37122 0.14948,0.7169 0.4425,1.04418 0.28939,0.32323 0.44534,0.61321 0.55931,1.04004 0.098,0.36719 0.11442,0.54248 0.12936,1.38486 0.0161,0.9077 0.0417,1.17948 0.17281,1.83375 0.34626,1.72817 1.14906,3.49452 3.53306,7.77355 1.93005,3.46422 3.1002,5.76789 3.71083,7.30547 0.52829,1.33026 0.88855,2.69002 0.96671,3.64866 0.0481,0.58959 0.1032,0.78826 0.20383,0.7344 0.0738,-0.0395 0.19868,-0.37168 0.31704,-0.84347 l 0.0417,-0.16621 v -0.90717 c 0,-0.62258 0.005,-0.90716 0.0171,-0.90716 0.0656,0 1.11716,0.42137 1.56639,0.62769 1.2569,0.57725 2.1018,1.21808 2.41176,1.82923 0.13107,0.25842 0.162,0.41289 0.17489,0.87339 0.016,0.5719 0.0798,0.72443 0.21592,0.51614 z m -13.26044,-27.58038 c -0.13093,-0.0387 -0.22978,-0.0981 -0.31237,-0.18769 -0.14761,-0.16013 -0.1909,-0.32043 -0.1793,-0.66394 0.007,-0.19646 0.0153,-0.25937 0.0509,-0.36994 0.0775,-0.24052 0.21846,-0.38696 0.44807,-0.46556 0.0894,-0.0306 0.14321,-0.0372 0.30451,-0.0371 0.10915,0 0.23566,0.01 0.28569,0.0221 0.40183,0.0987 0.58697,0.39001 0.56652,0.89131 -0.01,0.23725 -0.0482,0.37245 -0.14744,0.51747 -0.0842,0.1231 -0.22609,0.22545 -0.38251,0.27599 -0.15533,0.0502 -0.49181,0.0594 -0.6341,0.0174 z m -2.1679,1.15635 c 0.13195,-0.17995 0.10016,-0.39586 -0.0958,-0.65025 -0.0781,-0.10145 -0.39775,-0.40969 -0.45857,-0.44224 -0.0376,-0.0201 -0.0991,-0.009 -0.62605,0.11138 -0.32143,0.0735 -0.599,0.13955 -0.61683,0.14673 -0.0288,0.0116 -0.0171,0.0282 0.10391,0.14776 0.32115,0.31729 0.78086,0.59429 1.33048,0.80168 l 0.16372,0.0618 0.0726,-0.0517 c 0.0399,-0.0284 0.0969,-0.0847 0.12648,-0.12515 z m -1.67362,-1.22467 c 0.45268,-0.081 0.86161,-0.15496 0.90875,-0.16441 l 0.0857,-0.0172 v -0.42996 -0.42996 l -0.0939,0.0286 c -0.38581,0.11736 -0.82731,0.35547 -1.20397,0.64933 -0.24153,0.18844 -0.57885,0.51085 -0.53446,0.51085 0.008,0 0.38517,-0.0662 0.83784,-0.14722 z m 9.89979,-7.46942 c -5.88111,-0.0476 -10.83514,-0.087 -11.00895,-0.0876 l -0.31602,-0.001 0.0875,-0.0769 c 0.19696,-0.17325 0.47106,-0.45168 1.00101,-1.01684 0.59166,-0.63097 0.85034,-0.88863 1.10261,-1.09829 0.28646,-0.23806 0.56998,-0.40633 0.80809,-0.47959 0.11599,-0.0357 0.38534,-0.0382 0.79993,-0.008 0.40946,0.0303 1.53965,0.0412 2.05696,0.0199 0.99812,-0.0411 1.89439,-0.12658 2.81557,-0.26851 l 0.33417,-0.0515 0.087,-0.26936 c 0.56708,-1.75636 1.77565,-6.55599 2.06874,-8.21567 l 0.0425,-0.24087 -0.26776,-0.44478 c -0.46132,-0.7663 -0.88687,-1.43042 -1.9378,-3.02415 -1.34021,-2.03243 -1.90555,-2.93472 -2.56739,-4.09759 -0.43237,-0.75971 -0.97209,-1.80392 -1.28256,-2.48141 l -0.13465,-0.29385 -0.23192,-0.19831 c -1.19916,-1.02535 -2.13932,-2.18475 -2.8025,-3.45603 -0.66902,-1.28247 -1.01613,-2.73707 -0.97449,-4.08375 0.0113,-0.3652 0.0607,-1.02097 0.15734,-2.08961 0.0781,-0.86383 0.11001,-1.31145 0.12437,-1.74678 l 0.0108,-0.3265 -0.26741,-0.0718 c -0.40654,-0.10907 -0.98029,-0.30016 -1.91624,-0.6382 -1.14083,-0.41204 -1.49087,-0.52522 -2.01615,-0.65187 -0.5991,-0.14445 -1.06635,-0.20227 -1.6325,-0.20203 -0.6449,2.8e-4 -1.16117,0.0779 -1.83451,0.27576 -0.1066,0.0313 -0.19619,0.0546 -0.19907,0.0517 -0.008,-0.008 0.43313,-0.99386 0.5373,-1.20032 0.47714,-0.94556 1.07398,-1.50575 1.8391,-1.72618 0.5614,-0.16174 1.02384,-0.22055 1.9835,-0.25226 1.11039,-0.0367 1.45824,-0.068 1.93206,-0.17397 0.24362,-0.0545 0.55882,-0.156 0.76158,-0.24529 0.14964,-0.0659 0.18299,-0.074 0.39996,-0.0967 0.3062,-0.0321 0.66227,-0.0728 1.33866,-0.15293 1.02244,-0.1212 1.54383,-0.16837 2.19572,-0.19867 1.0645,-0.0495 2.08296,0.0548 2.87383,0.29412 0.31074,0.094 0.38758,0.12581 0.52232,0.21592 0.57675,0.38576 1.08731,1.25437 1.41256,2.4032 0.099,0.34975 0.16768,0.69677 0.27662,1.39809 0.11344,0.73031 0.16275,1.01059 0.22116,1.25704 0.0408,0.17196 0.14493,0.51448 0.16697,0.54899 0.006,0.0101 0.16604,0.0811 0.35459,0.15767 3.24689,1.31875 5.78831,2.91186 7.88309,4.9416 0.56738,0.54977 2.55182,2.84627 4.18282,4.8406 1.23139,1.50569 2.0659,2.55596 4.76701,5.99946 2.78174,3.54629 3.90824,4.95118 5.43239,6.77491 1.13131,1.35367 2.344,2.74143 3.31524,3.79386 0.46803,0.50714 0.59328,0.65261 0.81685,0.94868 0.54973,0.72801 0.81954,1.3632 0.75934,1.78767 -0.0569,0.40107 -0.39176,0.64186 -0.98182,0.70597 l -0.17375,0.0189 -0.0272,0.0987 c -0.0448,0.16242 -0.15169,0.41506 -0.24693,0.58363 -0.31883,0.5643 -0.85139,1.03533 -1.56591,1.38499 -0.47729,0.23357 -0.92876,0.38338 -1.49374,0.49565 -0.65188,0.12954 -1.06095,0.14775 -1.57094,0.0699 -0.76098,-0.11613 -1.34184,-0.25223 -1.96489,-0.46038 -2.2658,-0.75696 -4.1781,-2.26087 -6.00922,-4.72591 -0.51089,-0.68775 -1.17254,-1.68149 -1.66044,-2.49382 -0.0608,-0.10117 -0.0912,-0.11706 -0.0917,-0.0478 -5.1e-4,0.0706 -0.0656,0.34352 -0.12257,0.51371 -0.16326,0.48791 -0.42815,0.81541 -0.81586,1.00871 -0.332,0.16553 -0.65121,0.21723 -0.95502,0.15469 -0.56973,-0.11728 -1.08997,-0.41954 -1.794,-1.04233 -0.0933,-0.0825 -0.17417,-0.15008 -0.1797,-0.15008 -0.006,0 -0.023,0.11938 -0.0388,0.26529 -0.093,0.85648 -0.30184,1.75748 -0.63275,2.73036 -0.095,0.27943 -0.53645,1.50322 -0.62869,1.74304 -0.013,0.0339 -0.0237,0.0637 -0.0237,0.0662 0,0.003 0.0648,0.002 0.14393,-0.002 0.46966,-0.0225 1.39807,0.13593 2.23137,0.38066 1.82141,0.53493 3.16619,1.36798 3.68886,2.28515 0.0808,0.14183 0.16699,0.33823 0.18257,0.41616 l 0.01,0.0493 -0.33263,-0.002 c -0.18294,-0.001 -5.14443,-0.0411 -11.02554,-0.0886 z m 20.89609,-2.02504 c 0.86165,-0.10016 1.57472,-0.38067 2.05847,-0.80977 0.1337,-0.1186 0.2925,-0.29397 0.3768,-0.41612 l 0.0586,-0.0848 -0.19055,-0.25387 c -0.82797,-1.10307 -2.03852,-2.34033 -3.36455,-3.43877 -0.24636,-0.20408 -0.30754,-0.24649 -1.08547,-0.75253 -4.74634,-3.08741 -9.76776,-5.98411 -18.00656,-10.38744 -0.65096,-0.34791 -1.19021,-0.63656 -1.19834,-0.64144 -0.0297,-0.0178 0.0774,0.1335 1.1005,1.55522 1.4627,2.0326 2.11926,2.99261 2.80796,4.10575 0.40696,0.65778 0.86058,1.45957 1.12449,1.98758 0.0639,0.12795 0.12178,0.23263 0.12849,0.23263 0.0118,0 0.34125,-0.22207 0.69912,-0.47125 0.095,-0.0661 0.1785,-0.11389 0.18556,-0.10611 0.007,0.008 0.62813,0.75137 1.38016,1.65243 1.08771,1.30326 1.37931,1.64328 1.4259,1.66276 0.039,0.0163 0.0935,0.0222 0.16314,0.0178 0.0993,-0.006 0.10807,-0.0104 0.17354,-0.0797 0.13758,-0.14562 0.18177,-0.38591 0.16637,-0.90471 -0.01,-0.32967 -0.0227,-0.46324 -0.11608,-1.19989 -0.0618,-0.48728 -0.30516,-2.71054 -0.29943,-2.73512 0.007,-0.0295 1.52969,1.8265 1.82221,2.22088 0.32804,0.44228 0.59658,0.82635 1.11859,1.59986 1.28096,1.8981 1.47006,2.17144 1.92565,2.78342 1.25796,1.6898 2.39762,2.78299 3.6492,3.50045 0.96473,0.55302 2.02963,0.88221 3.14532,0.97228 0.3832,0.0309 0.4051,0.0307 0.75095,-0.01 z m -19.07678,-1.31226 c 0.36145,-0.0737 0.6541,-0.23215 0.94296,-0.51069 0.53972,-0.52043 0.93726,-1.35301 1.24514,-2.60775 0.0638,-0.2601 0.19866,-0.90079 0.19116,-0.90828 -0.002,-0.002 -0.0439,0.0451 -0.0931,0.10474 -0.14437,0.17494 -0.65656,0.69226 -0.93022,0.93953 -0.26912,0.24318 -0.91293,0.7861 -0.92038,0.77615 -0.002,-0.003 -0.0578,-0.24836 -0.12292,-0.54466 -0.22805,-1.03696 -0.43299,-1.78845 -0.63886,-2.34265 -0.055,-0.14815 -0.10396,-0.28222 -0.10873,-0.29793 -0.016,-0.0526 -0.0334,-0.0294 -0.0609,0.0816 -0.1328,0.53498 -0.49479,1.82765 -0.68687,2.45285 -0.38886,1.26567 -0.43632,2.02664 -0.15386,2.46681 0.0953,0.14852 0.26765,0.28483 0.43966,0.34772 0.22247,0.0813 0.61519,0.1 0.89695,0.0425 z m 20.26562,-3.84066 c -0.0835,-0.0927 -0.68932,-0.8189 -1.05892,-1.26927 -0.62316,-0.75936 -0.99895,-1.22559 -2.38162,-2.95484 -2.2265,-2.78459 -3.20118,-3.97646 -6.66179,-8.14621 -2.90621,-3.50176 -4.19573,-5.07198 -5.68444,-6.92184 -0.31956,-0.39707 -0.39681,-0.48217 -0.66874,-0.73665 -2.08592,-1.95202 -4.35442,-3.33972 -7.51497,-4.5971 -0.49528,-0.19704 -0.5558,-0.22535 -0.65001,-0.30406 -0.25069,-0.20944 -0.42513,-0.55921 -0.53121,-1.06516 -0.0559,-0.26671 -0.0838,-0.48312 -0.14077,-1.09225 -0.0553,-0.59149 -0.0855,-0.82408 -0.13123,-1.01215 -0.0175,-0.0718 -0.0509,-0.22611 -0.0743,-0.34283 -0.16337,-0.81478 -0.3943,-1.34883 -0.73958,-1.71026 -0.32131,-0.33635 -0.71124,-0.51405 -1.26223,-0.57521 l -0.0929,-0.0103 -0.0102,0.0623 c -0.091,0.55681 -0.21423,0.94099 -0.45783,1.42719 -0.26956,0.53798 -0.56592,0.95196 -0.96913,1.35375 -0.12196,0.12151 -0.29316,0.27432 -0.38048,0.33957 -0.15854,0.11849 -0.44575,0.29606 -0.47939,0.29639 -0.0166,1.6e-4 -0.28423,-0.54926 -0.28423,-0.58341 0,-0.009 0.0312,-0.0294 0.0694,-0.0465 0.10325,-0.0462 0.30722,-0.20535 0.41766,-0.32586 0.52389,-0.57173 0.77531,-1.58432 0.60501,-2.43656 l -0.0173,-0.0867 -0.0925,0.0107 c -0.59245,0.0688 -2.29282,0.31088 -2.34536,0.3339 -0.0245,0.0107 -0.0119,0.0146 0.05,0.0154 0.16289,0.002 0.42557,0.091 0.60079,0.20305 0.11047,0.0707 0.27207,0.22105 0.34651,0.32246 0.0536,0.0731 0.0582,0.0874 0.0485,0.15237 -0.0278,0.18554 -0.21317,0.32964 -0.53969,0.41959 -0.11284,0.0311 -0.17168,0.036 -0.43262,0.036 -0.26052,0 -0.31995,-0.005 -0.43261,-0.0359 -0.37423,-0.10276 -0.58874,-0.29375 -0.62181,-0.55364 -0.0107,-0.0842 -0.01,-0.087 0.0601,-0.16325 0.13998,-0.15285 0.32525,-0.27547 0.50127,-0.33175 0.0512,-0.0164 0.087,-0.0301 0.0795,-0.0306 -0.0808,-0.005 -1.32168,0.15598 -2.6964,0.35033 -0.60158,0.085 -1.21867,0.17139 -1.37131,0.19189 l -0.27753,0.0373 0.20407,0.0548 c 0.49113,0.13189 1.00305,0.31097 2.02431,0.70817 1.02097,0.3971 1.46988,0.55053 1.99165,0.68075 0.3933,0.0982 0.74991,0.16166 1.05297,0.18751 0.0628,0.005 0.1445,0.0135 0.18143,0.018 l 0.0672,0.008 -0.006,0.10953 c -0.007,0.12622 -0.0931,1.8799 -0.12271,2.50931 -0.0264,0.56113 -0.0266,2.19327 -4.2e-4,2.59569 0.028,0.43003 0.0633,0.79679 0.11044,1.14629 0.3457,2.56496 1.41611,4.33531 3.35095,5.54214 0.25182,0.15708 0.5068,0.29818 0.51821,0.28677 0.004,-0.004 -0.0106,-0.0402 -0.0329,-0.0801 -0.0741,-0.13249 -0.23576,-0.50137 -0.31205,-0.71183 -0.22821,-0.62957 -0.32248,-1.15393 -0.32359,-1.79998 -7.4e-4,-0.42428 0.0199,-0.61556 0.10339,-0.95597 0.14074,-0.57422 0.43011,-1.14508 0.84359,-1.6642 0.30211,-0.3793 0.82559,-0.8601 1.29859,-1.1927 0.79083,-0.55609 1.85264,-1.04813 2.62567,-1.21673 0.20678,-0.0451 0.44968,-0.0527 0.47371,-0.0149 0.0234,0.037 0.0209,0.0435 -0.0451,0.11651 -0.0837,0.0927 -0.2228,0.19613 -0.82045,0.6103 -0.81561,0.5652 -1.21776,0.87162 -1.64067,1.25007 -0.81169,0.72635 -1.26693,1.37911 -1.42498,2.04322 -0.0409,0.17186 -0.0436,0.2066 -0.0419,0.54276 0.007,1.4129 0.43257,2.63817 1.29082,3.71578 0.21317,0.26765 0.78544,0.84477 1.07396,1.08305 0.56356,0.46542 1.20409,0.90497 2.01616,1.3835 0.62811,0.37015 0.978,0.56102 5.30564,2.89446 2.88108,1.55345 3.91264,2.11616 5.30565,2.89416 4.44966,2.48513 7.8968,4.65451 10.80721,6.80128 0.20202,0.14902 0.37043,0.27095 0.37424,0.27096 0.004,1e-5 -0.008,-0.0165 -0.0261,-0.0367 z m -18.80708,-1.45672 c 0.46518,-0.64841 0.5216,-0.94008 0.25584,-1.32262 -0.025,-0.0359 -0.1352,-0.22325 -0.24499,-0.41629 -1.94647,-3.4224 -3.96466,-6.44664 -5.94742,-8.91215 -0.49144,-0.6111 -1.41387,-1.69915 -1.44051,-1.69915 -0.0153,0 0.32083,0.60667 0.61063,1.10194 0.57598,0.98436 1.04269,1.71708 2.38647,3.74661 0.84827,1.28115 1.13917,1.72763 1.48908,2.28551 0.99208,1.58173 1.70844,2.94249 2.22435,4.22526 0.13028,0.32394 0.35932,0.95025 0.42643,1.16609 0.016,0.0516 0.0333,0.0937 0.0384,0.0934 0.005,-2.5e-4 0.0959,-0.12113 0.20168,-0.26864 z M 129.43129,172.2613 c -1.31925,-0.0194 -2.9872,-0.0621 -4.18738,-0.10716 -0.37262,-0.014 -1.17337,-0.029 -1.77944,-0.0334 l -1.10194,-0.008 -0.0536,-0.0512 c -0.0735,-0.0702 -0.20901,-0.2693 -0.25656,-0.37682 -0.0713,-0.16119 -0.096,-0.28352 -0.0958,-0.47506 1.9e-4,-0.23931 0.0418,-0.39545 0.18029,-0.67749 0.0979,-0.19922 0.12096,-0.23294 0.24044,-0.35099 0.14287,-0.14118 0.27601,-0.21838 0.49035,-0.28434 0.6105,-0.18787 1.67028,-0.10157 3.02877,0.24666 0.48393,0.12405 0.46909,0.12139 0.84937,0.15229 0.45475,0.037 1.19914,0.049 1.5917,0.0257 1.22954,-0.073 2.12507,-0.33626 2.89495,-0.85106 0.59123,-0.39533 0.99035,-0.79021 1.16079,-1.14845 0.12787,-0.26878 0.13958,-0.4694 0.0435,-0.74461 -0.0329,-0.0943 -0.074,-0.22651 -0.0912,-0.29385 -0.11282,-0.44058 -0.1093,-1.14433 0.01,-1.91004 0.0762,-0.49074 0.42869,-2.19596 0.57194,-2.76667 0.0357,-0.1424 0.0537,-0.24692 0.0479,-0.27814 -0.005,-0.0275 -0.0491,-0.13054 -0.0976,-0.22897 -0.1815,-0.36813 -0.41139,-0.53347 -0.74358,-0.53481 -0.24505,-9.7e-4 -0.43531,0.0972 -0.609,0.31418 -0.12549,0.15679 -0.25427,0.26052 -0.42605,0.34317 -0.163,0.0784 -0.45346,0.16707 -0.67182,0.205 l -0.16356,0.0284 -0.0834,-0.0423 c -0.11729,-0.0594 -0.3317,-0.22434 -0.42329,-0.32556 -0.15605,-0.17244 -0.28521,-0.4118 -0.34072,-0.6314 -0.0126,-0.0499 -0.0455,-0.22665 -0.0731,-0.39276 -0.0483,-0.2913 -0.09,-0.46775 -0.1313,-0.55647 -0.0108,-0.0232 -0.0642,-0.0747 -0.11871,-0.11427 -0.23079,-0.16788 -0.40422,-0.48186 -0.40422,-0.73179 0,-0.0549 -0.0137,-0.0767 -0.11504,-0.18286 -0.2876,-0.30145 -0.41631,-0.5948 -0.37485,-0.85434 0.0502,-0.31428 0.30744,-0.57055 0.96675,-0.96313 0.57657,-0.34332 0.99306,-0.64403 1.53929,-1.11139 0.37673,-0.32234 0.78568,-0.54985 1.26271,-0.7025 0.64563,-0.2066 0.90804,-0.29452 1.22686,-0.41106 0.18406,-0.0673 0.35356,-0.13202 0.37665,-0.14387 0.0279,-0.0143 0.0489,-0.0453 0.0627,-0.092 0.15038,-0.5121 1.06055,-0.80234 2.51551,-0.80218 0.58859,0 1.00741,0.0488 1.53455,0.17843 0.74078,0.1822 1.47934,0.51545 2.16308,0.976 0.57521,0.38745 1.13846,0.93946 1.62585,1.59343 0.57254,0.76819 1.15848,1.84598 1.59755,2.93851 0.11585,0.28827 0.11538,0.28766 0.44476,0.57442 0.52398,0.45619 1.11797,0.85876 1.69153,1.14643 1.52999,0.76735 3.34489,1.04992 5.40325,0.84125 0.58794,-0.0596 1.26986,-0.17197 1.88083,-0.30994 0.53459,-0.12072 0.47858,-0.0949 0.65288,-0.30131 0.22518,-0.26673 0.72888,-0.76091 0.97962,-0.96111 0.75001,-0.59886 1.53473,-0.95275 2.35811,-1.06345 0.25006,-0.0336 0.63003,-0.026 0.82528,0.0166 1.03922,0.22662 2.01871,1.14561 2.97927,2.79524 l 0.12074,0.20736 -0.0412,0.0757 c -0.10919,0.20061 -0.28281,0.35289 -0.45575,0.3997 -0.0947,0.0256 -0.12429,0.027 -0.22065,0.0105 -0.0612,-0.0105 -0.15226,-0.0372 -0.20234,-0.0594 -0.25495,-0.11275 -0.59438,-0.42502 -0.9593,-0.88253 -0.36623,-0.45917 -0.63464,-0.69899 -0.95208,-0.85069 -0.20286,-0.0969 -0.37876,-0.13672 -0.60531,-0.13686 -0.4081,-2.6e-4 -0.8091,0.17337 -1.25391,0.54294 l -0.0478,0.0397 0.11314,0.0621 c 1.80344,0.98926 3.33586,1.99663 4.70863,3.09534 1.16619,0.93337 2.04887,1.90483 2.66134,2.929 0.16768,0.28039 0.41195,0.78442 0.48736,1.0056 0.28061,0.82308 0.19287,1.56591 -0.26644,2.2557 -0.11041,0.1658 -0.3603,0.46175 -0.48319,0.57223 l -0.0844,0.0759 h -7.78417 -7.78417 l -0.0925,-0.12651 c -0.10695,-0.14633 -0.22375,-0.38062 -0.25432,-0.51016 -0.0846,-0.35825 0.0689,-0.70874 0.4319,-0.98615 0.53045,-0.40541 1.43736,-0.45647 2.90013,-0.16326 0.11224,0.0225 0.45384,0.10277 0.75912,0.17839 0.93443,0.23147 1.25567,0.27748 1.84473,0.26418 0.31969,-0.007 0.40486,-0.0147 0.57321,-0.0505 0.65172,-0.13835 1.12912,-0.46281 1.44433,-0.98165 l 0.0642,-0.1057 -0.04,-0.0984 c -0.16287,-0.40082 -0.58016,-0.73917 -1.17896,-0.95593 -0.53719,-0.19445 -1.19291,-0.29208 -1.69974,-0.25307 -0.48771,0.0375 -0.80766,0.12836 -1.32613,0.37641 -0.18407,0.0881 -0.42282,0.19316 -0.53057,0.23355 -0.77904,0.29199 -1.94633,0.59116 -3.5507,0.91004 -1.69201,0.33629 -2.76225,0.49024 -4.10576,0.59062 -0.37205,0.0278 -1.75269,0.0278 -2.04879,0 -0.12122,-0.0114 -0.37466,-0.0403 -0.56322,-0.0642 -0.4472,-0.0568 -1.06118,-0.064 -1.27335,-0.015 -0.18171,0.042 -0.31941,0.11073 -0.39597,0.19771 -0.0759,0.0862 -0.10202,0.16441 -0.10175,0.30457 2.2e-4,0.12743 0.0253,0.22453 0.10564,0.40884 0.0498,0.11421 0.0595,0.1527 0.0505,0.20033 -0.10814,0.57645 -3.0837,0.82707 -8.81683,0.74262 z m 6.34841,-1.88772 c 0.0149,-0.19447 0.0801,-0.50751 0.14229,-0.68383 0.27195,-0.77088 0.85978,-1.19188 1.78611,-1.27923 0.3764,-0.0355 0.69197,-0.017 1.37947,0.0807 1.97678,0.28094 3.82505,0.36024 5.50041,0.23599 1.54029,-0.11423 3.38527,-0.6168 5.78493,-1.5758 0.3928,-0.15699 1.45847,-0.60602 1.66696,-0.7024 l 0.0473,-0.0219 -0.0111,-0.35951 c -0.0396,-1.27693 -0.24845,-1.90618 -0.65091,-1.96135 -0.0383,-0.005 -0.0989,-0.002 -0.13473,0.008 -0.20912,0.0559 -1.26399,0.10747 -1.94252,0.095 -0.87469,-0.016 -1.54798,-0.0845 -2.29367,-0.23328 -1.86232,-0.37156 -3.44382,-1.15781 -4.83682,-2.40465 l -0.23546,-0.21075 -0.20232,0.25562 c -0.46525,0.58782 -0.85085,1.01952 -1.41795,1.58748 -1.48578,1.48804 -3.15046,2.67279 -5.1544,3.66836 -0.23174,0.11513 -0.52572,0.25666 -0.65328,0.31451 l -0.23193,0.10519 -0.0527,0.11396 c -0.0464,0.10027 -0.0536,0.13484 -0.0599,0.28781 -0.008,0.20067 0.0112,0.33217 0.0815,0.55201 0.13127,0.41027 0.41112,0.90976 0.83758,1.49498 0.19483,0.26738 0.61591,0.7915 0.62926,0.78325 0.006,-0.004 0.0158,-0.0712 0.0219,-0.15005 z m 25.26898,-0.63297 c 0.17712,-0.0266 0.28062,-0.063 0.31382,-0.11039 0.0205,-0.0293 0.0146,-0.0565 -0.0556,-0.25518 -0.45473,-1.28589 -1.11612,-2.3419 -2.05714,-3.28454 -1.19908,-1.20114 -2.58507,-1.97496 -4.10782,-2.29346 -0.28419,-0.0594 -0.3992,-0.0668 -0.60554,-0.0388 -0.24606,0.0334 -0.3984,0.099 -0.53909,0.23207 -0.15543,0.14699 -0.22352,0.34606 -0.22181,0.64847 0.001,0.20382 0.0369,0.42475 0.10973,0.67729 0.0619,0.21482 0.0863,0.2599 0.28325,0.52279 0.58926,0.78672 1.56601,1.58097 2.89891,2.35729 0.78294,0.45601 1.75797,0.93946 2.92007,1.44788 l 0.3146,0.13763 0.29578,-0.009 c 0.16268,-0.005 0.36558,-0.0194 0.45089,-0.0322 z m -26.46062,-4.15682 c 2.37072,-1.19031 4.27852,-2.6438 5.80787,-4.42483 0.43855,-0.51072 1.05878,-1.33243 1.05878,-1.40271 0,-0.0164 -0.0255,-0.12944 -0.0567,-0.2511 -0.19665,-0.76727 -0.65991,-1.51994 -1.38502,-2.25024 -0.80684,-0.81262 -1.59339,-1.31998 -2.3458,-1.51313 -0.13671,-0.0351 -0.44102,-0.0869 -0.45113,-0.0768 -0.004,0.004 0.0562,0.10494 0.13284,0.22522 0.38707,0.60744 0.54608,1.11537 0.45664,1.45873 -0.0888,0.34096 -0.37196,0.56243 -0.86949,0.68008 -0.29823,0.0705 -0.55496,0.26573 -0.67236,0.51127 -0.0346,0.0724 -0.0719,0.17574 -0.0829,0.22961 -0.0268,0.13177 -0.0233,0.39016 0.008,0.57954 0.014,0.0853 0.0255,0.19549 0.0255,0.24488 -2.5e-4,0.3874 -0.21698,0.86624 -0.62067,1.3713 -0.0754,0.0943 -0.28578,0.32225 -0.46761,0.5066 l -0.3306,0.33518 -0.0881,0.21987 c -0.18612,0.46463 -0.34746,1.00206 -0.44335,1.4769 -0.12793,0.6335 -0.16115,1.00794 -0.15214,1.7148 0.006,0.49139 0.0124,0.57888 0.0406,0.57888 0.005,0 0.20121,-0.0963 0.43573,-0.21409 z m -3.46476,-4.11777 c 0.0951,-0.0464 0.18459,-0.13232 0.28085,-0.2697 0.22114,-0.31559 0.46189,-0.42104 0.92484,-0.40507 0.26009,0.009 0.36883,0.0321 0.53873,0.11456 0.13744,0.0667 0.33171,0.25768 0.40562,0.39871 l 0.0535,0.10216 0.16845,-0.11466 c 0.77576,-0.52806 1.20299,-1.20803 1.29743,-2.06499 0.0273,-0.24742 0.0296,-1.01355 0.003,-1.11826 -0.0625,-0.24958 -0.14849,-0.34687 -0.43058,-0.4871 -0.33313,-0.1656 -0.45739,-0.30665 -0.4847,-0.55017 -0.0136,-0.121 -9.6e-4,-0.29048 0.0292,-0.39212 0.0498,-0.16811 0.20627,-0.3882 0.35841,-0.50422 0.0463,-0.0353 0.082,-0.0664 0.0793,-0.0691 -0.003,-0.003 -0.15864,0.0314 -0.34655,0.0758 -0.48734,0.11502 -1.00158,0.21738 -1.43545,0.28571 -0.20651,0.0325 -0.45628,0.0805 -0.55505,0.10655 -0.43229,0.11414 -0.80391,0.31208 -1.18357,0.63042 -0.46034,0.38599 -0.92189,0.72778 -1.47284,1.0907 -0.1591,0.1048 -0.29422,0.19856 -0.30027,0.20835 -0.006,0.01 -0.0145,0.0669 -0.0188,0.12699 -0.0138,0.19239 0.0745,0.41055 0.25819,0.63818 0.0966,0.11971 0.0979,0.12269 0.0854,0.19503 -0.0237,0.13694 -0.0124,0.29577 0.027,0.37857 0.0749,0.15746 0.24704,0.27566 0.49209,0.33789 0.11649,0.0296 0.12317,0.0296 0.22742,7.2e-4 0.13518,-0.0375 0.42077,-0.14011 0.61088,-0.21957 0.24305,-0.10159 0.40579,-0.0781 0.60428,0.0872 0.12623,0.10509 0.12653,0.10408 -0.0527,0.17436 -0.1931,0.0757 -0.46595,0.2095 -0.53834,0.26394 -0.10237,0.077 -0.30417,0.14672 -0.50995,0.17621 -0.16924,0.0243 -0.16325,0.0207 -0.16325,0.0981 0,0.10786 0.0464,0.32849 0.0897,0.42642 0.0579,0.13083 0.11564,0.19685 0.21468,0.24531 0.0787,0.0385 0.10249,0.0425 0.20652,0.0351 0.0781,-0.006 0.13674,-0.001 0.17471,0.0136 0.079,0.0304 0.28557,0.0215 0.36152,-0.0155 z m 2.28315,-1.56283 c -1.21407,-0.13312 -1.84875,-0.2991 -2.09844,-0.5488 -0.0566,-0.0566 -0.0814,-0.10033 -0.11641,-0.20575 -0.0382,-0.11494 -0.0446,-0.16149 -0.0453,-0.32973 -8e-4,-0.18735 0.001,-0.20072 0.0513,-0.3061 0.0287,-0.0606 0.0618,-0.10986 0.0735,-0.10945 0.0117,4e-4 0.0542,0.018 0.0945,0.039 l 0.0732,0.0383 2.5e-4,0.17729 c 2.3e-4,0.15875 0.005,0.18726 0.0449,0.27256 0.086,0.18351 0.22639,0.31274 0.47777,0.43967 0.38893,0.19638 0.88914,0.30435 1.85242,0.39983 l 0.12195,0.0121 -0.16277,0.0694 c -0.0895,0.0382 -0.18113,0.0684 -0.20358,0.0673 -0.0225,-0.001 -0.0959,-0.008 -0.16325,-0.0156 z m -1.85584,-1.67377 c -0.0203,-0.0529 0.0112,-0.50774 0.0441,-0.63619 0.0931,-0.36416 0.31216,-0.48837 0.76143,-0.43182 0.25134,0.0316 0.48981,0.12013 0.63307,0.23492 l 0.048,0.0385 -0.0886,0.0937 c -0.0488,0.0515 -0.13648,0.12982 -0.19494,0.17393 -0.19609,0.14797 -0.56919,0.31825 -0.81952,0.37404 -0.0788,0.0176 -0.0959,0.028 -0.11297,0.0692 -0.0111,0.0267 -0.0427,0.0623 -0.0704,0.0792 -0.0639,0.039 -0.18587,0.0417 -0.20014,0.005 z m -0.49559,-0.25534 c -0.0291,-0.12684 -0.0389,-0.43104 -0.0173,-0.53508 0.0548,-0.26368 0.20547,-0.43454 0.5107,-0.57915 0.28528,-0.13516 0.53571,-0.15701 1.03769,-0.0905 0.30991,0.041 0.34058,0.0537 0.25912,0.10709 -0.0699,0.0458 -0.14501,0.0583 -0.43461,0.0727 -0.45306,0.0224 -0.61549,0.0752 -0.80171,0.26065 -0.16583,0.16515 -0.29629,0.46171 -0.33326,0.75758 l -0.0115,0.0925 h -0.0947 -0.0947 z m 4.99845,-0.61634 c 0.11515,-0.0363 0.21483,-0.10579 0.29118,-0.2029 0.12935,-0.16455 0.21748,-0.4523 0.21948,-0.71658 l 0.001,-0.16044 -0.0533,-0.0477 c -0.0479,-0.0428 -0.0645,-0.0477 -0.16325,-0.0473 -0.2586,8.5e-4 -0.37664,0.1515 -0.42941,0.54808 -0.0149,0.11188 -0.0388,0.18613 -0.11494,0.35767 -0.0918,0.2067 -0.10945,0.26688 -0.0853,0.29106 0.0235,0.0235 0.23416,0.01 0.3343,-0.0218 z m -0.8705,-0.0532 c 0.16371,-0.10834 0.27797,-0.39382 0.32879,-0.82148 0.0429,-0.36107 0.12069,-0.51432 0.30746,-0.60579 0.0834,-0.0409 0.10926,-0.0454 0.24821,-0.0436 0.11789,0.002 0.19033,0.0127 0.30202,0.0466 0.0808,0.0245 0.15976,0.0483 0.17545,0.0528 0.0268,0.008 0.027,0.004 0.002,-0.0549 -0.0436,-0.10516 -0.16696,-0.27862 -0.24814,-0.34888 -0.148,-0.12809 -0.34159,-0.19583 -0.55964,-0.19583 -0.12339,0 -0.19908,0.0283 -0.31108,0.11646 -0.0748,0.0589 -0.21708,0.24621 -0.30824,0.40595 -0.0479,0.084 -0.13211,0.18654 -0.26818,0.32672 -0.30897,0.3183 -0.47076,0.53668 -0.51292,0.69236 -0.0154,0.0569 -0.0125,0.0729 0.0259,0.14347 0.1145,0.21037 0.36262,0.3431 0.62624,0.33499 0.10394,-0.003 0.13449,-0.011 0.1918,-0.0489 z m 4.2964,-7.25381 c -2.87559,-0.088 -5.20136,-0.41951 -7.43607,-1.0598 -4.69939,-1.34647 -8.57083,-3.96899 -12.51929,-8.48059 -0.3574,-0.40838 -0.42113,-0.50876 -0.45155,-0.71123 -0.0583,-0.38788 0.18945,-0.76031 0.57613,-0.86608 0.0743,-0.0203 2.80333,-0.0211 20.67152,-0.006 11.32226,0.01 21.05609,0.0239 21.63073,0.0313 l 1.0448,0.0136 0.18774,0.0441 c 1.205,0.2829 2.24175,1.36498 2.89385,3.02035 0.28413,0.7213 0.46688,1.5029 0.56078,2.39847 0.0344,0.32821 0.0492,1.46953 0.0242,1.87369 -0.065,1.05253 -0.27105,1.67535 -0.69353,2.09591 -0.1557,0.155 -0.28143,0.2431 -0.48805,0.342 -0.15618,0.0748 -0.40663,0.15462 -0.48487,0.15462 -0.18019,0 -0.55502,-0.10383 -0.79293,-0.21964 -0.74633,-0.36332 -1.20962,-1.15278 -1.41829,-2.41686 -0.10202,-0.61795 -0.13304,-1.10677 -0.15611,-2.45979 -0.009,-0.5147 -0.0236,-1.06805 -0.0329,-1.22967 -0.0415,-0.71947 -0.11739,-1.24131 -0.23923,-1.64432 l -0.0431,-0.14242 -0.292,0.28118 c -0.96894,0.93304 -1.61291,1.51723 -2.39675,2.17427 -4.78054,4.00714 -9.72025,6.09784 -15.73738,6.66072 -0.49121,0.0459 -1.25031,0.098 -1.80392,0.12367 -0.36223,0.0168 -2.25317,0.0329 -2.60385,0.0222 z m 2.4406,-1.57428 c 6.6189,-0.25839 11.60976,-2.15691 16.56995,-6.30318 0.55986,-0.468 1.3315,-1.15369 1.74678,-1.55222 l 0.11428,-0.10968 -1.33049,-0.002 c -0.73177,-8.5e-4 -9.45181,-0.011 -19.37787,-0.0226 -9.92605,-0.0116 -18.04981,-0.0191 -18.0528,-0.0167 -0.0103,0.008 0.54426,0.5874 0.96827,1.01125 1.81539,1.81471 3.58604,3.18369 5.47741,4.23485 0.3771,0.20958 1.20334,0.62097 1.59169,0.7925 2.84596,1.25707 5.97023,1.88581 9.86035,1.98433 0.59647,0.0151 1.82978,0.006 2.43243,-0.0171 z m 23.01886,-1.30377 c 0.10904,-0.31211 0.14762,-0.59589 0.17223,-1.2668 0.0191,-0.52116 0.0117,-0.74259 -0.0433,-1.28979 -0.12485,-1.24353 -0.41863,-2.19738 -0.90726,-2.94567 -0.047,-0.072 -0.0874,-0.12892 -0.0898,-0.12654 -0.002,0.002 0.002,0.0518 0.0102,0.10983 0.0596,0.43062 0.093,1.1804 0.10629,2.38284 0.0104,0.93642 0.0248,1.25611 0.0752,1.66516 0.0879,0.71318 0.2576,1.19495 0.54215,1.53959 0.0357,0.0432 0.071,0.0723 0.0786,0.0647 0.008,-0.008 0.0326,-0.0676 0.0556,-0.13333 z"
       id="path1815" />
  </g>
</svg>
