<?xml version="1.0" encoding="UTF-8" standalone="no"?>
<!-- Created with Inkscape (http://www.inkscape.org/) -->

<svg
   width="1080"
   height="1920"
   viewBox="0 0 285.75001 508"
   version="1.1"
   id="svg5"
   inkscape:export-filename="/Users/albertotomasoni/ALBERTO.png"
   inkscape:export-xdpi="96"
   inkscape:export-ydpi="96"
   inkscape:version="1.1.1 (c3084ef, 2021-09-22)"
   sodipodi:docname="elena.svg"
   xmlns:inkscape="http://www.inkscape.org/namespaces/inkscape"
   xmlns:sodipodi="http://sodipodi.sourceforge.net/DTD/sodipodi-0.dtd"
   xmlns="http://www.w3.org/2000/svg"
   xmlns:svg="http://www.w3.org/2000/svg">
  <sodipodi:namedview
     id="namedview7"
     pagecolor="#ffffff"
     bordercolor="#666666"
     borderopacity="1.0"
     inkscape:pageshadow="2"
     inkscape:pageopacity="0.0"
     inkscape:pagecheckerboard="0"
     inkscape:document-units="px"
     showgrid="false"
     units="px"
     inkscape:zoom="0.40617208"
     inkscape:cx="454.24097"
     inkscape:cy="918.32999"
     inkscape:window-width="1440"
     inkscape:window-height="900"
     inkscape:window-x="0"
     inkscape:window-y="0"
     inkscape:window-maximized="0"
     inkscape:current-layer="g2878" />
  <defs
     id="defs2" />
  <g
     inkscape:label="ALBERTO"
     inkscape:groupmode="layer"
     id="g2878">
    <text
       xml:space="preserve"
       style="font-weight:500;font-size:19.0077px;line-height:1.25;font-family:'Helvetica Neue';-inkscape-font-specification:'Helvetica Neue Medium';text-align:center;text-decoration-color:#000000;text-anchor:middle;white-space:pre;inline-size:858.441;fill=currentColor;stroke-width:1.51181;stroke-linecap:round;paint-order:markers fill stroke;stop-color:#000000"
       x="413.24438"
       y="323.54794"
       id="text2874"
       transform="matrix(2.7839642,0,0,2.7839642,-1008.2442,-810.36416)"><tspan
         x="413.24438"
         y="323.54794"
         id="tspan2395"><tspan
           style="font-weight:normal;font-family:Bison;-inkscape-font-specification:Bison"
           id="tspan2393">elena</tspan></tspan></text>
    <path
       style="fill=currentColor;stroke-width:0.0163251"
       d="m 112.57565,325.53054 v -1.08562 l 11.65202,-0.002 c 11.52481,-0.002 11.65006,-0.002 11.47245,-0.0329 -1.03135,-0.17914 -1.46367,-0.26231 -2.16307,-0.41613 -7.3812,-1.62343 -13.31566,-5.01193 -16.92277,-9.6627 -0.58953,-0.76011 -1.15706,-1.61762 -1.63138,-2.46495 -0.17999,-0.32154 -0.53255,-1.02337 -0.68887,-1.37131 -0.96808,-2.15479 -1.51184,-4.38173 -1.6702,-6.8402 -0.0104,-0.16162 -0.0255,-0.2963 -0.0335,-0.29929 -0.0195,-0.007 -0.0195,-165.53898 -4e-5,-165.53898 0.008,0 0.0194,-0.0679 0.0253,-0.15101 0.0953,-1.34139 0.25224,-2.36665 0.53277,-3.48132 0.94755,-3.76505 3.04602,-7.04208 6.25242,-9.76392 4.4323,-3.76249 10.87447,-6.28349 18.22572,-7.13222 0.18427,-0.0213 0.8756,-0.0245 5.24851,-0.0245 4.3729,0 5.06424,0.003 5.24851,0.0245 5.49808,0.63478 10.54357,2.21735 14.58645,4.5752 2.81155,1.63973 5.10287,3.62437 6.81768,5.90519 1.59143,2.11671 2.67364,4.4837 3.2207,7.04426 0.19381,0.90714 0.30749,1.74717 0.38608,2.85281 0.006,0.0831 0.0173,0.15101 0.0253,0.15101 0.0195,0 0.0195,165.53171 0,165.53898 -0.008,0.003 -0.0232,0.13767 -0.0336,0.29929 -0.17664,2.74236 -0.84056,5.23076 -2.01667,7.5585 -1.29492,2.56291 -3.16736,4.82498 -5.61609,6.78475 -3.45195,2.76268 -7.99905,4.82482 -13.16618,5.97095 -0.7619,0.169 -1.32362,0.27731 -2.36713,0.45648 -0.0568,0.01 4.19319,0.0161 11.56223,0.0174 l 11.65202,0.002 v 1.08562 1.08561 h -30.29934 -30.29933 v -1.08561 z m 32.01347,-2.7337 c 1.24172,-0.0564 2.21654,-0.13237 3.26502,-0.25432 6.672,-0.77598 12.49854,-3.06085 16.61449,-6.51537 3.09599,-2.59846 5.1445,-5.80235 6.02707,-9.4264 0.24596,-1.00999 0.38062,-1.88157 0.47027,-3.04376 0.0277,-0.35886 0.029,-4.03085 0.029,-82.93138 0,-66.56992 -0.004,-82.61122 -0.0207,-82.84159 -0.10152,-1.39909 -0.31601,-2.57779 -0.69184,-3.8019 -0.61505,-2.00328 -1.66091,-3.91554 -3.05904,-5.59318 -0.68243,-0.81886 -1.59664,-1.73375 -2.43192,-2.43375 -1.65022,-1.38294 -3.61809,-2.6012 -5.78201,-3.57951 -3.34341,-1.51155 -7.17198,-2.51653 -11.29402,-2.96462 -2.50209,-0.272 -5.20561,-0.32867 -7.77889,-0.16306 -7.38749,0.47543 -14.01571,2.74468 -18.53387,6.34528 -1.06017,0.84487 -2.06087,1.81763 -2.87595,2.79566 -1.39813,1.67764 -2.444,3.5899 -3.05905,5.59318 -0.37583,1.22411 -0.59032,2.40281 -0.69183,3.8019 -0.0167,0.23037 -0.0207,16.27167 -0.0207,82.84159 0,78.90053 0.001,82.57252 0.029,82.93138 0.0897,1.16219 0.22431,2.03377 0.47027,3.04376 1.02579,4.21218 3.6229,7.84581 7.60044,10.63377 4.20362,2.94645 9.81796,4.83988 16.05328,5.41395 0.88937,0.0819 1.81342,0.13521 2.95483,0.17049 0.34241,0.0106 2.3684,-0.006 2.72629,-0.0221 z m -6.57084,-19.55034 c -5.79132,-0.0472 -10.53291,-0.0866 -10.53687,-0.0876 -0.004,-9.8e-4 0.0765,-0.0808 0.1788,-0.17737 0.23812,-0.22469 0.56032,-0.55568 0.98053,-1.00729 0.86467,-0.92929 1.29236,-1.28743 1.72619,-1.44549 0.21115,-0.0769 0.31225,-0.0852 0.69237,-0.0564 1.04728,0.0792 2.49343,0.0533 3.73478,-0.067 0.5401,-0.0523 1.61954,-0.19944 1.66366,-0.2267 0.0265,-0.0164 0.23355,-0.68563 0.46493,-1.50284 0.63761,-2.25196 1.47749,-5.71402 1.724,-7.10642 l 0.0182,-0.10298 -0.0769,-0.13373 c -0.32531,-0.56572 -1.0272,-1.67261 -1.87567,-2.95799 -1.28236,-1.9427 -1.78893,-2.73489 -2.35406,-3.68131 -0.68663,-1.14989 -1.31737,-2.33777 -1.78136,-3.3548 l -0.0968,-0.21223 -0.17757,-0.15322 c -1.12668,-0.97224 -1.96512,-1.9533 -2.61757,-3.06282 -0.17411,-0.29608 -0.49396,-0.94726 -0.61342,-1.24886 -0.34774,-0.87793 -0.53854,-1.72635 -0.59659,-2.65283 -0.0312,-0.49839 -0.0129,-0.88043 0.10914,-2.26918 0.13601,-1.54831 0.14654,-1.68925 0.16355,-2.19034 l 0.0112,-0.32929 -0.0719,-0.0191 c -0.51132,-0.13614 -1.08578,-0.32296 -1.89212,-0.61532 -1.2611,-0.45725 -1.55889,-0.55657 -2.0488,-0.68331 -0.75657,-0.19573 -1.3067,-0.26443 -1.97533,-0.24666 -0.60767,0.0161 -1.10824,0.0991 -1.72638,0.28607 -0.0875,0.0265 -0.15917,0.0462 -0.15917,0.0438 0,-0.009 0.31103,-0.71197 0.41405,-0.93592 0.4352,-0.94603 0.87162,-1.46547 1.53052,-1.82166 0.32373,-0.175 0.8976,-0.31642 1.52451,-0.3757 0.14366,-0.0136 0.45588,-0.0325 0.69382,-0.0419 1.31181,-0.0523 1.52279,-0.0678 1.92636,-0.14098 0.36677,-0.0665 0.66823,-0.15667 1.00399,-0.30017 0.13325,-0.057 0.172,-0.0653 0.41629,-0.09 0.14815,-0.015 0.63668,-0.0703 1.08561,-0.12292 1.53346,-0.17986 1.9185,-0.21158 2.70997,-0.22327 0.65858,-0.01 0.96646,0.004 1.4366,0.0621 0.48761,0.0607 1.1552,0.21752 1.44661,0.33978 0.61735,0.25899 1.22423,1.18307 1.58765,2.41748 0.13644,0.46342 0.1757,0.66182 0.33655,1.70063 0.0875,0.56528 0.14006,0.84966 0.20604,1.11544 0.0505,0.20358 0.1318,0.45276 0.15808,0.48466 0.0109,0.0132 0.12636,0.0669 0.25655,0.11929 2.27866,0.91635 4.22346,1.97697 5.87703,3.2051 1.05999,0.78728 1.94981,1.57931 2.64427,2.35367 1.36086,1.51743 2.81271,3.23532 4.48398,5.30565 0.85919,1.06434 1.91046,2.39382 3.95653,5.00363 2.30997,2.9464 3.39029,4.3004 4.70871,5.90151 1.41211,1.7149 2.84326,3.36529 4.09249,4.71939 0.52824,0.57258 0.78019,0.88694 1.02815,1.28281 0.51446,0.82134 0.60131,1.42007 0.25491,1.75736 -0.1781,0.17342 -0.41672,0.25868 -0.87712,0.31342 l -0.0736,0.009 -0.0539,0.16575 c -0.11584,0.35612 -0.32554,0.71971 -0.58723,1.01813 -0.71194,0.81193 -2.01948,1.366 -3.5227,1.49277 -0.18833,0.0159 -0.24601,0.014 -0.48975,-0.0159 -1.84898,-0.22647 -3.42506,-0.82072 -4.89423,-1.8453 -0.95071,-0.66301 -1.94819,-1.62175 -2.83653,-2.72634 -0.6582,-0.81842 -1.35162,-1.8221 -2.08863,-3.02314 -0.0754,-0.12288 -0.13941,-0.22107 -0.14225,-0.21823 -0.003,0.003 -0.023,0.0929 -0.0447,0.20009 -0.16319,0.80431 -0.53882,1.28319 -1.16026,1.47922 -0.19071,0.0602 -0.4305,0.092 -0.56562,0.0752 -0.59346,-0.074 -1.18376,-0.39861 -1.93525,-1.06424 -0.10132,-0.0897 -0.18643,-0.16036 -0.18914,-0.15691 -0.003,0.003 -0.0141,0.0981 -0.0252,0.2103 -0.0449,0.45086 -0.15272,1.06744 -0.27128,1.55129 -0.14365,0.58621 -0.32317,1.13963 -0.74126,2.2851 l -0.27707,0.75911 0.32986,0.0102 c 1.18835,0.0369 2.98527,0.57433 4.16593,1.24603 0.71808,0.40853 1.27339,0.90691 1.56294,1.40268 0.067,0.11472 0.16344,0.33509 0.18485,0.42241 l 0.011,0.0449 -0.79762,-0.002 c -0.43869,-10e-4 -5.53597,-0.0408 -11.32729,-0.0879 z m 21.76949,-2.03143 c 0.72924,-0.10376 1.3044,-0.31351 1.7631,-0.64293 0.17072,-0.12262 0.40417,-0.35213 0.53041,-0.5215 l 0.0947,-0.12706 -0.0545,-0.077 c -0.63708,-0.90036 -1.80364,-2.14616 -2.9546,-3.15531 -0.50842,-0.44579 -0.77682,-0.65883 -1.0851,-0.86136 -3.99766,-2.62616 -8.4515,-5.26008 -14.18649,-8.3896 -1.92257,-1.04913 -5.55613,-3.00001 -5.56687,-2.98889 -0.003,0.003 0.0371,0.064 0.0886,0.13584 0.0515,0.0718 0.36554,0.50893 0.69787,0.97134 0.91592,1.27443 1.20883,1.68478 1.51495,2.12226 1.19943,1.71413 1.9651,2.94113 2.64052,4.23146 l 0.21962,0.41955 0.16186,-0.10738 c 0.089,-0.0591 0.28084,-0.19094 0.42627,-0.29304 0.14543,-0.10211 0.27144,-0.18565 0.28004,-0.18565 0.009,0 0.62999,0.73646 1.38088,1.63659 0.99005,1.1868 1.38194,1.64542 1.42594,1.66875 0.0407,0.0215 0.0934,0.0323 0.15983,0.0326 0.084,4.9e-4 0.10839,-0.007 0.15941,-0.0454 0.13088,-0.0997 0.18846,-0.2943 0.20175,-0.68176 0.0107,-0.31194 -0.009,-0.59792 -0.0775,-1.1334 -0.063,-0.49114 -0.34442,-3.04552 -0.33775,-3.06552 0.006,-0.0183 1.50787,1.80288 1.72012,2.08602 0.40132,0.53535 0.74753,1.03294 1.57772,2.26752 0.8554,1.2721 1.1502,1.69497 1.61719,2.31982 1.33737,1.78944 2.56134,2.91352 3.93708,3.61576 0.88095,0.44969 1.81287,0.70882 2.87321,0.79894 0.23164,0.0197 0.51497,0.009 0.79177,-0.0307 z M 140.51281,299.933 c 0.98725,-0.14882 1.70532,-1.05721 2.18261,-2.76113 0.037,-0.13194 0.0857,-0.31768 0.1083,-0.41278 0.0548,-0.23064 0.18472,-0.85667 0.17895,-0.86243 -0.003,-0.003 -0.0443,0.0414 -0.0928,0.0976 -0.3038,0.35188 -0.68151,0.72628 -1.12531,1.11542 -0.23155,0.20306 -0.70447,0.59478 -0.71805,0.59478 -0.006,0 -0.0415,-0.1451 -0.08,-0.32242 -0.20754,-0.95551 -0.39387,-1.68565 -0.55773,-2.18551 -0.0917,-0.27979 -0.23832,-0.67649 -0.25689,-0.69512 -0.006,-0.006 -0.073,0.22142 -0.14824,0.50608 -0.17103,0.64716 -0.37774,1.37756 -0.57845,2.04396 -0.26382,0.87591 -0.3294,1.2173 -0.32774,1.70597 9e-4,0.26478 0.006,0.3293 0.0364,0.44078 0.1,0.36952 0.30524,0.59469 0.63123,0.69258 0.22657,0.068 0.4812,0.0824 0.74775,0.0422 z m 20.20086,-4.04472 c -0.59717,-0.69736 -1.43847,-1.73142 -3.21757,-3.95475 -2.35747,-2.94613 -3.15931,-3.92712 -6.57173,-8.0401 -3.13895,-3.78336 -4.54935,-5.5005 -5.83958,-7.10957 -0.33847,-0.42211 -0.49925,-0.59001 -0.98595,-1.02955 -1.96677,-1.77623 -4.14796,-3.08207 -7.17302,-4.29434 -0.27761,-0.11125 -0.53528,-0.22016 -0.57259,-0.24203 -0.18131,-0.10626 -0.37032,-0.34579 -0.47389,-0.60059 -0.15196,-0.37384 -0.22549,-0.77096 -0.30154,-1.62871 -0.0617,-0.69538 -0.077,-0.79001 -0.25611,-1.58353 -0.28297,-1.25338 -0.82993,-1.87947 -1.776,-2.03292 -0.0811,-0.0131 -0.17462,-0.0239 -0.20789,-0.024 -0.0556,0 -0.0612,0.004 -0.0692,0.053 -0.0364,0.22214 -0.0495,0.287 -0.0913,0.45302 -0.29849,1.18535 -1.1424,2.3669 -2.06947,2.89742 -0.0745,0.0427 -0.13782,0.0749 -0.14066,0.0716 -0.003,-0.003 -0.0665,-0.13718 -0.14139,-0.29753 -0.12283,-0.26288 -0.13352,-0.29339 -0.10871,-0.31018 0.0151,-0.0102 0.0736,-0.0443 0.12997,-0.0758 0.14321,-0.0799 0.4253,-0.36217 0.54246,-0.54285 0.3838,-0.59188 0.54394,-1.46305 0.40004,-2.17624 l -0.0167,-0.0826 -0.12601,0.014 c -0.28096,0.0313 -1.01411,0.13151 -1.66873,0.22803 -0.66329,0.0978 -0.68879,0.10283 -0.57954,0.11429 0.16966,0.0178 0.41083,0.10159 0.56428,0.19602 0.14435,0.0888 0.30918,0.24054 0.38244,0.35197 0.0443,0.0673 0.0452,0.0731 0.0262,0.15787 -0.0286,0.12805 -0.11702,0.2216 -0.28492,0.30164 -0.49533,0.23613 -1.2541,0.1682 -1.57198,-0.14075 -0.0853,-0.0829 -0.14623,-0.20601 -0.16208,-0.3276 l -0.0112,-0.0859 0.12131,-0.11817 c 0.13223,-0.1288 0.25201,-0.20707 0.40969,-0.2677 l 0.10178,-0.0391 -0.12244,0.01 c -0.23962,0.0188 -1.31476,0.15869 -2.4406,0.31754 -0.62851,0.0887 -1.2603,0.17675 -1.40396,0.19571 -0.38075,0.0503 -0.37503,0.0439 -0.10611,0.11754 0.47339,0.1296 1.0224,0.32192 1.90187,0.66624 1.57258,0.61567 2.29436,0.82219 3.14429,0.89968 l 0.22209,0.0202 -0.006,0.10749 c -0.007,0.115 -0.0564,1.13216 -0.0949,1.9359 -0.0784,1.63765 -0.0732,2.79112 0.017,3.74661 0.18335,1.94237 0.70138,3.38695 1.63329,4.55469 0.21223,0.26593 0.72789,0.78687 0.9847,0.99477 0.24485,0.19823 0.56454,0.42439 0.82908,0.58654 0.2249,0.13784 0.49439,0.28787 0.49439,0.27522 0,-0.004 -0.0544,-0.12049 -0.12079,-0.2586 -0.2918,-0.60662 -0.45177,-1.15066 -0.53465,-1.81832 -0.0319,-0.25674 -0.027,-0.87467 0.009,-1.1101 0.0953,-0.62795 0.32736,-1.20278 0.70662,-1.75033 0.65616,-0.94734 1.79355,-1.80665 3.12351,-2.35986 0.70055,-0.2914 1.39711,-0.45316 1.48667,-0.34524 0.0539,0.065 -0.12527,0.21757 -0.78469,0.66801 -1.33437,0.91147 -2.07422,1.54647 -2.57734,2.21205 -0.39075,0.51692 -0.58415,0.98253 -0.61622,1.48359 -0.0116,0.18174 0.0155,0.69657 0.051,0.96495 0.11351,0.86063 0.35894,1.58237 0.7717,2.26941 0.64988,1.0817 1.65875,1.9934 3.31871,2.99908 0.70374,0.42637 0.81984,0.48994 5.67201,3.10646 5.21132,2.81017 7.48121,4.08919 10.04809,5.66178 2.27545,1.39405 4.57473,2.93528 6.16271,4.13093 0.0718,0.0541 0.13634,0.0988 0.14336,0.0993 0.007,4.9e-4 -0.0706,-0.0963 -0.17247,-0.21531 z m -18.70783,-1.19173 c 0.30625,-0.41826 0.41074,-0.60545 0.45457,-0.81436 0.0432,-0.20614 0.007,-0.3598 -0.13793,-0.5832 -0.0445,-0.0686 -0.17082,-0.2827 -0.28076,-0.47574 -1.99851,-3.50942 -4.09138,-6.62465 -6.11985,-9.10939 -0.42059,-0.51519 -1.08981,-1.30176 -1.22228,-1.43661 l -0.0401,-0.0408 0.0409,0.0735 c 0.0225,0.0404 0.0869,0.15795 0.14312,0.2612 0.61632,1.13216 1.24124,2.13149 2.88906,4.61997 1.08495,1.63846 1.46702,2.23558 1.95337,3.05282 0.93015,1.56299 1.59861,2.96266 2.04069,4.27295 0.0704,0.20867 0.12908,0.37948 0.13038,0.37956 0.001,0 0.0683,-0.0899 0.1488,-0.19985 z m -21.91249,-35.59322 c -0.54771,-0.26386 -1.00215,-0.48216 -1.00987,-0.48511 -0.008,-0.003 0.096,-0.22548 0.2305,-0.49451 0.15561,-0.31125 0.79507,-1.7212 1.75819,-3.87661 1.38515,-3.09991 2.54968,-5.66528 2.57134,-5.66448 0.005,1.8e-4 0.48193,0.91111 1.06031,2.02431 0.57838,1.11319 1.0563,2.02399 1.06204,2.02399 0.006,0 0.23661,-0.43527 0.51305,-0.96726 0.49257,-0.94796 1.59349,-2.99946 1.60973,-2.99964 0.005,0 0.22017,0.42415 0.47922,0.94268 0.39789,0.79644 1.04107,2.04919 1.45893,2.84163 l 0.10601,0.20105 0.45698,-0.87854 c 0.25133,-0.4832 0.7078,-1.37993 1.01438,-1.99273 0.30657,-0.6128 0.56199,-1.11419 0.56759,-1.11419 0.0178,0 1.15132,2.11091 1.63932,3.05279 0.25818,0.49832 0.47387,0.91108 0.47931,0.91724 0.0129,0.0146 1.10881,-2.09905 1.63415,-3.15185 0.22573,-0.45237 0.41634,-0.81601 0.42358,-0.80809 0.007,0.008 0.48535,0.88689 1.06247,1.95328 0.57712,1.06638 1.0512,1.93691 1.05352,1.93452 0.002,-0.002 0.23711,-0.43411 0.52176,-0.95937 0.28465,-0.52526 0.74081,-1.40131 1.01369,-1.94677 0.27287,-0.54546 0.49978,-0.99175 0.50424,-0.99175 0.004,0 0.22878,0.4413 0.49849,0.98065 0.36981,0.73955 0.62318,1.21819 1.03054,1.94677 0.29708,0.53136 0.55271,0.9867 0.56807,1.01186 l 0.0279,0.0458 0.51538,-0.99261 c 0.28346,-0.54593 0.74016,-1.44256 1.01488,-1.99251 0.27473,-0.54995 0.50316,-0.99991 0.50762,-0.99991 0.004,0 0.1923,0.36915 0.41744,0.82034 0.52914,1.06041 1.62018,3.16418 1.63347,3.14969 0.006,-0.006 0.27115,-0.47769 0.59001,-1.04784 0.44469,-0.79518 0.68945,-1.25624 1.05079,-1.97941 0.25908,-0.51853 0.47479,-0.94278 0.47934,-0.94278 0.005,0 0.23709,0.45731 0.51673,1.01624 0.3943,0.78809 0.63124,1.23542 1.05542,1.99255 l 0.54698,0.97631 0.0977,-0.18455 c 0.36619,-0.69163 1.05297,-2.02951 1.45861,-2.84145 0.26354,-0.5275 0.48289,-0.9591 0.48746,-0.9591 0.005,0 0.21264,0.40956 0.46241,0.91013 0.55769,1.11771 1.56329,3.05912 1.58142,3.05308 0.007,-0.002 0.26854,-0.46046 0.58051,-1.01783 0.52261,-0.93372 0.60186,-1.08612 1.00798,-1.93813 0.24243,-0.5086 0.44492,-0.92493 0.44999,-0.92518 0.0198,-9.4e-4 1.10332,1.93895 1.63197,2.92175 0.30669,0.57015 0.56243,1.04152 0.56832,1.04747 0.0172,0.0174 1.22997,-2.10311 1.73555,-3.03446 0.2545,-0.46882 0.46775,-0.85266 0.47391,-0.85299 0.0215,-0.001 1.03503,1.79449 2.94284,5.21338 1.32481,2.37412 2.00214,3.60472 2.18219,3.96469 0.1436,0.2871 0.25884,0.52419 0.25608,0.52688 -0.0331,0.0321 -1.94699,1.05143 -1.95586,1.04164 -0.0496,-0.0547 -0.85821,-1.48802 -2.03139,-3.60057 -0.76156,-1.37135 -1.39022,-2.48992 -1.39702,-2.48571 -0.007,0.004 -0.26044,0.48708 -0.56365,1.07307 -0.47218,0.91255 -0.62882,1.19701 -1.09161,1.98241 -0.29718,0.50433 -0.54509,0.91205 -0.5509,0.90604 -0.0146,-0.0151 -1.08503,-1.98226 -1.64712,-3.027 -0.25483,-0.47363 -0.46727,-0.86102 -0.47211,-0.86086 -0.005,1.7e-4 -0.24019,0.44627 -0.52302,0.99135 -0.52497,1.01173 -1.57335,2.9638 -1.59575,2.97127 -0.007,0.002 -0.19838,-0.3687 -0.42569,-0.82439 -0.42631,-0.85461 -1.60444,-3.13801 -1.61924,-3.13833 -0.005,-1.7e-4 -0.24234,0.44978 -0.52833,0.99973 -0.51253,0.98559 -1.57668,2.96708 -1.59346,2.96708 -0.005,0 -0.18358,-0.35079 -0.39743,-0.77952 -0.42795,-0.85796 -1.62968,-3.1863 -1.64493,-3.18702 -0.0165,-7.9e-4 -1.05028,2.00251 -1.55747,3.01813 l -0.48431,0.96979 -0.053,-0.0964 c -0.38444,-0.69874 -1.10561,-2.04905 -1.52873,-2.86238 -0.29226,-0.56179 -0.53685,-1.02143 -0.54353,-1.02143 -0.019,0 -0.80338,1.51197 -1.45437,2.80334 l -0.59024,1.17084 -0.54952,-1.01575 c -0.30224,-0.55866 -0.77621,-1.45173 -1.05327,-1.9846 -0.27706,-0.53287 -0.50962,-0.96998 -0.5168,-0.97134 -0.0196,-0.004 -0.70133,1.309 -1.41272,2.7205 l -0.63188,1.25373 -1.0516,-1.94168 c -0.57838,-1.06793 -1.05895,-1.9435 -1.06792,-1.94572 -0.0309,-0.008 -0.91277,1.64269 -1.47861,2.767 l -0.56663,1.12586 -0.49308,-0.9871 c -0.38233,-0.76538 -0.61973,-1.21353 -1.05695,-1.99517 -0.31013,-0.55444 -0.56839,-1.00783 -0.57391,-1.00754 -0.0154,8.1e-4 -1.22441,2.34299 -1.65351,3.20326 -0.20938,0.41976 -0.38443,0.7632 -0.389,0.7632 -0.005,0 -0.20531,-0.39486 -0.44608,-0.87747 -0.44963,-0.90126 -1.57884,-3.08962 -1.59415,-3.08941 -0.005,0 -0.27431,0.47574 -0.59908,1.05705 -0.45298,0.81077 -0.6982,1.27271 -1.0529,1.98338 -0.25432,0.50955 -0.46613,0.92645 -0.47069,0.92645 -0.005,0 -0.21637,-0.4169 -0.47069,-0.92645 -0.36514,-0.73159 -0.57801,-1.13156 -1.01209,-1.90167 -0.30233,-0.53637 -0.55339,-0.97531 -0.55792,-0.97542 -0.005,-1.6e-4 -0.48165,1.07419 -1.06027,2.38734 -1.04226,2.36532 -1.53588,3.46081 -1.56242,3.46742 -0.008,0.002 -0.46187,-0.21247 -1.00957,-0.47633 z m 24.81662,-16.21523 c -0.006,-0.74254 -0.0147,-2.823 -0.0198,-4.62325 -0.005,-1.92018 -0.0158,-3.33728 -0.0251,-3.42827 -0.0417,-0.40851 -0.168,-0.81562 -0.3977,-1.28151 -0.28409,-0.57621 -0.64423,-1.0936 -1.22154,-1.75495 -0.18625,-0.21337 -0.95097,-0.9817 -1.20479,-1.21048 -0.93285,-0.84084 -1.98432,-1.65462 -3.39215,-2.62533 l -0.31622,-0.21804 0.009,-0.0749 c 0.0221,-0.18128 3.37498,-22.5433 3.38666,-22.5872 0.0124,-0.0467 0.0205,-0.0506 0.17572,-0.0853 0.48192,-0.10742 0.83612,-0.14334 1.41157,-0.14314 0.46958,1.6e-4 0.62645,0.0118 0.99583,0.0739 1.24394,0.20927 2.19928,0.81979 2.77063,1.77062 0.12,0.19971 0.15986,0.27792 0.25378,0.49791 l 0.0732,0.17142 0.006,18.41468 0.006,18.41469 -0.69381,0.0105 c -0.3816,0.006 -0.94432,0.0146 -1.25049,0.0196 l -0.55668,0.009 z m 0.82286,-23.74173 0.0509,-11.12736 -0.0406,-0.08 c -0.22071,-0.43555 -0.75978,-0.75637 -1.49684,-0.89081 -0.14564,-0.0266 -0.25911,-0.0346 -0.50607,-0.0359 -0.3613,-0.002 -0.3835,0.004 -0.50202,0.12527 l -0.0671,0.0689 -1.37242,9.56243 c -0.75483,5.25934 -1.37242,9.57596 -1.37242,9.59247 0,0.0214 0.0767,0.0763 0.26528,0.19023 1.00833,0.60889 1.99376,1.30382 2.70588,1.9082 0.61057,0.51819 1.19509,1.11126 1.57866,1.60177 0.23125,0.29571 0.49569,0.70864 0.63579,0.99279 l 0.0629,0.12757 0.004,-0.45407 c 0.002,-0.24973 0.0265,-5.46137 0.0545,-11.58142 z m -15.86076,-18.64254 c -1.45397,-0.0169 -3.29085,-0.0617 -4.99538,-0.12167 -0.37705,-0.0133 -1.0982,-0.0241 -1.60255,-0.0241 h -0.917 l -0.0685,-0.0776 c -0.38866,-0.43994 -0.4413,-0.95177 -0.15548,-1.5117 0.15292,-0.29957 0.29137,-0.44263 0.54126,-0.55929 0.3993,-0.18641 1.01631,-0.22041 1.87567,-0.10336 0.34723,0.0473 0.91495,0.16371 1.36293,0.27948 0.45081,0.11651 0.46513,0.11891 0.89898,0.15117 1.56265,0.11621 2.8296,-0.0413 3.78379,-0.47037 0.48915,-0.21996 1.04745,-0.61211 1.42373,-1.00002 0.27705,-0.28561 0.43041,-0.54929 0.47242,-0.81222 0.0235,-0.14719 0.01,-0.24023 -0.0739,-0.49165 -0.0387,-0.11672 -0.0815,-0.26732 -0.095,-0.33466 -0.0873,-0.43437 -0.0785,-1.08725 0.0238,-1.76248 0.0807,-0.5325 0.40188,-2.09542 0.57849,-2.81474 0.0311,-0.12678 0.0566,-0.24031 0.0566,-0.25229 1.7e-4,-0.0447 -0.10236,-0.27601 -0.17141,-0.38704 -0.19207,-0.30882 -0.48223,-0.45573 -0.79443,-0.40219 -0.17214,0.0295 -0.28078,0.0885 -0.40458,0.21951 -0.27933,0.29569 -0.3207,0.33173 -0.46773,0.40738 -0.1747,0.0899 -0.43634,0.17468 -0.69523,0.22532 l -0.19065,0.0373 -0.11514,-0.0684 c -0.26434,-0.15704 -0.45926,-0.35329 -0.58806,-0.59209 -0.10047,-0.18627 -0.14209,-0.32847 -0.2064,-0.70522 -0.0782,-0.4583 -0.11799,-0.59414 -0.18917,-0.64636 -0.13001,-0.0954 -0.3186,-0.30415 -0.36949,-0.40907 -0.0617,-0.12729 -0.10115,-0.27352 -0.10115,-0.37533 0,-0.0697 -0.007,-0.0811 -0.099,-0.17207 -0.29285,-0.28819 -0.4377,-0.61264 -0.39055,-0.8748 0.058,-0.32261 0.28942,-0.55048 0.97931,-0.96433 0.54604,-0.32756 0.88074,-0.56135 1.25533,-0.87687 0.3696,-0.31131 0.49964,-0.41361 0.66148,-0.52035 0.25232,-0.16643 0.53865,-0.30261 0.83397,-0.39665 0.58729,-0.18701 1.11017,-0.36349 1.38611,-0.46782 l 0.29234,-0.11054 0.02,-0.0688 c 0.0729,-0.25043 0.34866,-0.47095 0.74978,-0.59959 0.60207,-0.19309 1.71601,-0.27303 2.50641,-0.17988 1.07308,0.12648 2.06934,0.5064 2.99565,1.14241 0.81571,0.56007 1.54578,1.38429 2.19049,2.47295 0.36511,0.61653 0.76006,1.42512 1.02759,2.10377 l 0.0796,0.20189 0.21223,0.19276 c 0.99274,0.90165 2.14409,1.52701 3.42594,1.8608 1.706,0.44424 3.67093,0.40488 5.87726,-0.11774 l 0.29175,-0.0691 0.18526,-0.21492 c 1.05307,-1.22172 2.2384,-1.90486 3.49651,-2.01515 1.09756,-0.0962 2.19212,0.64603 3.21443,2.17979 0.13688,0.20535 0.36565,0.5774 0.46788,0.76091 l 0.0601,0.1079 -0.0792,0.12065 c -0.0897,0.13661 -0.20906,0.25462 -0.31466,0.31095 -0.0622,0.0332 -0.0946,0.0382 -0.24434,0.0382 -0.16979,0 -0.17492,-0.001 -0.31023,-0.0682 -0.27451,-0.13602 -0.55005,-0.38853 -0.88756,-0.81337 -0.26109,-0.32866 -0.39227,-0.47325 -0.55352,-0.61015 -0.5975,-0.50727 -1.20785,-0.57154 -1.86349,-0.19623 -0.14154,0.081 -0.42244,0.28139 -0.463,0.33025 -0.0165,0.0198 0.006,0.0376 0.14006,0.109 1.51547,0.80945 3.32087,1.99586 4.63061,3.04297 1.29924,1.03874 2.22779,2.09377 2.84898,3.23708 0.2509,0.46179 0.3905,0.83896 0.46106,1.24562 0.012,0.069 0.0209,0.24011 0.0204,0.3918 -0.001,0.41126 -0.0726,0.69642 -0.26941,1.07746 -0.1343,0.25999 -0.28164,0.4605 -0.51824,0.70525 l -0.20199,0.20895 h -7.78097 -7.78096 l -0.0898,-0.12175 c -0.16652,-0.2258 -0.25753,-0.43102 -0.28402,-0.64045 -0.0466,-0.36813 0.25738,-0.80924 0.70242,-1.01944 0.1422,-0.0672 0.35823,-0.12939 0.56927,-0.16398 0.19753,-0.0324 0.90465,-0.0271 1.19173,0.009 0.52813,0.0662 1.00862,0.16104 1.66515,0.32858 0.84612,0.21593 1.13864,0.26019 1.7223,0.26058 0.36488,2.5e-4 0.44018,-0.004 0.60974,-0.0366 0.36883,-0.0703 0.6947,-0.20012 0.9387,-0.37405 0.22476,-0.16022 0.46871,-0.42951 0.59696,-0.65898 l 0.0404,-0.0724 -0.0383,-0.0942 c -0.1947,-0.47906 -0.73748,-0.85663 -1.52908,-1.06367 -1.00554,-0.26299 -1.79807,-0.19722 -2.65507,0.22033 -0.32798,0.15979 -0.57449,0.25906 -0.94273,0.37961 -0.67452,0.22081 -1.49365,0.42849 -2.64466,0.6705 -2.47561,0.52052 -4.38258,0.75317 -5.926,0.72298 -0.5475,-0.0107 -0.77837,-0.0263 -1.26374,-0.0854 -0.51731,-0.063 -0.80506,-0.0787 -1.04756,-0.0573 -0.33886,0.03 -0.53592,0.0978 -0.65291,0.2247 -0.0894,0.097 -0.11307,0.16054 -0.11307,0.30349 0,0.13676 0.027,0.24204 0.10934,0.42585 0.0842,0.18801 0.0629,0.26792 -0.10002,0.37608 -0.51387,0.34109 -2.18171,0.51798 -5.32313,0.56457 -1.15052,0.0171 -1.36046,0.017 -2.90586,-9.9e-4 z m 5.90151,-1.82019 c 0,-0.0998 0.0433,-0.37931 0.0825,-0.53293 0.26067,-1.02093 0.98012,-1.51485 2.20645,-1.51479 0.30817,0 0.48595,0.0165 1.05769,0.0979 1.89404,0.26969 3.75934,0.35122 5.40139,0.2361 1.0605,-0.0744 2.13773,-0.30083 3.54475,-0.74528 1.12541,-0.35548 2.2523,-0.7913 3.95458,-1.52941 l 0.0611,-0.0265 v -0.17141 c -1.6e-4,-0.21226 -0.0263,-0.69053 -0.0493,-0.89788 -0.0941,-0.85112 -0.32695,-1.28537 -0.67112,-1.2517 -0.048,0.005 -0.18649,0.0194 -0.3077,0.0327 -0.83074,0.0909 -1.99451,0.0915 -2.87321,0.002 -2.36318,-0.24176 -4.3709,-1.11834 -6.03166,-2.63344 -0.12687,-0.11574 -0.16694,-0.14405 -0.18155,-0.12825 -0.0103,0.0112 -0.12747,0.15619 -0.26036,0.32229 -0.86926,1.08652 -1.83195,2.04425 -2.93483,2.91972 -1.21087,0.96118 -2.70522,1.87173 -4.1681,2.53974 -0.25153,0.11485 -0.28316,0.13383 -0.31374,0.18825 -0.0837,0.14899 -0.10863,0.43806 -0.0586,0.68032 0.0906,0.43853 0.41789,1.05772 0.91798,1.73656 0.20945,0.28432 0.5977,0.76444 0.61155,0.75626 0.007,-0.004 0.0122,-0.0399 0.0122,-0.0798 z m 24.93088,-0.67671 c 0.42301,-0.0235 0.65427,-0.0782 0.66996,-0.15857 0.009,-0.0456 -0.16085,-0.51207 -0.31348,-0.86146 -0.3381,-0.77396 -0.77792,-1.48416 -1.32443,-2.13858 -0.18096,-0.21669 -0.64468,-0.68916 -0.88225,-0.89889 -1.12508,-0.99323 -2.38662,-1.64422 -3.71276,-1.91588 -0.92658,-0.18981 -1.44446,0.18494 -1.36148,0.98519 0.0352,0.33936 0.12996,0.68224 0.23175,0.83847 0.71027,1.09017 2.20723,2.2098 4.41285,3.30054 0.79571,0.3935 1.85442,0.86495 1.94269,0.86509 0.0269,0 0.17865,-0.007 0.33715,-0.0159 z m -26.18003,-4.15008 c 1.65428,-0.82744 3.08457,-1.78202 4.33459,-2.89292 0.46217,-0.41074 1.15825,-1.12128 1.56024,-1.59268 0.31542,-0.36987 0.67081,-0.82849 0.92914,-1.19901 l 0.11186,-0.16045 -0.0367,-0.16509 c -0.1711,-0.77078 -0.62451,-1.54194 -1.34745,-2.29179 -0.79216,-0.82164 -1.66308,-1.38876 -2.4252,-1.57922 -0.16808,-0.042 -0.42093,-0.0823 -0.43407,-0.0692 -0.004,0.004 0.0513,0.0991 0.12407,0.21013 0.1589,0.24272 0.34112,0.60449 0.40598,0.80601 0.23142,0.71902 -0.0267,1.1491 -0.80528,1.3419 -0.0893,0.0221 -0.19218,0.0552 -0.22855,0.0735 -0.11972,0.0603 -0.27034,0.1774 -0.33752,0.26239 -0.20173,0.25521 -0.25227,0.52908 -0.18514,1.00333 0.0268,0.18908 0.0281,0.23576 0.0106,0.37388 -0.0654,0.51826 -0.39787,1.05294 -1.08344,1.7427 l -0.32269,0.32465 -0.10082,0.25489 c -0.31102,0.78633 -0.50158,1.59639 -0.57072,2.42612 -0.0199,0.23845 -0.0144,1.25914 0.007,1.29364 0.0145,0.0235 0.0547,0.007 0.39411,-0.16285 z m -3.3897,-4.15777 c 0.0879,-0.0449 0.18868,-0.14433 0.27517,-0.27154 0.13436,-0.19763 0.30117,-0.31328 0.54361,-0.37687 0.148,-0.0388 0.47151,-0.0387 0.64484,1.6e-4 0.29838,0.067 0.54245,0.24144 0.66253,0.47366 0.0307,0.0593 0.0616,0.10789 0.0686,0.10792 0.0193,1.7e-4 0.29056,-0.18487 0.39866,-0.2718 0.58194,-0.46797 0.92456,-1.03531 1.04313,-1.72733 0.0339,-0.19787 0.0607,-1.0487 0.0378,-1.20043 -0.0245,-0.16247 -0.0691,-0.27685 -0.14579,-0.37384 -0.0525,-0.0664 -0.0967,-0.0967 -0.26285,-0.18023 -0.38024,-0.19113 -0.48654,-0.30644 -0.5183,-0.56227 -0.0428,-0.34468 0.0858,-0.65131 0.37377,-0.89092 0.0545,-0.0453 0.0922,-0.0824 0.0838,-0.0824 -0.008,0 -0.1355,0.0289 -0.28246,0.0642 -0.53877,0.1295 -0.96744,0.21358 -1.71196,0.33577 -0.62261,0.10219 -1.05856,0.30887 -1.57949,0.74881 -0.40558,0.34253 -0.90424,0.7095 -1.41155,1.03877 -0.27075,0.17573 -0.29044,0.1919 -0.30798,0.25303 -0.0249,0.0868 -0.01,0.25507 0.0336,0.37072 0.0396,0.10574 0.16449,0.30414 0.25366,0.40284 l 0.06,0.0664 -0.0195,0.11586 c -0.045,0.26698 0.0561,0.47466 0.28843,0.59219 0.0967,0.0489 0.2874,0.10899 0.34602,0.109 0.0673,0 0.31761,-0.0783 0.53292,-0.16667 0.39501,-0.16217 0.47691,-0.17325 0.65102,-0.0881 0.0824,0.0403 0.27107,0.1953 0.25503,0.2095 -0.004,0.004 -0.089,0.039 -0.18774,0.0779 -0.20841,0.082 -0.38077,0.16519 -0.47343,0.22851 -0.16242,0.111 -0.37029,0.18223 -0.59995,0.20558 l -0.11019,0.0112 v 0.0779 c 0,0.21265 0.0822,0.46606 0.19011,0.58608 0.0909,0.10111 0.1993,0.14012 0.34563,0.12439 0.0633,-0.007 0.11611,-0.002 0.16624,0.0147 0.10146,0.0341 0.26577,0.0237 0.35662,-0.0227 z m 2.39415,-1.54689 c -0.0269,-0.003 -0.18855,-0.0212 -0.35915,-0.0396 -0.7537,-0.0814 -1.35925,-0.21934 -1.66516,-0.3792 -0.0539,-0.0282 -0.13865,-0.0917 -0.18841,-0.14126 -0.077,-0.0767 -0.096,-0.10824 -0.12801,-0.21252 -0.0461,-0.15029 -0.0632,-0.39108 -0.0355,-0.50105 0.016,-0.0637 0.0862,-0.2263 0.10648,-0.2466 0.003,-0.003 0.0447,0.0147 0.0934,0.0386 l 0.0886,0.0434 -9.3e-4,0.1818 c -8.4e-4,0.16463 0.003,0.19073 0.0433,0.27619 0.0939,0.20039 0.33764,0.39199 0.65748,0.51685 0.38923,0.15194 0.84475,0.23859 1.68083,0.31974 l 0.11335,0.011 -0.16794,0.0718 c -0.0924,0.0395 -0.17276,0.0707 -0.17865,0.0694 -0.006,-0.001 -0.0327,-0.005 -0.0597,-0.009 z m -1.95492,-1.66471 c -0.0244,-0.007 -0.0285,-0.0287 -0.0282,-0.14981 0.002,-0.58059 0.13093,-0.8631 0.42727,-0.93419 0.11346,-0.0272 0.42655,-0.0106 0.58599,0.031 0.14892,0.0389 0.30773,0.10999 0.4032,0.18044 l 0.0701,0.0517 -0.0353,0.0496 c -0.0543,0.0763 -0.25764,0.24238 -0.40604,0.33172 -0.15516,0.0934 -0.42471,0.20539 -0.61602,0.25593 -0.1179,0.0311 -0.13594,0.0409 -0.15351,0.0834 -0.0109,0.0264 -0.0353,0.0581 -0.0541,0.0704 -0.0384,0.0251 -0.14977,0.0423 -0.19339,0.0298 z m -0.50674,-0.22312 c -0.0521,-0.13565 -0.0545,-0.547 -0.004,-0.68843 0.0715,-0.20051 0.2131,-0.34434 0.45773,-0.4649 0.303,-0.14933 0.53327,-0.17333 1.0283,-0.10717 0.17947,0.024 0.32981,0.0471 0.33409,0.0514 0.004,0.004 0,0.0203 -0.009,0.0356 -0.0347,0.0563 -0.1761,0.0853 -0.49382,0.10124 -0.31684,0.016 -0.44111,0.0389 -0.57261,0.10581 -0.26551,0.13506 -0.45759,0.45101 -0.52372,0.86145 l -0.0204,0.12652 h -0.094 c -0.0626,0 -0.0967,-0.007 -0.1022,-0.0214 z m 4.93732,-0.65376 c 0.25327,-0.0596 0.4307,-0.2718 0.51989,-0.62175 0.0685,-0.26862 0.0601,-0.48269 -0.0211,-0.53956 -0.0449,-0.0314 -0.25339,-0.033 -0.32648,-0.002 -0.12726,0.0532 -0.20444,0.20601 -0.25576,0.50643 -0.0248,0.14495 -0.0494,0.22234 -0.12192,0.38298 -0.0856,0.18965 -0.10541,0.26031 -0.08,0.28571 0.0183,0.0183 0.18793,0.0116 0.28538,-0.0113 z m -0.8758,-0.0412 c 0.20518,-0.0945 0.31184,-0.33299 0.38499,-0.86078 0.0386,-0.27884 0.0738,-0.38399 0.16211,-0.48426 0.15362,-0.17452 0.39725,-0.20165 0.76424,-0.0851 0.0681,0.0216 0.12618,0.037 0.129,0.0342 0.003,-0.003 -0.0221,-0.058 -0.0553,-0.12263 -0.15728,-0.30575 -0.43343,-0.47949 -0.76469,-0.48111 -0.10546,-5e-4 -0.1444,0.007 -0.2023,0.0369 -0.14301,0.0749 -0.2991,0.25711 -0.44222,0.51613 -0.0337,0.061 -0.132,0.17799 -0.26065,0.31018 -0.31261,0.32121 -0.4514,0.50669 -0.49894,0.66679 -0.0236,0.0795 -0.0231,0.0833 0.0188,0.15492 0.094,0.1604 0.25047,0.2735 0.4429,0.32015 0.13168,0.0319 0.24514,0.03 0.32205,-0.005 z m 9.7812,-8.63517 c -0.006,-0.75119 -0.0147,-2.83138 -0.0198,-4.62265 -0.005,-1.90868 -0.0158,-3.32105 -0.025,-3.41194 -0.0429,-0.42056 -0.17284,-0.83293 -0.41421,-1.31417 -0.39535,-0.78824 -0.96872,-1.52692 -1.88848,-2.43297 -1.0023,-0.98736 -2.1502,-1.90665 -3.83183,-3.06869 l -0.39782,-0.2749 0.009,-0.0747 c 0.0219,-0.18071 3.37495,-22.54309 3.3867,-22.587 0.0127,-0.0474 0.0194,-0.0504 0.20731,-0.093 0.54466,-0.12346 1.29275,-0.17451 1.86154,-0.12703 1.50991,0.12603 2.63521,0.75506 3.28487,1.8362 0.12,0.19972 0.15986,0.27793 0.25378,0.49792 l 0.0732,0.17141 0.006,18.41469 0.006,18.41468 -0.7183,0.0106 c -0.39507,0.006 -0.95779,0.0144 -1.2505,0.019 l -0.5322,0.008 z m 0.82289,-23.72481 0.0509,-11.12735 -0.0406,-0.08 c -0.22159,-0.43729 -0.7583,-0.75783 -1.48957,-0.88962 -0.15082,-0.0272 -0.26528,-0.0356 -0.50518,-0.037 -0.36018,-0.002 -0.39291,0.005 -0.50171,0.11668 l -0.0757,0.0774 -1.37238,9.56205 c -0.75481,5.25913 -1.37238,9.57567 -1.37238,9.59231 0,0.0218 0.0856,0.0821 0.30609,0.21553 1.18423,0.71677 2.22519,1.47424 3.04055,2.21249 0.31022,0.28088 0.80817,0.79207 1.02508,1.05234 0.32464,0.38953 0.63101,0.84482 0.80609,1.19791 l 0.0707,0.14259 0.004,-0.45394 c 0.002,-0.24967 0.0265,-5.46126 0.0545,-11.58131 z"
       id="path2285" />
  </g>
</svg>
