<?xml version="1.0" encoding="UTF-8" standalone="no"?>
<!-- Created with Inkscape (http://www.inkscape.org/) -->

<svg
   width="1080"
   height="1920"
   viewBox="0 0 285.75001 508"
   version="1.1"
   id="svg5"
   inkscape:export-filename="/Users/albertotomasoni/ALBERTO.png"
   inkscape:export-xdpi="96"
   inkscape:export-ydpi="96"
   inkscape:version="1.1.1 (c3084ef, 2021-09-22)"
   sodipodi:docname="filippo.svg"
   xmlns:inkscape="http://www.inkscape.org/namespaces/inkscape"
   xmlns:sodipodi="http://sodipodi.sourceforge.net/DTD/sodipodi-0.dtd"
   xmlns="http://www.w3.org/2000/svg"
   xmlns:svg="http://www.w3.org/2000/svg">
  <sodipodi:namedview
     id="namedview7"
     pagecolor="#ffffff"
     bordercolor="#666666"
     borderopacity="1.0"
     inkscape:pageshadow="2"
     inkscape:pageopacity="0.0"
     inkscape:pagecheckerboard="0"
     inkscape:document-units="px"
     showgrid="false"
     units="px"
     inkscape:zoom="0.24661248"
     inkscape:cx="476.45602"
     inkscape:cy="1062.3955"
     inkscape:window-width="1440"
     inkscape:window-height="900"
     inkscape:window-x="0"
     inkscape:window-y="0"
     inkscape:window-maximized="0"
     inkscape:current-layer="g2878" />
  <defs
     id="defs2" />
  <g
     inkscape:label="ALBERTO"
     inkscape:groupmode="layer"
     id="g2878">
    <text
       xml:space="preserve"
       style="font-weight:500;font-size:19.0077px;line-height:1.25;font-family:'Helvetica Neue';-inkscape-font-specification:'Helvetica Neue Medium';text-align:center;text-decoration-color:#000000;text-anchor:middle;white-space:pre;inline-size:858.441;fill=currentColor;stroke-width:1.51181;stroke-linecap:round;paint-order:markers fill stroke;stop-color:#000000"
       x="413.24438"
       y="323.54794"
       id="text2874"
       transform="matrix(2.7839642,0,0,2.7839642,-1007.806,-810.36416)"><tspan
         x="413.24438"
         y="323.54794"
         id="tspan1402"><tspan
           style="font-weight:normal;font-family:Bison;-inkscape-font-specification:Bison"
           id="tspan1400">filippO</tspan></tspan></text>
    <path
       style="fill=currentColor;stroke-width:0.0163251"
       d="m 112.57565,349.96917 v -1.08562 l 11.65202,-0.002 c 11.52481,-0.002 11.65006,-0.002 11.47245,-0.0329 -1.03135,-0.17913 -1.46367,-0.26231 -2.16307,-0.41612 -7.3812,-1.62343 -13.31566,-5.01193 -16.92277,-9.6627 -0.58953,-0.76011 -1.15706,-1.61762 -1.63138,-2.46496 -0.17999,-0.32154 -0.53255,-1.02337 -0.68887,-1.3713 -0.96808,-2.1548 -1.51184,-4.38173 -1.6702,-6.84021 -0.0104,-0.16162 -0.0255,-0.2963 -0.0335,-0.29929 -0.0195,-0.007 -0.0195,-189.97761 -4e-5,-189.97761 0.008,0 0.0194,-0.0679 0.0253,-0.15101 0.0953,-1.34139 0.25224,-2.36665 0.53277,-3.48132 0.94755,-3.76505 3.04602,-7.04208 6.25242,-9.76392 4.4323,-3.76249 10.87447,-6.28349 18.22572,-7.13222 0.18427,-0.0213 0.8756,-0.0245 5.24851,-0.0245 4.3729,0 5.06424,0.003 5.24851,0.0245 5.49808,0.63478 10.54357,2.21735 14.58645,4.5752 2.81155,1.63973 5.10287,3.62437 6.81768,5.90519 1.59143,2.11671 2.67364,4.4837 3.2207,7.04426 0.19381,0.90714 0.30749,1.74717 0.38608,2.85281 0.006,0.0831 0.0173,0.15101 0.0253,0.15101 0.0195,0 0.0195,189.97035 0,189.97761 -0.008,0.003 -0.0232,0.13767 -0.0336,0.29929 -0.17664,2.74237 -0.84056,5.23077 -2.01667,7.55851 -1.29492,2.56291 -3.16736,4.82497 -5.61609,6.78475 -3.45195,2.76268 -7.99905,4.82481 -13.16618,5.97094 -0.7619,0.169 -1.32362,0.27732 -2.36713,0.45649 -0.0568,0.01 4.19319,0.0161 11.56223,0.0174 l 11.65202,0.002 v 1.08562 1.08562 h -30.29934 -30.29933 v -1.08562 z m 32.01347,-2.7337 c 1.24172,-0.0564 2.21654,-0.13236 3.26502,-0.25431 6.672,-0.77598 12.49854,-3.06085 16.61449,-6.51537 3.09599,-2.59846 5.1445,-5.80236 6.02707,-9.42641 0.24596,-1.00998 0.38062,-1.88156 0.47027,-3.04376 0.0277,-0.35894 0.029,-4.54939 0.029,-95.15069 0,-76.44692 -0.004,-94.83047 -0.0207,-95.06091 -0.10152,-1.39909 -0.31601,-2.57779 -0.69184,-3.8019 -0.61505,-2.00328 -1.66091,-3.91554 -3.05904,-5.59318 -0.68243,-0.81886 -1.59664,-1.73375 -2.43192,-2.43375 -1.65022,-1.38294 -3.61809,-2.6012 -5.78201,-3.57951 -3.34341,-1.51155 -7.17198,-2.51653 -11.29402,-2.96462 -2.50209,-0.272 -5.20561,-0.32867 -7.77889,-0.16306 -7.38749,0.47543 -14.01571,2.74468 -18.53387,6.34528 -1.06017,0.84487 -2.06087,1.81763 -2.87595,2.79566 -1.39813,1.67764 -2.444,3.5899 -3.05905,5.59318 -0.37583,1.22411 -0.59032,2.40281 -0.69183,3.8019 -0.0167,0.23044 -0.0207,18.61399 -0.0207,95.06091 0,90.6013 0.001,94.79175 0.029,95.15069 0.0897,1.1622 0.22431,2.03378 0.47027,3.04376 1.02579,4.21218 3.6229,7.84582 7.60044,10.63378 4.20362,2.94645 9.81796,4.83988 16.05328,5.41395 0.88937,0.0819 1.81342,0.1352 2.95483,0.17048 0.34241,0.0106 2.3684,-0.006 2.72629,-0.0221 z m 2.03806,-19.47691 c -0.14858,-0.0785 -0.27681,-0.33309 -0.34926,-0.69347 -0.0316,-0.15736 -0.094,-0.31132 -0.17891,-0.44194 -0.0891,-0.13698 -0.31819,-0.3574 -0.49009,-0.47148 -0.14377,-0.0954 -0.50346,-0.28572 -0.54098,-0.28621 -0.0105,0 -0.0315,0.0383 -0.0467,0.0854 -0.0452,0.14006 -0.17623,0.37609 -0.30345,0.5465 -0.14373,0.19252 -0.5556,0.6093 -0.81652,0.82623 l -0.18997,0.15795 -6.45434,-0.004 c -6.17653,-0.004 -6.45759,-0.005 -6.52997,-0.0336 -0.17775,-0.0692 -0.27948,-0.21944 -0.31171,-0.46034 -0.0158,-0.11809 -0.0145,-0.15138 0.01,-0.23805 0.0897,-0.32244 0.44793,-0.54935 1.15681,-0.73267 0.67151,-0.17363 1.51115,-0.27336 2.82309,-0.33528 1.67571,-0.0791 2.96243,-0.26894 3.13806,-0.46301 0.0411,-0.0454 0.56555,-1.536 0.94563,-2.6877 0.73211,-2.21837 1.11909,-3.7348 1.18989,-4.66285 0.017,-0.22223 0.0159,-0.28006 -0.008,-0.44894 -0.11305,-0.80014 -0.7157,-2.3487 -1.8915,-4.86036 -0.27044,-0.5777 -0.45933,-0.95829 -1.07475,-2.16554 -2.46742,-4.84024 -4.32727,-8.67435 -4.77636,-9.84654 -0.50151,-1.30899 -0.76907,-2.83377 -0.83916,-4.78226 l -0.0156,-0.43417 -0.14477,-0.23516 c -0.31118,-0.50551 -0.56479,-1.01038 -0.67987,-1.35345 -0.0407,-0.12121 -0.074,-0.23157 -0.0741,-0.24522 -1.6e-4,-0.0171 -0.0473,-0.0391 -0.15122,-0.0704 -0.30376,-0.0917 -0.68402,-0.25949 -1.01623,-0.44837 -0.46877,-0.26654 -1.19382,-0.80385 -1.60423,-1.18881 l -0.10232,-0.096 0.0754,-0.0898 c 0.65302,-0.77779 1.39937,-1.37173 2.04746,-1.62933 0.0874,-0.0347 0.19071,-0.1 0.36124,-0.2282 0.43847,-0.32964 0.80301,-0.55587 1.24793,-0.77443 0.6255,-0.30726 1.16962,-0.47297 1.78644,-0.54409 0.19719,-0.0227 0.34303,-0.0258 0.87339,-0.0187 0.64663,0.009 0.91453,0.0271 1.36222,0.0935 1.5412,0.22863 2.64021,0.82399 3.28146,1.77768 0.5307,0.78926 0.97239,1.90052 1.19114,2.99685 0.0934,0.46779 0.1673,1.06227 0.18887,1.51823 0.005,0.10774 0.0135,0.26394 0.0186,0.34712 l 0.009,0.15123 0.11822,0.0546 c 0.18207,0.0841 1.04086,0.53253 1.38159,0.72136 0.65259,0.36168 1.2741,0.75778 1.65238,1.05306 0.66577,0.51974 1.2014,1.19792 1.71508,2.17155 l 0.10838,0.20542 0.16754,0.0989 c 1.18301,0.69819 3.20936,2.75711 5.99737,6.09376 0.75844,0.90769 1.17308,1.4191 1.58173,1.95084 1.56049,2.03058 2.96148,3.6523 4.75957,5.50942 0.49647,0.51277 0.58223,0.61763 0.79471,0.97164 0.32833,0.54702 0.47914,1.04787 0.42924,1.42565 -0.0464,0.35114 -0.20669,0.61157 -0.52335,0.85018 -0.25998,0.1959 -0.55828,0.32651 -0.92375,0.40448 -0.19881,0.0424 -0.23377,0.0449 -0.64286,0.0453 -0.45052,4.9e-4 -0.56939,-0.0106 -0.98955,-0.0916 l -0.18145,-0.035 -0.25116,0.0939 c -2.11421,0.79049 -4.79113,1.28065 -7.50291,1.37385 l -0.32992,0.0113 -0.0424,0.18114 c -0.0233,0.0996 -0.36761,1.55123 -0.76507,3.22577 l -0.72267,3.04463 0.26365,0.2612 c 0.28819,0.28551 0.4107,0.42114 0.60459,0.66933 0.32,0.40961 0.59601,0.91304 0.73625,1.34285 l 0.0767,0.23511 -0.0191,0.12305 c -0.0105,0.0677 -0.0331,0.15471 -0.0503,0.19338 -0.0467,0.10563 -0.15903,0.21809 -0.27074,0.27113 -0.11483,0.0545 -0.20287,0.0587 -0.28826,0.0135 z m -4.33173,-2.37329 c 0.0629,-0.0159 0.18324,-0.062 0.26753,-0.10245 0.27045,-0.12977 0.45538,-0.35401 0.55411,-0.67189 0.027,-0.0868 0.40826,-1.50129 0.84734,-3.14328 0.78325,-2.9291 0.79806,-2.98733 0.78499,-3.08544 -0.0689,-0.51746 -0.78377,-0.99831 -2.07777,-1.39762 l -0.25376,-0.0783 v 0.47573 0.47575 l -1.22432,3.74505 c -0.6735,2.05977 -1.22444,3.76261 -1.22444,3.78407 v 0.039 l 1.10602,-0.006 c 0.99257,-0.005 1.11774,-0.009 1.2203,-0.0348 z m 3.65297,-6.24199 c 0.10322,-0.10774 0.31535,-0.697 0.37356,-1.03767 0.0281,-0.1647 0.0324,-0.24099 0.025,-0.44376 -0.005,-0.13468 -0.021,-0.29998 -0.0357,-0.36732 -0.11972,-0.54787 -0.4413,-1.07595 -0.96293,-1.58128 l -0.18826,-0.18236 0.12788,0.0643 c 0.72567,0.36486 1.68005,0.60903 2.76202,0.70666 0.37617,0.0339 1.6484,0.0286 1.99982,-0.008 1.4614,-0.15386 2.79489,-0.53714 4.28414,-1.23142 l 0.13757,-0.0641 0.13179,0.0819 c 0.35735,0.22202 0.67605,0.32253 1.02151,0.32218 0.53139,-4.9e-4 0.8979,-0.25566 0.9803,-0.68233 0.0303,-0.15691 0.0147,-0.26144 -0.0621,-0.41653 -0.084,-0.16955 -0.19636,-0.31881 -0.39507,-0.5249 -0.36448,-0.37799 -0.9354,-0.83163 -1.71606,-1.36355 -0.1456,-0.0992 -0.16829,-0.12321 -0.42321,-0.44757 -2.129,-2.70887 -4.29016,-5.34085 -5.81989,-7.08774 -0.94651,-1.08089 -1.52778,-1.70873 -2.26031,-2.44147 -0.88683,-0.88707 -1.47637,-1.38304 -1.90532,-1.60289 -0.22364,-0.11464 -0.20793,-0.1173 -0.23893,0.0404 -0.0412,0.20979 -0.13496,0.38227 -0.29527,0.54348 -0.15964,0.16052 -0.28119,0.24435 -0.52191,0.35993 -0.17528,0.0841 -0.59241,0.23489 -0.65121,0.23531 -0.0157,0 -0.0282,0.006 -0.0277,0.0125 4.9e-4,0.007 0.166,0.12118 0.36782,0.25434 0.66834,0.44094 1.12328,0.79952 1.53497,1.20989 0.79469,0.79211 0.95976,1.40761 0.52037,1.9403 -0.15065,0.18263 -0.45779,0.39012 -0.96365,0.65098 -0.91496,0.47182 -1.67854,0.63073 -2.25854,0.47001 -0.22248,-0.0617 -0.31203,-0.11627 -0.82508,-0.5033 -1.92162,-1.4496 -3.25955,-2.67318 -3.99203,-3.65083 -0.67406,-0.89967 -1.07286,-1.7691 -1.19439,-2.60385 -0.0296,-0.20323 -0.0258,-0.69355 0.007,-0.87339 0.0954,-0.52681 0.28726,-0.89383 0.66214,-1.26645 0.15495,-0.15401 0.25755,-0.23903 0.41062,-0.34029 0.35386,-0.23409 1.00194,-0.53356 1.08537,-0.50154 0.0818,0.0314 -0.0343,0.18514 -0.4148,0.54924 -0.51703,0.49475 -0.76635,0.83174 -0.93917,1.26945 -0.17144,0.43423 -0.20203,0.96805 -0.0797,1.39142 0.17352,0.60067 0.69575,1.38678 1.56173,2.35093 0.31637,0.35223 1.25796,1.28682 1.53265,1.52123 0.53253,0.45451 1.07179,0.81433 1.50743,1.00586 0.45119,0.19836 0.81345,0.27633 1.20725,0.25984 0.32678,-0.0137 0.60507,-0.0971 0.91406,-0.27385 0.75669,-0.43294 0.75949,-0.96041 0.008,-1.56463 -0.0863,-0.0694 -0.22991,-0.17409 -0.31922,-0.23266 -1.05399,-0.69132 -1.2823,-0.86251 -1.68247,-1.26146 -0.36163,-0.36055 -0.52797,-0.62711 -0.59321,-0.95064 -0.0531,-0.26329 -0.0426,-0.40654 0.0329,-0.44692 0.0535,-0.0286 0.16107,0.0198 0.30729,0.13842 0.25148,0.204 0.45204,0.31697 0.72536,0.40859 0.24799,0.0831 0.59186,0.13919 0.85382,0.13919 0.42635,0 0.65614,-0.23022 0.73327,-0.73463 0.0274,-0.17925 0.0305,-0.47931 0.007,-0.7009 -0.0147,-0.1395 -0.0244,-0.16951 -0.1032,-0.31834 -0.60634,-1.1456 -1.56748,-1.96282 -2.95877,-2.51575 -0.39013,-0.15505 -1.09273,-0.36204 -1.55191,-0.4572 -0.0324,-0.007 -0.0359,-0.0202 -0.0446,-0.17471 -0.0354,-0.6258 -0.0482,-0.80773 -0.0768,-1.09794 -0.16762,-1.6971 -0.61952,-3.07253 -1.30856,-3.98281 -0.66597,-0.87979 -1.51264,-1.44023 -2.51444,-1.66439 -0.26862,-0.0601 -0.47329,-0.0881 -0.80771,-0.11039 -0.97863,-0.0653 -1.85364,0.21043 -2.71813,0.85646 l -0.17549,0.13114 v 0.41138 0.41137 l 0.10203,0.0715 c 0.54867,0.3848 0.83506,0.8366 0.80622,1.27184 -0.005,0.0805 -0.0298,0.20935 -0.0584,0.30699 -0.0908,0.31052 -0.0991,0.51364 -0.0326,0.79987 0.0588,0.2533 0.18757,0.47862 0.44022,0.77052 0.3535,0.40843 0.52543,0.82403 0.62131,1.50191 0.01,0.0673 0.0236,0.46404 0.0312,0.88156 0.008,0.41751 0.0221,0.83257 0.0321,0.92236 0.12368,1.10826 0.40781,2.14172 0.9118,3.31656 0.53865,1.25559 1.28631,2.71007 2.71337,5.27859 2.07186,3.72901 3.1606,5.87377 3.78311,7.4524 0.51294,1.30077 0.86607,2.64855 0.94316,3.59968 0.0289,0.35685 0.0622,0.56681 0.10517,0.66399 0.0899,0.20323 0.21787,-0.0261 0.40047,-0.71762 l 0.057,-0.21573 v -0.91829 c 0,-0.50505 0.003,-0.91829 0.007,-0.91829 0.0213,0 0.77825,0.29129 1.02953,0.39618 1.82979,0.76384 2.84255,1.5422 3.07803,2.3656 0.0273,0.0954 0.0371,0.19396 0.0483,0.48691 0.0176,0.45734 0.0388,0.60839 0.0947,0.67341 0.0323,0.0376 0.0384,0.0365 0.0891,-0.0164 z M 132.7895,291.52612 c -0.38714,-0.0883 -0.5576,-0.33429 -0.55822,-0.80541 -6.8e-4,-0.5227 0.20031,-0.8389 0.58388,-0.91856 0.15259,-0.0317 0.47787,-0.0119 0.60998,0.0371 0.30358,0.11256 0.45006,0.34219 0.46706,0.73211 0.0266,0.60989 -0.26402,0.94723 -0.83674,0.97136 -0.10691,0.004 -0.1987,-10e-4 -0.26596,-0.0166 z m -2.36016,1.26691 c 0.14443,-0.10463 0.20774,-0.21466 0.20806,-0.36158 4.8e-4,-0.21662 -0.1736,-0.47281 -0.52261,-0.76911 l -0.13383,-0.11362 -0.61766,0.14181 c -0.33972,0.078 -0.62093,0.14458 -0.62491,0.14796 -0.0121,0.0102 0.19508,0.21351 0.32559,0.31951 0.27258,0.22142 0.63452,0.42553 1.05296,0.59384 0.11673,0.0469 0.22031,0.0859 0.23019,0.0865 0.01,6.5e-4 0.0469,-0.0197 0.0822,-0.0453 z m -1.4511,-1.36843 0.90193,-0.1604 v -0.42853 c 0,-0.24422 -0.006,-0.42853 -0.0147,-0.42853 -0.0487,0 -0.38654,0.13283 -0.58112,0.22848 -0.25682,0.12628 -0.51343,0.29105 -0.75169,0.48267 -0.1973,0.1587 -0.53372,0.4851 -0.48901,0.47447 0.0179,-0.004 0.43852,-0.0799 0.93458,-0.16816 z m -9.84597,-9.24938 c -0.0178,-3.12849 -0.0638,-16.04444 -0.0572,-16.04971 0.006,-0.005 10.87701,-0.0741 10.88014,-0.0694 0.004,0.006 -0.20555,17.79374 -0.20939,17.79697 -0.004,0.004 -10.40535,0.20513 -10.53578,0.20415 l -0.0671,-4.9e-4 -0.0107,-1.88147 z m 5.59511,0.44548 c 2.03693,-0.0352 3.70809,-0.0686 3.71368,-0.0743 0.0105,-0.0105 0.15115,-15.17757 0.14084,-15.18801 -0.006,-0.006 -8.20774,0.0614 -8.21142,0.0676 -0.003,0.004 0.0692,15.2497 0.0719,15.25529 0.005,0.0107 0.863,-0.001 4.28502,-0.0606 z m 31.13626,0.28915 c -0.0143,-1.59105 -0.0668,-16.77619 -0.0581,-16.78341 0.01,-0.008 10.86169,-0.074 10.87054,-0.0658 0.007,0.006 -0.19384,17.78909 -0.20047,17.79394 -0.003,0.002 -10.44275,0.20323 -10.53439,0.20256 l -0.0673,-4.9e-4 z m 5.59516,-0.28915 c 2.03693,-0.0352 3.70725,-0.0678 3.71181,-0.0724 0.009,-0.008 0.14984,-15.17926 0.14152,-15.18987 -0.005,-0.006 -8.20555,0.0614 -8.21195,0.0678 -0.002,0.002 0.0102,3.00468 0.0273,6.67237 0.0171,3.6677 0.0313,7.10014 0.0316,7.62764 l 4.1e-4,0.9591 0.29793,-3.3e-4 c 0.16386,-1.6e-4 1.96452,-0.0291 4.00144,-0.0644 z M 144.909,260.17115 c -0.006,-0.8564 -0.017,-2.98595 -0.0247,-4.73232 -0.0139,-3.13291 -0.0146,-3.17755 -0.0485,-3.34969 -0.36648,-1.86003 -2.3725,-4.01393 -6.17253,-6.62757 -0.17503,-0.12038 -0.32043,-0.2303 -0.32312,-0.24426 -0.004,-0.0213 3.35835,-22.51206 3.38546,-22.64464 0.0105,-0.0511 0.0292,-0.0578 0.33203,-0.11856 1.31613,-0.26394 2.70992,-0.0931 3.69875,0.45343 0.72393,0.4001 1.29722,1.05741 1.60493,1.84015 l 0.0481,0.12244 0.007,18.40843 0.007,18.40844 -0.73556,0.0104 c -0.40455,0.006 -0.9679,0.015 -1.25187,0.0206 l -0.51632,0.0102 z m 0.82385,-23.54309 0.0509,-11.12981 -0.0526,-0.0937 c -0.188,-0.33482 -0.51827,-0.58143 -0.99819,-0.74535 -0.34074,-0.11638 -0.82222,-0.18707 -1.14162,-0.16761 -0.21509,0.0131 -0.30225,0.0525 -0.3914,0.1769 -0.0257,0.0358 -0.26682,1.68602 -1.40236,9.59667 -0.75425,5.25437 -1.37135,9.56657 -1.37135,9.58267 0,0.0206 0.10492,0.0932 0.35507,0.24559 2.42205,1.47549 4.13314,3.04626 4.81709,4.42204 l 0.0763,0.15359 0.004,-0.4556 c 0.002,-0.25058 0.0265,-5.46402 0.0545,-11.58542 z m -16.18728,-18.63894 c -1.40714,-0.0216 -2.77679,-0.0564 -4.51389,-0.1148 -0.57675,-0.0194 -1.2955,-0.0321 -1.81465,-0.0321 h -0.85963 l -0.0748,-0.0832 c -0.24687,-0.27458 -0.36667,-0.63129 -0.32276,-0.96109 0.0318,-0.23902 0.15597,-0.55529 0.30029,-0.76507 0.37208,-0.54079 1.34141,-0.64945 2.92663,-0.32808 0.17958,0.0364 0.51383,0.11384 0.74279,0.17208 0.45377,0.11541 0.60661,0.13667 1.21622,0.16919 1.26929,0.0677 2.37638,-0.0694 3.2242,-0.39921 0.3731,-0.14515 0.64569,-0.29297 0.98767,-0.53559 0.76892,-0.54553 1.13758,-1.02737 1.13929,-1.48908 4.9e-4,-0.13029 -0.007,-0.16911 -0.0666,-0.34283 -0.037,-0.10775 -0.0782,-0.23998 -0.0917,-0.29385 -0.10561,-0.42181 -0.0993,-1.13949 0.0165,-1.88555 0.0762,-0.49074 0.42869,-2.19596 0.57194,-2.76667 0.0357,-0.1424 0.0537,-0.24693 0.0479,-0.27814 -0.005,-0.0275 -0.0502,-0.133 -0.1001,-0.23442 -0.0747,-0.15175 -0.11152,-0.20541 -0.20806,-0.30286 -0.13651,-0.1378 -0.24556,-0.19579 -0.41865,-0.22265 -0.24372,-0.0378 -0.47709,0.0441 -0.64554,0.22667 -0.29367,0.31826 -0.37732,0.38209 -0.633,0.483 -0.13443,0.053 -0.42755,0.13118 -0.5912,0.15758 l -0.1203,0.0194 -0.10705,-0.0599 c -0.23117,-0.12927 -0.43344,-0.32225 -0.56534,-0.53937 -0.1221,-0.20098 -0.16393,-0.3325 -0.22872,-0.71903 -0.0881,-0.52538 -0.1304,-0.6593 -0.22612,-0.71517 -0.0783,-0.0457 -0.24873,-0.22523 -0.3078,-0.32424 -0.074,-0.12403 -0.11887,-0.26047 -0.13024,-0.39607 l -0.01,-0.11528 -0.12466,-0.13067 c -0.28129,-0.29481 -0.4004,-0.56918 -0.36004,-0.8293 0.0286,-0.18459 0.0819,-0.27618 0.26803,-0.46082 0.18052,-0.1791 0.3533,-0.30236 0.77655,-0.554 0.5091,-0.30268 0.85824,-0.55296 1.33107,-0.95419 0.16162,-0.13714 0.38163,-0.3082 0.48891,-0.38013 0.23862,-0.16 0.59295,-0.33463 0.83343,-0.41076 0.68601,-0.21716 1.00656,-0.3239 1.31052,-0.43638 0.39251,-0.14524 0.41177,-0.15396 0.41177,-0.18646 0,-0.0568 0.0869,-0.21152 0.16547,-0.29456 0.24129,-0.25513 0.7183,-0.42387 1.42623,-0.50453 1.73333,-0.19749 3.20592,0.15142 4.61183,1.09272 0.33555,0.22466 0.5617,0.4082 0.85299,0.69229 0.72184,0.70398 1.36497,1.64472 1.94634,2.84701 0.1543,0.31909 0.37831,0.82484 0.48968,1.10552 0.0559,0.14089 0.0729,0.16611 0.18547,0.27553 0.84464,0.82086 2.00566,1.49711 3.18181,1.85331 0.84163,0.25489 1.64845,0.37679 2.62451,0.39653 1.06546,0.0215 2.16136,-0.099 3.37929,-0.37184 0.55056,-0.12332 0.48893,-0.0962 0.64616,-0.28431 0.17385,-0.20799 0.59706,-0.64033 0.80025,-0.81751 0.73389,-0.63993 1.53344,-1.04273 2.38182,-1.19991 0.2683,-0.0497 0.67769,-0.0607 0.90048,-0.0241 0.33182,0.0545 0.72662,0.21565 1.05037,0.42885 0.70857,0.46662 1.43636,1.33644 2.09399,2.50263 l 0.0508,0.0901 -0.051,0.0883 c -0.083,0.14385 -0.24124,0.29939 -0.35901,0.353 -0.37841,0.17223 -0.84112,-0.11249 -1.47333,-0.90661 -0.12486,-0.15684 -0.28733,-0.34494 -0.36106,-0.418 -0.52399,-0.51929 -1.07388,-0.68102 -1.65531,-0.48684 -0.25119,0.0839 -0.53735,0.25121 -0.77442,0.45283 l -0.0643,0.0547 0.1459,0.079 c 1.64825,0.89262 3.34285,2.0067 4.66794,3.06883 0.76272,0.61135 1.46957,1.30537 1.97838,1.94246 0.64086,0.80243 1.14349,1.72726 1.27763,2.35081 0.19144,0.8899 -0.0676,1.6856 -0.7852,2.41195 l -0.1412,0.14292 h -7.78575 -7.78576 l -0.0853,-0.11431 c -0.34834,-0.46698 -0.37932,-0.88365 -0.0933,-1.25532 0.33705,-0.43803 0.89906,-0.63086 1.74806,-0.59977 0.63955,0.0234 1.2185,0.12097 2.2447,0.37825 0.77367,0.19397 1.1612,0.2525 1.67178,0.2525 0.52769,0 0.93515,-0.0849 1.30444,-0.27189 0.3055,-0.15466 0.6192,-0.44971 0.80911,-0.76098 l 0.0674,-0.11049 -0.0391,-0.0962 c -0.20063,-0.49376 -0.75128,-0.87047 -1.57711,-1.07892 -0.70658,-0.17835 -1.32324,-0.18835 -1.92219,-0.0312 -0.25342,0.0665 -0.32556,0.0945 -0.68983,0.26807 -0.36536,0.17406 -0.52467,0.2386 -0.88971,0.36046 -0.73617,0.24576 -1.83255,0.51683 -3.1589,0.78101 -2.35873,0.4698 -3.93917,0.65051 -5.46074,0.62438 -0.61381,-0.0105 -0.73661,-0.0189 -1.28967,-0.088 -0.30503,-0.0381 -0.42068,-0.0449 -0.76729,-0.0451 -0.33688,-1.6e-4 -0.43009,0.005 -0.53395,0.0294 -0.2446,0.0574 -0.42223,0.18463 -0.46717,0.33463 -0.0464,0.15476 -0.0176,0.33995 0.0901,0.5806 0.0857,0.19129 0.0614,0.2741 -0.11332,0.38703 -0.45015,0.29094 -1.78332,0.46067 -4.2242,0.5378 -0.72001,0.0227 -3.26362,0.0322 -4.31799,0.016 z m 6.22801,-1.81505 c 0,-0.0954 0.0456,-0.39217 0.083,-0.53982 0.103,-0.40717 0.26981,-0.70756 0.53471,-0.96293 0.24641,-0.23753 0.54666,-0.39046 0.93321,-0.47531 0.48164,-0.10572 0.89466,-0.10244 1.71414,0.0136 1.98165,0.2806 3.76425,0.36377 5.41992,0.2529 1.93006,-0.12925 4.2234,-0.81906 7.52424,-2.26319 l 0.10448,-0.0457 -0.011,-0.35735 c -0.0245,-0.79076 -0.10673,-1.29733 -0.26315,-1.62041 -0.13421,-0.2772 -0.32592,-0.39405 -0.54696,-0.3334 -0.0835,0.0229 -0.56855,0.0621 -1.03665,0.0837 -0.43701,0.0202 -1.22396,0.0113 -1.62434,-0.0183 -2.60543,-0.19291 -4.68626,-1.05974 -6.49368,-2.70513 l -0.12957,-0.11796 -0.16813,0.21399 c -0.77843,0.99073 -1.74024,1.97827 -2.70981,2.78228 -0.92044,0.76328 -1.93542,1.45448 -3.02831,2.06225 -0.38501,0.21412 -1.11514,0.58355 -1.49021,0.75402 l -0.26584,0.12082 -0.0397,0.0834 c -0.0559,0.11764 -0.0726,0.20421 -0.0731,0.37842 -0.001,0.42259 0.22475,0.96169 0.69865,1.66757 0.24845,0.37007 0.8291,1.11648 0.85592,1.10025 0.007,-0.004 0.0122,-0.0373 0.0122,-0.0737 z m 25.26115,-0.70789 c 0.20044,-0.0309 0.26829,-0.052 0.31389,-0.0976 l 0.0385,-0.0385 -0.0664,-0.19283 c -0.35483,-1.03017 -0.92389,-2.02789 -1.62772,-2.85383 -0.20293,-0.23813 -0.76182,-0.78986 -1.00711,-0.9942 -1.11444,-0.92839 -2.28051,-1.5075 -3.57329,-1.77462 -0.22237,-0.0459 -0.26534,-0.05 -0.43451,-0.0412 -0.22188,0.0115 -0.36135,0.0422 -0.49858,0.1098 -0.41663,0.20511 -0.51061,0.68345 -0.28995,1.47587 0.047,0.16879 0.0825,0.23679 0.23021,0.44078 0.17188,0.23742 0.33503,0.42395 0.61428,0.70231 1.06435,1.06094 2.68708,2.03986 5.2403,3.16122 l 0.32774,0.14394 0.29195,-0.009 c 0.16057,-0.005 0.35892,-0.0195 0.44076,-0.032 z m -26.40694,-4.17773 c 2.60905,-1.31445 4.6716,-2.96471 6.26842,-5.01541 0.24813,-0.31866 0.5585,-0.75844 0.5585,-0.79137 0,-0.051 -0.11007,-0.45859 -0.16024,-0.59343 -0.28112,-0.75565 -0.80765,-1.49219 -1.55118,-2.16993 -0.85024,-0.77499 -1.59524,-1.18975 -2.35052,-1.30859 -0.0926,-0.0146 -0.17223,-0.0227 -0.17688,-0.018 -0.005,0.005 0.0277,0.0623 0.0719,0.12816 0.27294,0.40625 0.46028,0.80984 0.51943,1.11906 0.10751,0.5619 -0.17012,0.9356 -0.81637,1.09881 -0.37106,0.0937 -0.59473,0.25646 -0.73399,0.53409 -0.0954,0.19014 -0.12066,0.4877 -0.0683,0.80415 0.0322,0.19441 0.0324,0.30426 0.001,0.46934 -0.0673,0.35454 -0.26364,0.72945 -0.60818,1.16107 -0.069,0.0865 -0.27445,0.30779 -0.45653,0.49185 l -0.33107,0.33467 -0.0962,0.24487 c -0.31091,0.79169 -0.48699,1.52265 -0.56632,2.35101 -0.0205,0.21425 -0.025,0.40001 -0.0197,0.81672 0.006,0.48623 0.0125,0.57888 0.0395,0.57888 0.005,0 0.21898,-0.10617 0.47654,-0.23593 z m -3.52364,-4.0914 c 0.1157,-0.0525 0.17451,-0.10598 0.29322,-0.2667 0.061,-0.0827 0.14124,-0.17617 0.17822,-0.20782 0.17302,-0.1481 0.37824,-0.21112 0.6881,-0.21131 0.30059,-1.8e-4 0.53159,0.0581 0.70602,0.1781 0.10307,0.0709 0.24232,0.22698 0.29857,0.33463 0.0266,0.0509 0.0562,0.0926 0.0657,0.0926 0.01,0 0.083,-0.0447 0.16325,-0.0994 0.72327,-0.49319 1.12783,-1.09444 1.27326,-1.89232 0.0345,-0.1891 0.0631,-1.04619 0.0399,-1.19715 -0.0227,-0.14829 -0.0674,-0.27121 -0.13038,-0.35896 -0.0661,-0.0921 -0.11322,-0.12613 -0.28261,-0.2044 -0.34765,-0.16061 -0.48849,-0.31539 -0.51682,-0.56797 -0.0392,-0.34994 0.10404,-0.67829 0.3917,-0.89767 0.0441,-0.0337 0.078,-0.0635 0.0752,-0.0662 -0.003,-0.003 -0.1621,0.0319 -0.3541,0.077 -0.49314,0.1159 -1.00848,0.21829 -1.43592,0.28528 -0.42385,0.0664 -0.58395,0.1031 -0.79993,0.18318 -0.37762,0.14001 -0.6247,0.29393 -1.06966,0.66637 -0.35378,0.29612 -0.88989,0.68749 -1.38179,1.00875 -0.13168,0.086 -0.24489,0.16521 -0.25159,0.17604 -0.007,0.0108 -0.0153,0.0717 -0.0191,0.13537 -0.0116,0.19382 0.0739,0.39975 0.2647,0.6375 0.0894,0.11143 0.091,0.11518 0.0785,0.18774 -0.0238,0.13861 -0.0124,0.29628 0.0275,0.38014 0.0757,0.15909 0.26754,0.28603 0.52206,0.34541 0.0908,0.0212 0.0999,0.0201 0.28006,-0.0343 0.1024,-0.0309 0.2927,-0.10089 0.42289,-0.15553 0.20553,-0.0863 0.2507,-0.0995 0.34283,-0.10011 0.0804,-5.7e-4 0.12786,0.009 0.1959,0.0408 0.0881,0.0408 0.27753,0.18281 0.27753,0.2081 0,0.007 -0.0533,0.0335 -0.11836,0.0588 -0.24126,0.0936 -0.43675,0.18668 -0.56601,0.2696 -0.1441,0.0924 -0.30971,0.15277 -0.4954,0.1805 -0.20479,0.0306 -0.19154,0.0234 -0.19154,0.1039 0,0.0975 0.0387,0.29242 0.0793,0.39909 0.0479,0.1259 0.11149,0.20984 0.19706,0.26015 0.0656,0.0385 0.0934,0.0442 0.2297,0.0465 0.0853,0.001 0.17712,0.01 0.20406,0.019 0.0854,0.0286 0.23807,0.0216 0.31788,-0.0146 z m 2.16353,-1.58367 c -1.06015,-0.11569 -1.72034,-0.29503 -1.95528,-0.53114 -0.1161,-0.11669 -0.1647,-0.27383 -0.16599,-0.53683 -9.5e-4,-0.18747 9.9e-4,-0.20064 0.0512,-0.3061 0.0287,-0.0606 0.0618,-0.10986 0.0735,-0.10945 0.0117,4.1e-4 0.0542,0.018 0.0945,0.039 l 0.0732,0.0383 2.5e-4,0.17729 c 2.3e-4,0.15794 0.005,0.18748 0.0441,0.27077 0.0583,0.12439 0.13145,0.2127 0.25005,0.30186 0.32846,0.24695 0.97969,0.43122 1.80392,0.51044 0.11224,0.0108 0.24721,0.0244 0.29996,0.0303 l 0.0959,0.0107 -0.16501,0.0694 c -0.0907,0.0382 -0.17798,0.0686 -0.19385,0.0675 -0.0159,-0.001 -0.1537,-0.0155 -0.30635,-0.0321 z m -1.70449,-1.64625 c -0.019,-0.012 -0.0211,-0.059 -0.0121,-0.26697 0.0167,-0.38685 0.0743,-0.56945 0.2216,-0.70255 0.11569,-0.10452 0.16034,-0.1168 0.41756,-0.11492 0.17673,0.001 0.25816,0.01 0.35915,0.0363 0.13985,0.037 0.36138,0.13938 0.43964,0.20312 l 0.0478,0.039 -0.0801,0.0856 c -0.21899,0.23414 -0.61533,0.45228 -0.99765,0.54912 -0.10447,0.0265 -0.11966,0.0354 -0.14302,0.0844 -0.0385,0.0808 -0.18373,0.13068 -0.25288,0.0869 z m -0.51032,-0.27393 c -0.0128,-0.0556 -0.0215,-0.18895 -0.0211,-0.3232 5.2e-4,-0.19726 0.006,-0.24108 0.037,-0.32005 0.0829,-0.20833 0.21114,-0.3336 0.46843,-0.45748 0.2946,-0.14183 0.53958,-0.16457 1.04889,-0.0973 0.31058,0.041 0.34147,0.0538 0.25912,0.10778 -0.0696,0.0456 -0.14449,0.0578 -0.45094,0.0733 -0.45166,0.0228 -0.62436,0.0819 -0.80317,0.27506 -0.14757,0.1594 -0.25118,0.39047 -0.3049,0.67999 l -0.0273,0.14692 -0.0922,0.005 -0.0922,0.005 z m 4.99728,-0.60733 c 0.25943,-0.0807 0.42122,-0.31562 0.49868,-0.72395 0.0463,-0.24417 0.0234,-0.39338 -0.0667,-0.43442 -0.0644,-0.0293 -0.23383,-0.0222 -0.3117,0.0132 -0.13023,0.0591 -0.21144,0.2261 -0.25228,0.51873 -0.0158,0.11328 -0.0399,0.18747 -0.11495,0.3539 -0.0896,0.19874 -0.10936,0.2675 -0.0841,0.29278 0.0228,0.0228 0.23445,0.01 0.33099,-0.0202 z m -0.866,-0.0556 c 0.16749,-0.11084 0.2719,-0.38143 0.33505,-0.86831 0.0438,-0.33773 0.12174,-0.47929 0.31172,-0.56623 0.11871,-0.0543 0.33729,-0.0498 0.53853,0.0112 0.0808,0.0245 0.16029,0.0483 0.17663,0.053 0.0283,0.008 0.0284,0.005 0.003,-0.0549 -0.0757,-0.18167 -0.23538,-0.36394 -0.39467,-0.45061 -0.18453,-0.1004 -0.46441,-0.12808 -0.60541,-0.0599 -0.11895,0.0575 -0.27504,0.22824 -0.39493,0.43193 -0.0855,0.14533 -0.14547,0.22021 -0.3233,0.40396 -0.29894,0.30889 -0.448,0.51218 -0.4915,0.67033 -0.0225,0.0817 0.0156,0.16118 0.1339,0.27909 0.13846,0.13803 0.31826,0.20625 0.52617,0.19964 0.0956,-0.003 0.12771,-0.0116 0.18454,-0.0492 z m 9.72485,-8.79614 c -0.006,-0.85637 -0.017,-2.98589 -0.0247,-4.73227 -0.0139,-3.13291 -0.0146,-3.17755 -0.0485,-3.34969 -0.17009,-0.8633 -0.67659,-1.7582 -1.57826,-2.78853 -0.24764,-0.28299 -0.93675,-0.97285 -1.26884,-1.27022 -0.9269,-0.83002 -1.93052,-1.60542 -3.32555,-2.56932 -0.17509,-0.12098 -0.3205,-0.23109 -0.32314,-0.2447 -0.004,-0.0209 3.35904,-22.51424 3.38558,-22.6437 0.0105,-0.0511 0.0292,-0.0578 0.33205,-0.11856 1.26005,-0.25269 2.60886,-0.1068 3.57431,0.38659 0.79248,0.40499 1.40557,1.08101 1.72949,1.90699 l 0.048,0.12244 0.007,18.40848 0.007,18.40848 -0.77637,0.0104 c -0.427,0.006 -0.99035,0.0149 -1.25188,0.0205 l -0.4755,0.0101 z m 0.82385,-23.54303 0.0509,-11.12982 -0.0526,-0.0937 c -0.24525,-0.43677 -0.77475,-0.7454 -1.49302,-0.87022 -0.25847,-0.0449 -0.74089,-0.0548 -0.84695,-0.0173 -0.0649,0.0229 -0.17916,0.11519 -0.20697,0.16714 -0.014,0.0262 -2.75798,19.09252 -2.75798,19.16367 0,0.0205 0.0573,0.0642 0.18365,0.14014 0.84485,0.50789 1.69512,1.08861 2.36162,1.61296 0.83305,0.65537 1.59455,1.4045 2.07638,2.04267 0.22881,0.30305 0.45278,0.66103 0.57502,0.91905 l 0.0518,0.10943 0.004,-0.4571 c 0.002,-0.25141 0.0265,-5.46552 0.0545,-11.58692 z m -11.35506,-18.6336 c -1.55084,-0.0392 -2.91046,-0.26548 -3.92618,-0.65335 -0.49549,-0.18922 -0.87145,-0.39183 -1.35498,-0.73025 -0.15713,-0.10997 -0.36327,-0.24828 -0.4581,-0.30735 -1.7966,-1.11923 -3.74133,-1.44219 -5.81073,-0.96496 -0.13917,0.0321 -0.25697,0.0607 -0.26177,0.0636 -0.0146,0.009 -0.3676,-0.0238 -0.63611,-0.0585 -0.64679,-0.0837 -1.19741,-0.22841 -1.61108,-0.42354 -0.66501,-0.31369 -1.03117,-0.7191 -1.19328,-1.32119 -0.0389,-0.14441 -0.0421,-0.18298 -0.043,-0.50728 -9.5e-4,-0.3699 0.0113,-0.4857 0.0829,-0.7836 0.19719,-0.82 0.76315,-1.59275 1.61347,-2.20301 0.16881,-0.12116 0.6001,-0.40225 0.63505,-0.4139 0.009,-0.003 -0.0754,-0.1077 -0.18713,-0.23284 -1.31169,-1.46977 -1.83413,-2.58878 -1.5727,-3.36856 0.0749,-0.22335 0.20499,-0.40852 0.40222,-0.57241 0.14757,-0.12263 0.21291,-0.15461 0.38705,-0.18943 0.1735,-0.0347 0.45091,-0.0243 0.59861,0.0224 0.39975,0.12645 0.76424,0.45538 1.09404,0.98732 0.33478,0.53996 0.61278,1.23699 0.91578,2.29613 l 0.03,0.10497 0.0709,-0.24374 c 0.10216,-0.3513 0.26694,-0.85391 0.38497,-1.17426 0.61294,-1.66361 1.24741,-2.47371 1.93701,-2.47316 0.28669,2.3e-4 0.64005,0.0894 0.85471,0.21575 0.14614,0.086 0.32666,0.26653 0.41267,0.41267 0.1362,0.23145 0.2297,0.62548 0.20726,0.8734 -0.0369,0.40711 -0.25733,0.85891 -0.66119,1.35498 -0.29022,0.35647 -0.88156,0.91712 -1.3829,1.31111 -0.0919,0.0722 -0.16479,0.13368 -0.16193,0.13654 0.003,0.003 0.16255,0.0631 0.35487,0.13379 1.63673,0.60189 3.22685,1.35572 4.73031,2.24251 1.35233,0.79764 3.14034,1.29206 5.06815,1.40144 0.43758,0.0248 1.63479,0.0105 2.06038,-0.0247 1.18999,-0.0984 2.23894,-0.27094 3.52082,-0.57931 0.51353,-0.12353 1.53275,-0.32278 2.34067,-0.45759 3.82519,-0.63827 6.90144,-0.62974 9.29634,0.0258 0.38767,0.10611 0.73534,0.22496 1.25214,0.42803 0.69179,0.27183 1.1426,0.43323 1.68694,0.60398 1.76755,0.55444 3.62946,0.91316 5.59893,1.07872 0.6678,0.0561 1.49976,0.0986 1.93643,0.0989 0.21577,1.6e-4 0.2845,0.008 0.54689,0.0585 1.43586,0.27929 2.53986,0.75379 3.37363,1.44998 0.18224,0.15216 0.1945,0.18049 0.12757,0.2947 -0.24765,0.42258 -1.73863,0.68948 -4.33568,0.77614 -0.28283,0.009 -0.67219,0.0282 -0.86523,0.0417 -0.62224,0.0435 -0.92555,0.056 -1.60802,0.0667 -1.72548,0.0269 -3.8729,-0.10287 -6.52187,-0.39414 -1.76204,-0.19375 -2.41662,-0.23013 -3.86904,-0.21505 -0.88401,0.009 -1.07222,0.0164 -1.79576,0.0691 -1.95564,0.14238 -4.18915,0.53484 -6.16943,1.08405 -0.23031,0.0639 -0.41298,0.0995 -0.87673,0.17082 -2.40798,0.37047 -4.47168,0.53256 -6.21796,0.4884 z m 1.57537,-1.63797 c 0.71618,-0.0243 1.04997,-0.0559 2.17123,-0.20504 2.34562,-0.31209 4.38278,-0.63495 6.48106,-1.02713 0.35466,-0.0663 0.7734,-0.13924 0.93053,-0.16212 1.53097,-0.22291 3.12493,-0.24748 4.81589,-0.0742 0.47422,0.0486 0.88546,0.10426 1.57527,0.21328 2.03971,0.32235 3.4659,0.48077 5.15883,0.57302 0.75666,0.0412 2.69902,0.023 3.90169,-0.0367 0.98883,-0.049 2.8532,-0.19201 2.93619,-0.22514 0.0167,-0.007 -0.21106,-0.025 -0.50608,-0.0409 -2.60705,-0.13969 -4.90679,-0.33719 -6.12598,-0.52608 -1.27125,-0.19696 -2.78398,-0.58321 -4.69735,-1.19937 -0.70871,-0.22823 -1.12465,-0.34648 -1.54156,-0.43828 -1.51369,-0.33328 -3.07849,-0.42195 -4.77411,-0.27053 -1.40849,0.12578 -5.09542,0.71798 -7.77074,1.24814 -1.25411,0.24853 -1.87288,0.32885 -2.75166,0.35717 -1.55758,0.0502 -2.93296,-0.17111 -4.30077,-0.69203 -0.39848,-0.15176 -0.80999,-0.34837 -1.29784,-0.62007 -2.26329,-1.26048 -3.96611,-1.98941 -5.2618,-2.25242 -0.42302,-0.0859 -0.65944,-0.11151 -1.02336,-0.11101 -0.79713,0.001 -1.46615,0.18044 -1.98161,0.53116 -0.19012,0.12936 -0.4635,0.40256 -0.59239,0.592 -0.0552,0.0812 -0.14295,0.23177 -0.19495,0.33466 l -0.0946,0.18709 0.001,0.22039 c 0.002,0.35018 0.0714,0.5546 0.25137,0.73697 0.14473,0.14671 0.35842,0.23932 0.63296,0.27432 0.098,0.0125 0.13409,0.008 0.3619,-0.0486 0.74644,-0.18444 1.32077,-0.25927 2.08995,-0.27231 0.54074,-0.009 0.82312,0.004 1.26485,0.0608 1.39584,0.17828 2.81463,0.72653 4.0976,1.58339 0.1843,0.12309 0.51023,0.26823 1.03963,0.46293 1.35422,0.49807 2.76629,0.77458 4.21692,0.82575 0.50728,0.0179 0.48612,0.0179 0.98779,8.3e-4 z m -13.42738,-3.32323 c -0.16355,-0.0323 -0.3326,-0.12051 -0.42229,-0.22027 -0.10617,-0.11807 -0.14577,-0.23169 -0.1476,-0.4234 -10e-4,-0.14283 0.003,-0.16398 0.0518,-0.26759 0.12311,-0.25998 0.46726,-0.48144 0.94696,-0.60941 0.13902,-0.0371 0.19143,-0.0424 0.42004,-0.0428 0.21855,-3.8e-4 0.28652,0.006 0.41629,0.0373 0.34836,0.0849 0.69778,0.24453 1.04015,0.4752 0.28952,0.19505 0.2692,0.17004 0.19236,0.23679 -0.52571,0.45676 -1.10351,0.72297 -1.76772,0.81444 -0.22289,0.0307 -0.57396,0.0306 -0.72999,-2.9e-4 z"
       id="path1292" />
  </g>
</svg>
