<?xml version="1.0" encoding="UTF-8" standalone="no"?>
<!-- Created with Inkscape (http://www.inkscape.org/) -->

<svg
   width="1080"
   height="1920"
   viewBox="0 0 285.75001 508"
   version="1.1"
   id="svg5"
   inkscape:export-filename="/Users/albertotomasoni/ALBERTO.png"
   inkscape:export-xdpi="96"
   inkscape:export-ydpi="96"
   inkscape:version="1.1.1 (c3084ef, 2021-09-22)"
   sodipodi:docname="gianluca.svg"
   xmlns:inkscape="http://www.inkscape.org/namespaces/inkscape"
   xmlns:sodipodi="http://sodipodi.sourceforge.net/DTD/sodipodi-0.dtd"
   xmlns="http://www.w3.org/2000/svg"
   xmlns:svg="http://www.w3.org/2000/svg">
  <sodipodi:namedview
     id="namedview7"
     pagecolor="#ffffff"
     bordercolor="#666666"
     borderopacity="1.0"
     inkscape:pageshadow="2"
     inkscape:pageopacity="0.0"
     inkscape:pagecheckerboard="0"
     inkscape:document-units="px"
     showgrid="false"
     units="px"
     inkscape:zoom="0.24661248"
     inkscape:cx="476.45602"
     inkscape:cy="1062.3955"
     inkscape:window-width="1440"
     inkscape:window-height="758"
     inkscape:window-x="22"
     inkscape:window-y="77"
     inkscape:window-maximized="0"
     inkscape:current-layer="g2878" />
  <defs
     id="defs2" />
  <g
     inkscape:label="ALBERTO"
     inkscape:groupmode="layer"
     id="g2878">
    <text
       xml:space="preserve"
       style="font-weight:500;font-size:19.0077px;line-height:1.25;font-family:'Helvetica Neue';-inkscape-font-specification:'Helvetica Neue Medium';text-align:center;text-decoration-color:#000000;text-anchor:middle;white-space:pre;inline-size:858.441;fill=currentColor;stroke-width:1.51181;stroke-linecap:round;paint-order:markers fill stroke;stop-color:#000000"
       x="413.24438"
       y="323.54794"
       id="text2874"
       transform="matrix(2.7839642,0,0,2.7839642,-1008.0061,-810.36416)"><tspan
         x="413.24438"
         y="323.54794"
         id="tspan1510"><tspan
           style="font-weight:normal;font-family:Bison;-inkscape-font-specification:Bison"
           id="tspan1508">gianluca</tspan></tspan></text>
    <path
       style="fill=currentColor;stroke-width:0.0163251"
       d="m 112.57565,384.79055 v -1.08562 l 11.65202,-0.002 c 11.52481,-0.002 11.65006,-0.002 11.47245,-0.0329 -1.03135,-0.17914 -1.46367,-0.26231 -2.16307,-0.41613 -7.3812,-1.62343 -13.31566,-5.01193 -16.92277,-9.6627 -0.58953,-0.76011 -1.15706,-1.61761 -1.63138,-2.46495 -0.17999,-0.32154 -0.53255,-1.02337 -0.68887,-1.37131 -0.96808,-2.15479 -1.51184,-4.38173 -1.6702,-6.8402 -0.0104,-0.16162 -0.0255,-0.2963 -0.0335,-0.29929 -0.0195,-0.007 -0.0195,-224.79899 -4e-5,-224.79899 0.008,0 0.0194,-0.068 0.0253,-0.15101 0.0953,-1.34139 0.25224,-2.36665 0.53277,-3.48132 0.94755,-3.76505 3.04602,-7.04208 6.25242,-9.76392 4.4323,-3.76249 10.87447,-6.28349 18.22572,-7.13222 0.32017,-0.037 10.17684,-0.037 10.49702,0 5.49808,0.63478 10.54357,2.21735 14.58645,4.5752 2.81155,1.63973 5.10287,3.62437 6.81768,5.90518 1.59143,2.11672 2.67364,4.48371 3.2207,7.04427 0.19381,0.90714 0.30749,1.74717 0.38608,2.85281 0.006,0.083 0.0173,0.15101 0.0253,0.15101 0.0195,0 0.0195,224.79172 0,224.79899 -0.008,0.003 -0.0232,0.13767 -0.0336,0.29929 -0.17664,2.74236 -0.84056,5.23076 -2.01667,7.55851 -1.29492,2.5629 -3.16736,4.82497 -5.61609,6.78475 -3.45195,2.76267 -7.99905,4.82481 -13.16618,5.97094 -0.7619,0.169 -1.32362,0.27731 -2.36713,0.45648 -0.0568,0.01 4.19319,0.0161 11.56223,0.0174 l 11.65202,0.002 v 1.08562 1.08561 h -30.29934 -30.29933 v -1.08561 z m 32.01347,-2.7337 c 1.24172,-0.0564 2.21654,-0.13237 3.26502,-0.25432 6.672,-0.77598 12.49854,-3.06085 16.61449,-6.51537 3.09599,-2.59846 5.1445,-5.80235 6.02707,-9.4264 0.24596,-1.00999 0.38062,-1.88157 0.47027,-3.04376 0.0277,-0.35904 0.029,-5.28823 0.029,-112.56139 0,-90.52016 -0.004,-112.24108 -0.0207,-112.47159 -0.10152,-1.39909 -0.31601,-2.57779 -0.69184,-3.8019 -0.61505,-2.00328 -1.66091,-3.91554 -3.05904,-5.59318 -0.68243,-0.81886 -1.59664,-1.73375 -2.43192,-2.43375 -1.65022,-1.38294 -3.61809,-2.6012 -5.78201,-3.57951 -3.34341,-1.51155 -7.17198,-2.51653 -11.29402,-2.96462 -2.50209,-0.272 -5.20561,-0.32867 -7.77889,-0.16306 -7.38749,0.47543 -14.01571,2.74468 -18.53387,6.34528 -1.06017,0.84487 -2.06087,1.81763 -2.87595,2.79566 -1.39813,1.67764 -2.444,3.5899 -3.05905,5.59318 -0.37583,1.22411 -0.59032,2.40281 -0.69183,3.8019 -0.0167,0.23051 -0.0207,21.95143 -0.0207,112.47159 0,107.27316 0.001,112.20235 0.029,112.56139 0.0897,1.16219 0.22431,2.03377 0.47027,3.04376 1.02579,4.21218 3.6229,7.84581 7.60044,10.63377 4.20362,2.94645 9.81796,4.83988 16.05328,5.41395 0.88937,0.0819 1.81342,0.13521 2.95483,0.17049 0.34241,0.0106 2.3684,-0.006 2.72629,-0.0221 z m -6.14639,-19.54286 c -5.30646,-0.0431 -9.94894,-0.0788 -10.31661,-0.0795 l -0.66848,-10e-4 0.15425,-0.14137 c 0.23043,-0.21123 0.48162,-0.46775 0.97255,-0.99322 0.85898,-0.91941 1.21607,-1.23462 1.62872,-1.43762 0.10103,-0.0497 0.23154,-0.0995 0.30134,-0.11507 0.13322,-0.0296 0.29406,-0.0274 0.89212,0.0123 0.38163,0.0253 1.76606,0.0256 2.19573,3.3e-4 0.98099,-0.0575 1.76622,-0.13832 2.57936,-0.2655 0.28373,-0.0444 0.28957,-0.0459 0.29838,-0.0769 0.004,-0.0152 0.0606,-0.1966 0.12512,-0.40312 0.61271,-1.96181 1.75502,-6.53314 2.03309,-8.1361 l 0.0266,-0.15316 -0.14237,-0.23864 c -0.50483,-0.8462 -0.89611,-1.45942 -2.0169,-3.16085 -1.44227,-2.18944 -2.0086,-3.0945 -2.66772,-4.26329 -0.43586,-0.77288 -0.95156,-1.77707 -1.23956,-2.41366 -0.12272,-0.27126 -0.10175,-0.24578 -0.44983,-0.54662 -0.3009,-0.26005 -0.85804,-0.80737 -1.12198,-1.10222 -1.26982,-1.41845 -2.08334,-2.97024 -2.40919,-4.5955 -0.10544,-0.5259 -0.14813,-0.98072 -0.14787,-1.57537 2.2e-4,-0.50334 0.0125,-0.6899 0.13764,-2.08961 0.10423,-1.16579 0.14642,-1.77477 0.14663,-2.11614 l 8e-5,-0.14082 -0.19182,-0.0523 c -0.51898,-0.14144 -1.02158,-0.30811 -1.97126,-0.65368 -1.21295,-0.44134 -1.69421,-0.59149 -2.29937,-0.71734 -1.12289,-0.23351 -2.19672,-0.18334 -3.26683,0.15261 -0.0715,0.0224 -0.13215,0.0386 -0.13483,0.0359 -0.009,-0.009 0.39828,-0.91445 0.53084,-1.17981 0.39711,-0.79495 0.84106,-1.2858 1.4364,-1.58814 0.17426,-0.0885 0.25836,-0.11969 0.50227,-0.18633 0.56762,-0.15511 0.97017,-0.19895 2.20304,-0.24001 0.7758,-0.0258 1.15519,-0.0628 1.59515,-0.1555 0.23801,-0.0501 0.62302,-0.17414 0.80505,-0.25929 0.12433,-0.0581 0.14673,-0.0627 0.49751,-0.10058 0.20202,-0.0218 0.67218,-0.0758 1.0448,-0.12 0.78145,-0.0927 1.19432,-0.13663 1.60802,-0.17116 1.5839,-0.13221 2.7556,-0.042 3.78742,0.29154 0.27918,0.0903 0.41839,0.17603 0.65039,0.40073 0.42248,0.40917 0.76478,1.0201 1.04397,1.86326 0.15337,0.46318 0.24164,0.86676 0.36212,1.65566 0.099,0.64797 0.1632,1.01651 0.22095,1.26738 0.0546,0.23705 0.15748,0.56847 0.18516,0.59624 0.0103,0.0104 0.15472,0.074 0.32083,0.14144 1.85992,0.75477 3.51535,1.61388 4.93834,2.56281 1.31369,0.87605 2.66515,2.01211 3.47995,2.92534 1.00201,1.12305 1.76567,2.00829 2.72505,3.1589 1.50049,1.79959 2.59418,3.16669 5.62238,7.02794 2.48088,3.16338 3.53817,4.48912 4.86269,6.09742 1.3845,1.68112 2.81656,3.33181 4.04912,4.66732 0.38194,0.41384 0.54836,0.60749 0.73868,0.85951 0.70692,0.93612 0.93855,1.68686 0.64989,2.10641 -0.14459,0.21016 -0.44585,0.34889 -0.86564,0.39864 l -0.17039,0.0202 -0.055,0.17146 c -0.0707,0.22034 -0.24989,0.5758 -0.38479,0.76341 -0.64626,0.89878 -1.90217,1.52494 -3.43619,1.71315 -0.37174,0.0456 -0.51107,0.0474 -0.80902,0.0102 -2.15485,-0.26895 -3.9927,-1.06274 -5.63215,-2.4326 -1.40479,-1.17377 -2.74149,-2.83238 -4.14743,-5.1462 -0.0801,-0.13182 -0.14792,-0.23736 -0.15072,-0.23456 -0.003,0.003 -0.0231,0.0935 -0.045,0.20165 -0.12468,0.61446 -0.37716,1.0428 -0.76657,1.30049 -0.27034,0.17891 -0.71433,0.29432 -0.97712,0.25402 -0.61509,-0.0943 -1.13055,-0.37677 -1.87953,-1.02987 l -0.22826,-0.19903 -0.0269,0.25101 c -0.1229,1.14478 -0.35974,2.04021 -0.99904,3.77721 -0.076,0.20652 -0.17131,0.46731 -0.21179,0.57954 l -0.0736,0.20407 0.30441,0.0103 c 0.59112,0.02 1.29204,0.14831 2.08385,0.3815 1.88393,0.55481 3.24374,1.42255 3.72228,2.3753 0.0616,0.12271 0.1386,0.31328 0.1386,0.3432 0,0.0251 -1.31287,0.0176 -11.69691,-0.0667 z m 21.19811,-2.01617 c 0.96593,-0.11161 1.6964,-0.41505 2.19735,-0.91273 0.0997,-0.099 0.21605,-0.22968 0.25864,-0.29036 l 0.0774,-0.11032 -0.0936,-0.13002 c -0.78329,-1.08788 -2.20176,-2.54225 -3.5446,-3.63428 -0.1133,-0.0921 -0.45367,-0.32762 -0.79177,-0.54778 -4.35925,-2.83852 -8.82981,-5.45522 -15.34274,-8.98037 -1.11444,-0.6032 -4.0278,-2.16456 -4.07074,-2.18165 -0.021,-0.008 0.0461,0.0867 0.90409,1.27971 0.94026,1.30749 1.26216,1.76023 1.64244,2.30999 1.09165,1.5782 1.7922,2.71958 2.48286,4.04519 l 0.13004,0.24961 0.16988,-0.11236 c 0.0934,-0.0618 0.28637,-0.19434 0.42876,-0.29451 0.14239,-0.10017 0.26412,-0.18213 0.2705,-0.18213 0.006,0 0.63367,0.74468 1.39394,1.65484 1.33796,1.60175 1.38468,1.6555 1.45588,1.67544 0.4502,0.12606 0.58137,-0.45209 0.40678,-1.7929 -0.06,-0.46102 -0.35075,-3.07583 -0.34576,-3.10983 0.005,-0.034 1.43388,1.6932 1.75329,2.11934 0.38281,0.51076 0.74741,1.03456 1.49993,2.1549 1.2481,1.85817 1.8254,2.65258 2.4973,3.43643 1.8193,2.12246 3.65983,3.16498 5.93445,3.36142 0.25134,0.0217 0.45105,0.0195 0.68565,-0.008 z m -18.94525,-1.3371 c 1.05411,-0.27808 1.76912,-1.45177 2.21794,-3.64075 0.0405,-0.19737 0.0717,-0.36079 0.0693,-0.36314 -0.002,-0.002 -0.0588,0.0598 -0.12544,0.13823 -0.18546,0.21811 -0.53238,0.56963 -0.83619,0.84725 -0.2846,0.26007 -0.94863,0.82215 -0.97129,0.82215 -0.007,0 -0.0555,-0.19283 -0.10747,-0.42854 -0.28781,-1.30461 -0.52674,-2.15146 -0.77038,-2.73036 l -0.0275,-0.0653 -0.13683,0.51423 c -0.20024,0.75256 -0.3479,1.27893 -0.49756,1.77366 -0.1907,0.63041 -0.25371,0.85297 -0.29937,1.05747 -0.096,0.42986 -0.13106,0.73639 -0.11784,1.02975 0.0286,0.63498 0.28958,0.97589 0.82492,1.07757 0.19823,0.0376 0.57141,0.0222 0.77769,-0.0322 z m 20.17507,-3.81865 c -0.0165,-0.0214 -0.26559,-0.32074 -0.55362,-0.66525 -0.70515,-0.84341 -1.21903,-1.47727 -2.83723,-3.4996 -2.34889,-2.93553 -3.17801,-3.94982 -6.60566,-8.08091 -3.10753,-3.74529 -4.5169,-5.46161 -5.83804,-7.10957 -0.30094,-0.3754 -0.47699,-0.556 -1.00204,-1.02804 -1.94014,-1.74422 -4.23431,-3.10332 -7.23765,-4.28767 -0.2141,-0.0844 -0.42864,-0.17964 -0.47676,-0.21159 -0.18271,-0.12128 -0.34506,-0.33974 -0.45475,-0.61196 -0.14255,-0.35376 -0.21037,-0.73917 -0.29569,-1.68045 -0.0462,-0.50904 -0.0743,-0.72317 -0.12128,-0.92237 -0.0169,-0.0718 -0.0535,-0.24153 -0.0812,-0.37713 -0.29044,-1.41997 -0.82577,-2.07126 -1.83734,-2.23532 -0.0811,-0.0132 -0.17095,-0.024 -0.19973,-0.024 -0.0479,0 -0.0531,0.005 -0.062,0.0611 -0.0385,0.24319 -0.0992,0.50399 -0.16431,0.70606 -0.35738,1.10966 -1.13619,2.146 -1.97353,2.62612 -0.0804,0.0461 -0.15071,0.0838 -0.15618,0.0838 -0.0125,0 -0.28472,-0.586 -0.27563,-0.59332 0.004,-0.003 0.0497,-0.0296 0.10235,-0.0592 0.13618,-0.0767 0.32092,-0.22961 0.42029,-0.34792 0.42049,-0.50064 0.64071,-1.20027 0.6126,-1.94619 -0.01,-0.25596 -0.0398,-0.50025 -0.0649,-0.52533 -0.0162,-0.0162 -0.41253,0.0335 -1.40647,0.17631 -0.50281,0.0723 -0.94726,0.13686 -0.98767,0.14355 l -0.0735,0.0122 0.0979,0.0125 c 0.36337,0.0462 0.68676,0.22491 0.91012,0.50282 0.0427,0.053 0.0775,0.11251 0.0774,0.13211 -4.2e-4,0.16936 -0.14281,0.32112 -0.38781,0.41334 -0.54254,0.20421 -1.29296,0.0847 -1.54078,-0.24542 -0.0594,-0.0791 -0.11195,-0.22407 -0.11195,-0.30869 0,-0.0545 0.16225,-0.22484 0.2947,-0.30944 0.0985,-0.0629 0.27463,-0.14188 0.32108,-0.14394 0.016,-6.5e-4 0.0202,-0.005 0.009,-0.009 -0.0412,-0.0167 -1.17924,0.12682 -2.47804,0.3126 -0.64975,0.0929 -1.79002,0.25126 -1.83,0.25408 -0.008,4.9e-4 0.0911,0.0301 0.22041,0.0655 0.49573,0.13594 0.96041,0.29854 1.91976,0.67181 1.28111,0.49847 1.78104,0.66125 2.44247,0.79526 0.21737,0.0441 0.67529,0.10832 0.84687,0.11886 l 0.0733,0.005 -0.005,0.1306 c -0.003,0.0718 -0.0261,0.56403 -0.0523,1.09378 -0.0849,1.71575 -0.0886,1.83231 -0.0887,2.7671 0,1.04748 0.0261,1.5652 0.11429,2.26102 0.31714,2.50309 1.31708,4.27334 3.09263,5.47501 0.32991,0.22328 0.77685,0.48768 0.79451,0.47001 0.004,-0.004 -0.0399,-0.10183 -0.0977,-0.21727 -0.3208,-0.64041 -0.51308,-1.33695 -0.56715,-2.0546 -0.0817,-1.08456 0.22386,-2.04087 0.94162,-2.94668 0.15911,-0.2008 0.68437,-0.71912 0.91075,-0.89873 0.84995,-0.67435 1.93298,-1.23022 2.86656,-1.4713 0.28958,-0.0748 0.55523,-0.10035 0.61002,-0.0587 0.0287,0.0218 0.029,0.0261 0.004,0.0746 -0.0461,0.0891 -0.21173,0.21451 -0.99734,0.7552 -1.4624,1.00645 -2.30396,1.81758 -2.7091,2.61109 -0.22993,0.45035 -0.29252,0.79438 -0.25576,1.40576 0.0556,0.92431 0.24413,1.66226 0.61112,2.39172 0.30097,0.59825 0.66582,1.09048 1.20895,1.63102 0.62426,0.62127 1.34303,1.15614 2.41793,1.79928 0.68459,0.4096 0.93417,0.546 5.88519,3.21617 3.78635,2.04204 5.467,2.97424 7.54219,4.18332 3.09166,1.80132 6.008,3.69515 8.17886,5.31125 0.17509,0.13034 0.32079,0.2375 0.32378,0.23813 0.003,6.6e-4 -0.008,-0.0163 -0.0245,-0.0377 z m -18.83293,-1.42578 c 0.28673,-0.39476 0.3782,-0.56207 0.42234,-0.77247 0.043,-0.20496 0.008,-0.35912 -0.12808,-0.5649 -0.0408,-0.0616 -0.16401,-0.26997 -0.27389,-0.46301 -2.42295,-4.25665 -4.8406,-7.73149 -7.35891,-10.5768 -0.0294,-0.0333 -0.0254,-0.0193 0.0184,0.0634 0.22284,0.42086 0.61538,1.10242 0.9831,1.70689 0.47516,0.78109 0.77145,1.23855 2.32027,3.58244 0.82995,1.25598 1.18299,1.80952 1.62425,2.54671 0.96431,1.61101 1.64556,3.03752 2.10631,4.41054 0.0563,0.16765 0.10688,0.30197 0.11251,0.29849 0.006,-0.003 0.0838,-0.10758 0.17367,-0.23134 z m -2.37062,-35.07173 c -3.16484,-0.0587 -5.95172,-0.49373 -8.48087,-1.32378 -4.04611,-1.32788 -7.48726,-3.6586 -10.93934,-7.40928 -0.46502,-0.50523 -1.00419,-1.12368 -1.06858,-1.22569 -0.24014,-0.38041 -0.086,-0.90795 0.32154,-1.1001 0.066,-0.0311 0.16046,-0.0628 0.20985,-0.0703 0.13677,-0.0209 42.86169,0.0232 43.12268,0.0445 0.55034,0.0449 1.06758,0.25864 1.57537,0.65092 0.18831,0.14547 0.56617,0.52821 0.73061,0.74004 0.78892,1.01634 1.30569,2.38023 1.48044,3.90736 0.0498,0.43552 0.0625,0.78457 0.0534,1.47518 -0.0108,0.82844 -0.0438,1.17814 -0.15123,1.60443 -0.21053,0.83544 -0.65601,1.33343 -1.36231,1.5229 -0.16079,0.0431 -0.26953,0.0369 -0.53996,-0.0312 -1.02376,-0.25763 -1.62785,-1.14397 -1.85864,-2.72708 -0.0823,-0.56442 -0.11089,-1.06555 -0.13161,-2.30547 -0.0195,-1.1653 -0.0414,-1.56696 -0.11592,-2.11813 -0.0503,-0.3721 -0.17101,-0.88972 -0.20753,-0.88972 -0.007,0 -0.0817,0.0704 -0.16681,0.1564 -0.40408,0.40834 -1.29828,1.24039 -1.88735,1.7562 -3.77794,3.30805 -7.59838,5.37573 -11.92334,6.45306 -2.11845,0.5277 -4.51894,0.83764 -6.83204,0.88211 -0.9608,0.0185 -1.19464,0.0195 -1.82841,0.008 z m 2.01615,-1.56652 c 3.66708,-0.12378 6.69345,-0.71509 9.56649,-1.86916 3.03626,-1.21963 5.87016,-3.09281 8.79105,-5.81079 0.16162,-0.15039 0.29591,-0.27887 0.29842,-0.28551 0.003,-0.007 -5.28682,-0.0169 -11.75406,-0.0229 -6.46723,-0.006 -15.18933,-0.0156 -19.38242,-0.0215 l -7.62381,-0.0107 0.15509,0.1693 c 0.44628,0.48724 1.45236,1.47688 2.03247,1.99925 1.01865,0.91728 2.14261,1.77776 3.19155,2.44341 3.41749,2.16869 7.25245,3.24241 12.17034,3.40745 0.56417,0.0189 2.00945,0.0196 2.55488,0.001 z m 23.26912,-1.3589 c 0.10784,-0.34113 0.1332,-0.53582 0.15897,-1.2203 0.0188,-0.49933 0.0101,-0.75541 -0.0436,-1.28968 -0.11932,-1.18673 -0.38635,-2.09175 -0.83333,-2.82424 -0.0575,-0.0943 -0.11939,-0.18978 -0.13748,-0.21222 l -0.0329,-0.0408 0.008,0.0408 c 0.013,0.0641 0.0562,0.53763 0.0745,0.81625 0.009,0.13917 0.0235,0.71218 0.0318,1.27336 0.008,0.56117 0.0197,1.14153 0.0252,1.28968 0.036,0.97189 0.19335,1.67488 0.47078,2.10376 0.076,0.11757 0.18449,0.24705 0.20689,0.24705 0.007,0 0.0389,-0.0826 0.0709,-0.18366 z m -18.31844,-12.57675 c -0.15443,-0.0761 -0.27797,-0.31918 -0.35562,-0.69962 -0.0915,-0.44809 -0.41633,-0.80805 -0.9866,-1.0932 -0.24996,-0.12499 -0.23724,-0.12398 -0.27053,-0.0216 -0.12342,0.37957 -0.47619,0.8193 -1.05988,1.32115 l -0.24418,0.20994 h -6.41973 c -4.46715,0 -6.44432,-0.005 -6.50056,-0.0173 -0.24371,-0.0523 -0.38213,-0.25753 -0.38484,-0.5707 -0.001,-0.12544 0.004,-0.14975 0.0522,-0.24768 0.1782,-0.36201 0.79625,-0.61826 1.8974,-0.78667 0.57114,-0.0874 1.12475,-0.13594 2.06773,-0.18146 1.68312,-0.0812 2.9363,-0.26735 3.11277,-0.46234 0.0598,-0.0661 0.97726,-2.73783 1.30047,-3.78707 0.50429,-1.63711 0.77769,-2.80305 0.83576,-3.56426 0.017,-0.22257 0.016,-0.27979 -0.008,-0.44893 -0.11127,-0.78362 -0.67366,-2.23811 -1.82344,-4.71591 -0.24524,-0.52849 -0.6389,-1.3177 -1.70595,-3.4201 -2.35504,-4.64012 -3.88661,-7.83157 -4.28147,-8.92166 -0.457,-1.26163 -0.70373,-2.73357 -0.77082,-4.59865 l -0.0157,-0.43575 -0.0738,-0.11522 c -0.36548,-0.57019 -0.71199,-1.27336 -0.8015,-1.62651 l -0.0293,-0.1155 -0.14813,-0.0449 c -0.73645,-0.22343 -1.56423,-0.72366 -2.43363,-1.47067 -0.27747,-0.23841 -0.29091,-0.25274 -0.26566,-0.28323 0.28118,-0.33944 0.78604,-0.8461 1.06558,-1.06938 0.33795,-0.26993 0.68696,-0.48239 1.00528,-0.61196 0.11791,-0.048 0.20181,-0.099 0.35949,-0.21849 0.96579,-0.73197 1.91949,-1.16801 2.89244,-1.32243 0.21327,-0.0339 0.28674,-0.0369 0.90152,-0.037 0.68615,-1.9e-4 0.91016,0.012 1.38763,0.0752 1.62202,0.21472 2.76973,0.8287 3.42963,1.8347 0.52732,0.80389 0.94719,1.86912 1.16468,2.95484 0.0905,0.45195 0.16768,1.07269 0.1887,1.51823 0.005,0.10775 0.0134,0.2639 0.0185,0.34702 l 0.009,0.15111 0.51679,0.26063 c 1.07129,0.54027 1.94826,1.05511 2.50995,1.47351 0.77144,0.57463 1.32588,1.27067 1.89773,2.3824 0.0394,0.0765 0.061,0.095 0.22918,0.19632 1.22358,0.73684 3.2551,2.80989 6.11143,6.23637 0.64886,0.77838 1.10948,1.34662 1.39993,1.72701 1.54013,2.01703 3.01042,3.72091 4.83185,5.5995 0.42617,0.43956 0.4993,0.5228 0.62382,0.71014 0.77825,1.17094 0.7897,1.99909 0.0351,2.5417 -0.42619,0.30649 -0.88466,0.43668 -1.54006,0.43734 -0.33192,3.2e-4 -0.60911,-0.0262 -0.94844,-0.0908 l -0.22208,-0.0423 -0.33298,0.12218 c -1.67783,0.61568 -3.56565,1.02448 -5.66311,1.22632 -0.65332,0.0629 -1.59316,0.12326 -1.92131,0.12344 -0.0986,0 -0.15418,0.007 -0.16209,0.0196 -0.007,0.0107 -0.35466,1.46344 -0.77341,3.22828 l -0.76138,3.20879 0.27862,0.27755 c 0.6793,0.67667 1.09585,1.30422 1.32549,1.99698 0.077,0.23229 0.0774,0.2347 0.0604,0.3527 -0.0329,0.22852 -0.13794,0.38111 -0.3223,0.46833 -0.11227,0.0531 -0.20295,0.0596 -0.28289,0.0202 z m -4.42254,-2.36481 c 0.46326,-0.0808 0.77418,-0.35205 0.90748,-0.79173 0.0259,-0.0853 0.40634,-1.49828 0.84551,-3.13996 0.785,-2.93444 0.79827,-2.98659 0.78511,-3.08544 -0.023,-0.1728 -0.10901,-0.3219 -0.28934,-0.50172 -0.0863,-0.0861 -0.22225,-0.19949 -0.30262,-0.25248 -0.19946,-0.13155 -0.52493,-0.29363 -0.82664,-0.41167 -0.25025,-0.0979 -0.84816,-0.29784 -0.89075,-0.29784 -0.0183,0 -0.0223,0.0839 -0.0223,0.46989 v 0.46988 l -1.22438,3.74553 c -0.67341,2.06004 -1.22438,3.76229 -1.22438,3.78279 v 0.0373 h 1.05082 c 0.86144,0 1.07618,-0.004 1.19145,-0.0245 z m 3.73702,-6.25661 c 0.0887,-0.0926 0.28252,-0.60062 0.35806,-0.93853 0.0498,-0.22284 0.0539,-0.67894 0.008,-0.8939 -0.11619,-0.54392 -0.40691,-1.03393 -0.91771,-1.5468 -0.11849,-0.11898 -0.21261,-0.21631 -0.20917,-0.21631 0.003,0 0.0704,0.032 0.14878,0.0712 0.0784,0.0391 0.23435,0.10832 0.34658,0.15372 1.03174,0.41745 2.24458,0.59797 3.73503,0.55597 1.55989,-0.044 3.21067,-0.46654 4.88504,-1.25047 l 0.17184,-0.0804 0.0812,0.0557 c 0.12975,0.089 0.46088,0.24492 0.61182,0.28803 0.17315,0.0495 0.41899,0.0803 0.538,0.0674 0.4213,-0.0455 0.69619,-0.20302 0.8249,-0.47274 0.18881,-0.39566 0.0848,-0.68141 -0.44058,-1.21025 -0.38352,-0.38605 -0.87167,-0.77333 -1.58829,-1.26015 l -0.21698,-0.14739 -0.44263,-0.56062 c -5.24698,-6.64558 -8.5393,-10.29702 -9.87013,-10.9467 -0.0835,-0.0407 -0.15418,-0.0713 -0.15715,-0.068 -0.003,0.003 -0.0171,0.0648 -0.0315,0.13667 -0.0874,0.43727 -0.44146,0.77163 -1.07196,1.01224 -0.0772,0.0295 -0.19874,0.0698 -0.27006,0.0895 -0.0713,0.0198 -0.13512,0.0411 -0.14177,0.0473 -0.007,0.006 0.0668,0.0621 0.16325,0.12409 1.36369,0.87701 2.21547,1.69438 2.42779,2.3297 0.0539,0.16128 0.0716,0.38129 0.042,0.5235 -0.0421,0.20287 -0.19246,0.42992 -0.39652,0.59885 -0.2279,0.18866 -0.89592,0.55494 -1.33475,0.73184 -0.68473,0.27602 -1.26359,0.34493 -1.73934,0.20707 -0.20375,-0.0591 -0.2752,-0.10035 -0.62516,-0.36151 -1.96305,-1.46482 -3.38042,-2.74954 -4.14798,-3.75975 -0.97421,-1.28221 -1.39473,-2.5649 -1.18284,-3.608 0.0856,-0.42137 0.2821,-0.79124 0.59181,-1.11392 0.30455,-0.31729 0.7712,-0.61439 1.28362,-0.81722 0.18982,-0.0751 0.26545,-0.0897 0.27921,-0.0538 0.0236,0.0615 -0.0438,0.1443 -0.42582,0.52389 -0.50898,0.50569 -0.68742,0.73089 -0.86265,1.08874 -0.24342,0.49708 -0.30551,1.08825 -0.16532,1.57414 0.17247,0.5978 0.6408,1.31304 1.48996,2.27546 0.2876,0.32596 1.13657,1.1855 1.4314,1.44924 0.90938,0.81343 1.70392,1.26978 2.42545,1.39303 0.16882,0.0288 0.24401,0.0332 0.44777,0.0258 0.33483,-0.0121 0.51922,-0.0608 0.83001,-0.2192 0.18208,-0.0928 0.38738,-0.23538 0.47902,-0.33267 0.0872,-0.0926 0.16334,-0.23565 0.18359,-0.34506 0.0348,-0.18814 -0.0313,-0.3813 -0.2055,-0.59987 -0.17857,-0.22409 -0.4414,-0.43182 -1.01208,-0.79991 -0.98898,-0.63788 -1.60356,-1.20057 -1.82768,-1.67334 -0.0852,-0.17976 -0.14263,-0.4372 -0.13378,-0.59989 0.007,-0.12564 0.0331,-0.16502 0.10869,-0.16287 0.0688,0.002 0.11813,0.0311 0.31927,0.18841 0.19536,0.15282 0.41656,0.27584 0.63087,0.35088 0.41066,0.14379 0.99125,0.19368 1.19706,0.10286 0.24471,-0.10799 0.3858,-0.34908 0.43533,-0.74392 0.0215,-0.1715 0.0118,-0.64749 -0.0155,-0.76361 -0.0192,-0.0815 -0.19292,-0.3992 -0.34557,-0.63209 -0.35082,-0.53519 -0.8559,-1.03793 -1.42731,-1.42067 -0.70006,-0.46891 -1.56776,-0.82568 -2.57956,-1.06062 -0.14928,-0.0347 -0.27439,-0.066 -0.27802,-0.0696 -0.004,-0.004 -0.0142,-0.16046 -0.0236,-0.34851 -0.11436,-2.30217 -0.58626,-3.90539 -1.47977,-5.02719 -0.26622,-0.33426 -0.65298,-0.69442 -0.99369,-0.92537 -0.50742,-0.34396 -1.12475,-0.57851 -1.77127,-0.67299 -1.21512,-0.17756 -2.18373,0.0752 -3.2038,0.83603 l -0.14284,0.10655 v 0.41087 0.41088 l 0.17069,0.12696 c 0.19124,0.14223 0.44308,0.39361 0.53648,0.53549 0.21237,0.32258 0.25371,0.60904 0.14266,0.98864 -0.091,0.31106 -0.0999,0.53826 -0.0317,0.81018 0.0641,0.25545 0.18814,0.47216 0.4305,0.75205 0.16548,0.1911 0.25621,0.32366 0.35029,0.51177 0.12414,0.24821 0.22624,0.61067 0.2789,0.99013 0.01,0.0718 0.0243,0.47221 0.0319,0.88972 0.009,0.48546 0.0228,0.83857 0.0388,0.9795 0.0872,0.76769 0.25574,1.49723 0.53329,2.30865 0.42588,1.24507 1.40617,3.22737 3.0523,6.17223 1.8798,3.3629 3.16153,5.87391 3.75819,7.36261 0.54311,1.35509 0.9226,2.77523 1.00117,3.7466 0.0504,0.62276 0.11683,0.82319 0.2314,0.6979 0.0703,-0.0769 0.15103,-0.29411 0.25917,-0.69723 l 0.0721,-0.26869 v -0.9207 c 0,-0.72982 0.004,-0.91909 0.0204,-0.91293 0.0112,0.004 0.17835,0.0669 0.37139,0.13928 2.21457,0.8299 3.46553,1.70886 3.72235,2.61538 0.0281,0.0991 0.0375,0.19635 0.0496,0.5097 0.0154,0.40086 0.043,0.59864 0.0911,0.65174 0.0357,0.0394 0.0409,0.0386 0.092,-0.0147 z m -13.146,-27.61204 c -0.10588,-0.0175 -0.26389,-0.0883 -0.33926,-0.15204 -0.073,-0.0618 -0.13838,-0.16113 -0.18299,-0.27825 -0.0521,-0.13686 -0.0652,-0.48124 -0.0258,-0.67896 0.0869,-0.43573 0.33805,-0.63473 0.80106,-0.63473 0.5575,0 0.84009,0.28885 0.84061,0.85923 3.6e-4,0.38965 -0.14402,0.6674 -0.414,0.7964 -0.19912,0.0951 -0.44501,0.12711 -0.67965,0.0883 z m -2.3267,1.2242 c 0.12302,-0.11243 0.16123,-0.18901 0.16177,-0.32419 5.3e-4,-0.13677 -0.0592,-0.26882 -0.20156,-0.44551 -0.0911,-0.11313 -0.34515,-0.35492 -0.43326,-0.41242 -0.0281,-0.0184 -0.11728,-0.002 -0.64484,0.11933 -0.33671,0.0774 -0.61584,0.14357 -0.62029,0.14716 -0.0145,0.0117 0.29869,0.30557 0.42439,0.39822 0.16776,0.12367 0.43419,0.2826 0.62035,0.37004 0.19895,0.0934 0.53884,0.23015 0.57414,0.23091 0.015,3.3e-4 0.0687,-0.0373 0.1193,-0.0835 z m -1.49745,-1.32861 0.90196,-0.16125 v -0.43099 -0.431 l -0.0449,0.0112 c -0.10475,0.0262 -0.3691,0.13296 -0.55423,0.2238 -0.23845,0.11701 -0.52305,0.30062 -0.75251,0.4855 -0.20861,0.16806 -0.52967,0.4796 -0.48494,0.47056 0.018,-0.004 0.43853,-0.0792 0.93461,-0.16785 z m 0.35507,-7.38032 c -0.1257,-0.003 -0.61056,-0.0126 -1.07746,-0.0221 -1.00355,-0.0205 -2.30804,-0.0565 -3.27317,-0.0903 -0.38333,-0.0134 -1.12578,-0.0243 -1.6591,-0.0243 l -0.96527,-1e-5 -0.0725,-0.0857 c -0.40776,-0.48216 -0.44155,-0.98574 -0.10699,-1.59473 0.12392,-0.22558 0.25302,-0.35032 0.47178,-0.45584 0.28588,-0.13792 0.54993,-0.18488 1.03418,-0.18396 0.64994,10e-4 1.4985,0.13995 2.45697,0.40164 0.15783,0.0431 0.27063,0.0614 0.49791,0.0808 1.13204,0.0967 2.1246,0.0528 2.95006,-0.13049 0.80396,-0.1785 1.41512,-0.47256 2.06306,-0.99262 0.56689,-0.45502 0.84539,-0.87256 0.84527,-1.26731 0,-0.12064 -0.009,-0.16436 -0.0682,-0.33467 -0.13822,-0.39726 -0.17514,-0.68051 -0.16155,-1.23942 0.0133,-0.54775 0.0641,-0.91147 0.2664,-1.90947 0.14202,-0.70049 0.26357,-1.26458 0.36583,-1.6976 l 0.0843,-0.35711 -0.043,-0.11799 c -0.0987,-0.27072 -0.28688,-0.51059 -0.4713,-0.6009 -0.21048,-0.10306 -0.47379,-0.10069 -0.68321,0.006 -0.0705,0.036 -0.21855,0.17698 -0.33556,0.31964 -0.17201,0.20974 -0.5632,0.3832 -1.05842,0.46931 -0.12217,0.0213 -0.13273,0.0207 -0.19463,-0.0108 -0.19388,-0.0986 -0.42976,-0.30152 -0.5551,-0.47762 -0.15536,-0.21828 -0.21673,-0.38957 -0.28544,-0.79678 -0.0535,-0.31733 -0.0854,-0.46753 -0.12451,-0.58685 -0.0203,-0.0619 -0.0446,-0.0924 -0.12039,-0.15067 -0.25827,-0.19874 -0.42478,-0.48885 -0.42478,-0.74012 0,-0.0671 -0.008,-0.0806 -0.12525,-0.20471 -0.28213,-0.29933 -0.40601,-0.58341 -0.36612,-0.83963 0.0505,-0.32431 0.28938,-0.55825 1.01377,-0.99278 0.54179,-0.32499 0.90965,-0.58664 1.32712,-0.94394 0.12756,-0.10917 0.276,-0.23205 0.32988,-0.27305 0.31334,-0.23851 0.69547,-0.44149 1.03664,-0.55066 0.73508,-0.23522 1.06084,-0.34427 1.36146,-0.45574 l 0.34114,-0.1265 0.0193,-0.0649 c 0.0618,-0.20738 0.21122,-0.36219 0.47913,-0.49647 0.43863,-0.21985 1.28217,-0.34367 2.19853,-0.32271 0.6869,0.0157 1.20825,0.1032 1.83317,0.30762 0.58341,0.19084 1.08965,0.43891 1.64407,0.80561 0.66014,0.43662 1.15182,0.91155 1.6903,1.63271 0.56822,0.761 1.14894,1.83068 1.60751,2.96104 l 0.10186,0.25109 0.16122,0.14748 c 1.79933,1.64594 4.0146,2.35869 6.78103,2.18172 0.83128,-0.0532 1.65785,-0.18365 2.69923,-0.42608 l 0.16067,-0.0374 0.18169,-0.2126 c 0.96629,-1.1307 2.0777,-1.81067 3.25989,-1.99441 0.26851,-0.0417 0.64077,-0.0383 0.85948,0.008 1.05731,0.22383 2.03842,1.13974 3.00753,2.80769 l 0.117,0.20136 -0.0607,0.10066 c -0.0788,0.13061 -0.23714,0.28834 -0.33824,0.33686 -0.10834,0.052 -0.28158,0.0628 -0.41113,0.0257 -0.29476,-0.0844 -0.62478,-0.36698 -1.04965,-0.89861 -0.28053,-0.35103 -0.44195,-0.51942 -0.64339,-0.67123 -0.44557,-0.33576 -0.90736,-0.42729 -1.38004,-0.27353 -0.23812,0.0775 -0.52675,0.24282 -0.75417,0.43209 l -0.10091,0.084 0.0955,0.0527 c 1.87682,1.03604 3.35622,2.00799 4.72705,3.10562 1.27148,1.01809 2.21205,2.09033 2.81925,3.21392 0.2415,0.44688 0.38368,0.82454 0.45238,1.20163 0.0385,0.21138 0.039,0.62338 9e-4,0.8296 -0.0937,0.50748 -0.34683,0.96468 -0.78417,1.41613 l -0.17798,0.18373 h -7.77646 -7.77647 l -0.0746,-0.0939 c -0.33644,-0.42328 -0.39832,-0.84211 -0.17639,-1.19396 0.0318,-0.0504 0.103,-0.13818 0.15824,-0.19507 0.34072,-0.35085 0.76798,-0.49137 1.49624,-0.4921 0.64396,-6.6e-4 1.31919,0.10439 2.35897,0.36699 0.72692,0.18359 1.09795,0.24602 1.56721,0.26371 0.93099,0.0351 1.64105,-0.23733 2.09754,-0.80477 0.0533,-0.0663 0.12714,-0.17133 0.16399,-0.23334 l 0.067,-0.11274 -0.0566,-0.1225 c -0.20828,-0.45081 -0.64873,-0.77178 -1.35938,-0.99068 -0.37609,-0.11584 -0.74461,-0.17775 -1.13414,-0.19052 -0.62626,-0.0205 -1.06627,0.0763 -1.67664,0.36883 -0.47355,0.22699 -0.79735,0.34675 -1.4358,0.53106 -1.20693,0.34841 -3.37939,0.79759 -4.89379,1.01185 -1.82341,0.25797 -3.24118,0.29948 -4.54385,0.13303 -0.86491,-0.11051 -1.37428,-0.0552 -1.60363,0.17415 -0.0817,0.0817 -0.11241,0.16554 -0.11282,0.30769 -3.9e-4,0.13776 0.0244,0.23614 0.10698,0.42389 0.0657,0.14956 0.0685,0.18808 0.019,0.26162 -0.0841,0.12476 -0.27697,0.22366 -0.60451,0.30992 -0.65195,0.17171 -1.61938,0.26889 -3.42351,0.34391 -0.37513,0.0156 -4.29866,0.0323 -4.85671,0.0207 z m 6.44034,-1.81416 c 1.6e-4,-0.11553 0.0433,-0.38002 0.0923,-0.5661 0.2185,-0.82953 0.73666,-1.28775 1.6381,-1.4486 0.0844,-0.0151 0.26688,-0.0215 0.5877,-0.0209 0.45774,9.8e-4 0.4728,0.002 0.93053,0.0689 1.47755,0.21559 2.56731,0.29738 3.95883,0.29712 1.24716,-2.3e-4 1.97989,-0.0535 2.79975,-0.20345 1.26148,-0.23074 2.74442,-0.68762 4.50599,-1.38824 0.48424,-0.1926 1.37195,-0.56527 1.68783,-0.70858 l 0.11274,-0.0511 -0.0111,-0.34794 c -0.037,-1.15745 -0.20351,-1.77215 -0.52241,-1.92817 -0.10087,-0.0494 -0.10255,-0.0494 -0.53269,-0.003 -0.80236,0.0861 -1.94529,0.0868 -2.80791,0.002 -1.81666,-0.17908 -3.45713,-0.74782 -4.84969,-1.68135 -0.41733,-0.27976 -0.91226,-0.67044 -1.22544,-0.96732 -0.0775,-0.0735 -0.14483,-0.13363 -0.14956,-0.13363 -0.005,0 -0.13709,0.15978 -0.29417,0.35507 -0.86922,1.08074 -1.8166,2.02396 -2.89254,2.87985 -0.8449,0.67211 -1.72373,1.25857 -2.71812,1.81388 -0.35865,0.20028 -1.24279,0.64563 -1.5489,0.7802 -0.22546,0.0991 -0.2412,0.11456 -0.29611,0.29054 -0.0428,0.13727 -0.0431,0.38312 -7e-4,0.57497 0.10113,0.45725 0.43737,1.07638 0.97017,1.78636 0.21172,0.28215 0.5329,0.67749 0.55041,0.67749 0.008,0 0.015,-0.0349 0.0151,-0.0775 z m 25.32412,-0.71218 c 0.14228,-0.0268 0.23666,-0.0679 0.26677,-0.11632 0.0174,-0.028 0.006,-0.0722 -0.0814,-0.31017 -0.56776,-1.54859 -1.45619,-2.80864 -2.69542,-3.82286 -1.086,-0.88882 -2.26247,-1.45613 -3.55054,-1.71212 -0.16928,-0.0336 -0.52645,-0.0254 -0.6747,0.0155 -0.301,0.0832 -0.48583,0.2654 -0.56066,0.55277 -0.0415,0.15932 -0.0342,0.44747 0.0179,0.70252 0.067,0.32846 0.12165,0.47878 0.23087,0.63492 0.65111,0.93085 1.74064,1.80975 3.36863,2.71744 0.60993,0.34007 1.53274,0.79226 2.31963,1.13666 0.17509,0.0766 0.36976,0.16206 0.43262,0.18984 l 0.11427,0.0505 0.34283,-0.007 c 0.19802,-0.004 0.39624,-0.0175 0.46929,-0.0313 z m -26.18945,-4.31202 c 1.01427,-0.53281 1.87408,-1.06806 2.70776,-1.68563 1.41269,-1.04649 2.66745,-2.31131 3.62976,-3.65886 l 0.21438,-0.3002 -0.0365,-0.16506 c -0.17319,-0.78338 -0.63135,-1.55684 -1.37289,-2.31767 -0.7942,-0.81487 -1.62293,-1.35895 -2.35504,-1.54612 -0.16031,-0.041 -0.37743,-0.0805 -0.44263,-0.0805 h -0.0468 l 0.0298,0.0449 c 0.22293,0.33604 0.42886,0.72369 0.50348,0.94776 0.16959,0.50922 0.0975,0.87508 -0.21976,1.11575 -0.12998,0.0986 -0.32903,0.18682 -0.54401,0.24111 -0.24879,0.0628 -0.39496,0.14025 -0.54137,0.28674 -0.1259,0.12595 -0.19921,0.25542 -0.24512,0.43286 -0.0359,0.13881 -0.0356,0.41783 5.9e-4,0.62036 0.08,0.44711 -0.0782,0.91844 -0.49475,1.47372 -0.1844,0.24584 -0.42315,0.51197 -0.68158,0.75976 l -0.21602,0.20712 -0.0939,0.23671 c -0.27585,0.69557 -0.46325,1.4307 -0.55766,2.18756 -0.0239,0.19138 -0.0295,0.35707 -0.0295,0.86523 0,0.34568 0.006,0.6482 0.0123,0.67226 l 0.0123,0.0438 0.21629,-0.10285 c 0.11895,-0.0566 0.36688,-0.18197 0.55095,-0.27866 z m -3.78291,-3.9569 c 0.0855,-0.0414 0.19052,-0.14253 0.2731,-0.26297 0.16623,-0.24242 0.36634,-0.36482 0.6687,-0.40903 0.25253,-0.0369 0.59293,0.01 0.78901,0.10781 0.18789,0.0941 0.35475,0.2619 0.42993,0.4323 0.0157,0.0357 0.0334,0.0648 0.0393,0.0648 0.006,0 0.0573,-0.0302 0.11442,-0.0671 0.45665,-0.29515 0.84422,-0.7068 1.05707,-1.12275 0.23303,-0.45537 0.28942,-0.71075 0.31403,-1.42219 0.0185,-0.53352 0.007,-0.66817 -0.0707,-0.83817 -0.0667,-0.14571 -0.14007,-0.21192 -0.34362,-0.31016 -0.25847,-0.12475 -0.39983,-0.23996 -0.47726,-0.38903 -0.034,-0.0654 -0.0531,-0.28245 -0.0368,-0.41775 0.0284,-0.23607 0.12802,-0.41507 0.34134,-0.61325 l 0.12964,-0.12043 -0.25723,0.0626 c -0.4164,0.10142 -0.99838,0.22024 -1.38365,0.28248 -0.50691,0.0819 -0.67754,0.11747 -0.8734,0.18212 -0.37633,0.12424 -0.70168,0.31766 -1.1101,0.65996 -0.39726,0.33295 -1.05538,0.81153 -1.53877,1.119 -0.11009,0.07 -0.12901,0.0891 -0.14472,0.14586 -0.055,0.19859 0.0426,0.46921 0.26957,0.7479 l 0.0773,0.0949 -0.0196,0.12145 c -0.0561,0.3479 0.14956,0.59405 0.56558,0.67689 0.0921,0.0183 0.10588,0.0165 0.28456,-0.0385 0.10325,-0.0318 0.26854,-0.0919 0.36731,-0.13367 0.0988,-0.0418 0.21262,-0.0868 0.25304,-0.10022 0.10216,-0.0338 0.24889,-0.0206 0.35203,0.0316 0.0772,0.0391 0.252,0.18148 0.252,0.20524 0,0.006 -0.0496,0.0283 -0.1102,0.0496 -0.15909,0.056 -0.46907,0.20472 -0.58808,0.28222 -0.13575,0.0884 -0.27258,0.13617 -0.49199,0.17177 l -0.181,0.0294 v 0.0782 c 0,0.0965 0.0407,0.29842 0.0829,0.41131 0.0396,0.10593 0.12882,0.21137 0.21671,0.25621 0.0651,0.0332 0.0808,0.0347 0.30845,0.0289 0.0112,-3e-4 0.0571,0.0107 0.10203,0.0245 0.10402,0.0319 0.2471,0.0227 0.33917,-0.0219 z m 2.26468,-1.56393 c -1.34823,-0.14276 -2.03224,-0.35489 -2.16894,-0.67266 -0.0931,-0.2164 -0.10871,-0.50605 -0.0371,-0.68737 0.0603,-0.15267 0.0651,-0.15569 0.16782,-0.10533 l 0.0876,0.043 -1.6e-4,0.1824 c -1.6e-4,0.17328 0.003,0.18787 0.0534,0.29131 0.15064,0.30634 0.60433,0.54268 1.30958,0.6822 0.25615,0.0507 0.66638,0.10633 0.91421,0.12403 0.0853,0.006 0.16427,0.0159 0.17549,0.0218 0.0117,0.006 -0.0408,0.0367 -0.12263,0.0713 -0.14407,0.061 -0.20006,0.0683 -0.37936,0.0493 z m -1.8389,-1.911 c 0.0123,-0.29033 0.0382,-0.4367 0.0981,-0.55487 0.0592,-0.11687 0.11727,-0.17942 0.21243,-0.22891 0.0741,-0.0385 0.1059,-0.0442 0.27948,-0.0495 0.25982,-0.008 0.45842,0.0315 0.66637,0.13284 0.0824,0.0402 0.16636,0.0907 0.18649,0.11219 l 0.0366,0.0392 -0.0856,0.0895 c -0.22919,0.23972 -0.61889,0.44792 -1.03554,0.55325 -0.0435,0.011 -0.072,0.0288 -0.0784,0.0489 -0.006,0.0174 -0.0322,0.0503 -0.0594,0.0731 -0.04,0.0336 -0.0667,0.0415 -0.14044,0.0415 h -0.0911 z m -0.48541,0.0327 c -0.0464,-0.15859 -0.0566,-0.48147 -0.0196,-0.62026 0.0631,-0.2372 0.2019,-0.39227 0.46805,-0.52309 0.21305,-0.10473 0.31918,-0.13282 0.54542,-0.1444 0.16197,-0.008 0.51232,0.0234 0.77136,0.0697 0.10524,0.0188 0.0407,0.0845 -0.11812,0.12008 -0.0421,0.009 -0.20631,0.0235 -0.3649,0.0313 -0.24473,0.012 -0.30783,0.0207 -0.41717,0.0574 -0.24049,0.0808 -0.38194,0.20897 -0.50481,0.45746 -0.0676,0.13664 -0.13291,0.34838 -0.15018,0.48662 l -0.0117,0.0937 h -0.095 c -0.0764,0 -0.0966,-0.006 -0.10332,-0.0286 z m 5.02455,-0.67423 c 0.0549,-0.0206 0.127,-0.0668 0.18112,-0.11628 0.15717,-0.14364 0.27294,-0.43634 0.2959,-0.74813 0.0175,-0.23758 -0.0448,-0.3158 -0.23835,-0.29943 -0.14015,0.0119 -0.16016,0.0188 -0.22704,0.0793 -0.0882,0.0797 -0.14211,0.21216 -0.1796,0.44131 -0.0267,0.16296 -0.047,0.22836 -0.12302,0.39647 -0.0964,0.21303 -0.10936,0.27244 -0.0625,0.28638 0.057,0.017 0.26443,-0.006 0.35351,-0.0396 z m -0.99664,-5.2e-4 c 0.0346,-0.01 0.0942,-0.0463 0.13239,-0.0815 0.14169,-0.1306 0.22935,-0.37041 0.28642,-0.78352 0.041,-0.29654 0.0779,-0.40347 0.1754,-0.50769 0.1397,-0.14935 0.34502,-0.18191 0.64897,-0.10294 0.0873,0.0227 0.17324,0.049 0.19093,0.0585 0.0177,0.009 0.0359,0.0135 0.0404,0.009 0.005,-0.005 -0.0197,-0.0621 -0.0538,-0.12785 -0.0778,-0.14977 -0.25499,-0.33267 -0.38213,-0.39436 -0.18958,-0.092 -0.44574,-0.11498 -0.57729,-0.0518 -0.14099,0.0677 -0.35212,0.31488 -0.46719,0.54703 -0.0211,0.0426 -0.13056,0.16964 -0.26013,0.30201 -0.30488,0.31146 -0.44188,0.49894 -0.48854,0.66857 -0.0157,0.0571 -0.0133,0.0721 0.0212,0.1306 0.097,0.16445 0.26647,0.28281 0.46728,0.32635 0.13084,0.0284 0.18596,0.03 0.26603,0.008 z m -15.00784,-7.7785 c -0.55181,-0.26509 -1.00587,-0.48455 -1.00902,-0.48769 -0.003,-0.003 0.10585,-0.22875 0.24221,-0.50134 0.16044,-0.32075 0.78333,-1.69364 1.76547,-3.89122 1.38159,-3.09141 2.53875,-5.64112 2.55951,-5.63971 0.004,3.1e-4 0.482,0.9142 1.06113,2.03088 0.57913,1.11668 1.05869,2.02494 1.06569,2.01835 0.007,-0.007 0.25318,-0.47421 0.54707,-1.03916 0.51938,-0.99839 1.55413,-2.92774 1.57069,-2.92862 0.005,-2.4e-4 0.23791,0.45902 0.51864,1.02056 0.45958,0.91929 1.49069,2.92122 1.51885,2.94888 0.0141,0.0139 1.10743,-2.09337 1.64349,-3.16765 0.22115,-0.44319 0.40475,-0.80314 0.408,-0.79989 0.0269,0.0269 1.1498,2.12491 1.5715,2.93618 0.2917,0.56118 0.53519,1.02561 0.54109,1.03207 0.014,0.0154 1.05384,-1.98922 1.60986,-3.10343 0.23919,-0.4793 0.44063,-0.86498 0.44764,-0.85706 0.007,0.008 0.4851,0.88737 1.06242,1.95434 l 1.04966,1.93994 0.0282,-0.0462 c 0.15949,-0.26115 1.11489,-2.07222 1.50781,-2.85823 0.27492,-0.54995 0.5035,-0.99991 0.50796,-0.99991 0.004,0 0.22546,0.43527 0.49111,0.96726 0.37408,0.74912 0.61224,1.19834 1.05603,1.99189 0.31516,0.56355 0.57793,1.01902 0.58394,1.01216 0.0293,-0.0335 1.00047,-1.91791 1.48681,-2.88502 l 0.5497,-1.0931 0.43551,0.87271 c 0.56185,1.12588 1.59649,3.11989 1.61095,3.10468 0.006,-0.006 0.24851,-0.43416 0.53859,-0.95044 0.40258,-0.7165 0.65171,-1.18592 1.0525,-1.9831 l 0.52507,-1.0444 0.46867,0.93829 c 0.36087,0.72247 0.60443,1.18115 1.05892,1.99414 0.32463,0.58072 0.59531,1.05088 0.60149,1.0448 0.0282,-0.0277 1.05927,-2.02958 1.51885,-2.94888 0.28073,-0.56154 0.51415,-1.02099 0.51871,-1.02099 0.005,0 0.22374,0.43159 0.48707,0.9591 0.45621,0.91387 1.49931,2.94098 1.54169,2.99606 0.0169,0.022 0.10751,-0.1305 0.58283,-0.98098 0.50838,-0.90964 0.60591,-1.09697 1.00871,-1.93737 0.24526,-0.51169 0.45126,-0.93569 0.45779,-0.94222 0.0177,-0.0177 1.01832,1.76286 1.64397,2.92555 0.30197,0.56117 0.55404,1.02541 0.56014,1.03163 0.0171,0.0175 1.20116,-2.04686 1.72469,-3.00691 0.25703,-0.47135 0.47317,-0.86284 0.4803,-0.86997 0.0199,-0.0199 0.85927,1.46243 2.96271,5.23194 1.83673,3.29155 2.45463,4.43499 2.41529,4.46953 -0.0505,0.0444 -1.93642,1.04667 -1.94756,1.03508 -0.0478,-0.0498 -0.7489,-1.29225 -1.99127,-3.5291 -0.7844,-1.41229 -1.43194,-2.56198 -1.43898,-2.55488 -0.007,0.007 -0.26006,0.49043 -0.56227,1.07405 -0.47012,0.90789 -0.62761,1.19365 -1.09051,1.97873 -0.29757,0.50468 -0.54606,0.9124 -0.5522,0.90604 -0.0156,-0.0162 -1.05249,-1.92086 -1.6304,-2.99496 -0.2645,-0.49159 -0.48459,-0.89355 -0.48909,-0.89324 -0.005,3.1e-4 -0.22123,0.41254 -0.48161,0.91608 -0.26039,0.50353 -0.73557,1.40047 -1.05597,1.99319 l -0.58255,1.07767 -0.40223,-0.8061 c -0.41898,-0.83965 -1.62633,-3.18055 -1.64056,-3.18082 -0.004,-1.6e-4 -0.23957,0.44561 -0.5224,0.99043 -0.39952,0.7696 -1.51029,2.84694 -1.59018,2.97394 -0.01,0.0155 -0.216,-0.37866 -0.67043,-1.28152 -0.61451,-1.22092 -1.34555,-2.63931 -1.37603,-2.66979 -0.0168,-0.0167 -0.96996,1.81709 -1.58703,3.05319 -0.25262,0.50604 -0.46176,0.91743 -0.46476,0.9142 -0.0281,-0.0302 -1.16364,-2.15282 -1.57523,-2.94439 -0.28946,-0.55668 -0.53195,-1.01809 -0.53886,-1.02535 -0.0163,-0.0171 -0.88425,1.65552 -1.53527,2.95863 l -0.50912,1.01908 -0.029,-0.0477 c -0.10101,-0.16618 -1.11396,-2.06092 -1.5563,-2.9111 -0.29087,-0.55909 -0.53415,-1.01775 -0.54058,-1.01926 -0.0179,-0.004 -0.77662,1.45752 -1.44629,2.78619 l -0.59931,1.18907 -1.05779,-1.95312 c -0.58179,-1.07422 -1.06355,-1.94723 -1.07059,-1.94002 -0.0525,0.0537 -1.03897,1.91543 -1.4859,2.80419 l -0.54979,1.09329 -0.48495,-0.97085 c -0.37637,-0.75349 -0.61325,-1.2002 -1.05805,-1.99525 -0.31521,-0.56342 -0.57922,-1.01829 -0.58669,-1.01083 -0.0306,0.0306 -0.76108,1.44792 -1.37669,2.67103 l -0.65689,1.30514 -0.4191,-0.83987 c -0.4323,-0.86632 -1.61033,-3.14966 -1.62481,-3.1493 -0.004,1.6e-4 -0.27379,0.4757 -0.59844,1.05686 -0.45086,0.8071 -0.69954,1.27548 -1.0529,1.98312 -0.25444,0.50954 -0.46636,0.92644 -0.47092,0.92644 -0.005,0 -0.21652,-0.4169 -0.47101,-0.92644 -0.36325,-0.72731 -0.5808,-1.13603 -1.01209,-1.90143 -0.30215,-0.53624 -0.55304,-0.9751 -0.55753,-0.97525 -0.004,-1.6e-4 -0.47466,1.05919 -1.04481,2.35407 -1.03442,2.34929 -1.54922,3.49211 -1.57701,3.50083 -0.008,0.003 -0.46617,-0.21227 -1.01798,-0.47735 z m 18.40583,-14.95382 c -5.88111,-0.0476 -10.76808,-0.087 -10.85993,-0.0876 l -0.167,-0.001 0.15884,-0.14546 c 0.21722,-0.19892 0.5535,-0.54308 0.95852,-0.98097 0.92713,-1.00236 1.39701,-1.38855 1.87027,-1.53717 0.14002,-0.044 0.34971,-0.0481 0.76648,-0.0149 0.37491,0.0298 1.62703,0.0409 2.14674,0.0192 0.74801,-0.0314 1.40337,-0.0854 2.10594,-0.1737 0.42313,-0.0532 0.97653,-0.138 0.99017,-0.15178 0.0151,-0.0152 0.15899,-0.46572 0.28191,-0.8824 0.63283,-2.14533 1.61923,-6.13463 1.87802,-7.59536 l 0.0424,-0.23915 -0.15838,-0.26693 c -0.44992,-0.75829 -0.86756,-1.41237 -1.98957,-3.11591 -1.32022,-2.00445 -1.87556,-2.88496 -2.47609,-3.92593 -0.53224,-0.92256 -1.06761,-1.9488 -1.43928,-2.75893 l -0.12732,-0.27753 -0.22551,-0.19183 c -1.8005,-1.53167 -3.04365,-3.41894 -3.53516,-5.36685 -0.17528,-0.69465 -0.24332,-1.24911 -0.24343,-1.9835 -7e-5,-0.51221 0.0138,-0.72021 0.14605,-2.19572 0.0937,-1.04537 0.12194,-1.45675 0.12655,-1.84524 l 0.004,-0.31623 -0.0571,-0.0155 c -0.60598,-0.16392 -1.08707,-0.3219 -2.10379,-0.69085 -0.40971,-0.14868 -0.89553,-0.32012 -1.07959,-0.381 -1.12899,-0.37338 -1.94636,-0.50831 -2.85281,-0.47095 -0.5232,0.0216 -1.12953,0.12921 -1.60805,0.28549 -0.0696,0.0227 -0.1334,0.0389 -0.14178,0.0359 -0.0183,-0.007 0.30399,-0.74241 0.49566,-1.13186 0.35758,-0.72658 0.71114,-1.16111 1.21017,-1.48732 0.28209,-0.18439 0.56494,-0.2966 0.9847,-0.39063 0.44205,-0.099 0.89074,-0.14296 1.7407,-0.17045 1.11895,-0.0362 1.57327,-0.0865 2.08961,-0.23147 0.18411,-0.0517 0.49249,-0.16504 0.60574,-0.22265 0.0451,-0.0229 0.13957,-0.0403 0.32477,-0.0598 0.14367,-0.0151 0.59913,-0.067 1.01216,-0.11541 1.92169,-0.22515 2.62705,-0.27363 3.45734,-0.2376 0.65148,0.0283 1.11759,0.0898 1.62443,0.21445 0.42666,0.10493 0.6715,0.19339 0.82615,0.29848 0.55766,0.37893 1.02424,1.13799 1.35692,2.20747 0.14652,0.47101 0.20434,0.74916 0.34256,1.64782 0.1399,0.90964 0.23149,1.35037 0.34333,1.65209 l 0.0431,0.1162 0.31292,0.12616 c 1.25219,0.50484 2.55678,1.13293 3.61875,1.74223 1.58562,0.90975 3.00318,1.96794 4.29144,3.20353 0.46394,0.44497 2.23893,2.48378 3.65265,4.19554 1.42294,1.72292 2.38602,2.93235 5.71997,7.18303 3.88947,4.95898 6.0231,7.53018 8.30923,10.01331 0.19318,0.20983 0.4147,0.45429 0.49223,0.54324 0.49352,0.56612 0.87336,1.16806 1.02596,1.62585 0.15225,0.45669 0.1119,0.77591 -0.12682,1.00362 -0.16557,0.15793 -0.42211,0.25755 -0.76128,0.29563 l -0.17827,0.02 -0.0604,0.18026 c -0.24312,0.72621 -0.74864,1.30784 -1.5239,1.75335 -0.70044,0.40251 -1.65939,0.67642 -2.62208,0.74897 -0.19758,0.0149 -0.50017,-0.0146 -0.99583,-0.0971 -1.07591,-0.179 -2.03588,-0.48644 -2.97933,-0.95416 -2.28664,-1.1336 -4.18767,-3.11256 -6.27619,-6.53346 -0.0835,-0.13676 -0.15824,-0.24469 -0.16609,-0.23983 -0.008,0.005 -0.0144,0.0249 -0.0145,0.0446 -4.7e-4,0.067 -0.0653,0.34549 -0.11652,0.50103 -0.22035,0.66845 -0.66413,1.07304 -1.29832,1.18363 -0.18765,0.0327 -0.30354,0.0308 -0.49545,-0.008 -0.53624,-0.10928 -1.04523,-0.40348 -1.73685,-1.00388 -0.11376,-0.0988 -0.21206,-0.18143 -0.21843,-0.1837 -0.006,-0.002 -0.0249,0.11895 -0.0411,0.26936 -0.11508,1.06723 -0.3601,2.00549 -0.93042,3.56299 -0.16465,0.44961 -0.35409,0.9691 -0.354,0.97077 0,3.1e-4 0.11939,0.002 0.26528,0.003 0.64118,0.006 1.59616,0.19659 2.52326,0.50486 1.60154,0.53253 2.76426,1.29209 3.25869,2.12881 0.0857,0.14506 0.20525,0.4164 0.20525,0.46592 0,0.0307 1.20407,0.0375 -11.64794,-0.0664 z m 21.21443,-2.0258 c 1.10758,-0.13393 1.95603,-0.56467 2.40967,-1.22334 l 0.0591,-0.0858 -0.18845,-0.25021 c -0.76341,-1.01358 -1.85271,-2.14765 -3.0402,-3.1651 -0.56212,-0.48163 -0.5119,-0.44581 -1.73787,-1.2395 -3.75716,-2.43236 -7.96691,-4.90331 -13.46818,-7.90526 -1.60256,-0.87449 -5.40655,-2.91796 -5.41677,-2.90985 -0.005,0.004 0.29622,0.42732 1.19889,1.68088 1.01438,1.40866 1.47913,2.07452 2.0374,2.91901 0.74822,1.13185 1.3845,2.20771 1.81941,3.07638 0.0551,0.10999 0.10494,0.19998 0.11081,0.19998 0.0189,0 0.16893,-0.0993 0.52443,-0.34715 0.34314,-0.23925 0.34799,-0.24195 0.37548,-0.20895 0.0153,0.0184 0.63758,0.76374 1.38282,1.65633 1.30265,1.56022 1.35782,1.62374 1.42844,1.64453 0.23243,0.0684 0.37079,-0.0349 0.45117,-0.33681 0.0261,-0.098 0.0303,-0.17356 0.0292,-0.53057 -8.4e-4,-0.2831 -0.01,-0.4868 -0.0285,-0.63668 -0.015,-0.12121 -0.0496,-0.3967 -0.0768,-0.61219 -0.0668,-0.5284 -0.31252,-2.76632 -0.30641,-2.79111 0.005,-0.0222 1.49392,1.78059 1.7316,2.0973 0.37637,0.50152 0.78168,1.0854 1.67715,2.41611 0.79613,1.18308 1.19787,1.756 1.61408,2.30183 0.89069,1.16808 1.74874,2.05865 2.60644,2.70525 1.12542,0.84842 2.34832,1.35191 3.69704,1.52213 0.53074,0.067 0.71375,0.0708 1.1101,0.0228 z m -19.11973,-1.30504 c 0.90949,-0.16353 1.60991,-1.04588 2.0658,-2.60233 0.11531,-0.39369 0.25719,-0.99087 0.31802,-1.33866 l 0.0157,-0.0898 -0.10793,0.12244 c -0.18614,0.21116 -0.71969,0.7454 -0.95804,0.95927 -0.22117,0.19846 -0.84625,0.72619 -0.86991,0.73442 -0.006,0.002 -0.0589,-0.21081 -0.11664,-0.47342 -0.25725,-1.16995 -0.45116,-1.87119 -0.70419,-2.54669 -0.0395,-0.1055 -0.0762,-0.19182 -0.0816,-0.19182 -0.005,0 -0.0523,0.16346 -0.10438,0.36324 -0.16516,0.63396 -0.38138,1.40536 -0.56627,2.02022 -0.28705,0.95462 -0.3657,1.31565 -0.38412,1.76311 -0.0203,0.49446 0.0782,0.82376 0.31435,1.05001 0.2416,0.23151 0.6873,0.31843 1.1792,0.22999 z m 20.14436,-4.01037 c -0.76894,-0.90656 -1.50757,-1.81496 -3.40235,-4.18436 -2.15624,-2.69637 -3.10849,-3.86088 -6.42019,-7.8513 -3.0693,-3.69833 -4.36108,-5.27094 -5.77965,-7.0361 -0.3076,-0.38275 -0.42869,-0.51938 -0.63222,-0.71336 -2.08365,-1.98578 -4.41397,-3.41397 -7.68614,-4.71063 -0.21548,-0.0854 -0.4314,-0.18059 -0.47979,-0.21154 -0.36261,-0.23193 -0.57732,-0.7263 -0.68662,-1.581 -0.0183,-0.1432 -0.0519,-0.46605 -0.0747,-0.71746 -0.0474,-0.52321 -0.0757,-0.73242 -0.13026,-0.96318 -0.0213,-0.0898 -0.046,-0.20365 -0.0549,-0.25304 -0.11939,-0.65893 -0.33865,-1.24052 -0.59791,-1.58596 -0.33897,-0.45165 -0.77648,-0.6825 -1.43175,-0.75544 l -0.0766,-0.009 -0.0108,0.0771 c -0.1342,0.95838 -0.66934,2.004 -1.40231,2.73998 -0.25848,0.25955 -0.50279,0.45377 -0.73416,0.58363 -0.0741,0.0416 -0.14227,0.0756 -0.15146,0.0756 -0.014,0 -0.28251,-0.54463 -0.28251,-0.57311 0,-0.005 0.0643,-0.0488 0.14285,-0.0968 0.41379,-0.25274 0.74469,-0.75408 0.90109,-1.36525 0.10978,-0.42895 0.12883,-0.98003 0.0472,-1.36492 l -0.0165,-0.0779 -0.0761,0.009 c -0.64001,0.077 -2.38297,0.32583 -2.39971,0.34257 -0.004,0.004 0.0286,0.008 0.0736,0.008 0.19968,0 0.54073,0.13479 0.73124,0.289 0.0536,0.0434 0.14056,0.13014 0.19335,0.19285 0.0926,0.10997 0.0956,0.11658 0.0862,0.18616 -0.0268,0.19825 -0.20018,0.33771 -0.53231,0.42823 -0.12277,0.0335 -0.17367,0.0376 -0.44865,0.0369 -0.26513,-7.5e-4 -0.32866,-0.006 -0.43745,-0.036 -0.35969,-0.0991 -0.57599,-0.29646 -0.60899,-0.55565 l -0.0111,-0.087 0.0961,-0.0986 c 0.12182,-0.12491 0.28409,-0.23162 0.44435,-0.29219 0.0809,-0.0306 0.10499,-0.0445 0.0681,-0.0393 -0.0314,0.004 -0.13427,0.0157 -0.22855,0.0251 -0.33384,0.0333 -1.2143,0.14941 -2.34265,0.30904 -0.62851,0.0889 -1.26943,0.17838 -1.42425,0.1988 -0.15482,0.0204 -0.27603,0.0416 -0.26936,0.0471 0.007,0.005 0.10396,0.0341 0.21619,0.0636 0.43177,0.11352 1.0196,0.3203 1.99982,0.7035 1.25896,0.49215 1.86556,0.68109 2.56304,0.7983 0.15768,0.0265 0.62808,0.083 0.69117,0.083 0.008,0 0.0118,0.0496 0.008,0.1102 -0.007,0.11964 -0.0564,1.12935 -0.0951,1.9386 -0.0975,2.03939 -0.0696,3.28314 0.0997,4.44042 0.27377,1.87126 0.92223,3.27491 2.02168,4.37612 0.37504,0.37563 0.69797,0.6401 1.13515,0.92961 0.20896,0.13838 0.68827,0.41903 0.69838,0.40891 0.003,-0.003 -0.0278,-0.0721 -0.0686,-0.15333 -0.30827,-0.6138 -0.49304,-1.2244 -0.58372,-1.92898 -0.0306,-0.23792 -0.0262,-0.86664 0.008,-1.09473 0.16969,-1.14142 0.80899,-2.14667 1.91746,-3.01508 0.21663,-0.16972 0.71326,-0.50052 0.97539,-0.64969 0.68593,-0.39036 1.54946,-0.72751 2.08961,-0.81584 0.19657,-0.0322 0.27384,-0.0308 0.31869,0.006 0.0303,0.0245 0.0335,0.0355 0.0187,0.0631 -0.0481,0.09 -0.24777,0.242 -0.98228,0.74809 -1.41449,0.97462 -2.21179,1.72134 -2.6581,2.48944 -0.18818,0.32388 -0.29759,0.64651 -0.33308,0.98227 -0.0341,0.3226 0.0203,1.00768 0.11966,1.50683 0.35765,1.79686 1.42195,3.15236 3.55719,4.53047 0.76957,0.49669 1.05564,0.65485 6.26065,3.46129 3.20115,1.72599 4.63588,2.51406 6.29332,3.45679 3.87179,2.20221 6.98649,4.19282 9.69583,6.19661 0.1295,0.0958 0.23842,0.17414 0.24205,0.17414 0.004,0 -0.0697,-0.09 -0.163,-0.19999 z m -18.68192,-1.27109 c 0.0978,-0.1353 0.21353,-0.30593 0.25712,-0.37921 0.21152,-0.35551 0.22278,-0.65189 0.0353,-0.92929 -0.0318,-0.047 -0.1608,-0.26546 -0.28674,-0.48544 -2.11508,-3.69452 -4.12845,-6.68589 -6.20874,-9.22455 -0.30567,-0.37302 -0.93812,-1.11498 -1.09161,-1.28063 -0.0722,-0.0779 -0.0744,-0.079 -0.0483,-0.0245 0.0503,0.10511 0.43282,0.78647 0.62272,1.10927 0.58457,0.99368 0.97938,1.61351 2.25699,3.54337 1.59934,2.41584 2.12243,3.25724 2.77581,4.46491 0.5793,1.07075 1.18261,2.45489 1.4427,3.30991 0.0239,0.0786 0.0487,0.14268 0.0552,0.14249 0.006,-2e-4 0.0917,-0.11105 0.18957,-0.24634 z m 17.85503,-35.07286 c -0.20725,-0.0582 -0.39062,-0.19404 -0.5134,-0.38026 -0.1104,-0.16746 -0.13395,-0.2343 -0.27436,-0.77856 -0.0718,-0.27834 -0.22242,-0.84034 -0.33466,-1.24887 -0.47524,-1.7297 -0.5853,-2.14736 -0.72285,-2.74295 -0.26984,-1.16844 -0.39705,-1.98936 -0.47808,-3.0851 -0.0286,-0.38663 -0.0287,-2.23057 -1.6e-4,-2.71813 0.0603,-1.03 0.0892,-1.38053 0.29,-3.52359 0.17016,-1.81592 0.19564,-2.20059 0.18025,-2.72075 -0.0455,-1.53785 -0.32616,-2.98994 -0.93546,-4.84038 -0.31179,-0.94692 -0.4321,-1.20852 -0.82959,-1.80392 -0.30078,-0.45053 -0.59173,-0.79508 -1.05473,-1.249 -0.46588,-0.45676 -0.87876,-0.78779 -1.4671,-1.17628 -1.70595,-1.12648 -3.8227,-1.81484 -6.21985,-2.02266 -1.10234,-0.0956 -2.48443,-0.0801 -4.36696,0.0488 -0.56772,0.0389 -1.10474,0.0817 -2.66098,0.21213 -1.95369,0.16376 -2.63216,0.21178 -3.84456,0.27211 -0.55871,0.0278 -2.55243,0.0281 -3.02014,5.1e-4 -0.57459,-0.0339 -0.76526,-0.0523 -0.96622,-0.0933 -1.04832,-0.21356 -1.98315,-0.98868 -2.55966,-2.12235 -0.28636,-0.56312 -0.37217,-0.91329 -0.35404,-1.44477 0.0159,-0.46552 0.0995,-0.83038 0.3706,-1.61619 0.43615,-1.26445 0.49778,-1.51878 0.48657,-2.0081 -0.005,-0.21591 -0.009,-0.24747 -0.0399,-0.28839 -0.0903,-0.1209 -0.33802,-0.16937 -0.70635,-0.13824 -0.36494,0.0309 -0.66803,0.0837 -1.42239,0.24806 -0.20922,0.0456 -0.268,0.0517 -0.50608,0.0531 -0.31844,0.002 -0.47352,-0.0232 -0.79363,-0.1277 -0.73788,-0.2409 -1.68348,-0.89862 -2.0665,-1.4374 -0.3382,-0.47571 -0.4306,-0.90576 -0.2666,-1.24077 0.10635,-0.21725 0.22918,-0.32294 0.62418,-0.53704 0.84095,-0.45582 1.83375,-0.75835 2.78678,-0.84917 0.35164,-0.0335 0.53478,-0.0315 0.72918,0.008 0.35201,0.0717 0.56442,0.17474 1.21948,0.5914 0.55838,0.35517 0.72665,0.43203 1.33414,0.60943 1.3532,0.39516 2.04143,0.95686 2.18877,1.7864 0.0356,0.20031 0.0479,0.65387 0.0243,0.89788 -0.0574,0.59471 -0.19458,1.10736 -0.56792,2.12226 -0.34372,0.9344 -0.47904,1.35044 -0.44589,1.37093 0.0102,0.006 0.16023,0.0237 0.33346,0.0388 1.77097,0.15368 3.59844,0.15846 7.0216,0.0184 0.33222,-0.0136 1.04113,-0.0427 1.57537,-0.0647 2.3794,-0.0979 3.32291,-0.12231 4.74243,-0.12248 1.35859,-1.7e-4 2.12047,0.0222 3.09361,0.0907 1.65948,0.11686 3.07202,0.35378 4.269,0.71601 2.42738,0.73458 4.25755,2.17218 5.47784,4.30285 0.17313,0.30231 0.47271,0.91363 0.6098,1.24441 0.4845,1.16898 0.81288,2.46734 0.99621,3.9388 0.18005,1.44526 0.21352,2.94959 0.10733,4.82406 -0.0828,1.4615 -0.13697,1.95643 -0.4163,3.80374 -0.27539,1.82121 -0.35046,2.42443 -0.40735,3.27318 -0.0728,1.0856 -0.0388,2.13295 0.1144,3.52622 0.0351,0.31926 0.12189,1.01302 0.23586,1.88554 0.21876,1.67473 0.31589,2.66254 0.33708,3.42827 0.008,0.27151 0.004,0.35777 -0.0169,0.4571 -0.0557,0.26102 -0.20138,0.46169 -0.40995,0.56478 -0.1018,0.0503 -0.13944,0.0599 -0.25562,0.0654 -0.0902,0.004 -0.16597,-0.002 -0.2242,-0.0183 z m -0.63836,-13.14959 c 0.37804,-2.47576 0.50965,-3.50346 0.59479,-4.64448 0.0859,-1.15192 0.086,-2.25064 0,-3.18339 -0.20264,-2.20008 -0.90371,-4.12586 -2.1506,-5.9075 -0.10766,-0.15384 -0.24395,-0.34215 -0.30287,-0.41847 -1.10386,-1.42994 -2.44801,-2.30611 -4.33091,-2.82307 -1.74045,-0.47784 -4.03475,-0.65903 -7.6772,-0.60632 -1.31921,0.0191 -1.58975,0.0254 -4.23792,0.0993 -4.34219,0.12114 -7.4896,0.1778 -8.08908,0.14562 -0.50496,-0.0271 -0.77829,-0.0869 -1.06113,-0.2321 -0.1838,-0.0944 -0.37372,-0.28417 -0.45275,-0.45249 -0.11216,-0.23887 -0.15086,-0.49838 -0.13871,-0.93032 0.0165,-0.58695 0.10749,-0.93879 0.54264,-2.09798 0.34227,-0.91179 0.45695,-1.28414 0.47515,-1.54272 0.0308,-0.43794 -0.23232,-0.77237 -0.79364,-1.00868 -0.17362,-0.0731 -0.34325,-0.12868 -0.72658,-0.23811 -0.4248,-0.12127 -0.60782,-0.20752 -1.23859,-0.58369 -0.66363,-0.39576 -0.97069,-0.52926 -1.21006,-0.52609 -0.35038,0.005 -1.07603,0.13983 -1.43661,0.26763 -0.44264,0.15689 -0.65082,0.35028 -0.59605,0.5537 0.0351,0.13017 0.22413,0.31718 0.48055,0.47529 0.42103,0.25961 0.87103,0.33235 1.66102,0.26848 0.16457,-0.0133 0.44614,-0.0353 0.62572,-0.0488 0.17957,-0.0135 0.48397,-0.0394 0.67643,-0.0574 0.57026,-0.0535 1.00288,-0.0394 1.27441,0.0416 0.15748,0.0469 0.33884,0.15241 0.44939,0.26134 0.29744,0.29307 0.42112,0.95065 0.30379,1.61514 -0.0607,0.34377 -0.15289,0.6486 -0.39001,1.28968 -0.42045,1.13669 -0.53098,1.62683 -0.4786,2.12226 0.10332,0.97731 0.72786,1.85859 1.50427,2.12267 0.1271,0.0432 0.42081,0.0953 0.69261,0.1228 0.27924,0.0282 1.54119,0.0383 2.11802,0.0169 0.92381,-0.0343 1.53075,-0.0696 3.95491,-0.22964 3.33734,-0.22038 4.6251,-0.27747 6.26066,-0.27758 1.86609,-1.6e-4 3.12122,0.10076 4.1726,0.33538 0.54575,0.12179 1.53642,0.40262 2.21051,0.62664 1.92221,0.6388 3.27726,1.42849 4.28224,2.49557 0.60408,0.64142 1.33627,1.76549 1.80158,2.76581 0.96214,2.0684 1.36933,4.27146 1.31034,7.08952 -0.0205,0.97829 -0.0679,1.69464 -0.21143,3.19155 -0.0992,1.03501 -0.14666,1.56955 -0.1449,1.63251 0.002,0.0658 -0.002,0.0924 0.27593,-1.73046 z m -30.98514,-24.03081 c -0.0763,-0.008 -0.26732,-0.0215 -0.42445,-0.031 -0.29757,-0.0181 -0.38991,-0.0344 -0.43206,-0.0766 -0.0391,-0.0391 -0.0301,-0.0719 0.037,-0.1358 0.12953,-0.12321 0.5051,-0.27677 0.76778,-0.31392 0.17785,-0.0252 0.22592,-0.007 0.47421,0.18236 0.28544,0.21731 0.32997,0.29532 0.20449,0.35825 -0.0566,0.0284 -0.41244,0.0378 -0.62701,0.0167 z"
       id="path1400" />
  </g>
</svg>
