<?xml version="1.0" encoding="UTF-8" standalone="no"?>
<!-- Created with Inkscape (http://www.inkscape.org/) -->

<svg
   width="1080"
   height="1920"
   viewBox="0 0 285.75001 508"
   version="1.1"
   id="svg5"
   inkscape:export-filename="/Users/albertotomasoni/ALBERTO.png"
   inkscape:export-xdpi="96"
   inkscape:export-ydpi="96"
   inkscape:version="1.1.1 (c3084ef, 2021-09-22)"
   sodipodi:docname="Irene.svg"
   xmlns:inkscape="http://www.inkscape.org/namespaces/inkscape"
   xmlns:sodipodi="http://sodipodi.sourceforge.net/DTD/sodipodi-0.dtd"
   xmlns="http://www.w3.org/2000/svg"
   xmlns:svg="http://www.w3.org/2000/svg">
  <sodipodi:namedview
     id="namedview7"
     pagecolor="#ffffff"
     bordercolor="#666666"
     borderopacity="1.0"
     inkscape:pageshadow="2"
     inkscape:pageopacity="0.0"
     inkscape:pagecheckerboard="0"
     inkscape:document-units="px"
     showgrid="false"
     units="px"
     inkscape:zoom="0.36785442"
     inkscape:cx="632.04352"
     inkscape:cy="399.61461"
     inkscape:window-width="1440"
     inkscape:window-height="900"
     inkscape:window-x="0"
     inkscape:window-y="0"
     inkscape:window-maximized="0"
     inkscape:current-layer="g2878" />
  <defs
     id="defs2" />
  <g
     inkscape:label="ALBERTO"
     inkscape:groupmode="layer"
     id="g2878">
    <g
       aria-label="irene"
       transform="matrix(2.7839642,0,0,2.7839642,-1007.9147,-810.36416)"
       id="text2874"
       style="font-weight:500;font-size:19.0077px;line-height:1.25;font-family:'Helvetica Neue';-inkscape-font-specification:'Helvetica Neue Medium';text-align:center;text-anchor:middle;white-space:pre;inline-size:858.441;stroke-width:1.51181;stroke-linecap:round;paint-order:markers fill stroke;stop-color:#000000">
      <path
         d="m 399.79768,310.24255 h -2.09085 v 13.30539 h 2.09085 z"
         style="font-weight:normal;font-family:Bison;-inkscape-font-specification:Bison"
         id="path912" />
      <path
         d="m 407.56143,323.54794 h -2.12886 l -1.08344,-5.34116 h -0.95038 v 5.34116 h -2.09085 v -13.30539 h 3.15528 q 1.34954,0 2.20489,0.79833 0.95039,0.87435 0.95039,2.471 v 1.42558 q 0,1.61565 -0.95039,2.49 -0.13305,0.13306 -0.30412,0.2471 z m -2.03382,-10.03606 q 0,-0.66527 -0.28512,-0.95039 -0.2471,-0.22809 -0.77931,-0.22809 h -1.06443 v 3.78253 h 1.06443 q 0.53221,0 0.77931,-0.22809 0.28512,-0.26611 0.28512,-0.95038 z"
         style="font-weight:normal;font-family:Bison;-inkscape-font-specification:Bison"
         id="path914" />
      <path
         d="m 410.935,312.3334 v 3.34536 h 2.35696 v 2.09084 H 410.935 v 3.6875 h 3.42139 v 2.09084 h -5.51223 v -13.30539 h 5.51223 v 2.09085 z"
         style="font-weight:normal;font-family:Bison;-inkscape-font-specification:Bison"
         id="path916" />
      <path
         d="m 422.06252,323.54794 h -1.21649 l -3.19329,-6.74773 v 6.74773 h -2.09085 v -13.30539 h 1.21649 l 3.1933,6.72873 v -6.72873 h 2.09084 z"
         style="font-weight:normal;font-family:Bison;-inkscape-font-specification:Bison"
         id="path918" />
      <path
         d="m 425.59915,312.3334 v 3.34536 h 2.35695 v 2.09084 h -2.35695 v 3.6875 h 3.42138 v 2.09084 h -5.51223 v -13.30539 h 5.51223 v 2.09085 z"
         style="font-weight:normal;font-family:Bison;-inkscape-font-specification:Bison"
         id="path920" />
    </g>
    <path
       style="fill=currentColor;stroke-width:0.0244909"
       d="m 112.57846,297.49818 c -0.006,-0.0168 -0.009,-0.50453 -0.005,-1.08374 l 0.006,-1.05311 11.62093,-0.0123 c 6.39152,-0.007 11.59715,-0.015 11.56808,-0.0184 -0.16865,-0.0194 -1.50366,-0.27161 -1.99213,-0.37633 -7.84074,-1.68096 -14.04403,-5.32108 -17.63401,-10.34773 -1.58478,-2.21899 -2.6395,-4.66143 -3.17137,-7.34407 -0.17048,-0.85986 -0.28341,-1.70583 -0.33111,-2.48025 -0.0147,-0.23879 -0.0371,-0.46801 -0.0497,-0.50938 -0.0326,-0.10678 -0.031,-136.44147 0.002,-136.46161 0.0135,-0.008 0.0245,-0.0779 0.0246,-0.15451 2.2e-4,-0.31184 0.10841,-1.31675 0.20755,-1.9279 0.80741,-4.97713 3.5376,-9.21406 8.03243,-12.46536 3.77482,-2.73048 8.76458,-4.69438 14.34054,-5.64423 0.59403,-0.10119 1.04432,-0.16891 1.91029,-0.28726 l 0.50207,-0.0686 h 5.26554 5.26555 l 0.50206,0.0686 c 1.25102,0.17098 2.08851,0.30678 2.98789,0.48451 4.79624,0.94778 8.99009,2.59409 12.44138,4.88389 1.92101,1.27452 3.56756,2.7361 4.91729,4.36491 1.9072,2.30154 3.2228,5.04175 3.80081,7.91657 0.17599,0.87533 0.34308,2.17673 0.34344,2.67487 0,0.0767 0.0111,0.14618 0.0246,0.15451 0.0326,0.0201 0.0341,136.35483 0.002,136.46161 -0.0126,0.0414 -0.035,0.27059 -0.0497,0.50938 -0.15591,2.53153 -0.87867,5.15803 -2.04387,7.42742 -1.78002,3.46684 -4.60788,6.37795 -8.42781,8.67595 -3.3622,2.02263 -7.47025,3.50963 -11.92221,4.3155 -0.37503,0.0679 -0.70566,0.12617 -0.73473,0.12951 -0.0291,0.003 5.17657,0.0116 11.56808,0.0184 l 11.62094,0.0123 v 1.0776 1.0776 l -30.2899,0.006 c -24.21906,0.005 -30.29225,-1e-5 -30.30165,-0.0245 z m 31.8882,-3.79035 c 5.25238,-0.209 9.99903,-1.26422 14.15575,-3.14696 5.19482,-2.35293 8.99913,-5.90965 10.89867,-10.18938 0.76504,-1.72369 1.19422,-3.37448 1.41361,-5.43736 l 0.0545,-0.51252 0.008,-68.07249 c 0.006,-49.07938 4.9e-4,-68.19548 -0.0188,-68.51332 -0.17916,-2.94793 -1.07879,-5.63524 -2.69288,-8.04395 -1.51065,-2.25436 -3.62157,-4.21898 -6.29553,-5.85921 -1.20413,-0.73862 -2.72791,-1.49877 -4.18051,-2.08549 -8.9482,-3.61424 -20.92109,-3.61424 -29.8693,0 -1.49134,0.60236 -3.12432,1.42328 -4.32745,2.17545 -3.29983,2.06299 -5.69576,4.57865 -7.17285,7.53128 -0.15835,0.31655 -0.34514,0.7115 -0.41508,0.87767 -0.72911,1.73222 -1.13733,3.49215 -1.25354,5.40425 -0.0193,0.31784 -0.0246,19.43394 -0.0188,68.51332 l 0.008,68.07249 0.0545,0.51252 c 0.21895,2.05875 0.64905,3.715 1.40967,5.42841 1.53953,3.46802 4.32986,6.4767 8.09841,8.73211 4.60025,2.75318 10.46346,4.35445 16.88648,4.61179 0.70199,0.0281 2.5655,0.0289 3.25729,0.001 z m 0.44457,-19.94748 c -0.009,-0.2694 -0.0171,-1.65803 -0.0187,-3.08585 -0.002,-1.42782 -0.011,-3.36199 -0.0208,-4.29816 -0.0173,-1.63491 -0.0201,-1.71022 -0.071,-1.9072 -0.1395,-0.53916 -0.37128,-1.03905 -0.73496,-1.58514 -0.95129,-1.42839 -2.60347,-2.94288 -5.12174,-4.69489 -0.33002,-0.2296 -0.60429,-0.42074 -0.60949,-0.42477 -0.005,-0.004 0.75523,-5.11141 1.68987,-11.34975 1.36909,-9.13813 1.70689,-11.34646 1.7382,-11.36324 0.0214,-0.0115 0.14811,-0.0429 0.28164,-0.0699 1.2364,-0.25004 2.58955,-0.11044 3.53669,0.36486 0.30115,0.15112 0.39157,0.20773 0.64914,0.40642 0.44809,0.34566 0.8162,0.82136 1.07159,1.38477 l 0.10397,0.22937 0.006,18.42053 0.006,18.42053 -0.59395,0.0153 c -0.32668,0.008 -0.88711,0.0179 -1.24541,0.0211 l -0.65146,0.006 z m 0.81792,-24.41091 0.0516,-11.30828 -0.057,-0.11618 c -0.12595,-0.25662 -0.49051,-0.54736 -0.87747,-0.69981 -0.36136,-0.14235 -0.86801,-0.228 -1.23484,-0.20875 -0.21878,0.0115 -0.32969,0.0569 -0.40761,0.16676 -0.0343,0.0483 -0.33061,2.06488 -1.40551,9.5637 -0.74916,5.22636 -1.36804,9.53605 -1.37529,9.57709 -0.0129,0.0732 -0.007,0.0786 0.32535,0.27858 2.33223,1.40507 4.10639,3.01637 4.80814,4.36675 l 0.1102,0.21208 0.005,-0.26183 c 0.003,-0.14401 0.0286,-5.35056 0.057,-11.57011 z M 120.0982,230.04355 c -0.5388,-0.26069 -0.99065,-0.47846 -1.00412,-0.48393 -0.0135,-0.005 0.0989,-0.2624 0.24978,-0.57095 0.15085,-0.30855 0.94823,-2.07086 1.77197,-3.91625 1.46352,-3.27865 2.49436,-5.54732 2.52051,-5.54706 0.007,0 0.4858,0.9099 1.0636,2.02183 0.5778,1.11194 1.05912,2.01284 1.06959,2.00201 0.0105,-0.0108 0.27737,-0.51565 0.59311,-1.1218 0.48405,-0.92926 1.06827,-2.02292 1.4312,-2.6792 l 0.0866,-0.15664 0.56688,1.12403 c 0.81982,1.62557 1.46527,2.85464 1.48747,2.83244 0.0335,-0.0335 1.10918,-2.11114 1.58015,-3.05196 0.24855,-0.4965 0.45556,-0.89876 0.46004,-0.89392 0.0299,0.0323 1.17325,2.16807 1.59442,2.97832 0.28181,0.54217 0.51806,0.98545 0.52499,0.98506 0.017,-9.6e-4 1.17461,-2.24512 1.65396,-3.20628 l 0.38408,-0.77013 0.0771,0.13713 c 0.0424,0.0754 0.51795,0.95286 1.05675,1.94988 0.72772,1.34659 0.9866,1.80538 1.00671,1.78408 0.0621,-0.0658 1.09324,-2.01082 1.54069,-2.90624 l 0.48336,-0.96727 0.49287,0.98271 c 0.42161,0.84062 1.59483,2.99492 1.63171,2.9962 0.0179,6.1e-4 1.07601,-2.04825 1.59012,-3.07911 0.24352,-0.48829 0.44821,-0.8878 0.45488,-0.8878 0.007,0 0.23346,0.4436 0.50399,0.98576 0.57169,1.14572 1.52043,2.98222 1.53988,2.98077 0.0379,-0.003 1.18785,-2.12495 1.61521,-2.98077 0.27073,-0.54216 0.4977,-0.98576 0.50436,-0.98576 0.007,0 0.23379,0.4436 0.50471,0.98576 0.42018,0.84087 1.51221,2.85473 1.60071,2.95192 0.0325,0.0357 0.51424,-0.8721 1.49768,-2.82213 l 0.56755,-1.12536 0.42077,0.84372 c 0.49784,0.99828 1.59951,3.1328 1.61703,3.13305 0.007,0 0.27781,-0.47639 0.6024,-1.05886 0.40789,-0.73196 0.72117,-1.33357 1.01439,-1.94797 l 0.42425,-0.88893 0.0422,0.0685 c 0.14883,0.24133 1.20338,2.13893 1.64026,2.95157 0.28765,0.53504 0.52527,0.97037 0.52805,0.96739 0.0391,-0.0418 1.31923,-2.29424 1.69416,-2.98105 0.27575,-0.50512 0.50344,-0.92092 0.50599,-0.92399 0.0238,-0.0288 4.77218,8.4817 5.1188,9.1745 0.14501,0.28981 0.25264,0.53297 0.24105,0.54456 -0.0287,0.0287 -1.9221,1.0537 -1.93032,1.045 -0.0423,-0.0448 -0.7705,-1.33658 -1.96431,-3.48468 -0.80101,-1.44129 -1.45834,-2.6227 -1.46074,-2.62536 -0.002,-0.003 -0.25665,0.48226 -0.56499,1.0776 -0.33706,0.6508 -0.77041,1.4389 -1.08671,1.97636 -0.28935,0.49165 -0.53378,0.90274 -0.54319,0.91353 -0.0174,0.0199 -0.37497,-0.62645 -1.48744,-2.68895 -0.34143,-0.63299 -0.62915,-1.15926 -0.63938,-1.16949 -0.0102,-0.0102 -0.22016,0.36991 -0.46649,0.84475 -0.51072,0.98447 -1.64955,3.10353 -1.66815,3.10398 -0.007,2.5e-4 -0.25324,-0.48186 -0.54763,-1.07117 -0.52705,-1.05507 -1.44717,-2.84034 -1.48393,-2.87922 -0.0104,-0.0109 -0.24948,0.42438 -0.53141,0.96739 -0.56432,1.08692 -1.58095,2.98145 -1.6005,2.98258 -0.007,4e-4 -0.22554,-0.42634 -0.48605,-0.9483 -0.47252,-0.94673 -1.51157,-2.96346 -1.54678,-3.00219 -0.0219,-0.0241 -0.67851,1.22958 -1.47615,2.81847 -0.31274,0.62296 -0.57412,1.1323 -0.58086,1.13187 -0.0192,-0.001 -0.90938,-1.66087 -1.53346,-2.85894 -0.31134,-0.59768 -0.57584,-1.08539 -0.58778,-1.08379 -0.0273,0.004 -0.97789,1.83345 -1.57662,3.03493 -0.24905,0.49977 -0.45844,0.90837 -0.46533,0.908 -0.0199,-0.001 -1.01435,-1.85228 -1.58873,-2.95763 -0.28902,-0.5562 -0.53373,-1.00255 -0.5438,-0.99188 -0.0364,0.0385 -0.96002,1.83094 -1.48342,2.87871 -0.29439,0.58931 -0.54083,1.07132 -0.54763,1.07113 -0.007,-2.4e-4 -0.48622,-0.87586 -1.06536,-1.94593 -0.57914,-1.07007 -1.06024,-1.93782 -1.0691,-1.92832 -0.0547,0.0587 -1.19326,2.20298 -1.57587,2.96803 l -0.45912,0.91802 -0.5175,-1.03021 c -0.50043,-0.99621 -1.57533,-2.95631 -1.60961,-2.93513 -0.0249,0.0154 -1.15453,2.19934 -1.62641,3.14436 l -0.40902,0.81912 -0.60483,-1.19873 c -0.86671,-1.71773 -1.4266,-2.78461 -1.44929,-2.76159 -0.077,0.0781 -1.2186,2.17934 -1.61849,2.97893 l -0.49128,0.98231 -0.53145,-1.05224 c -0.4998,-0.98958 -1.46878,-2.74472 -1.51269,-2.73996 -0.011,0.001 -0.49058,1.07022 -1.06577,2.37562 -1.09454,2.48406 -1.53667,3.4647 -1.56051,3.46124 -0.008,-0.001 -0.45505,-0.21536 -0.99385,-0.47604 z m 24.8128,-15.54118 c -0.008,-0.3692 -0.0205,-2.4847 -0.0277,-4.70111 -0.0146,-4.46447 -0.005,-4.21505 -0.17786,-4.73663 -0.5641,-1.70468 -2.49834,-3.69557 -5.85329,-6.0247 -0.32912,-0.22849 -0.52002,-0.37617 -0.5193,-0.40174 6.1e-4,-0.0223 0.7645,-5.1321 1.69751,-11.35524 l 1.69637,-11.3148 0.2434,-0.0543 c 0.39457,-0.088 0.81978,-0.12942 1.32685,-0.12942 0.89286,0 1.56574,0.13727 2.23333,0.45562 0.86056,0.41037 1.46099,1.05014 1.824,1.94351 l 0.0635,0.15636 v 18.4007 18.4007 h -0.47357 c -0.26047,0 -0.82124,0.007 -1.24615,0.0161 l -0.77257,0.0161 z m 0.81819,-24.24705 0.0516,-11.30582 -0.054,-0.10585 c -0.12895,-0.25276 -0.48495,-0.54143 -0.84606,-0.68602 -0.40236,-0.16111 -0.61522,-0.2007 -1.09324,-0.20333 l -0.43422,-0.002 -0.0956,0.098 -0.0956,0.098 -1.36191,9.50247 c -0.74904,5.22636 -1.36475,9.53994 -1.36823,9.58572 -0.006,0.0824 -0.003,0.0854 0.3488,0.30154 2.42655,1.49163 4.07497,2.9985 4.79131,4.3799 l 0.0946,0.18248 0.005,-0.2694 c 0.003,-0.14817 0.0287,-5.35702 0.0571,-11.57522 z m -3.58917,-18.82068 c -6.20359,-0.1659 -12.97352,-1.93108 -20.63359,-5.37997 -0.54451,-0.24516 -0.91367,-0.41661 -2.16132,-1.00376 -0.1448,-0.0682 -0.26302,-0.13037 -0.2627,-0.13828 3.2e-4,-0.008 0.0527,-0.0381 0.11633,-0.0671 0.0637,-0.029 0.41883,-0.19829 0.78926,-0.37617 6.23388,-2.99359 12.27839,-4.96521 17.59887,-5.74048 4.01003,-0.58431 7.58234,-0.52926 11.72899,0.18078 5.06896,0.86795 10.85094,2.8393 16.78852,5.72397 l 0.57554,0.27962 -0.30614,0.14781 c -7.61888,3.67855 -14.71888,5.81335 -20.8785,6.27765 -0.98987,0.0746 -2.51842,0.11832 -3.35526,0.096 z m 2.25729,-2.55716 c 4.9565,-0.22197 10.02432,-1.39345 15.42048,-3.56461 0.41499,-0.16697 0.77264,-0.31372 0.79476,-0.3261 0.033,-0.0185 0.0229,-0.0299 -0.0566,-0.0637 -6.32319,-2.69412 -12.11957,-4.00596 -17.69315,-4.00429 -5.38904,0.002 -11.08807,1.26289 -17.20521,3.80778 -0.28287,0.11768 -0.52415,0.21987 -0.53617,0.22707 -0.0325,0.0195 0.0332,0.0488 0.76883,0.34334 4.94035,1.97798 9.54778,3.12302 14.05779,3.49366 0.36163,0.0297 0.94476,0.0645 1.60415,0.0957 0.40515,0.0192 2.35494,0.0131 2.84507,-0.009 z m -7.74245,-22.39779 c -2.15185,-4.12933 -3.90599,-7.51433 -3.8981,-7.52223 0.008,-0.008 0.6716,-0.0155 1.4749,-0.017 l 1.46054,-0.003 3.91206,7.50646 3.91206,7.50647 -0.11261,0.0162 c -0.0619,0.009 -0.72546,0.0172 -1.4745,0.0184 l -1.36189,0.002 z m 13.40064,7.46501 c -0.0732,-0.13161 -7.8076,-14.96979 -7.81908,-15.00069 -0.0151,-0.0405 0.0646,-0.0428 1.46228,-0.0424 l 1.4782,4.7e-4 3.9063,7.49729 c 2.14846,4.12351 3.90986,7.51222 3.91421,7.53048 0.007,0.0277 -0.23742,0.0332 -1.46188,0.0332 -0.80839,0 -1.47441,-0.008 -1.48003,-0.0184 z"
       id="path1278" />
  </g>
</svg>
