<?xml version="1.0" encoding="UTF-8" standalone="no"?>
<!-- Created with Inkscape (http://www.inkscape.org/) -->

<svg
   width="1080"
   height="1920"
   viewBox="0 0 285.75001 508"
   version="1.1"
   id="svg5"
   inkscape:export-filename="/Users/albertotomasoni/ALBERTO.png"
   inkscape:export-xdpi="96"
   inkscape:export-ydpi="96"
   inkscape:version="1.1.1 (c3084ef, 2021-09-22)"
   sodipodi:docname="james.svg"
   xmlns:inkscape="http://www.inkscape.org/namespaces/inkscape"
   xmlns:sodipodi="http://sodipodi.sourceforge.net/DTD/sodipodi-0.dtd"
   xmlns="http://www.w3.org/2000/svg"
   xmlns:svg="http://www.w3.org/2000/svg">
  <sodipodi:namedview
     id="namedview7"
     pagecolor="#ffffff"
     bordercolor="#666666"
     borderopacity="1.0"
     inkscape:pageshadow="2"
     inkscape:pageopacity="0.0"
     inkscape:pagecheckerboard="0"
     inkscape:document-units="px"
     showgrid="false"
     units="px"
     inkscape:zoom="0.24661248"
     inkscape:cx="476.45602"
     inkscape:cy="1062.3955"
     inkscape:window-width="1440"
     inkscape:window-height="758"
     inkscape:window-x="22"
     inkscape:window-y="77"
     inkscape:window-maximized="0"
     inkscape:current-layer="g2878" />
  <defs
     id="defs2" />
  <g
     inkscape:label="ALBERTO"
     inkscape:groupmode="layer"
     id="g2878">
    <text
       xml:space="preserve"
       style="font-weight:500;font-size:19.0077px;line-height:1.25;font-family:'Helvetica Neue';-inkscape-font-specification:'Helvetica Neue Medium';text-align:center;text-decoration-color:#000000;text-anchor:middle;white-space:pre;inline-size:858.441;fill=currentColor;stroke-width:1.51181;stroke-linecap:round;paint-order:markers fill stroke;stop-color:#000000"
       x="413.24438"
       y="323.54794"
       id="text2874"
       transform="matrix(2.7839642,0,0,2.7839642,-1007.321,-810.36416)"><tspan
         x="413.24438"
         y="323.54794"
         id="tspan1378"><tspan
           style="font-weight:normal;font-family:Bison;-inkscape-font-specification:Bison"
           id="tspan1376">james</tspan></tspan></text>
    <path
       style="fill=currentColor;stroke-width:0.0163251"
       d="m 112.57565,351.2262 v -1.08562 l 11.65202,-0.002 c 11.52481,-0.002 11.65006,-0.002 11.47245,-0.033 -1.03135,-0.17913 -1.46367,-0.26231 -2.16307,-0.41612 -7.3812,-1.62343 -13.31566,-5.01193 -16.92277,-9.6627 -0.58953,-0.76011 -1.15706,-1.61762 -1.63138,-2.46496 -0.17999,-0.32154 -0.53255,-1.02337 -0.68887,-1.3713 -0.96808,-2.1548 -1.51184,-4.38173 -1.6702,-6.84021 -0.0104,-0.16162 -0.0255,-0.2963 -0.0335,-0.29929 -0.0195,-0.007 -0.0195,-191.23464 -4e-5,-191.23464 0.008,0 0.0194,-0.0679 0.0253,-0.15101 0.0953,-1.34139 0.25224,-2.36665 0.53277,-3.48132 0.94755,-3.76505 3.04602,-7.04208 6.25242,-9.76392 4.4323,-3.76249 10.87447,-6.28349 18.22572,-7.13222 0.32017,-0.037 10.17684,-0.037 10.49702,0 5.49808,0.63478 10.54357,2.21735 14.58645,4.5752 2.81155,1.63973 5.10287,3.62437 6.81768,5.90519 1.59143,2.11671 2.67364,4.4837 3.2207,7.04426 0.19381,0.90714 0.30749,1.74717 0.38608,2.85281 0.006,0.0831 0.0173,0.15101 0.0253,0.15101 0.0195,0 0.0195,191.22738 0,191.23464 -0.008,0.003 -0.0232,0.13767 -0.0336,0.29929 -0.17664,2.74237 -0.84056,5.23077 -2.01667,7.55851 -1.29492,2.56291 -3.16736,4.82497 -5.61609,6.78475 -3.45195,2.76268 -7.99905,4.82481 -13.16618,5.97094 -0.7619,0.169 -1.32362,0.27732 -2.36713,0.45649 -0.0568,0.01 4.19319,0.0161 11.56223,0.0174 l 11.65202,0.002 v 1.08562 1.08562 H 142.87497 112.57564 V 351.226 Z m 32.01347,-2.7337 c 1.24172,-0.0564 2.21654,-0.13236 3.26502,-0.25431 6.672,-0.77598 12.49854,-3.06085 16.61449,-6.51537 3.09599,-2.59846 5.1445,-5.80236 6.02707,-9.42641 0.24596,-1.00998 0.38062,-1.88156 0.47027,-3.04376 0.0277,-0.35894 0.029,-4.57606 0.029,-95.77921 0,-76.95495 -0.004,-95.45898 -0.0207,-95.68942 -0.10152,-1.39909 -0.31601,-2.57779 -0.69184,-3.8019 -0.61505,-2.00328 -1.66091,-3.91554 -3.05904,-5.59318 -0.68243,-0.81886 -1.59664,-1.73375 -2.43192,-2.43375 -1.65022,-1.38294 -3.61809,-2.6012 -5.78201,-3.57951 -3.34341,-1.51155 -7.17198,-2.51653 -11.29402,-2.96462 -2.50209,-0.272 -5.20561,-0.32867 -7.77889,-0.16306 -7.38749,0.47543 -14.01571,2.74468 -18.53387,6.34528 -1.06017,0.84487 -2.06087,1.81763 -2.87595,2.79566 -1.39813,1.67764 -2.444,3.5899 -3.05905,5.59318 -0.37583,1.22411 -0.59032,2.40281 -0.69183,3.8019 -0.0167,0.23044 -0.0207,18.73447 -0.0207,95.68942 0,91.20315 0.001,95.42027 0.029,95.77921 0.0897,1.1622 0.22431,2.03378 0.47027,3.04376 1.02579,4.21218 3.6229,7.84582 7.60044,10.63378 4.20362,2.94645 9.81796,4.83988 16.05328,5.41395 0.88937,0.0819 1.81342,0.1352 2.95483,0.17048 0.34241,0.0106 2.3684,-0.006 2.72629,-0.0221 z m -5.57229,-19.4548 c -0.0175,-0.0175 -0.0124,-35.96066 0.005,-36.23078 0.0369,-0.56894 0.20776,-1.08051 0.518,-1.55088 0.82336,-1.24835 2.44522,-1.91727 3.9717,-1.63809 0.34743,0.0635 0.78105,0.22266 1.12752,0.41374 0.74405,0.41037 1.36091,1.03869 1.72513,1.75718 0.1707,0.33676 0.27107,0.6352 0.34237,1.01805 0.0274,0.14732 0.0291,0.75682 0.0333,12.1581 l 0.004,12.00301 h -1.24891 -1.24891 l -0.004,-12.01117 -0.004,-12.01117 -0.043,-0.15527 c -0.10418,-0.37649 -0.29,-0.64277 -0.58215,-0.83418 -0.38297,-0.25093 -0.85173,-0.29452 -1.31228,-0.12201 -0.20221,0.0757 -0.31281,0.14632 -0.46249,0.2952 -0.14554,0.14476 -0.22549,0.27826 -0.28856,0.48185 l -0.0378,0.12218 -0.004,18.15756 -0.004,18.15757 h -1.23793 c -0.68087,0 -1.24284,-0.005 -1.24882,-0.0109 z m 12.22476,-43.83149 c -0.0359,-0.003 -0.16815,-0.0141 -0.29385,-0.0238 -1.29622,-0.0996 -2.46517,-0.49143 -3.24136,-1.08638 -0.20558,-0.15759 -0.50302,-0.46561 -0.63134,-0.65379 -0.20221,-0.29654 -0.47256,-0.82693 -0.73664,-1.44518 -0.30365,-0.71085 -0.56817,-1.42108 -1.14517,-3.07464 -0.48974,-1.40349 -0.64418,-1.8243 -0.82687,-2.25286 -0.17124,-0.40175 -0.20984,-0.45383 -0.37149,-0.50132 -0.10128,-0.0297 -0.31388,-0.0255 -0.41119,0.008 -0.14196,0.0492 -0.15966,0.0796 -0.26912,0.46223 -0.30675,1.0724 -0.60716,1.90195 -0.90687,2.50418 -0.18459,0.3709 -0.31688,0.57439 -0.47834,0.73578 -0.13713,0.13707 -0.21986,0.18399 -0.38674,0.21934 -0.27246,0.0577 -0.57188,0.002 -1.19137,-0.22149 -0.40439,-0.14593 -0.6955,-0.2414 -0.77471,-0.25407 l -0.0607,-0.01 -0.0369,0.11197 c -0.0685,0.20799 -0.30511,0.82838 -0.4287,1.12413 -0.25228,0.60371 -0.63972,1.41845 -0.97426,2.04879 -0.0929,0.17509 -0.20925,0.39548 -0.2585,0.48975 -0.11494,0.22003 -0.16618,0.29395 -0.28463,0.41058 -0.49249,0.4849 -1.51138,0.78336 -2.81228,0.82378 -0.69263,0.0215 -1.58321,-0.0705 -2.14386,-0.22143 l -0.0661,-0.0178 0.0497,-0.10614 c 0.0273,-0.0584 0.0507,-0.12984 0.052,-0.15881 0.004,-0.0895 -0.0609,-0.08 -0.31643,0.0463 l -0.21993,0.10873 -0.23671,0.0256 c -0.49963,0.0541 -2.23614,0.031 -3.56703,-0.0473 -0.15264,-0.009 -0.50698,-0.0227 -0.78743,-0.0305 -0.55608,-0.0155 -0.70876,-0.0316 -0.82058,-0.0867 -0.0885,-0.0436 -0.10504,-0.10262 -0.0498,-0.17734 0.045,-0.0608 0.0199,-0.0616 -0.127,-0.004 -0.33028,0.1298 -0.80695,0.55427 -1.1578,1.03101 l -0.12346,0.16777 -0.0381,-0.0358 c -0.0209,-0.0197 -0.0545,-0.0768 -0.0744,-0.12696 -0.0324,-0.0812 -0.0364,-0.12074 -0.0368,-0.36054 -4.3e-4,-0.29364 0.0184,-0.41817 0.10673,-0.7065 0.0921,-0.3004 0.22887,-0.55058 0.38827,-0.70999 0.26833,-0.26832 0.83035,-0.44039 1.66739,-0.51049 0.12122,-0.0101 0.76034,-0.0252 1.42028,-0.0335 0.65994,-0.008 1.22561,-0.0184 1.25703,-0.0227 0.0314,-0.004 0.13428,-0.0156 0.22856,-0.0254 0.57109,-0.0589 0.98313,-0.21276 1.20952,-0.45158 0.43831,-0.46239 1.3443,-2.43023 1.7357,-3.76997 0.1906,-0.65241 0.25973,-1.03391 0.26145,-1.44277 0.001,-0.35624 -0.0352,-0.51862 -0.14708,-0.65164 -0.0469,-0.0557 -0.0537,-0.0798 -0.48831,-1.7155 -1.0924,-4.11168 -1.51669,-5.67179 -2.05121,-7.54218 -0.70652,-2.47224 -1.30225,-4.3417 -1.73234,-5.43625 -0.17934,-0.45638 -0.18024,-0.45794 -0.40343,-0.69382 -1.89905,-2.00705 -2.68275,-3.36724 -2.92997,-5.08526 -0.0823,-0.57224 -0.11397,-1.6402 -0.0758,-2.55901 0.0602,-1.44821 0.1037,-1.84669 0.27989,-2.56318 0.30924,-1.25754 0.9176,-2.52967 1.96394,-4.10677 l 0.2472,-0.3726 0.14693,-0.0706 c 0.22206,-0.1067 0.34413,-0.13128 0.64484,-0.12982 0.30794,0.001 0.45268,0.0264 1.08169,0.18581 0.76525,0.19398 0.71368,0.18794 1.59562,0.1869 0.81451,-9.6e-4 0.9829,-0.0118 1.50191,-0.0968 0.59447,-0.0973 1.09561,-0.23421 1.70893,-0.46674 l 0.10091,-0.0383 0.18478,0.12495 c 0.53794,0.36376 1.07183,0.89155 1.52747,1.51003 1.01258,1.37444 1.82012,3.3997 2.06872,5.18819 0.0237,0.1706 0.0574,0.39833 0.0748,0.50608 0.0478,0.29498 0.0749,0.55699 0.13014,1.25703 0.0693,0.87829 0.12113,1.2492 0.22724,1.62608 0.083,0.29461 0.061,0.27047 0.3118,0.34249 0.92054,0.26432 1.85505,0.76994 2.64868,1.43309 0.0827,0.0691 0.24221,0.19491 0.35446,0.27956 1.55079,1.16955 3.36486,3.01608 5.49449,5.59286 2.08176,2.51884 4.47501,5.74525 7.51889,10.13643 0.85918,1.23947 1.38484,2.00604 3.33608,4.86488 1.19357,1.74877 1.76519,2.5788 1.87885,2.72824 0.13668,0.17974 0.17529,0.28543 0.16625,0.45514 -0.009,0.16254 -0.06,0.27147 -0.18566,0.39419 -0.1543,0.15065 -0.3627,0.22645 -0.59151,0.21516 -0.236,-0.0116 -0.41051,-0.13138 -0.52509,-0.36032 -0.0359,-0.0717 -0.0655,-0.1387 -0.0659,-0.14889 -3.6e-4,-0.0102 -0.13077,-0.0988 -0.28978,-0.19696 -0.159,-0.0981 -0.83274,-0.5199 -1.49717,-0.93727 -0.98529,-0.61891 -1.86848,-1.17168 -1.99856,-1.25086 -0.028,-0.017 -0.0489,-0.0463 0.2446,0.34271 0.86095,1.14112 1.43812,2.11872 1.83074,3.10085 0.13058,0.32663 0.15462,0.426 0.12943,0.53511 -0.0524,0.22695 -0.20889,0.31275 -0.97851,0.5364 -0.59311,0.17238 -0.76142,0.22955 -1.26834,0.43082 -0.80174,0.31834 -1.42975,0.48835 -2.22837,0.60323 -0.52555,0.0756 -0.76311,0.0925 -1.37947,0.0982 -0.32323,0.003 -0.61709,0.003 -0.653,-8.1e-4 z m 0.91713,-1.26405 c 0.83094,-0.0403 1.38392,-0.16855 2.74785,-0.63715 0.29181,-0.10025 0.66647,-0.22568 0.83258,-0.27872 0.1661,-0.053 0.31094,-0.0997 0.32184,-0.10366 0.026,-0.009 -0.0218,-0.11715 -0.20017,-0.4509 -0.27362,-0.51207 -0.58877,-1.02531 -0.97649,-1.59027 -0.2865,-0.41747 -0.4465,-0.63773 -1.18803,-1.6355 -0.34821,-0.46853 -0.73677,-0.99747 -0.86347,-1.1754 l -0.23037,-0.32352 -0.29679,-0.18898 c -1.07302,-0.68325 -2.21904,-1.33461 -4.43521,-2.52084 -3.63302,-1.94462 -4.50883,-2.45462 -5.93416,-3.45559 -1.53747,-1.07972 -2.95965,-2.23599 -5.15873,-4.19419 -2.52603,-2.24933 -3.34732,-3.03054 -3.91169,-3.72078 -0.26201,-0.32044 -0.42602,-0.58109 -0.49488,-0.78648 -0.0957,-0.28533 -0.0147,-0.44918 0.25225,-0.51072 0.0581,-0.0134 0.19386,-0.0433 0.30161,-0.0665 1.22831,-0.26414 2.92341,-1.0679 4.56944,-2.16669 0.89372,-0.5966 1.56454,-1.14329 1.97821,-1.61217 0.0276,-0.0313 0.0992,-0.0996 0.15898,-0.15169 0.31723,-0.27641 0.24816,-0.46646 -0.22558,-0.62073 -0.0718,-0.0234 -0.28779,-0.0837 -0.47992,-0.13394 -0.37252,-0.0975 -0.52287,-0.148 -0.6336,-0.21289 l -0.0691,-0.0405 -0.16354,0.0821 c -0.32026,0.16072 -0.55278,0.20773 -0.70577,0.14271 -0.0793,-0.0337 -0.19464,-0.1414 -0.25933,-0.24221 -0.0286,-0.0446 -0.0574,-0.0789 -0.0639,-0.0763 -0.0182,0.007 -1.07546,0.97522 -1.29914,1.18943 -0.3521,0.33719 -0.6641,0.51356 -1.11715,0.63151 -0.15988,0.0416 -0.19337,0.0446 -0.49791,0.0438 -0.29826,-7.8e-4 -0.33992,-0.004 -0.48159,-0.0429 -0.2097,-0.0568 -0.397,-0.13092 -0.52348,-0.207 -0.0578,-0.0347 -0.14377,-0.0714 -0.1911,-0.0815 -0.19204,-0.0409 -0.36133,-0.16624 -0.71546,-0.52974 -0.23323,-0.2394 -0.3637,-0.33723 -0.45018,-0.33753 -0.0652,-2.3e-4 -0.13629,0.07 -0.19357,0.19119 -0.32551,0.68893 -1.13542,1.04467 -2.16937,0.95284 -0.34082,-0.0303 -0.77211,-0.11216 -0.84612,-0.16065 -0.0436,-0.0286 -0.0474,-0.0105 -0.009,0.0454 0.0701,0.10337 0.41507,0.49074 0.88642,0.99538 0.1216,0.1302 0.30575,0.32855 0.40922,0.44078 1.98209,2.15005 3.77353,4.65403 5.22662,7.30547 1.7569,3.20582 3.04904,6.70848 3.3695,9.13388 0.0167,0.12597 0.0285,0.34682 0.031,0.57712 l 0.004,0.37306 0.18576,0.0614 c 0.22652,0.0749 0.32041,0.11254 0.89663,0.35976 0.72839,0.31252 1.02963,0.40176 1.31125,0.38847 0.17305,-0.008 0.28968,-0.0564 0.36029,-0.14896 0.0468,-0.0613 0.26679,-0.51201 0.36,-0.73745 0.35195,-0.85121 0.58086,-1.78714 0.71793,-2.93531 0.0232,-0.19453 0.0449,-0.4438 0.0481,-0.55393 0.003,-0.11012 0.0148,-0.2331 0.0257,-0.27328 0.0541,-0.19986 0.1944,-0.37127 0.37213,-0.45457 0.085,-0.0398 0.11088,-0.0437 0.28925,-0.0437 0.22736,0 0.29475,0.0193 0.47063,0.13497 0.18693,0.12292 0.32079,0.3295 0.35952,0.55482 0.0104,0.0606 0.0254,0.12016 0.0332,0.13241 0.0291,0.0454 0.15785,0.0115 0.41038,-0.10786 0.27767,-0.13127 0.33871,-0.15105 0.46488,-0.15068 0.15449,4.6e-4 0.27804,0.0839 0.35678,0.2408 0.064,0.12763 0.24267,0.69744 0.6818,2.17486 0.14812,0.49833 0.32081,1.07501 0.38377,1.28152 0.97597,3.20148 1.62958,4.7186 2.26484,5.25697 0.25064,0.21242 0.66824,0.44553 1.04955,0.58587 0.57521,0.21172 1.32089,0.35452 2.00551,0.38407 0.15713,0.007 0.29304,0.0134 0.30202,0.0146 0.009,0.001 0.16456,-0.005 0.34575,-0.0137 z m -16.62452,-1.23639 c 0.12151,-0.0325 0.26377,-0.12438 0.34627,-0.22366 0.0355,-0.0427 0.13202,-0.15037 0.21452,-0.23927 0.41032,-0.44214 0.73991,-1.00395 1.02851,-1.75319 0.12412,-0.3222 0.52746,-1.41543 0.52746,-1.42963 0,-0.008 -0.009,-0.0152 -0.0204,-0.0153 -0.0325,-2.4e-4 -0.37414,-0.16955 -0.54758,-0.27134 -0.17827,-0.10464 -0.39991,-0.25083 -0.87678,-0.57831 -0.34036,-0.23373 -0.64448,-0.42982 -0.65248,-0.4207 -0.003,0.003 -0.0284,0.11918 -0.0574,0.25835 -0.13684,0.65589 -0.36022,1.33348 -0.63044,1.91229 -0.1381,0.29582 -0.28685,0.57297 -0.57707,1.0752 -0.40162,0.69501 -0.58126,1.03757 -0.70716,1.34853 l -0.0404,0.0996 0.17339,0.01 c 0.19787,0.0114 0.34227,0.0368 0.71211,0.12508 0.62625,0.14952 0.85263,0.17042 1.10744,0.10228 z m 21.64385,-3.79557 c -0.40584,-0.53301 -0.82547,-1.13321 -2.33692,-3.34256 -2.71779,-3.9727 -3.99814,-5.78361 -5.63255,-7.96663 -3.42419,-4.57357 -6.11951,-7.46471 -8.05024,-8.63509 l -0.14129,-0.0856 -0.35491,0.36086 c -0.60019,0.61026 -1.2036,1.11843 -1.98287,1.66989 -1.25839,0.89053 -2.82388,1.69532 -4.29794,2.2095 l -0.27399,0.0956 0.0536,0.0514 c 0.15489,0.1486 2.05724,1.87508 2.70718,2.45692 3.78525,3.38856 6.5358,5.43808 9.40248,7.00606 0.21101,0.11541 0.8134,0.42523 1.33866,0.68848 1.45504,0.72924 2.39949,1.23924 3.7466,2.02311 1.34074,0.78017 3.33351,2.0126 5.75459,3.55892 0.12122,0.0774 0.22587,0.141 0.23256,0.14129 0.007,3e-4 -0.0675,-0.10415 -0.16496,-0.2321 z m -20.07529,-1.72229 c -0.34908,-1.55422 -1.13304,-3.95217 -1.95775,-5.98831 -0.65566,-1.61877 -1.38944,-3.16057 -2.07004,-4.34955 -0.61375,-1.07219 -1.29,-2.03414 -1.83623,-2.61201 l -0.13117,-0.13876 0.1211,0.34283 c 0.78067,2.21014 1.42211,4.49356 2.35718,8.39108 0.38628,1.6101 0.52942,2.14538 0.6243,2.33449 0.1331,0.2653 0.37851,0.45088 1.40834,1.06501 0.65278,0.38927 1.04417,0.6426 1.31417,0.85059 0.0943,0.0726 0.17256,0.13231 0.17397,0.13262 0.001,3.1e-4 -3.4e-4,-0.0123 -0.004,-0.028 z m -7.03479,-18.70445 c 0.0628,-0.0131 0.1732,-0.0529 0.24522,-0.0884 0.25856,-0.12743 0.45578,-0.3381 0.83417,-0.89107 0.16998,-0.24839 0.25821,-0.36542 0.41094,-0.54503 l 0.047,-0.0553 0.0884,0.0567 c 0.14776,0.0949 0.32032,0.23983 0.59979,0.50393 0.35107,0.33177 0.5245,0.48681 0.66671,0.596 0.37331,0.28664 0.77899,0.43762 1.17271,0.43646 0.23574,-7e-4 0.38449,-0.0357 0.60703,-0.14278 0.30001,-0.14437 0.5138,-0.31547 1.07873,-0.86329 0.20887,-0.20255 0.44306,-0.41833 0.52043,-0.47952 l 0.14067,-0.11126 -0.01,-0.15509 c -0.005,-0.0853 -0.0351,-0.28732 -0.0661,-0.44894 -0.0791,-0.41218 -0.0928,-0.52595 -0.0924,-0.76291 4.1e-4,-0.22964 0.0262,-0.37444 0.0996,-0.55942 0.10673,-0.26901 0.15318,-0.62303 0.14192,-1.08162 -0.0114,-0.46607 -0.0875,-0.86143 -0.27394,-1.42428 -0.13673,-0.41279 -0.47655,-1.2363 -0.66051,-1.60067 -0.0569,-0.11269 -0.17104,-0.36247 -0.25368,-0.55506 -0.27171,-0.63328 -0.41816,-0.89212 -0.62605,-1.10658 -0.12548,-0.12943 -0.29377,-0.24307 -0.43061,-0.29077 -0.0856,-0.0298 -0.0865,-0.0298 -0.1959,0.008 -0.0605,0.0209 -0.18091,0.0735 -0.2677,0.11677 -0.43286,0.21587 -0.76477,0.50962 -1.42937,1.26512 -0.44016,0.50034 -0.41841,0.47849 -0.52547,0.52795 -0.12382,0.0572 -0.27232,0.0657 -0.39481,0.0227 -0.20244,-0.0712 -0.36626,-0.2113 -0.73696,-0.63027 -0.37986,-0.42933 -0.56713,-0.60122 -0.7471,-0.68576 -0.0404,-0.019 -0.12489,-0.0865 -0.18773,-0.15007 -0.27016,-0.27321 -0.56661,-0.40127 -0.93053,-0.402 -0.21816,-4.4e-4 -0.37446,0.0325 -0.55788,0.11767 -0.38857,0.18035 -0.61403,0.44862 -0.74768,0.88964 -0.0326,0.10774 -0.16889,0.52281 -0.30275,0.92236 -0.25407,0.75836 -0.33552,1.04077 -0.39079,1.35498 -0.0509,0.28925 -0.0824,0.70198 -0.0536,0.70198 0.007,0 0.0665,-0.0937 0.13259,-0.20814 0.25855,-0.44794 0.52142,-0.79882 0.72275,-0.96474 0.22696,-0.18704 0.4228,-0.24043 0.83001,-0.22629 0.38191,0.0133 0.67708,0.0984 1.09309,0.31533 0.42813,0.22324 1.08015,0.69347 1.23984,0.89416 0.10568,0.13279 0.19202,0.19238 0.29282,0.20207 0.16452,0.0158 0.28163,-0.0869 0.59894,-0.52531 0.11646,-0.16089 0.26157,-0.34088 0.32247,-0.39996 0.13134,-0.12743 0.15684,-0.15311 0.3933,-0.39618 0.30917,-0.31781 0.61867,-0.47185 1.04839,-0.5218 0.38819,-0.0451 0.7901,0.0708 1.10856,0.31972 0.0628,0.0491 0.21713,0.14856 0.34283,0.22095 0.35713,0.20567 0.48149,0.32008 0.51629,0.47499 0.0251,0.11152 -0.0323,0.26113 -0.16123,0.42072 l -0.0308,0.0381 -0.12783,-0.0429 c -0.14746,-0.0495 -0.27105,-0.11916 -0.52292,-0.29473 -0.58678,-0.40903 -0.77501,-0.49978 -1.03664,-0.49977 -0.21623,1e-5 -0.31669,0.0519 -0.61382,0.31685 -0.46436,0.41413 -0.84516,0.8471 -1.16236,1.32162 -0.18511,0.27691 -0.26446,0.41693 -0.26446,0.46667 0,0.0802 0.0594,0.22429 0.18091,0.43893 0.0644,0.11378 0.1375,0.25227 0.16239,0.30774 0.0249,0.0555 0.0676,0.13172 0.0949,0.16944 0.078,0.10771 0.10559,0.21164 0.0971,0.36607 -0.01,0.17392 -0.0699,0.30472 -0.306,0.66334 -0.20135,0.30585 -0.27324,0.43939 -0.3116,0.5788 l -0.0267,0.0972 -0.45801,-0.61047 -0.458,-0.61046 0.0206,-0.0663 c 0.33983,-1.09099 0.38924,-1.26882 0.3808,-1.37052 -0.0147,-0.17741 -0.14168,-0.35868 -0.37649,-0.53758 -0.065,-0.0495 -0.24673,-0.17217 -0.40385,-0.27257 -0.15713,-0.1004 -0.3357,-0.22405 -0.39682,-0.27479 -0.22615,-0.18773 -0.31716,-0.25054 -0.47658,-0.3289 -0.22984,-0.11297 -0.36617,-0.1482 -0.61423,-0.15874 -0.37728,-0.016 -0.61984,0.074 -0.86319,0.32038 -0.2277,0.23054 -0.31939,0.44039 -0.36688,0.83966 -0.0633,0.53186 -0.1954,0.71671 -0.51146,0.71548 l -0.12085,-4.8e-4 0.0107,0.16622 c 0.0594,0.91972 0.0873,1.22861 0.14803,1.63931 0.0732,0.49476 0.14714,0.77944 0.37367,1.438 0.12793,0.37198 0.28479,0.56053 0.59117,0.71066 0.22601,0.11074 0.4337,0.16245 0.98787,0.24595 0.21219,0.032 0.43993,0.0703 0.50607,0.0851 0.34473,0.0773 0.45775,0.0856 0.64267,0.0469 z m -1.57537,-4.65895 c -0.20426,-0.066 -0.31947,-0.15281 -0.37535,-0.2827 -0.0706,-0.16415 -0.0121,-0.356 0.1611,-0.52796 0.11494,-0.11414 0.26102,-0.20543 0.40586,-0.25362 0.1966,-0.0654 0.32036,-0.0265 0.62156,0.19555 0.12715,0.0937 0.16853,0.11518 0.25304,0.13117 0.39466,0.0747 0.46164,0.2179 0.19074,0.40792 -0.18134,0.12721 -0.5512,0.2778 -0.82444,0.33567 -0.15149,0.0321 -0.32195,0.0297 -0.43251,-0.006 z m 4.21753,-0.13223 c -0.38425,-0.10073 -0.47173,-0.303 -0.26482,-0.61234 0.12077,-0.18057 0.37264,-0.39698 0.59307,-0.50959 0.12209,-0.0624 0.20885,-0.0483 0.55091,0.0893 0.32816,0.13201 0.34416,0.13655 0.48153,0.13655 0.10334,0 0.21613,-0.0397 0.31035,-0.10913 0.0346,-0.0255 0.0365,-0.0248 0.0469,0.0167 0.0156,0.062 1.6e-4,0.17101 -0.0348,0.24609 -0.0417,0.0897 -0.23662,0.28142 -0.38075,0.37463 -0.32537,0.2104 -0.85718,0.40213 -1.10741,0.39926 -0.043,-4.9e-4 -0.13078,-0.0147 -0.19501,-0.0315 z m 4.99988,3.04031 c -0.098,-0.71056 -0.13867,-1.06381 -0.24667,-2.14267 -0.0775,-0.7744 -0.15694,-1.48162 -0.19614,-1.74678 -0.0126,-0.0853 -0.0382,-0.27263 -0.0569,-0.41629 -0.21377,-1.64435 -0.96168,-3.1673 -2.43332,-4.95493 -0.11076,-0.13453 -0.2079,-0.2446 -0.21589,-0.2446 -0.008,0 -0.0754,0.0215 -0.1498,0.0478 -0.17809,0.0628 -0.55991,0.17027 -0.78447,0.22069 -0.68029,0.15274 -1.33572,0.20696 -2.39162,0.19785 -0.63215,-0.005 -0.6081,-0.002 -1.19173,-0.14796 -0.57426,-0.14314 -0.78441,-0.17264 -0.9964,-0.13983 -0.29471,0.0456 -0.47674,0.20113 -0.59751,0.5105 -0.0256,0.0655 -0.0852,0.17324 -0.13252,0.23942 -0.0871,0.12186 -0.11375,0.18207 -0.0944,0.2134 0.0175,0.0284 0.12402,0.0198 0.3208,-0.0259 0.25315,-0.0588 0.45316,-0.0613 0.6103,-0.008 0.70016,0.23931 1.26847,0.63458 2.1307,1.48193 l 0.36827,0.36192 0.3219,-0.36313 c 0.86697,-0.978 1.39346,-1.37235 2.06033,-1.54319 0.15783,-0.0404 0.19414,-0.0444 0.29988,-0.0325 0.12924,0.0145 0.29375,0.0622 0.40094,0.11618 0.21459,0.1081 0.45875,0.34669 0.65244,0.63754 0.11669,0.17522 0.52937,0.95587 0.64945,1.22854 0.0277,0.0628 0.14771,0.33099 0.26673,0.59586 0.47329,1.05325 0.64136,1.49584 0.77492,2.04064 0.14855,0.60587 0.18149,1.254 0.0836,1.64451 -0.0938,0.37398 -0.14697,0.73011 -0.15964,1.06853 -0.0144,0.38555 0.0268,0.65108 0.1339,0.86288 0.0464,0.0917 0.16934,0.23038 0.24656,0.2781 0.07,0.0433 0.22523,0.0946 0.28987,0.0958 0.0469,8.8e-4 0.0471,5.3e-4 0.0364,-0.0767 z m 2.72747,-15.53141 c -1.47982,-2.83343 -7.69939,-14.77835 -7.69637,-14.78116 0.002,-0.002 0.66782,-0.006 1.47895,-0.01 l 1.47478,-0.006 3.91678,7.51614 c 2.15422,4.13388 3.91484,7.51783 3.91249,7.51991 -0.002,0.002 -0.66641,0.009 -1.47569,0.0157 l -1.4714,0.0119 z m 9.59415,0.16135 c -0.015,-0.0292 -1.77868,-3.40928 -3.91934,-7.51134 -2.14067,-4.10206 -3.88743,-7.46298 -3.8817,-7.46872 0.006,-0.006 0.6701,-0.0124 1.47635,-0.0148 l 1.46592,-0.004 3.89363,7.47306 c 2.14149,4.11018 3.90568,7.49693 3.92042,7.52611 l 0.0268,0.0531 h -1.47742 -1.47742 z m -5.12167,-20.68173 c -0.006,-0.74866 -0.0146,-2.82311 -0.0195,-4.60989 -0.005,-1.99048 -0.0153,-3.31508 -0.0254,-3.4201 -0.15606,-1.62222 -1.75152,-3.58007 -4.75922,-5.84022 -0.31831,-0.2392 -1.14093,-0.82626 -1.50418,-1.07345 -0.17047,-0.11601 -0.26408,-0.18975 -0.26442,-0.20831 -5.3e-4,-0.0275 3.37024,-22.55132 3.38838,-22.6416 0.008,-0.0401 0.0208,-0.0466 0.15059,-0.0767 0.97695,-0.22652 2.0986,-0.20914 2.98233,0.0462 0.923,0.2667 1.64587,0.77558 2.13012,1.49955 0.11553,0.17272 0.28372,0.4904 0.36467,0.68877 l 0.0566,0.13876 0.007,18.40855 0.007,18.40855 -0.47434,0.0101 c -0.2609,0.006 -0.82404,0.0148 -1.25142,0.0205 l -0.77705,0.0104 z m 0.82283,-23.68574 c 0.0279,-6.03823 0.0482,-11.03024 0.0452,-11.09335 -0.005,-0.10363 -0.0129,-0.12653 -0.0816,-0.23671 -0.12961,-0.20785 -0.38432,-0.4295 -0.64196,-0.55863 -0.12821,-0.0643 -0.38315,-0.15529 -0.5604,-0.2001 -0.30667,-0.0775 -0.76344,-0.1208 -0.97605,-0.0925 -0.14825,0.0198 -0.22224,0.0554 -0.29211,0.14065 l -0.0559,0.0682 -1.37223,9.55731 c -0.75472,5.25653 -1.37022,9.57152 -1.36777,9.58888 0.003,0.0196 0.051,0.0595 0.1269,0.10501 1.51233,0.90731 2.72098,1.81135 3.62578,2.71201 0.6567,0.65367 1.09335,1.2207 1.39707,1.81421 l 0.0951,0.18576 0.004,-0.50608 c 0.002,-0.27834 0.0265,-5.44645 0.0544,-11.48469 z m 14.17108,-18.70063 c -0.20725,-0.0582 -0.39062,-0.19404 -0.51339,-0.38026 -0.1104,-0.16746 -0.13395,-0.2343 -0.27437,-0.77856 -0.0718,-0.27834 -0.22241,-0.84033 -0.33466,-1.24887 -0.47524,-1.7297 -0.5853,-2.14736 -0.72285,-2.74295 -0.26984,-1.16844 -0.39704,-1.98936 -0.47807,-3.0851 -0.0286,-0.38663 -0.0287,-2.23056 -1.6e-4,-2.71813 0.0603,-1.03 0.0892,-1.38053 0.29,-3.52359 0.17016,-1.81592 0.19564,-2.20059 0.18025,-2.72075 -0.0455,-1.53785 -0.32616,-2.98994 -0.93546,-4.84038 -0.31179,-0.94692 -0.4321,-1.20852 -0.82959,-1.80392 -0.30078,-0.45053 -0.59173,-0.79507 -1.05473,-1.249 -0.46588,-0.45675 -0.87876,-0.78779 -1.4671,-1.17628 -1.70595,-1.12648 -3.8227,-1.81484 -6.21985,-2.02266 -1.10234,-0.0956 -2.48443,-0.0801 -4.36696,0.0488 -0.56772,0.0389 -1.10474,0.0817 -2.66098,0.21213 -1.95369,0.16377 -2.63216,0.21179 -3.84456,0.27211 -0.55871,0.0278 -2.55243,0.0281 -3.02014,5.1e-4 -0.57459,-0.0339 -0.76526,-0.0523 -0.96622,-0.0933 -1.04832,-0.21356 -1.98315,-0.98868 -2.55966,-2.12235 -0.28636,-0.56312 -0.37217,-0.91329 -0.35404,-1.44477 0.0159,-0.46552 0.0995,-0.83038 0.3706,-1.61618 0.43615,-1.26445 0.49778,-1.51879 0.48657,-2.00811 -0.005,-0.21591 -0.009,-0.24747 -0.0399,-0.28839 -0.0903,-0.1209 -0.33802,-0.16937 -0.70635,-0.13824 -0.36494,0.0309 -0.66803,0.0837 -1.42239,0.24806 -0.20922,0.0456 -0.268,0.0517 -0.50607,0.0531 -0.31844,0.002 -0.47352,-0.0232 -0.79363,-0.1277 -0.73788,-0.2409 -1.68348,-0.89862 -2.0665,-1.43739 -0.3382,-0.47572 -0.4306,-0.90577 -0.2666,-1.24078 0.10635,-0.21725 0.22918,-0.32293 0.62418,-0.53703 0.84095,-0.45583 1.83375,-0.75836 2.78677,-0.84918 0.35164,-0.0335 0.53478,-0.0315 0.72918,0.008 0.35201,0.0717 0.56443,0.17474 1.21948,0.5914 0.55838,0.35517 0.72666,0.43204 1.33414,0.60943 1.3532,0.39516 2.04143,0.95686 2.18877,1.7864 0.0356,0.20031 0.0479,0.65387 0.0243,0.89788 -0.0574,0.59471 -0.19458,1.10736 -0.56792,2.12226 -0.34372,0.9344 -0.47904,1.35044 -0.44589,1.37093 0.0102,0.006 0.16023,0.0237 0.33346,0.0388 1.77097,0.15368 3.59844,0.15846 7.0216,0.0184 0.33222,-0.0136 1.04113,-0.0427 1.57537,-0.0647 2.3794,-0.0979 3.32291,-0.12231 4.74243,-0.12248 1.35859,-1.7e-4 2.12047,0.0222 3.09361,0.0907 1.65948,0.11686 3.07202,0.35378 4.269,0.71601 2.42738,0.73458 4.25755,2.17218 5.47784,4.30285 0.17313,0.30231 0.47271,0.91363 0.6098,1.24441 0.4845,1.16898 0.81288,2.46734 0.99621,3.9388 0.18005,1.44526 0.21352,2.94959 0.10733,4.82406 -0.0828,1.4615 -0.13697,1.95643 -0.4163,3.80375 -0.27539,1.82121 -0.35046,2.42442 -0.40735,3.27317 -0.0728,1.0856 -0.0388,2.13295 0.1144,3.52622 0.0351,0.31926 0.12189,1.01302 0.23586,1.88555 0.21876,1.67472 0.31589,2.66253 0.33707,3.42826 0.008,0.27151 0.004,0.35777 -0.0169,0.4571 -0.0557,0.26102 -0.20138,0.4617 -0.40996,0.56478 -0.1018,0.0503 -0.13944,0.0599 -0.25562,0.0654 -0.0902,0.004 -0.16596,-0.002 -0.22419,-0.0183 z m -0.63836,-13.14959 c 0.37804,-2.47575 0.50966,-3.50346 0.59479,-4.64448 0.0859,-1.15192 0.086,-2.25063 0,-3.18339 -0.20264,-2.20008 -0.90371,-4.12586 -2.1506,-5.9075 -0.10766,-0.15384 -0.24395,-0.34215 -0.30287,-0.41847 -1.10386,-1.42994 -2.44801,-2.30611 -4.33091,-2.82307 -1.74045,-0.47784 -4.03475,-0.65903 -7.6772,-0.60632 -1.3192,0.0191 -1.58974,0.0254 -4.23792,0.0993 -4.34218,0.12114 -7.4896,0.1778 -8.08908,0.14562 -0.50495,-0.0271 -0.77829,-0.0869 -1.06113,-0.2321 -0.1838,-0.0944 -0.37372,-0.28417 -0.45275,-0.45249 -0.11216,-0.23887 -0.15086,-0.49838 -0.13871,-0.93032 0.0165,-0.58695 0.1075,-0.93879 0.54264,-2.09798 0.34227,-0.91179 0.45695,-1.28414 0.47515,-1.54272 0.0308,-0.43794 -0.23231,-0.77237 -0.79364,-1.00868 -0.17362,-0.0731 -0.34324,-0.12868 -0.72657,-0.23811 -0.42481,-0.12127 -0.60783,-0.20751 -1.2386,-0.58369 -0.66362,-0.39576 -0.97069,-0.52926 -1.21006,-0.52609 -0.35038,0.005 -1.07603,0.13984 -1.43661,0.26763 -0.44264,0.15689 -0.65082,0.35028 -0.59605,0.5537 0.0351,0.13017 0.22413,0.31718 0.48055,0.47529 0.42103,0.25961 0.87103,0.33235 1.66102,0.26848 0.16457,-0.0133 0.44614,-0.0353 0.62572,-0.0488 0.17957,-0.0135 0.48397,-0.0394 0.67644,-0.0574 0.57025,-0.0535 1.00288,-0.0394 1.2744,0.0416 0.15748,0.0469 0.33884,0.15241 0.44939,0.26134 0.29744,0.29307 0.42112,0.95065 0.30379,1.61514 -0.0607,0.34377 -0.15289,0.6486 -0.39001,1.28968 -0.42045,1.13669 -0.53098,1.62683 -0.4786,2.12226 0.10332,0.97731 0.72786,1.85859 1.50427,2.12267 0.1271,0.0432 0.42081,0.0953 0.69261,0.1228 0.27924,0.0282 1.54119,0.0383 2.11802,0.0169 0.92381,-0.0343 1.53076,-0.0696 3.95491,-0.22964 3.33734,-0.22038 4.6251,-0.27747 6.26067,-0.27758 1.86608,-1.6e-4 3.12121,0.10076 4.17259,0.33538 0.54575,0.12179 1.53642,0.40263 2.21051,0.62664 1.92222,0.6388 3.27727,1.42849 4.28224,2.49557 0.60408,0.64142 1.33628,1.76549 1.80159,2.76581 0.96214,2.0684 1.36933,4.27146 1.31034,7.08952 -0.0205,0.97829 -0.0679,1.69464 -0.21143,3.19155 -0.0992,1.03501 -0.14666,1.56955 -0.1449,1.63251 0.002,0.0658 -0.002,0.0924 0.27593,-1.73046 z m -30.98514,-24.03081 c -0.0763,-0.008 -0.26732,-0.0215 -0.42444,-0.031 -0.29758,-0.0181 -0.38991,-0.0344 -0.43207,-0.0766 -0.0391,-0.0391 -0.0301,-0.0719 0.037,-0.1358 0.12954,-0.12321 0.5051,-0.27677 0.76778,-0.31392 0.17785,-0.0252 0.22592,-0.007 0.47421,0.18236 0.28544,0.21731 0.32997,0.29532 0.20449,0.35825 -0.0566,0.0284 -0.41244,0.0378 -0.62701,0.0167 z"
       id="path1004" />
  </g>
</svg>
