<?xml version="1.0" encoding="UTF-8" standalone="no"?>
<!-- Created with Inkscape (http://www.inkscape.org/) -->

<svg
   width="1080"
   height="1920"
   viewBox="0 0 285.75001 508"
   version="1.1"
   id="svg5"
   inkscape:export-filename="/Users/albertotomasoni/ALBERTO.png"
   inkscape:export-xdpi="96"
   inkscape:export-ydpi="96"
   inkscape:version="1.1.1 (c3084ef, 2021-09-22)"
   sodipodi:docname="manuele.svg"
   xmlns:inkscape="http://www.inkscape.org/namespaces/inkscape"
   xmlns:sodipodi="http://sodipodi.sourceforge.net/DTD/sodipodi-0.dtd"
   xmlns="http://www.w3.org/2000/svg"
   xmlns:svg="http://www.w3.org/2000/svg">
  <sodipodi:namedview
     id="namedview7"
     pagecolor="#ffffff"
     bordercolor="#666666"
     borderopacity="1.0"
     inkscape:pageshadow="2"
     inkscape:pageopacity="0.0"
     inkscape:pagecheckerboard="0"
     inkscape:document-units="px"
     showgrid="false"
     units="px"
     inkscape:zoom="0.22603845"
     inkscape:cx="298.62176"
     inkscape:cy="1313.9357"
     inkscape:window-width="1440"
     inkscape:window-height="900"
     inkscape:window-x="0"
     inkscape:window-y="0"
     inkscape:window-maximized="0"
     inkscape:current-layer="g2878" />
  <defs
     id="defs2" />
  <g
     inkscape:label="ALBERTO"
     inkscape:groupmode="layer"
     id="g2878">
    <text
       xml:space="preserve"
       style="font-weight:500;font-size:19.0077px;line-height:1.25;font-family:'Helvetica Neue';-inkscape-font-specification:'Helvetica Neue Medium';text-align:center;text-decoration-color:#000000;text-anchor:middle;white-space:pre;inline-size:858.441;fill=currentColor;stroke-width:1.51181;stroke-linecap:round;paint-order:markers fill stroke;stop-color:#000000"
       x="413.24438"
       y="323.54794"
       id="text2874"
       transform="matrix(2.7839642,0,0,2.7839642,-1007.9147,-810.36416)"><tspan
         x="413.24438"
         y="323.54794"
         id="tspan2110"><tspan
           style="font-weight:normal;font-family:Bison;-inkscape-font-specification:Bison"
           id="tspan2108">manuele</tspan></tspan></text>
    <path
       style="fill=currentColor;stroke-width:0.0163251"
       d="m 112.57565,369.28497 v -1.08562 l 11.65202,-0.002 c 11.52481,-0.002 11.65006,-0.002 11.47245,-0.033 -1.03135,-0.17913 -1.46367,-0.26231 -2.16307,-0.41612 -7.3812,-1.62343 -13.31566,-5.01193 -16.92277,-9.6627 -0.58953,-0.76011 -1.15706,-1.61762 -1.63138,-2.46496 -0.17999,-0.32153 -0.53255,-1.02337 -0.68887,-1.3713 -0.96808,-2.1548 -1.51184,-4.38173 -1.6702,-6.84021 -0.0104,-0.16162 -0.0255,-0.2963 -0.0335,-0.29928 -0.0195,-0.007 -0.0195,-209.29016 -4e-5,-209.29016 0.008,0 0.0194,-0.068 0.0253,-0.15101 0.0953,-1.34139 0.25224,-2.36665 0.53277,-3.48132 0.94755,-3.76505 3.04602,-7.04208 6.25242,-9.76392 4.4323,-3.76249 10.87447,-6.28349 18.22572,-7.13222 0.32017,-0.037 10.17684,-0.037 10.49702,0 5.49808,0.63478 10.54357,2.21735 14.58645,4.5752 2.81155,1.63973 5.10287,3.62437 6.81768,5.90518 1.59143,2.11672 2.67364,4.48371 3.2207,7.04427 0.19381,0.90714 0.30749,1.74717 0.38608,2.85281 0.006,0.0831 0.0173,0.15101 0.0253,0.15101 0.0195,0 0.0195,209.28289 0,209.29016 -0.008,0.003 -0.0232,0.13766 -0.0336,0.29928 -0.17664,2.74237 -0.84056,5.23077 -2.01667,7.55851 -1.29492,2.56291 -3.16736,4.82497 -5.61609,6.78475 -3.45195,2.76268 -7.99905,4.82481 -13.16618,5.97094 -0.7619,0.169 -1.32362,0.27732 -2.36713,0.45649 -0.0568,0.01 4.19319,0.0161 11.56223,0.0174 l 11.65202,0.002 v 1.08562 1.08562 h -30.29934 -30.29933 v -1.08562 z m 32.01347,-2.7337 c 1.24172,-0.0564 2.21654,-0.13236 3.26502,-0.25431 6.672,-0.77598 12.49854,-3.06085 16.61449,-6.51537 3.09599,-2.59846 5.1445,-5.80235 6.02707,-9.42641 0.24596,-1.00998 0.38062,-1.88156 0.47027,-3.04376 0.0277,-0.35899 0.029,-4.95916 0.029,-104.80696 0,-84.25219 -0.004,-104.4867 -0.0207,-104.71718 -0.10152,-1.39909 -0.31601,-2.57779 -0.69184,-3.8019 -0.61505,-2.00329 -1.66091,-3.91554 -3.05904,-5.59318 -0.68243,-0.81886 -1.59664,-1.73376 -2.43192,-2.43375 -1.65022,-1.38294 -3.61809,-2.6012 -5.78201,-3.57951 -3.34341,-1.51155 -7.17198,-2.51653 -11.29402,-2.96462 -2.50209,-0.272 -5.20561,-0.32867 -7.77889,-0.16306 -7.38749,0.47543 -14.01571,2.74468 -18.53387,6.34528 -1.06017,0.84487 -2.06087,1.81763 -2.87595,2.79566 -1.39813,1.67764 -2.444,3.58989 -3.05905,5.59318 -0.37583,1.22411 -0.59032,2.40281 -0.69183,3.8019 -0.0167,0.23048 -0.0207,20.46499 -0.0207,104.71718 0,99.8478 0.001,104.44797 0.029,104.80696 0.0897,1.1622 0.22431,2.03378 0.47027,3.04376 1.02579,4.21218 3.6229,7.84582 7.60044,10.63378 4.20362,2.94645 9.81796,4.83988 16.05328,5.41395 0.88937,0.0819 1.81342,0.1352 2.95483,0.17048 0.34241,0.0106 2.3684,-0.006 2.72629,-0.0221 z m 0.31988,-20.99678 c -0.006,-0.85639 -0.017,-2.98591 -0.0247,-4.73228 -0.0139,-3.13292 -0.0146,-3.17755 -0.0485,-3.3497 -0.19798,-1.00484 -0.8632,-2.07622 -2.03424,-3.27632 -1.02122,-1.04656 -2.27609,-2.06487 -4.08828,-3.31763 -0.23538,-0.16272 -0.37002,-0.26591 -0.37276,-0.28569 -0.005,-0.0365 3.38442,-22.66381 3.39681,-22.67618 0.0149,-0.0149 0.24226,-0.0686 0.43571,-0.10292 0.95581,-0.16963 1.99662,-0.11465 2.82145,0.14905 0.88397,0.28261 1.55392,0.78282 2.03322,1.51814 0.11211,0.172 0.24535,0.42979 0.32333,0.62562 l 0.0585,0.14693 0.007,18.40848 0.007,18.40847 -0.84167,0.0104 c -0.46292,0.006 -1.02626,0.015 -1.25188,0.0205 l -0.4102,0.0101 z m 0.82384,-23.5428 0.0509,-11.12957 -0.0594,-0.10619 c -0.26952,-0.48195 -0.91349,-0.81041 -1.7474,-0.89127 -0.24339,-0.0236 -0.51515,-0.0124 -0.60403,0.0248 -0.0657,0.0275 -0.16112,0.108 -0.18924,0.15962 -0.0137,0.0252 -2.75743,19.09107 -2.75743,19.16131 0,0.0199 0.0399,0.0535 0.11835,0.0999 0.69444,0.41064 1.51806,0.96305 2.16928,1.45495 1.39904,1.05681 2.45674,2.20603 2.90904,3.16077 l 0.0518,0.10942 0.004,-0.4571 c 0.002,-0.2514 0.0265,-5.4654 0.0545,-11.58667 z m -16.04039,-18.63902 c -1.42828,-0.0205 -3.29238,-0.0676 -4.86473,-0.12298 -0.37706,-0.0133 -1.08719,-0.0241 -1.57807,-0.0241 h -0.89251 l -0.069,-0.0775 c -0.34569,-0.38829 -0.42597,-0.84744 -0.23329,-1.3341 0.21099,-0.53292 0.46388,-0.7465 1.01785,-0.85966 0.20889,-0.0427 0.70176,-0.0581 1.01416,-0.0317 0.56438,0.0476 1.0787,0.14227 1.87538,0.34501 0.42285,0.10762 0.59361,0.13023 1.22269,0.16182 1.23761,0.0622 2.28166,-0.0655 3.15243,-0.38567 0.71561,-0.26306 1.59825,-0.90698 1.94175,-1.41657 0.15846,-0.2351 0.21661,-0.40111 0.21769,-0.62163 6.3e-4,-0.13055 -0.007,-0.16877 -0.0665,-0.34282 -0.037,-0.10775 -0.0782,-0.23998 -0.0917,-0.29386 -0.10553,-0.42148 -0.0994,-1.13673 0.0163,-1.88554 0.0757,-0.49041 0.41937,-2.15597 0.5641,-2.73409 0.0442,-0.17654 0.062,-0.27818 0.0552,-0.31449 -0.006,-0.0295 -0.0507,-0.13484 -0.10039,-0.2341 -0.15931,-0.31824 -0.35107,-0.4794 -0.62239,-0.52312 -0.24426,-0.0393 -0.47726,0.0415 -0.64681,0.22439 -0.28542,0.30786 -0.30631,0.32539 -0.50152,0.42043 -0.19711,0.096 -0.4259,0.16716 -0.68857,0.2142 l -0.15957,0.0286 -0.13185,-0.0795 c -0.33904,-0.20454 -0.5541,-0.46778 -0.67848,-0.83049 -0.0215,-0.0629 -0.0612,-0.24651 -0.0881,-0.40813 -0.088,-0.52893 -0.12529,-0.64874 -0.22222,-0.71331 -0.2428,-0.16171 -0.41752,-0.44838 -0.44083,-0.72329 l -0.01,-0.11428 -0.12468,-0.1306 c -0.14706,-0.15406 -0.21053,-0.24288 -0.28588,-0.4001 -0.0738,-0.15399 -0.0991,-0.30496 -0.0742,-0.44257 0.0604,-0.33298 0.29508,-0.55592 1.07742,-1.02332 0.49383,-0.29504 0.87124,-0.56658 1.29599,-0.93241 0.21885,-0.1885 0.43229,-0.34997 0.60527,-0.45791 0.19097,-0.11916 0.52571,-0.27343 0.74206,-0.342 0.1128,-0.0358 0.33733,-0.10652 0.49895,-0.15727 0.28851,-0.0906 0.96976,-0.33176 1.12235,-0.39732 0.0531,-0.0228 0.0775,-0.043 0.0775,-0.064 0,-0.0724 0.10169,-0.23214 0.21407,-0.33618 0.30735,-0.28456 0.90757,-0.44347 1.89187,-0.50089 1.47097,-0.0858 2.83216,0.28685 4.07164,1.11468 0.38832,0.25934 0.66653,0.49135 1.0065,0.83935 0.84223,0.86215 1.57942,2.06749 2.24202,3.66585 l 0.13759,0.33192 0.19284,0.17693 c 1.37138,1.25825 3.00521,1.95638 5.01765,2.14397 0.42687,0.0398 1.43086,0.0398 1.89371,0 0.82054,-0.0706 1.61512,-0.19938 2.44876,-0.39701 l 0.25304,-0.06 0.17142,-0.20225 c 0.22997,-0.27134 0.7113,-0.74301 0.96661,-0.9472 0.61263,-0.48995 1.24156,-0.81105 1.90661,-0.97343 0.89026,-0.21735 1.51792,-0.12084 2.2251,0.34215 0.68771,0.45025 1.36078,1.23909 2.01693,2.36388 l 0.13232,0.22682 -0.0445,0.0808 c -0.0636,0.11551 -0.23111,0.29156 -0.32714,0.34384 -0.0452,0.0246 -0.12239,0.0521 -0.17163,0.0612 -0.19781,0.0366 -0.46243,-0.0693 -0.73174,-0.29266 -0.19295,-0.16004 -0.32171,-0.29885 -0.60002,-0.64689 -0.37207,-0.46526 -0.62007,-0.68762 -0.94026,-0.84307 -0.22621,-0.10982 -0.3791,-0.14686 -0.61219,-0.14835 -0.41267,-0.003 -0.81944,0.17192 -1.25568,0.53873 l -0.0558,0.0469 0.23537,0.12827 c 1.61106,0.87794 3.21676,1.93519 4.5406,2.98969 1.3924,1.10913 2.37225,2.25031 2.9762,3.46627 0.18475,0.37198 0.28449,0.65883 0.34361,0.98827 0.0399,0.22268 0.0403,0.63118 7.6e-4,0.83199 -0.10318,0.52363 -0.36244,0.98868 -0.79892,1.43312 l -0.15633,0.15916 h -7.78458 -7.78458 l -0.058,-0.0775 c -0.14204,-0.18997 -0.20892,-0.30771 -0.26137,-0.46019 -0.12142,-0.35286 -0.0424,-0.65791 0.24495,-0.94615 0.21956,-0.22019 0.41857,-0.33259 0.72179,-0.40764 0.26126,-0.0647 0.37189,-0.0753 0.7825,-0.075 0.66322,3.3e-4 1.30314,0.0994 2.33279,0.36098 0.77731,0.19747 1.09633,0.24935 1.60972,0.26176 0.27743,0.007 0.40445,0.003 0.55824,-0.0176 0.39684,-0.0524 0.72884,-0.16353 1.01247,-0.33882 0.20085,-0.12411 0.47561,-0.39764 0.61605,-0.61328 l 0.10863,-0.16678 -0.0467,-0.11106 c -0.21024,-0.50038 -0.76566,-0.86976 -1.62568,-1.08116 -0.73738,-0.18125 -1.44129,-0.16761 -2.06269,0.04 -0.0971,0.0324 -0.31978,0.12765 -0.49487,0.21158 -0.82839,0.3971 -1.95325,0.7165 -3.93434,1.11717 -2.37794,0.48092 -4.06094,0.6773 -5.56685,0.64954 -0.5828,-0.0107 -0.79184,-0.0246 -1.28432,-0.0852 -0.46664,-0.0574 -0.7824,-0.0749 -1.02155,-0.0565 -0.3228,0.0249 -0.51631,0.0863 -0.64875,0.20598 -0.17762,0.16047 -0.17775,0.40388 -4e-4,0.79993 0.0496,0.11084 0.0367,0.1821 -0.0485,0.26734 -0.28773,0.28774 -1.44581,0.4793 -3.45302,0.57119 -1.12119,0.0513 -3.3664,0.0735 -5.02817,0.0496 z m 6.08113,-1.82547 c 1e-5,-0.11135 0.0575,-0.44626 0.10451,-0.60826 0.14072,-0.48541 0.378,-0.82925 0.73813,-1.06963 0.34951,-0.2333 0.75015,-0.34355 1.31227,-0.36111 0.35198,-0.011 0.57961,0.007 1.24071,0.10054 1.16167,0.16358 2.03762,0.23815 3.19582,0.27208 0.90247,0.0264 1.93799,-0.007 2.64039,-0.0851 1.61944,-0.18015 3.75951,-0.83581 6.35045,-1.94559 0.31426,-0.1346 0.60735,-0.26029 0.65132,-0.27931 l 0.0799,-0.0346 -0.011,-0.357 c -0.0367,-1.19137 -0.22395,-1.83151 -0.56948,-1.94628 -0.082,-0.0272 -0.10409,-0.0267 -0.34734,0.008 -0.53074,0.0754 -1.92485,0.0996 -2.60318,0.045 -1.58594,-0.12753 -2.9148,-0.48283 -4.16204,-1.11282 -0.81493,-0.4116 -1.55288,-0.92209 -2.22922,-1.54206 l -0.17958,-0.16463 -0.0435,0.0536 c -0.0239,0.0294 -0.13127,0.16374 -0.23852,0.29842 -1.53065,1.92203 -3.51503,3.56427 -5.80836,4.80688 -0.35288,0.1912 -0.96772,0.49833 -1.30951,0.65413 l -0.26584,0.12118 -0.0398,0.0821 c -0.0614,0.12647 -0.0785,0.2384 -0.0689,0.44883 0.019,0.41351 0.23688,0.91288 0.69992,1.60402 0.24449,0.36493 0.82371,1.11082 0.8506,1.09534 0.007,-0.004 0.0122,-0.0415 0.0122,-0.0836 z m 24.97446,-0.67263 c 0.38598,-0.0235 0.59313,-0.0739 0.62182,-0.15149 0.008,-0.0213 -0.014,-0.10507 -0.0645,-0.2464 -0.365,-1.02177 -0.85753,-1.89552 -1.5257,-2.70663 -0.2273,-0.27593 -0.79877,-0.85041 -1.08563,-1.09135 -1.10753,-0.93025 -2.30119,-1.52091 -3.61417,-1.78836 -0.20609,-0.042 -0.38599,-0.0494 -0.56556,-0.0235 -0.70136,0.10149 -0.90218,0.62955 -0.61372,1.61382 0.12248,0.41793 0.88853,1.24637 1.74882,1.89126 1.0568,0.7922 2.51646,1.59197 4.33432,2.37485 0.37657,0.16218 0.32911,0.15424 0.76436,0.12776 z m -26.1984,-4.16294 c 1.69973,-0.85042 3.20284,-1.86502 4.44814,-3.00249 0.47569,-0.43449 1.1434,-1.1336 1.55817,-1.63143 0.36309,-0.43581 0.89876,-1.15856 0.89876,-1.21264 0,-0.0159 -0.0251,-0.12649 -0.0557,-0.24584 -0.20518,-0.79965 -0.65671,-1.52716 -1.42144,-2.2903 -0.79563,-0.79395 -1.57455,-1.29435 -2.30004,-1.47756 -0.18691,-0.0472 -0.44801,-0.0899 -0.46229,-0.0756 -0.004,0.004 0.0293,0.0629 0.0748,0.13027 0.13544,0.20072 0.30485,0.50725 0.3832,0.69338 0.0968,0.23003 0.14105,0.40156 0.15227,0.5908 0.0286,0.4822 -0.25429,0.78728 -0.87056,0.93884 -0.31349,0.0771 -0.55226,0.25031 -0.67989,0.49318 -0.11623,0.22119 -0.13988,0.45857 -0.0846,0.84917 0.0268,0.18907 0.0281,0.23576 0.0106,0.37389 -0.0474,0.37546 -0.24641,0.77472 -0.61723,1.23845 -0.079,0.0988 -0.28715,0.32449 -0.46261,0.50162 -0.3563,0.35971 -0.32905,0.31748 -0.49865,0.77252 -0.25533,0.68505 -0.42318,1.41965 -0.49033,2.14596 -0.022,0.2376 -0.0264,0.41533 -0.0207,0.83335 0.006,0.47467 0.0129,0.57061 0.0388,0.57061 0.004,0 0.18372,-0.0883 0.39931,-0.19613 z m -3.41864,-4.14298 c 0.0998,-0.0512 0.16201,-0.10918 0.24624,-0.22972 0.20209,-0.2892 0.39374,-0.40446 0.73952,-0.44476 0.17528,-0.0204 0.42922,0.005 0.60326,0.0597 0.11941,0.0377 0.26783,0.12211 0.36215,0.2059 0.0649,0.0576 0.1653,0.1937 0.20024,0.27129 0.0171,0.0379 0.0383,0.069 0.0472,0.069 0.0261,0 0.27402,-0.17003 0.42181,-0.28925 0.48542,-0.39157 0.81619,-0.88859 0.96074,-1.44357 0.0672,-0.25807 0.0944,-0.51189 0.10468,-0.97714 0.01,-0.44538 -0.006,-0.59319 -0.0782,-0.74047 -0.0744,-0.15135 -0.12541,-0.19672 -0.34083,-0.30331 -0.30719,-0.15198 -0.4561,-0.28931 -0.50314,-0.46404 -0.0244,-0.0905 -0.0238,-0.32844 0.001,-0.43537 0.0468,-0.20158 0.17714,-0.40122 0.36315,-0.5562 0.0909,-0.0757 0.0971,-0.0844 0.0537,-0.0752 -0.0269,0.006 -0.20324,0.0468 -0.3918,0.0915 -0.42863,0.10148 -0.91259,0.19804 -1.27335,0.25409 -0.61077,0.0949 -0.85432,0.16194 -1.17695,0.32408 -0.24862,0.12496 -0.43039,0.24893 -0.73309,0.50002 -0.43503,0.36084 -0.93414,0.72644 -1.45483,1.06566 -0.11777,0.0767 -0.21983,0.14872 -0.22681,0.16001 -0.007,0.0113 -0.0162,0.0702 -0.0206,0.13096 -0.0139,0.19396 0.0719,0.40041 0.26936,0.64819 0.0848,0.10647 0.0867,0.11098 0.0743,0.1832 -0.0393,0.22868 0.007,0.40295 0.14015,0.52748 0.12856,0.12025 0.39438,0.22083 0.53362,0.20189 0.0979,-0.0133 0.38778,-0.11163 0.61526,-0.20871 0.17714,-0.0756 0.21331,-0.0855 0.31444,-0.0857 0.0929,-1.6e-4 0.13102,0.008 0.2037,0.0451 0.0877,0.0444 0.26156,0.18047 0.26156,0.20463 0,0.007 -0.0643,0.0366 -0.14284,0.0663 -0.21819,0.0826 -0.39374,0.16714 -0.53608,0.25831 -0.15377,0.0985 -0.31794,0.15659 -0.52913,0.18722 l -0.15509,0.0225 0.002,0.12134 c 0.003,0.21275 0.0827,0.44674 0.18684,0.55105 0.0915,0.0917 0.13778,0.10822 0.30916,0.11051 0.0853,0.001 0.17713,0.0103 0.20407,0.0203 0.0761,0.0283 0.26633,0.0137 0.34473,-0.0265 z m 2.29993,-1.55615 c -0.80662,-0.0862 -1.31127,-0.17899 -1.68339,-0.30956 -0.46316,-0.16251 -0.60212,-0.34305 -0.60212,-0.78231 0,-0.19169 0.0186,-0.2645 0.099,-0.38744 l 0.0238,-0.0365 0.0864,0.0424 0.0864,0.0424 -9.3e-4,0.18179 c -8.4e-4,0.16339 0.003,0.19091 0.0418,0.2716 0.21929,0.46109 0.92599,0.71633 2.33103,0.84192 l 0.12087,0.0108 -0.1673,0.0716 c -0.092,0.0394 -0.17579,0.0706 -0.18617,0.0694 -0.0104,-10e-4 -0.0777,-0.008 -0.14948,-0.0161 z m -1.86774,-1.66199 c -0.019,-0.012 -0.0211,-0.0589 -0.0121,-0.26697 0.02,-0.46386 0.11345,-0.68246 0.33568,-0.78525 0.1098,-0.0508 0.47179,-0.0487 0.66935,0.004 0.15622,0.0416 0.34593,0.12912 0.42762,0.19736 l 0.0554,0.0463 -0.12244,0.12023 c -0.21255,0.20872 -0.45489,0.34748 -0.81222,0.46507 -0.11904,0.0392 -0.22606,0.0712 -0.23781,0.0712 -0.0118,0 -0.0338,0.0261 -0.049,0.058 -0.04,0.084 -0.18375,0.1349 -0.25442,0.0901 z m -0.49738,-0.22573 c -0.044,-0.15052 -0.0562,-0.44582 -0.0245,-0.59506 0.0438,-0.20638 0.1765,-0.37907 0.38208,-0.4973 0.34106,-0.19616 0.57348,-0.22985 1.10962,-0.16085 0.18856,0.0243 0.34624,0.0475 0.35041,0.0515 0.0207,0.0202 -0.0361,0.0662 -0.11449,0.0926 -0.0623,0.021 -0.17339,0.0338 -0.38225,0.0441 -0.3183,0.0157 -0.43294,0.0379 -0.59068,0.11466 -0.24438,0.11887 -0.45108,0.46257 -0.51267,0.85244 l -0.02,0.12652 h -0.0946 c -0.076,0 -0.0962,-0.006 -0.10296,-0.0286 z m 5.04439,-0.68025 c 0.22677,-0.10355 0.3755,-0.34281 0.43882,-0.70589 0.0418,-0.23982 0.0311,-0.34324 -0.0429,-0.41213 -0.0502,-0.0468 -0.25596,-0.0492 -0.341,-0.004 -0.12695,0.0675 -0.20741,0.23699 -0.24694,0.52024 -0.0158,0.11328 -0.0399,0.18748 -0.11495,0.35392 -0.0911,0.20197 -0.10934,0.26699 -0.0827,0.29458 0.007,0.007 0.0756,0.009 0.15297,0.005 0.10614,-0.006 0.1643,-0.0186 0.23671,-0.0516 z m -0.96068,-0.0188 c 0.0932,-0.0465 0.17598,-0.14513 0.23294,-0.27774 0.0464,-0.10816 0.10863,-0.37398 0.12952,-0.55363 0.0323,-0.27764 0.0747,-0.40462 0.17081,-0.51098 0.14739,-0.16315 0.40517,-0.18942 0.75102,-0.0765 0.0703,0.0229 0.13058,0.0388 0.13407,0.0353 0.003,-0.003 -0.0214,-0.0606 -0.0552,-0.12688 -0.0739,-0.14469 -0.23749,-0.31853 -0.35612,-0.37846 -0.20172,-0.10189 -0.45628,-0.1293 -0.59994,-0.0646 -0.13674,0.0616 -0.30725,0.25707 -0.45187,0.51804 -0.0332,0.0599 -0.13139,0.17724 -0.25273,0.30201 -0.31849,0.32747 -0.4595,0.51499 -0.50663,0.67371 -0.0223,0.0751 -0.0217,0.0845 0.01,0.14632 0.13667,0.26788 0.55465,0.43277 0.7943,0.31336 z m 3.28554,-7.27346 c -0.0707,-0.0282 -0.14129,-0.0919 -0.19528,-0.176 -0.0653,-0.10174 -0.1516,-0.34177 -0.18777,-0.52222 -0.0562,-0.28043 -0.1612,-0.46924 -0.38258,-0.68813 -0.16926,-0.16735 -0.3813,-0.31211 -0.6465,-0.44135 l -0.19638,-0.0957 -0.0344,0.10147 c -0.0684,0.20197 -0.1827,0.39647 -0.37154,0.63204 -0.13814,0.17234 -0.50452,0.53364 -0.74134,0.73107 l -0.20039,0.16706 -6.45242,-0.004 -6.45243,-0.004 -0.11076,-0.0545 c -0.19119,-0.0941 -0.27691,-0.25812 -0.27858,-0.533 -0.001,-0.1953 0.0427,-0.28985 0.2039,-0.43908 0.45531,-0.42154 1.80064,-0.69683 3.76132,-0.76967 0.5405,-0.0201 1.48639,-0.0999 2.02899,-0.17134 0.61655,-0.0811 1.05864,-0.19603 1.14239,-0.29694 0.0342,-0.0412 0.61627,-1.70309 0.93936,-2.68195 0.72708,-2.20279 1.11863,-3.73739 1.18972,-4.66285 0.0171,-0.22332 0.0161,-0.27972 -0.008,-0.45297 -0.0707,-0.50375 -0.33403,-1.29354 -0.82257,-2.46717 -0.48209,-1.15812 -1.20033,-2.70907 -1.78041,-3.84456 -2.59339,-5.07652 -4.50656,-8.99578 -5.06432,-10.37458 -0.55496,-1.37189 -0.84067,-2.92323 -0.91403,-4.96306 l -0.0156,-0.43285 -0.20164,-0.33597 c -0.33393,-0.55641 -0.57355,-1.05774 -0.66818,-1.39799 l -0.0374,-0.13457 -0.0898,-0.0248 c -0.32796,-0.0904 -0.82521,-0.316 -1.21221,-0.54989 -0.42721,-0.25819 -0.94196,-0.64197 -1.37966,-1.0286 l -0.18392,-0.16246 0.0313,-0.0437 c 0.0591,-0.0825 0.36666,-0.41928 0.54745,-0.59942 0.31743,-0.31628 0.66656,-0.60064 0.96899,-0.78922 0.15304,-0.0954 0.47724,-0.26012 0.59954,-0.30454 0.0464,-0.0169 0.18733,-0.10862 0.3265,-0.21257 0.58557,-0.43739 1.14964,-0.76257 1.70597,-0.98346 0.84978,-0.33741 1.57412,-0.42609 2.81607,-0.34476 1.84773,0.12101 3.17675,0.69906 3.93807,1.71285 0.31946,0.4254 0.71108,1.2005 0.94855,1.87738 0.31399,0.895 0.48976,1.84438 0.54073,2.92057 0.009,0.19215 0.0185,0.35111 0.0209,0.35324 0.002,0.002 0.14025,0.0717 0.30635,0.15455 1.22394,0.61069 2.24557,1.2126 2.83173,1.66836 0.66007,0.51323 1.22265,1.22067 1.7122,2.15311 0.12051,0.22952 0.12819,0.2399 0.21076,0.2848 0.14555,0.0791 0.50487,0.32546 0.71656,0.49119 1.27201,0.99591 3.16688,3.0059 5.62313,5.96477 0.61284,0.73823 0.99062,1.20281 1.14169,1.40395 0.7654,1.01916 1.91471,2.42727 2.83094,3.46839 0.72844,0.82775 1.26914,1.41033 2.23054,2.4033 0.38109,0.3936 0.45494,0.48623 0.6686,0.83858 0.39673,0.65427 0.52807,1.23002 0.3813,1.67155 -0.15396,0.4632 -0.719,0.87536 -1.38569,1.01077 -0.44918,0.0912 -0.99448,0.0775 -1.63567,-0.041 l -0.19089,-0.0353 -0.25805,0.095 c -2.14968,0.79177 -4.5914,1.24458 -7.363,1.36546 l -0.46065,0.0201 -0.0505,0.21334 c -0.0278,0.11733 -0.37229,1.56872 -0.76558,3.22531 l -0.71508,3.01197 0.21408,0.20578 c 0.69447,0.66755 1.14944,1.34373 1.39387,2.07157 l 0.074,0.22039 -0.0187,0.13031 c -0.0103,0.0717 -0.0375,0.16862 -0.0604,0.21554 -0.0966,0.19743 -0.36027,0.34178 -0.51299,0.28082 z m -4.48989,-2.37277 c 0.36446,-0.0555 0.61862,-0.2055 0.79326,-0.46819 0.0972,-0.14623 0.15168,-0.28753 0.22566,-0.58546 0.0323,-0.13019 0.39894,-1.50341 0.81468,-3.05158 0.74164,-2.76176 0.75564,-2.81674 0.74236,-2.91391 -0.0677,-0.49521 -0.69588,-0.94194 -1.87398,-1.33274 -0.15713,-0.0521 -0.32426,-0.1059 -0.37139,-0.1195 l -0.0857,-0.0247 v 0.47534 0.47535 l -1.22438,3.74524 c -0.67341,2.05988 -1.22438,3.76296 -1.22438,3.78462 v 0.0394 l 1.0244,-1.6e-4 c 0.81094,0 1.05671,-0.005 1.17948,-0.0237 z m 3.79647,-6.28555 c 0.10323,-0.13534 0.29756,-0.68999 0.351,-1.00182 0.0753,-0.43958 0.0184,-0.87863 -0.16913,-1.3048 -0.15194,-0.34524 -0.37571,-0.65901 -0.72636,-1.01849 l -0.23351,-0.23939 0.22531,0.10272 c 1.01304,0.46188 2.16004,0.67795 3.59921,0.67804 0.95291,0 1.76524,-0.0989 2.69875,-0.32887 0.83244,-0.20505 1.75907,-0.53656 2.55245,-0.91315 l 0.20137,-0.0956 0.16197,0.0978 c 0.19238,0.11622 0.36216,0.19299 0.56206,0.25417 0.13305,0.0407 0.17071,0.0449 0.40779,0.0457 0.20469,6.5e-4 0.28415,-0.006 0.36731,-0.0288 0.34016,-0.0952 0.54847,-0.29615 0.62802,-0.60593 0.0814,-0.31685 -0.042,-0.56672 -0.51292,-1.03877 -0.1486,-0.14896 -0.34365,-0.33162 -0.43344,-0.4059 -0.2333,-0.19303 -0.73511,-0.56718 -1.07683,-0.80288 l -0.29322,-0.20225 -0.34121,-0.43242 c -2.19743,-2.78485 -4.1543,-5.16973 -5.62586,-6.85634 -0.99959,-1.14566 -1.60591,-1.80237 -2.36732,-2.56407 -0.77321,-0.7735 -1.18282,-1.13634 -1.62592,-1.44025 -0.16478,-0.11302 -0.4531,-0.27285 -0.49221,-0.27285 -0.009,0 -0.028,0.0606 -0.0426,0.13469 -0.0749,0.38091 -0.3526,0.68368 -0.83647,0.91196 -0.15432,0.0728 -0.48981,0.19327 -0.60738,0.2181 -0.0292,0.006 -0.0525,0.0161 -0.0519,0.0222 6.5e-4,0.006 0.17163,0.12334 0.37995,0.26072 0.64367,0.42444 1.08557,0.76996 1.48551,1.1615 0.56497,0.55311 0.812,0.99499 0.7899,1.41297 -0.0132,0.25059 -0.10014,0.43497 -0.29932,0.63518 -0.14084,0.14157 -0.28071,0.23953 -0.60229,0.42183 -1.17793,0.66777 -2.10147,0.84874 -2.78614,0.54594 -0.13241,-0.0586 -1.15715,-0.83642 -1.87358,-1.4222 -1.33984,-1.09552 -2.26747,-2.01827 -2.84265,-2.82772 -0.31532,-0.44374 -0.63586,-1.01988 -0.79575,-1.43024 -0.48998,-1.25762 -0.35958,-2.36918 0.36414,-3.10411 0.25185,-0.25575 0.51285,-0.43579 0.93869,-0.64751 0.40981,-0.20375 0.59121,-0.26368 0.61448,-0.20302 0.0222,0.0578 -0.0585,0.15498 -0.46723,0.56312 -0.27797,0.27755 -0.45683,0.4707 -0.53665,0.57954 -0.33896,0.46219 -0.49922,0.89331 -0.51885,1.3958 -0.0159,0.40619 0.0461,0.6761 0.25299,1.10194 0.26814,0.55188 0.69733,1.14156 1.39613,1.9182 0.31387,0.34883 1.22429,1.25373 1.4875,1.47849 1.5098,1.28923 2.68364,1.60611 3.69002,0.99613 0.65963,-0.39982 0.71174,-0.8561 0.15795,-1.3831 -0.18835,-0.17924 -0.32686,-0.28211 -0.74386,-0.55249 -1.04337,-0.67652 -1.57593,-1.14088 -1.87547,-1.63534 -0.0796,-0.13148 -0.12283,-0.24795 -0.16248,-0.43825 -0.0544,-0.26124 -0.0253,-0.44078 0.0715,-0.44078 0.0516,0 0.17877,0.0733 0.29894,0.17232 0.41411,0.34118 0.92145,0.5148 1.51823,0.51955 0.24321,0.002 0.24562,0.002 0.35466,-0.0501 0.29858,-0.14144 0.43772,-0.47312 0.43682,-1.04134 -5e-4,-0.32477 -0.0231,-0.46422 -0.0997,-0.61683 -0.49673,-0.98863 -1.3778,-1.8149 -2.50262,-2.34694 -0.54992,-0.26012 -1.27966,-0.50276 -1.93982,-0.64501 -0.0696,-0.015 -0.12651,-0.0328 -0.12651,-0.0395 0,-0.0855 -0.039,-0.74902 -0.0577,-0.98026 -0.10839,-1.3452 -0.38387,-2.49077 -0.81524,-3.39017 -0.65122,-1.35779 -1.76126,-2.26738 -3.10448,-2.5439 -0.37427,-0.077 -0.57493,-0.0963 -1.00993,-0.0967 -0.35601,-3.6e-4 -0.43522,0.004 -0.62035,0.0374 -0.64754,0.11544 -1.24957,0.38828 -1.84881,0.83789 l -0.15101,0.1133 2.4e-4,0.41106 2.3e-4,0.41106 0.16591,0.12244 c 0.40342,0.29773 0.65424,0.63109 0.7251,0.96375 0.0352,0.16528 0.0214,0.35219 -0.0421,0.56939 -0.10056,0.3438 -0.10014,0.60217 10e-4,0.90746 0.0757,0.22747 0.19331,0.41861 0.39977,0.64977 0.34102,0.38183 0.52905,0.82508 0.62116,1.46432 0.0171,0.11876 0.0288,0.40462 0.0381,0.93053 0.0163,0.92569 0.0489,1.24809 0.19737,1.95085 0.2417,1.14432 0.64623,2.18515 1.55768,4.0078 0.51793,1.03572 0.92614,1.79912 1.88558,3.52622 2.1735,3.91255 3.26625,6.07725 3.87792,7.682 0.46366,1.21645 0.79642,2.52419 0.86584,3.40272 0.0346,0.43789 0.0725,0.63917 0.13304,0.70603 0.0391,0.0433 0.0649,0.0351 0.11735,-0.0373 0.0619,-0.0855 0.13198,-0.27996 0.23144,-0.64249 l 0.0802,-0.29214 v -0.9211 -0.9211 l 0.0367,0.0112 c 0.0202,0.006 0.15059,0.0536 0.28977,0.10542 1.06386,0.39591 1.90003,0.79788 2.53038,1.21643 0.32656,0.21684 0.48712,0.34607 0.71845,0.57828 0.28192,0.283 0.45356,0.55388 0.53913,0.85087 0.0283,0.0983 0.0376,0.19119 0.0487,0.48865 0.0192,0.51318 0.0519,0.68565 0.12989,0.68565 0.0173,0 0.0509,-0.0256 0.0748,-0.0568 z M 124.5822,244.90602 c -0.30246,-0.0577 -0.48603,-0.22983 -0.55439,-0.51974 -0.0312,-0.13246 -0.0314,-0.43116 -3.9e-4,-0.59338 0.0626,-0.32706 0.25526,-0.5424 0.54688,-0.61119 0.12015,-0.0283 0.39101,-0.0248 0.52691,0.007 0.37768,0.088 0.56658,0.3634 0.56658,0.82603 0,0.56353 -0.28496,0.87318 -0.83312,0.9053 -0.0823,0.005 -0.18378,-7.3e-4 -0.25247,-0.0138 z m -2.39756,1.27875 c 0.14844,-0.0917 0.24982,-0.28316 0.22674,-0.4281 -0.033,-0.20732 -0.22339,-0.46568 -0.53413,-0.72486 l -0.12821,-0.10693 -0.61542,0.14187 c -0.33848,0.078 -0.61816,0.14461 -0.6215,0.14795 -0.0109,0.0109 0.16587,0.18878 0.29301,0.29491 0.30283,0.25278 0.67719,0.46124 1.17376,0.6536 0.0763,0.0296 0.14157,0.0541 0.145,0.0545 0.003,4.1e-4 0.0308,-0.0144 0.0608,-0.0329 z m -1.29136,-1.40861 0.75095,-0.13482 0.004,-0.42902 0.004,-0.42901 -0.0533,0.0112 c -0.0293,0.006 -0.13645,0.0435 -0.23804,0.0829 -0.50136,0.19449 -0.95705,0.49439 -1.39066,0.91524 l -0.18774,0.18222 0.17958,-0.0319 c 0.0988,-0.0175 0.5175,-0.0926 0.93053,-0.16673 z m 43.27981,35.91878 c -0.005,-0.26373 -0.0142,-1.99652 -0.0193,-3.85064 -0.012,-4.31281 -0.0175,-5.02118 -0.0403,-5.18321 -0.12349,-0.87619 -0.64506,-1.82835 -1.6007,-2.92219 -0.24218,-0.2772 -0.93375,-0.96969 -1.26049,-1.26216 -0.92907,-0.83161 -1.94991,-1.62132 -3.28474,-2.54102 -0.20651,-0.14228 -0.37669,-0.25939 -0.37818,-0.26023 -0.001,-8.5e-4 0.76275,-5.11012 1.69831,-11.35394 1.69739,-11.32822 1.7011,-11.35244 1.74068,-11.36708 0.0218,-0.008 0.14647,-0.0359 0.27702,-0.0619 0.95361,-0.18985 1.99643,-0.15666 2.83708,0.0903 0.68126,0.20014 1.1996,0.49989 1.66271,0.96152 0.36822,0.36704 0.62499,0.76015 0.8246,1.26244 l 0.0472,0.11878 v 18.40394 18.40392 l -0.87748,0.0105 c -0.48261,0.006 -1.04373,0.015 -1.24694,0.0205 l -0.36948,0.01 z m 0.81644,-24.18615 0.0532,-11.56825 -0.0338,-0.0671 c -0.28074,-0.55721 -1.0845,-0.93411 -2.01344,-0.94413 -0.30135,-0.003 -0.38136,0.0162 -0.48276,0.11764 -0.0421,0.0421 -0.081,0.098 -0.0865,0.12414 -0.0118,0.0567 -2.73139,19.00884 -2.73924,19.08893 l -0.005,0.0553 0.28569,0.17393 c 2.45992,1.49766 4.16547,3.04491 4.85247,4.40207 0.0559,0.11034 0.10491,0.19726 0.10902,0.19316 0.004,-0.004 0.0314,-5.21317 0.0607,-11.57572 z m -44.52071,-19.37642 c -0.34119,-0.16498 -0.79504,-0.38426 -1.00855,-0.48729 l -0.38819,-0.18733 0.23511,-0.47019 c 0.14418,-0.28833 0.82053,-1.78033 1.74874,-3.85764 1.39431,-3.12041 2.56446,-5.69747 2.58699,-5.69743 0.005,1e-5 0.483,0.91095 1.06198,2.02431 0.57898,1.11336 1.05649,2.02427 1.06113,2.02424 0.005,0 0.24244,-0.44999 0.52843,-0.99991 0.51167,-0.98385 1.57698,-2.96703 1.59382,-2.96703 0.005,0 0.19458,0.37282 0.42188,0.82849 0.4448,0.89169 1.6047,3.13802 1.62048,3.13832 0.0166,3.1e-4 1.05227,-2.00677 1.55726,-3.01797 l 0.48409,-0.96936 0.58254,1.07768 c 0.32041,0.59272 0.79559,1.48963 1.05598,1.99314 0.26038,0.50351 0.47933,0.91378 0.48655,0.91171 0.0213,-0.006 0.81838,-1.5436 1.45449,-2.80543 l 0.58968,-1.16975 1.06005,1.95698 c 0.58302,1.07634 1.06141,1.95535 1.06309,1.95335 0.002,-0.002 0.21859,-0.40033 0.48205,-0.88519 0.26346,-0.48485 0.72176,-1.36439 1.01845,-1.95453 l 0.53944,-1.07297 0.48532,0.9708 c 0.37562,0.75136 0.61493,1.20239 1.05872,1.99534 0.31536,0.5635 0.57479,1.0262 0.57651,1.02823 0.008,0.009 1.18168,-2.27152 1.58714,-3.08415 l 0.45365,-0.90923 0.59003,1.17043 c 0.63549,1.2606 1.43352,2.79993 1.45484,2.80623 0.007,0.002 0.26409,-0.44585 0.57084,-0.99553 0.42439,-0.76051 0.67513,-1.23455 1.04891,-1.98301 0.27016,-0.54097 0.49672,-0.98358 0.50348,-0.98358 0.007,0 0.22771,0.43159 0.49102,0.95909 0.36873,0.73872 0.61028,1.19449 1.05122,1.9835 0.31487,0.56342 0.57692,1.02432 0.58233,1.02422 0.016,-3e-4 1.17239,-2.23954 1.62072,-3.13832 0.22731,-0.45567 0.41702,-0.82849 0.42159,-0.82849 0.005,0 0.20163,0.38751 0.43791,0.86114 0.44891,0.89987 1.58781,3.10585 1.60347,3.10585 0.005,0 0.26707,-0.46098 0.58242,-1.0244 0.52746,-0.94238 0.60843,-1.0979 1.01134,-1.94252 0.24088,-0.50497 0.44264,-0.9182 0.44835,-0.91829 0.0211,-3.3e-4 1.12023,1.9672 1.64805,2.95019 0.3,0.55871 0.55018,1.01601 0.55595,1.01624 0.0213,8.1e-4 1.28061,-2.20549 1.73578,-3.04095 l 0.46961,-0.86196 0.46497,0.81298 c 0.96544,1.68802 4.46227,7.97319 4.69383,8.43664 0.12744,0.25508 0.22829,0.46671 0.2241,0.47028 -0.0187,0.016 -1.9352,1.04811 -1.94613,1.04811 -0.0264,0 -0.65228,-1.10544 -2.01216,-3.55416 -0.78116,-1.40661 -1.42473,-2.55244 -1.43017,-2.54629 -0.005,0.006 -0.26675,0.50707 -0.58069,1.11314 -0.49285,0.95144 -0.64169,1.22178 -1.08985,1.97941 -0.28547,0.48261 -0.52371,0.87732 -0.52941,0.87713 -0.012,-4.1e-4 -0.59011,-1.05947 -1.48355,-2.71776 -0.34346,-0.63748 -0.63001,-1.16083 -0.63678,-1.16299 -0.007,-0.002 -0.25002,0.45329 -0.54057,1.01213 -0.51918,0.99862 -1.56794,2.95059 -1.58529,2.95059 -0.005,0 -0.20584,-0.39486 -0.44661,-0.87747 -0.46217,-0.9264 -1.57896,-3.08952 -1.59508,-3.08952 -0.005,0 -0.23182,0.42792 -0.50357,0.95093 -0.4857,0.93482 -1.60211,3.01539 -1.61825,3.01583 -0.005,1.7e-4 -0.19055,-0.36525 -0.41336,-0.81194 -0.45304,-0.90823 -1.61324,-3.15411 -1.6296,-3.15454 -0.0171,-4.6e-4 -0.92421,1.74951 -1.50714,2.90762 l -0.53926,1.07133 -0.57411,-1.06317 c -0.31576,-0.58474 -0.79261,-1.48439 -1.05967,-1.99922 -0.30105,-0.58036 -0.49,-0.92775 -0.49724,-0.9142 -0.25564,0.47859 -0.99708,1.92101 -1.44336,2.80798 l -0.58866,1.16996 -0.55786,-1.03119 c -0.30682,-0.56716 -0.78311,-1.46463 -1.05842,-1.99437 -0.2753,-0.52975 -0.50212,-0.96479 -0.50404,-0.96675 -0.009,-0.009 -0.93042,1.77845 -1.45527,2.82385 l -0.58826,1.17169 -0.97049,-1.79192 c -0.53378,-0.98556 -1.01173,-1.86754 -1.06211,-1.95996 l -0.0916,-0.16803 -0.52343,0.96796 c -0.28788,0.53238 -0.74451,1.41057 -1.01474,1.95155 -0.27022,0.54097 -0.49496,0.98358 -0.49942,0.98358 -0.004,0 -0.21445,-0.41323 -0.46664,-0.91828 -0.34989,-0.70072 -0.60035,-1.17224 -1.05708,-1.99013 -0.32919,-0.58951 -0.60307,-1.06702 -0.60861,-1.06113 -0.0265,0.0282 -1.20498,2.31679 -1.59218,3.09207 -0.24103,0.48261 -0.44198,0.87747 -0.44654,0.87747 -0.005,0 -0.21634,-0.4169 -0.4706,-0.92645 -0.49675,-0.99549 -1.55214,-3.04054 -1.56914,-3.04054 -0.006,0 -0.27211,0.46832 -0.59204,1.04072 -0.44818,0.80183 -0.68972,1.25713 -1.05227,1.9835 -0.2588,0.51852 -0.47429,0.94277 -0.47885,0.94277 -0.005,0 -0.22004,-0.42425 -0.47885,-0.94277 -0.37364,-0.7486 -0.58199,-1.14031 -1.01162,-1.90187 -0.29759,-0.52751 -0.54532,-0.9591 -0.55052,-0.9591 -0.005,0 -0.48591,1.08129 -1.06824,2.40287 -1.03791,2.35548 -1.52945,3.44662 -1.55506,3.45194 -0.007,0.001 -0.292,-0.13232 -0.6332,-0.29731 z m 18.85546,-15.13315 c -5.8811,-0.0476 -10.95677,-0.087 -11.27926,-0.0876 l -0.58633,-0.001 0.1374,-0.12524 c 0.2231,-0.20338 0.53504,-0.52166 1.00523,-1.02568 0.94564,-1.01366 1.35179,-1.34997 1.8258,-1.51185 0.14058,-0.048 0.36114,-0.0515 0.93053,-0.0148 0.46405,0.0299 1.8006,0.0318 2.26918,0.003 0.73904,-0.0451 1.25471,-0.0916 1.85114,-0.16676 0.34905,-0.044 0.875,-0.11979 0.95819,-0.13808 0.0288,-0.006 0.0521,-0.0652 0.15025,-0.37924 0.62825,-2.01026 1.77931,-6.60813 2.05194,-8.19641 l 0.0261,-0.15186 -0.11743,-0.19913 c -0.42709,-0.72417 -0.94997,-1.54586 -1.90834,-2.99887 -1.73063,-2.62388 -2.40169,-3.71107 -3.17407,-5.1424 -0.23124,-0.42851 -0.7365,-1.44319 -0.88423,-1.77575 l -0.0963,-0.21671 -0.26937,-0.23206 c -0.32039,-0.27603 -0.90804,-0.85009 -1.17374,-1.14661 -1.43847,-1.6053 -2.28056,-3.34086 -2.51501,-5.18349 -0.0993,-0.78059 -0.0859,-1.26194 0.0889,-3.18311 0.0923,-1.01479 0.13867,-1.69112 0.13888,-2.02558 l 8e-5,-0.14004 -0.25712,-0.0703 c -0.40785,-0.11158 -1.03933,-0.32279 -1.95592,-0.6542 -0.94352,-0.34114 -1.42132,-0.4975 -1.86007,-0.60872 -1.30594,-0.33103 -2.40213,-0.31497 -3.62342,0.0531 -0.0894,0.0269 -0.16454,0.0469 -0.16704,0.0444 -0.002,-0.002 0.0896,-0.2171 0.20453,-0.47689 0.44699,-1.01 0.69908,-1.4257 1.09904,-1.81231 0.45619,-0.44097 0.90768,-0.64874 1.69766,-0.78124 0.35744,-0.06 0.72263,-0.0882 1.49121,-0.11535 0.38609,-0.0136 0.83054,-0.036 0.98767,-0.0497 0.63492,-0.0553 1.10206,-0.16331 1.56665,-0.3623 0.16799,-0.072 0.18008,-0.0745 0.52296,-0.11136 0.19304,-0.0207 0.69626,-0.0782 1.11826,-0.1276 0.87003,-0.10193 1.1335,-0.12993 1.55089,-0.1648 1.36465,-0.11403 2.41964,-0.0598 3.34664,0.17211 0.34026,0.0851 0.61789,0.17862 0.72801,0.2452 0.54966,0.33231 1.01968,1.04717 1.37289,2.08805 0.1698,0.5004 0.2454,0.84338 0.3888,1.76391 0.11084,0.71158 0.16217,1.00266 0.2203,1.24934 0.0482,0.20449 0.15184,0.53076 0.17705,0.55723 0.0103,0.0109 0.18044,0.0855 0.37797,0.1658 2.97177,1.20834 5.31582,2.62909 7.32964,4.44258 0.61072,0.54997 0.81369,0.76374 1.85242,1.95085 1.88747,2.15711 3.52165,4.15625 6.53226,7.99112 0.52515,0.66892 1.33252,1.6974 1.79417,2.28551 3.65664,4.6583 5.79285,7.2251 8.10434,9.73791 0.44704,0.48598 0.64402,0.71995 0.85593,1.01663 0.61306,0.85834 0.80738,1.53658 0.55421,1.93438 -0.14346,0.22542 -0.44923,0.37156 -0.88281,0.42196 l -0.16762,0.0195 -0.0548,0.17087 c -0.0712,0.22176 -0.25009,0.57551 -0.38893,0.76895 -0.57702,0.804 -1.65667,1.396 -2.992,1.64059 -0.63465,0.11624 -0.95961,0.12609 -1.49945,0.0454 -3.37232,-0.50389 -5.89232,-2.23547 -8.34988,-5.73749 -0.35987,-0.51282 -0.80519,-1.19895 -1.27767,-1.96857 -0.0487,-0.0793 -0.0547,-0.0841 -0.0619,-0.049 -0.0907,0.44506 -0.14586,0.62973 -0.25078,0.83885 -0.14049,0.28006 -0.37832,0.54148 -0.61508,0.67611 -0.25107,0.14277 -0.65261,0.24471 -0.87261,0.22154 -0.15059,-0.0159 -0.40387,-0.0803 -0.57443,-0.14619 -0.41529,-0.16039 -0.85386,-0.45425 -1.40301,-0.94009 -0.13419,-0.11872 -0.17205,-0.14484 -0.17436,-0.12027 -0.0605,0.6434 -0.16403,1.23949 -0.32306,1.85978 -0.16107,0.62826 -0.30029,1.0497 -0.78198,2.36714 l -0.20294,0.55505 0.29631,0.0103 c 1.15403,0.0401 2.81444,0.51452 3.99615,1.14186 1.01536,0.53901 1.66159,1.15789 1.91663,1.83545 0.0546,0.14511 0.0532,0.15543 -0.021,0.15283 -0.0337,-0.001 -4.87305,-0.0411 -10.75415,-0.0886 z m 20.37716,-2.03187 c 0.67336,-0.0863 1.19435,-0.25049 1.64537,-0.51848 0.27242,-0.16187 0.58001,-0.43994 0.74878,-0.67691 l 0.0785,-0.11016 -0.0619,-0.0857 c -0.80338,-1.11208 -2.05218,-2.4072 -3.43445,-3.56187 -0.29726,-0.24831 -0.60735,-0.45891 -1.8529,-1.25838 -4.58598,-2.9436 -9.33887,-5.67347 -17.17397,-9.86408 -1.33086,-0.7118 -1.33817,-0.71561 -1.32075,-0.68687 0.0149,0.0246 0.68652,0.96127 1.39664,1.94788 1.81649,2.52374 2.84565,4.12673 3.58199,5.57915 l 0.17176,0.3388 0.0442,-0.0232 c 0.0404,-0.0212 0.24165,-0.15794 0.67459,-0.45836 0.1618,-0.11227 0.16492,-0.11359 0.19149,-0.0813 0.0148,0.0181 0.63795,0.76415 1.38465,1.65792 1.23386,1.47688 1.36354,1.62681 1.42219,1.64438 0.16066,0.0481 0.27517,0.0107 0.3661,-0.11967 0.14768,-0.21175 0.16604,-0.79721 0.0524,-1.67025 -0.0598,-0.45931 -0.35075,-3.0758 -0.34575,-3.10932 0.006,-0.037 1.46247,1.72936 1.79568,2.177 0.35066,0.47108 0.69925,0.97331 1.50345,2.16607 0.99247,1.47202 1.36725,2.00343 1.87961,2.66511 1.79229,2.31466 3.55922,3.5479 5.65731,3.94852 0.65798,0.12563 1.15202,0.15652 1.59516,0.0997 z m -19.15189,-1.29806 c 0.69799,-0.12172 1.24648,-0.6116 1.68091,-1.5013 0.2912,-0.59635 0.5088,-1.29718 0.70202,-2.26102 0.0297,-0.14815 0.0527,-0.27066 0.0512,-0.27223 -0.002,-0.002 -0.0836,0.089 -0.18226,0.20133 -0.22391,0.25483 -0.67243,0.69531 -1.00423,0.98625 -0.29529,0.25892 -0.73054,0.61921 -0.74803,0.61921 -0.007,0 -0.0546,-0.19284 -0.10659,-0.42854 -0.28434,-1.29015 -0.52787,-2.15318 -0.77043,-2.73036 l -0.0274,-0.0653 -0.16747,0.62852 c -0.2016,0.75663 -0.33399,1.22427 -0.53783,1.89979 -0.16567,0.54904 -0.21663,0.74028 -0.26808,1.00607 -0.0639,0.33018 -0.0745,0.43499 -0.0745,0.73463 0,0.25652 0.005,0.32348 0.0358,0.44448 0.10759,0.42833 0.3744,0.67212 0.81742,0.74687 0.13211,0.0223 0.44897,0.0179 0.59951,-0.008 z m 20.32111,-3.8503 c -0.0165,-0.0215 -0.15986,-0.19316 -0.31867,-0.38156 -0.73511,-0.87209 -1.36091,-1.64251 -3.0664,-3.77498 -2.32995,-2.91327 -3.17411,-3.94542 -6.85611,-8.38292 -2.87248,-3.46188 -4.22986,-5.11532 -5.53107,-6.73744 -0.32912,-0.41028 -0.39349,-0.48103 -0.69317,-0.76172 -1.28704,-1.20552 -2.58622,-2.15008 -4.16675,-3.02939 -0.40036,-0.22274 -1.4025,-0.72611 -1.83657,-0.9225 -0.46779,-0.21165 -0.96231,-0.42135 -1.50417,-0.63784 -0.27261,-0.10892 -0.53023,-0.22012 -0.5725,-0.24711 -0.1699,-0.10851 -0.34784,-0.34438 -0.45387,-0.60162 -0.14408,-0.34956 -0.2104,-0.71351 -0.29299,-1.60802 -0.0543,-0.58785 -0.0832,-0.81233 -0.1304,-1.01216 -0.017,-0.0718 -0.0535,-0.24153 -0.0813,-0.37712 -0.25041,-1.22429 -0.67894,-1.86353 -1.43004,-2.1332 -0.13988,-0.0502 -0.38344,-0.10372 -0.54135,-0.1189 l -0.11725,-0.0113 -0.0101,0.0632 c -0.0867,0.54404 -0.23968,1.00683 -0.49521,1.49828 -0.38973,0.74952 -0.95108,1.40189 -1.51592,1.7617 -0.12937,0.0824 -0.28283,0.16352 -0.29201,0.15433 -0.0102,-0.0102 -0.26838,-0.56905 -0.26838,-0.58092 0,-0.006 0.0349,-0.0296 0.0775,-0.0521 0.13624,-0.0717 0.33057,-0.22959 0.43903,-0.3567 0.42793,-0.50153 0.64997,-1.20376 0.62019,-1.96144 -0.01,-0.25207 -0.0403,-0.49259 -0.0655,-0.51776 -0.0147,-0.0147 -0.76377,0.0815 -1.70086,0.21857 -0.65895,0.0963 -0.7515,0.11321 -0.6826,0.12437 0.35995,0.0583 0.58037,0.16176 0.80347,0.37705 0.11732,0.11322 0.19865,0.22219 0.19851,0.26598 -9.4e-4,0.30682 -0.49987,0.53906 -1.08552,0.50527 -0.54452,-0.0314 -0.90305,-0.25618 -0.9479,-0.59422 -0.0103,-0.0776 -0.007,-0.0887 0.0406,-0.14906 0.10547,-0.13317 0.31354,-0.27394 0.50856,-0.34408 0.0487,-0.0175 0.0794,-0.0321 0.0681,-0.0325 -0.0978,-0.003 -1.29131,0.15078 -2.46912,0.31777 -0.98979,0.14032 -1.79851,0.25231 -1.83348,0.2539 -0.0107,4.8e-4 0.12016,0.0404 0.29076,0.0886 0.1706,0.0483 0.46341,0.14002 0.6507,0.20392 0.3143,0.10724 0.54443,0.19405 1.66321,0.6274 1.12459,0.43561 1.9158,0.64814 2.66636,0.71622 l 0.22692,0.0206 -0.005,0.13029 c -0.003,0.0717 -0.0261,0.56739 -0.0525,1.10162 -0.0748,1.51742 -0.0808,1.67734 -0.0918,2.42428 -0.0106,0.72801 0.007,1.38212 0.0522,1.95084 0.208,2.60976 1.04173,4.4203 2.64386,5.74148 0.16326,0.13462 0.39768,0.30402 0.64595,0.46676 0.25615,0.16792 0.64913,0.3953 0.66161,0.38281 0.004,-0.004 -0.0364,-0.0963 -0.0903,-0.20456 -0.28491,-0.57152 -0.46436,-1.15658 -0.54933,-1.79098 -0.0405,-0.30232 -0.0413,-0.92733 -0.002,-1.18357 0.14126,-0.90998 0.55155,-1.69195 1.27507,-2.43015 0.52878,-0.53951 1.14659,-0.9866 1.91126,-1.38311 0.73447,-0.38085 1.59867,-0.67613 1.97886,-0.67613 0.27737,0 0.21084,0.10481 -0.29335,0.4621 -0.11894,0.0843 -0.36202,0.25392 -0.54017,0.37697 -0.77179,0.53307 -1.26157,0.91602 -1.69204,1.32299 -0.72557,0.68595 -1.11952,1.2902 -1.26754,1.94417 -0.0383,0.16912 -0.038,0.73582 4.4e-4,1.09602 0.13026,1.21887 0.53175,2.19378 1.29642,3.14802 0.19765,0.24666 0.74472,0.79542 1.02345,1.02662 0.57168,0.4742 1.26018,0.94572 2.08145,1.42547 0.65167,0.38067 1.09637,0.62304 5.37095,2.92724 4.36217,2.35141 6.14572,3.34383 8.46876,4.71228 2.79344,1.64555 5.45657,3.38644 7.52165,4.91692 0.20651,0.15305 0.37793,0.27864 0.38092,0.27909 0.003,4.6e-4 -0.008,-0.0167 -0.0245,-0.0382 z m -18.83256,-1.42572 c 0.28481,-0.39173 0.37771,-0.56175 0.42207,-0.77238 0.0417,-0.19821 0.004,-0.36525 -0.12883,-0.5661 -0.0402,-0.0609 -0.20361,-0.33856 -0.36309,-0.6169 -2.14334,-3.74077 -4.25338,-6.84275 -6.40744,-9.41956 -0.25668,-0.30706 -0.64323,-0.7567 -0.82185,-0.95599 l -0.0796,-0.0888 0.0701,0.1306 c 0.25523,0.47531 0.64747,1.1533 1.02472,1.77127 0.43571,0.71372 0.81582,1.30028 2.16874,3.34664 1.07099,1.61994 1.45411,2.22611 1.97828,3.13005 0.84757,1.46164 1.4992,2.87652 1.90567,4.13776 0.0251,0.078 0.0507,0.13887 0.0567,0.13514 0.006,-0.004 0.0846,-0.108 0.1745,-0.23171 z m 9.41572,-35.06535 c -1.99691,-0.0659 -3.62307,-0.71537 -4.35494,-1.73921 -0.44107,-0.61704 -0.96145,-1.84645 -1.80177,-4.25674 -0.66039,-1.89419 -0.86724,-2.44802 -1.05513,-2.82503 -0.0636,-0.12773 -0.0763,-0.1426 -0.15894,-0.18704 -0.0762,-0.0409 -0.11235,-0.0493 -0.23843,-0.0549 -0.17524,-0.008 -0.29723,0.0213 -0.37831,0.0903 -0.0472,0.0402 -0.0613,0.0735 -0.1192,0.28225 -0.33149,1.19491 -0.74288,2.30139 -1.06413,2.86212 -0.32135,0.56091 -0.53749,0.7294 -0.93567,0.7294 -0.26687,0 -0.47338,-0.0522 -1.12236,-0.28351 -0.38945,-0.13883 -0.692,-0.23318 -0.70452,-0.2197 -0.003,0.003 -0.0472,0.12651 -0.0989,0.27466 -0.12149,0.34819 -0.37592,0.98512 -0.55223,1.38241 -0.30928,0.69698 -1.04289,2.14855 -1.19599,2.36651 -0.23374,0.33279 -0.75291,0.62015 -1.42627,0.78948 -0.59708,0.15014 -1.16391,0.20634 -1.92518,0.19088 -0.67218,-0.0137 -0.98492,-0.0516 -1.72567,-0.20945 l -0.0838,-0.0179 0.0451,-0.10015 c 0.0611,-0.1356 0.0729,-0.196 0.0432,-0.22069 -0.0343,-0.0285 -0.0896,-0.0105 -0.32062,0.10424 -0.19992,0.0993 -0.20805,0.10173 -0.39997,0.1202 -0.63744,0.0613 -1.30267,0.0618 -2.62834,0.002 -0.38608,-0.0175 -0.78646,-0.0324 -0.88971,-0.0332 -0.10326,-7.8e-4 -0.22815,-0.008 -0.27754,-0.0166 -0.0494,-0.008 -0.34322,-0.0221 -0.65299,-0.0305 -0.58768,-0.016 -0.71188,-0.0307 -0.79788,-0.0947 -0.0555,-0.0412 -0.0616,-0.0897 -0.0202,-0.15987 0.0183,-0.0311 0.0264,-0.0565 0.0179,-0.0565 -0.008,0 -0.0651,0.0187 -0.12577,0.0415 -0.2355,0.0886 -0.49004,0.28022 -0.80549,0.60624 -0.17553,0.18142 -0.41367,0.47086 -0.46955,0.57071 -0.0159,0.0285 -0.0181,0.0284 -0.0523,-0.003 -0.099,-0.0895 -0.13822,-0.26609 -0.12614,-0.56777 0.0214,-0.53478 0.23852,-1.09626 0.52876,-1.36753 0.24546,-0.22941 0.75739,-0.39355 1.44251,-0.46252 0.34277,-0.0345 0.56711,-0.0416 1.63251,-0.0512 0.96687,-0.009 1.26041,-0.0208 1.59986,-0.0657 0.43167,-0.0571 0.79871,-0.18951 1.00743,-0.36351 0.31705,-0.26432 1.01131,-1.61595 1.48982,-2.90048 0.58271,-1.56424 0.73536,-2.61971 0.43821,-3.02992 -0.0603,-0.0832 -0.0612,-0.0864 -0.66587,-2.36552 -1.89007,-7.12362 -2.86823,-10.45483 -3.64552,-12.41522 l -0.14888,-0.37547 -0.21302,-0.22706 c -1.89871,-2.02382 -2.66586,-3.33561 -2.92229,-4.99697 -0.0884,-0.5729 -0.0987,-0.75825 -0.098,-1.77127 5.8e-4,-0.90607 0.0199,-1.47201 0.0741,-2.17123 0.12885,-1.66242 0.81735,-3.35836 2.20269,-5.42567 0.21217,-0.31662 0.22407,-0.3309 0.31834,-0.3818 0.231,-0.12475 0.5147,-0.17491 0.84731,-0.14979 0.22785,0.0172 0.40959,0.0536 0.97478,0.19546 0.74217,0.18623 0.73601,0.18558 1.71226,0.18154 0.49268,-0.002 0.81968,-0.0233 1.17986,-0.0767 0.62216,-0.0923 1.29003,-0.26542 1.793,-0.46479 l 0.16622,-0.0659 0.11684,0.0728 c 0.51974,0.32395 1.10849,0.89413 1.58492,1.53492 1.03925,1.39781 1.87396,3.50825 2.10521,5.32273 0.0137,0.10775 0.0395,0.28406 0.0573,0.3918 0.0477,0.28901 0.0761,0.55815 0.12212,1.15908 0.0493,0.64278 0.08,0.942 0.12509,1.21622 0.0366,0.22295 0.12333,0.58117 0.17189,0.71014 0.028,0.0743 0.0373,0.0835 0.1038,0.10279 0.25909,0.0751 0.70805,0.22951 0.88196,0.3034 0.68053,0.28915 1.31828,0.67988 1.90924,1.1697 0.10326,0.0856 0.30528,0.24484 0.44894,0.35389 1.23878,0.94033 2.73701,2.41534 4.39073,4.32272 1.74703,2.01498 3.80616,4.67737 6.15517,7.95848 1.43674,2.00681 2.73532,3.87814 5.33015,7.68094 1.52211,2.2307 2.21171,3.23266 2.28051,3.3135 0.0964,0.11321 0.14095,0.22559 0.14847,0.3742 0.01,0.18989 -0.0318,0.2932 -0.17455,0.43562 -0.12458,0.12428 -0.24123,0.18567 -0.424,0.22314 -0.32444,0.0665 -0.6222,-0.103 -0.73778,-0.41998 l -0.0349,-0.0958 -0.88389,-0.55416 c -0.48613,-0.30479 -1.3356,-0.83741 -1.88771,-1.18359 -0.5521,-0.34619 -1.00619,-0.62706 -1.00909,-0.62416 -0.003,0.003 0.0859,0.12541 0.1973,0.27225 0.89015,1.17319 1.52579,2.25464 1.91349,3.25557 0.13838,0.35727 0.13458,0.48363 -0.019,0.62986 -0.12297,0.11711 -0.29754,0.18548 -0.9686,0.3794 -0.46686,0.13491 -0.75399,0.23356 -1.18357,0.40664 -1.06452,0.42891 -2.07877,0.6427 -3.30583,0.6968 -0.34895,0.0154 -0.41802,0.0159 -0.72645,0.006 z m 0.87339,-1.27947 c 0.46676,-0.0329 0.93527,-0.11914 1.46197,-0.26912 0.18775,-0.0535 2.24603,-0.72999 2.2897,-0.75259 0.009,-0.004 -0.20701,-0.42738 -0.33609,-0.6591 -0.19428,-0.34874 -0.39782,-0.68061 -0.66583,-1.08561 -0.35629,-0.53842 -0.4886,-0.72185 -1.61516,-2.23905 -0.22447,-0.30231 -0.51118,-0.69355 -0.63713,-0.86942 l -0.22901,-0.31977 -0.27707,-0.17599 c -1.11559,-0.70857 -2.2794,-1.36743 -4.75014,-2.68915 -1.66208,-0.88914 -2.86282,-1.54825 -3.51781,-1.93102 -1.77716,-1.03855 -3.63177,-2.40065 -5.77116,-4.23858 -0.81445,-0.69968 -1.35401,-1.17944 -3.07728,-2.73621 -0.93919,-0.84846 -1.33445,-1.21698 -1.59403,-1.4862 -0.53571,-0.55562 -0.83072,-0.8991 -1.02257,-1.19057 -0.27444,-0.41694 -0.32606,-0.67622 -0.16475,-0.82763 0.066,-0.0619 0.13079,-0.085 0.37615,-0.13412 1.04399,-0.2088 2.41383,-0.79637 3.82076,-1.63886 1.10035,-0.65891 2.11426,-1.40435 2.62599,-1.93066 0.10714,-0.1102 0.26645,-0.2699 0.35401,-0.35489 0.20658,-0.20052 0.23284,-0.24385 0.22625,-0.37334 -0.003,-0.058 -0.0808,-0.13423 -0.19585,-0.19169 -0.13544,-0.0676 -0.24172,-0.10204 -0.63038,-0.20398 -0.41538,-0.10895 -0.51734,-0.14145 -0.65766,-0.20961 l -0.11894,-0.0578 -0.19124,0.0908 c -0.22566,0.10717 -0.38567,0.15877 -0.49238,0.15877 -0.18035,0 -0.3286,-0.0891 -0.43501,-0.26153 l -0.06,-0.0972 -0.059,0.0513 c -0.15943,0.13859 -1.13531,1.0342 -1.25465,1.15144 -0.7361,0.72313 -1.79878,0.89359 -2.61962,0.4202 -0.0692,-0.0399 -0.14263,-0.0727 -0.16325,-0.0729 -0.0544,-5.5e-4 -0.20519,-0.066 -0.29909,-0.12977 -0.0447,-0.0303 -0.22448,-0.19561 -0.39957,-0.36724 -0.17508,-0.17164 -0.34516,-0.32461 -0.37794,-0.33995 -0.0746,-0.0349 -0.15865,-0.0357 -0.2067,-0.002 -0.0203,0.0142 -0.0661,0.0851 -0.1019,0.15755 -0.0883,0.17884 -0.18428,0.30923 -0.32768,0.44523 -0.25019,0.23728 -0.53732,0.37885 -0.94835,0.46759 -0.22182,0.0479 -0.74505,0.0597 -1.04124,0.0236 -0.29176,-0.0356 -0.61565,-0.10261 -0.68157,-0.14093 -0.0384,-0.0223 -0.0531,-0.025 -0.0531,-0.01 0,0.0433 0.30679,0.39391 0.93048,1.06338 0.65143,0.69924 1.04396,1.14016 1.50422,1.68965 2.28336,2.72603 4.23748,5.90314 5.66308,9.20734 1.14095,2.64444 1.90703,5.40551 1.85568,6.68814 l -0.009,0.23158 0.052,0.011 c 0.11184,0.0237 0.48294,0.16771 0.97431,0.37801 0.94713,0.40536 1.31686,0.49352 1.58537,0.37801 0.0415,-0.0179 0.0981,-0.0559 0.12569,-0.0844 0.0625,-0.0647 0.31204,-0.57431 0.44114,-0.90088 0.27565,-0.69725 0.48031,-1.49766 0.60524,-2.36714 0.0692,-0.48173 0.0999,-0.76607 0.10719,-0.99457 0.01,-0.31129 0.0845,-0.49467 0.25613,-0.63034 0.33583,-0.26546 0.88509,-0.14921 1.13437,0.24009 0.0605,0.0945 0.13632,0.30424 0.13632,0.3771 0,0.0688 0.0498,0.10822 0.12026,0.095 0.031,-0.006 0.1543,-0.0573 0.2741,-0.11435 0.28874,-0.1376 0.35971,-0.16095 0.49535,-0.16296 0.0975,-10e-4 0.12568,0.005 0.19187,0.0439 0.12415,0.073 0.17842,0.17135 0.29901,0.54209 0.0979,0.301 0.19638,0.62611 0.79111,2.61201 0.92546,3.09024 1.54323,4.67397 2.12363,5.44423 0.48442,0.64288 1.59467,1.11586 2.92884,1.24774 0.4424,0.0437 0.85012,0.052 1.23222,0.0251 z m -16.82293,-1.22372 c 0.21593,-0.0552 0.24108,-0.0751 0.58973,-0.46525 0.42453,-0.47509 0.71446,-0.96442 1.00083,-1.68911 0.22236,-0.56272 0.55913,-1.48961 0.54551,-1.50141 -0.008,-0.007 -0.0543,-0.0286 -0.10366,-0.0488 -0.26787,-0.10985 -0.63925,-0.33391 -1.2291,-0.74153 -0.42101,-0.29095 -0.7176,-0.48402 -0.74353,-0.48402 -0.008,0 -0.0273,0.0643 -0.0429,0.14281 -0.0835,0.42065 -0.24735,1.0016 -0.39297,1.39365 -0.21527,0.57957 -0.38337,0.91412 -0.97106,1.93262 -0.2834,0.49116 -0.49758,0.91295 -0.61551,1.21214 -0.006,0.0154 0.0275,0.0204 0.13654,0.0205 0.17806,1.6e-4 0.36959,0.0304 0.71303,0.11281 0.6417,0.15402 0.87026,0.17777 1.11311,0.11566 z m 21.83263,-3.59017 c -0.0123,-0.0172 -0.1184,-0.15865 -0.23574,-0.31426 -0.39803,-0.52784 -0.7474,-1.02884 -2.3091,-3.31124 -2.60677,-3.80973 -3.85221,-5.57327 -5.44171,-7.70543 -3.07312,-4.12227 -5.54998,-6.88823 -7.44004,-8.30845 -0.26438,-0.19866 -0.65927,-0.4664 -0.81476,-0.55242 l -0.0898,-0.0497 -0.16325,0.1801 c -0.32102,0.35415 -0.87517,0.86067 -1.39465,1.27478 -1.45288,1.15817 -3.19029,2.11717 -5.0087,2.76464 -0.17276,0.0615 -0.31417,0.11688 -0.31426,0.12305 -2.5e-4,0.0173 1.80073,1.65875 2.87305,2.61857 3.44121,3.08018 6.1245,5.10168 8.79105,6.62288 0.47419,0.27051 0.98793,0.54018 1.81209,0.95117 2.6751,1.33404 4.60012,2.4633 9.3506,5.48527 0.21751,0.13837 0.3982,0.25175 0.40154,0.25195 0.003,2.2e-4 -0.004,-0.0137 -0.0163,-0.0309 z m -20.24241,-1.97258 c -0.60709,-2.60547 -1.95003,-6.25786 -3.27588,-8.90941 -0.71231,-1.42454 -1.50588,-2.71174 -2.18903,-3.5507 -0.14153,-0.17382 -0.50552,-0.58771 -0.51684,-0.58771 -0.003,0 0.0237,0.0826 0.0603,0.18366 0.11986,0.33126 0.49392,1.4487 0.62162,1.85698 0.57579,1.8409 1.05815,3.6373 1.74243,6.48921 0.52453,2.18611 0.60819,2.48099 0.75791,2.67151 0.16926,0.21538 0.39025,0.37165 1.26638,0.89552 0.70413,0.42103 1.11985,0.69007 1.3713,0.88747 0.0853,0.067 0.15982,0.12241 0.1656,0.12322 0.006,8e-4 0.004,-0.0261 -0.004,-0.0598 z m -6.90015,-18.69997 c 0.32968,-0.12326 0.54123,-0.33789 1.00735,-1.02196 0.17077,-0.25063 0.35945,-0.48714 0.40148,-0.50327 0.0558,-0.0214 0.38656,0.2478 0.88152,0.71746 0.53828,0.51077 0.83179,0.69844 1.27273,0.81382 0.12353,0.0323 0.18463,0.0382 0.38364,0.0371 0.21282,-0.001 0.25072,-0.006 0.37548,-0.0468 0.38443,-0.12602 0.63199,-0.30678 1.27684,-0.93228 0.20816,-0.20191 0.44697,-0.4202 0.5307,-0.4851 l 0.15222,-0.11799 -0.007,-0.15509 c -0.004,-0.0853 -0.033,-0.29099 -0.0644,-0.4571 -0.084,-0.44429 -0.0938,-0.52473 -0.0934,-0.76322 4.8e-4,-0.23191 0.0223,-0.36094 0.0901,-0.53223 0.0545,-0.13778 0.0999,-0.32639 0.13237,-0.54929 0.0378,-0.2598 0.026,-0.80626 -0.0235,-1.08561 -0.1002,-0.5659 -0.27484,-1.09273 -0.66212,-1.99736 -0.0755,-0.17644 -0.18507,-0.4163 -0.2434,-0.53303 -0.0583,-0.11672 -0.177,-0.37752 -0.2637,-0.57954 -0.26096,-0.60812 -0.40949,-0.86307 -0.6277,-1.07745 -0.13784,-0.13543 -0.25759,-0.2134 -0.40515,-0.26378 l -0.0976,-0.0333 -0.15304,0.0604 c -0.27935,0.1103 -0.52574,0.26059 -0.78972,0.48168 -0.15199,0.1273 -0.4843,0.46266 -0.67994,0.68619 -0.50462,0.57655 -0.58732,0.6646 -0.66236,0.70524 -0.20579,0.11145 -0.43513,0.0814 -0.66477,-0.087 -0.10013,-0.0734 -0.30358,-0.27715 -0.49549,-0.49614 -0.34609,-0.39493 -0.56918,-0.60131 -0.74404,-0.68832 -0.046,-0.0229 -0.13881,-0.0954 -0.20615,-0.16102 -0.15279,-0.14895 -0.27921,-0.23706 -0.42985,-0.29958 -0.54722,-0.22713 -1.19815,-0.054 -1.55265,0.41295 -0.12572,0.16561 -0.18959,0.30592 -0.28616,0.62867 -0.0469,0.15668 -0.16201,0.50563 -0.25585,0.77544 -0.32745,0.94148 -0.42642,1.35013 -0.4565,1.88478 -0.008,0.14273 -0.006,0.19927 0.006,0.19163 0.01,-0.006 0.0669,-0.0971 0.12713,-0.20246 0.24188,-0.42295 0.46283,-0.72409 0.68021,-0.9271 0.21214,-0.19811 0.37294,-0.2609 0.71461,-0.27905 0.513,-0.0272 1.07905,0.16996 1.71971,0.59915 0.33873,0.22692 0.71647,0.52176 0.76123,0.59417 0.0566,0.0916 0.18718,0.19864 0.26674,0.21868 0.17988,0.0453 0.30337,-0.0549 0.63942,-0.51885 0.1956,-0.27003 0.36922,-0.47054 0.44771,-0.51706 0.0233,-0.0138 0.0638,-0.055 0.09,-0.0915 0.21367,-0.29805 0.56702,-0.54402 0.94822,-0.66005 0.13539,-0.0412 0.16935,-0.0448 0.43262,-0.0457 0.30807,-0.001 0.37039,0.01 0.60753,0.10698 0.12175,0.0498 0.30316,0.16211 0.39909,0.24706 0.0345,0.0305 0.17104,0.11671 0.30348,0.19154 0.26027,0.14704 0.41663,0.27329 0.47303,0.38192 0.0688,0.13262 0.0369,0.2851 -0.0962,0.45946 -0.0549,0.072 -0.0614,0.0756 -0.11748,0.0656 -0.094,-0.0167 -0.37102,-0.16037 -0.54911,-0.28482 -0.65952,-0.46092 -0.85561,-0.55397 -1.13025,-0.53635 -0.1712,0.011 -0.30832,0.0839 -0.5349,0.28434 -0.40227,0.35588 -0.79689,0.78948 -1.08238,1.18927 -0.19656,0.27528 -0.37872,0.57771 -0.37872,0.62879 0,0.084 0.05,0.20711 0.1754,0.43234 0.07,0.1257 0.14462,0.26886 0.1658,0.31812 0.0212,0.0493 0.0551,0.11171 0.0753,0.13877 0.0781,0.10437 0.1111,0.1932 0.11867,0.31994 0.0128,0.21496 -0.0399,0.33984 -0.3238,0.76742 -0.17864,0.26898 -0.26174,0.42526 -0.29487,0.55454 -0.0114,0.0443 -0.0248,0.0803 -0.0298,0.0799 -0.0143,-0.001 -0.90729,-1.20347 -0.90494,-1.2185 10e-4,-0.007 0.0579,-0.19335 0.12599,-0.41333 0.18588,-0.6001 0.27188,-0.9093 0.27188,-0.97755 0,-0.17501 -0.11828,-0.36478 -0.33392,-0.53572 -0.0722,-0.0573 -0.27692,-0.19751 -0.45485,-0.31166 -0.17793,-0.11415 -0.3742,-0.25301 -0.43615,-0.30859 -0.61561,-0.55227 -1.43204,-0.61469 -1.90136,-0.14538 -0.22062,0.22063 -0.3219,0.44383 -0.36763,0.81027 -0.0163,0.13053 -0.0418,0.28428 -0.0566,0.34166 -0.0765,0.29533 -0.24144,0.43921 -0.48334,0.42172 -0.0804,-0.006 -0.0963,-0.003 -0.0963,0.0192 0,0.0144 0.0111,0.19851 0.0246,0.40917 0.0898,1.39683 0.18876,1.9449 0.50996,2.82462 0.13616,0.37292 0.27694,0.54245 0.5752,0.69265 0.22233,0.11196 0.49712,0.17905 1.07484,0.26243 0.16449,0.0237 0.38855,0.0642 0.49791,0.0898 0.1723,0.0404 0.22499,0.046 0.39474,0.0415 0.16097,-0.004 0.21553,-0.0125 0.30596,-0.0463 z m -1.65278,-4.6085 c -0.22919,-0.063 -0.40351,-0.19606 -0.44151,-0.33692 -0.075,-0.27797 0.20681,-0.62269 0.61813,-0.75619 0.15794,-0.0513 0.30471,1.8e-4 0.57841,0.20276 0.14857,0.10996 0.16875,0.11976 0.30301,0.14727 0.0791,0.0162 0.17437,0.0451 0.21169,0.0641 0.19982,0.10194 0.10059,0.27169 -0.26233,0.44874 -0.40191,0.19609 -0.80044,0.28718 -1.0074,0.23026 z m 4.24452,-0.13088 c -0.31867,-0.0623 -0.48318,-0.21014 -0.44658,-0.40121 0.0411,-0.21446 0.32374,-0.52074 0.66394,-0.71943 0.10719,-0.0626 0.11859,-0.0657 0.20509,-0.0555 0.0555,0.007 0.21188,0.059 0.39658,0.13309 0.42002,0.16847 0.54052,0.17662 0.72963,0.0494 0.0923,-0.0622 0.10017,-0.057 0.10017,0.0657 0,0.14833 -0.10765,0.30883 -0.3088,0.4604 -0.24197,0.18233 -0.60218,0.35233 -0.91725,0.4329 -0.20379,0.0521 -0.29551,0.0596 -0.42278,0.0348 z m 4.93017,3.0897 c 0,-0.0115 -0.0144,-0.1235 -0.032,-0.24896 -0.0582,-0.41512 -0.11323,-0.90259 -0.21282,-1.8851 -0.1293,-1.27557 -0.24477,-2.21476 -0.32818,-2.66915 -0.0777,-0.42324 -0.22504,-0.92284 -0.41167,-1.39579 -0.11894,-0.30141 -0.42887,-0.93002 -0.61573,-1.24887 -0.31646,-0.53998 -0.81744,-1.24618 -1.29899,-1.83112 -0.13182,-0.16013 -0.24074,-0.29263 -0.24203,-0.29444 -0.001,-0.002 -0.11595,0.0336 -0.2548,0.0787 -0.62768,0.20376 -1.30002,0.32873 -2.01237,0.37402 -0.23492,0.0149 -0.96644,0.0235 -1.43164,0.0167 -0.18956,-0.003 -0.37685,-0.0361 -0.83184,-0.14825 -0.2131,-0.0525 -0.45287,-0.10691 -0.53284,-0.1209 -0.17791,-0.0311 -0.44353,-0.0327 -0.55352,-0.003 -0.24052,0.0642 -0.41406,0.23356 -0.5097,0.49729 -0.0217,0.06 -0.0682,0.14708 -0.10333,0.19359 -0.20415,0.27062 -0.16507,0.3167 0.19538,0.23042 0.11843,-0.0283 0.20406,-0.0374 0.35235,-0.0373 0.18738,1.6e-4 0.203,0.003 0.35915,0.0624 0.50527,0.1927 1.00706,0.51085 1.51824,0.9626 0.0808,0.0714 0.3133,0.29041 0.51666,0.48666 l 0.36974,0.35681 0.30649,-0.3466 c 0.87817,-0.99309 1.40388,-1.38453 2.10072,-1.56421 0.2736,-0.0705 0.59241,0.0101 0.87266,0.22078 0.40348,0.30331 0.73772,0.89742 1.57565,2.80075 0.4561,1.03603 0.64996,1.70466 0.69826,2.40835 0.0218,0.31723 10e-4,0.60053 -0.0636,0.88115 -0.15226,0.65799 -0.18907,1.24774 -0.10027,1.60618 0.0828,0.33434 0.27389,0.54922 0.54759,0.61587 0.10792,0.0263 0.12243,0.0265 0.12243,0.002 z"
       id="path1920" />
  </g>
</svg>
