<?xml version="1.0" encoding="UTF-8" standalone="no"?>
<!-- Created with Inkscape (http://www.inkscape.org/) -->

<svg
   width="1080"
   height="1920"
   viewBox="0 0 285.75001 508"
   version="1.1"
   id="svg5"
   inkscape:export-filename="/Users/albertotomasoni/ALBERTO.png"
   inkscape:export-xdpi="96"
   inkscape:export-ydpi="96"
   inkscape:version="1.1.1 (c3084ef, 2021-09-22)"
   sodipodi:docname="Martina.svg"
   xmlns:inkscape="http://www.inkscape.org/namespaces/inkscape"
   xmlns:sodipodi="http://sodipodi.sourceforge.net/DTD/sodipodi-0.dtd"
   xmlns="http://www.w3.org/2000/svg"
   xmlns:svg="http://www.w3.org/2000/svg">
  <sodipodi:namedview
     id="namedview7"
     pagecolor="#ffffff"
     bordercolor="#666666"
     borderopacity="1.0"
     inkscape:pageshadow="2"
     inkscape:pageopacity="0.0"
     inkscape:pagecheckerboard="0"
     inkscape:document-units="px"
     showgrid="false"
     units="px"
     inkscape:zoom="0.24661248"
     inkscape:cx="476.45602"
     inkscape:cy="1062.3955"
     inkscape:window-width="1440"
     inkscape:window-height="900"
     inkscape:window-x="0"
     inkscape:window-y="0"
     inkscape:window-maximized="0"
     inkscape:current-layer="g2878" />
  <defs
     id="defs2" />
  <g
     inkscape:label="ALBERTO"
     inkscape:groupmode="layer"
     id="g2878">
    <g
       aria-label="martina"
       transform="matrix(2.7839642,0,0,2.7839642,-1008.2442,-810.36416)"
       id="text2874"
       style="font-weight:500;font-size:19.0077px;line-height:1.25;font-family:'Helvetica Neue';-inkscape-font-specification:'Helvetica Neue Medium';text-align:center;text-anchor:middle;white-space:pre;inline-size:858.441;stroke-width:1.51181;stroke-linecap:round;paint-order:markers fill stroke;stop-color:#000000">
      <path
         d="m 396.81748,310.24255 v 13.30539 h -2.09085 v -6.63368 l -1.69168,4.54284 h -1.2165 l -1.69168,-4.54284 v 6.63368 h -2.09085 v -13.30539 h 1.19749 l 3.19329,7.37499 3.19329,-7.37499 z"
         style="font-weight:normal;font-family:Bison;-inkscape-font-specification:Bison"
         id="path912" />
      <path
         d="m 402.74729,321.43809 h -2.39497 l -0.38016,2.10985 h -2.12886 l 2.66108,-13.30539 h 2.09085 l 2.66107,13.30539 h -2.12886 z m -0.36115,-2.09085 -0.83634,-4.77093 -0.83634,4.77093 z"
         style="font-weight:normal;font-family:Bison;-inkscape-font-specification:Bison"
         id="path914" />
      <path
         d="m 412.55467,323.54794 h -2.12887 l -1.08344,-5.34116 h -0.95038 v 5.34116 h -2.09085 v -13.30539 h 3.15528 q 1.34955,0 2.20489,0.79833 0.95039,0.87435 0.95039,2.471 v 1.42558 q 0,1.61565 -0.95039,2.49 -0.13305,0.13306 -0.30412,0.2471 z m -2.03383,-10.03606 q 0,-0.66527 -0.28511,-0.95039 -0.2471,-0.22809 -0.77932,-0.22809 h -1.06443 v 3.78253 h 1.06443 q 0.53222,0 0.77932,-0.22809 0.28511,-0.26611 0.28511,-0.95038 z"
         style="font-weight:normal;font-family:Bison;-inkscape-font-specification:Bison"
         id="path916" />
      <path
         d="m 419.61573,312.3334 h -2.12886 v 11.21454 h -2.09085 V 312.3334 h -2.12886 v -2.09085 h 6.34857 z"
         style="font-weight:normal;font-family:Bison;-inkscape-font-specification:Bison"
         id="path918" />
      <path
         d="m 422.64776,310.24255 h -2.09085 v 13.30539 h 2.09085 z"
         style="font-weight:normal;font-family:Bison;-inkscape-font-specification:Bison"
         id="path920" />
      <path
         d="m 430.58258,323.54794 h -1.21649 l -3.1933,-6.74773 v 6.74773 h -2.09084 v -13.30539 h 1.21649 l 3.19329,6.72873 v -6.72873 h 2.09085 z"
         style="font-weight:normal;font-family:Bison;-inkscape-font-specification:Bison"
         id="path922" />
      <path
         d="m 436.41913,321.43809 h -2.39497 l -0.38015,2.10985 h -2.12887 l 2.66108,-13.30539 h 2.09085 l 2.66108,13.30539 h -2.12886 z m -0.36114,-2.09085 -0.83634,-4.77093 -0.83634,4.77093 z"
         style="font-weight:normal;font-family:Bison;-inkscape-font-specification:Bison"
         id="path924" />
    </g>
    <path
       style="fill=currentColor;stroke-width:0.0163251"
       d="m 112.57565,344.04317 v -1.08562 l 11.65202,-0.002 c 11.52481,-0.002 11.65006,-0.002 11.47245,-0.0329 -1.03135,-0.17914 -1.46367,-0.26231 -2.16307,-0.41613 -7.3812,-1.62343 -13.31566,-5.01193 -16.92277,-9.6627 -0.58953,-0.76011 -1.15706,-1.61762 -1.63138,-2.46495 -0.17999,-0.32154 -0.53255,-1.02337 -0.68887,-1.37131 -0.96808,-2.15479 -1.51184,-4.38173 -1.6702,-6.8402 -0.0104,-0.16162 -0.0255,-0.2963 -0.0335,-0.29929 -0.0195,-0.007 -0.0195,-184.05161 -4e-5,-184.05161 0.008,0 0.0194,-0.0679 0.0253,-0.15101 0.0953,-1.34139 0.25224,-2.36665 0.53277,-3.48132 0.94755,-3.76505 3.04602,-7.04208 6.25242,-9.76392 4.4323,-3.76249 10.87447,-6.28349 18.22572,-7.13222 0.32017,-0.037 10.17684,-0.037 10.49702,0 5.49808,0.63478 10.54357,2.21735 14.58645,4.5752 2.81155,1.63973 5.10287,3.62437 6.81768,5.90519 1.59143,2.11671 2.67364,4.4837 3.2207,7.04426 0.19381,0.90714 0.30749,1.74717 0.38608,2.85281 0.006,0.0831 0.0173,0.15101 0.0253,0.15101 0.0195,0 0.0195,184.04434 0,184.05161 -0.008,0.003 -0.0232,0.13767 -0.0336,0.29929 -0.17664,2.74236 -0.84056,5.23076 -2.01667,7.55851 -1.29492,2.5629 -3.16736,4.82497 -5.61609,6.78474 -3.45195,2.76268 -7.99905,4.82482 -13.16618,5.97095 -0.7619,0.169 -1.32362,0.27731 -2.36713,0.45648 -0.0568,0.01 4.19319,0.0161 11.56223,0.0174 l 11.65202,0.002 v 1.08562 1.08561 h -30.29934 -30.29933 v -1.08561 z m 32.01347,-2.7337 c 1.24172,-0.0564 2.21654,-0.13237 3.26502,-0.25432 6.672,-0.77598 12.49854,-3.06085 16.61449,-6.51537 3.09599,-2.59846 5.1445,-5.80235 6.02707,-9.4264 0.24596,-1.00999 0.38062,-1.88157 0.47027,-3.04376 0.0277,-0.35893 0.029,-4.42366 0.029,-92.1877 0,-74.05189 -0.004,-91.86748 -0.0207,-92.0979 -0.10152,-1.39909 -0.31601,-2.57779 -0.69184,-3.8019 -0.61505,-2.00328 -1.66091,-3.91554 -3.05904,-5.59318 -0.68243,-0.81886 -1.59664,-1.73375 -2.43192,-2.43375 -1.65022,-1.38294 -3.61809,-2.6012 -5.78201,-3.57951 -3.34341,-1.51155 -7.17198,-2.51653 -11.29402,-2.96462 -2.50209,-0.272 -5.20561,-0.32867 -7.77889,-0.16306 -7.38749,0.47543 -14.01571,2.74468 -18.53387,6.34528 -1.06017,0.84487 -2.06087,1.81763 -2.87595,2.79566 -1.39813,1.67764 -2.444,3.5899 -3.05905,5.59318 -0.37583,1.22411 -0.59032,2.40281 -0.69183,3.8019 -0.0167,0.23042 -0.0207,18.04601 -0.0207,92.0979 0,87.76404 0.001,91.82877 0.029,92.1877 0.0897,1.16219 0.22431,2.03377 0.47027,3.04376 1.02579,4.21218 3.6229,7.84581 7.60044,10.63377 4.20362,2.94645 9.81796,4.83988 16.05328,5.41395 0.88937,0.0819 1.81342,0.13521 2.95483,0.17049 0.34241,0.0106 2.3684,-0.006 2.72629,-0.0221 z m -6.59533,-19.55024 c -5.77785,-0.0471 -10.50801,-0.0865 -10.51146,-0.0876 -0.003,-10e-4 0.0772,-0.081 0.1791,-0.17748 0.23441,-0.22193 0.54959,-0.54622 0.99539,-1.02421 0.63269,-0.67837 0.95876,-0.98312 1.28653,-1.20248 0.19682,-0.13172 0.27581,-0.17341 0.44075,-0.23262 0.19513,-0.07 0.30506,-0.0784 0.66226,-0.0506 0.92149,0.072 2.27211,0.0585 3.38856,-0.0337 0.56257,-0.0465 1.48397,-0.15946 1.93627,-0.23748 l 0.0997,-0.0172 0.0441,-0.14159 c 0.0243,-0.0779 0.0807,-0.25911 0.12541,-0.40277 0.58063,-1.86581 1.68433,-6.29247 1.98962,-7.9798 l 0.0349,-0.19273 -0.0769,-0.13377 c -0.32843,-0.57111 -1.03598,-1.68649 -1.89199,-2.98249 -1.23413,-1.86847 -1.77616,-2.71633 -2.33778,-3.65682 -0.68841,-1.15283 -1.31419,-2.3313 -1.7814,-3.3548 l -0.0969,-0.21223 -0.24281,-0.20902 c -0.89903,-0.77391 -1.6919,-1.66728 -2.28346,-2.57293 -0.31672,-0.48491 -0.65952,-1.13453 -0.86472,-1.63871 -0.4706,-1.15629 -0.68897,-2.44013 -0.61285,-3.60311 0.0316,-0.482 0.0683,-0.94055 0.13093,-1.63251 0.10312,-1.13985 0.14647,-1.76325 0.14668,-2.10938 l 8e-5,-0.14222 -0.0694,-0.0185 c -0.2388,-0.0636 -0.71965,-0.20843 -0.99379,-0.29941 -0.25874,-0.0858 -1.69311,-0.59754 -1.92559,-0.68691 -0.3313,-0.12735 -1.1727,-0.36197 -1.58041,-0.44069 -0.47736,-0.0922 -0.70672,-0.11338 -1.2344,-0.11413 -0.49752,-6.5e-4 -0.63512,0.009 -1.02848,0.0742 -0.2142,0.0354 -0.71209,0.15482 -0.90604,0.21735 -0.0673,0.0217 -0.1244,0.0376 -0.12679,0.0352 -0.01,-0.009 0.43495,-0.99668 0.55209,-1.2261 0.39058,-0.76499 0.79468,-1.21074 1.38867,-1.53184 0.1599,-0.0864 0.34661,-0.15351 0.61847,-0.22219 0.52939,-0.13372 0.9509,-0.1781 2.01614,-0.21234 1.0108,-0.0325 1.49011,-0.0893 1.99767,-0.23681 0.17508,-0.0509 0.48724,-0.16782 0.60013,-0.22481 0.0258,-0.013 0.13869,-0.0324 0.25093,-0.0431 0.11223,-0.0107 0.57505,-0.0629 1.02848,-0.11604 1.76472,-0.20684 2.23768,-0.24467 3.05624,-0.24439 0.72168,1.6e-4 1.2155,0.0438 1.77459,0.15667 0.313,0.0632 0.73412,0.17987 0.89958,0.24929 0.61831,0.25939 1.22521,1.18281 1.58925,2.41812 0.13423,0.45545 0.1777,0.67517 0.33648,1.70063 0.0875,0.56529 0.14006,0.84965 0.20603,1.11544 0.0506,0.20392 0.13186,0.45288 0.15809,0.48446 0.0109,0.0131 0.21452,0.10347 0.45245,0.2007 2.86634,1.17143 5.20428,2.58173 7.14222,4.30836 0.66522,0.59268 0.9341,0.87378 1.99287,2.0834 2.00211,2.28736 3.62084,4.2796 7.54081,9.28081 2.7937,3.56428 4.25184,5.37991 5.72939,7.13405 1.1107,1.31863 2.16985,2.52503 3.16026,3.59968 0.57448,0.62333 0.82674,0.94294 1.08883,1.37947 0.59208,0.98615 0.53201,1.63688 -0.17324,1.87675 -0.10199,0.0347 -0.31153,0.0754 -0.50829,0.0988 l -0.0738,0.009 -0.0551,0.17118 c -0.21557,0.66953 -0.70432,1.2578 -1.39772,1.68232 -0.73691,0.45117 -1.66847,0.73425 -2.70826,0.82299 -0.23106,0.0197 -0.38081,0.007 -0.92348,-0.0755 -1.93505,-0.29601 -3.68569,-1.08772 -5.2077,-2.35517 -0.56517,-0.47065 -1.15488,-1.05501 -1.69084,-1.67548 -0.79455,-0.91985 -1.65406,-2.13259 -2.52999,-3.56975 -0.053,-0.087 -0.0988,-0.15582 -0.10165,-0.15293 -0.003,0.003 -0.023,0.0929 -0.0448,0.20017 -0.18747,0.92395 -0.66169,1.42696 -1.45695,1.5454 -0.17923,0.0267 -0.27571,0.0196 -0.51806,-0.0379 -0.50551,-0.12003 -1.03113,-0.43718 -1.68612,-1.01733 -0.10132,-0.0897 -0.18642,-0.16036 -0.18914,-0.15691 -0.003,0.003 -0.0141,0.0981 -0.0252,0.2103 -0.0449,0.45086 -0.15272,1.06744 -0.27128,1.55129 -0.14364,0.58621 -0.32315,1.13963 -0.74124,2.2851 l -0.27707,0.75912 0.32986,0.0105 c 0.75977,0.0242 1.84297,0.26579 2.81513,0.62791 1.43378,0.53409 2.43312,1.22171 2.89201,1.98993 0.091,0.15236 0.18059,0.34893 0.20644,0.45302 l 0.0111,0.0449 -0.8221,-0.002 c -0.45216,-0.001 -5.54944,-0.0407 -11.32729,-0.0878 z m 21.53513,-1.99989 c 1.16753,-0.11467 2.03124,-0.51352 2.52992,-1.16834 0.0759,-0.0997 0.11111,-0.15905 0.10259,-0.17312 -0.0239,-0.0395 -0.19162,-0.26467 -0.3321,-0.44586 -0.648,-0.83579 -1.64616,-1.87368 -2.65408,-2.7597 -0.69959,-0.615 -0.72922,-0.63668 -1.95052,-1.42732 -4.53252,-2.93424 -9.46175,-5.77898 -17.09235,-9.8643 -1.5474,-0.82846 -1.79894,-0.96185 -1.80396,-0.95665 -0.006,0.006 -0.0315,-0.0305 0.78944,1.11153 1.5109,2.10171 1.96299,2.74802 2.54903,3.64412 0.6594,1.00825 1.13664,1.81342 1.60346,2.70524 l 0.21962,0.41955 0.16186,-0.10738 c 0.089,-0.0591 0.28084,-0.19094 0.42627,-0.29304 0.14543,-0.10211 0.2714,-0.18565 0.27994,-0.18565 0.009,0 0.6301,0.73646 1.38124,1.63659 0.75114,0.90014 1.38918,1.65124 1.41787,1.66914 0.0383,0.0239 0.0807,0.0326 0.15947,0.0326 0.0926,0 0.11561,-0.006 0.16757,-0.0458 0.13089,-0.0997 0.18847,-0.2943 0.20176,-0.68176 0.0107,-0.31198 -0.009,-0.59805 -0.0775,-1.1334 -0.0632,-0.49262 -0.34448,-3.04529 -0.33777,-3.06539 0.006,-0.0184 1.50703,1.80157 1.72016,2.08589 0.39427,0.52594 0.75566,1.04531 1.5733,2.26102 0.86223,1.28201 1.15465,1.7015 1.62161,2.32633 1.0786,1.4432 2.0684,2.43684 3.12945,3.14154 1.05647,0.70167 2.15839,1.10616 3.38091,1.24104 0.46209,0.051 0.59623,0.0563 0.83285,0.0331 z m -19.01611,-1.31371 c 0.98725,-0.14882 1.70532,-1.05721 2.18261,-2.76113 0.037,-0.13194 0.0857,-0.31768 0.1083,-0.41278 0.0548,-0.23064 0.18472,-0.85667 0.17895,-0.86243 -0.003,-0.003 -0.0443,0.0414 -0.0927,0.0976 -0.40221,0.46616 -0.89411,0.93365 -1.57309,1.49498 -0.14317,0.11838 -0.26481,0.21522 -0.27032,0.21522 -0.006,0 -0.0416,-0.1451 -0.0801,-0.32242 -0.19818,-0.9113 -0.36223,-1.56336 -0.51852,-2.06104 -0.0942,-0.29985 -0.27888,-0.81188 -0.29691,-0.82302 -0.006,-0.004 -0.0831,0.26644 -0.17184,0.60006 -0.18696,0.70306 -0.34193,1.24943 -0.55618,1.96079 -0.26145,0.86809 -0.32717,1.21103 -0.32551,1.69859 9e-4,0.26478 0.006,0.3293 0.0364,0.44078 0.1,0.36952 0.30524,0.59469 0.63123,0.69258 0.22657,0.068 0.4812,0.0824 0.74775,0.0422 z m 20.06391,-4.20665 c -0.71617,-0.84872 -1.36775,-1.65108 -3.13976,-3.86628 -2.27654,-2.8459 -3.11302,-3.86896 -6.58718,-8.05642 -3.08041,-3.71286 -4.4355,-5.36282 -5.76529,-7.01979 -0.39181,-0.48821 -0.69744,-0.79256 -1.39325,-1.3875 -1.87442,-1.60263 -3.9388,-2.80378 -6.76542,-3.93641 -0.27761,-0.11124 -0.53841,-0.22178 -0.57954,-0.24565 -0.17616,-0.10221 -0.3695,-0.35218 -0.47366,-0.61235 -0.14615,-0.36509 -0.21995,-0.76893 -0.29482,-1.61331 -0.0486,-0.54828 -0.0763,-0.76091 -0.1327,-1.02032 -0.14013,-0.64422 -0.16866,-0.76525 -0.22116,-0.93849 -0.26898,-0.88761 -0.71383,-1.39668 -1.39256,-1.59361 -0.15117,-0.0439 -0.39816,-0.0879 -0.49358,-0.088 -0.0556,0 -0.0612,0.004 -0.0692,0.053 -0.0364,0.22202 -0.0495,0.28711 -0.0913,0.45387 -0.28907,1.15322 -1.12372,2.33972 -2.0148,2.86415 -0.0834,0.0491 -0.16189,0.0932 -0.17449,0.098 -0.0166,0.006 -0.0609,-0.0731 -0.16039,-0.28737 -0.12334,-0.26566 -0.13469,-0.29805 -0.11026,-0.31457 0.015,-0.0101 0.0733,-0.0441 0.12968,-0.0755 0.14321,-0.0799 0.4253,-0.36217 0.54246,-0.54284 0.31367,-0.48373 0.46891,-1.09057 0.44373,-1.73451 -0.009,-0.21838 -0.0429,-0.50567 -0.0623,-0.5218 -0.0106,-0.009 -0.99515,0.12226 -1.72651,0.22986 l -0.75817,0.11153 0.1462,0.0196 c 0.1825,0.0244 0.38313,0.0967 0.53992,0.1944 0.13204,0.0823 0.30374,0.24228 0.37404,0.34851 0.0431,0.0652 0.0441,0.0713 0.0252,0.15582 -0.0943,0.42124 -1.09279,0.59515 -1.67138,0.29111 -0.20497,-0.10771 -0.32206,-0.26192 -0.3476,-0.45782 l -0.0112,-0.0859 0.12131,-0.11816 c 0.13223,-0.12881 0.25201,-0.20707 0.40969,-0.2677 l 0.10178,-0.0391 -0.12244,0.01 c -0.23894,0.0187 -1.31357,0.15861 -2.4406,0.31765 -0.62851,0.0887 -1.2603,0.17673 -1.40396,0.19565 -0.38202,0.0503 -0.37716,0.0433 -0.0853,0.12427 0.51619,0.14329 0.9798,0.30706 2.02453,0.71524 1.42861,0.55813 2.17946,0.76933 3.00034,0.84392 l 0.22161,0.0201 -0.006,0.12386 c -0.003,0.0681 -0.0238,0.48382 -0.0457,0.92378 -0.0924,1.85123 -0.0955,1.94582 -0.0963,2.91403 -7.4e-4,0.94571 0.0105,1.26488 0.0645,1.82841 0.13096,1.36768 0.40279,2.4079 0.88095,3.37113 0.48927,0.98561 1.20523,1.81694 2.13597,2.4802 0.28977,0.20648 0.92487,0.59097 0.92487,0.5599 0,-0.004 -0.0544,-0.1205 -0.12079,-0.25861 -0.29276,-0.60861 -0.4515,-1.14846 -0.53465,-1.81831 -0.0321,-0.2585 -0.0271,-0.87503 0.009,-1.11011 0.19998,-1.30142 0.99221,-2.40692 2.40131,-3.3509 0.67007,-0.44889 1.56902,-0.86441 2.2684,-1.04854 0.33351,-0.0878 0.58963,-0.11214 0.64086,-0.0609 0.0641,0.0641 -0.0786,0.18868 -0.73802,0.64443 -0.24243,0.16754 -0.53261,0.3704 -0.64484,0.45077 -1.39986,1.00244 -2.18137,1.85136 -2.47139,2.68457 -0.11182,0.32127 -0.13822,0.57535 -0.10987,1.05749 0.0629,1.06974 0.31998,1.94274 0.81438,2.76567 0.71172,1.18463 1.84771,2.16344 3.832,3.30184 0.60966,0.34977 1.18796,0.66407 5.24822,2.85238 4.83318,2.6049 7.09705,3.87687 9.58311,5.38437 2.37607,1.4408 4.88963,3.11672 6.53804,4.35924 0.0717,0.0541 0.13298,0.0958 0.13608,0.0927 0.003,-0.003 -0.1328,-0.16968 -0.30199,-0.37019 z m -18.57088,-1.0298 c 0.30625,-0.41826 0.41074,-0.60545 0.45457,-0.81436 0.0432,-0.20612 0.007,-0.35975 -0.13791,-0.5832 -0.0445,-0.0686 -0.15611,-0.25698 -0.24811,-0.4186 -2.33688,-4.10553 -4.71028,-7.54625 -7.10004,-10.29296 -0.31804,-0.36555 -0.32684,-0.37422 -0.26522,-0.2612 0.76328,1.39982 1.27791,2.22822 3.00698,4.84038 1.11262,1.68088 1.48456,2.26192 1.96983,3.07728 0.9299,1.56242 1.59862,2.96262 2.04072,4.27296 0.0704,0.20866 0.12908,0.37947 0.13038,0.37955 10e-4,0 0.0683,-0.0899 0.1488,-0.19985 z m -21.91249,-35.59322 c -0.54771,-0.26386 -1.00215,-0.48216 -1.00987,-0.48511 -0.008,-0.003 0.096,-0.22548 0.23055,-0.49451 0.15593,-0.31185 0.79325,-1.71703 1.75824,-3.87661 1.38593,-3.10163 2.54963,-5.66527 2.57124,-5.66448 0.005,1.8e-4 0.48193,0.91111 1.06031,2.02431 0.57838,1.11319 1.05631,2.02399 1.06205,2.02399 0.006,0 0.23278,-0.42792 0.50452,-0.95094 0.48554,-0.9345 1.60211,-3.01538 1.61825,-3.01583 0.005,-1.6e-4 0.22017,0.42402 0.47922,0.94255 0.39789,0.79644 1.04106,2.04918 1.45892,2.84162 l 0.10601,0.20104 0.55472,-1.06627 c 0.3051,-0.58645 0.76393,-1.48414 1.01963,-1.99488 0.2557,-0.51073 0.47055,-0.92212 0.47744,-0.9142 0.0354,0.0407 1.08759,2.00859 1.55701,2.9121 0.29623,0.57016 0.54311,1.04176 0.54863,1.04801 0.0132,0.0149 1.09323,-2.0677 1.62616,-3.13569 0.23021,-0.46135 0.42449,-0.83234 0.43173,-0.82442 0.007,0.008 0.48535,0.8869 1.06247,1.95328 0.57712,1.06638 1.0512,1.93691 1.05352,1.93452 0.002,-0.002 0.23711,-0.43411 0.52176,-0.95937 0.28465,-0.52526 0.74081,-1.40131 1.01369,-1.94677 0.27287,-0.54546 0.49978,-0.99175 0.50424,-0.99175 0.004,0 0.22878,0.4413 0.49849,0.98066 0.36981,0.73955 0.62318,1.21818 1.03054,1.94676 0.29708,0.53136 0.55271,0.9867 0.56807,1.01186 l 0.0279,0.0457 0.51538,-0.9926 c 0.28346,-0.54593 0.74016,-1.44256 1.01488,-1.99251 0.27473,-0.54996 0.50316,-0.99992 0.50762,-0.99992 0.004,0 0.1923,0.36916 0.41744,0.82034 0.5323,1.06674 1.62018,3.1641 1.63373,3.14969 0.006,-0.006 0.26847,-0.47224 0.58371,-1.03574 0.43972,-0.78598 0.68434,-1.24689 1.05053,-1.97942 0.26255,-0.52517 0.48109,-0.95487 0.48564,-0.95487 0.005,0 0.23709,0.45731 0.51673,1.01624 0.3943,0.78809 0.63124,1.23542 1.05542,1.99255 l 0.54698,0.97631 0.0977,-0.18455 c 0.36619,-0.69163 1.05297,-2.02951 1.45861,-2.84145 0.26354,-0.5275 0.48289,-0.9591 0.48746,-0.9591 0.005,0 0.21264,0.40956 0.46241,0.91013 0.55769,1.11771 1.56329,3.05912 1.58142,3.05308 0.007,-0.002 0.26854,-0.46046 0.58051,-1.01783 0.52261,-0.93372 0.60186,-1.08612 1.00798,-1.93813 0.24243,-0.5086 0.44492,-0.92493 0.44999,-0.92518 0.0198,-9.4e-4 1.10332,1.93895 1.63197,2.92175 0.30669,0.57015 0.56243,1.04152 0.56832,1.04748 0.0169,0.0171 1.22595,-2.09457 1.72614,-3.01465 0.24893,-0.45792 0.4613,-0.84213 0.47192,-0.8538 0.027,-0.0296 0.68156,1.12159 2.99511,5.26756 1.29367,2.31832 1.96142,3.53184 2.14119,3.89123 0.14367,0.28725 0.25894,0.52456 0.25615,0.52735 -0.032,0.032 -1.94646,1.05175 -1.95571,1.04171 -0.0494,-0.0537 -0.7696,-1.33004 -1.99024,-3.52738 -0.78424,-1.41175 -1.43146,-2.56338 -1.43826,-2.55917 -0.007,0.004 -0.26044,0.48708 -0.56365,1.07307 -0.47218,0.91255 -0.62882,1.19701 -1.09161,1.98241 -0.29718,0.50433 -0.54509,0.91205 -0.5509,0.90604 -0.0146,-0.0151 -1.08503,-1.98226 -1.64712,-3.027 -0.25483,-0.47363 -0.46727,-0.86101 -0.47211,-0.86085 -0.005,1.6e-4 -0.24019,0.44626 -0.52302,0.99134 -0.52497,1.01173 -1.57335,2.9638 -1.59575,2.97127 -0.007,0.002 -0.19838,-0.3687 -0.42569,-0.82439 -0.4239,-0.84979 -1.60442,-3.13804 -1.61906,-3.13828 -0.004,0 -0.24216,0.4498 -0.52815,0.99973 -0.51176,0.98403 -1.57698,2.96703 -1.59382,2.96703 -0.005,0 -0.17992,-0.34344 -0.38929,-0.7632 -0.42253,-0.8471 -1.63801,-3.20242 -1.65307,-3.20326 -0.0165,-9.2e-4 -1.0496,2.00108 -1.55711,3.01732 -0.26616,0.53298 -0.48622,0.96641 -0.48901,0.96318 -0.0303,-0.0351 -1.1224,-2.07767 -1.55143,-2.90167 -0.30566,-0.58706 -0.56158,-1.06824 -0.56871,-1.06929 -0.0191,-0.003 -0.77927,1.46061 -1.45519,2.80144 l -0.59024,1.17083 -0.54952,-1.01575 c -0.30224,-0.55866 -0.77621,-1.45173 -1.05327,-1.9846 -0.27706,-0.53287 -0.50962,-0.96997 -0.5168,-0.97134 -0.0196,-0.004 -0.70133,1.30901 -1.41272,2.7205 l -0.63188,1.25373 -1.0516,-1.94168 c -0.57838,-1.06793 -1.05895,-1.9435 -1.06792,-1.94572 -0.0309,-0.008 -0.91277,1.64269 -1.47861,2.767 l -0.56663,1.12586 -0.49308,-0.9871 c -0.38233,-0.76538 -0.61973,-1.21353 -1.05695,-1.99517 -0.31013,-0.55444 -0.56839,-1.00783 -0.57391,-1.00754 -0.0154,8.1e-4 -1.22441,2.34299 -1.65351,3.20326 -0.20937,0.41976 -0.38442,0.7632 -0.38899,0.7632 -0.005,0 -0.20531,-0.39486 -0.44609,-0.87747 -0.44962,-0.90126 -1.57884,-3.08962 -1.59415,-3.0894 -0.005,0 -0.2743,0.47573 -0.59908,1.05704 -0.45298,0.81077 -0.6982,1.27271 -1.0529,1.98338 -0.25432,0.50955 -0.46613,0.92645 -0.47069,0.92645 -0.005,0 -0.21637,-0.4169 -0.47069,-0.92645 -0.36514,-0.73159 -0.57801,-1.13156 -1.01209,-1.90167 -0.30233,-0.53637 -0.55336,-0.9753 -0.55785,-0.97541 -0.004,-1.6e-4 -0.47832,1.06685 -1.05294,2.37102 -1.03961,2.35947 -1.54316,3.47705 -1.56966,3.48368 -0.008,0.002 -0.46203,-0.21241 -1.00973,-0.47628 z m 7.87685,-15.4308 c 10e-6,-0.59736 0.0169,-1.01033 0.0579,-1.4162 0.15087,-1.49436 0.59045,-2.66 1.37289,-3.64049 0.17601,-0.22056 0.61843,-0.66513 0.87108,-0.87531 1.39364,-1.15938 3.26063,-1.97881 5.12607,-2.24984 0.61048,-0.0887 1.42686,-0.1172 1.97534,-0.069 2.12084,0.18645 4.27929,1.05485 5.80356,2.33492 0.19661,0.16512 0.58562,0.54696 0.74228,0.72861 0.83177,0.96446 1.30378,2.21998 1.43629,3.82041 0.0274,0.33113 0.0492,0.9838 0.0495,1.48116 l 2.6e-4,0.45302 h -8.71759 -8.71759 l 1e-5,-0.5673 z m 16.16182,-0.77572 c 0,-0.3126 -0.0579,-0.98969 -0.1155,-1.35062 -0.17671,-1.10726 -0.59362,-1.96863 -1.26222,-2.60782 -1.25561,-1.20037 -3.53399,-2.15596 -5.5399,-2.32353 -0.33559,-0.028 -1.04911,-0.0115 -1.38621,0.0322 -1.11792,0.14474 -2.21603,0.48481 -3.2695,1.01252 -1.03343,0.51768 -1.84068,1.13375 -2.30658,1.76032 -0.43549,0.58569 -0.71683,1.31069 -0.84467,2.17671 -0.0548,0.37116 -0.11468,1.09177 -0.11488,1.38217 v 0.053 h 7.41975 7.41975 v -0.13496 z m 20.23717,1.04674 c -0.009,-0.27392 -0.0266,-4.93047 -0.0277,-7.23774 -4.9e-4,-1.02066 -0.009,-1.17909 -0.0748,-1.47683 -0.36983,-1.66072 -2.32217,-3.72181 -5.69893,-6.01638 -0.14535,-0.0988 -0.26486,-0.1906 -0.26558,-0.20406 -0.003,-0.0635 3.1258,-20.90668 3.14126,-20.92351 0.0242,-0.0263 0.36858,-0.0968 0.66828,-0.13677 0.32081,-0.0428 0.90481,-0.0588 1.21045,-0.0332 1.63249,0.13676 2.75553,0.88366 3.29617,2.19218 l 0.0586,0.14192 v 16.97706 16.97707 l -0.79585,0.0102 c -0.43772,0.006 -0.9548,0.0145 -1.14908,0.0199 l -0.35324,0.01 z m 0.75517,-23.17101 c 0.0465,-9.93631 0.0465,-9.94201 0.014,-10.00727 -0.19767,-0.39658 -0.65043,-0.683 -1.29263,-0.81774 -0.15053,-0.0316 -0.26639,-0.0435 -0.49089,-0.0505 -0.35613,-0.0111 -0.40573,-8.7e-4 -0.51677,0.10634 l -0.0789,0.0762 -1.26527,8.81776 c -0.6959,4.84977 -1.26527,8.83153 -1.26527,8.84837 0,0.021 0.0423,0.0557 0.13468,0.11055 2.29107,1.35998 3.95696,2.86258 4.62082,4.16788 l 0.0849,0.16691 0.004,-0.73829 c 0.002,-0.40605 0.0254,-5.21217 0.051,-10.68025 z m -29.4324,-3.19324 c -4.84508,-0.19865 -10.33274,-1.77611 -16.45469,-4.72999 l -0.17043,-0.0822 0.12145,-0.0563 c 0.0668,-0.031 0.25369,-0.12036 0.4153,-0.19865 1.01312,-0.49073 2.35411,-1.08737 3.43643,-1.52895 5.05765,-2.06344 9.57,-3.08331 13.6396,-3.0828 3.6903,4.7e-4 7.68305,0.81777 12.1377,2.48454 1.58394,0.59266 3.46277,1.40291 5.10158,2.20006 l 0.37548,0.18264 -0.0816,0.042 c -0.0449,0.0231 -0.28732,0.13925 -0.53872,0.25811 -5.67412,2.68248 -10.74638,4.16682 -15.28027,4.47162 -0.84516,0.0568 -1.90747,0.0725 -2.7018,0.04 z m 2.08984,-1.87611 c 3.49084,-0.15233 7.02732,-0.93484 10.82329,-2.39483 0.50946,-0.19595 1.19346,-0.47388 1.21281,-0.4928 0.0235,-0.023 -1.35463,-0.58414 -2.16783,-0.88277 -3.29552,-1.21024 -6.35517,-1.8855 -9.39508,-2.0735 -4.02233,-0.24875 -8.2713,0.4762 -12.83967,2.19069 -0.41642,0.15628 -1.28604,0.50312 -1.66457,0.6639 l -0.22797,0.0968 0.0647,0.0272 c 0.0356,0.015 0.28143,0.11413 0.5463,0.22037 3.17971,1.27546 6.23115,2.09244 9.17469,2.4564 0.77322,0.0956 1.40255,0.14642 2.40795,0.19442 0.27045,0.0129 1.72996,0.009 2.06536,-0.006 z m 1.54248,-12.2199 c -5.8811,-0.0476 -10.95677,-0.087 -11.27926,-0.0876 l -0.58633,-0.001 0.1374,-0.12525 c 0.2231,-0.20337 0.53504,-0.52165 1.00523,-1.02567 0.94564,-1.01366 1.35179,-1.34997 1.8258,-1.51185 0.14058,-0.048 0.36114,-0.0515 0.93053,-0.0148 0.46405,0.0299 1.8006,0.0318 2.26918,0.003 0.73904,-0.0451 1.25471,-0.0916 1.85114,-0.16677 0.34905,-0.044 0.875,-0.11979 0.95819,-0.13807 0.0288,-0.006 0.0521,-0.0652 0.15025,-0.37925 0.62825,-2.01025 1.77931,-6.60812 2.05194,-8.1964 l 0.0261,-0.15186 -0.11743,-0.19913 c -0.42709,-0.72418 -0.94997,-1.54586 -1.90834,-2.99887 -1.73063,-2.62388 -2.40169,-3.71107 -3.17407,-5.1424 -0.23124,-0.42851 -0.7365,-1.4432 -0.88423,-1.77575 l -0.0963,-0.21671 -0.26937,-0.23207 c -0.32039,-0.27602 -0.90804,-0.85009 -1.17374,-1.1466 -1.43847,-1.6053 -2.28056,-3.34086 -2.51501,-5.1835 -0.0993,-0.78058 -0.0859,-1.26194 0.0889,-3.1831 0.0923,-1.01479 0.13867,-1.69113 0.13888,-2.02559 l 8e-5,-0.14004 -0.25712,-0.0703 c -0.40785,-0.11159 -1.03933,-0.3228 -1.95592,-0.6542 -0.94352,-0.34114 -1.42132,-0.49751 -1.86007,-0.60872 -1.30594,-0.33103 -2.40213,-0.31498 -3.62342,0.0531 -0.0894,0.0269 -0.16454,0.0469 -0.16704,0.0444 -0.002,-0.002 0.0896,-0.2171 0.20453,-0.4769 0.44699,-1.00999 0.69908,-1.42569 1.09904,-1.8123 0.45619,-0.44097 0.90768,-0.64875 1.69766,-0.78125 0.35744,-0.06 0.72263,-0.0882 1.49121,-0.11534 0.38609,-0.0136 0.83054,-0.036 0.98767,-0.0497 0.63492,-0.0553 1.10206,-0.1633 1.56665,-0.3623 0.16799,-0.0719 0.18008,-0.0745 0.52296,-0.11136 0.19304,-0.0207 0.69626,-0.0782 1.11826,-0.1276 0.87003,-0.10192 1.1335,-0.12992 1.55089,-0.1648 1.36465,-0.11402 2.41964,-0.0598 3.34664,0.17212 0.34026,0.0851 0.61789,0.17862 0.72801,0.24519 0.54966,0.33231 1.01968,1.04718 1.37289,2.08806 0.1698,0.5004 0.2454,0.84338 0.3888,1.7639 0.11084,0.71158 0.16217,1.00267 0.2203,1.24935 0.0482,0.20448 0.15184,0.53076 0.17705,0.55722 0.0103,0.0109 0.18044,0.0855 0.37797,0.16581 2.97177,1.20833 5.31582,2.62909 7.32964,4.44258 0.61072,0.54997 0.81369,0.76373 1.85242,1.95085 1.88747,2.15711 3.52165,4.15625 6.53226,7.99112 0.52515,0.66892 1.33252,1.6974 1.79417,2.28551 3.65664,4.6583 5.79285,7.2251 8.10434,9.73791 0.44704,0.48598 0.64402,0.71994 0.85593,1.01663 0.61306,0.85834 0.80738,1.53658 0.55421,1.93438 -0.14346,0.22542 -0.44923,0.37156 -0.88281,0.42196 l -0.16762,0.0195 -0.0548,0.17087 c -0.0712,0.22176 -0.25009,0.57552 -0.38893,0.76896 -0.57702,0.804 -1.65667,1.39599 -2.992,1.64059 -0.63465,0.11624 -0.95961,0.12609 -1.49945,0.0454 -3.37232,-0.5039 -5.89232,-2.23548 -8.34988,-5.7375 -0.35987,-0.51281 -0.80519,-1.19894 -1.27767,-1.96856 -0.0487,-0.0793 -0.0547,-0.0841 -0.0619,-0.049 -0.0907,0.44506 -0.14586,0.62973 -0.25078,0.83885 -0.14049,0.28005 -0.37832,0.54147 -0.61508,0.67611 -0.25107,0.14277 -0.65261,0.24471 -0.87261,0.22154 -0.15059,-0.0159 -0.40387,-0.0803 -0.57443,-0.14619 -0.41529,-0.16039 -0.85386,-0.45425 -1.40301,-0.94009 -0.13419,-0.11872 -0.17205,-0.14484 -0.17436,-0.12027 -0.0605,0.64339 -0.16403,1.23949 -0.32306,1.85978 -0.16107,0.62826 -0.30029,1.04969 -0.78198,2.36714 l -0.20294,0.55505 0.29631,0.0103 c 1.15403,0.0401 2.81444,0.51452 3.99615,1.14186 1.01536,0.53901 1.66159,1.15789 1.91663,1.83545 0.0546,0.14511 0.0532,0.15543 -0.021,0.15283 -0.0337,-10e-4 -4.87305,-0.0411 -10.75415,-0.0886 z m 20.37716,-2.03187 c 0.67336,-0.0863 1.19435,-0.25049 1.64537,-0.51849 0.27242,-0.16186 0.58001,-0.43993 0.74878,-0.6769 l 0.0785,-0.11017 -0.0619,-0.0857 c -0.80338,-1.11208 -2.05218,-2.4072 -3.43445,-3.56187 -0.29726,-0.24831 -0.60735,-0.45891 -1.8529,-1.25838 -4.58598,-2.9436 -9.33887,-5.67347 -17.17397,-9.86408 -1.33086,-0.7118 -1.33817,-0.71561 -1.32075,-0.68687 0.0149,0.0246 0.68652,0.96126 1.39664,1.94788 1.81649,2.52373 2.84565,4.12673 3.58199,5.57914 l 0.17176,0.3388 0.0442,-0.0232 c 0.0404,-0.0212 0.24165,-0.15794 0.67459,-0.45836 0.1618,-0.11227 0.16492,-0.11359 0.19149,-0.0812 0.0148,0.0181 0.63795,0.76415 1.38465,1.65792 1.23386,1.47688 1.36354,1.62681 1.42219,1.64438 0.16066,0.0481 0.27517,0.0107 0.3661,-0.11967 0.14768,-0.21175 0.16604,-0.79722 0.0524,-1.67025 -0.0598,-0.45932 -0.35075,-3.0758 -0.34575,-3.10932 0.006,-0.037 1.46247,1.72936 1.79568,2.177 0.35066,0.47107 0.69925,0.97331 1.50345,2.16607 0.99247,1.47201 1.36725,2.00343 1.87961,2.66511 1.79229,2.31466 3.55922,3.5479 5.65731,3.94852 0.65798,0.12563 1.15202,0.15652 1.59516,0.0997 z m -19.15189,-1.29806 c 0.69799,-0.12172 1.24648,-0.6116 1.68091,-1.5013 0.2912,-0.59635 0.5088,-1.29718 0.70202,-2.26102 0.0297,-0.14815 0.0527,-0.27066 0.0512,-0.27223 -0.002,-0.002 -0.0836,0.089 -0.18226,0.20133 -0.22391,0.25483 -0.67243,0.69531 -1.00423,0.98625 -0.29529,0.25892 -0.73054,0.6192 -0.74803,0.6192 -0.007,0 -0.0546,-0.19284 -0.10659,-0.42853 -0.28434,-1.29015 -0.52787,-2.15318 -0.77043,-2.73037 l -0.0274,-0.0653 -0.16747,0.62852 c -0.2016,0.75663 -0.33399,1.22426 -0.53783,1.89979 -0.16567,0.54904 -0.21663,0.74028 -0.26808,1.00607 -0.0639,0.33018 -0.0745,0.43498 -0.0745,0.73463 0,0.25652 0.005,0.32348 0.0358,0.44448 0.10759,0.42832 0.3744,0.67211 0.81742,0.74687 0.13211,0.0223 0.44897,0.0179 0.59951,-0.008 z m 20.32111,-3.85031 c -0.0165,-0.0214 -0.15986,-0.19315 -0.31867,-0.38155 -0.73511,-0.87209 -1.36091,-1.64251 -3.0664,-3.77498 -2.32995,-2.91327 -3.17411,-3.94542 -6.85611,-8.38293 -2.87248,-3.46187 -4.22986,-5.11532 -5.53107,-6.73744 -0.32912,-0.41027 -0.39349,-0.48102 -0.69317,-0.76172 -1.28704,-1.20552 -2.58622,-2.15007 -4.16675,-3.02939 -0.40036,-0.22273 -1.4025,-0.7261 -1.83657,-0.9225 -0.46779,-0.21165 -0.96231,-0.42135 -1.50417,-0.63784 -0.27261,-0.10892 -0.53023,-0.22011 -0.5725,-0.2471 -0.1699,-0.10851 -0.34784,-0.34438 -0.45387,-0.60163 -0.14408,-0.34956 -0.2104,-0.71351 -0.29299,-1.60802 -0.0543,-0.58785 -0.0832,-0.81233 -0.1304,-1.01215 -0.017,-0.0718 -0.0535,-0.24154 -0.0813,-0.37712 -0.25041,-1.22429 -0.67894,-1.86353 -1.43004,-2.13321 -0.13988,-0.0502 -0.38344,-0.10371 -0.54135,-0.1189 l -0.11725,-0.0113 -0.0101,0.0632 c -0.0867,0.54403 -0.23968,1.00682 -0.49521,1.49828 -0.38973,0.74952 -0.95108,1.40189 -1.51592,1.7617 -0.12937,0.0824 -0.28283,0.16351 -0.29201,0.15433 -0.0102,-0.0102 -0.26838,-0.56906 -0.26838,-0.58093 0,-0.006 0.0349,-0.0296 0.0775,-0.0521 0.13624,-0.0717 0.33057,-0.22958 0.43903,-0.35669 0.42793,-0.50154 0.64997,-1.20377 0.62019,-1.96144 -0.01,-0.25207 -0.0403,-0.4926 -0.0655,-0.51777 -0.0147,-0.0147 -0.76377,0.0816 -1.70086,0.21857 -0.65895,0.0964 -0.7515,0.11321 -0.6826,0.12438 0.35995,0.0583 0.58037,0.16175 0.80347,0.37705 0.11732,0.11322 0.19865,0.22219 0.19851,0.26598 -9.4e-4,0.30682 -0.49987,0.53906 -1.08552,0.50527 -0.54452,-0.0314 -0.90305,-0.25618 -0.9479,-0.59423 -0.0103,-0.0776 -0.007,-0.0887 0.0406,-0.14906 0.10547,-0.13316 0.31354,-0.27394 0.50856,-0.34407 0.0487,-0.0175 0.0794,-0.0321 0.0681,-0.0325 -0.0978,-0.003 -1.29131,0.15079 -2.46912,0.31777 -0.98979,0.14033 -1.79851,0.25232 -1.83348,0.2539 -0.0107,4.9e-4 0.12016,0.0404 0.29076,0.0886 0.1706,0.0482 0.46341,0.14001 0.6507,0.20392 0.3143,0.10723 0.54443,0.19404 1.66321,0.6274 1.12459,0.4356 1.9158,0.64813 2.66636,0.71622 l 0.22692,0.0206 -0.005,0.13028 c -0.003,0.0717 -0.0261,0.56739 -0.0525,1.10163 -0.0748,1.51742 -0.0808,1.67734 -0.0918,2.42427 -0.0106,0.72802 0.007,1.38213 0.0522,1.95085 0.208,2.60976 1.04173,4.4203 2.64386,5.74147 0.16326,0.13463 0.39768,0.30403 0.64595,0.46677 0.25615,0.16791 0.64913,0.39529 0.66161,0.38281 0.004,-0.004 -0.0364,-0.0963 -0.0903,-0.20456 -0.28491,-0.57152 -0.46436,-1.15658 -0.54933,-1.79098 -0.0405,-0.30233 -0.0413,-0.92734 -0.002,-1.18357 0.14126,-0.90998 0.55155,-1.69195 1.27507,-2.43015 0.52878,-0.53951 1.14659,-0.9866 1.91126,-1.38311 0.73447,-0.38086 1.59867,-0.67613 1.97886,-0.67613 0.27737,0 0.21084,0.10481 -0.29335,0.4621 -0.11894,0.0843 -0.36202,0.25392 -0.54017,0.37696 -0.77179,0.53307 -1.26157,0.91602 -1.69204,1.32299 -0.72557,0.68596 -1.11952,1.2902 -1.26754,1.94418 -0.0383,0.16912 -0.038,0.73581 4.4e-4,1.09602 0.13026,1.21886 0.53175,2.19378 1.29642,3.14802 0.19765,0.24665 0.74472,0.79542 1.02345,1.02662 0.57168,0.4742 1.26018,0.94572 2.08145,1.42546 0.65167,0.38068 1.09637,0.62304 5.37095,2.92724 4.36217,2.35142 6.14572,3.34384 8.46876,4.71229 2.79344,1.64555 5.45657,3.38644 7.52165,4.91692 0.20651,0.15305 0.37793,0.27864 0.38092,0.27909 0.003,4.5e-4 -0.008,-0.0167 -0.0245,-0.0382 z m -18.83256,-1.42571 c 0.28481,-0.39173 0.37771,-0.56175 0.42207,-0.77239 0.0417,-0.1982 0.004,-0.36524 -0.12883,-0.56609 -0.0402,-0.0609 -0.20361,-0.33856 -0.36309,-0.6169 -2.14334,-3.74078 -4.25338,-6.84275 -6.40744,-9.41957 -0.25668,-0.30706 -0.64323,-0.7567 -0.82185,-0.95599 l -0.0796,-0.0888 0.0701,0.1306 c 0.25523,0.4753 0.64747,1.1533 1.02472,1.77127 0.43571,0.71372 0.81582,1.30028 2.16874,3.34664 1.07099,1.61994 1.45411,2.22611 1.97828,3.13004 0.84757,1.46164 1.4992,2.87652 1.90567,4.13777 0.0251,0.0781 0.0507,0.13886 0.0567,0.13513 0.006,-0.004 0.0846,-0.10799 0.1745,-0.2317 z m 9.41572,-35.06535 c -1.99691,-0.0659 -3.62307,-0.71537 -4.35494,-1.73921 -0.44107,-0.61705 -0.96145,-1.84646 -1.80177,-4.25675 -0.66039,-1.89418 -0.86724,-2.44801 -1.05513,-2.82502 -0.0636,-0.12774 -0.0763,-0.1426 -0.15894,-0.18704 -0.0762,-0.0409 -0.11235,-0.0493 -0.23843,-0.0549 -0.17524,-0.008 -0.29723,0.0213 -0.37831,0.0903 -0.0472,0.0402 -0.0613,0.0735 -0.1192,0.28226 -0.33149,1.1949 -0.74288,2.30138 -1.06413,2.86211 -0.32135,0.56091 -0.53749,0.7294 -0.93567,0.7294 -0.26687,0 -0.47338,-0.0522 -1.12236,-0.28351 -0.38945,-0.13883 -0.692,-0.23317 -0.70452,-0.21969 -0.003,0.003 -0.0472,0.1265 -0.0989,0.27465 -0.12149,0.34819 -0.37592,0.98512 -0.55223,1.38241 -0.30928,0.69698 -1.04289,2.14856 -1.19599,2.36652 -0.23374,0.33278 -0.75291,0.62015 -1.42627,0.78947 -0.59708,0.15014 -1.16391,0.20634 -1.92518,0.19088 -0.67218,-0.0137 -0.98492,-0.0516 -1.72567,-0.20945 l -0.0838,-0.0179 0.0451,-0.10016 c 0.0611,-0.1356 0.0729,-0.196 0.0432,-0.22069 -0.0343,-0.0285 -0.0896,-0.0105 -0.32062,0.10424 -0.19992,0.0993 -0.20805,0.10174 -0.39997,0.12021 -0.63744,0.0613 -1.30267,0.0618 -2.62834,0.002 -0.38608,-0.0175 -0.78646,-0.0324 -0.88971,-0.0332 -0.10326,-7.8e-4 -0.22815,-0.008 -0.27754,-0.0166 -0.0494,-0.008 -0.34322,-0.0221 -0.65299,-0.0305 -0.58768,-0.016 -0.71188,-0.0307 -0.79788,-0.0947 -0.0555,-0.0412 -0.0616,-0.0897 -0.0202,-0.15986 0.0183,-0.0311 0.0264,-0.0565 0.0179,-0.0565 -0.008,0 -0.0651,0.0187 -0.12577,0.0415 -0.2355,0.0887 -0.49004,0.28022 -0.80549,0.60624 -0.17553,0.18142 -0.41367,0.47086 -0.46955,0.57071 -0.0159,0.0285 -0.0181,0.0284 -0.0523,-0.003 -0.099,-0.0895 -0.13822,-0.26609 -0.12614,-0.56777 0.0214,-0.53478 0.23852,-1.09627 0.52876,-1.36753 0.24546,-0.22941 0.75739,-0.39356 1.44251,-0.46253 0.34277,-0.0345 0.56711,-0.0415 1.63251,-0.0512 0.96687,-0.009 1.26041,-0.0208 1.59986,-0.0657 0.43167,-0.0571 0.79871,-0.18951 1.00743,-0.36352 0.31705,-0.26432 1.01131,-1.61595 1.48982,-2.90048 0.58271,-1.56424 0.73536,-2.61971 0.43821,-3.02991 -0.0603,-0.0832 -0.0612,-0.0864 -0.66587,-2.36552 -1.89007,-7.12363 -2.86823,-10.45484 -3.64552,-12.41522 l -0.14888,-0.37548 -0.21302,-0.22706 c -1.89871,-2.02382 -2.66586,-3.3356 -2.92229,-4.99696 -0.0884,-0.57291 -0.0987,-0.75826 -0.098,-1.77127 5.8e-4,-0.90608 0.0199,-1.47202 0.0741,-2.17124 0.12885,-1.66242 0.81735,-3.35836 2.20269,-5.42567 0.21217,-0.31662 0.22407,-0.33089 0.31834,-0.3818 0.231,-0.12475 0.5147,-0.1749 0.84731,-0.14979 0.22785,0.0172 0.40959,0.0537 0.97478,0.19547 0.74217,0.18622 0.73601,0.18557 1.71226,0.18153 0.49268,-0.002 0.81968,-0.0233 1.17986,-0.0767 0.62216,-0.0923 1.29003,-0.26542 1.793,-0.46479 l 0.16622,-0.0659 0.11684,0.0728 c 0.51974,0.32394 1.10849,0.89412 1.58492,1.53491 1.03925,1.39781 1.87396,3.50825 2.10521,5.32273 0.0137,0.10775 0.0395,0.28406 0.0573,0.3918 0.0477,0.28901 0.0761,0.55815 0.12212,1.15908 0.0493,0.64279 0.08,0.942 0.12509,1.21622 0.0366,0.22295 0.12333,0.58117 0.17189,0.71014 0.028,0.0743 0.0373,0.0835 0.1038,0.1028 0.25909,0.0751 0.70805,0.22951 0.88196,0.3034 0.68053,0.28915 1.31828,0.67987 1.90924,1.1697 0.10326,0.0856 0.30528,0.24483 0.44894,0.35388 1.23878,0.94033 2.73701,2.41535 4.39073,4.32273 1.74703,2.01498 3.80616,4.67737 6.15517,7.95847 1.43674,2.00681 2.73532,3.87814 5.33015,7.68095 1.52211,2.23069 2.21171,3.23265 2.28051,3.31349 0.0964,0.11322 0.14095,0.22559 0.14847,0.37421 0.01,0.18988 -0.0318,0.29319 -0.17455,0.43562 -0.12458,0.12428 -0.24123,0.18567 -0.424,0.22313 -0.32444,0.0665 -0.6222,-0.103 -0.73778,-0.41998 l -0.0349,-0.0958 -0.88389,-0.55416 c -0.48613,-0.30479 -1.3356,-0.8374 -1.88771,-1.18359 -0.5521,-0.34618 -1.00619,-0.62706 -1.00909,-0.62416 -0.003,0.003 0.0859,0.12542 0.1973,0.27226 0.89015,1.17318 1.52579,2.25464 1.91349,3.25557 0.13838,0.35726 0.13458,0.48362 -0.019,0.62986 -0.12297,0.1171 -0.29754,0.18548 -0.9686,0.3794 -0.46686,0.1349 -0.75399,0.23355 -1.18357,0.40664 -1.06452,0.42891 -2.07877,0.64269 -3.30583,0.69679 -0.34895,0.0154 -0.41802,0.0159 -0.72645,0.006 z m 0.87339,-1.27948 c 0.46676,-0.0329 0.93527,-0.11913 1.46197,-0.26911 0.18775,-0.0535 2.24603,-0.72999 2.2897,-0.7526 0.009,-0.004 -0.20701,-0.42738 -0.33609,-0.65909 -0.19428,-0.34875 -0.39782,-0.68062 -0.66583,-1.08562 -0.35629,-0.53842 -0.4886,-0.72184 -1.61516,-2.23905 -0.22447,-0.3023 -0.51118,-0.69354 -0.63713,-0.86942 l -0.22901,-0.31977 -0.27707,-0.17598 c -1.11559,-0.70858 -2.2794,-1.36744 -4.75014,-2.68916 -1.66208,-0.88913 -2.86282,-1.54825 -3.51781,-1.93102 -1.77716,-1.03854 -3.63177,-2.40065 -5.77116,-4.23858 -0.81445,-0.69968 -1.35401,-1.17944 -3.07728,-2.73621 -0.93919,-0.84845 -1.33445,-1.21697 -1.59403,-1.4862 -0.53571,-0.55562 -0.83072,-0.8991 -1.02257,-1.19057 -0.27444,-0.41694 -0.32606,-0.67621 -0.16475,-0.82763 0.066,-0.0619 0.13079,-0.085 0.37615,-0.13412 1.04399,-0.2088 2.41383,-0.79637 3.82076,-1.63886 1.10035,-0.65891 2.11426,-1.40435 2.62599,-1.93066 0.10714,-0.1102 0.26645,-0.2699 0.35401,-0.35489 0.20658,-0.20051 0.23284,-0.24385 0.22625,-0.37334 -0.003,-0.058 -0.0808,-0.13422 -0.19585,-0.19169 -0.13544,-0.0677 -0.24172,-0.10204 -0.63038,-0.20398 -0.41538,-0.10895 -0.51734,-0.14144 -0.65766,-0.20961 l -0.11894,-0.0578 -0.19124,0.0908 c -0.22566,0.10717 -0.38567,0.15877 -0.49238,0.15877 -0.18035,0 -0.3286,-0.0891 -0.43501,-0.26153 l -0.06,-0.0972 -0.059,0.0513 c -0.15943,0.1386 -1.13531,1.03421 -1.25465,1.15144 -0.7361,0.72314 -1.79878,0.8936 -2.61962,0.4202 -0.0692,-0.0399 -0.14263,-0.0727 -0.16325,-0.0729 -0.0544,-5.6e-4 -0.20519,-0.066 -0.29909,-0.12978 -0.0447,-0.0303 -0.22448,-0.19561 -0.39957,-0.36724 -0.17508,-0.17164 -0.34516,-0.32461 -0.37794,-0.33995 -0.0746,-0.0349 -0.15865,-0.0357 -0.2067,-0.002 -0.0203,0.0142 -0.0661,0.0851 -0.1019,0.15755 -0.0883,0.17883 -0.18428,0.30922 -0.32768,0.44522 -0.25019,0.23728 -0.53732,0.37885 -0.94835,0.46759 -0.22182,0.0479 -0.74505,0.0597 -1.04124,0.0236 -0.29176,-0.0356 -0.61565,-0.10262 -0.68157,-0.14094 -0.0384,-0.0223 -0.0531,-0.025 -0.0531,-0.01 0,0.0433 0.30679,0.39391 0.93048,1.06338 0.65143,0.69924 1.04396,1.14016 1.50422,1.68965 2.28336,2.72603 4.23748,5.90315 5.66308,9.20734 1.14095,2.64445 1.90703,5.40552 1.85568,6.68815 l -0.009,0.23158 0.052,0.011 c 0.11184,0.0237 0.48294,0.1677 0.97431,0.378 0.94713,0.40537 1.31686,0.49353 1.58537,0.37801 0.0415,-0.0179 0.0981,-0.0559 0.12569,-0.0844 0.0625,-0.0647 0.31204,-0.57431 0.44114,-0.90088 0.27565,-0.69725 0.48031,-1.49766 0.60524,-2.36713 0.0692,-0.48173 0.0999,-0.76608 0.10719,-0.99458 0.01,-0.31129 0.0845,-0.49467 0.25613,-0.63034 0.33583,-0.26545 0.88509,-0.1492 1.13437,0.2401 0.0605,0.0944 0.13632,0.30423 0.13632,0.37709 0,0.0688 0.0498,0.10822 0.12026,0.095 0.031,-0.006 0.1543,-0.0573 0.2741,-0.11436 0.28874,-0.1376 0.35971,-0.16094 0.49535,-0.16296 0.0975,-0.001 0.12568,0.005 0.19187,0.0439 0.12415,0.073 0.17842,0.17136 0.29901,0.54209 0.0979,0.30101 0.19638,0.62612 0.79111,2.61201 0.92546,3.09025 1.54323,4.67398 2.12363,5.44424 0.48442,0.64287 1.59467,1.11586 2.92884,1.24774 0.4424,0.0437 0.85012,0.052 1.23222,0.0251 z m -16.82293,-1.22372 c 0.21593,-0.0552 0.24108,-0.0751 0.58973,-0.46524 0.42453,-0.4751 0.71446,-0.96443 1.00083,-1.68911 0.22236,-0.56273 0.55913,-1.48962 0.54551,-1.50142 -0.008,-0.007 -0.0543,-0.0286 -0.10366,-0.0488 -0.26787,-0.10985 -0.63925,-0.33391 -1.2291,-0.74153 -0.42101,-0.29094 -0.7176,-0.48401 -0.74353,-0.48401 -0.008,0 -0.0273,0.0643 -0.0429,0.1428 -0.0835,0.42065 -0.24735,1.0016 -0.39297,1.39366 -0.21527,0.57956 -0.38337,0.91411 -0.97106,1.93262 -0.2834,0.49116 -0.49758,0.91294 -0.61551,1.21213 -0.006,0.0154 0.0275,0.0204 0.13654,0.0205 0.17806,1.7e-4 0.36959,0.0304 0.71303,0.11282 0.6417,0.15402 0.87026,0.17776 1.11311,0.11565 z m 21.83263,-3.59017 c -0.0123,-0.0172 -0.1184,-0.15864 -0.23574,-0.31426 -0.39803,-0.52783 -0.7474,-1.02884 -2.3091,-3.31123 -2.60677,-3.80974 -3.85221,-5.57327 -5.44171,-7.70544 -3.07312,-4.12227 -5.54998,-6.88823 -7.44004,-8.30845 -0.26438,-0.19866 -0.65927,-0.4664 -0.81476,-0.55241 l -0.0898,-0.0497 -0.16325,0.18009 c -0.32102,0.35416 -0.87517,0.86067 -1.39465,1.27478 -1.45288,1.15818 -3.19029,2.11717 -5.0087,2.76464 -0.17276,0.0615 -0.31417,0.11689 -0.31426,0.12305 -2.5e-4,0.0173 1.80073,1.65875 2.87305,2.61857 3.44121,3.08018 6.1245,5.10168 8.79105,6.62289 0.47419,0.27051 0.98793,0.54017 1.81209,0.95117 2.6751,1.33403 4.60012,2.4633 9.3506,5.48527 0.21751,0.13836 0.3982,0.25174 0.40154,0.25195 0.003,2.1e-4 -0.004,-0.0137 -0.0163,-0.031 z m -20.24241,-1.97258 c -0.60709,-2.60547 -1.95003,-6.25785 -3.27588,-8.90941 -0.71231,-1.42453 -1.50588,-2.71174 -2.18903,-3.5507 -0.14153,-0.17382 -0.50552,-0.5877 -0.51684,-0.5877 -0.003,0 0.0237,0.0826 0.0603,0.18365 0.11986,0.33127 0.49392,1.4487 0.62162,1.85698 0.57579,1.84091 1.05815,3.63731 1.74243,6.48922 0.52453,2.18611 0.60819,2.48098 0.75791,2.67151 0.16926,0.21537 0.39025,0.37165 1.26638,0.89551 0.70413,0.42103 1.11985,0.69007 1.3713,0.88747 0.0853,0.067 0.15982,0.12242 0.1656,0.12322 0.006,8e-4 0.004,-0.0261 -0.004,-0.0598 z m -6.90015,-18.69996 c 0.32968,-0.12327 0.54123,-0.3379 1.00735,-1.02197 0.17077,-0.25062 0.35945,-0.48713 0.40148,-0.50326 0.0558,-0.0214 0.38656,0.2478 0.88152,0.71745 0.53828,0.51077 0.83179,0.69845 1.27273,0.81382 0.12353,0.0323 0.18463,0.0382 0.38364,0.0371 0.21282,-0.001 0.25072,-0.006 0.37548,-0.0468 0.38443,-0.12603 0.63199,-0.30679 1.27684,-0.93229 0.20816,-0.20191 0.44697,-0.4202 0.5307,-0.4851 l 0.15222,-0.11799 -0.007,-0.15509 c -0.004,-0.0853 -0.033,-0.29099 -0.0644,-0.4571 -0.084,-0.44429 -0.0938,-0.52473 -0.0934,-0.76322 4.8e-4,-0.23191 0.0223,-0.36094 0.0901,-0.53223 0.0545,-0.13778 0.0999,-0.32639 0.13237,-0.54928 0.0378,-0.25981 0.026,-0.80626 -0.0235,-1.08562 -0.1002,-0.5659 -0.27484,-1.09273 -0.66212,-1.99736 -0.0755,-0.17644 -0.18507,-0.4163 -0.2434,-0.53303 -0.0583,-0.11672 -0.177,-0.37751 -0.2637,-0.57954 -0.26096,-0.60812 -0.40949,-0.86307 -0.6277,-1.07745 -0.13784,-0.13543 -0.25759,-0.2134 -0.40515,-0.26378 l -0.0976,-0.0333 -0.15304,0.0604 c -0.27935,0.11031 -0.52574,0.26059 -0.78972,0.48168 -0.15199,0.1273 -0.4843,0.46266 -0.67994,0.68619 -0.50462,0.57655 -0.58732,0.66461 -0.66236,0.70524 -0.20579,0.11145 -0.43513,0.0814 -0.66477,-0.087 -0.10013,-0.0734 -0.30358,-0.27715 -0.49549,-0.49614 -0.34609,-0.39493 -0.56918,-0.60131 -0.74404,-0.68832 -0.046,-0.0229 -0.13881,-0.0954 -0.20615,-0.16101 -0.15279,-0.14896 -0.27921,-0.23707 -0.42985,-0.29959 -0.54722,-0.22713 -1.19815,-0.054 -1.55265,0.41295 -0.12572,0.16561 -0.18959,0.30592 -0.28616,0.62868 -0.0469,0.15667 -0.16201,0.50562 -0.25585,0.77544 -0.32745,0.94147 -0.42642,1.35012 -0.4565,1.88477 -0.008,0.14273 -0.006,0.19927 0.006,0.19163 0.01,-0.006 0.0669,-0.0971 0.12713,-0.20246 0.24188,-0.42295 0.46283,-0.72409 0.68021,-0.9271 0.21214,-0.19811 0.37294,-0.2609 0.71461,-0.27905 0.513,-0.0273 1.07905,0.16996 1.71971,0.59915 0.33873,0.22692 0.71647,0.52176 0.76123,0.59417 0.0566,0.0916 0.18718,0.19865 0.26674,0.21868 0.17988,0.0453 0.30337,-0.0549 0.63942,-0.51885 0.1956,-0.27003 0.36922,-0.47054 0.44771,-0.51706 0.0233,-0.0138 0.0638,-0.055 0.09,-0.0915 0.21367,-0.29805 0.56702,-0.54401 0.94822,-0.66005 0.13539,-0.0412 0.16935,-0.0448 0.43262,-0.0457 0.30807,-0.001 0.37039,0.01 0.60753,0.10698 0.12175,0.0498 0.30316,0.1621 0.39909,0.24705 0.0345,0.0305 0.17104,0.11672 0.30348,0.19154 0.26027,0.14704 0.41663,0.27329 0.47303,0.38192 0.0688,0.13262 0.0369,0.2851 -0.0962,0.45946 -0.0549,0.0719 -0.0614,0.0756 -0.11748,0.0656 -0.094,-0.0167 -0.37102,-0.16036 -0.54911,-0.28482 -0.65952,-0.46092 -0.85561,-0.55397 -1.13025,-0.53635 -0.1712,0.011 -0.30832,0.0839 -0.5349,0.28434 -0.40227,0.35588 -0.79689,0.78949 -1.08238,1.18927 -0.19656,0.27528 -0.37872,0.57771 -0.37872,0.6288 0,0.084 0.05,0.20711 0.1754,0.43233 0.07,0.12571 0.14462,0.26886 0.1658,0.31812 0.0212,0.0493 0.0551,0.11171 0.0753,0.13877 0.0781,0.10438 0.1111,0.1932 0.11867,0.31994 0.0128,0.21496 -0.0399,0.33985 -0.3238,0.76742 -0.17864,0.26899 -0.26174,0.42527 -0.29487,0.55454 -0.0114,0.0443 -0.0248,0.0803 -0.0298,0.0799 -0.0143,-0.001 -0.90729,-1.20347 -0.90494,-1.21849 10e-4,-0.007 0.0579,-0.19336 0.12599,-0.41334 0.18588,-0.60009 0.27188,-0.9093 0.27188,-0.97755 0,-0.17501 -0.11828,-0.36478 -0.33392,-0.53572 -0.0722,-0.0573 -0.27692,-0.19751 -0.45485,-0.31166 -0.17793,-0.11415 -0.3742,-0.25301 -0.43615,-0.30859 -0.61561,-0.55227 -1.43204,-0.61469 -1.90136,-0.14538 -0.22062,0.22063 -0.3219,0.44384 -0.36763,0.81027 -0.0163,0.13053 -0.0418,0.28428 -0.0566,0.34166 -0.0765,0.29533 -0.24144,0.43922 -0.48334,0.42172 -0.0804,-0.006 -0.0963,-0.003 -0.0963,0.0192 0,0.0144 0.0111,0.19851 0.0246,0.40917 0.0898,1.39684 0.18876,1.9449 0.50996,2.82463 0.13616,0.37291 0.27694,0.54244 0.5752,0.69264 0.22233,0.11196 0.49712,0.17906 1.07484,0.26243 0.16449,0.0237 0.38855,0.0642 0.49791,0.0899 0.1723,0.0404 0.22499,0.046 0.39474,0.0415 0.16097,-0.004 0.21553,-0.0125 0.30596,-0.0463 z m -1.65278,-4.60851 c -0.22919,-0.063 -0.40351,-0.19606 -0.44151,-0.33692 -0.075,-0.27797 0.20681,-0.62268 0.61813,-0.75619 0.15794,-0.0513 0.30471,1.8e-4 0.57841,0.20276 0.14857,0.10996 0.16875,0.11976 0.30301,0.14727 0.0791,0.0162 0.17437,0.0451 0.21169,0.0641 0.19982,0.10195 0.10059,0.27169 -0.26233,0.44875 -0.40191,0.19608 -0.80044,0.28717 -1.0074,0.23025 z m 4.24452,-0.13088 c -0.31867,-0.0623 -0.48318,-0.21013 -0.44658,-0.40121 0.0411,-0.21445 0.32374,-0.52074 0.66394,-0.71943 0.10719,-0.0626 0.11859,-0.0657 0.20509,-0.0555 0.0555,0.007 0.21188,0.059 0.39658,0.13309 0.42002,0.16847 0.54052,0.17662 0.72963,0.0494 0.0923,-0.0621 0.10017,-0.057 0.10017,0.0657 0,0.14832 -0.10765,0.30882 -0.3088,0.46039 -0.24197,0.18233 -0.60218,0.35233 -0.91725,0.4329 -0.20379,0.0521 -0.29551,0.0597 -0.42278,0.0348 z m 4.93017,3.0897 c 0,-0.0115 -0.0144,-0.1235 -0.032,-0.24896 -0.0582,-0.41512 -0.11323,-0.90259 -0.21282,-1.8851 -0.1293,-1.27556 -0.24477,-2.21475 -0.32818,-2.66915 -0.0777,-0.42323 -0.22504,-0.92284 -0.41167,-1.39579 -0.11894,-0.30141 -0.42887,-0.93002 -0.61573,-1.24887 -0.31646,-0.53998 -0.81744,-1.24618 -1.29899,-1.83111 -0.13182,-0.16013 -0.24074,-0.29264 -0.24203,-0.29445 -0.001,-0.002 -0.11595,0.0336 -0.2548,0.0787 -0.62768,0.20377 -1.30002,0.32873 -2.01237,0.37402 -0.23492,0.0149 -0.96644,0.0235 -1.43164,0.0167 -0.18956,-0.003 -0.37685,-0.0361 -0.83184,-0.14824 -0.2131,-0.0525 -0.45287,-0.10692 -0.53284,-0.12091 -0.17791,-0.0311 -0.44353,-0.0327 -0.55352,-0.003 -0.24052,0.0642 -0.41406,0.23356 -0.5097,0.49729 -0.0217,0.06 -0.0682,0.14708 -0.10333,0.1936 -0.20415,0.27061 -0.16507,0.3167 0.19538,0.23041 0.11843,-0.0283 0.20406,-0.0374 0.35235,-0.0373 0.18738,1.7e-4 0.203,0.003 0.35915,0.0624 0.50527,0.1927 1.00706,0.51085 1.51824,0.9626 0.0808,0.0714 0.3133,0.29041 0.51666,0.48666 l 0.36974,0.35681 0.30649,-0.3466 c 0.87817,-0.99308 1.40388,-1.38453 2.10072,-1.56421 0.2736,-0.0705 0.59241,0.0101 0.87266,0.22078 0.40348,0.30331 0.73772,0.89742 1.57565,2.80075 0.4561,1.03603 0.64996,1.70466 0.69826,2.40835 0.0218,0.31723 10e-4,0.60054 -0.0636,0.88116 -0.15226,0.65798 -0.18907,1.24773 -0.10027,1.60618 0.0828,0.33433 0.27389,0.54921 0.54759,0.61586 0.10792,0.0263 0.12243,0.0265 0.12243,0.002 z"
       id="path1214" />
  </g>
</svg>
