<?xml version="1.0" encoding="UTF-8" standalone="no"?>
<!-- Created with Inkscape (http://www.inkscape.org/) -->

<svg
   width="1080"
   height="1920"
   viewBox="0 0 285.75001 508"
   version="1.1"
   id="svg5"
   inkscape:export-filename="/Users/albertotomasoni/ALBERTO.png"
   inkscape:export-xdpi="96"
   inkscape:export-ydpi="96"
   inkscape:version="1.1.1 (c3084ef, 2021-09-22)"
   sodipodi:docname="Mattia.svg"
   xmlns:inkscape="http://www.inkscape.org/namespaces/inkscape"
   xmlns:sodipodi="http://sodipodi.sourceforge.net/DTD/sodipodi-0.dtd"
   xmlns="http://www.w3.org/2000/svg"
   xmlns:svg="http://www.w3.org/2000/svg">
  <sodipodi:namedview
     id="namedview7"
     pagecolor="#ffffff"
     bordercolor="#666666"
     borderopacity="1.0"
     inkscape:pageshadow="2"
     inkscape:pageopacity="0.0"
     inkscape:pagecheckerboard="0"
     inkscape:document-units="px"
     showgrid="false"
     units="px"
     inkscape:zoom="0.24661248"
     inkscape:cx="411.5769"
     inkscape:cy="802.87908"
     inkscape:window-width="1440"
     inkscape:window-height="900"
     inkscape:window-x="0"
     inkscape:window-y="0"
     inkscape:window-maximized="0"
     inkscape:current-layer="g2878" />
  <defs
     id="defs2" />
  <g
     inkscape:label="ALBERTO"
     inkscape:groupmode="layer"
     id="g2878">
    <g
       aria-label="mattia"
       transform="matrix(2.7839642,0,0,2.7839642,-1008.2442,-810.36416)"
       id="text2874"
       style="font-weight:500;font-size:19.0077px;line-height:1.25;font-family:'Helvetica Neue';-inkscape-font-specification:'Helvetica Neue Medium';text-align:center;text-anchor:middle;white-space:pre;inline-size:858.441;stroke-width:1.51181;stroke-linecap:round;paint-order:markers fill stroke;stop-color:#000000">
      <path
         d="m 401.53228,310.24255 v 13.30539 h -2.09085 v -6.63368 l -1.69168,4.54284 h -1.2165 l -1.69168,-4.54284 v 6.63368 h -2.09085 v -13.30539 h 1.19749 l 3.19329,7.37499 3.19329,-7.37499 z"
         style="font-weight:normal;font-family:Bison;-inkscape-font-specification:Bison"
         id="path1198" />
      <path
         d="m 407.46209,321.43809 h -2.39497 l -0.38016,2.10985 h -2.12886 l 2.66108,-13.30539 h 2.09085 l 2.66107,13.30539 h -2.12886 z m -0.36115,-2.09085 -0.83634,-4.77093 -0.83634,4.77093 z"
         style="font-weight:normal;font-family:Bison;-inkscape-font-specification:Bison"
         id="path1200" />
      <path
         d="m 416.05179,312.3334 h -2.12887 v 11.21454 h -2.09084 V 312.3334 h -2.12887 v -2.09085 h 6.34858 z"
         style="font-weight:normal;font-family:Bison;-inkscape-font-specification:Bison"
         id="path1202" />
      <path
         d="m 422.77131,312.3334 h -2.12887 v 11.21454 H 418.5516 V 312.3334 h -2.12887 v -2.09085 h 6.34858 z"
         style="font-weight:normal;font-family:Bison;-inkscape-font-specification:Bison"
         id="path1204" />
      <path
         d="m 425.80333,310.24255 h -2.09085 v 13.30539 h 2.09085 z"
         style="font-weight:normal;font-family:Bison;-inkscape-font-specification:Bison"
         id="path1206" />
      <path
         d="m 431.70433,321.43809 h -2.39497 l -0.38015,2.10985 h -2.12886 l 2.66107,-13.30539 h 2.09085 l 2.66108,13.30539 h -2.12886 z m -0.36114,-2.09085 -0.83634,-4.77093 -0.83634,4.77093 z"
         style="font-weight:normal;font-family:Bison;-inkscape-font-specification:Bison"
         id="path1208" />
    </g>
    <path
       style="fill=currentColor;stroke-width:0.0163251"
       d="m 112.57565,315.84977 v -1.08562 l 11.65202,-0.002 c 11.52481,-0.002 11.65006,-0.002 11.47245,-0.0329 -1.03135,-0.17914 -1.46367,-0.26231 -2.16307,-0.41613 -7.3812,-1.62343 -13.31566,-5.01193 -16.92277,-9.6627 -0.58953,-0.76011 -1.15706,-1.61762 -1.63138,-2.46495 -0.17999,-0.32154 -0.53255,-1.02337 -0.68887,-1.37131 -0.96808,-2.15479 -1.51184,-4.38173 -1.6702,-6.8402 -0.0104,-0.16162 -0.0255,-0.2963 -0.0335,-0.29929 -0.0195,-0.007 -0.0195,-155.85821 -4e-5,-155.85821 0.008,0 0.0194,-0.0679 0.0253,-0.15101 0.0953,-1.34139 0.25224,-2.36665 0.53277,-3.48132 0.94755,-3.76505 3.04602,-7.04208 6.25242,-9.76392 4.4323,-3.76249 10.87447,-6.28349 18.22572,-7.13222 0.32017,-0.037 10.17684,-0.037 10.49702,0 5.49808,0.63478 10.54357,2.21735 14.58645,4.5752 2.81155,1.63973 5.10287,3.62437 6.81768,5.90519 1.59143,2.11671 2.67364,4.4837 3.2207,7.04426 0.19381,0.90714 0.30749,1.74717 0.38608,2.85281 0.006,0.0831 0.0173,0.15101 0.0253,0.15101 0.0195,0 0.0195,155.85094 0,155.85821 -0.008,0.003 -0.0232,0.13767 -0.0336,0.29929 -0.17664,2.74236 -0.84056,5.23076 -2.01667,7.55851 -1.29492,2.5629 -3.16736,4.82497 -5.61609,6.78474 -3.45195,2.76268 -7.99905,4.82482 -13.16618,5.97095 -0.7619,0.169 -1.32362,0.27731 -2.36713,0.45648 -0.0568,0.01 4.19319,0.0161 11.56223,0.0174 l 11.65202,0.002 v 1.08562 1.08561 h -30.29934 -30.29933 v -1.08561 z m 32.01347,-2.7337 c 1.24172,-0.0564 2.21654,-0.13237 3.26502,-0.25432 6.672,-0.77598 12.49854,-3.06085 16.61449,-6.51537 3.09599,-2.59846 5.1445,-5.80235 6.02707,-9.4264 0.24596,-1.00999 0.38062,-1.88157 0.47027,-3.04376 0.0277,-0.35881 0.029,-3.82544 0.029,-78.091 0,-62.65738 -0.004,-77.77087 -0.0207,-78.0012 -0.10152,-1.39909 -0.31601,-2.57779 -0.69184,-3.8019 -0.61505,-2.00328 -1.66091,-3.91554 -3.05904,-5.59318 -0.68243,-0.81886 -1.59664,-1.73375 -2.43192,-2.43375 -1.65022,-1.38294 -3.61809,-2.6012 -5.78201,-3.57951 -3.34341,-1.51155 -7.17198,-2.51653 -11.29402,-2.96462 -2.50209,-0.272 -5.20561,-0.32867 -7.77889,-0.16306 -7.38749,0.47543 -14.01571,2.74468 -18.53387,6.34528 -1.06017,0.84487 -2.06087,1.81763 -2.87595,2.79566 -1.39813,1.67764 -2.444,3.5899 -3.05905,5.59318 -0.37583,1.22411 -0.59032,2.40281 -0.69183,3.8019 -0.0167,0.23033 -0.0207,15.34382 -0.0207,78.0012 0,74.26556 0.001,77.73219 0.029,78.091 0.0897,1.16219 0.22431,2.03377 0.47027,3.04376 1.02579,4.21218 3.6229,7.84581 7.60044,10.63377 4.20362,2.94645 9.81796,4.83988 16.05328,5.41395 0.88937,0.0819 1.81342,0.13521 2.95483,0.17049 0.34241,0.0106 2.3684,-0.006 2.72629,-0.0221 z m -6.59533,-19.55024 c -5.77785,-0.0471 -10.50801,-0.0865 -10.51146,-0.0876 -0.003,-10e-4 0.0772,-0.081 0.1791,-0.17748 0.23441,-0.22193 0.54959,-0.54622 0.99539,-1.02421 0.63269,-0.67837 0.95876,-0.98312 1.28653,-1.20248 0.19682,-0.13172 0.27581,-0.17341 0.44075,-0.23262 0.19513,-0.07 0.30506,-0.0784 0.66226,-0.0506 0.92149,0.072 2.27211,0.0585 3.38856,-0.0337 0.56257,-0.0465 1.48397,-0.15947 1.93627,-0.23748 l 0.0997,-0.0172 0.0441,-0.14159 c 0.0243,-0.0779 0.0807,-0.25911 0.12541,-0.40277 0.58063,-1.86581 1.68433,-6.29247 1.98962,-7.9798 l 0.0349,-0.19273 -0.0769,-0.13377 c -0.32843,-0.57111 -1.03598,-1.68649 -1.89199,-2.98249 -1.23413,-1.86847 -1.77616,-2.71633 -2.33778,-3.65682 -0.68839,-1.15279 -1.31387,-2.33072 -1.78141,-3.3548 l -0.0969,-0.21223 -0.28302,-0.24487 c -1.03333,-0.89406 -1.88528,-1.90361 -2.52113,-2.98749 -0.17158,-0.29249 -0.45961,-0.87574 -0.58682,-1.18831 -0.4706,-1.15628 -0.68897,-2.44012 -0.61285,-3.6031 0.0316,-0.48199 0.0683,-0.94056 0.13093,-1.63251 0.10312,-1.13984 0.14647,-1.76326 0.14668,-2.10939 l 8e-5,-0.14221 -0.0694,-0.0185 c -0.2388,-0.0636 -0.71965,-0.20842 -0.99379,-0.2994 -0.25874,-0.0859 -1.69311,-0.59755 -1.92559,-0.68691 -0.3313,-0.12735 -1.1727,-0.36198 -1.58041,-0.4407 -0.47736,-0.0922 -0.70672,-0.11338 -1.2344,-0.11413 -0.49752,-7.2e-4 -0.63512,0.009 -1.02848,0.0742 -0.2142,0.0354 -0.71209,0.15482 -0.90604,0.21735 -0.0673,0.0217 -0.1244,0.0376 -0.12679,0.0352 -0.01,-0.009 0.43495,-0.99667 0.55209,-1.22609 0.39058,-0.76499 0.79468,-1.21074 1.38867,-1.53184 0.1599,-0.0864 0.34661,-0.15351 0.61847,-0.22218 0.53059,-0.13403 0.95084,-0.17817 2.02431,-0.21263 1.25501,-0.0403 1.81909,-0.13343 2.46508,-0.40706 0.1687,-0.0715 0.20761,-0.0814 0.38364,-0.0983 0.10775,-0.0103 0.56689,-0.0622 1.02032,-0.11526 1.76734,-0.20693 2.23808,-0.24456 3.05624,-0.24428 0.72168,2.4e-4 1.2155,0.0438 1.77459,0.15668 0.313,0.0632 0.73412,0.17986 0.89958,0.24927 0.61831,0.2594 1.22521,1.18282 1.58925,2.41813 0.13423,0.45546 0.1777,0.67518 0.33648,1.70063 0.0875,0.56528 0.14006,0.84966 0.20603,1.11544 0.0506,0.20391 0.13186,0.45287 0.15809,0.48447 0.0109,0.0131 0.21452,0.10345 0.45245,0.2007 2.86587,1.17123 5.2046,2.582 7.14222,4.30835 0.66522,0.59268 0.9341,0.87378 1.99287,2.0834 2.00211,2.28736 3.62084,4.2796 7.54081,9.28081 2.7937,3.56428 4.25184,5.37991 5.72939,7.13405 1.1107,1.31863 2.16985,2.52503 3.16026,3.59968 0.57448,0.62333 0.82674,0.94294 1.08883,1.37947 0.59208,0.98615 0.53201,1.63688 -0.17324,1.87675 -0.10199,0.0347 -0.31153,0.0754 -0.50829,0.0988 l -0.0738,0.009 -0.0551,0.17118 c -0.21557,0.66953 -0.70432,1.2578 -1.39772,1.68232 -0.73691,0.45117 -1.66847,0.73425 -2.70826,0.82299 -0.17507,0.0149 -0.24893,0.0136 -0.43261,-0.008 -2.34657,-0.27731 -4.26764,-1.14213 -6.04955,-2.72336 -0.2117,-0.18786 -0.72972,-0.69994 -0.96121,-0.9502 -0.92966,-1.00504 -1.89331,-2.32834 -2.90864,-3.99421 -0.053,-0.087 -0.0988,-0.15582 -0.10166,-0.15293 -0.003,0.003 -0.023,0.0929 -0.0448,0.20017 -0.18747,0.92395 -0.66169,1.42696 -1.45695,1.5454 -0.17923,0.0267 -0.27571,0.0196 -0.51806,-0.0379 -0.50551,-0.12003 -1.03113,-0.43718 -1.68612,-1.01733 -0.10132,-0.0897 -0.18643,-0.16036 -0.18914,-0.15691 -0.003,0.003 -0.0141,0.0981 -0.0252,0.2103 -0.0449,0.45086 -0.15272,1.06744 -0.27128,1.55129 -0.14364,0.58621 -0.32316,1.13963 -0.74125,2.2851 l -0.27707,0.75912 0.32986,0.0105 c 0.75977,0.0242 1.84297,0.26579 2.81513,0.62791 1.43378,0.53409 2.43312,1.22171 2.89201,1.98993 0.091,0.15236 0.18059,0.34893 0.20644,0.45302 l 0.0111,0.0449 -0.8221,-0.002 c -0.45215,-0.001 -5.54944,-0.0407 -11.32729,-0.0878 z m 21.53513,-1.99989 c 1.16753,-0.11467 2.03124,-0.51352 2.52992,-1.16834 0.0747,-0.0981 0.11111,-0.15928 0.10301,-0.17312 -0.0225,-0.0384 -0.3526,-0.47542 -0.45394,-0.60095 -0.66874,-0.82836 -1.59664,-1.78299 -2.52439,-2.59715 -0.52777,-0.46314 -0.79306,-0.67434 -1.10172,-0.87703 -4.79374,-3.14812 -9.8893,-6.10677 -17.94942,-10.42205 -1.5474,-0.82846 -1.79894,-0.96185 -1.80396,-0.95665 -0.006,0.006 -0.0315,-0.0305 0.78944,1.11152 1.3102,1.82254 1.75608,2.45517 2.24361,3.18332 0.82433,1.23118 1.37139,2.1395 1.92163,3.19055 l 0.20683,0.39509 0.16187,-0.10741 c 0.089,-0.0591 0.28087,-0.19095 0.4263,-0.29305 0.14543,-0.10211 0.27141,-0.18565 0.27994,-0.18565 0.009,0 0.63011,0.73646 1.38124,1.63659 0.75115,0.90013 1.38918,1.65124 1.41787,1.66914 0.0383,0.0239 0.0807,0.0326 0.15947,0.0326 0.0926,0 0.11561,-0.006 0.16757,-0.0458 0.1309,-0.0997 0.18847,-0.2943 0.20176,-0.68176 0.0107,-0.31198 -0.009,-0.59805 -0.0775,-1.1334 -0.0632,-0.49262 -0.34447,-3.04529 -0.33776,-3.06539 0.006,-0.0184 1.50702,1.80157 1.72016,2.08589 0.39427,0.52594 0.75566,1.04531 1.5733,2.26102 0.86223,1.28201 1.15465,1.7015 1.62161,2.32632 1.25707,1.68201 2.4217,2.78088 3.70054,3.49163 0.86365,0.47999 1.81286,0.78097 2.80982,0.89096 0.46208,0.051 0.59622,0.0563 0.83285,0.0331 z m -19.01611,-1.31371 c 0.98725,-0.14882 1.70532,-1.05721 2.18261,-2.76113 0.037,-0.13194 0.0857,-0.31768 0.1083,-0.41278 0.0548,-0.23064 0.18472,-0.85667 0.17895,-0.86243 -0.003,-0.003 -0.0443,0.0414 -0.0927,0.0976 -0.40221,0.46616 -0.89411,0.93365 -1.57309,1.49498 -0.14317,0.11838 -0.26481,0.21522 -0.27032,0.21522 -0.006,0 -0.0416,-0.1451 -0.0801,-0.32242 -0.19818,-0.9113 -0.36223,-1.56336 -0.51852,-2.06104 -0.0942,-0.29985 -0.27888,-0.81188 -0.29691,-0.82302 -0.006,-0.004 -0.0831,0.26644 -0.17184,0.60006 -0.18696,0.70306 -0.34193,1.24943 -0.55618,1.96079 -0.26145,0.86809 -0.32717,1.21103 -0.32551,1.69859 9e-4,0.26478 0.006,0.3293 0.0364,0.44078 0.1,0.36952 0.30524,0.59469 0.63123,0.69258 0.22657,0.068 0.4812,0.0824 0.74775,0.0422 z m 20.06391,-4.20665 c -0.71617,-0.84872 -1.36775,-1.65108 -3.13976,-3.86628 -2.27654,-2.8459 -3.11302,-3.86896 -6.58718,-8.05642 -3.08041,-3.71287 -4.4355,-5.36282 -5.76529,-7.01979 -0.39181,-0.48821 -0.69744,-0.79257 -1.39325,-1.38749 -1.87415,-1.60241 -3.93922,-2.80396 -6.76542,-3.93642 -0.27761,-0.11124 -0.53841,-0.22178 -0.57954,-0.24565 -0.17616,-0.10221 -0.3695,-0.35217 -0.47366,-0.61234 -0.14615,-0.3651 -0.21995,-0.76894 -0.29482,-1.61332 -0.0486,-0.54828 -0.0763,-0.76092 -0.1327,-1.02032 -0.14013,-0.64421 -0.16866,-0.76526 -0.22116,-0.9385 -0.26898,-0.88759 -0.71383,-1.39667 -1.39256,-1.5936 -0.15117,-0.0439 -0.39816,-0.0879 -0.49358,-0.088 -0.0556,0 -0.0612,0.004 -0.0692,0.053 -0.0364,0.22201 -0.0495,0.2871 -0.0913,0.45387 -0.28907,1.15321 -1.12372,2.33972 -2.0148,2.86415 -0.0834,0.0491 -0.16189,0.0932 -0.17449,0.098 -0.0166,0.006 -0.0609,-0.0731 -0.16039,-0.28737 -0.12334,-0.26567 -0.13469,-0.29805 -0.11026,-0.31457 0.015,-0.0101 0.0733,-0.0441 0.12968,-0.0755 0.14321,-0.0799 0.4253,-0.36217 0.54246,-0.54285 0.31367,-0.48372 0.46891,-1.09056 0.44373,-1.7345 -0.009,-0.21839 -0.0429,-0.50566 -0.0623,-0.52181 -0.0106,-0.009 -0.99515,0.12227 -1.72651,0.22987 l -0.75817,0.11153 0.1462,0.0196 c 0.1825,0.0244 0.38313,0.0967 0.53992,0.19441 0.13204,0.0823 0.30374,0.24227 0.37404,0.3485 0.0431,0.0651 0.0441,0.0713 0.0252,0.15582 -0.0943,0.42123 -1.09279,0.59515 -1.67138,0.29111 -0.20497,-0.10771 -0.32206,-0.26193 -0.3476,-0.45782 l -0.0112,-0.0859 0.12131,-0.11816 c 0.13223,-0.12881 0.25201,-0.20708 0.40969,-0.26771 l 0.10178,-0.0391 -0.12244,0.01 c -0.23894,0.0188 -1.31357,0.15862 -2.4406,0.31765 -0.62851,0.0887 -1.2603,0.17674 -1.40396,0.19567 -0.38202,0.0503 -0.37716,0.0433 -0.0853,0.12427 0.51619,0.14327 0.9798,0.30705 2.02453,0.71522 1.42861,0.55815 2.17946,0.76934 3.00034,0.84392 l 0.22161,0.0201 -0.006,0.12385 c -0.003,0.0681 -0.0238,0.48383 -0.0457,0.92379 -0.0924,1.85123 -0.0955,1.94583 -0.0963,2.91403 -7.4e-4,0.94572 0.0105,1.26489 0.0645,1.82841 0.13096,1.36768 0.40279,2.40789 0.88095,3.37113 0.48927,0.9856 1.20523,1.81694 2.13597,2.4802 0.28977,0.20649 0.92487,0.59096 0.92487,0.55989 0,-0.004 -0.0544,-0.12049 -0.12079,-0.2586 -0.29276,-0.60862 -0.4515,-1.14846 -0.53465,-1.81832 -0.0321,-0.25848 -0.0271,-0.87502 0.009,-1.1101 0.19998,-1.30142 0.99221,-2.40693 2.40131,-3.3509 0.67007,-0.44889 1.56902,-0.86441 2.2684,-1.04854 0.33351,-0.0878 0.58963,-0.11214 0.64086,-0.0609 0.0641,0.0641 -0.0786,0.18869 -0.73802,0.64443 -0.24243,0.16755 -0.53261,0.37039 -0.64484,0.45077 -1.39986,1.00243 -2.18137,1.85135 -2.47139,2.68457 -0.11182,0.32126 -0.13822,0.57534 -0.10987,1.0575 0.0629,1.06972 0.31998,1.94273 0.81438,2.76566 0.71172,1.18462 1.84771,2.16345 3.832,3.30184 0.60858,0.34915 1.16014,0.64893 5.24035,2.84826 4.18864,2.25778 6.10135,3.32129 8.24416,4.58398 2.93022,1.72667 5.49983,3.40281 7.64014,4.98363 0.20651,0.15254 0.37794,0.27505 0.38095,0.27226 0.003,-0.003 -0.13295,-0.16913 -0.30214,-0.36964 z m -18.57088,-1.0298 c 0.30625,-0.41826 0.41074,-0.60545 0.45457,-0.81436 0.0432,-0.20612 0.007,-0.35975 -0.13791,-0.5832 -0.0445,-0.0686 -0.15611,-0.25699 -0.24811,-0.4186 -2.33688,-4.10553 -4.71028,-7.54625 -7.10004,-10.29296 -0.31804,-0.36555 -0.32684,-0.37421 -0.26522,-0.2612 0.76328,1.39983 1.27791,2.22823 3.00698,4.84038 1.11262,1.68087 1.48456,2.26191 1.96983,3.07728 0.9299,1.56242 1.59862,2.96262 2.04072,4.27295 0.0704,0.20867 0.12908,0.37948 0.13038,0.37956 10e-4,0 0.0683,-0.0899 0.1488,-0.19985 z m -22.92777,-35.92332 c 0.009,-0.80002 0.0246,-1.09241 0.0845,-1.58133 0.18023,-1.47259 0.65014,-2.66913 1.43857,-3.6631 0.20141,-0.25392 0.69497,-0.75364 0.97022,-0.98233 0.94638,-0.7863 2.08089,-1.42569 3.32293,-1.87274 1.47748,-0.5318 2.95284,-0.74757 4.35744,-0.63728 2.40184,0.18859 4.95162,1.26782 6.60081,2.79388 1.14528,1.05977 1.78987,2.40139 2.01804,4.20019 0.0613,0.48357 0.0777,0.80205 0.086,1.67741 l 0.008,0.87747 h -9.44801 -9.448 z m 17.51592,-0.48976 c 0.008,-0.0168 -0.0149,-0.53357 -0.0366,-0.81217 -0.1483,-1.9066 -0.68611,-3.04279 -1.89441,-4.00221 -1.24373,-0.98756 -3.15931,-1.79203 -4.90901,-2.06159 -0.49386,-0.0761 -0.67947,-0.0895 -1.23687,-0.0895 -0.57368,0 -0.76764,0.0148 -1.28109,0.0977 -2.02929,0.32783 -4.18407,1.35608 -5.3389,2.5477 -0.77857,0.80337 -1.1864,1.80958 -1.32916,3.27933 -0.0277,0.28502 -0.0583,0.78322 -0.0583,0.94866 v 0.10431 h 8.03913 c 4.42153,0 8.04187,-0.006 8.04522,-0.0122 z m 17.57235,1.16725 c -0.19145,-0.35509 -7.76677,-14.90441 -7.76221,-14.90826 0.003,-0.002 0.66819,-0.007 1.47847,-0.0107 l 1.47323,-0.006 3.91752,7.51769 3.91753,7.5177 -0.61567,0.01 c -0.33862,0.005 -1.00281,0.011 -1.47597,0.0122 l -0.86029,0.002 z m 5.65075,-7.39526 c -2.15179,-4.12351 -3.91471,-7.50831 -3.9176,-7.52178 -0.005,-0.0216 0.16732,-0.0245 1.47098,-0.0245 h 1.47623 l 3.91433,7.50954 c 2.15287,4.13024 3.91468,7.51504 3.91512,7.52177 4.4e-4,0.007 -0.66239,0.0122 -1.47296,0.0122 h -1.47375 z m -40.74382,-7.00346 c 3.2e-4,-0.83817 0.0259,-1.29181 0.10731,-1.90203 0.23484,-1.76041 0.91759,-3.16496 2.04736,-4.21181 0.51953,-0.48139 1.10219,-0.91081 1.75495,-1.29338 0.29466,-0.1727 1.03729,-0.54018 1.36748,-0.67669 1.10694,-0.45764 2.22015,-0.73564 3.38311,-0.84485 0.34579,-0.0325 1.29872,-0.0277 1.657,0.008 1.42955,0.14363 2.82035,0.54808 4.12208,1.19872 1.37193,0.68573 2.49559,1.57594 3.15389,2.49864 0.63259,0.88664 1.02027,1.92323 1.18714,3.17416 0.0834,0.62528 0.10719,1.06089 0.10739,1.96733 l 1.7e-4,0.70605 h -9.44406 -9.44406 l 2.4e-4,-0.62443 z m 17.52507,-0.72647 c -0.004,-0.0247 -0.0113,-0.17242 -0.0166,-0.32829 -0.054,-1.59549 -0.39522,-2.73771 -1.08078,-3.61829 -1.08351,-1.39172 -3.75243,-2.67037 -6.13429,-2.93886 -0.52325,-0.059 -1.17981,-0.059 -1.6985,0 -2.10104,0.23911 -4.46477,1.29445 -5.72195,2.55468 -0.72832,0.73017 -1.14693,1.64546 -1.3292,2.9064 -0.0487,0.33681 -0.10739,1.088 -0.10739,1.37419 v 0.0951 h 8.04785 8.04785 z m 2.72594,-12.64884 c -5.8811,-0.0476 -10.95677,-0.087 -11.27926,-0.0876 l -0.58633,-0.001 0.1374,-0.12525 c 0.2231,-0.20337 0.53504,-0.52165 1.00523,-1.02567 0.94564,-1.01366 1.35179,-1.34997 1.8258,-1.51185 0.14058,-0.048 0.36114,-0.0515 0.93053,-0.0148 0.46405,0.0299 1.8006,0.0318 2.26918,0.003 0.73904,-0.0451 1.25471,-0.0916 1.85114,-0.16677 0.34905,-0.044 0.875,-0.11978 0.95819,-0.13807 0.0288,-0.006 0.0521,-0.0652 0.15025,-0.37925 0.62825,-2.01025 1.77931,-6.60812 2.05194,-8.1964 l 0.0261,-0.15186 -0.11743,-0.19913 c -0.42709,-0.72418 -0.94997,-1.54586 -1.90834,-2.99887 -1.73063,-2.62388 -2.40169,-3.71107 -3.17407,-5.1424 -0.23124,-0.42851 -0.7365,-1.44319 -0.88423,-1.77575 l -0.0963,-0.21671 -0.26937,-0.23207 c -0.32039,-0.27602 -0.90804,-0.85009 -1.17374,-1.1466 -1.43847,-1.6053 -2.28056,-3.34086 -2.51501,-5.1835 -0.0993,-0.78058 -0.0859,-1.26194 0.0889,-3.1831 0.0923,-1.01479 0.13867,-1.69112 0.13888,-2.02558 l 8e-5,-0.14004 -0.25712,-0.0703 c -0.40785,-0.11159 -1.03933,-0.3228 -1.95592,-0.6542 -0.94352,-0.34114 -1.42132,-0.49751 -1.86007,-0.60872 -1.30594,-0.33103 -2.40213,-0.31497 -3.62342,0.0531 -0.0894,0.0269 -0.16454,0.0469 -0.16704,0.0444 -0.002,-0.002 0.0896,-0.2171 0.20453,-0.4769 0.44699,-1.00999 0.69908,-1.42569 1.09904,-1.8123 0.45619,-0.44097 0.90768,-0.64875 1.69766,-0.78125 0.35744,-0.06 0.72263,-0.0882 1.49121,-0.11534 0.38609,-0.0136 0.83054,-0.036 0.98767,-0.0497 0.63492,-0.0553 1.10206,-0.1633 1.56665,-0.36229 0.16799,-0.0719 0.18008,-0.0745 0.52296,-0.11137 0.19304,-0.0207 0.69626,-0.0782 1.11826,-0.12759 0.87003,-0.10193 1.1335,-0.12993 1.55089,-0.1648 1.36465,-0.11403 2.41964,-0.0598 3.34664,0.17211 0.34026,0.0851 0.61789,0.17862 0.72801,0.2452 0.54966,0.33231 1.01968,1.04717 1.37289,2.08805 0.1698,0.5004 0.2454,0.84338 0.38879,1.7639 0.11085,0.71159 0.16217,1.00267 0.2203,1.24935 0.0482,0.20448 0.15185,0.53076 0.17705,0.55722 0.0103,0.0109 0.18045,0.0855 0.37797,0.16581 2.97178,1.20833 5.31583,2.62909 7.32964,4.44258 0.61072,0.54997 0.81369,0.76373 1.85242,1.95085 1.88747,2.15711 3.52165,4.15625 6.53227,7.99112 0.52514,0.66892 1.33252,1.6974 1.79417,2.28551 3.65663,4.6583 5.79284,7.2251 8.10434,9.73791 0.44704,0.48598 0.64402,0.71995 0.85592,1.01663 0.61306,0.85834 0.80738,1.53658 0.55421,1.93438 -0.14346,0.22542 -0.44922,0.37156 -0.88281,0.42196 l -0.16761,0.0195 -0.0548,0.17086 c -0.0712,0.22176 -0.2501,0.57552 -0.38893,0.76896 -0.57702,0.804 -1.65667,1.39599 -2.992,1.64059 -0.63465,0.11624 -0.95961,0.12609 -1.49945,0.0454 -3.37232,-0.5039 -5.89232,-2.23547 -8.34988,-5.73749 -0.35987,-0.51282 -0.80519,-1.19895 -1.27767,-1.96857 -0.0487,-0.0793 -0.0547,-0.0841 -0.0619,-0.049 -0.0907,0.44506 -0.14586,0.62973 -0.25078,0.83885 -0.14049,0.28005 -0.37832,0.54147 -0.61508,0.67611 -0.25107,0.14277 -0.65261,0.24471 -0.87261,0.22154 -0.15059,-0.0159 -0.40387,-0.0803 -0.57443,-0.14619 -0.41529,-0.16039 -0.85386,-0.45425 -1.40301,-0.94009 -0.13419,-0.11872 -0.17205,-0.14484 -0.17436,-0.12027 -0.0605,0.6434 -0.16403,1.23949 -0.32306,1.85978 -0.16107,0.62826 -0.30029,1.0497 -0.78198,2.36714 l -0.20294,0.55505 0.29631,0.0103 c 1.15403,0.0401 2.81444,0.51452 3.99615,1.14186 1.01535,0.53901 1.66159,1.15789 1.91662,1.83545 0.0546,0.14511 0.0532,0.15543 -0.021,0.15283 -0.0337,-10e-4 -4.87304,-0.0411 -10.75415,-0.0886 z m 20.37716,-2.03187 c 0.67336,-0.0863 1.19435,-0.25049 1.64537,-0.51848 0.27242,-0.16187 0.58001,-0.43994 0.74878,-0.67691 l 0.0785,-0.11017 -0.0619,-0.0857 c -0.80338,-1.11208 -2.05218,-2.4072 -3.43445,-3.56187 -0.29726,-0.24831 -0.60735,-0.45891 -1.8529,-1.25838 -4.58598,-2.9436 -9.33887,-5.67347 -17.17397,-9.86408 -1.33086,-0.7118 -1.33818,-0.71561 -1.32075,-0.68687 0.0149,0.0246 0.68652,0.96126 1.39664,1.94788 1.81648,2.52374 2.84565,4.12673 3.58199,5.57914 l 0.17176,0.3388 0.0442,-0.0232 c 0.0404,-0.0212 0.24165,-0.15794 0.67459,-0.45836 0.1618,-0.11227 0.16492,-0.11359 0.19149,-0.0812 0.0148,0.0181 0.63795,0.76415 1.38465,1.65792 1.23386,1.47688 1.36353,1.62681 1.42218,1.64438 0.16067,0.0481 0.27517,0.0107 0.3661,-0.11967 0.14768,-0.21175 0.16604,-0.79722 0.0524,-1.67025 -0.0598,-0.45932 -0.35076,-3.0758 -0.34576,-3.10932 0.006,-0.037 1.46247,1.72936 1.79568,2.177 0.35066,0.47108 0.69926,0.97331 1.50345,2.16607 0.99247,1.47201 1.36726,2.00343 1.87962,2.66511 1.79229,2.31466 3.55922,3.5479 5.6573,3.94852 0.65798,0.12563 1.15202,0.15652 1.59516,0.0997 z m -19.15189,-1.29806 c 0.69799,-0.12172 1.24648,-0.6116 1.68091,-1.5013 0.2912,-0.59635 0.5088,-1.29718 0.70202,-2.26102 0.0297,-0.14815 0.0527,-0.27066 0.0512,-0.27223 -0.002,-0.002 -0.0836,0.089 -0.18226,0.20133 -0.22391,0.25483 -0.67243,0.69531 -1.00423,0.98625 -0.29529,0.25892 -0.73054,0.61921 -0.74803,0.61921 -0.007,0 -0.0546,-0.19284 -0.10659,-0.42854 -0.28434,-1.29015 -0.52787,-2.15318 -0.77043,-2.73037 l -0.0274,-0.0653 -0.16747,0.62852 c -0.2016,0.75663 -0.33399,1.22427 -0.53783,1.89979 -0.16567,0.54904 -0.21663,0.74028 -0.26808,1.00607 -0.0639,0.33018 -0.0745,0.43499 -0.0745,0.73463 0,0.25652 0.005,0.32348 0.0358,0.44448 0.10759,0.42832 0.3744,0.67211 0.81742,0.74687 0.13211,0.0223 0.44897,0.0179 0.59951,-0.008 z m 20.32111,-3.85031 c -0.0165,-0.0214 -0.15986,-0.19315 -0.31867,-0.38155 -0.73511,-0.87209 -1.36091,-1.64251 -3.0664,-3.77498 -2.32995,-2.91327 -3.17411,-3.94542 -6.85611,-8.38293 -2.87248,-3.46187 -4.22986,-5.11531 -5.53107,-6.73743 -0.32912,-0.41028 -0.39349,-0.48103 -0.69317,-0.76172 -1.28704,-1.20552 -2.58622,-2.15008 -4.16675,-3.02939 -0.40036,-0.22274 -1.4025,-0.72611 -1.83657,-0.92251 -0.46779,-0.21165 -0.96231,-0.42135 -1.50417,-0.63784 -0.27261,-0.10891 -0.53023,-0.22011 -0.5725,-0.2471 -0.1699,-0.10851 -0.34784,-0.34438 -0.45387,-0.60163 -0.14408,-0.34956 -0.2104,-0.7135 -0.29299,-1.60802 -0.0543,-0.58785 -0.0832,-0.81233 -0.1304,-1.01215 -0.017,-0.0718 -0.0535,-0.24154 -0.0813,-0.37712 -0.25041,-1.22429 -0.67894,-1.86353 -1.43004,-2.1332 -0.13988,-0.0502 -0.38344,-0.10372 -0.54135,-0.11891 l -0.11725,-0.0113 -0.0101,0.0632 c -0.0867,0.54404 -0.23968,1.00682 -0.49521,1.49828 -0.38973,0.74952 -0.95108,1.40189 -1.51592,1.7617 -0.12937,0.0824 -0.28283,0.16351 -0.29201,0.15433 -0.0102,-0.0102 -0.26838,-0.56906 -0.26838,-0.58093 0,-0.006 0.0349,-0.0296 0.0775,-0.0521 0.13624,-0.0717 0.33057,-0.22958 0.43903,-0.35669 0.42793,-0.50153 0.64997,-1.20376 0.62019,-1.96144 -0.01,-0.25207 -0.0403,-0.49259 -0.0655,-0.51777 -0.0147,-0.0147 -0.76377,0.0816 -1.70086,0.21857 -0.65895,0.0964 -0.7515,0.11321 -0.6826,0.12438 0.35995,0.0583 0.58037,0.16175 0.80347,0.37705 0.11732,0.11322 0.19865,0.22219 0.19851,0.26598 -9.4e-4,0.30682 -0.49987,0.53906 -1.08552,0.50527 -0.54452,-0.0314 -0.90305,-0.25618 -0.9479,-0.59423 -0.0103,-0.0776 -0.007,-0.0887 0.0406,-0.14906 0.10547,-0.13316 0.31354,-0.27394 0.50856,-0.34407 0.0487,-0.0175 0.0794,-0.0321 0.0681,-0.0325 -0.0978,-0.003 -1.29131,0.15079 -2.46912,0.31777 -0.98979,0.14033 -1.79851,0.25232 -1.83348,0.2539 -0.0107,4.9e-4 0.12016,0.0404 0.29076,0.0886 0.1706,0.0482 0.46341,0.14002 0.6507,0.20392 0.3143,0.10723 0.54443,0.19404 1.66321,0.6274 1.12459,0.4356 1.9158,0.64813 2.66636,0.71622 l 0.22692,0.0206 -0.005,0.13028 c -0.003,0.0717 -0.0261,0.56739 -0.0525,1.10163 -0.0748,1.51742 -0.0808,1.67734 -0.0918,2.42427 -0.0106,0.72802 0.007,1.38213 0.0522,1.95085 0.208,2.60976 1.04173,4.4203 2.64386,5.74147 0.16326,0.13463 0.39768,0.30403 0.64595,0.46677 0.25615,0.16792 0.64913,0.39529 0.66161,0.38281 0.004,-0.004 -0.0364,-0.0963 -0.0903,-0.20456 -0.28491,-0.57152 -0.46436,-1.15658 -0.54933,-1.79098 -0.0405,-0.30232 -0.0413,-0.92734 -0.002,-1.18357 0.14126,-0.90998 0.55155,-1.69195 1.27507,-2.43015 0.52878,-0.53951 1.14659,-0.9866 1.91126,-1.38311 0.73447,-0.38086 1.59867,-0.67613 1.97886,-0.67613 0.27737,0 0.21084,0.10481 -0.29335,0.4621 -0.11894,0.0843 -0.36202,0.25392 -0.54017,0.37696 -0.77179,0.53307 -1.26157,0.91602 -1.69204,1.32299 -0.72557,0.68596 -1.11952,1.2902 -1.26754,1.94418 -0.0383,0.16912 -0.038,0.73581 4.4e-4,1.09602 0.13026,1.21886 0.53175,2.19378 1.29642,3.14802 0.19765,0.24665 0.74472,0.79542 1.02345,1.02662 0.57168,0.4742 1.26018,0.94572 2.08145,1.42546 0.65167,0.38068 1.09637,0.62304 5.37095,2.92724 4.36217,2.35142 6.14572,3.34384 8.46876,4.71229 2.79344,1.64555 5.45657,3.38644 7.52165,4.91692 0.20651,0.15305 0.37793,0.27864 0.38092,0.27909 0.003,4.6e-4 -0.008,-0.0167 -0.0245,-0.0382 z m -18.83256,-1.42571 c 0.28481,-0.39173 0.37771,-0.56175 0.42207,-0.77239 0.0417,-0.1982 0.004,-0.36524 -0.12883,-0.56609 -0.0402,-0.0609 -0.20361,-0.33856 -0.36309,-0.6169 -2.14334,-3.74077 -4.25338,-6.84275 -6.40744,-9.41957 -0.25668,-0.30706 -0.64323,-0.7567 -0.82185,-0.95599 l -0.0796,-0.0888 0.0701,0.1306 c 0.25523,0.4753 0.64747,1.1533 1.02472,1.77127 0.43571,0.71372 0.81582,1.30028 2.16874,3.34664 1.07099,1.61994 1.45411,2.22611 1.97828,3.13004 0.84757,1.46164 1.4992,2.87653 1.90567,4.13777 0.0251,0.0781 0.0507,0.13886 0.0567,0.13514 0.006,-0.004 0.0846,-0.108 0.1745,-0.23171 z m 9.41572,-35.06535 c -1.99691,-0.0659 -3.62307,-0.71537 -4.35494,-1.73921 -0.44107,-0.61705 -0.96145,-1.84646 -1.80177,-4.25675 -0.66039,-1.89418 -0.86724,-2.44801 -1.05513,-2.82502 -0.0636,-0.12773 -0.0763,-0.1426 -0.15894,-0.18704 -0.0762,-0.0409 -0.11235,-0.0493 -0.23843,-0.0549 -0.17524,-0.008 -0.29723,0.0213 -0.37831,0.0903 -0.0472,0.0402 -0.0613,0.0735 -0.1192,0.28226 -0.33149,1.1949 -0.74288,2.30138 -1.06413,2.86211 -0.32135,0.56091 -0.53749,0.7294 -0.93567,0.7294 -0.26687,0 -0.47338,-0.0522 -1.12236,-0.28351 -0.38945,-0.13883 -0.692,-0.23317 -0.70453,-0.21969 -0.003,0.003 -0.0472,0.1265 -0.0989,0.27465 -0.12149,0.34819 -0.37593,0.98512 -0.55223,1.38241 -0.30929,0.69698 -1.04289,2.14856 -1.19599,2.36652 -0.23374,0.33278 -0.75291,0.62015 -1.42627,0.78947 -0.59709,0.15015 -1.16392,0.20635 -1.92519,0.19088 -0.67218,-0.0137 -0.98492,-0.0516 -1.72567,-0.20945 l -0.0838,-0.0179 0.0451,-0.10016 c 0.0611,-0.1356 0.0729,-0.196 0.0432,-0.22069 -0.0343,-0.0285 -0.0896,-0.0105 -0.32062,0.10424 -0.19992,0.0993 -0.20804,0.10174 -0.39997,0.12021 -0.63744,0.0613 -1.30267,0.0618 -2.62834,0.002 -0.38608,-0.0175 -0.78646,-0.0324 -0.88971,-0.0332 -0.10326,-7.8e-4 -0.22815,-0.008 -0.27753,-0.0166 -0.0494,-0.008 -0.34323,-0.0221 -0.653,-0.0305 -0.58768,-0.016 -0.71188,-0.0307 -0.79788,-0.0947 -0.0555,-0.0412 -0.0616,-0.0897 -0.0202,-0.15986 0.0183,-0.0311 0.0264,-0.0565 0.0179,-0.0565 -0.008,0 -0.0651,0.0187 -0.12577,0.0415 -0.2355,0.0887 -0.49003,0.28022 -0.80548,0.60624 -0.17554,0.18142 -0.41367,0.47086 -0.46955,0.57071 -0.0159,0.0285 -0.0181,0.0284 -0.0523,-0.003 -0.099,-0.0895 -0.13822,-0.26609 -0.12614,-0.56777 0.0214,-0.53478 0.23852,-1.09627 0.52876,-1.36753 0.24546,-0.22941 0.75739,-0.39356 1.44251,-0.46253 0.34277,-0.0345 0.56711,-0.0415 1.6325,-0.0512 0.96688,-0.009 1.26042,-0.0208 1.59987,-0.0657 0.43167,-0.0571 0.7987,-0.18951 1.00743,-0.36351 0.31705,-0.26433 1.01131,-1.61596 1.48982,-2.90049 0.5827,-1.56424 0.73535,-2.61971 0.4382,-3.02991 -0.0603,-0.0832 -0.0612,-0.0864 -0.66586,-2.36552 -1.89008,-7.12363 -2.86824,-10.45484 -3.64553,-12.41522 l -0.14887,-0.37548 -0.21303,-0.22706 c -1.8987,-2.02382 -2.66585,-3.3356 -2.92228,-4.99696 -0.0884,-0.57291 -0.0987,-0.75826 -0.098,-1.77127 5.8e-4,-0.90608 0.0199,-1.47202 0.0741,-2.17124 0.12885,-1.66242 0.81735,-3.35836 2.20269,-5.42567 0.21217,-0.31662 0.22407,-0.33089 0.31834,-0.3818 0.231,-0.12475 0.5147,-0.1749 0.84731,-0.14979 0.22786,0.0172 0.40959,0.0537 0.97478,0.19547 0.74217,0.18622 0.73601,0.18557 1.71226,0.18153 0.49268,-0.002 0.81968,-0.0233 1.17987,-0.0767 0.62215,-0.0923 1.29003,-0.26542 1.79299,-0.46479 l 0.16622,-0.0659 0.11684,0.0728 c 0.51974,0.32394 1.10849,0.89412 1.58492,1.53491 1.03925,1.39781 1.87396,3.50825 2.10521,5.32273 0.0137,0.10775 0.0395,0.28406 0.0573,0.3918 0.0477,0.28901 0.0761,0.55815 0.12212,1.15908 0.0493,0.64279 0.08,0.94201 0.12509,1.21622 0.0366,0.22295 0.12333,0.58118 0.17189,0.71014 0.028,0.0743 0.0373,0.0835 0.1038,0.1028 0.2591,0.0751 0.70805,0.22951 0.88196,0.3034 0.68053,0.28915 1.31829,0.67987 1.90924,1.1697 0.10326,0.0856 0.30528,0.24483 0.44894,0.35388 1.23879,0.94033 2.73701,2.41535 4.39074,4.32273 1.74702,2.01498 3.80615,4.67737 6.15517,7.95847 1.43673,2.00682 2.73532,3.87814 5.33015,7.68095 1.5221,2.23069 2.2117,3.23265 2.28051,3.31349 0.0964,0.11322 0.14095,0.22559 0.14847,0.37421 0.01,0.18988 -0.0318,0.29319 -0.17455,0.43562 -0.12458,0.12428 -0.24123,0.18567 -0.424,0.22313 -0.32444,0.0665 -0.6222,-0.103 -0.73778,-0.41998 l -0.0349,-0.0958 -0.88389,-0.55416 c -0.48614,-0.30479 -1.33561,-0.8374 -1.88771,-1.18359 -0.5521,-0.34618 -1.00619,-0.62705 -1.00909,-0.62416 -0.003,0.003 0.0859,0.12542 0.1973,0.27226 0.89015,1.17318 1.52579,2.25464 1.91349,3.25557 0.13838,0.35726 0.13458,0.48362 -0.019,0.62986 -0.12297,0.1171 -0.29754,0.18548 -0.9686,0.3794 -0.46686,0.1349 -0.75399,0.23355 -1.18357,0.40664 -1.06452,0.42891 -2.07878,0.64269 -3.30583,0.69679 -0.34896,0.0154 -0.41802,0.0159 -0.72646,0.006 z m 0.87339,-1.27948 c 0.46676,-0.0329 0.93527,-0.11913 1.46197,-0.26911 0.18775,-0.0535 2.24603,-0.72999 2.2897,-0.7526 0.009,-0.004 -0.20701,-0.42738 -0.33609,-0.65909 -0.19428,-0.34875 -0.39782,-0.68062 -0.66583,-1.08562 -0.35629,-0.53842 -0.4886,-0.72184 -1.61516,-2.23904 -0.22447,-0.30231 -0.51118,-0.69355 -0.63713,-0.86943 l -0.22901,-0.31977 -0.27707,-0.17598 c -1.11559,-0.70858 -2.2794,-1.36743 -4.75014,-2.68916 -1.66208,-0.88913 -2.86282,-1.54825 -3.51781,-1.93102 -1.77716,-1.03854 -3.63177,-2.40065 -5.77116,-4.23858 -0.81445,-0.69968 -1.35401,-1.17944 -3.07728,-2.73621 -0.93919,-0.84845 -1.33445,-1.21697 -1.59403,-1.48619 -0.53571,-0.55563 -0.83072,-0.89911 -1.02257,-1.19057 -0.27444,-0.41695 -0.32606,-0.67622 -0.16475,-0.82764 0.066,-0.0619 0.13079,-0.085 0.37615,-0.13412 1.04399,-0.2088 2.41383,-0.79637 3.82076,-1.63886 1.10035,-0.65891 2.11426,-1.40434 2.62599,-1.93066 0.10714,-0.1102 0.26645,-0.2699 0.35401,-0.35488 0.20658,-0.20052 0.23284,-0.24386 0.22625,-0.37335 -0.003,-0.058 -0.0808,-0.13422 -0.19585,-0.19169 -0.13544,-0.0677 -0.24172,-0.10204 -0.63038,-0.20398 -0.41538,-0.10895 -0.51734,-0.14144 -0.65766,-0.20961 l -0.11894,-0.0578 -0.19124,0.0908 c -0.22566,0.10718 -0.38567,0.15877 -0.49238,0.15877 -0.18035,0 -0.3286,-0.0891 -0.43501,-0.26153 l -0.06,-0.0972 -0.059,0.0513 c -0.15943,0.1386 -1.13531,1.03421 -1.25465,1.15144 -0.7361,0.72314 -1.79878,0.8936 -2.61962,0.4202 -0.0692,-0.0399 -0.14263,-0.0727 -0.16325,-0.0729 -0.0544,-5.6e-4 -0.20519,-0.066 -0.29909,-0.12978 -0.0447,-0.0303 -0.22448,-0.19561 -0.39957,-0.36724 -0.17508,-0.17163 -0.34516,-0.32461 -0.37794,-0.33994 -0.0746,-0.0349 -0.15865,-0.0357 -0.2067,-0.002 -0.0203,0.0142 -0.0661,0.0851 -0.1019,0.15755 -0.0883,0.17883 -0.18428,0.30922 -0.32768,0.44522 -0.25019,0.23728 -0.53732,0.37885 -0.94835,0.46759 -0.22182,0.0479 -0.74505,0.0597 -1.04124,0.0236 -0.29176,-0.0356 -0.61565,-0.10262 -0.68157,-0.14094 -0.0384,-0.0223 -0.0531,-0.025 -0.0531,-0.01 0,0.0433 0.30679,0.39391 0.93048,1.06339 0.65143,0.69923 1.04396,1.14015 1.50422,1.68964 2.28336,2.72603 4.23748,5.90315 5.66308,9.20734 1.14095,2.64445 1.90703,5.40552 1.85568,6.68815 l -0.009,0.23158 0.052,0.011 c 0.11184,0.0237 0.48294,0.1677 0.97431,0.378 0.94713,0.40537 1.31686,0.49353 1.58537,0.37801 0.0415,-0.0178 0.0981,-0.0558 0.12569,-0.0844 0.0625,-0.0647 0.31204,-0.57431 0.44114,-0.90087 0.27565,-0.69726 0.48031,-1.49767 0.60524,-2.36714 0.0692,-0.48173 0.0999,-0.76608 0.10719,-0.99458 0.01,-0.31129 0.0845,-0.49467 0.25613,-0.63034 0.33583,-0.26545 0.88509,-0.1492 1.13437,0.2401 0.0605,0.0944 0.13632,0.30424 0.13632,0.37709 0,0.0688 0.0498,0.10822 0.12026,0.095 0.031,-0.006 0.1543,-0.0573 0.2741,-0.11436 0.28874,-0.1376 0.35971,-0.16094 0.49535,-0.16295 0.0975,-0.001 0.12568,0.005 0.19187,0.0439 0.12415,0.073 0.17842,0.17136 0.29901,0.54209 0.0979,0.30101 0.19638,0.62612 0.79111,2.61201 0.92546,3.09025 1.54323,4.67398 2.12363,5.44424 0.48442,0.64287 1.59467,1.11586 2.92884,1.24774 0.4424,0.0437 0.85012,0.052 1.23222,0.0251 z m -16.82293,-1.22372 c 0.21593,-0.0552 0.24108,-0.0751 0.58973,-0.46524 0.42453,-0.4751 0.71446,-0.96443 1.00083,-1.68911 0.22236,-0.56273 0.55913,-1.48962 0.54551,-1.50142 -0.008,-0.007 -0.0543,-0.0286 -0.10366,-0.0488 -0.26787,-0.10985 -0.63925,-0.33391 -1.2291,-0.74153 -0.42101,-0.29094 -0.7176,-0.48401 -0.74353,-0.48401 -0.008,0 -0.0273,0.0643 -0.0429,0.1428 -0.0835,0.42066 -0.24735,1.0016 -0.39297,1.39366 -0.21527,0.57956 -0.38337,0.91411 -0.97106,1.93262 -0.2834,0.49116 -0.49758,0.91294 -0.61551,1.21213 -0.006,0.0154 0.0275,0.0204 0.13654,0.0205 0.17806,1.6e-4 0.36959,0.0304 0.71303,0.11281 0.64169,0.15402 0.87026,0.17777 1.11311,0.11565 z m 21.83263,-3.59017 c -0.0123,-0.0172 -0.1184,-0.15864 -0.23574,-0.31426 -0.39803,-0.52783 -0.7474,-1.02883 -2.3091,-3.31123 -2.60677,-3.80974 -3.85221,-5.57327 -5.44171,-7.70544 -3.07312,-4.12227 -5.54998,-6.88823 -7.44004,-8.30845 -0.26438,-0.19866 -0.65927,-0.4664 -0.81476,-0.55241 l -0.0898,-0.0497 -0.16325,0.18009 c -0.32102,0.35416 -0.87517,0.86067 -1.39465,1.27478 -1.45288,1.15818 -3.19029,2.11717 -5.0087,2.76464 -0.17276,0.0615 -0.31417,0.11689 -0.31426,0.12306 -2.5e-4,0.0173 1.80073,1.65874 2.87305,2.61856 3.44121,3.08018 6.1245,5.10169 8.79105,6.62289 0.47419,0.27051 0.98793,0.54017 1.81209,0.95117 2.6751,1.33403 4.60012,2.4633 9.3506,5.48527 0.21751,0.13836 0.3982,0.25174 0.40154,0.25195 0.003,2.1e-4 -0.004,-0.0137 -0.0163,-0.031 z m -20.24241,-1.97258 c -0.60709,-2.60547 -1.95003,-6.25785 -3.27588,-8.90941 -0.71231,-1.42453 -1.50588,-2.71174 -2.18903,-3.5507 -0.14153,-0.17382 -0.50552,-0.5877 -0.51684,-0.5877 -0.003,0 0.0237,0.0826 0.0603,0.18365 0.11986,0.33127 0.49392,1.4487 0.62162,1.85698 0.57579,1.84091 1.05815,3.63731 1.74243,6.48922 0.52453,2.18611 0.60819,2.48098 0.75791,2.67151 0.16926,0.21537 0.39025,0.37165 1.26638,0.89551 0.70413,0.42103 1.11985,0.69007 1.3713,0.88748 0.0853,0.067 0.15982,0.12241 0.1656,0.12322 0.006,8e-4 0.004,-0.0261 -0.004,-0.0598 z m -6.90015,-18.69996 c 0.32968,-0.12327 0.54123,-0.3379 1.00735,-1.02197 0.17077,-0.25062 0.35945,-0.48713 0.40148,-0.50326 0.0558,-0.0214 0.38656,0.2478 0.88152,0.71745 0.53828,0.51077 0.83179,0.69845 1.27273,0.81382 0.12353,0.0323 0.18463,0.0382 0.38364,0.0371 0.21282,-0.001 0.25072,-0.006 0.37548,-0.0468 0.38443,-0.12603 0.63199,-0.30678 1.27684,-0.93229 0.20816,-0.2019 0.44697,-0.4202 0.5307,-0.4851 l 0.15222,-0.11799 -0.007,-0.15509 c -0.004,-0.0853 -0.033,-0.29099 -0.0644,-0.4571 -0.084,-0.44429 -0.0938,-0.52473 -0.0934,-0.76322 4.8e-4,-0.23191 0.0223,-0.36094 0.0901,-0.53223 0.0545,-0.13778 0.0999,-0.32639 0.13237,-0.54928 0.0378,-0.25981 0.026,-0.80626 -0.0235,-1.08562 -0.1002,-0.5659 -0.27484,-1.09273 -0.66212,-1.99736 -0.0755,-0.17644 -0.18507,-0.4163 -0.2434,-0.53303 -0.0583,-0.11672 -0.177,-0.37751 -0.2637,-0.57954 -0.26096,-0.60812 -0.40949,-0.86307 -0.6277,-1.07745 -0.13784,-0.13543 -0.25759,-0.2134 -0.40515,-0.26378 l -0.0976,-0.0333 -0.15304,0.0604 c -0.27935,0.11031 -0.52574,0.26059 -0.78972,0.48168 -0.15199,0.1273 -0.4843,0.46266 -0.67994,0.68619 -0.50462,0.57655 -0.58732,0.66461 -0.66236,0.70524 -0.20579,0.11145 -0.43513,0.0814 -0.66477,-0.087 -0.10013,-0.0734 -0.30358,-0.27715 -0.49549,-0.49614 -0.34609,-0.39493 -0.56918,-0.60131 -0.74404,-0.68832 -0.046,-0.0229 -0.13881,-0.0954 -0.20615,-0.16101 -0.15279,-0.14896 -0.27921,-0.23707 -0.42985,-0.29959 -0.54722,-0.22713 -1.19815,-0.054 -1.55265,0.41295 -0.12572,0.16561 -0.18959,0.30592 -0.28616,0.62868 -0.0469,0.15667 -0.16201,0.50562 -0.25585,0.77544 -0.32745,0.94147 -0.42642,1.35012 -0.4565,1.88477 -0.008,0.14273 -0.006,0.19927 0.006,0.19163 0.01,-0.006 0.0669,-0.0971 0.12713,-0.20246 0.24188,-0.42295 0.46283,-0.72409 0.68021,-0.9271 0.21214,-0.19811 0.37294,-0.2609 0.71461,-0.27905 0.513,-0.0273 1.07905,0.16996 1.71971,0.59915 0.33873,0.22692 0.71647,0.52177 0.76123,0.59418 0.0566,0.0916 0.18718,0.19864 0.26674,0.21867 0.17988,0.0453 0.30337,-0.0549 0.63942,-0.51885 0.1956,-0.27003 0.36922,-0.47054 0.44771,-0.51706 0.0233,-0.0138 0.0638,-0.055 0.09,-0.0915 0.21367,-0.29805 0.56702,-0.54401 0.94822,-0.66005 0.13539,-0.0412 0.16935,-0.0448 0.43262,-0.0457 0.30807,-0.001 0.37039,0.01 0.60753,0.10698 0.12175,0.0498 0.30316,0.1621 0.39909,0.24705 0.0345,0.0305 0.17104,0.11672 0.30348,0.19154 0.26027,0.14704 0.41663,0.27329 0.47303,0.38192 0.0688,0.13262 0.0369,0.2851 -0.0962,0.45946 -0.0549,0.0719 -0.0614,0.0756 -0.11748,0.0656 -0.094,-0.0167 -0.37102,-0.16036 -0.54911,-0.28482 -0.65952,-0.46092 -0.85561,-0.55397 -1.13025,-0.53635 -0.1712,0.011 -0.30832,0.0839 -0.5349,0.28434 -0.40227,0.35588 -0.79689,0.78949 -1.08238,1.18927 -0.19656,0.27528 -0.37872,0.57771 -0.37872,0.6288 0,0.084 0.05,0.20711 0.1754,0.43233 0.07,0.12571 0.14462,0.26886 0.1658,0.31812 0.0212,0.0493 0.0551,0.11171 0.0753,0.13877 0.0781,0.10438 0.1111,0.1932 0.11867,0.31994 0.0128,0.21496 -0.0399,0.33985 -0.3238,0.76742 -0.17864,0.26899 -0.26174,0.42527 -0.29487,0.55454 -0.0114,0.0443 -0.0248,0.0803 -0.0298,0.0799 -0.0143,-0.001 -0.90729,-1.20347 -0.90494,-1.21849 10e-4,-0.007 0.0579,-0.19336 0.12599,-0.41334 0.18588,-0.60009 0.27188,-0.9093 0.27188,-0.97755 0,-0.17501 -0.11828,-0.36478 -0.33392,-0.53572 -0.0722,-0.0573 -0.27692,-0.19751 -0.45485,-0.31166 -0.17793,-0.11414 -0.3742,-0.25301 -0.43615,-0.30859 -0.61561,-0.55227 -1.43204,-0.61469 -1.90136,-0.14538 -0.22062,0.22063 -0.3219,0.44384 -0.36763,0.81027 -0.0163,0.13054 -0.0418,0.28428 -0.0566,0.34166 -0.0765,0.29533 -0.24144,0.43922 -0.48334,0.42172 -0.0804,-0.006 -0.0963,-0.003 -0.0963,0.0192 0,0.0144 0.0111,0.19851 0.0246,0.40917 0.0898,1.39684 0.18876,1.9449 0.50996,2.82463 0.13616,0.37291 0.27694,0.54244 0.5752,0.69264 0.22233,0.11196 0.49712,0.17906 1.07484,0.26243 0.16449,0.0237 0.38855,0.0642 0.49791,0.0899 0.1723,0.0404 0.22499,0.046 0.39474,0.0415 0.16097,-0.004 0.21553,-0.0125 0.30596,-0.0463 z m -1.65278,-4.60851 c -0.22919,-0.063 -0.40351,-0.19605 -0.44151,-0.33692 -0.075,-0.27797 0.20681,-0.62268 0.61813,-0.75619 0.15794,-0.0513 0.30471,1.8e-4 0.57841,0.20276 0.14857,0.10996 0.16875,0.11977 0.30301,0.14727 0.0791,0.0162 0.17437,0.0451 0.21169,0.0641 0.19982,0.10195 0.10059,0.27169 -0.26233,0.44875 -0.40191,0.19608 -0.80044,0.28717 -1.0074,0.23025 z m 4.24452,-0.13088 c -0.31867,-0.0623 -0.48318,-0.21013 -0.44658,-0.40121 0.0411,-0.21445 0.32374,-0.52074 0.66394,-0.71943 0.10719,-0.0626 0.11859,-0.0657 0.20509,-0.0555 0.0555,0.007 0.21188,0.059 0.39658,0.13309 0.42002,0.16847 0.54052,0.17662 0.72963,0.0494 0.0923,-0.0621 0.10017,-0.057 0.10017,0.0657 0,0.14832 -0.10765,0.30882 -0.3088,0.46039 -0.24197,0.18233 -0.60218,0.35233 -0.91725,0.4329 -0.20379,0.0521 -0.29551,0.0597 -0.42278,0.0348 z m 4.93017,3.0897 c 0,-0.0115 -0.0144,-0.1235 -0.032,-0.24896 -0.0582,-0.41511 -0.11323,-0.90259 -0.21282,-1.8851 -0.1293,-1.27556 -0.24477,-2.21475 -0.32818,-2.66915 -0.0777,-0.42323 -0.22504,-0.92284 -0.41167,-1.39579 -0.11894,-0.30141 -0.42887,-0.93002 -0.61573,-1.24887 -0.31646,-0.53998 -0.81744,-1.24618 -1.29899,-1.83111 -0.13182,-0.16013 -0.24074,-0.29263 -0.24203,-0.29445 -0.001,-0.002 -0.11595,0.0336 -0.2548,0.0787 -0.62768,0.20377 -1.30002,0.32873 -2.01237,0.37402 -0.23492,0.0149 -0.96644,0.0235 -1.43164,0.0167 -0.18956,-0.003 -0.37685,-0.0361 -0.83184,-0.14824 -0.2131,-0.0525 -0.45287,-0.10692 -0.53284,-0.12091 -0.17791,-0.0311 -0.44353,-0.0327 -0.55352,-0.003 -0.24052,0.0642 -0.41406,0.23356 -0.5097,0.49729 -0.0217,0.06 -0.0682,0.14708 -0.10333,0.1936 -0.20415,0.27061 -0.16507,0.3167 0.19538,0.23041 0.11843,-0.0283 0.20406,-0.0374 0.35235,-0.0373 0.18738,1.7e-4 0.203,0.003 0.35915,0.0624 0.50527,0.1927 1.00706,0.51085 1.51824,0.9626 0.0808,0.0714 0.3133,0.29041 0.51666,0.48666 l 0.36974,0.35681 0.30649,-0.3466 c 0.87817,-0.99308 1.40388,-1.38453 2.10072,-1.5642 0.2736,-0.0705 0.59241,0.0101 0.87266,0.22077 0.40348,0.30331 0.73772,0.89742 1.57565,2.80075 0.4561,1.03603 0.64996,1.70466 0.69826,2.40835 0.0218,0.31723 10e-4,0.60054 -0.0636,0.88116 -0.15226,0.65798 -0.18907,1.24773 -0.10027,1.60618 0.0828,0.33433 0.27389,0.54922 0.54759,0.61586 0.10792,0.0263 0.12243,0.0265 0.12243,0.002 z"
       id="path1004" />
  </g>
</svg>
