<?xml version="1.0" encoding="UTF-8" standalone="no"?>
<!-- Created with Inkscape (http://www.inkscape.org/) -->

<svg
   width="1080"
   height="1920"
   viewBox="0 0 285.75001 508"
   version="1.1"
   id="svg5"
   inkscape:export-filename="/Users/albertotomasoni/ALBERTO.png"
   inkscape:export-xdpi="96"
   inkscape:export-ydpi="96"
   inkscape:version="1.1.1 (c3084ef, 2021-09-22)"
   sodipodi:docname="patrick.svg"
   xmlns:inkscape="http://www.inkscape.org/namespaces/inkscape"
   xmlns:sodipodi="http://sodipodi.sourceforge.net/DTD/sodipodi-0.dtd"
   xmlns="http://www.w3.org/2000/svg"
   xmlns:svg="http://www.w3.org/2000/svg">
  <sodipodi:namedview
     id="namedview7"
     pagecolor="#ffffff"
     bordercolor="#666666"
     borderopacity="1.0"
     inkscape:pageshadow="2"
     inkscape:pageopacity="0.0"
     inkscape:pagecheckerboard="0"
     inkscape:document-units="px"
     showgrid="false"
     units="px"
     inkscape:zoom="0.5478759"
     inkscape:cx="634.26772"
     inkscape:cy="673.51018"
     inkscape:window-width="1440"
     inkscape:window-height="758"
     inkscape:window-x="13"
     inkscape:window-y="51"
     inkscape:window-maximized="0"
     inkscape:current-layer="g2878" />
  <defs
     id="defs2" />
  <g
     inkscape:label="ALBERTO"
     inkscape:groupmode="layer"
     id="g2878">
    <text
       xml:space="preserve"
       style="font-weight:500;font-size:19.0077px;line-height:1.25;font-family:'Helvetica Neue';-inkscape-font-specification:'Helvetica Neue Medium';text-align:center;text-decoration-color:#000000;text-anchor:middle;white-space:pre;inline-size:858.441;fill=currentColor;stroke-width:1.51181;stroke-linecap:round;paint-order:markers fill stroke;stop-color:#000000"
       x="413.24438"
       y="323.54794"
       id="text2874"
       transform="matrix(2.7839642,0,0,2.7839642,-1008.2884,-810.36416)"><tspan
         x="413.24438"
         y="323.54794"
         id="tspan1324"><tspan
           style="font-weight:normal;font-family:Bison;-inkscape-font-specification:Bison"
           id="tspan1322">patrick</tspan></tspan></text>
    <path
       style="fill=currentColor;stroke-width:0.0163251"
       d="M 112.57565,289.12562 V 288.04 l 11.701,-0.002 11.70099,-0.002 -0.22855,-0.0393 c -1.01363,-0.17453 -1.50351,-0.2685 -2.21204,-0.42432 -7.3812,-1.62343 -13.31566,-5.01193 -16.92277,-9.6627 -0.58953,-0.76011 -1.15706,-1.61762 -1.63138,-2.46496 -0.17999,-0.32153 -0.53255,-1.02336 -0.68887,-1.3713 -0.96808,-2.1548 -1.51184,-4.38173 -1.6702,-6.84021 -0.0104,-0.16162 -0.0255,-0.2963 -0.0335,-0.29929 -0.0195,-0.007 -0.0195,-129.11773 -4e-5,-129.11773 0.008,0 0.0194,-0.068 0.0253,-0.15101 0.0953,-1.34139 0.25224,-2.36665 0.53277,-3.48132 0.94755,-3.76505 3.04602,-7.04208 6.25242,-9.76392 4.4323,-3.76249 10.87447,-6.28349 18.22572,-7.13222 0.32017,-0.037 10.17684,-0.037 10.49702,0 5.49808,0.63478 10.54357,2.21735 14.58645,4.5752 2.81155,1.63973 5.10287,3.62437 6.81768,5.90519 1.59143,2.11671 2.67364,4.4837 3.2207,7.04426 0.19381,0.90714 0.30749,1.74717 0.38608,2.85281 0.006,0.083 0.0173,0.15101 0.0253,0.15101 0.0195,0 0.0195,129.11047 0,129.11773 -0.008,0.003 -0.0232,0.13767 -0.0336,0.29929 -0.17664,2.74238 -0.84056,5.23077 -2.01667,7.55851 -1.29492,2.5629 -3.16736,4.82498 -5.61609,6.78475 -3.45195,2.76268 -7.99905,4.82481 -13.16618,5.97094 -0.77181,0.17119 -1.36194,0.2847 -2.41611,0.46471 -0.12196,0.0208 1.27828,0.0239 11.56224,0.0255 l 11.70099,0.002 v 1.08562 1.08561 h -30.29934 -30.29933 v -1.08561 z m 32.01347,-2.75003 c 1.24172,-0.0564 2.21654,-0.13236 3.26502,-0.25431 6.672,-0.77598 12.49854,-3.06085 16.61449,-6.51536 3.09599,-2.59847 5.1445,-5.80236 6.02707,-9.42642 0.24596,-1.00998 0.38062,-1.88155 0.47027,-3.04376 0.0277,-0.35865 0.029,-3.25804 0.029,-64.72075 0,-51.85009 -0.004,-64.40076 -0.0207,-64.63097 -0.10152,-1.39909 -0.31601,-2.57779 -0.69184,-3.8019 -0.61505,-2.00328 -1.66091,-3.91554 -3.05904,-5.59318 -0.68243,-0.81886 -1.59664,-1.73375 -2.43192,-2.43375 -1.65022,-1.38294 -3.61809,-2.6012 -5.78201,-3.57951 -3.34341,-1.51155 -7.17198,-2.51653 -11.29402,-2.96462 -2.50209,-0.272 -5.20561,-0.32867 -7.77889,-0.16306 -7.38749,0.47543 -14.01571,2.74468 -18.53387,6.34528 -1.06017,0.84487 -2.06087,1.81763 -2.87595,2.79566 -1.39813,1.67764 -2.444,3.5899 -3.05905,5.59318 -0.37583,1.22411 -0.59032,2.40281 -0.69183,3.8019 -0.0167,0.23021 -0.0207,12.78088 -0.0207,64.63097 0,61.46271 0.001,64.3621 0.029,64.72075 0.0897,1.16221 0.22431,2.03378 0.47027,3.04376 1.02579,4.21219 3.6229,7.84581 7.60044,10.63378 4.20362,2.94645 9.81796,4.83988 16.05328,5.41395 0.88937,0.0819 1.81342,0.1352 2.95483,0.17048 0.34241,0.0106 2.3684,-0.006 2.72629,-0.0221 z m -5.4036,-19.46046 c -4.31132,-0.15316 -7.81553,-0.96237 -10.99494,-2.53901 -2.99125,-1.48333 -5.665,-3.61583 -8.42306,-6.71795 -0.61281,-0.68926 -0.6589,-0.75481 -0.69469,-0.98789 -0.0597,-0.38901 0.19044,-0.76104 0.58107,-0.86413 0.0875,-0.0231 1.94355,-0.0238 19.68671,-0.008 10.77455,0.01 20.50103,0.0238 21.6144,0.0311 1.98096,0.0129 2.02769,0.0139 2.18229,0.048 1.06651,0.23513 1.99528,1.07674 2.66485,2.41474 0.48534,0.96986 0.76816,2.06043 0.85819,3.30919 0.0214,0.29661 0.0213,1.28185 -1.7e-4,1.61646 -0.0734,1.14727 -0.34271,1.82892 -0.87978,2.22707 -0.19707,0.14609 -0.53819,0.29387 -0.74215,0.32151 -0.15885,0.0215 -0.58812,-0.0871 -0.84415,-0.21368 -0.21459,-0.10606 -0.33317,-0.19345 -0.53056,-0.39099 -0.6116,-0.61205 -0.90866,-1.57219 -1.00306,-3.24203 -0.009,-0.15713 -0.0233,-0.71177 -0.0321,-1.23254 -0.0208,-1.23337 -0.0493,-1.71794 -0.13281,-2.25286 -0.0362,-0.23197 -0.10979,-0.55597 -0.15619,-0.68775 l -0.0295,-0.0837 -0.43261,0.41665 c -0.23794,0.22916 -0.57612,0.54966 -0.7515,0.71223 -4.47046,4.1438 -8.93291,6.51891 -14.18595,7.55037 -1.48721,0.29202 -3.01724,0.46886 -4.82406,0.55756 -0.46275,0.0227 -2.43217,0.033 -2.93035,0.0153 z m 2.18756,-1.55073 c 1.48818,-0.0382 2.72744,-0.13746 3.99148,-0.3198 5.43403,-0.7839 9.84096,-2.9567 14.36607,-7.08308 0.17957,-0.16375 0.39242,-0.3601 0.47298,-0.43632 l 0.14648,-0.13859 -6.42347,-0.0107 c -3.53291,-0.006 -11.6981,-0.0144 -18.14488,-0.0189 -6.44677,-0.005 -12.27853,-0.0124 -12.95947,-0.0175 -1.09481,-0.008 -1.2365,-0.006 -1.22439,0.0151 0.0332,0.0591 0.93529,0.98483 1.33603,1.37106 2.62837,2.53318 5.13669,4.14971 8.09724,5.21843 2.869,1.03567 6.4048,1.52126 10.34193,1.42029 z m 23.5426,-1.25288 c 0.0538,-0.12514 0.12383,-0.42101 0.15171,-0.64076 0.0333,-0.26275 0.0645,-1.07722 0.051,-1.33049 -0.0759,-1.4173 -0.33312,-2.49874 -0.78823,-3.31399 -0.0941,-0.16857 -0.24793,-0.40674 -0.25655,-0.39721 -0.003,0.003 0.001,0.0495 0.008,0.10336 0.0587,0.43012 0.092,1.18099 0.10522,2.37529 0.0104,0.93642 0.0248,1.25611 0.0752,1.66516 0.0882,0.71552 0.25639,1.19344 0.54136,1.53864 0.0352,0.0427 0.0673,0.0775 0.0712,0.0775 0.004,0 0.0222,-0.0349 0.0405,-0.0775 z m -28.25846,-20.18186 -3.91759,-7.51771 0.21505,-0.0109 c 0.11828,-0.006 0.78208,-0.0137 1.47512,-0.0172 l 1.26006,-0.006 3.91804,7.51861 3.91804,7.51861 -0.28875,0.0109 c -0.1588,0.006 -0.82281,0.0133 -1.47556,0.0163 l -1.18682,0.005 z m 9.48636,-0.0363 c -2.15646,-4.13225 -3.9151,-7.51893 -3.90807,-7.52595 0.007,-0.007 0.67278,-0.0109 1.47947,-0.009 l 1.46669,0.004 3.9093,7.50137 c 2.15011,4.12575 3.91291,7.51055 3.91734,7.52178 0.006,0.0162 -0.29374,0.0204 -1.46792,0.0204 h -1.47596 z m -3.89711,-11.87578 c -4.73378,-0.0813 -10.10034,-1.22039 -15.84348,-3.36306 -2.3394,-0.87278 -4.34373,-1.73334 -7.14747,-3.06875 l -0.18482,-0.088 0.21747,-0.10739 c 0.36289,-0.17919 1.21107,-0.58115 1.7715,-0.83952 5.33766,-2.46089 10.31489,-4.12104 14.89777,-4.96914 3.29247,-0.6093 6.33156,-0.79696 9.38263,-0.57937 6.26543,0.44681 13.23513,2.54881 21.04191,6.34605 l 0.30089,0.14636 -0.0478,0.0246 c -0.0263,0.0135 -0.28294,0.13649 -0.57026,0.27329 -7.53362,3.58687 -14.29331,5.61727 -20.34921,6.11225 -0.7003,0.0572 -1.25062,0.0862 -2.04063,0.10733 -0.55071,0.0147 -0.82464,0.0158 -1.42845,0.005 z m 1.43661,-2.53559 c 5.15207,-0.12754 10.45088,-1.30062 16.05571,-3.55451 0.95623,-0.38453 0.91658,-0.36776 0.90233,-0.38144 -0.0172,-0.0165 -0.84311,-0.36215 -1.39208,-0.58257 -6.44254,-2.58678 -12.49831,-3.72197 -18.21878,-3.41524 -5.02183,0.26928 -10.2006,1.56601 -15.87483,3.97497 l -0.064,0.0272 0.0721,0.0324 c 0.42769,0.19179 2.25147,0.89279 3.11678,1.19799 5.41469,1.90979 10.60496,2.82005 15.40271,2.70128 z m -10.25509,-15.62721 c 0.0133,-0.92228 0.0448,-1.3816 0.13506,-1.97125 0.19452,-1.27046 0.62145,-2.34089 1.28596,-3.2242 0.18385,-0.24439 0.34214,-0.42408 0.59683,-0.67749 1.33729,-1.33064 3.40902,-2.3808 5.50279,-2.78938 1.40449,-0.27407 2.67042,-0.2589 4.10538,0.0492 1.78429,0.38308 3.56943,1.23365 4.86505,2.31805 0.22278,0.18647 0.6021,0.55789 0.77988,0.76364 0.83115,0.96192 1.33591,2.17076 1.52093,3.64239 0.0772,0.61415 0.10662,1.17793 0.10706,2.05232 l 2.8e-4,0.55914 h -9.45483 -9.45482 l 0.0104,-0.72239 z m 17.52787,-0.64484 c 0,-0.1695 -0.0352,-0.71533 -0.0656,-1.01938 -0.12371,-1.23768 -0.42319,-2.09595 -1.00145,-2.87007 -0.15639,-0.20936 -0.58942,-0.6406 -0.85928,-0.85572 -1.26079,-1.00506 -3.25506,-1.83319 -5.0118,-2.08119 -0.48295,-0.0682 -0.58932,-0.0751 -1.15091,-0.0746 -0.58923,4.6e-4 -0.75043,0.0129 -1.28108,0.0985 -1.97521,0.31898 -4.10416,1.31985 -5.25782,2.47183 -0.25019,0.24983 -0.38893,0.41725 -0.56368,0.68025 -0.48768,0.73396 -0.75783,1.63805 -0.85538,2.86268 -0.023,0.28817 -0.0477,0.83735 -0.0385,0.85298 0.004,0.007 3.62486,0.0122 8.04638,0.0122 h 8.03914 v -0.0775 z M 138.77739,200.5774 c -5.88559,-0.0476 -10.83962,-0.087 -11.00894,-0.0876 l -0.30786,-0.001 0.0875,-0.0769 c 0.19696,-0.17324 0.47106,-0.45167 1.00101,-1.01684 0.59166,-0.63096 0.85034,-0.88862 1.10261,-1.09828 0.28646,-0.23807 0.56998,-0.40634 0.80809,-0.4796 0.11599,-0.0357 0.38534,-0.0382 0.79993,-0.008 0.40946,0.0303 1.53965,0.0412 2.05696,0.0199 0.99819,-0.0411 1.89499,-0.12663 2.81544,-0.2685 l 0.33404,-0.0515 0.0874,-0.26936 c 0.55563,-1.71215 1.77605,-6.5593 2.06856,-8.21567 l 0.0425,-0.24087 -0.26776,-0.44478 c -0.46132,-0.7663 -0.88687,-1.43042 -1.9378,-3.02415 -1.34021,-2.03244 -1.90555,-2.93472 -2.56739,-4.09759 -0.43237,-0.75971 -0.97209,-1.80393 -1.28256,-2.48142 l -0.13465,-0.29385 -0.23192,-0.1983 c -1.19916,-1.02535 -2.13932,-2.18475 -2.8025,-3.45604 -0.66902,-1.28246 -1.01613,-2.73706 -0.97449,-4.08374 0.0113,-0.36521 0.0607,-1.02098 0.15734,-2.08961 0.0781,-0.86383 0.11001,-1.31145 0.12437,-1.74678 l 0.0108,-0.32651 -0.26741,-0.0717 c -0.40654,-0.10908 -0.98029,-0.30016 -1.91624,-0.6382 -1.14083,-0.41205 -1.49087,-0.52522 -2.01615,-0.65187 -0.59781,-0.14414 -1.06422,-0.20181 -1.6325,-0.20187 -0.64403,0 -1.1605,0.0775 -1.83451,0.27559 -0.1066,0.0313 -0.19619,0.0546 -0.19907,0.0517 -0.008,-0.008 0.43313,-0.99387 0.5373,-1.20032 0.33546,-0.66479 0.69092,-1.09569 1.16471,-1.41192 0.27856,-0.18592 0.49272,-0.27404 0.92348,-0.37998 0.44382,-0.10914 0.9103,-0.15931 1.73441,-0.18654 0.92059,-0.0304 1.27153,-0.0553 1.63671,-0.11623 0.38966,-0.065 0.79683,-0.18327 1.08904,-0.31643 0.11779,-0.0537 0.15295,-0.061 0.4317,-0.09 0.16691,-0.0173 0.61644,-0.0686 0.99896,-0.11387 0.85363,-0.10103 1.36355,-0.15518 1.76959,-0.18791 1.56148,-0.12589 2.71389,-0.0323 3.74661,0.30421 0.19184,0.0625 0.27249,0.10245 0.40812,0.20205 0.55731,0.40927 1.04162,1.25358 1.35596,2.36386 0.099,0.34974 0.16768,0.69677 0.27662,1.39809 0.11344,0.73031 0.16275,1.01059 0.22116,1.25703 0.0408,0.17197 0.14493,0.51449 0.16697,0.549 0.006,0.0101 0.16604,0.0811 0.35459,0.15767 3.24617,1.31845 5.78878,2.91231 7.88309,4.94159 0.56817,0.55054 2.5469,2.84057 4.18257,4.8406 1.23998,1.51619 2.06266,2.55152 4.76726,5.99947 1.98241,2.52725 3.01461,3.82753 3.99798,5.03625 1.72994,2.1264 3.35334,4.01777 4.73417,5.51564 0.48752,0.52884 0.60882,0.66956 0.83233,0.96555 0.54973,0.72801 0.81954,1.3632 0.75934,1.78768 -0.0569,0.40107 -0.39176,0.64185 -0.98182,0.70596 l -0.17375,0.0189 -0.0272,0.0987 c -0.0448,0.16242 -0.15169,0.41506 -0.24693,0.58363 -0.31883,0.56429 -0.85139,1.03532 -1.56591,1.38499 -0.47729,0.23357 -0.92876,0.38337 -1.49374,0.49565 -0.65188,0.12954 -1.06095,0.14775 -1.57094,0.0699 -1.73618,-0.26496 -3.09764,-0.78164 -4.46118,-1.69305 -0.93643,-0.62592 -1.87206,-1.48589 -2.75269,-2.53007 -0.75208,-0.89175 -1.651,-2.17551 -2.42068,-3.457 -0.0608,-0.10117 -0.0912,-0.11706 -0.0917,-0.0478 -5.1e-4,0.0706 -0.0656,0.34353 -0.12257,0.51371 -0.16326,0.48791 -0.42815,0.81541 -0.81586,1.00872 -0.332,0.16552 -0.65121,0.21722 -0.95502,0.15468 -0.56973,-0.11728 -1.08997,-0.41954 -1.794,-1.04233 -0.0933,-0.0825 -0.17417,-0.15008 -0.1797,-0.15008 -0.006,0 -0.023,0.11938 -0.0388,0.26529 -0.093,0.85649 -0.30184,1.75748 -0.63275,2.73037 -0.095,0.27942 -0.53645,1.50321 -0.62869,1.74303 -0.013,0.0339 -0.0237,0.0637 -0.0237,0.0665 0,0.003 0.0628,0.002 0.13952,-0.002 0.46088,-0.0242 1.40395,0.13638 2.23578,0.38068 1.82141,0.53493 3.16619,1.36798 3.68886,2.28515 0.0808,0.14183 0.16699,0.33823 0.18257,0.41616 l 0.01,0.0493 -0.33263,-0.002 c -0.18294,-0.001 -5.14811,-0.0411 -11.03371,-0.0887 z m 20.90426,-2.02502 c 0.86165,-0.10015 1.57472,-0.38067 2.05847,-0.80977 0.1337,-0.1186 0.2925,-0.29397 0.3768,-0.41611 l 0.0586,-0.0849 -0.19055,-0.25386 c -0.82013,-1.09262 -1.98389,-2.28546 -3.30734,-3.38999 -0.30387,-0.25359 -0.34497,-0.28242 -1.14268,-0.80132 -4.72158,-3.0713 -9.81902,-6.01301 -17.90045,-10.33024 -0.5926,-0.31658 -1.13186,-0.60528 -1.19835,-0.64157 -0.0665,-0.0363 -0.11482,-0.0556 -0.1074,-0.043 0.0214,0.0364 0.3255,0.46197 1.00213,1.40242 1.5703,2.18253 2.20625,3.11089 2.90763,4.24452 0.40696,0.65777 0.86058,1.45957 1.12449,1.98758 0.0639,0.12794 0.12177,0.23263 0.12849,0.23263 0.0118,0 0.34125,-0.22207 0.69912,-0.47125 0.095,-0.0661 0.1785,-0.1139 0.18556,-0.10612 0.007,0.008 0.62813,0.75138 1.38016,1.65243 1.08771,1.30326 1.37931,1.64329 1.4259,1.66276 0.039,0.0163 0.0935,0.0223 0.16314,0.0178 0.0993,-0.006 0.10807,-0.0104 0.17354,-0.0797 0.13758,-0.14561 0.18177,-0.3859 0.16637,-0.9047 -0.01,-0.32968 -0.0227,-0.46325 -0.11608,-1.19989 -0.0618,-0.48729 -0.30516,-2.71054 -0.29943,-2.73512 0.007,-0.0295 1.52969,1.82649 1.82221,2.22088 0.32804,0.44227 0.59658,0.82635 1.11859,1.59985 1.28255,1.90047 1.47171,2.17385 1.92585,2.78343 1.26332,1.69568 2.39579,2.78205 3.649,3.50045 0.96473,0.55302 2.02963,0.8822 3.14532,0.97228 0.3832,0.0309 0.4051,0.0307 0.75095,-0.01 z m -19.07678,-1.31225 c 0.36145,-0.0737 0.6541,-0.23215 0.94296,-0.51069 0.53972,-0.52043 0.93726,-1.35302 1.24514,-2.60776 0.0638,-0.2601 0.19866,-0.90078 0.19116,-0.90828 -0.002,-0.002 -0.0439,0.0451 -0.0931,0.10475 -0.14437,0.17493 -0.65656,0.69225 -0.93022,0.93952 -0.26912,0.24318 -0.91293,0.7861 -0.92038,0.77615 -0.002,-0.003 -0.0578,-0.24836 -0.12292,-0.54466 -0.22805,-1.03696 -0.43299,-1.78845 -0.63886,-2.34265 -0.055,-0.14815 -0.10396,-0.28222 -0.10873,-0.29793 -0.016,-0.0526 -0.0334,-0.0294 -0.0609,0.0816 -0.13242,0.53345 -0.46917,1.73891 -0.66241,2.37121 -0.24875,0.81393 -0.33726,1.23515 -0.35336,1.68149 -0.0177,0.49111 0.0768,0.80407 0.30907,1.02353 0.20067,0.18958 0.42601,0.2626 0.81731,0.26485 0.16552,9.5e-4 0.26861,-0.007 0.38527,-0.0312 z m 20.26562,-3.84067 c -0.0821,-0.0911 -0.68761,-0.81678 -1.0592,-1.26927 -0.5699,-0.69399 -1.20593,-1.48334 -2.48414,-3.083 -2.06714,-2.58697 -3.15954,-3.92227 -6.59962,-8.06703 -2.86524,-3.45217 -4.15221,-5.0194 -5.64381,-6.87285 -0.31956,-0.39708 -0.39681,-0.48218 -0.66874,-0.73665 -2.08537,-1.95151 -4.35525,-3.34006 -7.51497,-4.59711 -0.23794,-0.0947 -0.46612,-0.18892 -0.50707,-0.20947 -0.22982,-0.11534 -0.44077,-0.39769 -0.56744,-0.75953 -0.11146,-0.31841 -0.17185,-0.68233 -0.24764,-1.49247 -0.0564,-0.60249 -0.0847,-0.82085 -0.13112,-1.01215 -0.0174,-0.0718 -0.0509,-0.2261 -0.0743,-0.34283 -0.16337,-0.81478 -0.3943,-1.34882 -0.73958,-1.71026 -0.32131,-0.33635 -0.71124,-0.51404 -1.26223,-0.57521 l -0.0929,-0.0103 -0.0102,0.0623 c -0.091,0.55682 -0.21422,0.94099 -0.45784,1.4272 -0.26955,0.53798 -0.56591,0.95195 -0.96913,1.35375 -0.12195,0.12151 -0.29316,0.27432 -0.38047,0.33957 -0.1593,0.11906 -0.4458,0.29606 -0.47975,0.29638 -0.0169,1.7e-4 -0.28387,-0.54836 -0.28387,-0.58317 0,-0.009 0.0312,-0.0297 0.0694,-0.0468 0.10325,-0.0462 0.30722,-0.20535 0.41765,-0.32586 0.52389,-0.57173 0.77532,-1.58431 0.60502,-2.43656 l -0.0173,-0.0867 -0.0925,0.0107 c -0.59245,0.0688 -2.29282,0.31088 -2.34536,0.3339 -0.0245,0.0107 -0.0119,0.0146 0.05,0.0154 0.16289,0.002 0.42558,0.0909 0.6008,0.20304 0.11047,0.0707 0.27207,0.22105 0.34651,0.32246 0.0536,0.0729 0.0582,0.0875 0.0485,0.15195 -0.0282,0.18839 -0.209,0.32878 -0.54122,0.42039 -0.11118,0.0307 -0.17113,0.0356 -0.43115,0.0356 -0.26052,0 -0.31995,-0.005 -0.43261,-0.0359 -0.3773,-0.10361 -0.59383,-0.29817 -0.62075,-0.55775 -0.009,-0.089 -0.009,-0.0905 0.0643,-0.16575 0.15469,-0.15958 0.32274,-0.26974 0.49601,-0.32514 0.0512,-0.0164 0.0857,-0.0301 0.0767,-0.0305 -0.0249,-0.001 -0.67851,0.0755 -1.03664,0.12151 -0.17509,0.0225 -0.86564,0.1179 -1.53456,0.212 -0.66892,0.0941 -1.34086,0.18785 -1.4932,0.20835 l -0.27698,0.0373 0.26066,0.0716 c 0.37905,0.10412 0.98713,0.31278 1.57482,0.5404 1.00607,0.38966 1.21998,0.47028 1.52676,0.57539 0.69639,0.2386 1.30775,0.38326 1.84437,0.43638 0.0988,0.01 0.2098,0.0214 0.24673,0.0259 l 0.0672,0.008 -0.006,0.10953 c -0.007,0.12622 -0.0931,1.8799 -0.12271,2.50932 -0.0264,0.56112 -0.0266,2.19326 -4.2e-4,2.59568 0.028,0.43003 0.0633,0.7968 0.11044,1.14629 0.3457,2.56496 1.41611,4.33531 3.35095,5.54215 0.25182,0.15707 0.5068,0.29817 0.5182,0.28677 0.004,-0.004 -0.0106,-0.0402 -0.0329,-0.0801 -0.0741,-0.13249 -0.23576,-0.50136 -0.31205,-0.71183 -0.22821,-0.62957 -0.32248,-1.15392 -0.32359,-1.79997 -7.4e-4,-0.42428 0.0199,-0.61556 0.10339,-0.95597 0.14074,-0.57422 0.43011,-1.14508 0.84359,-1.66421 0.30211,-0.3793 0.82559,-0.86009 1.29859,-1.19269 0.79083,-0.5561 1.85264,-1.04814 2.62567,-1.21674 0.20677,-0.0451 0.44968,-0.0527 0.47371,-0.0148 0.0234,0.0369 0.0209,0.0435 -0.0451,0.11651 -0.0829,0.0917 -0.22219,0.19565 -0.79394,0.59223 -0.63412,0.43983 -0.88734,0.62448 -1.20769,0.88062 -1.099,0.87878 -1.69946,1.6533 -1.88447,2.43073 -0.0409,0.17186 -0.0436,0.2066 -0.0419,0.54277 0.007,1.41289 0.43255,2.63817 1.2908,3.71577 0.21317,0.26765 0.78545,0.84477 1.07397,1.08305 0.58849,0.48602 1.23967,0.92976 2.11411,1.44064 0.61381,0.35861 1.1352,0.64256 5.50154,2.9961 2.63164,1.4185 3.79515,2.05415 5.21586,2.84954 4.32086,2.41904 7.74172,4.57649 10.60314,6.68713 0.20202,0.14901 0.37043,0.27094 0.37424,0.27095 0.004,1e-5 -0.008,-0.0165 -0.0261,-0.0367 z m -18.80708,-1.45672 c 0.46518,-0.64841 0.5216,-0.94008 0.25584,-1.32262 -0.025,-0.0359 -0.1352,-0.22325 -0.24499,-0.41629 -2.32879,-4.09463 -4.74859,-7.60003 -7.11936,-10.31337 -0.14318,-0.16386 -0.26403,-0.29793 -0.26857,-0.29793 -0.0153,0 0.32083,0.60667 0.61063,1.10194 0.57598,0.98436 1.04269,1.71708 2.38647,3.74661 0.84827,1.28115 1.13917,1.72764 1.48908,2.28551 0.99208,1.58173 1.70844,2.94249 2.22435,4.22526 0.13028,0.32394 0.35932,0.95025 0.42643,1.16609 0.016,0.0516 0.0333,0.0937 0.0384,0.0934 0.005,-2.4e-4 0.0959,-0.12112 0.20168,-0.26864 z m -4.56544,-36.55568 c -0.0165,-2.4011 -0.0652,-16.39448 -0.0571,-16.40255 0.008,-0.008 10.65595,-0.0786 10.78875,-0.071 l 0.0898,0.005 -0.10251,8.88812 c -0.0564,4.88847 -0.10591,8.89152 -0.11006,8.89568 -0.004,0.004 -2.19865,0.0497 -4.87664,0.10116 -2.678,0.0515 -5.06093,0.0983 -5.29541,0.10405 l -0.42632,0.0104 z m 5.77698,0.0835 c 1.93942,-0.0326 3.52932,-0.0622 3.5331,-0.0656 0.0114,-0.0104 0.14534,-15.17954 0.13411,-15.1896 -0.0123,-0.011 -8.19234,0.0557 -8.20277,0.0669 -0.004,0.004 0.006,2.8801 0.0229,6.39081 0.0165,3.51071 0.0303,6.9444 0.0307,7.63043 l 7.2e-4,1.24734 0.47751,-0.0105 c 0.26263,-0.006 2.0643,-0.0372 4.00371,-0.0698 z"
       id="path1214" />
  </g>
</svg>
