<?xml version="1.0" encoding="UTF-8" standalone="no"?>
<!-- Created with Inkscape (http://www.inkscape.org/) -->

<svg
   width="1080"
   height="1920"
   viewBox="0 0 285.75001 508"
   version="1.1"
   id="svg5"
   inkscape:export-filename="/Users/albertotomasoni/ALBERTO.png"
   inkscape:export-xdpi="96"
   inkscape:export-ydpi="96"
   inkscape:version="1.1.1 (c3084ef, 2021-09-22)"
   sodipodi:docname="rachele.svg"
   xmlns:inkscape="http://www.inkscape.org/namespaces/inkscape"
   xmlns:sodipodi="http://sodipodi.sourceforge.net/DTD/sodipodi-0.dtd"
   xmlns="http://www.w3.org/2000/svg"
   xmlns:svg="http://www.w3.org/2000/svg">
  <sodipodi:namedview
     id="namedview7"
     pagecolor="#ffffff"
     bordercolor="#666666"
     borderopacity="1.0"
     inkscape:pageshadow="2"
     inkscape:pageopacity="0.0"
     inkscape:pagecheckerboard="0"
     inkscape:document-units="px"
     showgrid="false"
     units="px"
     inkscape:zoom="0.41668224"
     inkscape:cx="507.58103"
     inkscape:cy="995.96278"
     inkscape:window-width="1440"
     inkscape:window-height="900"
     inkscape:window-x="0"
     inkscape:window-y="0"
     inkscape:window-maximized="0"
     inkscape:current-layer="g2878" />
  <defs
     id="defs2" />
  <g
     inkscape:label="ALBERTO"
     inkscape:groupmode="layer"
     id="g2878">
    <text
       xml:space="preserve"
       style="font-weight:500;font-size:19.0077px;line-height:1.25;font-family:'Helvetica Neue';-inkscape-font-specification:'Helvetica Neue Medium';text-align:center;text-decoration-color:#000000;text-anchor:middle;white-space:pre;inline-size:858.441;fill=currentColor;stroke-width:1.51181;stroke-linecap:round;paint-order:markers fill stroke;stop-color:#000000"
       x="413.24438"
       y="323.54794"
       id="text2874"
       transform="matrix(2.7839642,0,0,2.7839642,-1007.9147,-810.36416)"><tspan
         x="413.24438"
         y="323.54794"
         id="tspan1468"><tspan
           style="font-weight:normal;font-family:Bison;-inkscape-font-specification:Bison"
           id="tspan1466">rachele</tspan></tspan></text>
    <path
       style="fill=currentColor;stroke-width:0.0163251"
       d="m 112.57565,343.09632 v -1.08562 l 11.65202,-0.002 c 11.52481,-0.002 11.65006,-0.002 11.47245,-0.033 -1.03135,-0.17913 -1.46367,-0.26231 -2.16307,-0.41612 -7.3812,-1.62344 -13.31566,-5.01193 -16.92277,-9.6627 -0.58953,-0.76011 -1.15706,-1.61762 -1.63138,-2.46496 -0.17999,-0.32154 -0.53255,-1.02337 -0.68887,-1.3713 -0.96808,-2.1548 -1.51184,-4.38174 -1.6702,-6.84021 -0.0104,-0.16162 -0.0255,-0.2963 -0.0335,-0.29929 -0.0195,-0.007 -0.0195,-183.10476 -4e-5,-183.10476 0.008,0 0.0194,-0.0679 0.0253,-0.15101 0.0953,-1.34139 0.25224,-2.36665 0.53277,-3.48132 0.94755,-3.76505 3.04602,-7.04207 6.25242,-9.76392 4.4323,-3.76249 10.87447,-6.28349 18.22572,-7.13222 0.32017,-0.037 10.17684,-0.037 10.49702,0 5.49808,0.63478 10.54357,2.21735 14.58645,4.57521 2.81155,1.63972 5.10287,3.62436 6.81768,5.90518 1.59143,2.11671 2.67364,4.4837 3.2207,7.04427 0.19381,0.90713 0.30749,1.74716 0.38608,2.8528 0.006,0.0831 0.0173,0.15101 0.0253,0.15101 0.0195,0 0.0195,183.0975 0,183.10476 -0.008,0.003 -0.0232,0.13767 -0.0336,0.29929 -0.17664,2.74237 -0.84056,5.23077 -2.01667,7.55851 -1.29492,2.56291 -3.16736,4.82497 -5.61609,6.78475 -3.45195,2.76268 -7.99905,4.82481 -13.16618,5.97094 -0.7619,0.169 -1.32362,0.27732 -2.36713,0.45649 -0.0568,0.01 4.19319,0.0161 11.56223,0.0174 l 11.65202,0.002 v 1.08562 1.08562 h -30.29934 -30.29933 v -1.08562 z m 32.01347,-2.7337 c 1.24172,-0.0564 2.21654,-0.13236 3.26502,-0.25431 6.672,-0.77598 12.49854,-3.06085 16.61449,-6.51537 3.09599,-2.59846 5.1445,-5.80236 6.02707,-9.42641 0.24596,-1.00998 0.38062,-1.88156 0.47027,-3.04376 0.0277,-0.35892 0.029,-4.40356 0.029,-91.71427 0,-73.66922 -0.004,-91.39406 -0.0207,-91.62448 -0.10152,-1.39909 -0.31601,-2.57779 -0.69184,-3.8019 -0.61505,-2.00328 -1.66091,-3.91554 -3.05904,-5.59318 -0.68243,-0.81886 -1.59664,-1.73375 -2.43192,-2.43375 -1.65022,-1.38294 -3.61809,-2.6012 -5.78201,-3.57951 -3.34341,-1.51155 -7.17198,-2.51653 -11.29402,-2.96462 -2.50209,-0.272 -5.20561,-0.32867 -7.77889,-0.16306 -7.38749,0.47543 -14.01571,2.74468 -18.53387,6.34528 -1.06017,0.84487 -2.06087,1.81763 -2.87595,2.79566 -1.39813,1.67764 -2.444,3.5899 -3.05905,5.59318 -0.37583,1.22411 -0.59032,2.40281 -0.69183,3.8019 -0.0167,0.23042 -0.0207,17.95526 -0.0207,91.62448 0,87.31071 0.001,91.35535 0.029,91.71427 0.0897,1.1622 0.22431,2.03378 0.47027,3.04376 1.02579,4.21218 3.6229,7.84582 7.60044,10.63378 4.20362,2.94645 9.81796,4.83988 16.05328,5.41395 0.88937,0.0819 1.81342,0.1352 2.95483,0.17048 0.34241,0.0106 2.3684,-0.006 2.72629,-0.0221 z m 0.32081,-20.81447 c -0.006,-0.75014 -0.0146,-2.8258 -0.0195,-4.61258 -0.005,-1.97096 -0.0154,-3.31612 -0.0253,-3.42011 -0.0772,-0.80843 -0.54656,-1.75207 -1.36025,-2.73445 -0.35103,-0.4238 -0.9899,-1.08392 -1.47099,-1.51991 -0.88486,-0.80192 -1.98794,-1.65642 -3.3585,-2.60166 -0.21027,-0.14502 -0.33874,-0.24387 -0.33874,-0.26065 0,-0.0429 3.3772,-22.5814 3.39173,-22.63545 0.0123,-0.0458 0.0221,-0.0508 0.16674,-0.0852 0.17659,-0.042 0.46733,-0.0909 0.72686,-0.12206 0.27486,-0.0331 1.15042,-0.0281 1.41835,0.008 0.6332,0.0854 1.12121,0.2294 1.59813,0.47159 0.59612,0.30274 1.09117,0.76057 1.43756,1.32952 0.10815,0.17765 0.16564,0.29083 0.26011,0.5121 l 0.0731,0.17119 0.006,18.41468 0.006,18.41468 -0.81625,0.0109 c -0.44894,0.006 -1.01167,0.0137 -1.25052,0.0171 l -0.43426,0.006 z m 0.82289,-23.72303 0.0509,-11.12749 -0.0361,-0.0715 c -0.24101,-0.478 -0.84274,-0.8161 -1.63685,-0.91977 -0.22648,-0.0295 -0.56164,-0.0328 -0.6836,-0.007 -0.0691,0.0148 -0.10296,0.0349 -0.17166,0.10204 l -0.0856,0.0836 -1.37186,9.56103 c -0.75452,5.25857 -1.37185,9.57464 -1.37185,9.59126 0,0.0195 0.0333,0.0499 0.0939,0.0856 0.26795,0.15799 0.87312,0.5424 1.21213,0.76992 1.91096,1.28256 3.24839,2.59603 3.8486,3.77963 l 0.0939,0.18519 0.004,-0.45263 c 0.002,-0.24894 0.0265,-5.46 0.0545,-11.58011 z M 128.82726,277.1671 c -1.27258,-0.0256 -3.17344,-0.0783 -4.11392,-0.11398 -0.23345,-0.009 -0.85954,-0.0161 -1.39133,-0.0161 h -0.96687 l -0.0982,-0.11836 c -0.37712,-0.45442 -0.40292,-0.97073 -0.0781,-1.56208 0.17911,-0.32603 0.42056,-0.49019 0.86933,-0.59105 0.19021,-0.0427 0.7678,-0.0596 1.08717,-0.0317 0.49843,0.0435 1.04801,0.1452 1.77851,0.32896 0.39136,0.0985 0.48543,0.11627 0.72647,0.13756 1.52806,0.13499 2.86128,-0.003 3.81127,-0.39486 0.53831,-0.22197 1.10048,-0.59796 1.51951,-1.01628 0.32642,-0.32587 0.47698,-0.57452 0.52146,-0.86116 0.0223,-0.14347 0.003,-0.2742 -0.072,-0.48056 -0.18658,-0.51543 -0.20832,-1.22496 -0.066,-2.15276 0.0711,-0.46311 0.36736,-1.91051 0.54601,-2.6671 l 0.0843,-0.35711 -0.0357,-0.1 c -0.0723,-0.2026 -0.22557,-0.43871 -0.347,-0.53473 -0.18099,-0.14311 -0.43049,-0.1947 -0.65748,-0.13596 -0.1774,0.0459 -0.28406,0.12813 -0.4959,0.38228 -0.17088,0.20501 -0.52369,0.36478 -1.01167,0.45814 l -0.17698,0.0339 -0.10426,-0.0607 c -0.28026,-0.16304 -0.50026,-0.39027 -0.63036,-0.65107 -0.0774,-0.15519 -0.11478,-0.28935 -0.16735,-0.60088 -0.094,-0.55734 -0.12102,-0.64225 -0.22927,-0.72172 -0.25643,-0.1883 -0.44041,-0.50427 -0.44041,-0.75644 0,-0.0676 -0.008,-0.0805 -0.11992,-0.19781 -0.30241,-0.31654 -0.42116,-0.60343 -0.36362,-0.87845 0.0345,-0.16506 0.0949,-0.26757 0.24728,-0.41969 0.15723,-0.15699 0.35349,-0.29861 0.69336,-0.5003 0.53016,-0.31462 0.91223,-0.58058 1.28827,-0.89677 0.40731,-0.34249 0.45354,-0.37897 0.62993,-0.49703 0.34004,-0.22761 0.59786,-0.3452 1.0604,-0.48366 0.33134,-0.0992 0.88344,-0.28664 1.23035,-0.41774 l 0.25012,-0.0945 0.0292,-0.0862 c 0.1552,-0.45846 0.8035,-0.71046 2.02911,-0.78872 1.51641,-0.0968 2.88037,0.27327 4.15924,1.12858 0.92626,0.61949 1.70418,1.52507 2.43274,2.83198 0.26629,0.47768 0.70724,1.41773 0.88306,1.88256 0.0357,0.0943 0.0564,0.11887 0.24307,0.28829 2.31542,2.10103 5.37523,2.67216 9.34335,1.74399 l 0.25845,-0.0605 0.13311,-0.15593 c 0.74465,-0.87226 1.50096,-1.44895 2.34521,-1.78825 0.61223,-0.24605 1.30774,-0.34966 1.77535,-0.26447 0.44507,0.0811 0.8996,0.30393 1.34317,0.65854 0.19212,0.15359 0.55064,0.51418 0.74421,0.74851 0.3116,0.3772 0.65949,0.88155 0.94386,1.36836 l 0.14133,0.24192 -0.0609,0.1009 c -0.0792,0.13135 -0.2372,0.28846 -0.34011,0.33824 -0.11523,0.0557 -0.28138,0.0628 -0.42798,0.0181 -0.29188,-0.0889 -0.60614,-0.36001 -1.02488,-0.88422 -0.38383,-0.48051 -0.64939,-0.72174 -0.96185,-0.87373 -0.51718,-0.25158 -1.03305,-0.1883 -1.60942,0.19741 -0.0853,0.0571 -0.19059,0.13532 -0.23398,0.17386 l -0.0789,0.0701 0.19317,0.10472 c 1.68743,0.91476 3.42615,2.06878 4.77312,3.16801 0.94245,0.76911 1.72262,1.60508 2.27579,2.43858 0.50066,0.75435 0.7637,1.33689 0.8599,1.90434 0.0308,0.18189 0.0268,0.59651 -0.008,0.7836 -0.0918,0.49918 -0.3583,0.98088 -0.78353,1.4162 l -0.1794,0.18366 h -7.77773 -7.77772 l -0.0316,-0.0367 c -0.0844,-0.0982 -0.2315,-0.341 -0.27511,-0.45407 -0.10487,-0.27194 -0.0999,-0.4746 0.0176,-0.71481 0.0473,-0.0967 0.10058,-0.17203 0.18335,-0.25916 0.24633,-0.25933 0.50968,-0.39353 0.92734,-0.47257 0.21814,-0.0413 0.95549,-0.0415 1.27909,-3.2e-4 0.52433,0.0667 1.04567,0.17156 1.76311,0.35468 0.62924,0.1606 1.01958,0.22352 1.48558,0.23945 0.67331,0.023 1.21377,-0.10968 1.65255,-0.40576 0.22564,-0.15226 0.44856,-0.39057 0.59338,-0.63434 l 0.0673,-0.11325 -0.066,-0.13639 c -0.20679,-0.42723 -0.61028,-0.72967 -1.25593,-0.94138 -0.26233,-0.086 -0.51264,-0.14563 -0.80352,-0.19136 -0.2802,-0.044 -0.8678,-0.0398 -1.13025,0.008 -0.36678,0.0671 -0.62849,0.15639 -0.99566,0.33983 -0.25898,0.12939 -0.42514,0.19864 -0.74729,0.31144 -1.3431,0.4703 -4.42379,1.1102 -6.38311,1.32586 -1.4884,0.16383 -2.54711,0.17109 -3.73844,0.0256 -0.86717,-0.10588 -1.34485,-0.0527 -1.57937,0.17589 -0.0985,0.096 -0.12415,0.17399 -0.11526,0.35016 0.006,0.11894 0.0177,0.16839 0.0687,0.29029 0.0919,0.21956 0.10073,0.25622 0.0758,0.31629 -0.0852,0.20571 -0.51918,0.36465 -1.31502,0.48164 -0.64301,0.0945 -1.38763,0.15199 -2.69363,0.2079 -0.50456,0.0216 -4.51256,0.032 -5.40361,0.0141 z m 6.94642,-1.8076 c 1.6e-4,-0.10575 0.0406,-0.3663 0.0823,-0.52957 0.0504,-0.19724 0.0926,-0.31395 0.17235,-0.47595 0.2693,-0.54719 0.73385,-0.86979 1.44304,-1.0021 0.23793,-0.0444 0.98122,-0.0396 1.306,0.008 1.0538,0.15586 1.78213,0.23402 2.79976,0.30044 0.44218,0.0289 2.35262,0.029 2.7671,2.6e-4 0.63084,-0.0438 1.04321,-0.0962 1.58352,-0.2014 1.48576,-0.28914 3.26891,-0.88033 5.41207,-1.79431 0.26953,-0.11495 0.54685,-0.23488 0.61627,-0.26651 l 0.12622,-0.0575 -1e-5,-0.1601 c 0,-0.0881 -0.008,-0.29601 -0.0168,-0.46211 -0.0544,-0.98056 -0.21946,-1.51371 -0.5131,-1.65738 -0.0989,-0.0484 -0.0885,-0.0483 -0.51492,-0.003 -0.74521,0.0796 -1.81232,0.0909 -2.5665,0.0272 -1.37889,-0.11654 -2.59563,-0.42198 -3.73498,-0.93762 -0.89448,-0.40482 -1.83029,-1.02614 -2.55488,-1.69628 -0.0898,-0.083 -0.17168,-0.15602 -0.18199,-0.16219 -0.0115,-0.007 -0.0996,0.0907 -0.22923,0.25401 -1.85882,2.34212 -4.27723,4.21015 -7.15941,5.53008 -0.31122,0.14253 -0.31648,0.14711 -0.37176,0.32412 -0.0429,0.13725 -0.0432,0.38305 -7.4e-4,0.57497 0.10268,0.46423 0.44292,1.08721 0.99346,1.81901 0.22498,0.29907 0.50746,0.64484 0.52679,0.64484 0.008,0 0.0153,-0.0349 0.0154,-0.0775 z m 25.33642,-0.71339 c 0.15234,-0.0307 0.23687,-0.0675 0.25662,-0.11179 0.0304,-0.0681 -0.22926,-0.73292 -0.49546,-1.26851 -0.44055,-0.88636 -0.93961,-1.58324 -1.62389,-2.26752 -0.97921,-0.97922 -2.14582,-1.70652 -3.35313,-2.09043 -0.23167,-0.0737 -0.73326,-0.20053 -0.91325,-0.23098 -0.14367,-0.0243 -0.48894,-0.01 -0.62028,0.0266 -0.3,0.0824 -0.48463,0.2644 -0.55875,0.55075 -0.0643,0.2484 -0.0119,0.71731 0.12405,1.1112 0.0814,0.23571 0.56304,0.81936 1.01269,1.22711 1.11103,1.00751 2.66649,1.92343 4.99599,2.94185 l 0.35099,0.15344 0.35099,-0.008 c 0.21407,-0.005 0.39875,-0.0181 0.47343,-0.0332 z m -26.18542,-4.31808 c 1.16573,-0.61326 2.1769,-1.26228 3.10176,-1.99087 1.07558,-0.84732 2.04362,-1.81585 2.85152,-2.85296 0.27643,-0.35487 0.57588,-0.77465 0.57636,-0.80797 2.1e-4,-0.0149 -0.0244,-0.12509 -0.0547,-0.24487 -0.18837,-0.74472 -0.62892,-1.47821 -1.3136,-2.18707 -0.79956,-0.82781 -1.64964,-1.38945 -2.3932,-1.58117 -0.19176,-0.0494 -0.46027,-0.0934 -0.4758,-0.0778 -0.005,0.005 0.0162,0.0447 0.0471,0.0882 0.0309,0.0435 0.10018,0.15261 0.15403,0.24239 0.6674,1.11279 0.52205,1.7727 -0.44418,2.01672 -0.24764,0.0625 -0.38807,0.13693 -0.53822,0.28512 -0.12733,0.12566 -0.19968,0.25273 -0.24633,0.43261 -0.0349,0.13461 -0.0351,0.42953 -3.1e-4,0.62036 0.0316,0.17385 0.0319,0.28449 9.8e-4,0.46169 -0.0858,0.49211 -0.43056,1.02481 -1.08852,1.68198 l -0.30747,0.3071 -0.092,0.23163 c -0.31558,0.79479 -0.51376,1.63405 -0.57861,2.45025 -0.0201,0.25252 -0.0146,1.26047 0.007,1.29544 0.0141,0.0228 0.29839,-0.10991 0.79423,-0.37076 z m -3.86488,-3.92489 c 0.11469,-0.0345 0.21148,-0.11439 0.32848,-0.27107 0.17874,-0.23936 0.31052,-0.33595 0.54891,-0.40234 0.15637,-0.0436 0.53245,-0.0395 0.70688,0.008 0.27676,0.0747 0.50253,0.24479 0.61568,0.46377 0.0313,0.0606 0.0622,0.11016 0.0687,0.11019 0.007,0 0.0836,-0.0486 0.17141,-0.10809 0.77324,-0.52407 1.21066,-1.2279 1.29233,-2.07941 0.0308,-0.32145 0.0372,-0.89451 0.0116,-1.0413 -0.0497,-0.2848 -0.13987,-0.40246 -0.40722,-0.53147 -0.21844,-0.10542 -0.35883,-0.2087 -0.43234,-0.31807 -0.0678,-0.10083 -0.087,-0.18303 -0.0865,-0.37018 7.8e-4,-0.28572 0.0793,-0.46184 0.30743,-0.68974 0.0831,-0.083 0.14489,-0.151 0.1372,-0.151 -0.008,0 -0.14898,0.0326 -0.31397,0.0726 -0.42163,0.10198 -1.05168,0.2272 -1.48355,0.29485 -0.40701,0.0638 -0.60297,0.11085 -0.82359,0.19797 -0.32937,0.13006 -0.59939,0.29993 -0.97217,0.61158 -0.4075,0.34069 -1.00766,0.77881 -1.47504,1.07678 -0.17431,0.11113 -0.19219,0.12716 -0.20859,0.18686 -0.0547,0.19911 0.0428,0.46929 0.26996,0.74818 l 0.0775,0.0952 -0.0193,0.11415 c -0.0569,0.33717 0.11124,0.56167 0.5006,0.66849 0.1129,0.031 0.13645,0.0325 0.21727,0.0145 0.12775,-0.0285 0.38714,-0.12031 0.58856,-0.20828 0.15156,-0.0662 0.18559,-0.075 0.29385,-0.0761 0.10288,-10e-4 0.13749,0.006 0.21666,0.0451 0.0884,0.0434 0.27472,0.19586 0.25677,0.21009 -0.004,0.004 -0.0816,0.0348 -0.17142,0.0694 -0.19851,0.0765 -0.41134,0.18123 -0.54835,0.26978 -0.12311,0.0796 -0.30577,0.13975 -0.50445,0.1662 l -0.14709,0.0196 v 0.0772 c 0,0.19662 0.08,0.45864 0.1733,0.56765 0.0912,0.10658 0.16893,0.13948 0.32405,0.1372 0.0715,-0.001 0.16703,0.008 0.21223,0.0203 0.10726,0.029 0.1824,0.0294 0.27409,0.002 z m 2.10993,-1.61107 c -0.99488,-0.11592 -1.61027,-0.28589 -1.85024,-0.51106 -0.0709,-0.0665 -0.11164,-0.14765 -0.15059,-0.29993 -0.0636,-0.24878 -0.0298,-0.49577 0.0917,-0.67026 0.002,-0.003 0.0429,0.0145 0.0912,0.0382 l 0.0878,0.0431 -1.6e-4,0.18218 c -1.6e-4,0.16367 0.004,0.19168 0.0436,0.27554 0.0483,0.10309 0.15866,0.22968 0.27401,0.31435 0.31821,0.23359 0.97687,0.41505 1.78001,0.49039 0.41719,0.0391 0.41255,0.037 0.23604,0.11064 -0.17147,0.0716 -0.20641,0.0731 -0.60335,0.0269 z m -1.58195,-1.62751 -0.0474,-0.007 0.0109,-0.25579 c 0.02,-0.46982 0.0961,-0.66271 0.30701,-0.77852 0.0775,-0.0426 0.10598,-0.0485 0.25966,-0.054 0.20189,-0.007 0.36632,0.0146 0.53962,0.0717 0.12464,0.0411 0.28941,0.12945 0.3468,0.18593 0.0298,0.0293 0.0279,0.0327 -0.0736,0.13419 -0.13686,0.13685 -0.28115,0.2383 -0.48016,0.33759 -0.14709,0.0734 -0.42793,0.17706 -0.55489,0.20483 -0.0335,0.007 -0.0592,0.0286 -0.0791,0.0655 -0.0414,0.077 -0.12133,0.11017 -0.22886,0.0951 z m -0.52197,-0.22844 c -0.0464,-0.15858 -0.0566,-0.48147 -0.0196,-0.62025 0.0684,-0.25702 0.25307,-0.44414 0.56098,-0.56851 0.31103,-0.12563 0.55022,-0.13151 1.21568,-0.0299 0.14819,0.0226 0.006,0.11168 -0.22023,0.13766 -0.0742,0.009 -0.19847,0.0156 -0.27624,0.0156 -0.30866,2.7e-4 -0.56733,0.091 -0.72387,0.25393 -0.14877,0.15483 -0.27213,0.43018 -0.31978,0.71374 l -0.0212,0.12623 h -0.0937 c -0.0751,0 -0.0953,-0.006 -0.10202,-0.0286 z m 5.02455,-0.67422 c 0.19835,-0.0742 0.35858,-0.29336 0.43442,-0.59417 0.0439,-0.1742 0.0588,-0.37816 0.0331,-0.45575 -0.0296,-0.0897 -0.0764,-0.11282 -0.22288,-0.10999 -0.13427,0.003 -0.18664,0.022 -0.2535,0.094 -0.0841,0.0906 -0.13023,0.21788 -0.16176,0.44632 -0.0148,0.10715 -0.0411,0.1885 -0.11533,0.35713 -0.10155,0.23058 -0.11442,0.28805 -0.0676,0.30198 0.057,0.017 0.26443,-0.006 0.35351,-0.0396 z m -0.99664,-5.3e-4 c 0.0346,-0.01 0.0959,-0.0479 0.1362,-0.085 0.13899,-0.12812 0.22556,-0.36705 0.28261,-0.78001 0.0426,-0.30823 0.0765,-0.40216 0.18563,-0.51425 0.0668,-0.0686 0.10309,-0.0915 0.18099,-0.11392 0.1367,-0.0394 0.32943,-0.025 0.53039,0.0396 0.0849,0.0273 0.15661,0.0474 0.15935,0.0447 0.0164,-0.0164 -0.12682,-0.2553 -0.20134,-0.33578 -0.169,-0.18255 -0.3535,-0.2647 -0.60213,-0.26813 -0.12436,-0.002 -0.1577,0.004 -0.21705,0.0354 -0.14433,0.0771 -0.28097,0.23204 -0.4204,0.4768 -0.0605,0.10611 -0.13139,0.19253 -0.3015,0.36731 -0.30483,0.31319 -0.44085,0.49982 -0.48727,0.66857 -0.0158,0.0574 -0.0133,0.0722 0.0225,0.13323 0.14212,0.24251 0.48813,0.39919 0.73202,0.33146 z m 9.81625,-8.64524 c -0.006,-0.75287 -0.0146,-2.83077 -0.0196,-4.61755 -0.005,-1.97095 -0.0154,-3.31611 -0.0253,-3.4201 -0.0771,-0.80782 -0.5453,-1.7512 -1.35311,-2.72629 -1.04023,-1.25565 -2.61017,-2.59742 -4.81553,-4.11565 -0.22567,-0.15535 -0.35984,-0.25786 -0.35984,-0.27491 0,-0.0426 3.37707,-22.58082 3.3915,-22.6345 0.015,-0.0559 0.0146,-0.0558 0.34694,-0.12311 0.42552,-0.0863 0.65479,-0.10602 1.23254,-0.10627 0.56187,-2.5e-4 0.74566,0.0156 1.16725,0.1005 1.15599,0.23285 2.05677,0.83137 2.60008,1.72764 0.10964,0.18086 0.1669,0.29366 0.26117,0.51447 l 0.0731,0.17118 0.007,18.4105 c 0.006,16.65472 0.005,18.41118 -0.0183,18.41753 -0.014,0.004 -0.53232,0.0115 -1.15185,0.017 -0.61954,0.005 -1.17123,0.0141 -1.22599,0.0192 l -0.0996,0.009 z m 0.82285,-23.728 0.0509,-11.12749 -0.0361,-0.0715 c -0.28555,-0.56632 -1.10532,-0.9449 -2.0461,-0.9449 -0.27673,0 -0.35103,0.0206 -0.45423,0.12596 l -0.0765,0.0781 -1.37228,9.56069 c -0.75476,5.25837 -1.37218,9.57432 -1.37205,9.59098 1.7e-4,0.0219 0.10084,0.0914 0.36292,0.25068 2.38823,1.45124 4.0965,3.01462 4.79145,4.38505 l 0.0939,0.18518 0.004,-0.45263 c 0.002,-0.24894 0.0265,-5.45999 0.0545,-11.58011 z m -6.49016,-18.65127 c -1.9032,-0.0777 -3.09536,-0.19526 -4.55245,-0.44886 -3.31727,-0.57735 -6.24765,-1.72111 -8.92531,-3.48363 -1.41106,-0.92882 -2.78432,-2.04408 -4.06991,-3.30531 -1.07119,-1.05089 -2.41592,-2.513 -2.54327,-2.76528 -0.23941,-0.47427 0.0318,-1.02009 0.55651,-1.12 0.0717,-0.0137 42.39336,0.0234 42.93642,0.0377 0.36871,0.01 0.63523,0.0604 0.93053,0.1772 0.90785,0.3591 1.70492,1.19368 2.27654,2.38367 0.45833,0.95412 0.72648,2.02515 0.81022,3.23613 0.0265,0.38259 0.0108,1.58315 -0.0249,1.90281 -0.0641,0.57463 -0.16378,0.95536 -0.33789,1.29013 -0.23354,0.44905 -0.58029,0.74111 -1.06312,0.89546 -0.18908,0.0604 -0.27899,0.0637 -0.50231,0.0182 -0.4256,-0.0867 -0.78128,-0.27405 -1.06878,-0.56288 -0.55793,-0.56051 -0.86822,-1.46927 -0.97832,-2.86528 -0.0316,-0.40125 -0.0581,-1.14989 -0.0584,-1.64883 -4.1e-4,-0.93473 -0.0597,-1.82972 -0.15686,-2.36714 -0.0398,-0.22022 -0.12585,-0.55965 -0.15301,-0.6036 -0.011,-0.0178 -0.0826,0.0434 -0.30577,0.26159 -4.16789,4.07476 -8.24672,6.56649 -12.89293,7.8762 -2.12162,0.59806 -4.20629,0.92242 -6.88141,1.0707 -0.29402,0.0163 -2.69839,0.0332 -2.99565,0.0211 z m 2.85689,-1.57276 c 0.74952,-0.0362 1.57939,-0.0971 2.13858,-0.15699 5.53019,-0.59217 9.98202,-2.52678 14.38239,-6.25009 0.5858,-0.49566 1.6948,-1.49262 1.7187,-1.54505 0.003,-0.006 -4.59994,-0.0149 -10.22766,-0.0208 -5.62772,-0.006 -14.34981,-0.0156 -19.38243,-0.0215 l -9.1502,-0.0107 0.17141,0.18601 c 0.25976,0.28188 1.31038,1.3317 1.62435,1.62313 2.81922,2.61676 5.65563,4.26749 8.96246,5.21596 2.04901,0.5877 4.22574,0.90372 6.85653,0.99545 0.5022,0.0175 2.43725,0.007 2.90587,-0.0153 z m 22.85283,-1.34351 c 0.10818,-0.34221 0.13339,-0.5366 0.159,-1.22626 0.0134,-0.36043 0.0133,-0.55836 -3.5e-4,-0.75912 -0.0923,-1.35888 -0.30364,-2.26091 -0.71756,-3.06315 -0.11745,-0.22765 -0.30726,-0.542 -0.31903,-0.52837 -0.003,0.003 0.004,0.0868 0.0156,0.18554 0.0579,0.50123 0.0839,1.11539 0.0972,2.29367 0.005,0.47139 0.0169,0.97828 0.0258,1.12643 0.0532,0.88912 0.20578,1.5127 0.46986,1.92073 0.0689,0.10654 0.17722,0.23418 0.19865,0.23418 0.007,0 0.0389,-0.0826 0.0709,-0.18365 z m -26.477,-12.64069 c -5.88111,-0.0476 -10.7644,-0.087 -10.85176,-0.0876 l -0.15884,-0.001 0.15884,-0.14546 c 0.21722,-0.19892 0.5535,-0.54308 0.95852,-0.98097 0.92713,-1.00236 1.39701,-1.38855 1.87027,-1.53717 0.14002,-0.044 0.3497,-0.0481 0.76648,-0.0149 0.37491,0.0298 1.62703,0.0409 2.14674,0.0192 0.74831,-0.0314 1.40425,-0.0855 2.10594,-0.17374 0.43428,-0.0546 0.97688,-0.13759 0.99017,-0.15142 0.0151,-0.0157 0.15948,-0.46771 0.2819,-0.88271 0.63284,-2.14534 1.61924,-6.13464 1.87803,-7.59537 l 0.0424,-0.23915 -0.15838,-0.26693 c -0.43779,-0.73784 -0.98386,-1.5931 -1.98929,-3.11565 -1.53392,-2.32286 -2.21633,-3.42678 -2.96418,-4.79513 -0.24164,-0.44213 -0.76313,-1.47722 -0.95219,-1.88999 l -0.12712,-0.27753 -0.22336,-0.19026 c -0.86745,-0.73895 -1.6486,-1.60882 -2.23337,-2.48705 -0.61778,-0.9278 -1.05332,-1.88999 -1.30239,-2.87722 -0.17641,-0.69926 -0.24436,-1.25173 -0.24446,-1.98765 -7e-5,-0.51221 0.0138,-0.72021 0.14605,-2.19572 0.0937,-1.04537 0.12194,-1.45675 0.12654,-1.84524 l 0.004,-0.31623 -0.0571,-0.0155 c -0.60981,-0.16496 -1.09467,-0.32408 -2.09777,-0.68844 -1.60908,-0.58447 -2.27677,-0.7645 -3.11552,-0.84007 -0.2457,-0.0221 -0.84599,-0.0221 -1.08003,1e-5 -0.4142,0.0392 -0.88495,0.13047 -1.26329,0.24496 -0.12016,0.0364 -0.22437,0.064 -0.23157,0.0614 -0.0165,-0.006 0.31678,-0.76332 0.49781,-1.13115 0.35185,-0.71494 0.70173,-1.149 1.18472,-1.46976 0.30051,-0.19957 0.57621,-0.31098 1.01015,-0.40819 0.44205,-0.099 0.89074,-0.14296 1.7407,-0.17045 1.11896,-0.0362 1.57327,-0.0865 2.08961,-0.23148 0.18454,-0.0518 0.49305,-0.16524 0.60575,-0.22273 0.0418,-0.0213 0.12795,-0.039 0.25131,-0.0515 0.10326,-0.0105 0.59179,-0.0661 1.08562,-0.12354 1.15285,-0.13409 1.27603,-0.14723 1.74678,-0.18624 1.38867,-0.11508 2.40371,-0.0654 3.33499,0.1632 0.42885,0.10527 0.67113,0.19302 0.82896,0.30023 0.55366,0.37609 1.02262,1.13994 1.35411,2.2056 0.14651,0.471 0.20434,0.74916 0.34256,1.64782 0.1399,0.90963 0.23149,1.35037 0.34333,1.65209 l 0.0431,0.11619 0.31292,0.12616 c 1.47443,0.59445 2.97361,1.33732 4.14968,2.05625 1.38679,0.84774 2.61832,1.79403 3.76051,2.88952 0.4395,0.42153 2.14797,2.37953 3.50416,4.01597 1.39295,1.68079 2.58594,3.17632 5.59321,7.01162 1.63723,2.08803 2.56808,3.26369 3.36714,4.25268 2.0158,2.49491 3.65123,4.41072 5.21726,6.11171 0.19323,0.20988 0.41477,0.45434 0.49231,0.54324 0.49294,0.56513 0.87333,1.1679 1.02596,1.62576 0.15224,0.45668 0.1119,0.7759 -0.12683,1.00361 -0.16557,0.15793 -0.42211,0.25755 -0.76128,0.29563 l -0.17826,0.02 -0.0604,0.18026 c -0.21554,0.64384 -0.63974,1.17641 -1.27277,1.59793 -0.74596,0.49672 -1.77921,0.82195 -2.87321,0.90439 -0.13013,0.01 -0.23432,0.006 -0.43261,-0.0171 -1.92315,-0.22124 -3.67462,-0.91193 -5.1832,-2.04398 -1.5579,-1.16905 -2.93282,-2.78624 -4.47083,-5.25861 -0.16198,-0.26038 -0.30149,-0.48445 -0.31002,-0.49791 -0.0202,-0.0319 -0.0236,-0.0216 -0.0597,0.17957 -0.0631,0.35151 -0.21454,0.71474 -0.40121,0.96247 -0.22684,0.30103 -0.5818,0.50927 -0.98921,0.58031 -0.18766,0.0327 -0.30355,0.0308 -0.49545,-0.008 -0.53624,-0.10927 -1.04524,-0.40348 -1.73685,-1.00388 -0.11377,-0.0988 -0.21207,-0.18143 -0.21844,-0.1837 -0.006,-0.002 -0.0249,0.11895 -0.0412,0.26937 -0.11663,1.07547 -0.35824,2.00085 -0.93026,3.56298 -0.24631,0.67262 -0.35403,0.96918 -0.35403,0.97465 0,0.002 0.0533,1e-5 0.11836,-0.005 0.0651,-0.005 0.22488,-0.001 0.35507,0.009 1.2342,0.097 2.85416,0.59131 3.95883,1.20804 0.45615,0.25466 0.84061,0.53449 1.14088,0.83037 0.20891,0.20587 0.35196,0.38414 0.47412,0.59086 0.0857,0.14506 0.20525,0.4164 0.20525,0.46592 0,0.0308 1.1765,0.0375 -11.66427,-0.0664 z m 21.07567,-2.00703 c 0.93071,-0.0985 1.62852,-0.3548 2.14794,-0.78903 0.15212,-0.12717 0.34043,-0.33313 0.43025,-0.47058 l 0.0444,-0.0679 -0.0944,-0.12799 c -0.47052,-0.63811 -0.95803,-1.20021 -1.63819,-1.88879 -0.90105,-0.91223 -1.80285,-1.70439 -2.34689,-2.06158 -4.27771,-2.80851 -8.90774,-5.53105 -15.29265,-8.99233 -1.62908,-0.88312 -4.47007,-2.40535 -4.47809,-2.39939 -0.005,0.004 0.29943,0.43159 1.19869,1.68062 0.9499,1.31937 1.4168,1.98581 1.92716,2.75078 0.78178,1.17179 1.47875,2.34359 1.92986,3.24461 0.0551,0.10999 0.10493,0.19998 0.11081,0.19998 0.0189,0 0.16893,-0.0993 0.52443,-0.34715 0.34339,-0.23942 0.34797,-0.24197 0.37548,-0.20885 0.0153,0.0184 0.63758,0.7638 1.38282,1.65634 l 1.35498,1.62281 0.0948,0.0272 c 0.21631,0.062 0.3622,-0.0565 0.43144,-0.35053 0.0392,-0.16656 0.0387,-0.83723 -10e-4,-1.15908 -0.0149,-0.12121 -0.0495,-0.3967 -0.0767,-0.61219 -0.0668,-0.5284 -0.31252,-2.76632 -0.30642,-2.79111 0.005,-0.0222 1.49392,1.78059 1.73161,2.0973 0.38042,0.50691 0.77725,1.07914 1.72271,2.48418 0.58065,0.86289 0.97724,1.43521 1.28206,1.85013 1.18247,1.60957 2.22307,2.66822 3.35,3.40812 1.14024,0.74864 2.37077,1.16318 3.71336,1.25098 0.11223,0.007 0.21508,0.0143 0.22855,0.0155 0.0135,0.001 0.12734,-0.009 0.25304,-0.022 z m -18.96857,-1.32294 c 0.82304,-0.14863 1.45474,-0.85404 1.92184,-2.1461 0.16151,-0.44674 0.37154,-1.25627 0.46591,-1.79575 l 0.0157,-0.0898 -0.10853,0.12244 c -0.16403,0.18506 -0.5263,0.5571 -0.73705,0.75692 -0.28113,0.26656 -1.08768,0.95495 -1.09987,0.93874 -0.002,-0.003 -0.0504,-0.21539 -0.10655,-0.47128 -0.20754,-0.94652 -0.38551,-1.62638 -0.56198,-2.14675 -0.11079,-0.32671 -0.21215,-0.59556 -0.22459,-0.59573 -0.005,0 -0.0521,0.16332 -0.10412,0.3631 -0.16532,0.63459 -0.38146,1.40564 -0.56631,2.02022 -0.31781,1.05666 -0.37894,1.3582 -0.37892,1.86923 1e-5,0.28543 0.005,0.34281 0.0357,0.45615 0.1028,0.3732 0.30572,0.59045 0.64792,0.69372 0.22274,0.0672 0.51593,0.0763 0.80081,0.0249 z m 20.04469,-4.13367 c -0.76126,-0.90362 -1.38699,-1.6737 -3.14706,-3.87313 -2.35263,-2.93989 -3.24303,-4.02913 -6.60578,-8.08091 -2.98156,-3.59248 -4.33622,-5.24154 -5.71295,-6.95448 -0.3403,-0.4234 -0.45777,-0.55662 -0.66504,-0.75417 -2.1024,-2.0038 -4.46199,-3.44317 -7.79223,-4.75332 -0.45293,-0.17819 -0.58883,-0.2886 -0.7591,-0.61676 -0.1939,-0.37367 -0.28102,-0.80261 -0.37586,-1.85055 -0.046,-0.50804 -0.0761,-0.73627 -0.12282,-0.93053 -0.0173,-0.0718 -0.054,-0.2408 -0.0816,-0.37548 -0.0985,-0.48111 -0.20806,-0.8225 -0.36662,-1.14275 -0.32105,-0.64844 -0.81354,-0.99877 -1.53769,-1.09382 -0.0964,-0.0126 -0.17667,-0.0215 -0.17848,-0.0196 -0.002,0.002 -0.0156,0.0768 -0.0308,0.1666 -0.12965,0.77068 -0.49968,1.57771 -1.03671,2.26103 -0.18451,0.23477 -0.55903,0.60448 -0.77249,0.76257 -0.16778,0.12426 -0.42696,0.28223 -0.46304,0.28223 -0.014,0 -0.28251,-0.54463 -0.28251,-0.57312 0,-0.005 0.0643,-0.0488 0.14285,-0.0968 0.41379,-0.25274 0.74469,-0.75408 0.90109,-1.36525 0.10978,-0.42895 0.12883,-0.98003 0.0472,-1.36492 l -0.0165,-0.0779 -0.0761,0.009 c -0.64001,0.077 -2.38297,0.32584 -2.39971,0.34258 -0.004,0.004 0.0286,0.008 0.0736,0.008 0.19968,0 0.54073,0.13479 0.73123,0.289 0.0536,0.0434 0.14057,0.13014 0.19335,0.19285 0.093,0.11053 0.0957,0.11626 0.0861,0.18748 -0.0302,0.2238 -0.29356,0.3976 -0.69513,0.45876 -0.17837,0.0272 -0.56371,0.01 -0.72314,-0.0323 -0.35585,-0.0943 -0.57591,-0.2946 -0.60899,-0.55431 l -0.0111,-0.087 0.0961,-0.0986 c 0.12181,-0.12491 0.28409,-0.23162 0.44435,-0.29219 0.0812,-0.0307 0.10513,-0.0445 0.0681,-0.0394 -0.0314,0.004 -0.16366,0.0194 -0.29385,0.0333 -0.42236,0.0452 -1.11159,0.1363 -2.27735,0.30101 -0.62851,0.0888 -1.26943,0.1782 -1.42425,0.19865 -0.15482,0.0204 -0.27603,0.0417 -0.26936,0.0472 0.007,0.005 0.10396,0.0342 0.21619,0.0638 0.35498,0.0936 0.9982,0.31574 1.68148,0.58079 1.64254,0.63715 2.10375,0.78539 2.84082,0.91312 0.18756,0.0325 0.65714,0.0907 0.73173,0.0907 0.008,0 0.0118,0.0496 0.008,0.1102 -0.007,0.11964 -0.0564,1.12935 -0.0951,1.9386 -0.0975,2.03939 -0.0696,3.28314 0.0997,4.44042 0.33047,2.25881 1.22092,3.86738 2.79767,5.05389 0.0853,0.0642 0.24691,0.17751 0.35915,0.25184 0.20896,0.13838 0.68828,0.41903 0.69839,0.40891 0.003,-0.003 -0.0278,-0.0721 -0.0686,-0.15333 -0.30827,-0.6138 -0.49304,-1.2244 -0.58372,-1.92898 -0.0306,-0.23792 -0.0262,-0.86664 0.008,-1.09473 0.1937,-1.30297 1.00863,-2.44082 2.41125,-3.36672 0.13019,-0.0859 0.32119,-0.20518 0.42445,-0.26496 0.23648,-0.13693 0.78363,-0.40663 1.02331,-0.50441 0.5116,-0.20871 1.09347,-0.36868 1.34106,-0.36868 0.086,0 0.145,0.0457 0.1198,0.0928 -0.0475,0.0887 -0.24181,0.23724 -0.95519,0.72996 -0.85233,0.58869 -1.35089,0.98255 -1.82063,1.43828 -0.73859,0.71657 -1.12681,1.38158 -1.19763,2.05155 -0.0341,0.3226 0.0203,1.00769 0.11966,1.50684 0.3571,1.79411 1.42795,3.1594 3.54902,4.52482 0.81956,0.52759 0.87849,0.56019 6.16271,3.40966 2.96566,1.5992 4.1389,2.24105 5.64242,3.08685 4.29758,2.41756 7.56555,4.48843 10.45283,6.62383 0.1295,0.0958 0.23807,0.17414 0.24127,0.17414 0.003,0 -0.11643,-0.14509 -0.26581,-0.32242 z m -18.57832,-1.14866 c 0.0978,-0.1353 0.21353,-0.30593 0.25712,-0.3792 0.21152,-0.35552 0.22278,-0.6519 0.0353,-0.9293 -0.0318,-0.047 -0.1608,-0.26546 -0.28674,-0.48544 -2.3369,-4.082 -4.55895,-7.32087 -6.85997,-9.99911 -0.20057,-0.23345 -0.39872,-0.46118 -0.44034,-0.50607 -0.0722,-0.0779 -0.0744,-0.079 -0.0483,-0.0245 0.0567,0.11836 0.44088,0.79984 0.67444,1.19627 0.54763,0.92947 0.9455,1.55342 2.17276,3.4074 1.22907,1.85673 1.65912,2.5272 2.14134,3.33848 0.73326,1.23362 1.31733,2.39491 1.73323,3.4461 0.14222,0.35946 0.31354,0.83241 0.37645,1.03921 0.0239,0.0786 0.0487,0.14269 0.0552,0.14249 0.006,-2e-4 0.0917,-0.11105 0.18957,-0.24634 z m -0.0636,-35.05905 c -6.39693,-0.18393 -13.50998,-2.12262 -21.58175,-5.88222 -0.62687,-0.29197 -1.31417,-0.62415 -1.31417,-0.63514 0,-0.0177 1.36581,-0.66903 2.23654,-1.06649 4.95892,-2.26362 9.59603,-3.83443 13.86815,-4.69779 4.55441,-0.9204 8.51441,-1.05583 12.84783,-0.43937 5.49052,0.78106 11.46211,2.73932 18.0637,5.92361 0.30079,0.14508 0.55195,0.26889 0.55812,0.27513 0.0253,0.0256 -2.04768,0.99002 -3.35337,1.56018 -7.62436,3.32935 -14.52184,4.99937 -20.52512,4.96955 -0.35915,-0.002 -0.71912,-0.005 -0.79993,-0.007 z m 2.4406,-2.55104 c 1.73002,-0.0867 3.16242,-0.23874 4.78325,-0.5076 3.12821,-0.51888 6.38554,-1.42426 9.68893,-2.69305 0.6462,-0.24819 1.71832,-0.67982 1.74336,-0.70186 0.027,-0.0238 -1.6333,-0.70233 -2.65672,-1.08581 -4.20883,-1.57704 -8.23977,-2.52398 -12.12221,-2.84773 -1.70506,-0.14218 -3.45995,-0.16179 -5.15873,-0.0576 -4.73147,0.29009 -9.71702,1.5297 -15.01798,3.73409 l -0.59477,0.24734 0.0887,0.0394 c 0.0488,0.0217 0.38622,0.15877 0.74986,0.30467 4.72483,1.89575 9.28355,3.05023 13.59879,3.44386 0.73806,0.0673 1.52338,0.11451 2.43243,0.14614 0.30885,0.0108 2.13857,-0.005 2.46509,-0.0218 z"
       id="path1358" />
  </g>
</svg>
