<?xml version="1.0" encoding="UTF-8" standalone="no"?>
<!-- Created with Inkscape (http://www.inkscape.org/) -->

<svg
   width="1080"
   height="1920"
   viewBox="0 0 285.75001 508"
   version="1.1"
   id="svg5"
   inkscape:export-filename="/Users/albertotomasoni/ALBERTO.png"
   inkscape:export-xdpi="96"
   inkscape:export-ydpi="96"
   inkscape:version="1.1.1 (c3084ef, 2021-09-22)"
   sodipodi:docname="riccardo.svg"
   xmlns:inkscape="http://www.inkscape.org/namespaces/inkscape"
   xmlns:sodipodi="http://sodipodi.sourceforge.net/DTD/sodipodi-0.dtd"
   xmlns="http://www.w3.org/2000/svg"
   xmlns:svg="http://www.w3.org/2000/svg">
  <sodipodi:namedview
     id="namedview7"
     pagecolor="#ffffff"
     bordercolor="#666666"
     borderopacity="1.0"
     inkscape:pageshadow="2"
     inkscape:pageopacity="0.0"
     inkscape:pagecheckerboard="0"
     inkscape:document-units="px"
     showgrid="false"
     units="px"
     inkscape:zoom="0.46297025"
     inkscape:cx="502.1921"
     inkscape:cy="840.22678"
     inkscape:window-width="1440"
     inkscape:window-height="900"
     inkscape:window-x="0"
     inkscape:window-y="0"
     inkscape:window-maximized="0"
     inkscape:current-layer="g2878" />
  <defs
     id="defs2" />
  <g
     inkscape:label="ALBERTO"
     inkscape:groupmode="layer"
     id="g2878">
    <text
       xml:space="preserve"
       style="font-weight:500;font-size:19.0077px;line-height:1.25;font-family:'Helvetica Neue';-inkscape-font-specification:'Helvetica Neue Medium';text-align:center;text-decoration-color:#000000;text-anchor:middle;white-space:pre;inline-size:858.441;fill=currentColor;stroke-width:1.51181;stroke-linecap:round;paint-order:markers fill stroke;stop-color:#000000"
       x="413.24438"
       y="323.54794"
       id="text2874"
       transform="matrix(2.7839642,0,0,2.7839642,-1007.806,-810.36416)"><tspan
         x="413.24438"
         y="323.54794"
         id="tspan1324"><tspan
           style="font-weight:normal;font-family:Bison;-inkscape-font-specification:Bison"
           id="tspan1322">riccardO</tspan></tspan></text>
    <path
       style="fill=currentColor;stroke-width:0.0163251"
       d="m 112.57565,350.52422 v -1.08562 l 11.65202,-0.002 c 11.52481,-0.002 11.65006,-0.002 11.47245,-0.0329 -1.03135,-0.17914 -1.46367,-0.26231 -2.16307,-0.41613 -7.3812,-1.62343 -13.31566,-5.01193 -16.92277,-9.6627 -0.58953,-0.76011 -1.15706,-1.61761 -1.63138,-2.46495 -0.17999,-0.32154 -0.53255,-1.02337 -0.68887,-1.37131 -0.96808,-2.15479 -1.51184,-4.38173 -1.6702,-6.8402 -0.0104,-0.16162 -0.0255,-0.2963 -0.0335,-0.29929 -0.0195,-0.007 -0.0195,-190.53266 -4e-5,-190.53266 0.008,0 0.0194,-0.068 0.0253,-0.15101 0.0953,-1.34139 0.25224,-2.36665 0.53277,-3.48132 0.94755,-3.76505 3.04602,-7.04208 6.25242,-9.76392 4.4323,-3.76249 10.87447,-6.28349 18.22572,-7.13222 0.32017,-0.037 10.17684,-0.037 10.49702,0 5.49808,0.63478 10.54357,2.21735 14.58645,4.5752 2.81155,1.63973 5.10287,3.62437 6.81768,5.90518 1.59143,2.11672 2.67364,4.48371 3.2207,7.04427 0.19381,0.90714 0.30749,1.74717 0.38608,2.85281 0.006,0.083 0.0173,0.15101 0.0253,0.15101 0.0195,0 0.0195,190.52539 0,190.53266 -0.008,0.003 -0.0232,0.13767 -0.0336,0.29929 -0.17664,2.74236 -0.84056,5.23076 -2.01667,7.55851 -1.29492,2.5629 -3.16736,4.82497 -5.61609,6.78475 -3.45195,2.76267 -7.99905,4.82481 -13.16618,5.97094 -0.7619,0.169 -1.32362,0.27731 -2.36713,0.45648 -0.0568,0.01 4.19319,0.0161 11.56223,0.0174 l 11.65202,0.002 v 1.08562 1.08561 h -30.29934 -30.29933 v -1.08561 z m 32.01347,-2.7337 c 1.24172,-0.0564 2.21654,-0.13237 3.26502,-0.25432 6.672,-0.77598 12.49854,-3.06085 16.61449,-6.51537 3.09599,-2.59846 5.1445,-5.80235 6.02707,-9.4264 0.24596,-1.00999 0.38062,-1.88157 0.47027,-3.04376 0.0277,-0.35894 0.029,-4.56116 0.029,-95.42822 0,-76.67124 -0.004,-95.10799 -0.0207,-95.33843 -0.10152,-1.39909 -0.31601,-2.57779 -0.69184,-3.8019 -0.61505,-2.00328 -1.66091,-3.91554 -3.05904,-5.59318 -0.68243,-0.81886 -1.59664,-1.73375 -2.43192,-2.43375 -1.65022,-1.38294 -3.61809,-2.6012 -5.78201,-3.57951 -3.34341,-1.51155 -7.17198,-2.51653 -11.29402,-2.96462 -2.50209,-0.272 -5.20561,-0.32867 -7.77889,-0.16306 -7.38749,0.47543 -14.01571,2.74468 -18.53387,6.34528 -1.06017,0.84487 -2.06087,1.81763 -2.87595,2.79566 -1.39813,1.67764 -2.444,3.5899 -3.05905,5.59318 -0.37583,1.22411 -0.59032,2.40281 -0.69183,3.8019 -0.0167,0.23044 -0.0207,18.66719 -0.0207,95.33843 0,90.86706 0.001,95.06928 0.029,95.42822 0.0897,1.16219 0.22431,2.03377 0.47027,3.04376 1.02579,4.21218 3.6229,7.84581 7.60044,10.63377 4.20362,2.94645 9.81796,4.83988 16.05328,5.41395 0.88937,0.0819 1.81342,0.13521 2.95483,0.17049 0.34241,0.0106 2.3684,-0.006 2.72629,-0.0221 z m 2.03247,-19.49023 c -0.15597,-0.0951 -0.26319,-0.31841 -0.35794,-0.74545 -0.0921,-0.415 -0.44777,-0.78741 -1.01518,-1.06286 -0.0998,-0.0484 -0.18516,-0.0881 -0.18977,-0.0881 -0.005,0 -0.0249,0.0513 -0.0451,0.11406 -0.11884,0.3696 -0.52567,0.85988 -1.13678,1.36995 l -0.15833,0.13217 h -6.44385 c -5.99401,0 -6.44978,-0.002 -6.5289,-0.0275 -0.11064,-0.0357 -0.23042,-0.14344 -0.27514,-0.24739 -0.0446,-0.10365 -0.0741,-0.29643 -0.0601,-0.39234 0.0347,-0.23718 0.20658,-0.41856 0.55116,-0.5818 0.61638,-0.29197 1.74736,-0.47282 3.41605,-0.54622 0.43746,-0.0192 0.49182,-0.0228 1.01215,-0.0661 1.12102,-0.0933 1.81053,-0.20817 2.06539,-0.34401 0.0513,-0.0274 0.10127,-0.0658 0.11093,-0.0854 0.0412,-0.0836 0.58556,-1.64367 0.84406,-2.41906 0.92478,-2.77394 1.35941,-4.60516 1.26509,-5.33014 -0.10069,-0.77395 -0.72061,-2.36661 -1.91903,-4.93017 -0.22603,-0.4835 -0.46156,-0.95471 -1.39945,-2.79975 -1.12513,-2.21342 -2.71608,-5.42239 -3.34672,-6.75042 -0.83959,-1.76804 -1.14612,-2.50043 -1.36651,-3.26501 -0.31921,-1.10742 -0.5021,-2.40039 -0.55484,-3.9225 l -0.0152,-0.43708 -0.1368,-0.22408 c -0.38519,-0.6309 -0.61999,-1.11164 -0.73004,-1.49469 l -0.0414,-0.14418 -0.23647,-0.0781 c -0.73079,-0.24125 -1.51234,-0.72359 -2.3586,-1.45561 -0.0975,-0.0843 -0.19959,-0.17251 -0.22695,-0.196 l -0.0498,-0.0427 0.14511,-0.16953 c 0.21523,-0.25143 0.70805,-0.73574 0.93138,-0.91529 0.35108,-0.28224 0.75726,-0.52808 1.0621,-0.64283 0.0712,-0.0268 0.17332,-0.0913 0.3135,-0.19799 0.82899,-0.63098 1.71906,-1.07262 2.52673,-1.25378 0.45496,-0.10203 0.58167,-0.11348 1.25639,-0.11349 0.63005,0 0.87488,0.0132 1.34707,0.0728 1.31908,0.16646 2.32716,0.59087 3.01589,1.2697 0.33781,0.33295 0.5651,0.66843 0.88329,1.30375 0.51053,1.0194 0.82015,2.18588 0.92382,3.48046 0.0139,0.17378 0.0254,0.36478 0.0254,0.42445 0,0.0597 0.005,0.15797 0.0105,0.21848 l 0.0104,0.10999 0.4923,0.25151 c 1.29978,0.66399 2.14061,1.16987 2.72689,1.64064 0.61499,0.49381 1.19634,1.23807 1.62765,2.08376 l 0.1177,0.23076 0.20167,0.12096 c 1.20413,0.72227 3.27039,2.8335 6.10473,6.2376 0.75595,0.90791 1.07382,1.29964 1.37564,1.6953 1.54105,2.02016 3.19465,3.93491 4.89347,5.6663 0.39041,0.39789 0.43536,0.44977 0.58325,0.6732 0.28559,0.43145 0.48632,0.86519 0.55678,1.20312 0.0375,0.17972 0.0383,0.46086 0.002,0.60359 -0.0596,0.23299 -0.2024,0.45599 -0.40246,0.62856 -0.59701,0.51498 -1.49777,0.66522 -2.63768,0.43991 l -0.19708,-0.0389 -0.19472,0.0742 c -0.32266,0.12299 -1.03631,0.35755 -1.43543,0.47179 -1.82338,0.52198 -3.80386,0.82247 -6.07974,0.92247 -0.20128,0.009 -0.36895,0.0191 -0.37259,0.0227 -0.004,0.004 -0.34987,1.45463 -0.76939,3.22442 l -0.76276,3.21778 0.31996,0.3222 c 0.34916,0.35161 0.5855,0.63493 0.79307,0.95072 0.23699,0.36054 0.43886,0.78783 0.53008,1.12201 0.0324,0.11863 0.0346,0.14682 0.019,0.24094 -0.036,0.21722 -0.13572,0.36574 -0.30108,0.44837 -0.11861,0.0593 -0.23765,0.0668 -0.31471,0.0198 z m -4.57918,-2.3371 c 0.36303,-0.0305 0.57945,-0.12154 0.79364,-0.33394 0.17576,-0.17431 0.2554,-0.33534 0.34753,-0.70275 0.036,-0.14366 0.4062,-1.53025 0.82261,-3.08129 0.74875,-2.78891 0.75697,-2.8212 0.74326,-2.92142 -0.0447,-0.32682 -0.37308,-0.66058 -0.92751,-0.94271 -0.29462,-0.14991 -0.51503,-0.23877 -0.95837,-0.38635 -0.22626,-0.0753 -0.41909,-0.13695 -0.42853,-0.13695 -0.0116,0 -0.0172,0.15318 -0.0172,0.47256 v 0.47258 l -1.22438,3.74505 c -0.6734,2.05979 -1.22438,3.75962 -1.22438,3.7774 0,0.0178 0.005,0.0372 0.0109,0.0432 0.017,0.017 1.85242,0.0122 2.0624,-0.005 z m 3.93257,-6.30711 c 0.0936,-0.13602 0.2605,-0.59515 0.33129,-0.91123 0.0504,-0.22499 0.054,-0.67991 0.007,-0.89483 -0.11904,-0.54604 -0.41902,-1.04817 -0.92993,-1.55656 l -0.21033,-0.20929 0.0979,0.0495 c 1.32882,0.67078 3.39794,0.91786 5.33377,0.63692 1.10165,-0.15987 2.31861,-0.52565 3.44471,-1.03535 0.15257,-0.0691 0.31047,-0.13997 0.35087,-0.15757 l 0.0735,-0.032 0.17958,0.10745 c 0.34287,0.20515 0.64051,0.29516 0.97134,0.29379 0.23489,-9.8e-4 0.36793,-0.029 0.55147,-0.11594 0.27769,-0.1316 0.46117,-0.4423 0.44004,-0.74508 -0.0304,-0.43589 -0.76272,-1.15785 -2.08503,-2.05562 l -0.24738,-0.16795 -0.47606,-0.60403 c -3.65301,-4.63495 -6.63108,-8.11376 -8.28389,-9.6768 -0.70747,-0.66903 -1.1623,-1.03137 -1.52013,-1.21098 -0.20748,-0.10413 -0.19246,-0.10552 -0.21428,0.0198 -0.0409,0.23503 -0.13381,0.41279 -0.3053,0.58427 -0.23019,0.2302 -0.60332,0.42444 -1.08065,0.56256 -0.0662,0.0191 -0.11394,0.0405 -0.10611,0.0474 0.008,0.007 0.17217,0.11743 0.36521,0.24553 1.14784,0.76167 1.85559,1.4229 2.13948,1.99889 0.226,0.45854 0.18716,0.84295 -0.11894,1.17701 -0.12702,0.13862 -0.24324,0.22698 -0.50752,0.38589 -0.48149,0.28951 -1.09235,0.56054 -1.50065,0.66582 -0.40089,0.10335 -0.81634,0.12551 -1.10996,0.0592 -0.2502,-0.0565 -0.35568,-0.11238 -0.70424,-0.37293 -2.04783,-1.53072 -3.4596,-2.8164 -4.22546,-3.84807 -0.51953,-0.69982 -0.89584,-1.44046 -1.06586,-2.09777 -0.0813,-0.31442 -0.11101,-0.54635 -0.11177,-0.87339 -0.001,-0.45833 0.0605,-0.74882 0.23422,-1.10475 0.20513,-0.42032 0.5372,-0.76828 1.00003,-1.04783 0.17468,-0.1055 0.63845,-0.33319 0.76741,-0.37673 0.12799,-0.0432 0.20779,-0.0449 0.20779,-0.004 0,0.0758 -0.11193,0.20283 -0.58536,0.66442 -0.44034,0.42931 -0.68182,0.78621 -0.82677,1.22198 -0.0944,0.28391 -0.11414,0.40987 -0.11398,0.72881 1.6e-4,0.31016 0.0103,0.37744 0.0988,0.65301 0.18393,0.57293 0.73583,1.38585 1.54056,2.26918 1.17414,1.28883 2.07166,2.04686 2.90921,2.45701 0.84555,0.41408 1.56878,0.43202 2.22607,0.0552 0.60132,-0.34472 0.73917,-0.7252 0.42318,-1.16801 -0.16033,-0.22469 -0.46564,-0.48256 -0.89404,-0.75515 -0.89388,-0.56877 -1.45312,-1.02181 -1.77516,-1.43801 -0.23982,-0.30995 -0.32902,-0.52734 -0.35296,-0.8602 -0.0111,-0.15495 0.0102,-0.22852 0.0706,-0.24369 0.0785,-0.0197 0.12774,0.008 0.44853,0.25245 0.3082,0.23489 0.73498,0.38038 1.25295,0.42713 0.2437,0.022 0.38638,0.004 0.52244,-0.0642 0.17978,-0.0907 0.31499,-0.29669 0.3706,-0.56442 0.0349,-0.16789 0.0479,-0.53913 0.0268,-0.7615 -0.0158,-0.16645 -0.0207,-0.18204 -0.11575,-0.36842 -0.21182,-0.41547 -0.51839,-0.83201 -0.87483,-1.18861 -0.78339,-0.78377 -1.8755,-1.34904 -3.2619,-1.68834 -0.14553,-0.0356 -0.29517,-0.0696 -0.33253,-0.0755 l -0.0679,-0.0107 -0.009,-0.16549 c -0.0369,-0.66278 -0.0479,-0.82176 -0.0764,-1.10416 -0.16444,-1.62629 -0.55858,-2.88915 -1.19225,-3.82007 -0.24104,-0.35411 -0.60457,-0.75037 -0.92273,-1.00584 -0.59027,-0.47393 -1.26868,-0.76687 -2.05928,-0.88919 -0.31466,-0.0487 -0.94398,-0.0615 -1.22248,-0.0249 -0.23831,0.0313 -0.5744,0.11423 -0.79753,0.19668 -0.3759,0.13895 -0.91381,0.44426 -1.23662,0.7019 l -0.0939,0.0749 8.5e-4,0.41198 8.5e-4,0.41196 0.13743,0.0957 c 0.27871,0.19401 0.54581,0.48387 0.65926,0.71551 0.1285,0.26236 0.14426,0.51044 0.0525,0.8267 -0.17363,0.59845 -0.0524,1.06245 0.41439,1.58634 0.32236,0.36177 0.5041,0.78437 0.59795,1.39041 0.0284,0.18328 0.0358,0.33739 0.047,0.97673 0.0157,0.89362 0.0422,1.18459 0.16479,1.80392 0.23781,1.20183 0.64714,2.27782 1.56813,4.12208 0.52587,1.05305 0.94074,1.82901 1.91579,3.58335 1.91469,3.44494 3.04044,5.64125 3.66503,7.15039 0.57209,1.38227 0.98818,2.90356 1.06939,3.90985 0.0366,0.45323 0.0876,0.70133 0.1525,0.74144 0.0781,0.0483 0.1898,-0.19024 0.33946,-0.72511 l 0.0617,-0.22039 0.009,-0.94904 0.009,-0.94906 0.33466,0.12643 c 1.11832,0.4225 1.86329,0.78042 2.49774,1.20003 0.33336,0.22047 0.54042,0.38816 0.75911,0.61475 0.20193,0.20922 0.32095,0.37267 0.41657,0.5721 0.11527,0.24042 0.13079,0.31892 0.14717,0.74457 0.0247,0.64239 0.0804,0.80637 0.20994,0.61813 z m -13.21586,-27.59065 c -0.28019,-0.068 -0.44932,-0.24995 -0.51444,-0.55358 -0.0103,-0.0482 -0.0143,-0.17679 -0.01,-0.31174 0.009,-0.25985 0.0489,-0.41793 0.14259,-0.56387 0.14281,-0.22256 0.39984,-0.32711 0.75131,-0.30564 0.51381,0.0314 0.76671,0.31511 0.76671,0.86013 0,0.48328 -0.21404,0.77889 -0.63117,0.87173 -0.13781,0.0307 -0.38515,0.0321 -0.50534,0.003 z m -2.29657,1.24876 c 0.0895,-0.0713 0.16172,-0.18892 0.17785,-0.28984 0.014,-0.0874 -0.0276,-0.22979 -0.10411,-0.3562 -0.0671,-0.11086 -0.2641,-0.3232 -0.43928,-0.47339 l -0.11788,-0.10109 -0.61277,0.14179 c -0.33702,0.078 -0.61656,0.14557 -0.6212,0.1502 -0.0156,0.0156 0.25903,0.27619 0.40788,0.38694 0.19412,0.14445 0.3223,0.22325 0.5487,0.33733 0.21873,0.11021 0.59601,0.2666 0.6457,0.26765 0.019,3.2e-4 0.0708,-0.0281 0.11511,-0.0634 z m -1.50225,-1.33985 c 0.49993,-0.0898 0.91143,-0.16325 0.91445,-0.16325 0.003,0 0.005,-0.19468 0.005,-0.43262 0,-0.23793 -0.003,-0.43261 -0.007,-0.43261 -0.004,0 -0.0829,0.0265 -0.17549,0.0588 -0.39874,0.13924 -0.88311,0.42001 -1.2294,0.71266 -0.21737,0.18369 -0.46206,0.41867 -0.43694,0.41958 0.0111,3.3e-4 0.4292,-0.0727 0.92913,-0.16251 z m 6.97722,-7.3789 c -7.42453,-0.085 -12.38898,-0.52058 -15.14827,-1.32899 -0.2322,-0.068 -0.25999,-0.0805 -0.37184,-0.16613 -0.73252,-0.56106 -1.1556,-1.47229 -1.30688,-2.81473 -0.0405,-0.35902 -0.0401,-1.41296 5.7e-4,-1.7876 0.16048,-1.47752 0.59431,-2.62983 1.40972,-3.74441 0.0747,-0.10204 0.13574,-0.19514 0.13574,-0.20688 0,-0.041 0.10701,-0.12804 0.22379,-0.18204 0.73489,-0.33982 3.44318,-0.61866 7.5796,-0.78038 0.35466,-0.0139 0.70538,-0.0294 0.77938,-0.0345 l 0.13454,-0.009 -0.0948,-0.1169 c -0.39632,-0.48891 -0.62374,-1.02633 -0.69557,-1.64366 -0.10764,-0.92514 0.11797,-1.70484 0.68957,-2.3831 0.0719,-0.0853 0.17361,-0.19668 0.22607,-0.24752 l 0.0954,-0.0924 0.38364,0.0719 c 0.85024,0.15939 1.6082,0.27418 2.15491,0.32634 0.60734,0.0579 1.86344,-0.002 3.10176,-0.14894 1.57127,-0.18598 3.10351,-0.48041 5.09343,-0.97875 0.93472,-0.23409 1.18673,-0.28265 1.83657,-0.35391 0.30556,-0.0335 1.43152,-0.0283 1.75494,0.008 0.81427,0.0917 1.53228,0.24901 2.28551,0.50077 1.21528,0.40619 2.33888,0.97597 3.63233,1.84194 0.37732,0.25262 0.53923,0.34991 0.79757,0.47925 1.88602,0.94427 3.69535,1.48041 5.5284,1.63818 1.47098,0.1266 5.09105,-0.0955 9.61547,-0.58992 0.63125,-0.069 0.84786,-0.0981 0.86931,-0.11692 0.0272,-0.0238 0.0286,0.25706 0.0286,5.87084 0,5.62164 -10e-4,5.89589 -0.0288,5.89589 -0.0158,0 -0.33723,-0.0473 -0.71422,-0.10519 -2.83303,-0.43473 -5.18412,-0.72694 -6.76652,-0.84093 -1.37197,-0.0989 -1.92805,-0.084 -3.66498,0.0982 -2.33811,0.24517 -6.74575,0.84254 -12.26829,1.66275 -0.80425,0.11943 -1.87024,0.20411 -3.31399,0.26322 -0.57002,0.0233 -2.61498,0.0315 -3.98263,0.0158 z m 4.17037,-1.98084 c 2.66237,-0.19265 6.33529,-0.61395 11.77854,-1.35108 1.85993,-0.25186 2.01932,-0.27285 2.52222,-0.33223 0.84495,-0.0997 1.64498,-0.17592 2.4406,-0.23235 0.50344,-0.0357 1.9742,-0.0412 2.36714,-0.009 1.12903,0.093 2.08202,0.2092 3.45275,0.42113 0.46877,0.0725 1.72696,0.28158 1.94964,0.32401 l 0.11548,0.022 v -3.7443 -3.7443 l -0.0449,0.008 c -0.19738,0.0348 -1.90358,0.1708 -2.85281,0.22743 -1.88885,0.11269 -4.89803,0.17625 -5.81172,0.12276 -2.17914,-0.12758 -4.29528,-0.71085 -6.64317,-1.83104 -0.57942,-0.27644 -1.39095,-0.70972 -1.94233,-1.03702 -1.04633,-0.62108 -2.3194,-1.0651 -3.56852,-1.24462 -1.47237,-0.2116 -2.92901,-0.12365 -4.71795,0.28486 -1.67969,0.38356 -2.95265,0.57499 -4.61999,0.69474 -0.38298,0.0275 -1.83426,0.0383 -2.26919,0.0169 -0.57154,-0.0281 -1.21868,-0.0845 -1.63885,-0.14261 l -0.0798,-0.0111 0.009,0.2923 c 0.0104,0.32907 0.0417,0.50892 0.12487,0.71711 0.25266,0.63257 0.86469,1.01443 1.82944,1.14142 0.10325,0.0136 0.37286,0.0336 0.59912,0.0445 1.38745,0.0668 3.65222,-0.1863 6.46147,-0.7221 0.97426,-0.18581 1.34564,-0.24414 1.93452,-0.30379 0.36214,-0.0367 1.49681,-0.042 1.80392,-0.008 1.50422,0.16448 2.60409,0.6444 3.48646,1.5213 0.29763,0.29579 0.64586,0.72672 0.59969,0.74211 -0.0485,0.0162 -1.77599,0.11347 -3.9229,0.22094 -3.73056,0.18675 -14.46128,0.68071 -19.70436,0.90704 l -0.99583,0.043 -0.0816,0.0419 c -0.24047,0.12345 -0.55646,0.38589 -0.7474,0.62072 -0.28106,0.34569 -0.48634,0.7677 -0.63876,1.31315 -0.16312,0.58376 -0.23954,1.09825 -0.27404,1.84496 -0.0486,1.05161 0.0918,1.71741 0.43491,2.06323 0.12903,0.13003 0.24514,0.19657 0.43353,0.24846 0.70121,0.19313 2.84602,0.39959 6.6443,0.63959 2.28186,0.14416 5.81396,0.22731 9.37876,0.22078 1.5045,-0.003 1.87582,-0.008 2.18756,-0.0305 z m 1.52639,-19.02978 c -2.8751,-0.12276 -5.61381,-0.53112 -8.66045,-1.29133 -4.27905,-1.06774 -8.66001,-2.70219 -13.65433,-5.0942 l -0.25145,-0.12043 0.3494,-0.16957 c 5.72302,-2.7775 11.14031,-4.68607 16.02963,-5.64743 3.31039,-0.65091 6.35886,-0.88257 9.36243,-0.71149 6.19138,0.35264 13.09238,2.34512 20.78182,6.00017 0.23345,0.11097 0.57429,0.27566 0.75742,0.36597 l 0.33297,0.16422 -0.57785,0.27534 c -6.4271,3.06256 -12.27073,4.98958 -17.59673,5.80279 -1.35327,0.20663 -2.46933,0.32065 -4.02413,0.41111 -0.37698,0.0219 -2.4319,0.0326 -2.84873,0.0148 z m 2.45693,-2.53015 c 5.17258,-0.18866 10.43722,-1.40732 16.11064,-3.72929 0.23224,-0.0951 0.42964,-0.17738 0.43867,-0.18296 0.0182,-0.0113 -0.015,-0.0262 -0.65685,-0.29487 -5.18407,-2.17024 -10.2546,-3.42197 -14.99458,-3.70162 -1.30182,-0.0768 -2.80114,-0.0799 -4.08127,-0.009 -4.28733,0.23906 -8.87713,1.28417 -13.59776,3.09626 -0.93989,0.36079 -2.21892,0.88739 -2.19989,0.90574 0.028,0.027 1.39771,0.57092 2.10907,0.8375 5.01862,1.88068 9.8398,2.91192 14.38239,3.07634 0.52329,0.0189 1.98695,0.0198 2.48958,10e-4 z m -5.33014,-14.97927 c -5.8856,-0.0476 -10.83595,-0.087 -11.00078,-0.0876 l -0.2997,-0.001 0.0875,-0.0769 c 0.19862,-0.1747 0.47243,-0.45281 1.00113,-1.01684 0.59086,-0.63035 0.84968,-0.88818 1.10249,-1.09828 0.28768,-0.23909 0.57385,-0.40865 0.80809,-0.4788 0.12459,-0.0373 0.33656,-0.039 0.82442,-0.006 0.46827,0.0312 1.93339,0.0329 2.42427,0.003 0.91997,-0.0564 1.99711,-0.17393 2.6849,-0.29295 l 0.0729,-0.0126 0.0874,-0.26901 c 0.55441,-1.70722 1.77598,-6.55884 2.0685,-8.21532 l 0.0425,-0.24086 -0.26776,-0.44479 c -0.46318,-0.76938 -0.78443,-1.27152 -1.80421,-2.82009 -1.50637,-2.28745 -2.02237,-3.10926 -2.70096,-4.30165 -0.43621,-0.76649 -0.96961,-1.79846 -1.28258,-2.48141 l -0.13465,-0.29386 -0.23192,-0.1983 c -1.19916,-1.02535 -2.13932,-2.18475 -2.8025,-3.45604 -0.66902,-1.28246 -1.01613,-2.73706 -0.97449,-4.08374 0.0113,-0.3652 0.0607,-1.02097 0.15734,-2.08961 0.0781,-0.86383 0.11001,-1.31145 0.12437,-1.74678 l 0.0108,-0.3265 -0.26741,-0.0718 c -0.40728,-0.10927 -0.98128,-0.3005 -1.91624,-0.63839 -0.89946,-0.32507 -1.32371,-0.4675 -1.70114,-0.57112 -1.38588,-0.38049 -2.50369,-0.38251 -3.78202,-0.007 -0.1066,0.0313 -0.19619,0.0546 -0.19907,0.0517 -0.008,-0.008 0.43313,-0.99387 0.5373,-1.20032 0.22874,-0.4533 0.45624,-0.78054 0.73521,-1.05754 0.46894,-0.46563 0.93451,-0.68132 1.75925,-0.81503 0.34078,-0.0553 0.72634,-0.086 1.32814,-0.10587 0.92059,-0.0304 1.27153,-0.0553 1.63671,-0.11622 0.38852,-0.0648 0.79685,-0.18329 1.08683,-0.31543 0.11064,-0.0504 0.15639,-0.0607 0.37457,-0.0838 0.13669,-0.0145 0.59013,-0.0665 1.00765,-0.11556 1.38191,-0.1624 1.84096,-0.20531 2.53038,-0.23653 1.13266,-0.0513 2.15714,0.0637 3.00664,0.33764 0.22,0.0709 0.29675,0.10803 0.43795,0.21173 0.55661,0.40876 1.04202,1.25497 1.35596,2.36386 0.099,0.34975 0.16768,0.69677 0.27662,1.39809 0.11344,0.73031 0.16275,1.01059 0.22116,1.25703 0.0408,0.17197 0.14493,0.51449 0.16697,0.549 0.006,0.0101 0.15135,0.075 0.32194,0.14422 2.83426,1.14944 5.07056,2.46765 7.01363,4.13424 0.80525,0.69067 1.0968,0.98833 2.1953,2.2413 1.82677,2.08366 3.59357,4.24437 6.55434,8.01561 0.52517,0.66892 1.33257,1.6974 1.79422,2.28551 3.64117,4.63852 5.85773,7.30392 8.05592,9.68721 0.4685,0.50795 0.59339,0.65304 0.81664,0.94868 0.35717,0.473 0.61006,0.93204 0.71032,1.28935 0.19706,0.70225 -0.11849,1.10987 -0.93324,1.20557 l -0.16642,0.0195 -0.068,0.19564 c -0.0847,0.24366 -0.11925,0.32165 -0.22287,0.5028 -0.23248,0.40641 -0.60784,0.79125 -1.06632,1.09325 -0.22979,0.15135 -0.70036,0.3866 -0.98233,0.49108 -0.6662,0.24686 -1.58988,0.42092 -2.10311,0.39633 -0.46136,-0.0221 -1.33309,-0.18352 -1.96718,-0.36424 -1.54278,-0.43971 -2.87871,-1.18135 -4.18738,-2.32461 -0.26889,-0.23491 -0.90096,-0.86622 -1.17284,-1.17145 -0.66804,-0.74996 -1.28706,-1.56523 -1.96066,-2.58224 -0.23368,-0.35282 -0.63854,-0.99116 -0.81549,-1.28577 -0.0608,-0.10117 -0.0912,-0.11706 -0.0917,-0.0478 -5.1e-4,0.0703 -0.0655,0.34323 -0.12196,0.51191 -0.2249,0.67208 -0.65696,1.05901 -1.30966,1.17283 -0.18587,0.0324 -0.27008,0.0307 -0.46743,-0.009 -0.55961,-0.1135 -1.06364,-0.40595 -1.78185,-1.03388 -0.0987,-0.0863 -0.18323,-0.15687 -0.18786,-0.15687 -0.005,0 -0.0214,0.11937 -0.0372,0.26528 -0.0933,0.85853 -0.30105,1.75516 -0.63275,2.73037 -0.095,0.27942 -0.53645,1.50321 -0.62869,1.74303 -0.013,0.0339 -0.0237,0.0638 -0.0237,0.0665 0,0.003 0.0628,0.002 0.13952,-0.002 0.46088,-0.0242 1.40395,0.13638 2.23578,0.38068 1.78298,0.52364 3.09935,1.32578 3.65517,2.22729 0.0801,0.12998 0.19979,0.39163 0.21588,0.47209 l 0.0102,0.0512 -0.34079,-0.002 c -0.18743,-10e-4 -5.15627,-0.0411 -11.04187,-0.0886 z m 20.92058,-2.02504 c 0.86165,-0.10016 1.57472,-0.38067 2.05847,-0.80977 0.1337,-0.1186 0.2925,-0.29397 0.3768,-0.41611 l 0.0586,-0.0849 -0.18782,-0.24981 c -0.82845,-1.10186 -1.97481,-2.2775 -3.31007,-3.39462 -0.32416,-0.27121 -0.77634,-0.57484 -2.32625,-1.56207 -4.4078,-2.80759 -9.17866,-5.53952 -16.61077,-9.51178 -0.65096,-0.34792 -1.23797,-0.66231 -1.30446,-0.69863 -0.0665,-0.0363 -0.11482,-0.0557 -0.1074,-0.0431 0.0214,0.0364 0.3255,0.46197 1.00213,1.40242 1.56735,2.17842 2.20749,3.1129 2.90763,4.24452 0.40346,0.65209 0.85406,1.44811 1.11755,1.97422 0.0678,0.13529 0.12718,0.24599 0.13205,0.24599 0.0168,0 0.1961,-0.11904 0.53492,-0.35509 0.18696,-0.13024 0.34574,-0.23036 0.35287,-0.22247 0.007,0.008 0.62827,0.75156 1.38033,1.65261 1.066,1.27719 1.37991,1.64351 1.42423,1.66203 0.0657,0.0275 0.18983,0.0317 0.2499,0.009 0.0702,-0.027 0.15598,-0.13805 0.19307,-0.24977 0.058,-0.17465 0.073,-0.35034 0.0618,-0.72464 -0.01,-0.32968 -0.0227,-0.46325 -0.11608,-1.1999 -0.0618,-0.48728 -0.30516,-2.71053 -0.29943,-2.73511 0.007,-0.0295 1.52969,1.82649 1.82221,2.22087 0.32804,0.44228 0.59658,0.82636 1.11859,1.59986 1.29625,1.92077 1.47335,2.17649 1.94657,2.81075 1.25438,1.68127 2.38698,2.76324 3.64692,3.48389 0.99757,0.57057 2.1444,0.90883 3.30626,0.97517 0.23544,0.0134 0.26731,0.0122 0.57137,-0.0232 z m -19.07678,-1.31225 c 0.36671,-0.0747 0.65068,-0.22891 0.94595,-0.5136 0.52648,-0.5076 0.92033,-1.32386 1.22526,-2.53938 0.0725,-0.28892 0.2169,-0.96491 0.20803,-0.97378 -0.002,-0.002 -0.0439,0.0452 -0.0931,0.10492 -0.14111,0.17121 -0.70363,0.73885 -0.9547,0.9634 -0.26257,0.23483 -0.88928,0.76097 -0.8959,0.75213 -0.002,-0.003 -0.0579,-0.24836 -0.12314,-0.54466 -0.19104,-0.86706 -0.35805,-1.51092 -0.52083,-2.00798 -0.0869,-0.26535 -0.2354,-0.66117 -0.24804,-0.66117 -0.006,0 -0.0493,0.14876 -0.0969,0.33058 -0.21729,0.82872 -0.40739,1.50457 -0.60643,2.15592 -0.2471,0.80864 -0.33573,1.23097 -0.35179,1.6764 -0.0177,0.4911 0.0768,0.80407 0.30907,1.02353 0.20407,0.19279 0.41752,0.2619 0.81731,0.26461 0.16627,0.001 0.26808,-0.007 0.38527,-0.0309 z m 20.26562,-3.84067 c -0.0821,-0.0911 -0.68761,-0.81678 -1.0592,-1.26927 -0.57138,-0.69578 -1.21254,-1.49145 -2.45343,-3.04463 -2.06585,-2.58575 -3.20109,-3.97352 -6.63046,-8.1054 -2.87063,-3.45867 -4.10225,-4.9585 -5.64385,-6.87285 -0.31876,-0.39585 -0.39786,-0.48299 -0.66877,-0.73679 -2.07725,-1.94607 -4.35721,-3.34078 -7.51477,-4.59697 -0.23794,-0.0947 -0.46612,-0.18892 -0.50707,-0.20947 -0.22982,-0.11534 -0.44077,-0.39769 -0.56744,-0.75953 -0.11146,-0.31841 -0.17185,-0.68233 -0.24764,-1.49247 -0.058,-0.61976 -0.0842,-0.81698 -0.13864,-1.0448 -0.0215,-0.0898 -0.0441,-0.19264 -0.0502,-0.22855 -0.006,-0.0359 -0.0324,-0.16035 -0.0585,-0.27652 -0.15663,-0.69915 -0.37867,-1.18144 -0.69767,-1.51537 -0.32539,-0.34062 -0.69452,-0.50752 -1.2705,-0.57445 l -0.0849,-0.01 -0.0101,0.0617 c -0.10953,0.67126 -0.31072,1.21844 -0.66434,1.80678 -0.30295,0.50405 -0.75442,1.02273 -1.14299,1.31313 -0.1593,0.11906 -0.4458,0.29605 -0.47975,0.29638 -0.0169,1.7e-4 -0.28387,-0.54836 -0.28387,-0.58317 0,-0.009 0.0312,-0.0297 0.0694,-0.0468 0.10325,-0.0462 0.30722,-0.20535 0.41765,-0.32586 0.52389,-0.57173 0.77532,-1.58431 0.60502,-2.43656 l -0.0173,-0.0867 -0.0925,0.0107 c -0.55269,0.0642 -2.25547,0.30554 -2.34536,0.33243 -0.0434,0.013 -0.0386,0.0148 0.0418,0.0163 0.19041,0.003 0.50468,0.11966 0.67386,0.24909 0.10446,0.0799 0.21938,0.1934 0.28311,0.27958 0.052,0.0704 0.0567,0.0851 0.047,0.14934 -0.0282,0.18839 -0.209,0.32878 -0.54122,0.42038 -0.11118,0.0307 -0.17113,0.0356 -0.43115,0.0356 -0.26052,0 -0.31995,-0.005 -0.43261,-0.0359 -0.37693,-0.10351 -0.59172,-0.29626 -0.62177,-0.55795 l -0.0103,-0.09 0.12994,-0.12414 c 0.13881,-0.13262 0.29267,-0.22887 0.44239,-0.27675 0.0508,-0.0163 0.0869,-0.0299 0.0801,-0.0304 -0.0764,-0.005 -1.30618,0.15405 -2.63236,0.34143 -0.62852,0.0888 -1.27015,0.17829 -1.42585,0.19886 -0.16829,0.0222 -0.2709,0.0421 -0.25303,0.0491 0.0165,0.006 0.14024,0.0413 0.27492,0.0773 0.34455,0.0922 0.92488,0.29164 1.52639,0.52457 1.00892,0.3907 1.22021,0.47033 1.52676,0.57536 0.69639,0.2386 1.30775,0.38325 1.84437,0.43638 0.0988,0.01 0.2098,0.0214 0.24673,0.0259 l 0.0672,0.008 -0.006,0.10953 c -0.007,0.12622 -0.0931,1.8799 -0.12271,2.50932 -0.0264,0.56112 -0.0266,2.19326 -4.2e-4,2.59568 0.028,0.43003 0.0633,0.7968 0.11044,1.14629 0.33413,2.47911 1.3451,4.21405 3.15797,5.41944 0.28996,0.19279 0.69525,0.42541 0.712,0.40866 0.004,-0.004 -0.0115,-0.0394 -0.0337,-0.0793 -0.0741,-0.13249 -0.23576,-0.50137 -0.31205,-0.71183 -0.22821,-0.62957 -0.32248,-1.15392 -0.32359,-1.79997 -7.4e-4,-0.42428 0.0199,-0.61556 0.10339,-0.95597 0.14074,-0.57422 0.43011,-1.14508 0.84359,-1.66421 0.30211,-0.3793 0.82559,-0.8601 1.29859,-1.19269 0.7644,-0.53752 1.83058,-1.03565 2.58485,-1.20768 0.23157,-0.0528 0.48853,-0.0648 0.5145,-0.0239 0.0235,0.0369 0.021,0.0435 -0.045,0.11651 -0.0829,0.0917 -0.2222,0.19565 -0.79395,0.59223 -0.63412,0.43983 -0.88734,0.62448 -1.20768,0.88062 -1.099,0.87878 -1.69947,1.6533 -1.88447,2.43073 -0.0409,0.17186 -0.0436,0.2066 -0.0419,0.54277 0.007,1.41188 0.4326,2.6385 1.2889,3.71395 0.21665,0.27209 0.81706,0.87457 1.10853,1.11234 0.7179,0.58564 1.49667,1.09494 2.70997,1.77228 0.34469,0.19243 1.96221,1.06794 4.47307,2.42112 3.6566,1.97066 5.23822,2.84057 7.02794,3.86546 3.64456,2.08707 6.64334,4.00786 9.19102,5.88708 0.20202,0.14901 0.37043,0.27094 0.37424,0.27095 0.004,1e-5 -0.008,-0.0165 -0.0261,-0.0367 z m -18.80708,-1.45672 c 0.46518,-0.64841 0.5216,-0.94008 0.25584,-1.32262 -0.025,-0.0359 -0.1352,-0.22325 -0.24499,-0.41629 -1.74505,-3.06826 -3.59478,-5.88656 -5.36801,-8.17886 -0.60906,-0.78735 -1.6102,-1.99725 -1.95195,-2.35898 l -0.0771,-0.0816 0.0774,0.14692 c 0.29557,0.56119 0.85404,1.50535 1.42389,2.40725 0.33846,0.53567 0.56962,0.88929 1.50515,2.30254 1.31343,1.98411 1.74088,2.65993 2.29742,3.63233 0.4177,0.72982 0.88522,1.64385 1.16066,2.26918 0.22792,0.51743 0.557,1.37457 0.68161,1.77535 0.016,0.0516 0.0333,0.0937 0.0384,0.0934 0.005,-2.4e-4 0.0959,-0.12112 0.20168,-0.26864 z m -2.75545,-35.04232 c -5.12999,-0.15694 -9.22063,-1.27697 -12.91815,-3.537 -2.33895,-1.42964 -4.55074,-3.36053 -6.85025,-5.98026 -0.3744,-0.42654 -0.43442,-0.5205 -0.46713,-0.73135 -0.0588,-0.3788 0.18509,-0.75206 0.56242,-0.86087 0.0909,-0.0262 1.34303,-0.0267 21.4838,-0.009 13.11432,0.0116 21.48332,0.0249 21.63564,0.0344 0.40018,0.025 0.71674,0.10975 1.07393,0.28745 1.2535,0.6236 2.26486,2.22617 2.66697,4.22601 0.12555,0.6244 0.16652,1.0541 0.17705,1.85682 0.0198,1.50779 -0.10896,2.24072 -0.49626,2.8253 -0.0951,0.1436 -0.30562,0.35867 -0.43772,0.44728 -0.19494,0.13075 -0.49651,0.25776 -0.68774,0.28964 -0.14596,0.0243 -0.5649,-0.0752 -0.81558,-0.19373 -0.98182,-0.46433 -1.46223,-1.57858 -1.57369,-3.64994 -0.009,-0.17509 -0.0242,-0.74075 -0.033,-1.25703 -0.009,-0.51628 -0.0235,-1.06726 -0.0328,-1.22438 -0.0441,-0.74129 -0.13433,-1.33653 -0.25691,-1.69493 l -0.0297,-0.0869 -0.39122,0.37962 c -3.11667,3.02424 -6.08101,5.10243 -9.32746,6.53913 -2.98616,1.32151 -6.25063,2.07599 -9.91106,2.29062 -0.91107,0.0534 -2.48208,0.0763 -3.37113,0.0491 z m 2.17123,-1.55895 c 1.52622,-0.0277 3.25048,-0.19 4.69346,-0.44184 4.83005,-0.84294 8.83804,-2.82337 12.91314,-6.38064 0.50435,-0.44027 1.26239,-1.13591 1.25061,-1.14768 -0.008,-0.008 -38.73816,-0.0536 -38.74577,-0.0461 -0.009,0.009 0.58103,0.6254 0.98459,1.02887 2.09887,2.09845 4.1581,3.61085 6.41525,4.7117 3.01559,1.47075 6.46413,2.20816 10.67664,2.283 0.64903,0.0115 0.80521,0.0109 1.81208,-0.007 z m 23.47531,-1.36473 c 0.10557,-0.32656 0.14234,-0.64187 0.16355,-1.40221 0.007,-0.26762 0.003,-0.46035 -0.0158,-0.71014 -0.0913,-1.20351 -0.28291,-2.04183 -0.63964,-2.79845 -0.087,-0.1844 -0.30242,-0.55905 -0.36693,-0.63797 l -0.0334,-0.0408 0.008,0.0408 c 0.0123,0.0593 0.0571,0.54136 0.0758,0.81625 0.009,0.13019 0.0234,0.72891 0.0322,1.33049 0.0175,1.19346 0.0345,1.5975 0.0834,1.9835 0.0905,0.71482 0.25071,1.17266 0.53559,1.53097 0.0377,0.0474 0.0753,0.082 0.0835,0.077 0.008,-0.005 0.0411,-0.0903 0.0732,-0.18941 z m -25.72,-12.56225 c -0.0673,-0.003 -0.30243,-0.0131 -0.52241,-0.0225 -3.72493,-0.15875 -7.01866,-0.89803 -9.90932,-2.22414 -3.34321,-1.53373 -6.3516,-3.90747 -9.37335,-7.39596 -0.2559,-0.29542 -0.31158,-0.38632 -0.35061,-0.57231 -0.0876,-0.41761 0.20954,-0.8403 0.63869,-0.9085 0.0819,-0.013 41.80412,0.0243 42.73125,0.0382 0.42084,0.006 0.52319,0.0127 0.66117,0.0414 0.6208,0.12895 1.20302,0.46846 1.71413,0.99956 0.86254,0.89627 1.48797,2.2801 1.73669,3.8426 0.0977,0.61387 0.12235,1.03013 0.11154,1.8846 -0.0107,0.84405 -0.043,1.18996 -0.15124,1.61945 -0.20253,0.80372 -0.61382,1.28307 -1.28497,1.49762 -0.18197,0.0582 -0.27166,0.0629 -0.47142,0.0251 -0.44055,-0.0835 -0.80994,-0.27608 -1.10783,-0.57752 -0.55117,-0.55773 -0.86068,-1.46936 -0.97016,-2.85752 -0.0316,-0.40124 -0.0581,-1.14988 -0.0584,-1.64883 -4.1e-4,-0.93472 -0.0597,-1.82971 -0.15686,-2.36713 -0.0396,-0.21919 -0.12581,-0.55959 -0.15272,-0.60313 -0.0106,-0.0172 -0.12084,0.0806 -0.44402,0.39383 -4.94198,4.78926 -9.77475,7.38416 -15.62041,8.3872 -1.2314,0.21129 -2.43589,0.33936 -4.01597,0.427 -0.29435,0.0163 -2.72613,0.0334 -3.00381,0.021 z m 2.87321,-1.57249 c 1.64001,-0.0806 2.95513,-0.22376 4.28667,-0.46653 4.74764,-0.86558 8.69588,-2.84446 12.74855,-6.38965 0.42736,-0.37385 1.18159,-1.06515 1.19629,-1.09648 0.003,-0.005 -4.70646,-0.0146 -10.46437,-0.0205 -5.75792,-0.006 -14.48001,-0.0156 -19.38243,-0.0215 l -8.91349,-0.0107 0.17112,0.18623 c 0.49549,0.53925 1.63718,1.64986 2.24548,2.18436 2.01241,1.76825 4.0731,3.06031 6.31731,3.96099 2.57247,1.03241 5.39285,1.56927 8.87268,1.6889 0.51145,0.0176 2.46304,0.008 2.92219,-0.015 z m 22.84467,-1.34376 c 0.10784,-0.34112 0.1332,-0.53582 0.15897,-1.2203 0.0188,-0.49933 0.0101,-0.75541 -0.0436,-1.28968 -0.0883,-0.87772 -0.26274,-1.62189 -0.52058,-2.22021 -0.11992,-0.27826 -0.45124,-0.87164 -0.47277,-0.8467 -0.003,0.003 0.004,0.0868 0.0156,0.18553 0.0579,0.50123 0.0839,1.11539 0.0972,2.29368 0.005,0.47138 0.0169,0.97828 0.0258,1.12643 0.0532,0.88912 0.20578,1.51269 0.46985,1.92073 0.0689,0.10654 0.17723,0.23418 0.19865,0.23418 0.007,0 0.0389,-0.0827 0.0709,-0.18366 z m -24.53586,-12.85543 c -0.0878,-0.16866 -1.85159,-3.55372 -3.91964,-7.52234 l -3.76008,-7.21569 0.76336,-0.012 c 0.41984,-0.007 1.08573,-0.0103 1.47975,-0.008 l 0.7164,0.004 3.9165,7.51568 c 2.15407,4.13362 3.91437,7.51741 3.91176,7.51953 -0.003,0.002 -0.66709,0.009 -1.47662,0.0148 l -1.47188,0.011 z m 9.59454,0.16269 c -0.0261,-0.0516 -1.78961,-3.43213 -3.91895,-7.51222 -2.8834,-5.52498 -3.86614,-7.42178 -3.85042,-7.43179 0.0116,-0.007 0.67719,-0.0117 1.47908,-0.01 l 1.45797,0.004 3.91706,7.51684 c 2.15438,4.13426 3.91706,7.51906 3.91706,7.52178 0,0.003 -0.66473,0.005 -1.47718,0.005 h -1.47719 z m -8.02579,-19.29494 c -6.39693,-0.18392 -13.50998,-2.12262 -21.58175,-5.88221 -0.62687,-0.29198 -1.31417,-0.62415 -1.31417,-0.63514 0,-0.0177 1.36581,-0.66903 2.23654,-1.06649 4.95892,-2.26362 9.59603,-3.83443 13.86815,-4.69779 4.55441,-0.92041 8.51441,-1.05583 12.84783,-0.43937 5.49052,0.78106 11.46211,2.73932 18.0637,5.9236 0.30079,0.14509 0.55195,0.2689 0.55812,0.27514 0.0253,0.0255 -2.04768,0.99002 -3.35337,1.56018 -7.62436,3.32934 -14.52184,4.99937 -20.52512,4.96955 -0.35915,-0.002 -0.71912,-0.005 -0.79993,-0.007 z m 2.4406,-2.55104 c 1.73002,-0.0867 3.16242,-0.23874 4.78325,-0.50759 3.12821,-0.51888 6.38554,-1.42426 9.68893,-2.69305 0.6462,-0.24819 1.71832,-0.67982 1.74336,-0.70186 0.027,-0.0238 -1.6333,-0.70233 -2.65672,-1.08581 -4.20883,-1.57705 -8.23977,-2.52399 -12.12221,-2.84773 -1.70506,-0.14218 -3.45995,-0.16179 -5.15873,-0.0576 -4.73147,0.29009 -9.71702,1.5297 -15.01798,3.73409 l -0.59477,0.24734 0.0887,0.0394 c 0.0488,0.0217 0.38622,0.15877 0.74986,0.30467 4.72483,1.89575 9.28355,3.05023 13.59879,3.44386 0.73806,0.0673 1.52338,0.1145 2.43243,0.14614 0.30885,0.0108 2.13857,-0.005 2.46509,-0.0218 z"
       id="path1004" />
  </g>
</svg>
