<?xml version="1.0" encoding="UTF-8" standalone="no"?>
<!-- Created with Inkscape (http://www.inkscape.org/) -->

<svg
   width="1080"
   height="1920"
   viewBox="0 0 285.75001 508"
   version="1.1"
   id="svg5"
   inkscape:export-filename="/Users/albertotomasoni/ALBERTO.png"
   inkscape:export-xdpi="96"
   inkscape:export-ydpi="96"
   inkscape:version="1.1.1 (c3084ef, 2021-09-22)"
   sodipodi:docname="Silvia.svg"
   xmlns:inkscape="http://www.inkscape.org/namespaces/inkscape"
   xmlns:sodipodi="http://sodipodi.sourceforge.net/DTD/sodipodi-0.dtd"
   xmlns="http://www.w3.org/2000/svg"
   xmlns:svg="http://www.w3.org/2000/svg">
  <sodipodi:namedview
     id="namedview7"
     pagecolor="#ffffff"
     bordercolor="#666666"
     borderopacity="1.0"
     inkscape:pageshadow="2"
     inkscape:pageopacity="0.0"
     inkscape:pagecheckerboard="0"
     inkscape:document-units="px"
     showgrid="false"
     units="px"
     inkscape:zoom="0.24060342"
     inkscape:cx="255.60734"
     inkscape:cy="565.24549"
     inkscape:window-width="1440"
     inkscape:window-height="900"
     inkscape:window-x="0"
     inkscape:window-y="0"
     inkscape:window-maximized="0"
     inkscape:current-layer="g2878" />
  <defs
     id="defs2" />
  <g
     inkscape:label="ALBERTO"
     inkscape:groupmode="layer"
     id="g2878">
    <g
       aria-label="silvia"
       transform="matrix(2.7839642,0,0,2.7839642,-1007.8208,-810.36416)"
       id="text2874"
       style="font-weight:500;font-size:19.0077px;line-height:1.25;font-family:'Helvetica Neue';-inkscape-font-specification:'Helvetica Neue Medium';text-align:center;text-anchor:middle;white-space:pre;inline-size:858.441;stroke-width:1.51181;stroke-linecap:round;paint-order:markers fill stroke;stop-color:#000000">
      <path
         d="m 398.85026,323.7 q 1.36856,0 2.2049,-0.77931 0.95038,-0.91237 0.95038,-2.49001 v -0.83634 q 0,-1.82474 -1.40657,-3.07925 -0.38015,-0.34213 -1.36855,-0.87435 -0.55123,-0.30412 -0.7413,-0.45618 -0.70329,-0.62726 -0.70329,-1.50161 v -0.32313 q 0,-0.68428 0.28512,-0.95039 0.2471,-0.22809 0.77931,-0.22809 0.55123,0 0.77932,0.22809 0.28511,0.2471 0.28511,0.95039 v 1.15947 h 2.09085 v -1.15947 q 0,-1.57764 -0.95038,-2.49001 -0.83634,-0.77932 -2.2049,-0.77932 -1.36855,0 -2.20489,0.77932 -0.95039,0.91237 -0.95039,2.49001 v 0.32313 q 0,0.89336 0.36115,1.67267 0.36115,0.77932 1.04542,1.38757 0.41817,0.36114 1.31154,0.83634 0.64626,0.36114 0.79832,0.4942 0.70328,0.64626 0.70328,1.52061 v 0.83634 q 0,0.70329 -0.28511,0.95039 -0.22809,0.22809 -0.77932,0.22809 -0.53221,0 -0.77931,-0.22809 -0.28512,-0.26611 -0.28512,-0.95039 v -1.7297 h -2.09085 v 1.7297 q 0,1.57764 0.95039,2.49001 0.83634,0.77931 2.20489,0.77931 z"
         style="font-weight:normal;font-family:Bison;-inkscape-font-specification:Bison"
         id="path912" />
      <path
         d="m 405.32922,310.24255 h -2.09085 v 13.30539 h 2.09085 z"
         style="font-weight:normal;font-family:Bison;-inkscape-font-specification:Bison"
         id="path914" />
      <path
         d="m 412.35167,321.4571 h -3.42139 v -11.21455 h -2.09084 v 13.30539 h 5.51223 z"
         style="font-weight:normal;font-family:Bison;-inkscape-font-specification:Bison"
         id="path916" />
      <path
         d="m 417.36376,310.24255 h 2.12886 l -2.66107,13.30539 h -2.09085 l -2.66108,-13.30539 h 2.12886 l 1.57764,8.99065 z"
         style="font-weight:normal;font-family:Bison;-inkscape-font-specification:Bison"
         id="path918" />
      <path
         d="m 422.55494,310.24255 h -2.09084 v 13.30539 h 2.09084 z"
         style="font-weight:normal;font-family:Bison;-inkscape-font-specification:Bison"
         id="path920" />
      <path
         d="m 428.45594,321.43809 h -2.39497 l -0.38015,2.10985 h -2.12886 l 2.66108,-13.30539 h 2.09084 l 2.66108,13.30539 h -2.12886 z m -0.36114,-2.09085 -0.83634,-4.77093 -0.83634,4.77093 z"
         style="font-weight:normal;font-family:Bison;-inkscape-font-specification:Bison"
         id="path922" />
    </g>
    <path
       style="fill=currentColor;stroke-width:0.0163251"
       d="m 112.57565,349.13659 v -1.08562 l 11.65202,-0.002 c 11.52481,-0.002 11.65006,-0.002 11.47245,-0.0329 -1.03135,-0.17914 -1.46367,-0.26231 -2.16307,-0.41613 -7.3812,-1.62343 -13.31566,-5.01193 -16.92277,-9.6627 -0.58953,-0.76011 -1.15706,-1.61761 -1.63138,-2.46495 -0.17999,-0.32154 -0.53255,-1.02337 -0.68887,-1.37131 -0.96808,-2.15479 -1.51184,-4.38173 -1.6702,-6.8402 -0.0104,-0.16162 -0.0255,-0.2963 -0.0335,-0.29929 -0.0195,-0.007 -0.0195,-189.14503 -4e-5,-189.14503 0.008,0 0.0194,-0.068 0.0253,-0.15101 0.0953,-1.34139 0.25224,-2.36665 0.53277,-3.48132 0.94755,-3.76505 3.04602,-7.04208 6.25242,-9.76392 4.4323,-3.76249 10.87447,-6.28349 18.22572,-7.13222 0.32017,-0.037 10.17684,-0.037 10.49702,0 5.49808,0.63478 10.54357,2.21735 14.58645,4.5752 2.81155,1.63973 5.10287,3.62437 6.81768,5.90518 1.59143,2.11672 2.67364,4.48371 3.2207,7.04427 0.19381,0.90714 0.30749,1.74717 0.38608,2.85281 0.006,0.083 0.0173,0.15101 0.0253,0.15101 0.0195,0 0.0195,189.13776 0,189.14503 -0.008,0.003 -0.0232,0.13767 -0.0336,0.29929 -0.17664,2.74236 -0.84056,5.23076 -2.01667,7.55851 -1.29492,2.5629 -3.16736,4.82497 -5.61609,6.78475 -3.45195,2.76267 -7.99905,4.82481 -13.16618,5.97094 -0.7619,0.169 -1.32362,0.27731 -2.36713,0.45648 -0.0568,0.01 4.19319,0.0161 11.56223,0.0174 l 11.65202,0.002 v 1.08562 1.08561 h -30.29934 -30.29933 v -1.08561 z m 32.01347,-2.7337 c 1.24172,-0.0564 2.21654,-0.13237 3.26502,-0.25432 6.672,-0.77598 12.49854,-3.06085 16.61449,-6.51537 3.09599,-2.59846 5.1445,-5.80235 6.02707,-9.4264 0.24596,-1.00999 0.38062,-1.88157 0.47027,-3.04376 0.0277,-0.35894 0.029,-4.53173 0.029,-94.73441 0,-76.11042 -0.004,-94.41417 -0.0207,-94.64461 -0.10152,-1.39909 -0.31601,-2.57779 -0.69184,-3.8019 -0.61505,-2.00328 -1.66091,-3.91554 -3.05904,-5.59318 -0.68243,-0.81886 -1.59664,-1.73375 -2.43192,-2.43375 -1.65022,-1.38294 -3.61809,-2.6012 -5.78201,-3.57951 -3.34341,-1.51155 -7.17198,-2.51653 -11.29402,-2.96462 -2.50209,-0.272 -5.20561,-0.32867 -7.77889,-0.16306 -7.38749,0.47543 -14.01571,2.74468 -18.53387,6.34528 -1.06017,0.84487 -2.06087,1.81763 -2.87595,2.79566 -1.39813,1.67764 -2.444,3.5899 -3.05905,5.59318 -0.37583,1.22411 -0.59032,2.40281 -0.69183,3.8019 -0.0167,0.23044 -0.0207,18.53419 -0.0207,94.64461 0,90.20268 0.001,94.37547 0.029,94.73441 0.0897,1.16219 0.22431,2.03377 0.47027,3.04376 1.02579,4.21218 3.6229,7.84581 7.60044,10.63377 4.20362,2.94645 9.81796,4.83988 16.05328,5.41395 0.88937,0.0819 1.81342,0.13521 2.95483,0.17049 0.34241,0.0106 2.3684,-0.006 2.72629,-0.0221 z m -6.06476,-19.54286 c -5.30647,-0.0431 -9.96718,-0.0788 -10.35713,-0.0795 l -0.70901,-10e-4 0.16212,-0.14958 c 0.23815,-0.21974 0.45316,-0.43951 0.94769,-0.96868 0.85928,-0.91948 1.22776,-1.24664 1.63364,-1.45042 0.28411,-0.14263 0.4263,-0.16253 0.90294,-0.12631 1.00216,0.0762 2.32871,0.055 3.54254,-0.0565 0.50843,-0.0467 1.56301,-0.18199 1.7813,-0.22852 0.0403,-0.009 0.0505,-0.0342 0.18285,-0.46131 0.63022,-2.03323 1.7489,-6.51176 2.02702,-8.11498 l 0.0266,-0.15325 -0.19131,-0.32018 c -0.46113,-0.77174 -0.88382,-1.43349 -1.94053,-3.03805 -1.4232,-2.16108 -1.9663,-3.02508 -2.59126,-4.12234 -0.53518,-0.93962 -1.08698,-2.01195 -1.40135,-2.72324 -0.0556,-0.12572 -0.0604,-0.131 -0.3339,-0.36659 -0.35898,-0.3092 -1.08341,-1.03395 -1.36392,-1.36453 -0.90923,-1.07153 -1.54008,-2.15137 -1.93425,-3.31091 -0.31471,-0.92579 -0.47123,-1.9284 -0.44302,-2.83787 0.0116,-0.37299 0.0334,-0.6667 0.14175,-1.90187 0.11427,-1.30326 0.1464,-1.76738 0.14661,-2.11754 l 8e-5,-0.14222 -0.0694,-0.0179 c -0.49631,-0.12807 -1.15033,-0.34209 -2.06921,-0.67717 -1.3058,-0.47615 -1.9114,-0.65835 -2.5712,-0.77354 -0.99056,-0.17297 -1.98032,-0.11359 -2.93843,0.17624 -0.11668,0.0353 -0.21403,0.0623 -0.21632,0.06 -0.002,-0.002 0.0864,-0.20926 0.19721,-0.4599 0.44131,-0.99865 0.65866,-1.3667 1.03904,-1.75946 0.33662,-0.34755 0.70141,-0.57791 1.11183,-0.70208 0.57706,-0.17458 1.0498,-0.23035 2.30858,-0.2723 0.26936,-0.009 0.58893,-0.0237 0.71014,-0.0327 0.67683,-0.0505 1.21203,-0.16892 1.68828,-0.37375 0.16502,-0.071 0.19889,-0.0795 0.385,-0.0968 0.11224,-0.0104 0.61026,-0.0667 1.10672,-0.12498 0.90216,-0.10594 1.48786,-0.16655 1.99505,-0.20645 0.36379,-0.0286 1.5522,-0.0286 1.84473,0 0.64383,0.063 1.1356,0.15997 1.6327,0.32208 0.27069,0.0883 0.41324,0.1767 0.64204,0.3983 0.42377,0.41043 0.76377,1.01809 1.04636,1.87008 0.16145,0.4868 0.23894,0.86285 0.42552,2.06512 0.0664,0.42772 0.12005,0.71147 0.18065,0.95502 0.0499,0.20075 0.13195,0.45185 0.15865,0.48582 0.0109,0.0139 0.20263,0.0998 0.42604,0.191 2.06666,0.84329 3.8649,1.81292 5.40991,2.91708 1.06486,0.76101 2.20287,1.74487 2.83936,2.45474 1.50287,1.67616 3.01601,3.46899 4.77397,5.65644 0.95532,1.18871 1.67321,2.09735 3.81785,4.83222 4.4143,5.6292 6.24726,7.83414 9.0042,10.83156 0.33633,0.36565 0.69573,0.85252 0.91019,1.23296 0.24519,0.43497 0.36377,0.8483 0.32237,1.12369 -0.0618,0.41079 -0.38223,0.64025 -0.99662,0.71359 -0.0853,0.0102 -0.15555,0.0196 -0.15612,0.021 -5.7e-4,0.001 -0.0248,0.0765 -0.0539,0.16688 -0.0622,0.19314 -0.19712,0.47964 -0.3049,0.64725 -0.65305,1.01559 -2.03896,1.69886 -3.76852,1.85791 -0.23262,0.0214 -0.32254,0.0162 -0.75281,-0.0433 -2.65042,-0.36677 -4.87972,-1.58766 -6.80821,-3.72855 -0.99124,-1.1004 -1.74444,-2.14606 -2.89779,-4.02297 l -0.0296,-0.0482 -0.008,0.04 c -0.11568,0.56416 -0.18762,0.76445 -0.37795,1.0522 -0.0984,0.14882 -0.26161,0.31245 -0.41457,0.4157 -0.2724,0.18389 -0.70906,0.30025 -0.98207,0.26173 -0.60352,-0.0852 -1.14464,-0.38087 -1.88191,-1.02827 -0.1243,-0.10913 -0.22778,-0.19607 -0.22995,-0.19316 -0.002,0.003 -0.0129,0.0971 -0.0239,0.20934 -0.058,0.59304 -0.19456,1.29954 -0.37787,1.95483 -0.14662,0.52413 -0.26131,0.86144 -0.723,2.12643 l -0.18768,0.51424 0.31282,0.0109 c 1.37277,0.0477 3.37048,0.69548 4.55183,1.47595 0.41908,0.27687 0.80329,0.62352 1.02997,0.92929 0.14861,0.20045 0.35501,0.60531 0.35501,0.69637 0,0.0223 -1.44596,0.0137 -11.61529,-0.0688 z m 21.09199,-2.01483 c 0.9559,-0.10743 1.68106,-0.39771 2.18499,-0.87463 0.16759,-0.1586 0.37537,-0.41784 0.36235,-0.45207 -0.004,-0.0112 -0.0755,-0.11039 -0.15824,-0.22039 -0.84442,-1.12227 -1.96813,-2.27595 -3.32779,-3.41653 -0.27122,-0.22752 -0.5222,-0.40027 -1.49374,-1.02822 -4.0419,-2.61235 -8.61413,-5.27883 -14.65992,-8.54951 -1.74825,-0.94577 -4.19013,-2.25201 -4.19702,-2.24512 -0.005,0.005 0.18435,0.27088 1.01405,1.42425 2.2758,3.16359 3.08793,4.41796 4.01883,6.20727 l 0.12934,0.2486 0.14592,-0.095 c 0.0802,-0.0523 0.27354,-0.18432 0.42953,-0.29349 0.15599,-0.10918 0.28882,-0.19849 0.29519,-0.19849 0.006,0 0.63368,0.74479 1.39403,1.65511 1.34508,1.61037 1.38442,1.65561 1.45474,1.67332 0.25683,0.0647 0.39392,-0.0664 0.45903,-0.4389 0.0486,-0.27803 0.0158,-0.91405 -0.0826,-1.59985 -0.0357,-0.24912 -0.32057,-2.84316 -0.31508,-2.86946 0.006,-0.0268 1.47744,1.75741 1.75433,2.12666 0.36944,0.49268 0.74736,1.03542 1.46636,2.10594 1.12256,1.67136 1.58231,2.31659 2.18102,3.06095 1.46123,1.81669 2.87154,2.8897 4.50941,3.43089 0.54484,0.18004 1.17807,0.30618 1.78227,0.35508 0.25815,0.0209 0.42481,0.0193 0.653,-0.006 z m -19.08312,-1.30596 c 0.87925,-0.14259 1.54316,-0.89236 2.00971,-2.26956 0.0905,-0.26706 0.18661,-0.59764 0.2521,-0.86692 0.0575,-0.23642 0.19443,-0.89325 0.18763,-0.90005 -0.002,-0.002 -0.0552,0.0562 -0.11723,0.13029 -0.15566,0.18607 -0.71933,0.74907 -0.98961,0.98843 -0.26675,0.23623 -0.81023,0.68907 -0.827,0.68907 -0.007,0 -0.0544,-0.19283 -0.10645,-0.42854 -0.19401,-0.87894 -0.34061,-1.45916 -0.49186,-1.94676 -0.0745,-0.24029 -0.22099,-0.65473 -0.27691,-0.7836 l -0.0283,-0.0653 -0.0887,0.33467 c -0.17942,0.67669 -0.41573,1.52164 -0.5456,1.95085 -0.24701,0.81638 -0.30519,1.03656 -0.36451,1.37946 -0.0704,0.40733 -0.0743,0.79871 -0.0103,1.05929 0.10011,0.40782 0.36183,0.6513 0.78174,0.7273 0.16675,0.0302 0.43411,0.0308 0.61533,10e-4 z m 20.3547,-3.83147 c -0.007,-0.0106 -0.13373,-0.16299 -0.28267,-0.33875 -0.6779,-0.79988 -1.43084,-1.72695 -3.24945,-4.00085 -2.20625,-2.75859 -3.14898,-3.91114 -6.63011,-8.10574 -2.86506,-3.45227 -4.13779,-5.00155 -5.5193,-6.71863 -0.48538,-0.6033 -0.59375,-0.71821 -1.14784,-1.2172 -1.97039,-1.77444 -4.25451,-3.12753 -7.30333,-4.32638 -0.19186,-0.0754 -0.38804,-0.16318 -0.43595,-0.19498 -0.18233,-0.12102 -0.34477,-0.33971 -0.45437,-0.61172 -0.14255,-0.35376 -0.21037,-0.73917 -0.29569,-1.68045 -0.0462,-0.50904 -0.0743,-0.72317 -0.12128,-0.92237 -0.0169,-0.0718 -0.0535,-0.24153 -0.0812,-0.37713 -0.25524,-1.24788 -0.68883,-1.88215 -1.46793,-2.14731 -0.14191,-0.0483 -0.46435,-0.11206 -0.56668,-0.11206 -0.0507,0 -0.0555,0.005 -0.0644,0.0612 -0.12604,0.79723 -0.44931,1.55313 -0.95438,2.2316 -0.30553,0.41042 -0.6549,0.753 -1.01058,0.99095 -0.16269,0.10884 -0.32633,0.20132 -0.33706,0.19048 -0.009,-0.009 -0.26915,-0.57221 -0.26895,-0.58262 1.7e-4,-0.006 0.0534,-0.0411 0.11836,-0.0788 0.64448,-0.37399 1.05537,-1.295 1.01817,-2.28224 -0.01,-0.25905 -0.0399,-0.5003 -0.0657,-0.5261 -0.0192,-0.0192 -0.84721,0.0904 -2.23829,0.29612 l -0.24488,0.0362 0.11172,0.0126 c 0.3522,0.0398 0.68731,0.22184 0.90256,0.49025 0.0923,0.1151 0.0991,0.13867 0.069,0.23902 -0.0519,0.17327 -0.26629,0.31279 -0.59167,0.38504 -0.15208,0.0338 -0.54944,0.0379 -0.70386,0.007 -0.38094,-0.0754 -0.63359,-0.25252 -0.70051,-0.49101 -0.0423,-0.1507 -0.0376,-0.168 0.0761,-0.28383 0.12062,-0.12288 0.25485,-0.21224 0.41221,-0.27449 0.0628,-0.0249 0.10451,-0.0455 0.0926,-0.0458 -0.10164,-0.003 -1.32045,0.15534 -2.63927,0.34206 -0.50281,0.0712 -1.07935,0.15225 -1.28119,0.18013 -0.20184,0.0279 -0.36887,0.0526 -0.37118,0.0549 -0.002,0.002 0.0525,0.0176 0.12171,0.0339 0.41883,0.0987 0.97594,0.29166 2.07612,0.71894 1.07315,0.41678 1.48762,0.55819 2.0339,0.6939 0.39973,0.0993 0.82794,0.1696 1.21607,0.1996 l 0.057,0.004 -0.005,0.1306 c -0.003,0.0718 -0.0261,0.56403 -0.0522,1.09378 -0.0262,0.52975 -0.0567,1.15418 -0.0679,1.38763 -0.0269,0.56209 -0.0273,2.20782 -5.5e-4,2.61201 0.081,1.22546 0.23623,2.10222 0.52457,2.9631 0.54554,1.6288 1.50309,2.83374 2.97495,3.74352 0.21834,0.13496 0.47216,0.27634 0.48074,0.26777 0.004,-0.004 -0.0516,-0.12706 -0.12259,-0.27441 -0.27324,-0.56705 -0.43687,-1.11564 -0.51812,-1.73715 -0.0397,-0.30345 -0.0399,-0.91421 -5.1e-4,-1.16725 0.14911,-0.95683 0.57754,-1.74779 1.36775,-2.52516 0.72354,-0.71176 1.74902,-1.34187 2.80598,-1.72412 0.54236,-0.19615 1.03467,-0.2907 1.13428,-0.21786 0.0787,0.0575 -0.0753,0.19169 -0.76901,0.67027 -0.25926,0.17886 -0.57791,0.40265 -0.7081,0.4973 -1.33648,0.9716 -2.09311,1.80359 -2.37303,2.60933 -0.11225,0.32313 -0.13865,0.57642 -0.11031,1.05836 0.0522,0.88759 0.2285,1.60591 0.56602,2.30618 0.67986,1.41051 1.86948,2.50077 4.15386,3.80686 0.55381,0.31665 1.23835,0.68841 5.10974,2.77495 4.17586,2.25065 6.08499,3.31142 8.23376,4.57492 2.93543,1.72605 5.60144,3.46444 7.71584,5.03118 0.211,0.15634 0.38591,0.2849 0.38869,0.28568 0.003,8.2e-4 -3e-4,-0.007 -0.007,-0.0178 z m -18.84665,-1.45009 c 0.28524,-0.3923 0.38644,-0.58222 0.42541,-0.79837 0.0314,-0.17384 -0.0128,-0.36511 -0.11753,-0.50975 -0.0282,-0.039 -0.20439,-0.33744 -0.39147,-0.66325 -2.34413,-4.08262 -4.61982,-7.37325 -6.95029,-10.05008 -0.38148,-0.43818 -0.35643,-0.41361 -0.28489,-0.27946 0.29273,0.54884 0.73192,1.3036 1.16845,2.00798 0.42935,0.69279 0.70181,1.11285 1.67839,2.58752 1.09037,1.64652 1.39072,2.11028 1.8397,2.84057 1.08051,1.75752 1.83485,3.30163 2.33403,4.77769 0.0612,0.18101 0.11578,0.32636 0.12125,0.32296 0.005,-0.003 0.0851,-0.10949 0.17695,-0.23581 z m -1.53895,-35.20091 c -0.19428,-0.36072 -7.76669,-14.90458 -7.76221,-14.90839 0.003,-0.002 0.66818,-0.007 1.47854,-0.0106 l 1.47339,-0.006 3.91748,7.5177 3.91748,7.51769 -0.41172,0.01 c -0.22644,0.005 -0.89067,0.011 -1.47607,0.0122 l -1.06436,0.002 z m 5.65086,-7.39526 c -2.15185,-4.12351 -3.91484,-7.50831 -3.91775,-7.52178 -0.005,-0.0216 0.16728,-0.0245 1.47105,-0.0245 h 1.47634 l 3.91427,7.50954 c 2.15285,4.13024 3.91461,7.51503 3.91502,7.52178 4e-4,0.007 -0.66238,0.0122 -1.47286,0.0122 h -1.47361 z M 146.7009,263.764 c -0.198,-0.042 -0.32439,-0.26545 -0.43813,-0.77478 -0.0896,-0.40123 -0.43134,-0.76796 -0.96396,-1.03446 -0.26396,-0.13207 -0.24623,-0.13039 -0.27653,-0.0262 -0.10923,0.37575 -0.5009,0.85334 -1.14088,1.39117 l -0.17969,0.15101 -6.35977,-3.3e-4 c -4.13594,-2.1e-4 -6.39911,-0.006 -6.47228,-0.0166 -0.27693,-0.04 -0.41023,-0.18214 -0.45273,-0.48268 -0.0429,-0.30323 0.0933,-0.52231 0.44395,-0.71437 0.54705,-0.29961 1.70049,-0.50658 3.23938,-0.58128 0.88376,-0.0429 1.44343,-0.0844 1.99982,-0.14808 0.92411,-0.10586 1.43564,-0.23713 1.47819,-0.37935 0.006,-0.02 0.0917,-0.26404 0.19055,-0.54238 1.00854,-2.84061 1.63309,-4.93409 1.83121,-6.13823 0.0677,-0.41139 0.0813,-0.54496 0.0821,-0.80809 6.4e-4,-0.20562 -0.006,-0.28669 -0.0375,-0.43262 -0.18346,-0.86074 -0.75225,-2.3 -1.7903,-4.5302 -0.3092,-0.66429 -0.52885,-1.10634 -1.41149,-2.84057 -0.62913,-1.23613 -2.46907,-4.92248 -2.88038,-5.77091 -0.93283,-1.92417 -1.47174,-3.10998 -1.70282,-3.7469 -0.45509,-1.25432 -0.70662,-2.75252 -0.77063,-4.59016 l -0.0152,-0.43572 -0.20041,-0.33156 c -0.33318,-0.55122 -0.57363,-1.05337 -0.66958,-1.39836 l -0.0379,-0.13628 -0.17142,-0.0525 c -0.77416,-0.23694 -1.65801,-0.79272 -2.61936,-1.64709 l -0.0808,-0.0718 0.15428,-0.17786 c 0.65413,-0.75412 1.3414,-1.29309 1.96415,-1.5403 0.0933,-0.037 0.19036,-0.0976 0.3549,-0.22137 1.00409,-0.75539 1.97145,-1.18605 2.96946,-1.32199 0.40627,-0.0553 1.29369,-0.0475 1.92636,0.0171 1.60143,0.16345 2.82336,0.72366 3.51573,1.61184 0.54526,0.69948 1.06867,1.91046 1.3094,3.02953 0.14172,0.6588 0.19346,1.08671 0.24531,2.02876 l 0.01,0.17375 0.1169,0.0532 c 0.0643,0.0293 0.32819,0.16233 0.58641,0.29565 1.3546,0.69936 2.18949,1.22515 2.75024,1.73201 0.52604,0.47549 1.04315,1.18047 1.43201,1.9523 0.0813,0.16129 0.0934,0.17694 0.16672,0.21443 0.24033,0.12294 0.8085,0.54429 1.22181,0.90608 0.69752,0.61059 1.70014,1.62535 2.68643,2.71896 1.10818,1.22877 2.9816,3.44995 3.64839,4.32564 1.53744,2.01913 3.23244,3.98508 4.8976,5.6805 0.26884,0.27372 0.47717,0.50065 0.53263,0.58017 0.3254,0.46656 0.55434,0.93548 0.63708,1.30485 0.0428,0.19083 0.0462,0.47915 0.008,0.62967 -0.0362,0.141 -0.13898,0.34539 -0.23172,0.46093 -0.148,0.18438 -0.4689,0.4072 -0.74642,0.51829 -0.35058,0.14033 -0.6188,0.18574 -1.09775,0.18585 -0.37882,1.6e-4 -0.58272,-0.02 -0.96318,-0.0949 l -0.1959,-0.0386 -0.27753,0.10275 c -2.12565,0.78701 -4.55105,1.23399 -7.40342,1.36439 -0.21998,0.0101 -0.4022,0.0205 -0.40494,0.0231 -0.003,0.003 -0.34858,1.45447 -0.76854,3.22622 l -0.76358,3.22135 0.24109,0.23422 c 0.72775,0.70699 1.1763,1.39649 1.40351,2.15743 0.0328,0.10976 0.0344,0.13257 0.0177,0.24037 -0.0215,0.13829 -0.0642,0.23737 -0.14067,0.32676 -0.0956,0.11171 -0.28354,0.19167 -0.39497,0.16806 z m -4.44078,-2.38869 c 0.50667,-0.12213 0.76733,-0.39688 0.9088,-0.95791 0.0282,-0.11192 0.39693,-1.48909 0.81934,-3.06038 0.57252,-2.12966 0.7675,-2.87767 0.76596,-2.93851 -0.009,-0.37044 -0.3823,-0.74419 -1.06513,-1.06743 -0.30956,-0.14654 -0.82929,-0.33633 -1.23447,-0.45079 l -0.0367,-0.0104 v 0.4753 0.4753 l -1.22438,3.74463 c -0.67341,2.05954 -1.22438,3.75863 -1.22438,3.77576 0,0.0171 0.005,0.0365 0.012,0.0431 0.007,0.007 0.49697,0.009 1.0897,0.005 0.92857,-0.006 1.09313,-0.0106 1.18929,-0.0338 z m 3.72761,-6.30191 c 0.11753,-0.17989 0.31115,-0.77855 0.34896,-1.07899 0.0259,-0.20596 0.011,-0.55771 -0.0316,-0.74315 -0.12289,-0.5352 -0.41848,-1.02092 -0.93226,-1.53195 l -0.20399,-0.20289 0.13052,0.0655 c 1.00776,0.50581 2.40824,0.76628 3.94243,0.73324 1.66078,-0.0358 3.19531,-0.40949 4.94817,-1.20511 l 0.28737,-0.13043 0.1126,0.0726 c 0.36611,0.23612 0.76441,0.3549 1.11534,0.33261 0.48153,-0.0306 0.79225,-0.25732 0.89333,-0.65188 0.0576,-0.22493 4.4e-4,-0.41591 -0.20857,-0.69668 -0.28464,-0.38234 -0.97036,-0.9633 -1.83183,-1.55196 l -0.27474,-0.18774 -0.45115,-0.57137 c -5.36962,-6.80057 -8.67735,-10.44687 -9.96335,-10.98315 l -0.059,-0.0246 -0.0276,0.14109 c -0.0744,0.37979 -0.3223,0.6577 -0.79511,0.89124 -0.11581,0.0572 -0.30781,0.13472 -0.42666,0.17224 -0.11886,0.0375 -0.2299,0.0734 -0.24676,0.0798 -0.024,0.009 0.0522,0.0668 0.35099,0.2661 1.157,0.77179 1.83985,1.40707 2.1287,1.98043 0.11995,0.2381 0.16181,0.4062 0.15025,0.60343 -0.0152,0.25864 -0.11211,0.45258 -0.32951,0.65908 -0.13755,0.13066 -0.23259,0.19737 -0.51483,0.36138 -0.53254,0.30946 -1.04198,0.52756 -1.48727,0.63671 -0.51316,0.1258 -0.99523,0.10571 -1.34513,-0.056 -0.27652,-0.12783 -1.93808,-1.43718 -2.84542,-2.24227 -0.34792,-0.3087 -1.15193,-1.10623 -1.36089,-1.34992 -0.49731,-0.57994 -0.88341,-1.15698 -1.15783,-1.7304 -0.71731,-1.49888 -0.57398,-2.83389 0.39063,-3.63844 0.20617,-0.17196 0.43067,-0.31225 0.76164,-0.47593 0.42998,-0.21265 0.61219,-0.26808 0.61219,-0.1862 0,0.0651 -0.10646,0.18947 -0.45327,0.52942 -0.19236,0.18856 -0.40332,0.40895 -0.4688,0.48975 -0.23076,0.28479 -0.39247,0.56949 -0.49002,0.86276 -0.0954,0.28684 -0.11434,0.40925 -0.11396,0.7371 3.1e-4,0.2679 0.004,0.30938 0.0458,0.46959 0.18631,0.71997 0.76131,1.56189 1.88493,2.75993 1.3906,1.4827 2.46008,2.23933 3.4329,2.42869 0.2202,0.0429 0.55853,0.0502 0.74975,0.0162 0.50613,-0.0899 1.04547,-0.42657 1.19483,-0.74575 0.0427,-0.0913 0.0512,-0.12906 0.0508,-0.22548 -0.001,-0.22754 -0.10872,-0.42237 -0.37646,-0.68125 -0.20641,-0.19958 -0.29363,-0.26518 -0.71932,-0.54097 -0.73505,-0.47621 -1.13026,-0.77769 -1.48041,-1.12931 -0.40273,-0.40441 -0.5754,-0.72578 -0.60636,-1.12852 -0.0112,-0.14646 -0.003,-0.2035 0.0362,-0.24248 0.0599,-0.0599 0.1573,-0.0203 0.36788,0.14964 0.32146,0.25939 0.65086,0.40293 1.09203,0.47583 0.53827,0.089 0.77209,0.0522 0.95911,-0.15066 0.0889,-0.0964 0.16015,-0.2407 0.2009,-0.40662 0.0424,-0.17255 0.0586,-0.55945 0.0337,-0.80232 -0.0177,-0.17289 -0.0213,-0.18379 -0.12543,-0.38364 -0.6433,-1.23471 -1.81537,-2.13773 -3.46267,-2.66782 -0.27375,-0.0881 -0.76203,-0.21827 -0.96308,-0.25676 l -0.10059,-0.0192 -0.009,-0.1655 c -0.0369,-0.66283 -0.0479,-0.82176 -0.0764,-1.10418 -0.20984,-2.07623 -0.77599,-3.51789 -1.77186,-4.51187 -0.68188,-0.68059 -1.45926,-1.06076 -2.47973,-1.2127 -0.27991,-0.0417 -1.02651,-0.0423 -1.24887,-0.001 -0.6798,0.12601 -1.2545,0.38186 -1.84021,0.81924 l -0.17594,0.13138 -0.004,0.41629 -0.004,0.41629 0.0851,0.0571 c 0.13684,0.0919 0.35577,0.27941 0.45859,0.39286 0.33685,0.37168 0.43692,0.73891 0.31556,1.15802 -0.0679,0.23438 -0.0822,0.32747 -0.0807,0.5224 0.003,0.37123 0.14948,0.71691 0.4425,1.04419 0.28939,0.32322 0.44534,0.61321 0.55931,1.04003 0.098,0.3672 0.11442,0.54249 0.12936,1.38486 0.0161,0.9077 0.0417,1.17949 0.17281,1.83375 0.24855,1.24051 0.69159,2.37737 1.70292,4.36978 0.52785,1.0399 0.88133,1.69653 1.91142,3.5507 1.61697,2.91057 2.67554,4.95714 3.32269,6.42392 0.70037,1.5874 1.18029,3.23915 1.27357,4.38328 0.0481,0.5896 0.1032,0.78826 0.20383,0.73441 0.0738,-0.0395 0.19868,-0.37168 0.31704,-0.84348 l 0.0417,-0.16621 v -0.90716 c 0,-0.62258 0.005,-0.90717 0.0171,-0.90717 0.0656,0 1.11716,0.42137 1.56639,0.62769 1.2569,0.57725 2.1018,1.21808 2.41176,1.82924 0.13107,0.25842 0.162,0.41289 0.17489,0.87339 0.016,0.57189 0.0798,0.72442 0.21592,0.51613 z m -13.26044,-27.58038 c -0.13093,-0.0387 -0.22978,-0.0981 -0.31237,-0.18768 -0.14761,-0.16014 -0.1909,-0.32043 -0.1793,-0.66395 0.007,-0.19646 0.0153,-0.25937 0.0509,-0.36994 0.0775,-0.24051 0.21846,-0.38695 0.44807,-0.46556 0.0894,-0.0306 0.14321,-0.0372 0.30451,-0.0371 0.10915,0 0.23566,0.01 0.28569,0.0221 0.40183,0.0987 0.58697,0.39001 0.56652,0.89131 -0.01,0.23724 -0.0482,0.37245 -0.14744,0.51747 -0.0842,0.1231 -0.22609,0.22544 -0.38251,0.27599 -0.15533,0.0502 -0.49181,0.0594 -0.6341,0.0173 z m -2.1679,1.15636 c 0.13195,-0.17996 0.10016,-0.39587 -0.0958,-0.65025 -0.0781,-0.10146 -0.39775,-0.4097 -0.45857,-0.44225 -0.0376,-0.0201 -0.0991,-0.009 -0.62605,0.11138 -0.32143,0.0735 -0.599,0.13955 -0.61683,0.14674 -0.0288,0.0116 -0.0171,0.0282 0.10391,0.14776 0.32115,0.31728 0.78086,0.59429 1.33048,0.80167 l 0.16372,0.0618 0.0726,-0.0517 c 0.0399,-0.0284 0.0969,-0.0847 0.12648,-0.12515 z m -1.67362,-1.22468 c 0.45268,-0.081 0.86161,-0.15495 0.90875,-0.16441 l 0.0857,-0.0172 v -0.42996 -0.42996 l -0.0939,0.0285 c -0.38581,0.11737 -0.82731,0.35548 -1.20397,0.64934 -0.24153,0.18843 -0.57885,0.51084 -0.53446,0.51084 0.008,0 0.38517,-0.0662 0.83784,-0.14722 z m 0.61898,-7.39504 c -1.43343,-0.0227 -3.02466,-0.0635 -4.23635,-0.10855 -0.37711,-0.014 -1.1852,-0.029 -1.79576,-0.0333 l -1.11011,-0.008 -0.0536,-0.0513 c -0.0735,-0.0703 -0.20904,-0.26941 -0.25656,-0.37687 -0.10604,-0.23975 -0.12783,-0.53267 -0.0591,-0.7934 0.0385,-0.14605 0.14159,-0.37905 0.23748,-0.53689 0.16352,-0.26918 0.45191,-0.43716 0.89147,-0.51924 0.2165,-0.0404 0.8768,-0.0402 1.19925,4.1e-4 0.5243,0.066 1.16536,0.19424 1.73046,0.34606 0.30777,0.0827 0.4878,0.105 1.12643,0.13963 0.42368,0.023 1.14102,0.0108 1.50609,-0.0255 1.06802,-0.10632 1.8537,-0.36036 2.54253,-0.82208 0.59924,-0.40168 0.99556,-0.79308 1.1662,-1.15174 0.12787,-0.26878 0.13958,-0.4694 0.0435,-0.74461 -0.0329,-0.0943 -0.074,-0.22651 -0.0912,-0.29385 -0.11282,-0.44058 -0.1093,-1.14433 0.01,-1.91004 0.0762,-0.49074 0.42869,-2.19596 0.57194,-2.76667 0.0357,-0.1424 0.0537,-0.24692 0.0479,-0.27814 -0.005,-0.0275 -0.0502,-0.13299 -0.1001,-0.23442 -0.0747,-0.15175 -0.11152,-0.2054 -0.20806,-0.30286 -0.13736,-0.13866 -0.24853,-0.19742 -0.41931,-0.22164 -0.24409,-0.0346 -0.47195,0.0429 -0.63465,0.21601 -0.32502,0.34577 -0.3755,0.38487 -0.62672,0.48545 -0.14705,0.0589 -0.43465,0.13687 -0.60771,0.16479 l -0.1203,0.0194 -0.10705,-0.0599 c -0.29937,-0.16741 -0.54171,-0.43334 -0.66127,-0.72562 -0.0627,-0.15319 -0.0927,-0.27213 -0.13243,-0.52462 -0.0865,-0.54973 -0.12099,-0.64795 -0.26376,-0.7518 -0.23242,-0.16906 -0.40501,-0.48199 -0.40501,-0.73435 0,-0.057 -0.012,-0.0767 -0.10708,-0.17469 -0.29264,-0.3018 -0.42376,-0.59554 -0.38303,-0.85805 0.0281,-0.18117 0.0828,-0.27655 0.26005,-0.45354 0.17885,-0.17856 0.34505,-0.29796 0.75742,-0.54409 0.51374,-0.30662 0.93388,-0.60525 1.32619,-0.94261 0.1081,-0.093 0.24401,-0.20663 0.30201,-0.2526 0.32575,-0.25816 0.72272,-0.46301 1.16659,-0.60201 0.6261,-0.19605 1.46208,-0.48632 1.57562,-0.54709 0.0178,-0.01 0.0324,-0.0289 0.0324,-0.043 0,-0.0141 0.022,-0.0717 0.0489,-0.12806 0.15109,-0.31659 0.62065,-0.53826 1.36325,-0.64357 0.8016,-0.11367 1.61748,-0.10202 2.32632,0.0332 1.22042,0.23287 2.42782,0.86089 3.31657,1.7251 0.91065,0.88551 1.72866,2.20602 2.41393,3.89681 0.0984,0.24291 0.11021,0.2576 0.42724,0.5336 1.58121,1.37664 3.49313,2.05336 5.80265,2.05385 0.97342,1.9e-4 2.04992,-0.12642 3.13214,-0.36842 0.58094,-0.1299 0.51735,-0.10157 0.69364,-0.309 0.20085,-0.23634 0.53396,-0.5757 0.76746,-0.78189 0.80579,-0.71153 1.67919,-1.12885 2.62017,-1.25193 0.22865,-0.0299 0.6309,-0.0107 0.83258,0.0398 0.21777,0.0545 0.37463,0.11226 0.57138,0.21046 0.79826,0.39844 1.57567,1.24417 2.32934,2.53406 l 0.1428,0.24438 -0.0428,0.0739 c -0.0851,0.147 -0.20217,0.27483 -0.31924,0.34843 -0.0246,0.0155 -0.0896,0.0396 -0.14434,0.0537 -0.34751,0.089 -0.8004,-0.2128 -1.34231,-0.89458 -0.33258,-0.41843 -0.49528,-0.58289 -0.74253,-0.75057 -0.32203,-0.21838 -0.62495,-0.30159 -0.98567,-0.27075 -0.33063,0.0283 -0.73027,0.21841 -1.092,0.51954 l -0.0699,0.0582 0.34343,0.18981 c 1.57198,0.86883 2.96406,1.78314 4.29038,2.81786 1.17619,0.91761 2.10302,1.89439 2.71285,2.85905 0.37786,0.5977 0.63122,1.14998 0.72273,1.57536 0.19178,0.89151 -0.0623,1.67322 -0.78387,2.41172 l -0.13988,0.14316 h -7.78735 -7.78735 l -0.0933,-0.12495 c -0.1064,-0.14245 -0.22531,-0.37949 -0.25671,-0.51173 -0.0117,-0.0494 -0.0207,-0.14856 -0.0199,-0.22039 0.003,-0.22926 0.0946,-0.42215 0.30146,-0.6313 0.34683,-0.35075 0.74764,-0.47832 1.49969,-0.47732 0.66802,8.9e-4 1.30523,0.1002 2.34499,0.36545 0.75779,0.19333 1.06911,0.24388 1.58151,0.25682 0.23316,0.006 0.41958,0.002 0.53056,-0.0105 0.58458,-0.067 1.00888,-0.25044 1.36078,-0.58838 0.1596,-0.15328 0.24874,-0.26231 0.35056,-0.42884 l 0.0674,-0.11013 -0.0337,-0.0858 c -0.10862,-0.27655 -0.36051,-0.54845 -0.68433,-0.7387 -0.57282,-0.33655 -1.5182,-0.54209 -2.22006,-0.48268 -0.4716,0.0399 -0.79581,0.1324 -1.28969,0.36789 -0.47613,0.22703 -0.8548,0.3658 -1.48583,0.54453 -1.49988,0.42482 -4.05584,0.92349 -5.61557,1.09561 -0.90876,0.10029 -1.30388,0.12296 -2.14675,0.1232 -0.77928,2.3e-4 -0.99717,-0.0115 -1.55905,-0.0843 -0.42503,-0.055 -0.98489,-0.0697 -1.20366,-0.0317 -0.21793,0.0379 -0.3545,0.0972 -0.45388,0.19691 -0.0946,0.0949 -0.12189,0.16701 -0.12189,0.32219 0,0.12069 0.028,0.22662 0.10983,0.41588 0.0712,0.16463 0.066,0.22148 -0.0286,0.31617 -0.3299,0.32991 -1.68644,0.52083 -4.29305,0.60422 -0.70994,0.0227 -3.33706,0.0321 -4.37513,0.0156 z m 6.27495,-1.88895 c 0.0149,-0.19446 0.0801,-0.5075 0.14229,-0.68383 0.11121,-0.31523 0.25304,-0.5382 0.47925,-0.75343 0.36229,-0.3447 0.83469,-0.51179 1.51909,-0.53732 0.32638,-0.0122 0.57486,0.008 1.23254,0.10027 0.82582,0.1158 1.53959,0.18939 2.29367,0.23649 1.09779,0.0686 2.39446,0.0589 3.33032,-0.0247 1.78544,-0.15958 4.14431,-0.89221 7.20587,-2.23804 l 0.10446,-0.0459 -0.0111,-0.35951 c -0.0394,-1.2681 -0.24554,-1.89711 -0.64269,-1.96062 -0.0353,-0.006 -0.10397,-0.002 -0.1525,0.008 -0.28476,0.0585 -1.29453,0.10729 -1.94929,0.0942 -0.72491,-0.0145 -1.27699,-0.0629 -1.89371,-0.16604 -2.05937,-0.34451 -3.75139,-1.14882 -5.24336,-2.49247 -0.1094,-0.0985 -0.20376,-0.17915 -0.20969,-0.17918 -0.006,0 -0.13026,0.14928 -0.27627,0.33178 -1.71454,2.14303 -3.86877,3.85728 -6.48566,5.16102 -0.22237,0.11078 -0.51664,0.25229 -0.65393,0.31445 l -0.24962,0.11302 -0.0396,0.0834 c -0.0562,0.11849 -0.0726,0.20465 -0.0727,0.38182 -4.3e-4,0.57191 0.40534,1.34723 1.28338,2.4522 0.14063,0.17697 0.26076,0.31864 0.26696,0.31481 0.006,-0.004 0.0162,-0.0715 0.0223,-0.15032 z m 25.01822,-0.60953 c 0.34841,-0.025 0.53119,-0.0701 0.57087,-0.14104 0.0299,-0.0534 -0.21313,-0.69051 -0.45342,-1.18863 -0.43901,-0.91011 -1.00504,-1.70131 -1.71809,-2.40155 -1.21755,-1.1957 -2.67661,-1.98358 -4.20092,-2.26849 -0.25765,-0.0482 -0.59845,-0.0118 -0.80522,0.0858 -0.10708,0.0506 -0.25037,0.17939 -0.30497,0.27416 -0.15485,0.26881 -0.15031,0.68464 0.0136,1.24383 0.0456,0.15575 0.0793,0.21633 0.24403,0.43935 0.93058,1.2599 2.84121,2.52628 5.66029,3.75168 0.21998,0.0956 0.422,0.18422 0.44894,0.19689 0.0598,0.0281 0.22918,0.0306 0.54489,0.008 z m -26.17057,-4.20185 c 2.69275,-1.35389 4.82397,-3.08679 6.42607,-5.22506 0.12782,-0.17059 0.27184,-0.36725 0.32006,-0.437 l 0.0876,-0.12683 -0.0374,-0.16702 c -0.19877,-0.88747 -0.77909,-1.78966 -1.68265,-2.6159 -0.85301,-0.78002 -1.63339,-1.20863 -2.39058,-1.31297 -0.071,-0.01 -0.13173,-0.0151 -0.13501,-0.0118 -0.003,0.003 0.057,0.10437 0.13383,0.22466 0.15753,0.24648 0.32649,0.57975 0.39125,0.77178 0.22561,0.66899 0.0191,1.10512 -0.62219,1.31397 -0.0797,0.026 -0.17796,0.0525 -0.21837,0.0591 -0.0921,0.0149 -0.29378,0.11812 -0.39609,0.2027 -0.16318,0.13492 -0.26871,0.30307 -0.31604,0.50358 -0.0332,0.14053 -0.0329,0.40521 7e-4,0.60811 0.0322,0.19441 0.0324,0.30425 0.001,0.46934 -0.0335,0.17652 -0.0857,0.32402 -0.18354,0.51832 -0.18414,0.36574 -0.41243,0.65998 -0.88226,1.13713 l -0.33202,0.3372 -0.0879,0.22208 c -0.19107,0.48283 -0.3435,0.99218 -0.44011,1.47066 -0.12793,0.63358 -0.16115,1.00796 -0.15214,1.71479 0.006,0.48406 0.0126,0.57888 0.0391,0.57888 0.004,0 0.21874,-0.10606 0.47654,-0.23568 z m -3.5232,-4.09164 c 0.1157,-0.0525 0.17451,-0.10598 0.29322,-0.26671 0.13046,-0.17665 0.21735,-0.25538 0.35372,-0.32054 0.17124,-0.0818 0.29277,-0.1015 0.56974,-0.0922 0.26694,0.009 0.37265,0.0308 0.54689,0.11314 0.13296,0.0628 0.33116,0.2567 0.4007,0.39196 0.0265,0.0516 0.056,0.0939 0.0656,0.0939 0.01,0 0.083,-0.0447 0.16325,-0.0994 0.53769,-0.36664 0.91668,-0.81777 1.11646,-1.32895 0.14036,-0.35914 0.17803,-0.58157 0.19766,-1.16725 0.0203,-0.60712 -0.002,-0.77285 -0.13132,-0.95223 -0.0668,-0.093 -0.10106,-0.11687 -0.32675,-0.22746 -0.31845,-0.15604 -0.44544,-0.30204 -0.47249,-0.54323 -0.0136,-0.121 -9.6e-4,-0.29047 0.0292,-0.39212 0.0498,-0.1681 0.20627,-0.3882 0.35841,-0.50422 0.0463,-0.0353 0.0819,-0.0665 0.0791,-0.0693 -0.003,-0.003 -0.16242,0.0322 -0.35471,0.0778 -0.45918,0.10881 -1.06829,0.22917 -1.48421,0.29327 -0.51111,0.0788 -0.76521,0.1548 -1.09164,0.32659 -0.21715,0.11428 -0.38589,0.2307 -0.63882,0.44074 -0.45951,0.38158 -0.87348,0.68751 -1.40563,1.03877 -0.16925,0.11172 -0.31263,0.21105 -0.31861,0.22074 -0.006,0.01 -0.0144,0.0673 -0.0188,0.12807 -0.0137,0.19217 0.0905,0.44023 0.28107,0.66871 0.0721,0.0864 0.0744,0.0925 0.0624,0.16325 -0.0235,0.13772 -0.0121,0.29596 0.0272,0.37857 0.0414,0.087 0.16181,0.20688 0.2559,0.25476 0.0906,0.0461 0.28207,0.103 0.34923,0.10382 0.0724,8.8e-4 0.44939,-0.12317 0.68032,-0.22388 0.14952,-0.0652 0.19309,-0.0772 0.28286,-0.0778 0.12542,-8.3e-4 0.22359,0.0376 0.35506,0.13904 0.14196,0.10952 0.14118,0.113 -0.0416,0.18475 -0.22838,0.0897 -0.40324,0.17482 -0.5339,0.25996 -0.1265,0.0824 -0.30709,0.1469 -0.48641,0.17366 -0.20425,0.0305 -0.19108,0.0233 -0.19108,0.10383 0,0.0975 0.0387,0.29243 0.0793,0.39909 0.0479,0.1259 0.11149,0.20984 0.19706,0.26015 0.0656,0.0385 0.0934,0.0442 0.2297,0.0465 0.0853,10e-4 0.17712,0.01 0.20406,0.019 0.0854,0.0286 0.23807,0.0216 0.31788,-0.0146 z m 2.22883,-1.57597 c -0.85336,-0.091 -1.44413,-0.21757 -1.78156,-0.38171 -0.22475,-0.10933 -0.3006,-0.18612 -0.35982,-0.36423 -0.0382,-0.11494 -0.0446,-0.16149 -0.0453,-0.32974 -8e-4,-0.18735 0.001,-0.20071 0.0513,-0.30609 0.0287,-0.0606 0.0618,-0.10987 0.0735,-0.10946 0.0117,4.1e-4 0.0542,0.018 0.0945,0.039 l 0.0732,0.0383 2.5e-4,0.17729 c 2.3e-4,0.15794 0.005,0.18749 0.0441,0.27077 0.0583,0.12439 0.13145,0.21271 0.25004,0.30186 0.34728,0.2611 1.04316,0.44765 1.97158,0.52855 0.12363,0.0108 0.22281,0.0214 0.22039,0.0235 -0.0203,0.0182 -0.3277,0.13778 -0.35049,0.13637 -0.0162,-0.001 -0.1249,-0.012 -0.24162,-0.0245 z m -1.78237,-1.66516 c -0.006,-0.0144 -0.005,-0.13504 8.3e-4,-0.26799 0.0169,-0.37544 0.0757,-0.55886 0.22124,-0.69032 0.11569,-0.10453 0.16033,-0.11681 0.41755,-0.11493 0.17674,0.001 0.25816,0.01 0.35915,0.0363 0.13985,0.037 0.36139,0.13938 0.43965,0.20312 l 0.0478,0.039 -0.0805,0.0867 c -0.11269,0.12138 -0.30128,0.25779 -0.49066,0.35489 -0.15597,0.08 -0.44108,0.18525 -0.56393,0.20824 -0.0462,0.009 -0.0646,0.0225 -0.0803,0.0606 -0.0112,0.0271 -0.0431,0.0631 -0.0707,0.08 -0.0639,0.039 -0.18587,0.0417 -0.20015,0.005 z m -0.49774,-0.26273 c -0.0128,-0.0556 -0.0215,-0.18895 -0.0211,-0.32319 5.2e-4,-0.19727 0.006,-0.24108 0.037,-0.32006 0.0829,-0.20833 0.21115,-0.3336 0.46844,-0.45747 0.29501,-0.14204 0.54035,-0.16473 1.04889,-0.097 0.30999,0.0413 0.34067,0.054 0.25912,0.10744 -0.0705,0.0462 -0.14579,0.0585 -0.44278,0.0726 -0.44444,0.021 -0.60744,0.0747 -0.79237,0.26067 -0.16287,0.16384 -0.2666,0.38646 -0.32386,0.69506 l -0.0273,0.14692 -0.0922,0.005 -0.0922,0.005 z m 4.98303,-0.60182 c 0.26788,-0.0773 0.43405,-0.31363 0.51293,-0.72945 0.0463,-0.24418 0.0234,-0.39339 -0.0667,-0.43443 -0.0644,-0.0293 -0.23383,-0.0222 -0.3117,0.0132 -0.13023,0.0591 -0.21279,0.22887 -0.25101,0.51606 -0.0149,0.11223 -0.0381,0.18357 -0.11494,0.35386 -0.0908,0.20121 -0.1107,0.27015 -0.0854,0.29549 0.0205,0.0205 0.22806,0.0109 0.31674,-0.0147 z m -0.85202,-0.0609 c 0.16768,-0.11097 0.27154,-0.37978 0.33555,-0.86849 0.0393,-0.29985 0.0987,-0.42853 0.2426,-0.52536 0.15375,-0.10346 0.36418,-0.1077 0.662,-0.0133 0.0749,0.0237 0.13876,0.0406 0.14189,0.0375 0.003,-0.003 -0.0168,-0.051 -0.0443,-0.10641 -0.10877,-0.21947 -0.30202,-0.39612 -0.50053,-0.45756 -0.0637,-0.0197 -0.14671,-0.0286 -0.26681,-0.0286 h -0.17436 l -0.095,0.0668 c -0.11767,0.0828 -0.22546,0.21298 -0.34331,0.41478 -0.0676,0.11583 -0.137,0.20262 -0.27401,0.34283 -0.31516,0.32255 -0.47642,0.53559 -0.52228,0.69002 -0.0223,0.0752 -0.0217,0.0844 0.0102,0.14691 0.0187,0.0367 0.0718,0.1043 0.11792,0.15031 0.13845,0.13802 0.31307,0.20539 0.51773,0.19974 0.10476,-0.003 0.13418,-0.0104 0.19271,-0.0491 z m 4.82473,-8.3329 c -0.31237,-0.59946 -2.07624,-3.98436 -3.91971,-7.52201 l -3.35176,-6.43208 0.71421,-0.012 c 0.39282,-0.007 1.05868,-0.0103 1.4797,-0.008 l 0.76549,0.004 3.91647,7.51559 c 2.15406,4.13358 3.9143,7.51736 3.91164,7.51952 -0.003,0.002 -0.66706,0.009 -1.47646,0.0146 l -1.47164,0.0107 z m 10.00183,0.9453 c -0.0264,-0.0523 -1.78989,-3.43289 -3.91879,-7.51231 -2.86553,-5.49093 -3.86531,-7.4206 -3.8498,-7.43047 0.0115,-0.007 0.67708,-0.0116 1.47902,-0.009 l 1.45808,0.004 3.91695,7.5165 c 2.15433,4.13408 3.91696,7.51888 3.91696,7.52178 0,0.003 -0.66473,0.005 -1.47718,0.005 h -1.47719 z m -10.99968,-37.46472 c 0.005,-17.03141 0.007,-18.19187 0.0328,-18.33714 0.16062,-0.89709 0.61321,-1.61814 1.36852,-2.18025 0.92682,-0.68977 2.20623,-0.95676 3.28017,-0.68453 1.14303,0.28974 2.17677,1.12325 2.69251,2.17097 0.17128,0.34795 0.27305,0.6711 0.32905,1.0448 0.0183,0.12225 0.022,2.15817 0.022,12.12137 v 11.97444 l -1.24479,0.004 -1.24479,0.004 V 154.3908 c 0,-10.41354 -0.003,-11.96482 -0.024,-12.0929 -0.0954,-0.58619 -0.45247,-1.00104 -0.99755,-1.15899 -0.26449,-0.0767 -0.54622,-0.0702 -0.82908,0.019 -0.44656,0.14084 -0.74299,0.43158 -0.85433,0.83796 -0.0278,0.10142 -0.0293,0.90888 -0.0334,18.25551 l -0.004,18.1494 h -1.24895 -1.24895 l 0.005,-18.18205 z"
       id="path1172" />
  </g>
</svg>
