<?xml version="1.0" encoding="UTF-8" standalone="no"?>
<!-- Created with Inkscape (http://www.inkscape.org/) -->

<svg
   width="1080"
   height="1920"
   viewBox="0 0 285.75001 508"
   version="1.1"
   id="svg5"
   inkscape:export-filename="/Users/albertotomasoni/ALBERTO.png"
   inkscape:export-xdpi="96"
   inkscape:export-ydpi="96"
   inkscape:version="1.1.1 (c3084ef, 2021-09-22)"
   sodipodi:docname="Alberto copia.svg"
   xmlns:inkscape="http://www.inkscape.org/namespaces/inkscape"
   xmlns:sodipodi="http://sodipodi.sourceforge.net/DTD/sodipodi-0.dtd"
   xmlns="http://www.w3.org/2000/svg"
   xmlns:svg="http://www.w3.org/2000/svg">
  <sodipodi:namedview
     id="namedview7"
     pagecolor="#ffffff"
     bordercolor="#666666"
     borderopacity="1.0"
     inkscape:pageshadow="2"
     inkscape:pageopacity="0.0"
     inkscape:pagecheckerboard="0"
     inkscape:document-units="px"
     showgrid="false"
     units="px"
     inkscape:zoom="0.19563492"
     inkscape:cx="207.01826"
     inkscape:cy="879.18864"
     inkscape:window-width="1440"
     inkscape:window-height="900"
     inkscape:window-x="0"
     inkscape:window-y="0"
     inkscape:window-maximized="0"
     inkscape:current-layer="g2878" />
  <defs
     id="defs2" />
  <g
     inkscape:label="ALBERTO"
     inkscape:groupmode="layer"
     id="g2878">
    <text
       xml:space="preserve"
       style="font-weight:500;font-size:19.0077px;line-height:1.25;font-family:'Helvetica Neue';-inkscape-font-specification:'Helvetica Neue Medium';text-align:center;text-decoration-color:#000000;text-anchor:middle;white-space:pre;inline-size:858.441;stroke-width:1.51181;stroke-linecap:round;paint-order:markers fill stroke;stop-color:#000000"
       x="413.24438"
       y="323.54794"
       id="text2874"
       transform="matrix(2.7839642,0,0,2.7839642,-1007.2627,-810.36416)"><tspan
         x="413.24438"
         y="323.54794"
         id="tspan1324"><tspan
           style="font-weight:normal;font-family:Bison;-inkscape-font-specification:Bison"
           id="tspan1322">Sion</tspan></tspan></text>
    <path
       style="fill=currentColor;stroke-width:0.0163251"
       d="m 112.57567,259.67518 v -1.08562 l 11.65202,-0.002 c 11.52481,-0.002 11.65006,-0.002 11.47245,-0.0329 -1.03135,-0.17913 -1.46367,-0.2623 -2.16307,-0.41613 -7.3812,-1.62342 -13.31566,-5.01192 -16.92277,-9.66269 -0.58953,-0.7601 -1.15706,-1.61761 -1.63138,-2.46495 -0.17999,-0.32154 -0.53255,-1.02337 -0.68887,-1.37131 -0.96808,-2.15479 -1.51184,-4.38173 -1.6702,-6.8402 -0.0104,-0.16162 -0.0255,-0.2963 -0.0335,-0.2993 -0.0195,-0.007 -0.0195,-99.68361 -4e-5,-99.68361 0.008,0 0.0194,-0.068 0.0253,-0.15101 0.0953,-1.34139 0.25224,-2.36665 0.53277,-3.48132 0.94755,-3.76505 3.04602,-7.04208 6.25242,-9.76392 4.4323,-3.76249 10.87447,-6.28349 18.22572,-7.13222 0.32017,-0.037 10.17684,-0.037 10.49702,0 5.49808,0.63478 10.54357,2.21735 14.58645,4.5752 2.81155,1.63973 5.10287,3.62437 6.81768,5.90518 1.59143,2.11672 2.67364,4.48371 3.2207,7.04427 0.19381,0.90714 0.30749,1.74717 0.38608,2.85281 0.006,0.083 0.0173,0.15101 0.0253,0.15101 0.0195,0 0.0195,99.67636 0,99.68361 -0.008,0.003 -0.0232,0.13768 -0.0336,0.2993 -0.17664,2.74237 -0.84056,5.23076 -2.01667,7.55851 -1.29492,2.5629 -3.16736,4.82497 -5.61609,6.78475 -3.45195,2.76267 -7.99905,4.8248 -13.16618,5.97093 -0.7619,0.169 -1.32362,0.27733 -2.36713,0.45649 -0.0568,0.01 4.19319,0.0161 11.56223,0.0174 l 11.65199,0.002 v 1.08562 1.08561 h -30.29934 -30.29934 z m 32.01347,-2.73371 c 1.24172,-0.0564 2.21654,-0.13236 3.26502,-0.25431 6.672,-0.77597 12.49854,-3.06085 16.61449,-6.51536 3.09599,-2.59846 5.1445,-5.80235 6.02707,-9.42642 0.24596,-1.00998 0.38062,-1.88155 0.47027,-3.04375 0.0276,-0.3584 0.029,-2.63351 0.029,-50.0037 0,-39.95413 -0.004,-49.68391 -0.0207,-49.91391 -0.10152,-1.39909 -0.31601,-2.57779 -0.69184,-3.8019 -0.61505,-2.00329 -1.66091,-3.91554 -3.05904,-5.59318 -0.68243,-0.81886 -1.59664,-1.73376 -2.43192,-2.43375 -1.65022,-1.38294 -3.61809,-2.6012 -5.78201,-3.57951 -3.34341,-1.51155 -7.17198,-2.51653 -11.29402,-2.96462 -2.50209,-0.272 -5.20561,-0.32867 -7.77889,-0.16306 -7.38749,0.47543 -14.01571,2.74468 -18.53387,6.34528 -1.06017,0.84487 -2.06087,1.81763 -2.87595,2.79566 -1.39813,1.67764 -2.444,3.58989 -3.05905,5.59318 -0.37583,1.22411 -0.59032,2.40281 -0.69183,3.8019 -0.0167,0.23 -0.0207,9.95978 -0.0207,49.91391 0,47.37019 10e-4,49.6453 0.029,50.0037 0.0897,1.1622 0.22431,2.03377 0.47027,3.04375 1.02579,4.21219 3.6229,7.84582 7.60044,10.63379 4.20362,2.94645 9.81796,4.83988 16.05328,5.41395 0.88937,0.0819 1.81342,0.13519 2.95483,0.17047 0.34241,0.0106 2.3684,-0.006 2.72629,-0.0221 z m -24.49577,-19.94293 c -0.54771,-0.26395 -1.00215,-0.48214 -1.00987,-0.48487 -0.008,-0.003 0.094,-0.22087 0.22595,-0.48474 0.1506,-0.30105 0.80549,-1.74508 1.7581,-3.87661 1.38799,-3.10568 2.55424,-5.67452 2.57598,-5.67396 0.005,1.7e-4 0.4821,0.91106 1.06069,2.02431 0.57859,1.11325 1.05634,2.02409 1.06167,2.02409 0.005,0 0.23595,-0.43527 0.5125,-0.96726 0.49329,-0.94892 1.59406,-2.99946 1.61027,-2.99964 0.005,0 0.19789,0.38007 0.42968,0.84473 0.46365,0.92946 1.59656,3.12195 1.61324,3.12209 0.0173,1.6e-4 1.02034,-1.94447 1.54304,-2.99149 0.26782,-0.53649 0.49162,-0.97543 0.49733,-0.97543 0.0189,0 1.0234,1.86937 1.57018,2.92219 0.2961,0.57016 0.54282,1.04165 0.54826,1.04778 0.0137,0.0155 0.8649,-1.62336 1.5118,-2.91084 l 0.53873,-1.07219 1.05974,1.95741 c 0.58285,1.07657 1.0614,1.95555 1.06344,1.95329 0.002,-0.002 0.21542,-0.39346 0.47418,-0.86933 0.25876,-0.47588 0.71698,-1.35542 1.01826,-1.95454 l 0.54779,-1.0893 0.49185,0.98386 c 0.38292,0.76596 0.61733,1.20789 1.0584,1.99535 0.3116,0.55631 0.56829,1.01334 0.57042,1.01561 0.009,0.009 1.10383,-2.11748 1.55056,-3.01202 0.26567,-0.532 0.48668,-0.96727 0.49114,-0.96727 0.004,0 0.18864,0.36181 0.40929,0.80401 0.52363,1.04939 1.62845,3.18003 1.64162,3.16587 0.006,-0.006 0.27115,-0.47753 0.59001,-1.04769 0.44469,-0.79518 0.68945,-1.25624 1.05079,-1.97941 0.25908,-0.51853 0.47479,-0.94278 0.47935,-0.94278 0.005,0 0.23131,0.44629 0.50389,0.99175 0.38338,0.76719 0.62128,1.21631 1.05068,1.9835 0.3053,0.54546 0.55979,0.99175 0.56554,0.99175 0.0168,0 1.13595,-2.16585 1.60488,-3.10585 0.23628,-0.47363 0.43333,-0.86115 0.4379,-0.86115 0.005,0 0.20898,0.40221 0.45424,0.8938 0.54285,1.08804 1.5721,3.07526 1.58972,3.06933 0.007,-0.002 0.27179,-0.46771 0.58835,-1.0341 0.52893,-0.94635 0.61063,-1.10343 1.00819,-1.9383 0.23793,-0.49967 0.43801,-0.90679 0.4446,-0.90471 0.0254,0.008 1.05471,1.85015 1.60751,2.87699 0.31903,0.5926 0.5847,1.08224 0.59038,1.08809 0.0168,0.0173 1.23317,-2.11001 1.73504,-3.03427 0.25457,-0.46882 0.46788,-0.85266 0.47403,-0.85299 0.0406,-0.002 4.81439,8.53972 5.16548,9.24267 0.12422,0.24872 0.22242,0.45545 0.21823,0.4594 -0.0363,0.0343 -1.94944,1.05447 -1.95852,1.04437 -0.0488,-0.0543 -0.81133,-1.40683 -2.00707,-3.55991 -0.77415,-1.39396 -1.41244,-2.53422 -1.41843,-2.53392 -0.006,3.1e-4 -0.25601,0.47598 -0.55564,1.05705 -0.47143,0.91429 -0.61866,1.1821 -1.09378,1.98959 -0.30195,0.51321 -0.55377,0.92827 -0.55958,0.92237 -0.0149,-0.0152 -0.98954,-1.807 -1.59747,-2.937 -0.28137,-0.52301 -0.51585,-0.95082 -0.52107,-0.95068 -0.005,1.6e-4 -0.25083,0.46473 -0.54583,1.03242 -0.5356,1.03073 -1.55831,2.93432 -1.57646,2.93432 -0.005,0 -0.19924,-0.38017 -0.43103,-0.84482 -0.43232,-0.86664 -1.59611,-3.12195 -1.61107,-3.12209 -0.005,0 -0.2385,0.44253 -0.51979,0.9835 -0.49891,0.95948 -1.58592,2.98335 -1.60237,2.98339 -0.005,1e-5 -0.18321,-0.35077 -0.39706,-0.7795 -0.43362,-0.86932 -1.62977,-3.18632 -1.64531,-3.18702 -0.017,-7.7e-4 -1.01344,1.93017 -1.54026,2.98475 -0.27522,0.55094 -0.50262,0.99906 -0.50532,0.99583 -0.0309,-0.037 -1.13994,-2.11161 -1.55993,-2.91816 -0.30107,-0.57818 -0.554,-1.05074 -0.56207,-1.05015 -0.0217,0.002 -0.76336,1.42933 -1.44517,2.78208 l -0.59816,1.18679 -0.50556,-0.93277 c -0.27805,-0.51302 -0.75254,-1.40704 -1.0544,-1.98671 -0.30187,-0.57968 -0.55531,-1.05228 -0.56321,-1.05025 -0.023,0.006 -0.70877,1.32854 -1.40118,2.70256 l -0.63982,1.26966 -1.05329,-1.94448 c -0.5793,-1.06946 -1.05975,-1.94568 -1.06767,-1.94715 -0.0297,-0.006 -0.91478,1.65463 -1.46919,2.75562 l -0.57511,1.14211 -0.50151,-1.00335 c -0.38895,-0.77816 -0.62608,-1.22592 -1.05657,-1.99509 -0.30528,-0.54546 -0.55973,-0.99154 -0.56544,-0.99129 -0.0159,6.8e-4 -1.20623,2.30593 -1.64571,3.18702 -0.21385,0.42873 -0.39256,0.77952 -0.39714,0.77952 -0.005,0 -0.20898,-0.40221 -0.45424,-0.8938 -0.46157,-0.92513 -1.56993,-3.07324 -1.58564,-3.07313 -0.005,0 -0.27088,0.46836 -0.59104,1.04072 -0.44949,0.80354 -0.68939,1.25548 -1.0529,1.98344 -0.25893,0.51852 -0.47452,0.94277 -0.47908,0.94277 -0.005,0 -0.22018,-0.42425 -0.47916,-0.94277 -0.37341,-0.74765 -0.58288,-1.14126 -1.01209,-1.90178 -0.29767,-0.52745 -0.54507,-0.95904 -0.54977,-0.9591 -0.005,0 -0.48187,1.0743 -1.06039,2.38745 -1.0448,2.37153 -1.53564,3.46108 -1.56198,3.46718 -0.008,0.002 -0.46187,-0.21277 -1.00957,-0.47672 z m 26.57172,-14.88079 c -0.15511,-0.0467 -0.31648,-0.34161 -0.38512,-0.70382 -0.0499,-0.26334 -0.15132,-0.44712 -0.3685,-0.66775 -0.1798,-0.18267 -0.37469,-0.31749 -0.66116,-0.45738 -0.17259,-0.0843 -0.19715,-0.0923 -0.20635,-0.0672 -0.10993,0.29991 -0.18163,0.43062 -0.36649,0.66808 -0.14737,0.18932 -0.48373,0.5251 -0.75427,0.75299 l -0.21701,0.18279 -6.39465,-3.4e-4 c -5.1038,-2.8e-4 -6.4146,-0.005 -6.49348,-0.0211 -0.26765,-0.0561 -0.40316,-0.25055 -0.40604,-0.58263 -0.001,-0.11932 0.005,-0.15134 0.043,-0.22855 0.13338,-0.27092 0.49239,-0.47608 1.11487,-0.6371 0.66594,-0.17227 1.66961,-0.29369 2.7671,-0.33475 1.05811,-0.0396 2.39475,-0.18845 2.87322,-0.31999 0.13166,-0.0362 0.31134,-0.11499 0.33945,-0.14887 0.01,-0.0114 0.12138,-0.31457 0.24861,-0.6736 1.18156,-3.33422 1.78903,-5.4897 1.87995,-6.67062 0.0172,-0.22343 0.0162,-0.27965 -0.008,-0.45297 -0.0482,-0.34367 -0.18113,-0.80588 -0.41132,-1.43053 -0.45805,-1.24301 -1.38513,-3.30423 -2.23213,-4.96283 -2.80957,-5.5017 -4.67683,-9.35145 -5.14449,-10.60643 -0.46743,-1.25433 -0.72575,-2.76938 -0.79356,-4.65423 l -0.0157,-0.4375 -0.12873,-0.20734 c -0.36767,-0.59221 -0.63564,-1.14108 -0.73988,-1.51547 l -0.037,-0.13272 -0.22934,-0.0758 c -0.55743,-0.18428 -1.14113,-0.50668 -1.77181,-0.97865 -0.21207,-0.1587 -0.59808,-0.47564 -0.78208,-0.64214 l -0.0883,-0.0799 0.11204,-0.12997 c 0.68016,-0.78899 1.31439,-1.2949 1.97184,-1.57292 0.12623,-0.0534 0.22253,-0.1075 0.29857,-0.16778 0.49603,-0.3933 1.12077,-0.7692 1.6645,-1.00152 0.76465,-0.3267 1.45928,-0.45082 2.38207,-0.42564 1.01222,0.0276 1.76398,0.13721 2.4406,0.35576 0.74878,0.24187 1.27757,0.55141 1.748,1.02326 0.33258,0.33358 0.51773,0.60225 0.81691,1.18545 0.59922,1.16805 0.91872,2.44582 0.99369,3.97408 0.009,0.19246 0.0189,0.35142 0.021,0.35325 0.002,0.002 0.16909,0.0859 0.37111,0.18676 0.87846,0.43868 1.62218,0.85589 2.20389,1.23634 1.02444,0.67 1.67074,1.39367 2.27084,2.54271 0.12356,0.23656 0.13082,0.24649 0.21413,0.29257 0.25452,0.1408 0.65066,0.42688 1.01675,0.73429 0.73849,0.6201 1.9,1.78787 2.98933,3.00543 1.1364,1.27018 2.8842,3.34452 3.50756,4.16289 1.58164,2.07642 3.19544,3.94915 4.93609,5.72809 0.42435,0.43368 0.45489,0.4691 0.62349,0.7231 0.28174,0.42447 0.47163,0.83448 0.54812,1.18351 0.0353,0.16114 0.0356,0.46193 5.5e-4,0.60712 -0.13003,0.53893 -0.71607,0.98098 -1.48942,1.12348 -0.166,0.0306 -0.25241,0.0358 -0.59421,0.0358 -0.41294,0 -0.61113,-0.02 -1.00877,-0.10153 l -0.14462,-0.0297 -0.1865,0.0713 c -0.10258,0.0392 -0.38118,0.1369 -0.61912,0.21707 -2.03221,0.68469 -4.36582,1.07983 -6.99865,1.18504 l -0.28089,0.0112 -0.0589,0.24672 c -0.0324,0.1357 -0.37642,1.58671 -0.76455,3.22447 l -0.7057,2.97775 0.31157,0.31175 c 0.67289,0.67328 1.07214,1.28516 1.30593,2.00141 0.0597,0.18292 0.0608,0.19088 0.044,0.31017 -0.009,0.0673 -0.0321,0.15711 -0.0503,0.19949 -0.0881,0.20528 -0.34806,0.35728 -0.52173,0.305 z m -4.36777,-2.39436 c 0.26214,-0.0691 0.46571,-0.19021 0.60407,-0.35934 0.10429,-0.12748 0.20924,-0.35278 0.26026,-0.5587 0.0234,-0.0943 0.39158,-1.4717 0.81827,-3.06095 0.56413,-2.10119 0.77524,-2.91112 0.77377,-2.96865 -0.001,-0.0435 -0.017,-0.12349 -0.0352,-0.17772 -0.15954,-0.4736 -0.83415,-0.89503 -2.03119,-1.26887 -0.10775,-0.0337 -0.21243,-0.0664 -0.23263,-0.0728 l -0.0367,-0.0117 v 0.47654 0.47655 l -1.22438,3.74484 c -0.67341,2.05967 -1.22438,3.7582 -1.22438,3.77452 0,0.0163 0.005,0.035 0.0118,0.0415 0.007,0.006 0.50054,0.009 1.09787,0.006 1.04711,-0.006 1.09079,-0.007 1.21849,-0.041 z m 3.66935,-6.2605 c 0.12051,-0.158 0.31979,-0.75208 0.37031,-1.10393 0.0246,-0.17159 0.0117,-0.55399 -0.0243,-0.71893 -0.0628,-0.28778 -0.20329,-0.62064 -0.36915,-0.87477 -0.14623,-0.22406 -0.2912,-0.39947 -0.53723,-0.65004 l -0.23753,-0.24191 0.15368,0.0759 c 0.72678,0.35903 1.6262,0.58932 2.67862,0.68584 0.38897,0.0357 1.25254,0.0493 1.64067,0.0258 1.49242,-0.0901 2.96521,-0.47341 4.49309,-1.16932 l 0.33783,-0.15387 0.11493,0.0712 c 0.39798,0.2465 0.74201,0.35025 1.09886,0.33138 0.20392,-0.0108 0.32484,-0.0399 0.49036,-0.11793 0.28001,-0.13206 0.46179,-0.43972 0.43997,-0.74463 -0.0298,-0.41666 -0.72756,-1.11737 -1.95508,-1.9634 -0.13917,-0.0959 -0.28242,-0.19485 -0.31834,-0.21986 -0.039,-0.0271 -0.23593,-0.262 -0.48889,-0.58301 -3.34927,-4.25036 -6.03479,-7.42265 -7.77092,-9.17945 -0.89136,-0.90197 -1.45945,-1.39781 -1.93062,-1.68508 -0.15378,-0.0938 -0.32511,-0.1733 -0.34039,-0.15802 -0.004,0.004 -0.0154,0.0534 -0.0244,0.10885 -0.0232,0.14423 -0.072,0.26342 -0.16396,0.40096 -0.19688,0.29439 -0.56053,0.52219 -1.11232,0.69684 -0.12338,0.0391 -0.22412,0.0747 -0.22386,0.0792 2.6e-4,0.004 0.0713,0.0522 0.15797,0.10612 0.22576,0.1404 0.66227,0.44345 0.91874,0.63782 1.1766,0.89178 1.69058,1.62399 1.56571,2.23051 -0.0353,0.17149 -0.12308,0.31817 -0.29184,0.48771 -0.16588,0.16666 -0.26431,0.23723 -0.58823,0.42177 -0.8095,0.46121 -1.49102,0.68709 -2.07309,0.68709 -0.25865,0 -0.42788,-0.0272 -0.63464,-0.10188 -0.12836,-0.0464 -0.18486,-0.084 -0.63073,-0.41965 -1.40202,-1.05548 -2.34542,-1.85968 -3.19192,-2.72095 -0.48417,-0.4926 -0.80291,-0.8744 -1.09848,-1.31576 -0.86591,-1.29304 -1.16283,-2.50837 -0.85068,-3.48185 0.16321,-0.50898 0.50996,-0.94118 1.02716,-1.2803 0.30889,-0.20255 0.89429,-0.47465 1.02117,-0.47465 0.0396,0 0.0481,0.007 0.0481,0.0384 0,0.066 -0.0902,0.1701 -0.49017,0.56567 -0.27478,0.27177 -0.42624,0.43573 -0.51942,0.56228 -0.37726,0.51243 -0.54614,1.02651 -0.52031,1.58388 0.0146,0.31588 0.0753,0.54257 0.23392,0.87398 0.26951,0.56313 0.70618,1.16658 1.4139,1.95391 0.28959,0.32217 1.1495,1.18407 1.40031,1.40357 0.86702,0.75875 1.59722,1.18055 2.30184,1.32968 0.20193,0.0427 0.60752,0.0512 0.78288,0.0164 0.3536,-0.0702 0.76443,-0.27318 0.99135,-0.48974 0.37189,-0.3549 0.31678,-0.73598 -0.17312,-1.19715 -0.16404,-0.15443 -0.35738,-0.29383 -0.89913,-0.64832 -0.5949,-0.38925 -0.93777,-0.65745 -1.27336,-0.99603 -0.40634,-0.40995 -0.57541,-0.73112 -0.5978,-1.13562 -0.0156,-0.2824 0.081,-0.32417 0.32027,-0.13848 0.30175,0.23416 0.38168,0.28426 0.60881,0.38158 0.28434,0.12184 0.80696,0.21926 1.08062,0.20144 0.341,-0.0222 0.55133,-0.21799 0.64525,-0.60065 0.0431,-0.1756 0.0596,-0.56043 0.0345,-0.80497 -0.0173,-0.16919 -0.0226,-0.18598 -0.11302,-0.35915 -0.76682,-1.46925 -2.20947,-2.44162 -4.34031,-2.92544 l -0.1986,-0.0451 -0.009,-0.16461 c -0.005,-0.0905 -0.0172,-0.30419 -0.0269,-0.47479 -0.10324,-1.82162 -0.51325,-3.33645 -1.17463,-4.33978 -0.20194,-0.30636 -0.3521,-0.49389 -0.59528,-0.74343 -0.3698,-0.37948 -0.71658,-0.63413 -1.15963,-0.85156 -0.3197,-0.15689 -0.51161,-0.22831 -0.83151,-0.30944 -0.42266,-0.10719 -0.6839,-0.13763 -1.18463,-0.13804 -0.3483,-2.8e-4 -0.46444,0.005 -0.59587,0.0293 -0.39992,0.0726 -0.70449,0.17066 -1.05162,0.33857 -0.32201,0.15575 -0.56689,0.30605 -0.85433,0.52435 l -0.12652,0.0961 v 0.41324 0.41325 l 0.0881,0.0585 c 0.36305,0.24106 0.66812,0.59734 0.76845,0.89749 0.0782,0.23394 0.074,0.41163 -0.0173,0.72824 -0.0217,0.0753 -0.0475,0.20517 -0.0574,0.28866 -0.044,0.37346 0.0922,0.78285 0.37266,1.11949 0.23776,0.28542 0.30455,0.37325 0.37066,0.48745 0.16832,0.29077 0.27764,0.63347 0.3463,1.08562 0.0175,0.11533 0.0288,0.38849 0.0383,0.93053 0.0108,0.61246 0.0204,0.82489 0.0477,1.0528 0.0853,0.71236 0.24115,1.39062 0.49323,2.14678 0.40957,1.22853 1.34281,3.13482 2.93314,5.99143 2.24626,4.03482 3.40422,6.31372 4.00986,7.89149 0.49132,1.27998 0.82498,2.57269 0.90003,3.48709 0.0398,0.48461 0.0835,0.68789 0.15747,0.73282 0.0822,0.0499 0.2013,-0.21804 0.34647,-0.77972 l 0.0585,-0.22647 v -0.9122 c 0,-0.50195 0.006,-0.9122 0.0141,-0.9122 0.008,0 0.15168,0.0515 0.31982,0.11444 1.96469,0.73543 3.16664,1.49001 3.6211,2.27331 0.16034,0.27637 0.19107,0.40345 0.20818,0.86094 0.008,0.20202 0.0219,0.41782 0.0318,0.47956 0.033,0.20462 0.0908,0.25668 0.16996,0.15295 z m -13.05812,-27.57866 c -0.37515,-0.049 -0.57783,-0.21442 -0.65288,-0.53272 -0.0136,-0.0577 -0.0242,-0.18173 -0.0244,-0.28456 -6.7e-4,-0.50142 0.1689,-0.80094 0.51378,-0.90755 0.14561,-0.045 0.43521,-0.0481 0.59424,-0.006 0.37544,0.0985 0.55633,0.36735 0.55633,0.82681 0,0.47874 -0.19984,0.76669 -0.60455,0.87109 -0.0992,0.0256 -0.30479,0.0435 -0.38255,0.0333 z m -2.45835,1.23375 c 0.30299,-0.2395 0.24268,-0.56415 -0.18051,-0.97168 -0.075,-0.0722 -0.17164,-0.15974 -0.21471,-0.19442 l -0.0783,-0.0631 -0.59101,0.13575 c -0.32506,0.0747 -0.60387,0.14027 -0.61959,0.1458 -0.0252,0.009 -0.0225,0.0174 0.0229,0.0725 0.16504,0.20022 0.58147,0.49764 0.95253,0.68031 0.19034,0.0937 0.57569,0.25644 0.6148,0.25964 0.006,4.9e-4 0.0482,-0.0287 0.0939,-0.0648 z m -1.50864,-1.34669 c 0.48485,-0.0862 0.89441,-0.16043 0.91012,-0.16501 0.0263,-0.008 0.0286,-0.0429 0.0286,-0.43929 v -0.43096 l -0.16733,0.0574 c -0.40217,0.13806 -0.90582,0.42993 -1.26111,0.73085 -0.17844,0.15112 -0.45545,0.42524 -0.41629,0.41196 0.0135,-0.005 0.42118,-0.0788 0.90604,-0.16499 z m 3.35883,-25.60152 0.004,-18.23102 0.0373,-0.17525 c 0.14138,-0.66471 0.44749,-1.22764 0.9256,-1.70214 0.61404,-0.6094 1.40613,-0.98998 2.3348,-1.12183 0.22218,-0.0315 0.84148,-0.0262 1.0448,0.009 0.87146,0.15097 1.65879,0.57304 2.29368,1.2296 0.55547,0.57444 0.8858,1.19502 1.03275,1.94016 l 0.0354,0.17958 0.005,12.01944 0.005,12.01943 -1.24491,-0.004 -1.2449,-0.004 -0.008,-12.01526 -0.008,-12.01525 -0.0366,-0.1354 c -0.0747,-0.27675 -0.18152,-0.47445 -0.35308,-0.65372 -0.29733,-0.3107 -0.74837,-0.46883 -1.17517,-0.412 -0.48754,0.0649 -0.87137,0.31791 -1.04688,0.69006 -0.0309,0.0656 -0.0693,0.16334 -0.0853,0.21721 -0.0278,0.0936 -0.0293,0.89395 -0.0332,18.24735 l -0.004,18.1494 h -1.2407 -1.2407 z m 18.63301,14.78452 c -0.0181,-5.6049 -0.0213,-5.92775 -0.0609,-6.16702 -0.14804,-0.89562 -0.71454,-1.88125 -1.71352,-2.98127 -0.25432,-0.28004 -0.87615,-0.8944 -1.17424,-1.16012 -0.97429,-0.86851 -1.88951,-1.57164 -3.44459,-2.64635 -0.18332,-0.12669 -0.18762,-0.13106 -0.18247,-0.18594 0.005,-0.0523 3.37047,-22.53896 3.39047,-22.6531 0.0106,-0.0605 0.0304,-0.0691 0.27175,-0.11847 0.46926,-0.096 0.7653,-0.12345 1.32798,-0.12319 0.49789,2.3e-4 0.6666,0.0136 1.05297,0.0834 1.2012,0.21708 2.121,0.8032 2.6901,1.71421 0.0985,0.15772 0.24689,0.44987 0.31205,0.61448 l 0.0467,0.11805 0.007,18.4574 0.007,18.45741 -0.70284,0.0104 c -0.38657,0.006 -0.95334,0.015 -1.25949,0.0207 l -0.55664,0.0102 z m 0.83271,-21.27211 0.0534,-11.59286 -0.0338,-0.0671 c -0.25787,-0.51182 -0.93603,-0.86557 -1.8048,-0.94145 -0.2372,-0.0207 -0.45004,-0.0136 -0.55754,0.0186 -0.0405,0.0121 -0.0945,0.0504 -0.14526,0.10287 l -0.0807,0.0835 -1.26111,8.79105 c -0.69362,4.83508 -1.31404,9.15926 -1.37872,9.60929 l -0.1176,0.81825 0.13165,0.0784 c 0.50046,0.29791 1.25772,0.79119 1.69886,1.10664 0.78985,0.56479 1.3978,1.07222 1.96791,1.64254 0.62893,0.62915 1.07535,1.20702 1.35763,1.75736 0.0564,0.10997 0.10575,0.19677 0.10964,0.19287 0.004,-0.004 0.0311,-5.22387 0.0605,-11.59994 z"
       id="path1004" />
  </g>
</svg>
