<?xml version="1.0" encoding="UTF-8" standalone="no"?>
<!-- Created with Inkscape (http://www.inkscape.org/) -->

<svg
   width="1080"
   height="1920"
   viewBox="0 0 285.75001 508"
   version="1.1"
   id="svg5"
   inkscape:export-filename="/Users/albertotomasoni/ALBERTO.png"
   inkscape:export-xdpi="96"
   inkscape:export-ydpi="96"
   inkscape:version="1.1.1 (c3084ef, 2021-09-22)"
   sodipodi:docname="Sveva.svg"
   xmlns:inkscape="http://www.inkscape.org/namespaces/inkscape"
   xmlns:sodipodi="http://sodipodi.sourceforge.net/DTD/sodipodi-0.dtd"
   xmlns="http://www.w3.org/2000/svg"
   xmlns:svg="http://www.w3.org/2000/svg">
  <sodipodi:namedview
     id="namedview7"
     pagecolor="#ffffff"
     bordercolor="#666666"
     borderopacity="1.0"
     inkscape:pageshadow="2"
     inkscape:pageopacity="0.0"
     inkscape:pagecheckerboard="0"
     inkscape:document-units="px"
     showgrid="false"
     units="px"
     inkscape:zoom="0.35697251"
     inkscape:cx="875.41755"
     inkscape:cy="439.80978"
     inkscape:window-width="1440"
     inkscape:window-height="900"
     inkscape:window-x="0"
     inkscape:window-y="0"
     inkscape:window-maximized="0"
     inkscape:current-layer="g2878" />
  <defs
     id="defs2" />
  <g
     inkscape:label="ALBERTO"
     inkscape:groupmode="layer"
     id="g2878">
    <g
       aria-label="sveva"
       transform="matrix(2.7839642,0,0,2.7839642,-1007.8208,-810.36416)"
       id="text2874"
       style="font-weight:500;font-size:19.0077px;line-height:1.25;font-family:'Helvetica Neue';-inkscape-font-specification:'Helvetica Neue Medium';text-align:center;text-anchor:middle;white-space:pre;inline-size:858.441;stroke-width:1.51181;stroke-linecap:round;paint-order:markers fill stroke;stop-color:#000000">
      <path
         d="m 398.46046,323.7 q 1.36855,0 2.20489,-0.77931 0.95038,-0.91237 0.95038,-2.49001 v -0.83634 q 0,-1.82474 -1.40657,-3.07925 -0.38015,-0.34213 -1.36855,-0.87435 -0.55122,-0.30412 -0.7413,-0.45618 -0.70328,-0.62726 -0.70328,-1.50161 v -0.32313 q 0,-0.68428 0.28511,-0.95039 0.2471,-0.22809 0.77932,-0.22809 0.55122,0 0.77931,0.22809 0.28512,0.2471 0.28512,0.95039 v 1.15947 h 2.09084 v -1.15947 q 0,-1.57764 -0.95038,-2.49001 -0.83634,-0.77932 -2.20489,-0.77932 -1.36856,0 -2.2049,0.77932 -0.95038,0.91237 -0.95038,2.49001 v 0.32313 q 0,0.89336 0.36114,1.67267 0.36115,0.77932 1.04543,1.38757 0.41817,0.36114 1.31153,0.83634 0.64626,0.36114 0.79832,0.4942 0.70329,0.64626 0.70329,1.52061 v 0.83634 q 0,0.70329 -0.28512,0.95039 -0.22809,0.22809 -0.77931,0.22809 -0.53222,0 -0.77932,-0.22809 -0.28511,-0.26611 -0.28511,-0.95039 v -1.7297 h -2.09085 v 1.7297 q 0,1.57764 0.95038,2.49001 0.83634,0.77931 2.2049,0.77931 z"
         style="font-weight:normal;font-family:Bison;-inkscape-font-specification:Bison"
         id="path912" />
      <path
         d="m 407.58148,310.24255 h 2.12886 l -2.66108,13.30539 h -2.09084 l -2.66108,-13.30539 h 2.12886 l 1.57764,8.99065 z"
         style="font-weight:normal;font-family:Bison;-inkscape-font-specification:Bison"
         id="path914" />
      <path
         d="m 412.77266,312.3334 v 3.34536 h 2.35695 v 2.09084 h -2.35695 v 3.6875 h 3.42139 v 2.09084 h -5.51224 v -13.30539 h 5.51224 v 2.09085 z"
         style="font-weight:normal;font-family:Bison;-inkscape-font-specification:Bison"
         id="path916" />
      <path
         d="m 422.2085,310.24255 h 2.12886 l -2.66108,13.30539 h -2.09084 l -2.66108,-13.30539 h 2.12886 l 1.57764,8.99065 z"
         style="font-weight:normal;font-family:Bison;-inkscape-font-specification:Bison"
         id="path918" />
      <path
         d="m 428.84575,321.43809 h -2.39497 l -0.38016,2.10985 h -2.12886 l 2.66108,-13.30539 h 2.09085 l 2.66108,13.30539 h -2.12887 z m -0.36115,-2.09085 -0.83634,-4.77093 -0.83633,4.77093 z"
         style="font-weight:normal;font-family:Bison;-inkscape-font-specification:Bison"
         id="path920" />
    </g>
    <path
       style="fill=currentColor;stroke-width:0.0163251"
       d="m 112.57565,375.51793 v -1.08561 l 11.65202,-0.002 c 11.52481,-0.002 11.65006,-0.002 11.47245,-0.0329 -1.03135,-0.17914 -1.46367,-0.26231 -2.16307,-0.41613 -7.3812,-1.62343 -13.31566,-5.01193 -16.92277,-9.6627 -0.58953,-0.76011 -1.15706,-1.61762 -1.63138,-2.46495 -0.17999,-0.32154 -0.53255,-1.02337 -0.68887,-1.37131 -0.96808,-2.1548 -1.51184,-4.38173 -1.6702,-6.84021 -0.0104,-0.16161 -0.0255,-0.2963 -0.0335,-0.29928 -0.0195,-0.007 -0.0195,-215.52638 -4e-5,-215.52638 0.008,0 0.0194,-0.0679 0.0253,-0.15101 0.0953,-1.34138 0.25224,-2.36665 0.53277,-3.48132 0.94755,-3.76505 3.04602,-7.04207 6.25242,-9.76392 4.4323,-3.76249 10.87447,-6.28349 18.22572,-7.13222 0.32017,-0.037 10.17684,-0.037 10.49702,0 5.49808,0.63478 10.54357,2.21735 14.58645,4.57521 2.81155,1.63972 5.10287,3.62436 6.81768,5.90518 1.59143,2.11671 2.67364,4.48371 3.2207,7.04427 0.19381,0.90713 0.30749,1.74716 0.38608,2.8528 0.006,0.0831 0.0173,0.15101 0.0253,0.15101 0.0195,0 0.0195,215.51911 0,215.52638 -0.008,0.003 -0.0232,0.13767 -0.0336,0.29928 -0.17664,2.74237 -0.84056,5.23077 -2.01667,7.55851 -1.29492,2.56291 -3.16736,4.82498 -5.61609,6.78475 -3.45195,2.76268 -7.99905,4.82481 -13.16618,5.97095 -0.7619,0.169 -1.32362,0.27731 -2.36713,0.45648 -0.0568,0.01 4.19319,0.0161 11.56223,0.0173 l 11.65202,0.002 v 1.08561 1.08562 h -30.29934 -30.29933 v -1.08562 z m 32.01347,-2.73369 c 1.24172,-0.0564 2.21654,-0.13237 3.26502,-0.25432 6.672,-0.77598 12.49854,-3.06085 16.61449,-6.51537 3.09599,-2.59846 5.1445,-5.80235 6.02707,-9.42641 0.24596,-1.00998 0.38062,-1.88156 0.47027,-3.04376 0.0277,-0.359 0.029,-5.09148 0.029,-107.92507 0,-86.77258 -0.004,-107.60479 -0.0207,-107.83529 -0.10152,-1.39909 -0.31601,-2.57779 -0.69184,-3.8019 -0.61505,-2.00328 -1.66091,-3.91554 -3.05904,-5.59318 -0.68243,-0.81885 -1.59664,-1.73375 -2.43192,-2.43375 -1.65022,-1.38294 -3.61809,-2.6012 -5.78201,-3.57951 -3.34341,-1.51155 -7.17198,-2.51653 -11.29402,-2.96462 -2.50209,-0.272 -5.20561,-0.32867 -7.77889,-0.16306 -7.38749,0.47543 -14.01571,2.74468 -18.53387,6.34528 -1.06017,0.84487 -2.06087,1.81763 -2.87595,2.79566 -1.39813,1.67764 -2.444,3.5899 -3.05905,5.59318 -0.37583,1.22411 -0.59032,2.40281 -0.69183,3.8019 -0.0167,0.2305 -0.0207,21.06271 -0.0207,107.83529 0,102.83359 0.001,107.56607 0.029,107.92507 0.0897,1.1622 0.22431,2.03378 0.47027,3.04376 1.02579,4.21218 3.6229,7.84582 7.60044,10.63378 4.20362,2.94645 9.81796,4.83988 16.05328,5.41395 0.88937,0.0819 1.81342,0.13521 2.95483,0.17049 0.34241,0.0106 2.3684,-0.006 2.72629,-0.0221 z m -5.26484,-19.53485 c -5.91702,-0.0476 -11.00577,-0.0889 -11.30832,-0.0917 l -0.5501,-0.005 0.21376,-0.1959 c 0.11757,-0.10775 0.42357,-0.41996 0.67999,-0.69382 0.83553,-0.89232 1.1384,-1.18875 1.46527,-1.43419 0.18783,-0.14103 0.42531,-0.27165 0.60224,-0.33123 0.14091,-0.0475 0.35861,-0.0507 0.94685,-0.0141 0.47907,0.0298 1.76047,0.0314 2.2447,0.003 0.77875,-0.046 1.45601,-0.10998 2.10533,-0.19905 0.37015,-0.0508 0.73508,-0.10812 0.74349,-0.11684 0.009,-0.009 0.19974,-0.62122 0.29914,-0.96017 0.64654,-2.20466 1.62387,-6.1758 1.87147,-7.60426 l 0.0263,-0.15187 -0.11757,-0.19912 c -0.46376,-0.78544 -0.90902,-1.48355 -2.07404,-3.25192 -1.61294,-2.44824 -2.24133,-3.4704 -3.02087,-4.91385 -0.21966,-0.40672 -0.70649,-1.38489 -0.86342,-1.7348 l -0.10444,-0.23287 -0.26937,-0.23221 c -0.32891,-0.28355 -0.91175,-0.85402 -1.1883,-1.16308 -1.42474,-1.59225 -2.26706,-3.33291 -2.50045,-5.16718 -0.0993,-0.78059 -0.0859,-1.26193 0.0889,-3.1831 0.0923,-1.01478 0.13867,-1.69113 0.13888,-2.02558 l 8e-5,-0.14004 -0.25712,-0.0705 c -0.40482,-0.11108 -1.04328,-0.32371 -1.84882,-0.61574 -0.87082,-0.31569 -1.12208,-0.40246 -1.48183,-0.51174 -1.44387,-0.43861 -2.56589,-0.48647 -3.81565,-0.16279 -0.13469,0.0349 -0.29232,0.0783 -0.35029,0.0965 -0.058,0.0182 -0.10751,0.031 -0.11008,0.0284 -0.003,-0.003 0.0878,-0.21334 0.20071,-0.46835 0.45004,-1.01607 0.69798,-1.42668 1.09457,-1.81274 0.4582,-0.44601 0.90882,-0.65453 1.70617,-0.78949 0.38657,-0.0655 0.76118,-0.0928 1.69527,-0.1237 1.0158,-0.0336 1.53102,-0.10812 2.08962,-0.30213 0.0943,-0.0327 0.2265,-0.085 0.29384,-0.1162 0.11396,-0.0527 0.14733,-0.0594 0.48159,-0.0955 0.19754,-0.0213 0.67137,-0.0757 1.05297,-0.12071 1.5457,-0.18243 2.14375,-0.22992 2.89798,-0.23009 0.9602,-1.6e-4 1.76086,0.11206 2.50114,0.35068 0.27157,0.0875 0.40732,0.17066 0.63643,0.38965 0.27635,0.26414 0.49152,0.57307 0.70663,1.01454 0.14689,0.30146 0.21553,0.47065 0.33567,0.8274 0.16899,0.50182 0.24588,0.85433 0.39072,1.79132 0.10185,0.65881 0.15445,0.95666 0.21241,1.20262 0.0482,0.20449 0.15185,0.53076 0.17705,0.55722 0.0103,0.0109 0.18044,0.0855 0.37797,0.16582 3.19953,1.30093 5.66138,2.83978 7.78926,4.86888 0.59224,0.56477 2.50985,2.77896 4.26817,4.92832 1.16237,1.42088 2.26802,2.81308 4.85532,6.11374 4.18013,5.33263 6.3162,7.90987 8.69609,10.49209 0.40824,0.44295 0.54134,0.59694 0.73092,0.84567 0.70782,0.92865 0.95309,1.68622 0.68321,2.11028 -0.14367,0.22574 -0.45144,0.37267 -0.88214,0.42112 l -0.16782,0.0189 -0.0551,0.17159 c -0.0711,0.2215 -0.24954,0.57482 -0.38955,0.7713 -0.13173,0.18486 -0.46618,0.52699 -0.65183,0.66678 -0.77142,0.58089 -1.76465,0.9367 -2.95197,1.05747 -0.31152,0.0317 -0.42427,0.0256 -0.95502,-0.052 -2.48922,-0.36374 -4.66099,-1.5367 -6.49984,-3.5105 -1.04072,-1.11709 -1.88013,-2.26437 -3.05485,-4.17525 -0.0527,-0.0857 -0.0599,-0.0919 -0.067,-0.0571 -0.0907,0.44506 -0.14586,0.62973 -0.25078,0.83885 -0.14049,0.28006 -0.37832,0.54147 -0.61508,0.6761 -0.276,0.15695 -0.66897,0.24865 -0.91553,0.21363 -0.60697,-0.0862 -1.16247,-0.39578 -1.93419,-1.07794 l -0.17109,-0.15122 -0.027,0.25134 c -0.059,0.54963 -0.15503,1.07478 -0.29968,1.63897 -0.16217,0.63255 -0.2964,1.03859 -0.78257,2.36714 l -0.20311,0.55505 0.29669,0.0103 c 0.69795,0.0242 1.55651,0.19858 2.47609,0.50286 1.83903,0.60852 3.06767,1.49306 3.43706,2.47446 0.0477,0.12663 0.0499,0.1557 0.0116,0.15283 -0.0157,-10e-4 -4.86977,-0.0411 -10.7868,-0.0888 z m 20.3085,-2.0233 c 0.94691,-0.1099 1.67946,-0.40574 2.17302,-0.87759 0.13078,-0.12503 0.36543,-0.40593 0.36543,-0.43747 0,-0.0163 -0.3744,-0.50649 -0.55319,-0.72428 -0.73487,-0.89517 -1.64557,-1.81426 -2.66292,-2.68747 -0.4394,-0.37714 -0.57879,-0.48443 -0.92252,-0.71008 -4.87459,-3.19994 -10.00465,-6.17017 -18.48793,-10.70425 -1.2193,-0.65168 -1.23192,-0.65821 -1.2145,-0.62977 0.0187,0.0306 0.43969,0.61802 1.16774,1.62953 2.06249,2.86555 2.95655,4.24645 3.78677,5.84876 0.10777,0.20798 0.19849,0.3807 0.20161,0.38382 0.006,0.006 0.39721,-0.25634 0.70723,-0.47343 0.16528,-0.11573 0.16803,-0.11692 0.19763,-0.0854 0.0165,0.0175 0.64034,0.76341 1.38631,1.65746 1.22991,1.47405 1.36227,1.62731 1.42044,1.64475 0.16029,0.048 0.27487,0.0105 0.36573,-0.1198 0.14768,-0.21175 0.16604,-0.79722 0.0524,-1.67025 -0.0598,-0.45952 -0.35076,-3.07581 -0.34576,-3.10937 0.005,-0.0321 1.42233,1.67833 1.72634,2.08293 0.39902,0.53109 0.76008,1.05142 1.7632,2.54102 1.41412,2.09992 2.09882,2.98378 3.03591,3.91888 0.52507,0.52395 0.96403,0.88843 1.50269,1.24768 0.36339,0.24236 0.56666,0.35998 0.93664,0.54197 0.71476,0.3516 1.46796,0.57915 2.28756,0.69111 0.50128,0.0685 0.78509,0.079 1.11021,0.0413 z m -18.94082,-1.33629 c 0.30246,-0.0784 0.60813,-0.25194 0.84856,-0.48165 0.62098,-0.59329 1.0689,-1.63938 1.39196,-3.25086 0.0297,-0.14815 0.0525,-0.27085 0.0507,-0.27265 -0.002,-0.002 -0.0581,0.0604 -0.12512,0.13814 -0.1761,0.20438 -0.49678,0.53302 -0.74817,0.76676 -0.31326,0.29126 -1.03182,0.9023 -1.06107,0.9023 -0.007,0 -0.0544,-0.19283 -0.10633,-0.42853 -0.28434,-1.29015 -0.52787,-2.15318 -0.77043,-2.73037 l -0.0274,-0.0653 -0.16747,0.62852 c -0.2016,0.75663 -0.33399,1.22426 -0.53783,1.89979 -0.16567,0.54903 -0.21663,0.74028 -0.26808,1.00607 -0.0639,0.33017 -0.0745,0.43498 -0.0745,0.73463 0,0.25651 0.005,0.32348 0.0358,0.44448 0.0931,0.37083 0.31119,0.60901 0.64686,0.70658 0.16509,0.048 0.24092,0.0555 0.49982,0.0494 0.20446,-0.005 0.28368,-0.0139 0.41266,-0.0473 z m 20.1787,-3.82055 c -0.0165,-0.0215 -0.21414,-0.2584 -0.43929,-0.52649 -0.6571,-0.78239 -1.28337,-1.55421 -2.9454,-3.62999 -2.44198,-3.04989 -3.17344,-3.9445 -6.73412,-8.236 -3.03858,-3.66227 -4.38581,-5.30311 -5.68324,-6.92184 -0.26284,-0.32792 -0.37658,-0.45473 -0.5788,-0.64526 -0.51113,-0.48161 -0.81423,-0.74744 -1.26383,-1.10846 -1.20765,-0.96971 -2.41123,-1.73255 -3.92618,-2.48846 -0.85752,-0.42787 -1.45287,-0.69347 -2.40795,-1.07429 -0.26937,-0.1074 -0.52433,-0.21742 -0.5666,-0.24448 -0.17516,-0.11217 -0.35179,-0.34972 -0.46034,-0.61912 -0.1427,-0.35412 -0.21086,-0.74138 -0.29579,-1.68045 -0.046,-0.50875 -0.0742,-0.72297 -0.12118,-0.92237 -0.0169,-0.0718 -0.0535,-0.24153 -0.0812,-0.37712 -0.24887,-1.21676 -0.67541,-1.85771 -1.41586,-2.12762 -0.15047,-0.0549 -0.39038,-0.10861 -0.55553,-0.12448 l -0.11725,-0.0113 -0.0101,0.0632 c -0.0867,0.54403 -0.23968,1.00682 -0.49521,1.49827 -0.42044,0.80859 -1.01991,1.47925 -1.63905,1.83368 -0.0827,0.0473 -0.1547,0.0861 -0.16004,0.0861 -0.01,0 -0.27738,-0.56455 -0.27702,-0.58474 1.6e-4,-0.006 0.0439,-0.0352 0.0974,-0.0645 0.64987,-0.35695 1.0767,-1.30064 1.03914,-2.29743 -0.01,-0.2567 -0.0399,-0.50025 -0.0651,-0.52551 -0.0175,-0.0175 -1.26877,0.14943 -2.33682,0.31167 l -0.1306,0.0199 0.13472,0.0203 c 0.31526,0.0476 0.56989,0.17696 0.78095,0.39667 0.12976,0.13507 0.16997,0.19004 0.16985,0.2322 -3.2e-4,0.12605 -0.10022,0.26587 -0.25092,0.35124 -0.27749,0.15721 -0.7759,0.20659 -1.15294,0.11424 -0.36934,-0.0905 -0.59483,-0.28786 -0.62978,-0.55133 -0.0105,-0.0791 -0.008,-0.0872 0.049,-0.15669 0.11036,-0.1347 0.34414,-0.28892 0.52273,-0.34485 0.0364,-0.0114 0.057,-0.0212 0.0458,-0.0218 -0.0856,-0.005 -1.27952,0.14838 -2.41198,0.30899 -0.9599,0.13613 -1.85752,0.26064 -1.89054,0.26223 -0.0107,4.9e-4 0.087,0.0304 0.21722,0.0664 0.515,0.14243 0.99286,0.31073 2.03093,0.71521 1.46394,0.57043 2.21086,0.78168 3.02142,0.85454 l 0.2283,0.0205 -0.005,0.13027 c -0.003,0.0717 -0.0261,0.5674 -0.0525,1.10164 -0.0754,1.52954 -0.0811,1.68017 -0.0919,2.42427 -0.0178,1.23383 0.0413,2.18998 0.19095,3.08544 0.34106,2.0413 1.18016,3.55294 2.59731,4.67903 0.31249,0.24832 1.18549,0.80737 1.21488,0.77798 0.004,-0.004 -0.0507,-0.12808 -0.12191,-0.27537 -0.26768,-0.55358 -0.43577,-1.11284 -0.51719,-1.72072 -0.0405,-0.30233 -0.0413,-0.92733 -0.002,-1.18357 0.1411,-0.90892 0.54983,-1.69022 1.26694,-2.42176 0.58819,-0.60003 1.23769,-1.05788 2.09896,-1.47963 0.68312,-0.33448 1.36615,-0.56225 1.74679,-0.58247 0.12807,-0.007 0.17001,-0.004 0.19463,0.0151 0.0309,0.0235 0.0309,0.0246 -6.9e-4,0.0791 -0.047,0.081 -0.23292,0.2238 -0.82457,0.6332 -0.8721,0.60349 -1.38602,1.00092 -1.82031,1.40777 -0.73995,0.6932 -1.13953,1.30216 -1.28967,1.96546 -0.0239,0.10572 -0.0291,0.1975 -0.0277,0.48928 0.006,1.2887 0.36761,2.43786 1.0792,3.43116 0.72446,1.01125 1.7927,1.88012 3.56585,2.90034 0.57343,0.32995 1.14551,0.64094 5.04928,2.745 5.00765,2.69902 7.23523,3.94885 9.71342,5.44991 2.45497,1.48697 4.94721,3.14885 6.668,4.44633 0.10708,0.0807 0.11048,0.0822 0.0715,0.0314 z m -18.83256,-1.42566 c 0.20233,-0.27829 0.26974,-0.3838 0.3408,-0.53344 0.13487,-0.28399 0.12812,-0.53892 -0.0202,-0.76078 -0.033,-0.0494 -0.19738,-0.32854 -0.36528,-0.62035 -2.18016,-3.78902 -4.20286,-6.77435 -6.3158,-9.32162 -0.30935,-0.37294 -0.9124,-1.07527 -1.00224,-1.16724 -0.0588,-0.0602 0.55168,1.01431 0.96459,1.69781 0.44346,0.73409 0.82692,1.33043 1.83704,2.85689 1.40663,2.12565 1.77125,2.69561 2.30807,3.60784 0.91226,1.55021 1.59681,3.01883 2.02177,4.33746 0.0251,0.0781 0.0507,0.13886 0.0567,0.13513 0.006,-0.004 0.0846,-0.10799 0.1745,-0.2317 z m 4.63694,-35.07406 c -0.16279,-0.0431 -0.32475,-0.33098 -0.39509,-0.70214 -0.0477,-0.2517 -0.14725,-0.43786 -0.34724,-0.64932 -0.16338,-0.17273 -0.35279,-0.30977 -0.60816,-0.43996 -0.29252,-0.14915 -0.2718,-0.14616 -0.30165,-0.0435 -0.11105,0.38199 -0.52443,0.88376 -1.16732,1.4169 l -0.15401,0.12773 -6.44132,-0.004 -6.44133,-0.004 -0.0918,-0.0371 c -0.17772,-0.0719 -0.27663,-0.21673 -0.31023,-0.45429 -0.0243,-0.17213 -0.001,-0.2836 0.0857,-0.41386 0.31759,-0.4756 1.57716,-0.78293 3.61392,-0.8818 1.62041,-0.0787 2.67773,-0.19818 3.17958,-0.35942 0.18279,-0.0587 0.26608,-0.11206 0.28734,-0.18399 0.009,-0.0291 0.13435,-0.38723 0.27941,-0.79576 0.91722,-2.5832 1.54607,-4.70776 1.73711,-5.86887 0.0677,-0.41139 0.0813,-0.54496 0.0821,-0.80809 8.6e-4,-0.2822 -0.0232,-0.42711 -0.13835,-0.83258 -0.33588,-1.18275 -1.39349,-3.62033 -2.57471,-5.93416 -0.68087,-1.33373 -1.93393,-3.82605 -2.63829,-5.24755 -1.38488,-2.79487 -2.16817,-4.4752 -2.46343,-5.28459 -0.46072,-1.26294 -0.71394,-2.76388 -0.77838,-4.61376 l -0.0152,-0.43699 -0.1285,-0.20785 c -0.36636,-0.59258 -0.61117,-1.08888 -0.72889,-1.47764 l -0.0544,-0.17975 -0.13364,-0.0386 c -0.67115,-0.19376 -1.49404,-0.68117 -2.31928,-1.37374 -0.13917,-0.11679 -0.28911,-0.24461 -0.33321,-0.28403 l -0.0802,-0.0717 0.15279,-0.17881 c 0.22826,-0.26712 0.68164,-0.71199 0.92176,-0.90446 0.35227,-0.28236 0.69847,-0.49455 1.02763,-0.62985 0.11153,-0.0458 0.20421,-0.10361 0.39181,-0.24421 1.08222,-0.81106 2.14305,-1.25092 3.20872,-1.33043 0.41159,-0.0307 1.10336,-0.0134 1.64067,0.0411 1.78399,0.18092 3.02714,0.80491 3.72293,1.86872 0.50301,0.76906 0.9227,1.80695 1.13337,2.80286 0.13578,0.64187 0.18779,1.07748 0.23849,1.99756 l 0.009,0.17225 0.37005,0.18421 c 1.2699,0.63213 2.27077,1.22935 2.85962,1.70634 0.61692,0.49972 1.16502,1.20202 1.61637,2.07107 l 0.12527,0.24121 0.14541,0.086 c 0.567,0.33519 1.19593,0.86184 2.11849,1.77393 0.78273,0.77385 1.51424,1.55985 2.4768,2.66135 0.99196,1.13513 2.40075,2.82633 2.89659,3.47724 1.54278,2.02529 3.2369,3.99054 4.88993,5.67251 0.32644,0.33217 0.47891,0.50007 0.55633,0.61265 0.58234,0.84689 0.77652,1.51322 0.59126,2.02884 -0.16674,0.46411 -0.69099,0.84453 -1.36274,0.98891 -0.45731,0.0983 -1.08441,0.0814 -1.687,-0.0453 l -0.14645,-0.0308 -0.26167,0.0978 c -2.09327,0.78258 -4.5773,1.24153 -7.41206,1.3695 -0.22447,0.0101 -0.41031,0.0205 -0.41298,0.023 -0.003,0.003 -0.34848,1.45439 -0.76847,3.22639 l -0.76362,3.22182 0.22835,0.22064 c 0.57348,0.55415 1.003,1.14029 1.24432,1.69807 0.0729,0.16859 0.18376,0.49003 0.19658,0.57018 0.0132,0.0823 -0.0214,0.25461 -0.0715,0.35703 -0.0928,0.18962 -0.32979,0.32193 -0.49709,0.27758 z m -4.57077,-2.36497 c 0.35327,-0.0388 0.64262,-0.18579 0.81364,-0.41328 0.12746,-0.16957 0.18153,-0.29927 0.27551,-0.66092 0.0481,-0.18526 0.41947,-1.571 0.82517,-3.07944 0.55944,-2.08004 0.73713,-2.76282 0.73555,-2.82624 -0.007,-0.2668 -0.21711,-0.55001 -0.59763,-0.80432 -0.38663,-0.25838 -0.8779,-0.46341 -1.71005,-0.71367 -0.0268,-0.008 -0.0286,0.0217 -0.0286,0.46713 v 0.47574 l -1.22438,3.74463 c -0.67341,2.05954 -1.22438,3.75844 -1.22438,3.77532 0,0.0169 0.005,0.0356 0.0109,0.0416 0.0184,0.0184 1.95142,0.0125 2.12426,-0.007 z m 3.87195,-6.30224 c 0.10596,-0.14628 0.30636,-0.74134 0.35398,-1.05111 0.0302,-0.19633 0.022,-0.57753 -0.0161,-0.75095 -0.12336,-0.5617 -0.42025,-1.05503 -0.95092,-1.58016 l -0.19455,-0.19252 0.22039,0.10497 c 0.74525,0.35496 1.65051,0.57551 2.72629,0.6642 0.34923,0.0288 1.12548,0.038 1.48558,0.0176 1.51228,-0.0856 2.93515,-0.45201 4.51624,-1.1631 l 0.3615,-0.16258 0.11193,0.0722 c 0.55611,0.35867 1.16927,0.43546 1.61371,0.20209 0.25875,-0.13586 0.43301,-0.44468 0.41252,-0.73107 -0.0306,-0.42806 -0.72262,-1.1164 -2.02888,-2.0182 l -0.31047,-0.21433 -0.416,-0.52771 c -5.2011,-6.59775 -8.58273,-10.34728 -9.90086,-10.97798 l -0.14693,-0.0703 -0.0107,0.0525 c -0.006,0.0288 -0.019,0.0925 -0.0291,0.14157 -0.0927,0.44955 -0.58307,0.83769 -1.33055,1.05312 -0.0803,0.0231 -0.14882,0.045 -0.15234,0.0485 -0.004,0.004 0.12458,0.0924 0.28469,0.19757 1.18555,0.77849 1.92511,1.45879 2.21768,2.03998 0.24223,0.4812 0.20227,0.86183 -0.12698,1.20967 -0.19725,0.20838 -0.53567,0.42202 -1.10578,0.69806 -0.91349,0.44231 -1.68759,0.55151 -2.24993,0.31741 -0.29475,-0.1227 -2.0094,-1.4719 -2.99042,-2.35306 -0.30597,-0.27482 -1.04145,-1.0103 -1.25155,-1.25155 -0.35474,-0.40731 -0.7099,-0.90261 -0.95407,-1.33049 -0.32142,-0.56325 -0.55098,-1.18458 -0.62427,-1.68965 -0.13099,-0.90264 0.0779,-1.63285 0.62601,-2.18849 0.25824,-0.26179 0.54976,-0.45903 0.99947,-0.67624 0.37762,-0.1824 0.55141,-0.23102 0.55141,-0.15427 0,0.0652 -0.10674,0.18978 -0.47456,0.55392 -0.39824,0.39424 -0.48929,0.49758 -0.6401,0.72646 -0.18631,0.28275 -0.31422,0.58618 -0.38194,0.90604 -0.037,0.17483 -0.0411,0.63639 -0.007,0.80809 0.15043,0.7616 0.86457,1.78927 2.18284,3.14118 1.11621,1.1447 1.99048,1.7833 2.808,2.0511 0.49574,0.1624 0.99889,0.17281 1.39927,0.029 0.39804,-0.14299 0.78517,-0.42492 0.89014,-0.64825 0.13247,-0.28182 0.0492,-0.55055 -0.27301,-0.88072 -0.18384,-0.18841 -0.37924,-0.33667 -0.81336,-0.61714 -0.95425,-0.6165 -1.49773,-1.08077 -1.80165,-1.53906 -0.14988,-0.22602 -0.24375,-0.51608 -0.24375,-0.75321 0,-0.25521 0.11511,-0.26933 0.38522,-0.0473 0.37447,0.30786 0.74993,0.45897 1.29816,0.52242 0.41101,0.0476 0.58647,0.01 0.75794,-0.16281 0.1754,-0.17667 0.24748,-0.39618 0.26312,-0.80136 0.005,-0.13955 0.002,-0.32141 -0.009,-0.42282 -0.0177,-0.17266 -0.0214,-0.18395 -0.12415,-0.38082 -0.74907,-1.43509 -2.22774,-2.43326 -4.28995,-2.89591 l -0.23784,-0.0534 -0.009,-0.16418 c -0.005,-0.0903 -0.0171,-0.30376 -0.0266,-0.47436 -0.0744,-1.33636 -0.32643,-2.55774 -0.71758,-3.47724 -0.29186,-0.68609 -0.64706,-1.21307 -1.14488,-1.69857 -0.68518,-0.66824 -1.43245,-1.02889 -2.4386,-1.17693 -0.28572,-0.042 -0.99089,-0.0422 -1.24071,-2.1e-4 -0.67616,0.11354 -1.34959,0.42041 -1.93044,0.87965 l -0.10203,0.0807 8.6e-4,0.4108 8.7e-4,0.4108 0.14911,0.10612 c 0.18885,0.13439 0.45602,0.39819 0.55512,0.54812 0.0923,0.13957 0.13576,0.23718 0.17704,0.39726 0.0429,0.1662 0.0397,0.30758 -0.0111,0.50137 -0.0844,0.32174 -0.0925,0.37154 -0.0924,0.56939 1.6e-4,0.23211 0.0346,0.3838 0.13538,0.5945 0.0869,0.1818 0.18257,0.32246 0.334,0.49112 0.33736,0.37576 0.51946,0.79382 0.61493,1.41175 0.0274,0.17739 0.035,0.33968 0.0461,0.97987 0.0164,0.94869 0.0552,1.3186 0.21315,2.03248 0.24638,1.11364 0.64568,2.13443 1.5198,3.88536 0.54775,1.0972 0.92898,1.81057 1.93235,3.61601 2.15193,3.87209 3.27195,6.0958 3.87411,7.69174 0.45086,1.19494 0.77369,2.47054 0.84424,3.33585 0.0135,0.1661 0.0321,0.34976 0.0412,0.40812 0.0391,0.25033 0.0967,0.37088 0.1591,0.33272 0.0748,-0.0457 0.20624,-0.38936 0.31275,-0.81744 l 0.0495,-0.19902 v -0.907 c 0,-0.60839 0.006,-0.90699 0.0167,-0.90699 0.0248,0 0.70501,0.25855 0.98727,0.37525 1.71079,0.70736 2.74853,1.46088 3.05422,2.21769 0.0774,0.19149 0.0908,0.27542 0.10501,0.65575 0.0192,0.51484 0.0518,0.68565 0.13059,0.68565 0.0189,0 0.0522,-0.0277 0.0808,-0.0672 z m -13.08643,-27.57205 c -0.34871,-0.0354 -0.56515,-0.2178 -0.63616,-0.53618 -0.0416,-0.18632 -0.0251,-0.53732 0.0334,-0.71183 0.0834,-0.24876 0.22904,-0.39822 0.45791,-0.4698 0.16456,-0.0515 0.45608,-0.0503 0.62886,0.002 0.35665,0.109 0.52183,0.36802 0.52183,0.81829 0,0.48413 -0.21699,0.78688 -0.62455,0.87138 -0.16309,0.0338 -0.24586,0.0394 -0.38129,0.0256 z m -2.33144,1.13105 c 0.11054,-0.14426 0.10926,-0.2972 -0.004,-0.51623 -0.0476,-0.0918 -0.10639,-0.16211 -0.28128,-0.33644 -0.12161,-0.12121 -0.24096,-0.23062 -0.26522,-0.24313 -0.0403,-0.0208 -0.0943,-0.0112 -0.62851,0.11129 -0.32143,0.0737 -0.59726,0.13771 -0.61297,0.1422 -0.10309,0.0295 0.43153,0.46847 0.83665,0.68702 0.17911,0.0966 0.36471,0.17988 0.59511,0.26695 l 0.16249,0.0614 0.0723,-0.0517 c 0.0398,-0.0284 0.0964,-0.0831 0.12573,-0.12138 z m -1.62079,-1.23656 c 0.47806,-0.0854 0.88574,-0.15903 0.90594,-0.16356 l 0.0367,-0.008 v -0.43168 -0.43168 l -0.18376,0.0634 c -0.36554,0.12605 -0.70063,0.30785 -1.05419,0.57195 -0.201,0.15014 -0.63327,0.55342 -0.59443,0.55456 0.0113,3.3e-4 0.41165,-0.0693 0.88971,-0.15473 z m 15.97144,-8.9234 c -0.006,-0.85638 -0.017,-2.9859 -0.0247,-4.73228 -0.0139,-3.13291 -0.0146,-3.17755 -0.0485,-3.34969 -0.21122,-1.07203 -0.95278,-2.21736 -2.28139,-3.52359 -0.98394,-0.96736 -2.16723,-1.9132 -3.84113,-3.07037 -0.23545,-0.16276 -0.37002,-0.2659 -0.37275,-0.28568 -0.005,-0.0359 3.3844,-22.66381 3.39657,-22.67597 0.0313,-0.0313 0.51148,-0.12339 0.85223,-0.16344 0.34428,-0.0405 1.10137,-0.0406 1.42028,-3.1e-4 1.08673,0.1374 1.90839,0.50501 2.53957,1.13619 0.34759,0.3476 0.62055,0.76195 0.80186,1.21723 l 0.0585,0.14693 0.007,18.40842 0.007,18.40841 -0.82534,0.0104 c -0.45394,0.006 -1.01729,0.015 -1.25188,0.0206 l -0.42653,0.0102 z m 0.82385,-23.54277 0.0509,-11.12955 -0.0594,-0.10622 c -0.26925,-0.48146 -0.91437,-0.81051 -1.74741,-0.89129 -0.24327,-0.0236 -0.51513,-0.0124 -0.60403,0.0248 -0.0885,0.0371 -0.18532,0.13485 -0.20285,0.2049 -0.008,0.0317 -0.63019,4.35076 -1.38283,9.59801 -1.17607,8.1993 -1.36505,9.54252 -1.34431,9.55514 1.01233,0.6161 1.56529,0.98576 2.27095,1.51811 1.39576,1.05297 2.45668,2.20559 2.90904,3.16046 l 0.0518,0.10942 0.004,-0.4571 c 0.002,-0.25141 0.0265,-5.4654 0.0545,-11.58665 z m 0.93222,-18.64082 c -0.15511,-0.0467 -0.31648,-0.34161 -0.38512,-0.70382 -0.0499,-0.26335 -0.15132,-0.44712 -0.3685,-0.66776 -0.1798,-0.18266 -0.37469,-0.31748 -0.66116,-0.45737 -0.17259,-0.0843 -0.19715,-0.0923 -0.20635,-0.0672 -0.10993,0.29991 -0.18163,0.43061 -0.36649,0.66808 -0.14737,0.18931 -0.48373,0.52509 -0.75427,0.75299 l -0.21701,0.18279 -6.39465,-3.4e-4 c -5.1038,-2.8e-4 -6.4146,-0.005 -6.49348,-0.0211 -0.26765,-0.0561 -0.40316,-0.25055 -0.40604,-0.58262 -0.001,-0.11932 0.005,-0.15135 0.043,-0.22855 0.13338,-0.27092 0.49239,-0.47608 1.11487,-0.63711 0.66594,-0.17226 1.66961,-0.29368 2.7671,-0.33475 1.05811,-0.0396 2.39475,-0.18845 2.87322,-0.31998 0.13166,-0.0362 0.31134,-0.115 0.33945,-0.14887 0.01,-0.0114 0.12138,-0.31458 0.24861,-0.67361 1.18156,-3.33421 1.78903,-5.48969 1.87995,-6.67062 0.0172,-0.22343 0.0162,-0.27964 -0.008,-0.45297 -0.0482,-0.34366 -0.18113,-0.80587 -0.41132,-1.43053 -0.45805,-1.24301 -1.38513,-3.30423 -2.23213,-4.96282 -2.80957,-5.50171 -4.67683,-9.35145 -5.14449,-10.60643 -0.46743,-1.25434 -0.72575,-2.76939 -0.79356,-4.65424 l -0.0157,-0.4375 -0.12873,-0.20734 c -0.36767,-0.59221 -0.63564,-1.14108 -0.73988,-1.51547 l -0.037,-0.13272 -0.22934,-0.0758 c -0.55743,-0.18428 -1.14113,-0.50668 -1.77181,-0.97865 -0.21207,-0.1587 -0.59808,-0.47564 -0.78208,-0.64214 l -0.0883,-0.0799 0.11204,-0.12997 c 0.68016,-0.78899 1.31439,-1.2949 1.97184,-1.57292 0.12623,-0.0534 0.22253,-0.1075 0.29857,-0.16778 0.49603,-0.3933 1.12077,-0.7692 1.6645,-1.00152 0.76465,-0.3267 1.45928,-0.45082 2.38207,-0.42564 1.01222,0.0276 1.76398,0.13721 2.4406,0.35577 0.74878,0.24186 1.27757,0.5514 1.748,1.02325 0.33258,0.33358 0.51773,0.60225 0.81691,1.18545 0.59922,1.16805 0.91872,2.44582 0.99369,3.97408 0.009,0.19246 0.0189,0.35142 0.021,0.35325 0.002,0.002 0.16909,0.0859 0.37111,0.18676 0.87846,0.43868 1.62218,0.85589 2.20389,1.23634 1.02444,0.67 1.67074,1.39367 2.27084,2.54271 0.12356,0.23656 0.13082,0.24649 0.21413,0.29257 0.25452,0.1408 0.65066,0.42688 1.01675,0.73429 0.73849,0.6201 1.9,1.78787 2.98933,3.00543 1.1364,1.27018 2.8842,3.34453 3.50756,4.1629 1.58164,2.07641 3.19544,3.94914 4.93609,5.72808 0.42435,0.43368 0.45489,0.46911 0.62349,0.72311 0.28174,0.42446 0.47163,0.83447 0.54812,1.1835 0.0353,0.16114 0.0356,0.46193 5.5e-4,0.60712 -0.13003,0.53893 -0.71607,0.98098 -1.48942,1.12349 -0.166,0.0306 -0.25241,0.0358 -0.59421,0.0358 -0.41294,0 -0.61113,-0.02 -1.00877,-0.10153 l -0.14462,-0.0297 -0.1865,0.0713 c -0.10258,0.0392 -0.38118,0.13691 -0.61912,0.21707 -2.03221,0.6847 -4.36582,1.07983 -6.99865,1.18505 l -0.28089,0.0112 -0.0589,0.24673 c -0.0324,0.1357 -0.37642,1.58671 -0.76455,3.22447 l -0.7057,2.97774 0.31157,0.31176 c 0.67289,0.67328 1.07214,1.28515 1.30593,2.0014 0.0597,0.18292 0.0608,0.19089 0.044,0.31018 -0.009,0.0673 -0.0321,0.15711 -0.0503,0.19949 -0.0881,0.20528 -0.34806,0.35727 -0.52173,0.30499 z m -4.36777,-2.39436 c 0.26214,-0.0691 0.46571,-0.19022 0.60407,-0.35935 0.10429,-0.12747 0.20924,-0.35277 0.26026,-0.55869 0.0234,-0.0943 0.39158,-1.4717 0.81827,-3.06095 0.56413,-2.1012 0.77524,-2.91112 0.77377,-2.96865 -0.001,-0.0435 -0.017,-0.12349 -0.0352,-0.17773 -0.15954,-0.4736 -0.83415,-0.89502 -2.03119,-1.26887 -0.10775,-0.0336 -0.21243,-0.0664 -0.23263,-0.0729 l -0.0367,-0.0117 v 0.47655 0.47654 l -1.22438,3.74485 c -0.67341,2.05967 -1.22438,3.7582 -1.22438,3.77452 0,0.0163 0.005,0.035 0.0118,0.0415 0.007,0.006 0.50054,0.009 1.09787,0.006 1.04711,-0.006 1.09079,-0.007 1.21849,-0.041 z m 3.66935,-6.26051 c 0.12051,-0.15799 0.31979,-0.75208 0.37031,-1.10392 0.0246,-0.1716 0.0117,-0.55399 -0.0243,-0.71893 -0.0628,-0.28778 -0.20329,-0.62065 -0.36915,-0.87478 -0.14623,-0.22405 -0.2912,-0.39946 -0.53723,-0.65003 l -0.23753,-0.24191 0.15368,0.0759 c 0.72678,0.35903 1.6262,0.58932 2.67862,0.68584 0.38897,0.0357 1.25254,0.0493 1.64067,0.0258 1.49242,-0.0901 2.96521,-0.47341 4.49309,-1.16931 l 0.33783,-0.15388 0.11493,0.0712 c 0.39798,0.2465 0.74201,0.35024 1.09886,0.33137 0.20392,-0.0108 0.32484,-0.0399 0.49036,-0.11793 0.28001,-0.13206 0.46179,-0.43971 0.43997,-0.74463 -0.0298,-0.41665 -0.72756,-1.11737 -1.95508,-1.9634 -0.13917,-0.0959 -0.28242,-0.19485 -0.31834,-0.21985 -0.039,-0.0272 -0.23593,-0.262 -0.48889,-0.58302 -3.34927,-4.25036 -6.03479,-7.42265 -7.77092,-9.17944 -0.89136,-0.90198 -1.45945,-1.39782 -1.93062,-1.68509 -0.15378,-0.0938 -0.32511,-0.1733 -0.34039,-0.15802 -0.004,0.004 -0.0154,0.0535 -0.0244,0.10885 -0.0232,0.14423 -0.072,0.26343 -0.16396,0.40096 -0.19689,0.29439 -0.56053,0.5222 -1.11232,0.69684 -0.12338,0.0391 -0.22412,0.0747 -0.22386,0.0792 2.6e-4,0.004 0.0713,0.0522 0.15797,0.10611 0.22576,0.1404 0.66227,0.44345 0.91873,0.63783 1.17661,0.89177 1.69059,1.62398 1.56572,2.2305 -0.0353,0.17149 -0.12308,0.31818 -0.29184,0.48771 -0.16589,0.16666 -0.26431,0.23723 -0.58823,0.42178 -0.8095,0.46121 -1.49103,0.68709 -2.0731,0.68709 -0.25865,0 -0.42787,-0.0272 -0.63464,-0.10189 -0.12835,-0.0464 -0.18486,-0.084 -0.63073,-0.41965 -1.40202,-1.05548 -2.34542,-1.85968 -3.19192,-2.72094 -0.48416,-0.49261 -0.80291,-0.8744 -1.09848,-1.31577 -0.8659,-1.29303 -1.16282,-2.50837 -0.85067,-3.48185 0.16321,-0.50897 0.50995,-0.94117 1.02715,-1.2803 0.3089,-0.20255 0.8943,-0.47465 1.02117,-0.47465 0.0396,0 0.0481,0.007 0.0481,0.0384 0,0.066 -0.0902,0.1701 -0.49017,0.56566 -0.27478,0.27177 -0.42624,0.43573 -0.51942,0.56228 -0.37726,0.51243 -0.54614,1.02652 -0.52031,1.58388 0.0146,0.31589 0.0753,0.54257 0.23393,0.87398 0.2695,0.56313 0.70617,1.16658 1.4139,1.95392 0.28958,0.32216 1.1495,1.18406 1.40031,1.40356 0.86701,0.75875 1.59721,1.18056 2.30183,1.32968 0.20193,0.0427 0.60752,0.0512 0.78289,0.0164 0.35359,-0.0702 0.76443,-0.27318 0.99135,-0.48973 0.37188,-0.35491 0.31678,-0.73599 -0.17313,-1.19716 -0.16404,-0.15443 -0.35737,-0.29383 -0.89913,-0.64831 -0.5949,-0.38926 -0.93777,-0.65746 -1.27336,-0.99603 -0.40634,-0.40996 -0.57541,-0.73113 -0.5978,-1.13563 -0.0156,-0.28239 0.081,-0.32417 0.32027,-0.13848 0.30175,0.23416 0.38168,0.28426 0.60881,0.38159 0.28434,0.12183 0.80696,0.21926 1.08062,0.20143 0.34101,-0.0222 0.55134,-0.21799 0.64525,-0.60065 0.0431,-0.1756 0.0596,-0.56043 0.0345,-0.80497 -0.0173,-0.16918 -0.0226,-0.18597 -0.11302,-0.35915 -0.76682,-1.46925 -2.20948,-2.44162 -4.34031,-2.92544 l -0.1986,-0.0451 -0.009,-0.16462 c -0.005,-0.0905 -0.0172,-0.30419 -0.0269,-0.47479 -0.10323,-1.82162 -0.51324,-3.33645 -1.17462,-4.33978 -0.20195,-0.30636 -0.3521,-0.49389 -0.59528,-0.74343 -0.3698,-0.37948 -0.71659,-0.63413 -1.15963,-0.85156 -0.3197,-0.15689 -0.51162,-0.22831 -0.83152,-0.30944 -0.42266,-0.10718 -0.6839,-0.13763 -1.18462,-0.13804 -0.3483,-2.8e-4 -0.46445,0.005 -0.59587,0.0293 -0.39992,0.0726 -0.7045,0.17066 -1.05162,0.33857 -0.32202,0.15575 -0.56689,0.30605 -0.85433,0.52435 l -0.12653,0.0961 v 0.41325 0.41324 l 0.0881,0.0585 c 0.36305,0.24106 0.66812,0.59734 0.76846,0.89749 0.0782,0.23395 0.074,0.41163 -0.0173,0.72824 -0.0217,0.0753 -0.0475,0.20518 -0.0574,0.28866 -0.044,0.37347 0.0922,0.78285 0.37266,1.11949 0.23776,0.28543 0.30455,0.37325 0.37066,0.48745 0.16832,0.29077 0.27764,0.63347 0.3463,1.08562 0.0175,0.11533 0.0288,0.3885 0.0383,0.93053 0.0108,0.61246 0.0204,0.82489 0.0477,1.0528 0.0853,0.71236 0.24115,1.39063 0.49324,2.14679 0.40957,1.22853 1.3428,3.13481 2.93313,5.99143 2.24626,4.03482 3.40422,6.31372 4.00986,7.89149 0.49132,1.27998 0.82498,2.57269 0.90004,3.48709 0.0398,0.4846 0.0835,0.68788 0.15747,0.73281 0.0822,0.0499 0.2013,-0.21804 0.34647,-0.77971 l 0.0585,-0.22647 v -0.9122 c 0,-0.50195 0.006,-0.91221 0.0141,-0.91221 0.008,0 0.15168,0.0515 0.31982,0.11444 1.9647,0.73543 3.16665,1.49001 3.62111,2.27332 0.16034,0.27637 0.19107,0.40344 0.20818,0.86093 0.008,0.20203 0.0219,0.41783 0.0318,0.47956 0.033,0.20463 0.0908,0.25669 0.16996,0.15295 z m -13.05812,-27.57866 c -0.37515,-0.049 -0.57783,-0.21442 -0.65288,-0.53272 -0.0136,-0.0577 -0.0242,-0.18173 -0.0244,-0.28456 -6.7e-4,-0.50142 0.1689,-0.80094 0.51378,-0.90755 0.14561,-0.045 0.43521,-0.0481 0.59424,-0.006 0.37544,0.0985 0.55633,0.36735 0.55633,0.82681 0,0.47874 -0.19984,0.76669 -0.60455,0.87109 -0.0992,0.0256 -0.30479,0.0435 -0.38255,0.0333 z m -2.45835,1.23375 c 0.30299,-0.2395 0.24268,-0.56415 -0.18051,-0.97168 -0.075,-0.0722 -0.17164,-0.15974 -0.21471,-0.19442 l -0.0783,-0.0631 -0.59101,0.13575 c -0.32506,0.0747 -0.60387,0.14027 -0.61959,0.1458 -0.0252,0.009 -0.0225,0.0174 0.0229,0.0725 0.16504,0.20022 0.58147,0.49764 0.95253,0.68031 0.19034,0.0937 0.57569,0.25644 0.6148,0.25964 0.006,4.9e-4 0.0482,-0.0287 0.0939,-0.0648 z m -1.50864,-1.34669 c 0.48485,-0.0862 0.89441,-0.16043 0.91012,-0.16501 0.0263,-0.008 0.0286,-0.0429 0.0286,-0.43929 v -0.43096 l -0.16733,0.0574 c -0.40217,0.13806 -0.90582,0.42994 -1.26111,0.73085 -0.17844,0.15112 -0.45545,0.42525 -0.41629,0.41196 0.0135,-0.005 0.42118,-0.0788 0.90604,-0.16499 z m 10.06922,-25.55254 c 0.005,-17.03142 0.007,-18.19187 0.0328,-18.33715 0.16062,-0.89708 0.61321,-1.61814 1.36852,-2.18025 0.92682,-0.68976 2.20623,-0.95676 3.28017,-0.68453 1.14303,0.28974 2.17677,1.12325 2.69251,2.17097 0.17128,0.34796 0.27305,0.6711 0.32905,1.0448 0.0183,0.12225 0.022,2.15817 0.022,12.12137 v 11.97445 l -1.24479,0.004 -1.24479,0.004 V 154.3908 c 0,-10.41354 -0.003,-11.96482 -0.024,-12.0929 -0.0954,-0.58618 -0.45247,-1.00103 -0.99755,-1.15899 -0.26449,-0.0767 -0.54622,-0.0702 -0.82908,0.019 -0.44656,0.14084 -0.74299,0.43159 -0.85433,0.83796 -0.0278,0.10142 -0.0293,0.90889 -0.0334,18.25552 l -0.004,18.1494 h -1.24895 -1.24895 l 0.005,-18.18205 z"
       id="path1226" />
  </g>
</svg>
