<?xml version="1.0" encoding="UTF-8" standalone="no"?>
<!-- Created with Inkscape (http://www.inkscape.org/) -->

<svg
   width="1080"
   height="1920"
   viewBox="0 0 285.75001 508"
   version="1.1"
   id="svg5"
   inkscape:export-filename="/Users/albertotomasoni/ALBERTO.png"
   inkscape:export-xdpi="96"
   inkscape:export-ydpi="96"
   inkscape:version="1.1.1 (c3084ef, 2021-09-22)"
   sodipodi:docname="vittorio.svg"
   xmlns:inkscape="http://www.inkscape.org/namespaces/inkscape"
   xmlns:sodipodi="http://sodipodi.sourceforge.net/DTD/sodipodi-0.dtd"
   xmlns="http://www.w3.org/2000/svg"
   xmlns:svg="http://www.w3.org/2000/svg">
  <sodipodi:namedview
     id="namedview7"
     pagecolor="#ffffff"
     bordercolor="#666666"
     borderopacity="1.0"
     inkscape:pageshadow="2"
     inkscape:pageopacity="0.0"
     inkscape:pagecheckerboard="0"
     inkscape:document-units="px"
     showgrid="false"
     units="px"
     inkscape:zoom="0.47034524"
     inkscape:cx="551.72239"
     inkscape:cy="790.9084"
     inkscape:window-width="1440"
     inkscape:window-height="900"
     inkscape:window-x="0"
     inkscape:window-y="0"
     inkscape:window-maximized="0"
     inkscape:current-layer="g2878" />
  <defs
     id="defs2" />
  <g
     inkscape:label="VITTORIO"
     inkscape:groupmode="layer"
     id="g2878">
    <text
       xml:space="preserve"
       style="font-weight:500;font-size:19.0077px;line-height:1.25;font-family:'Helvetica Neue';-inkscape-font-specification:'Helvetica Neue Medium';text-align:center;text-decoration-color:#000000;text-anchor:middle;white-space:pre;inline-size:858.441;fill=currentColor;stroke-width:1.51181;stroke-linecap:round;paint-order:markers fill stroke;stop-color:#000000"
       x="413.24438"
       y="323.54794"
       id="text2874"
       transform="matrix(2.7839642,0,0,2.7839642,-1007.0387,-810.36416)"><tspan
         x="413.24438"
         y="323.54794"
         id="tspan1374"><tspan
           style="font-weight:normal;font-family:Bison;-inkscape-font-specification:Bison"
           id="tspan1372">VITTORIO</tspan></tspan></text>
    <path
       style="fill=currentColor;stroke-width:0.0163251"
       d="m 112.57565,352.64649 v -1.08562 l 11.65202,-0.002 c 11.52481,-0.002 11.65006,-0.002 11.47245,-0.0329 -1.03135,-0.17913 -1.46367,-0.26231 -2.16307,-0.41612 -7.3812,-1.62344 -13.31566,-5.01193 -16.92277,-9.6627 -0.58953,-0.76011 -1.15706,-1.61762 -1.63138,-2.46496 -0.17999,-0.32154 -0.53255,-1.02337 -0.68887,-1.3713 -0.96808,-2.1548 -1.51184,-4.38174 -1.6702,-6.84021 -0.0104,-0.16162 -0.0255,-0.2963 -0.0335,-0.29929 -0.0195,-0.007 -0.0195,-192.65493 -4e-5,-192.65493 0.008,0 0.0194,-0.0679 0.0253,-0.15101 0.0953,-1.34139 0.25224,-2.36665 0.53277,-3.48132 0.94755,-3.76505 3.04602,-7.04207 6.25242,-9.76392 4.4323,-3.76249 10.87447,-6.28349 18.22572,-7.13222 0.32017,-0.037 10.17684,-0.037 10.49702,0 5.49808,0.63478 10.54357,2.21735 14.58645,4.57521 2.81155,1.63972 5.10287,3.62436 6.81768,5.90518 1.59143,2.11671 2.67364,4.4837 3.2207,7.04427 0.19381,0.90713 0.30749,1.74716 0.38608,2.8528 0.006,0.0831 0.0173,0.15101 0.0253,0.15101 0.0195,0 0.0195,192.64767 0,192.65493 -0.008,0.003 -0.0231,0.13767 -0.0336,0.29929 -0.17664,2.74237 -0.84056,5.23077 -2.01667,7.55851 -1.29492,2.56291 -3.16736,4.82497 -5.61609,6.78475 -3.45195,2.76268 -7.99905,4.82481 -13.16618,5.97094 -0.7619,0.169 -1.32362,0.27732 -2.36713,0.45649 -0.0568,0.01 4.19319,0.0161 11.56223,0.0173 l 11.65202,0.002 v 1.08562 1.08562 h -30.29934 -30.29933 v -1.08562 z m 32.01347,-2.7337 c 1.24172,-0.0564 2.21654,-0.13236 3.26502,-0.25431 6.672,-0.77598 12.49854,-3.06085 16.61449,-6.51537 3.09599,-2.59846 5.1445,-5.80236 6.02707,-9.42641 0.24596,-1.00998 0.38062,-1.88156 0.47027,-3.04376 0.0277,-0.35896 0.029,-4.6062 0.029,-96.48935 0,-77.52897 -0.004,-96.16912 -0.0207,-96.39957 -0.10152,-1.39909 -0.31601,-2.57779 -0.69184,-3.8019 -0.61505,-2.00328 -1.66091,-3.91554 -3.05904,-5.59318 -0.68243,-0.81886 -1.59664,-1.73375 -2.43192,-2.43375 -1.65022,-1.38294 -3.61809,-2.6012 -5.78201,-3.57951 -3.34341,-1.51155 -7.17198,-2.51653 -11.29402,-2.96462 -2.50209,-0.272 -5.20561,-0.32867 -7.77889,-0.16306 -7.38749,0.47543 -14.01571,2.74468 -18.53387,6.34528 -1.06017,0.84487 -2.06087,1.81763 -2.87595,2.79566 -1.39813,1.67764 -2.444,3.5899 -3.05905,5.59318 -0.37583,1.22411 -0.59032,2.40281 -0.69183,3.8019 -0.0167,0.23045 -0.0207,18.8706 -0.0207,96.39957 0,91.88315 0.001,96.13039 0.029,96.48935 0.0897,1.1622 0.22431,2.03378 0.47027,3.04376 1.02579,4.21218 3.6229,7.84582 7.60044,10.63378 4.20362,2.94645 9.81796,4.83988 16.05328,5.41395 0.88937,0.0819 1.81342,0.1352 2.95483,0.17048 0.34241,0.0106 2.3684,-0.006 2.72629,-0.0221 z m 2.04812,-19.47363 c -0.1514,-0.071 -0.2852,-0.32834 -0.35749,-0.68759 -0.0554,-0.27514 -0.1592,-0.46293 -0.37562,-0.67929 -0.17282,-0.17278 -0.36154,-0.30249 -0.64543,-0.44357 l -0.20431,-0.10154 -0.0344,0.10154 c -0.13598,0.40194 -0.50301,0.85067 -1.12512,1.37559 l -0.183,0.1544 h -6.41449 c -5.73003,0 -6.42488,-0.003 -6.5118,-0.0252 -0.24956,-0.0646 -0.36852,-0.24433 -0.37238,-0.56249 -0.002,-0.14118 0.002,-0.16366 0.0462,-0.25066 0.26735,-0.53127 1.55593,-0.85708 3.78774,-0.95771 1.34053,-0.0604 2.54872,-0.19828 3.02496,-0.34514 0.12249,-0.0378 0.249,-0.0977 0.27679,-0.13122 0.0355,-0.0428 0.62222,-1.71899 0.94939,-2.71235 0.72589,-2.20398 1.10885,-3.7076 1.17991,-4.63273 0.0172,-0.22321 0.0161,-0.27978 -0.008,-0.45258 -0.0829,-0.59079 -0.45003,-1.62959 -1.10858,-3.1369 -0.45346,-1.03788 -1.03263,-2.26915 -1.4744,-3.13441 -2.67302,-5.23545 -4.55775,-9.09903 -5.10371,-10.46228 -0.53984,-1.34796 -0.82217,-2.90007 -0.8948,-4.91906 l -0.0157,-0.43573 -0.12133,-0.19551 c -0.32078,-0.51692 -0.58695,-1.04298 -0.70325,-1.38995 -0.0406,-0.12121 -0.074,-0.23193 -0.0741,-0.24605 -1.6e-4,-0.0181 -0.0441,-0.0388 -0.15028,-0.0706 -0.55642,-0.16657 -1.19814,-0.51336 -1.84159,-0.99521 -0.23673,-0.17728 -0.63387,-0.50342 -0.78949,-0.64837 l -0.0957,-0.0891 0.18511,-0.21198 c 0.63923,-0.73197 1.31995,-1.26005 1.94337,-1.50762 0.0836,-0.0332 0.17569,-0.0892 0.27779,-0.16877 0.70361,-0.54869 1.53662,-0.99316 2.25514,-1.20326 0.53476,-0.15638 0.86351,-0.19845 1.55389,-0.19885 1.01059,-6.6e-4 1.76443,0.0915 2.50579,0.30612 0.78636,0.22764 1.40638,0.57607 1.89537,1.0651 0.33463,0.33465 0.57203,0.68957 0.88007,1.31574 0.55701,1.13224 0.86187,2.3943 0.93028,3.85111 0.009,0.18768 0.018,0.34296 0.0203,0.34507 0.002,0.002 0.11818,0.0607 0.25736,0.13014 1.18699,0.59252 2.1961,1.17934 2.77191,1.61195 0.72847,0.5473 1.27175,1.20863 1.79108,2.18032 0.15224,0.28482 0.16327,0.30065 0.23489,0.33699 0.10658,0.0541 0.40486,0.25286 0.5909,0.39375 0.50311,0.38101 0.97769,0.8069 1.68136,1.50886 0.73262,0.73084 1.27181,1.30782 2.12043,2.26904 1.0377,1.17539 2.58792,3.02758 3.14336,3.75566 1.58581,2.07872 3.05497,3.78452 4.90622,5.69641 0.42642,0.44039 0.49882,0.52292 0.62316,0.7105 0.35507,0.53559 0.53464,0.95776 0.58429,1.37359 0.0315,0.26337 -0.0232,0.53788 -0.15012,0.75393 -0.0711,0.12103 -0.30083,0.34986 -0.45177,0.45 -0.41775,0.27711 -0.8769,0.40096 -1.48799,0.40133 -0.34379,1.7e-4 -0.59996,-0.0274 -1.06223,-0.11447 l -0.10722,-0.0202 -0.3254,0.11873 c -2.12357,0.77486 -4.55755,1.2226 -7.29188,1.3414 l -0.46869,0.0204 -0.0503,0.21296 c -0.0277,0.11713 -0.37183,1.56835 -0.76478,3.22493 l -0.71445,3.01198 0.2721,0.26936 c 0.53079,0.52546 0.84719,0.94673 1.11587,1.48573 0.0787,0.15787 0.1671,0.36753 0.2134,0.50608 l 0.0791,0.23657 -0.0187,0.1303 c -0.023,0.16035 -0.0788,0.27818 -0.1726,0.36467 -0.14453,0.13323 -0.30319,0.17793 -0.42642,0.12015 z m -4.32547,-2.38282 c 0.41594,-0.11477 0.68054,-0.36784 0.80601,-0.77085 0.0266,-0.0853 0.40652,-1.49504 0.84436,-3.13275 0.59006,-2.20704 0.79509,-2.99691 0.79223,-3.05202 -0.028,-0.54067 -0.79447,-1.05505 -2.2018,-1.47759 l -0.13468,-0.0404 -1.7e-4,0.47618 -1.6e-4,0.47619 -1.22425,3.74451 c -0.67334,2.05948 -1.22425,3.76236 -1.22425,3.78417 v 0.0397 l 1.10602,-0.006 c 1.0816,-0.005 1.10891,-0.006 1.23663,-0.0416 z m 3.67373,-6.28669 c 0.10356,-0.15649 0.28477,-0.68612 0.33498,-0.97908 0.0382,-0.2227 0.0412,-0.5064 0.008,-0.71309 -0.0925,-0.57029 -0.38218,-1.08301 -0.91398,-1.6177 l -0.24555,-0.24689 0.17958,0.0863 c 0.75472,0.3626 1.63023,0.5816 2.71812,0.67994 0.3741,0.0338 1.6157,0.0287 1.96717,-0.008 1.03338,-0.10827 1.98516,-0.32558 2.94813,-0.67316 0.4736,-0.17094 0.76655,-0.29276 1.41174,-0.587 l 0.0827,-0.0377 0.1132,0.0732 c 0.23291,0.15071 0.53798,0.2741 0.78337,0.31682 0.18187,0.0317 0.49552,0.0121 0.65216,-0.0407 0.31381,-0.10584 0.49487,-0.29247 0.57088,-0.58847 0.0637,-0.24798 0.002,-0.43673 -0.24443,-0.75161 -0.12566,-0.16039 -0.45849,-0.48701 -0.71009,-0.69687 -0.24341,-0.20302 -0.71885,-0.55783 -1.07835,-0.80474 l -0.2848,-0.19561 -0.3918,-0.497 c -2.5672,-3.25648 -4.8132,-5.966 -6.45573,-7.78807 -1.01787,-1.12913 -2.02942,-2.14406 -2.6455,-2.65435 -0.30595,-0.25341 -0.58311,-0.4459 -0.79176,-0.54991 -0.19094,-0.0952 -0.17846,-0.0986 -0.20902,0.0569 -0.0734,0.37347 -0.3367,0.6672 -0.80248,0.89536 -0.177,0.0867 -0.60855,0.24357 -0.67008,0.24357 -0.0134,0 -0.024,0.006 -0.0234,0.0122 5.2e-4,0.007 0.1616,0.11795 0.35793,0.24714 0.79215,0.52128 1.43995,1.05596 1.81192,1.49548 0.62992,0.74432 0.65183,1.37194 0.0643,1.842 -0.22715,0.18175 -0.77343,0.48902 -1.18217,0.66494 -0.72954,0.314 -1.34637,0.40607 -1.84519,0.2754 -0.21692,-0.0568 -0.31098,-0.11225 -0.75072,-0.44245 -1.96491,-1.47546 -3.34183,-2.73312 -4.09302,-3.73848 -0.52738,-0.70583 -0.9153,-1.4686 -1.08265,-2.12877 -0.085,-0.3354 -0.10982,-0.53114 -0.11052,-0.87217 -7e-4,-0.33732 0.022,-0.50524 0.10418,-0.7718 0.14663,-0.47547 0.42873,-0.86613 0.85609,-1.18558 0.20334,-0.152 0.32259,-0.22389 0.61012,-0.3679 0.4144,-0.20755 0.60979,-0.27336 0.63288,-0.21319 0.0222,0.0578 -0.0584,0.15491 -0.46709,0.56314 -0.43719,0.43669 -0.57875,0.60752 -0.74699,0.90139 -0.30324,0.52971 -0.39356,1.1741 -0.2403,1.71455 0.17919,0.63193 0.73242,1.45496 1.65434,2.46116 0.2718,0.29664 0.95121,0.97878 1.2017,1.20653 0.59844,0.54412 1.07821,0.8874 1.59986,1.14475 0.4628,0.22832 0.78469,0.31984 1.18357,0.33651 0.25924,0.0108 0.46338,-0.0168 0.69308,-0.0937 0.30734,-0.10297 0.66802,-0.33148 0.81593,-0.51695 0.25044,-0.31402 0.18254,-0.65219 -0.20916,-1.04163 -0.18908,-0.188 -0.33555,-0.29809 -0.7701,-0.57892 -0.68564,-0.44307 -1.07655,-0.7419 -1.42948,-1.09273 -0.42105,-0.41856 -0.59486,-0.73257 -0.62935,-1.13707 -0.0131,-0.15326 0.002,-0.22825 0.0528,-0.26147 0.0373,-0.0245 0.0459,-0.0244 0.11356,10e-4 0.0403,0.0154 0.14806,0.0866 0.23956,0.15834 0.19834,0.15543 0.33675,0.2398 0.52124,0.31773 0.29484,0.12453 0.76307,0.21148 1.06862,0.19844 0.14143,-0.006 0.17993,-0.0142 0.27303,-0.0577 0.24035,-0.11248 0.37031,-0.33835 0.41925,-0.72865 0.0208,-0.16606 0.0207,-0.4461 -3.1e-4,-0.64551 -0.0151,-0.14296 -0.0234,-0.16764 -0.11568,-0.34181 -0.25211,-0.4759 -0.53559,-0.85165 -0.93138,-1.23456 -0.8256,-0.79872 -1.93769,-1.3467 -3.4133,-1.6819 -0.10831,-0.0246 -0.19189,-0.0518 -0.19198,-0.0624 -6.5e-4,-0.078 -0.0356,-0.69812 -0.0494,-0.87587 -0.14118,-1.82315 -0.55816,-3.2307 -1.25185,-4.22568 -0.70977,-1.01805 -1.71217,-1.65708 -2.89623,-1.84633 -1.22393,-0.19564 -2.23164,0.0543 -3.2344,0.80215 l -0.1755,0.13087 2.3e-4,0.41051 2.3e-4,0.4105 0.16545,0.12244 c 0.30443,0.2253 0.52357,0.47122 0.64187,0.72032 0.12112,0.25505 0.1337,0.49772 0.042,0.81105 -0.17114,0.58506 -0.0526,1.04386 0.40469,1.5667 0.16427,0.1878 0.23764,0.29516 0.33703,0.4931 0.13279,0.2645 0.23384,0.61861 0.28659,1.00433 0.01,0.0718 0.0241,0.47221 0.0318,0.88972 0.008,0.41752 0.0221,0.83258 0.0321,0.92237 0.069,0.61805 0.1815,1.18033 0.35941,1.79576 0.25801,0.89257 0.62254,1.75884 1.36391,3.24131 0.56008,1.11995 0.98937,1.92007 2.09292,3.90091 1.77751,3.19057 2.9875,5.58012 3.57206,7.05432 0.52106,1.31406 0.88682,2.70133 0.96365,3.65493 0.0445,0.5519 0.1013,0.76463 0.19472,0.72878 0.0728,-0.0279 0.18866,-0.31911 0.30937,-0.77776 l 0.058,-0.22039 v -0.91828 c 0,-0.50505 0.004,-0.91829 0.008,-0.91829 0.0191,0 0.60906,0.22401 0.88136,0.33468 1.38534,0.56297 2.35549,1.15702 2.84187,1.74017 0.30863,0.37003 0.43129,0.68858 0.43132,1.1201 1e-5,0.11486 0.008,0.28964 0.0169,0.3884 0.0343,0.36463 0.0918,0.44104 0.20404,0.27141 z m -13.1611,-27.55921 c -0.28401,-0.0512 -0.47377,-0.21005 -0.55516,-0.46482 -0.0403,-0.12614 -0.0483,-0.47854 -0.0147,-0.64714 0.0667,-0.33436 0.23008,-0.52534 0.52216,-0.61025 0.13724,-0.0399 0.49949,-0.027 0.63656,0.0226 0.21883,0.0793 0.35389,0.21447 0.42947,0.42994 0.0331,0.0942 0.0433,0.16013 0.0492,0.31506 0.0194,0.51334 -0.17704,0.82092 -0.5944,0.93084 -0.11946,0.0315 -0.36254,0.0437 -0.47314,0.0237 z m -2.41192,1.27276 c 0.14844,-0.0917 0.24982,-0.28315 0.22674,-0.4281 -0.0329,-0.20684 -0.20978,-0.44832 -0.52317,-0.71437 l -0.13752,-0.11675 -0.61645,0.14214 c -0.33904,0.0782 -0.61971,0.14523 -0.62369,0.149 -0.0117,0.0111 0.19301,0.2125 0.32559,0.32031 0.18899,0.15367 0.392,0.27996 0.67749,0.42144 0.20376,0.10097 0.56862,0.25614 0.61026,0.25951 0.003,3.3e-4 0.0308,-0.0147 0.0607,-0.0332 z m -1.41826,-1.3847 0.87785,-0.1574 0.004,-0.42832 c 0.003,-0.25293 -0.002,-0.42833 -0.0107,-0.42833 -0.049,0 -0.38632,0.1326 -0.5814,0.22849 -0.38878,0.19115 -0.74972,0.4509 -1.09378,0.78718 -0.16296,0.15927 -0.1747,0.1746 -0.12689,0.16567 0.029,-0.005 0.44771,-0.0807 0.93053,-0.16729 z m 11.55556,-7.41132 c -0.0146,-0.0282 -1.77848,-3.41326 -3.91979,-7.52242 -2.1413,-4.10915 -3.89135,-7.4729 -3.889,-7.475 0.002,-0.002 0.66784,-0.006 1.47885,-0.01 l 1.47457,-0.006 3.91685,7.51627 c 2.15427,4.13396 3.91499,7.51801 3.91271,7.52014 -0.002,0.002 -0.66644,0.009 -1.47592,0.0159 l -1.47178,0.012 z m 9.51329,-0.006 c -0.0491,-0.0733 -7.836,-15.01003 -7.83017,-15.01975 0.004,-0.007 0.66991,-0.012 1.47971,-0.0116 l 1.47238,6.2e-4 3.91393,7.51386 c 2.15267,4.13264 3.91394,7.51899 3.91394,7.52525 0,0.006 -0.66073,0.0114 -1.46829,0.0114 -1.12893,0 -1.47135,-0.005 -1.4815,-0.0197 z M 141.871,267.29576 c -4.84161,-0.16237 -9.95949,-1.28328 -15.68024,-3.43426 -2.02869,-0.76278 -4.16852,-1.6752 -6.27699,-2.6765 -0.28732,-0.13644 -0.59468,-0.28187 -0.68302,-0.32317 l -0.16061,-0.0751 0.11164,-0.0567 c 0.4337,-0.22016 1.73835,-0.83286 2.58489,-1.21393 4.4481,-2.00232 8.61949,-3.43698 12.51317,-4.30363 3.87707,-0.86295 7.35262,-1.16521 10.81536,-0.94058 6.35499,0.41225 13.44647,2.53794 21.37559,6.40738 l 0.21013,0.10255 -0.0465,0.0244 c -0.10691,0.056 -1.17909,0.56267 -1.6553,0.78221 -7.4256,3.42326 -14.12779,5.31195 -20.088,5.66081 -0.74043,0.0433 -1.28365,0.0573 -2.09778,0.0541 -0.43547,-0.002 -0.85053,-0.005 -0.92236,-0.008 z m 2.18756,-2.53613 c 5.19417,-0.1817 10.52196,-1.41831 16.24345,-3.77018 0.17957,-0.0738 0.33207,-0.13947 0.33888,-0.14588 0.0133,-0.0125 -0.80267,-0.35805 -1.54694,-0.65502 -4.93125,-1.96757 -9.72826,-3.09631 -14.21914,-3.34578 -0.935,-0.0519 -2.44897,-0.0671 -3.2895,-0.0329 -3.28409,0.13347 -6.49549,0.673 -9.95918,1.67317 -2.01355,0.58142 -4.3782,1.4294 -6.36509,2.28254 l -0.1706,0.0733 0.0645,0.0274 c 0.0355,0.0151 0.27386,0.11228 0.52975,0.21595 5.60124,2.26927 10.91974,3.49629 15.93328,3.67594 0.54567,0.0195 1.90053,0.0204 2.4406,10e-4 z m 2.60622,-14.9047 c -0.17468,-0.0739 -0.30731,-0.32759 -0.40187,-0.76869 -0.095,-0.44328 -0.48942,-0.83396 -1.12611,-1.11554 l -0.089,-0.0393 -0.0266,0.0926 c -0.0403,0.13993 -0.16183,0.35869 -0.30793,0.55409 -0.15487,0.20712 -0.52529,0.58233 -0.80594,0.81633 l -0.20024,0.16697 -6.40325,-2.7e-4 c -5.26843,-2.1e-4 -6.41959,-0.004 -6.49545,-0.022 -0.26291,-0.0619 -0.39317,-0.2505 -0.39618,-0.57366 -10e-4,-0.12917 0.004,-0.15807 0.0439,-0.23922 0.15809,-0.32191 0.70478,-0.57715 1.58365,-0.73936 0.5925,-0.10936 1.49883,-0.1993 2.31353,-0.22959 0.74919,-0.0279 1.86439,-0.1332 2.42427,-0.22902 0.40283,-0.0689 0.69778,-0.15933 0.76603,-0.23475 0.0567,-0.0626 0.94424,-2.64867 1.27234,-3.70717 0.63344,-2.04357 0.93383,-3.45274 0.86168,-4.04237 -0.0993,-0.81208 -0.77605,-2.54651 -2.0024,-5.13232 -0.0873,-0.18407 -0.18644,-0.39343 -0.22032,-0.46526 -0.0339,-0.0718 -0.21372,-0.42813 -0.39965,-0.79177 -2.51152,-4.91225 -4.50411,-8.99413 -5.05205,-10.3493 -0.55584,-1.37472 -0.84109,-2.92424 -0.91464,-4.9685 l -0.0157,-0.4375 -0.12873,-0.20734 c -0.36696,-0.59107 -0.63527,-1.14024 -0.74074,-1.51615 l -0.0374,-0.1334 -0.21223,-0.0686 c -0.57522,-0.18595 -1.14969,-0.50353 -1.81208,-1.00178 -0.19234,-0.14467 -0.58437,-0.46803 -0.75679,-0.62423 l -0.0875,-0.0792 0.16092,-0.18743 c 0.47579,-0.55415 1.03827,-1.04096 1.52482,-1.31968 0.15899,-0.0911 0.40812,-0.20929 0.50533,-0.23979 0.0224,-0.007 0.151,-0.0953 0.28569,-0.19617 1.0216,-0.765 2.00455,-1.19912 2.98979,-1.32043 0.68801,-0.0847 1.91568,-0.0215 2.69949,0.13897 1.08482,0.22211 1.89966,0.62986 2.499,1.25052 0.29884,0.30947 0.50821,0.62478 0.79973,1.2044 0.57921,1.15163 0.88818,2.4073 0.96185,3.90907 0.009,0.19245 0.0189,0.35105 0.021,0.35244 0.002,10e-4 0.24255,0.12385 0.53436,0.27213 1.2127,0.61622 2.01857,1.09754 2.62834,1.56982 0.23033,0.1784 0.69255,0.64089 0.89159,0.89212 0.28323,0.3575 0.5591,0.78854 0.80217,1.25341 l 0.11335,0.21677 0.19431,0.119 c 0.93312,0.57149 2.28704,1.85909 4.1053,3.90421 1.15096,1.29457 2.7582,3.21665 3.46793,4.14728 1.44514,1.89491 3.03483,3.73276 4.76417,5.50789 0.42208,0.43325 0.46635,0.48435 0.62337,0.71941 0.51606,0.7726 0.69245,1.40714 0.52837,1.90077 -0.15188,0.45692 -0.69694,0.86055 -1.35397,1.00264 -0.45965,0.0994 -1.06738,0.0864 -1.67051,-0.0356 l -0.18591,-0.0376 -0.16103,0.0632 c -0.0886,0.0347 -0.37774,0.13595 -0.64261,0.22491 -2.01078,0.67536 -4.26446,1.06396 -6.82732,1.17722 l -0.45237,0.02 -0.0604,0.25429 c -0.0332,0.13987 -0.37774,1.59133 -0.76557,3.22547 l -0.70514,2.97116 0.21506,0.20666 c 0.69727,0.67007 1.14653,1.33807 1.39262,2.07069 l 0.074,0.22039 -0.0187,0.13031 c -0.0233,0.16174 -0.0789,0.27828 -0.1755,0.36728 -0.12034,0.11093 -0.30143,0.17067 -0.39604,0.13064 z m -4.39266,-2.38778 c 0.45301,-0.11119 0.74129,-0.38814 0.86291,-0.829 0.0184,-0.0668 0.39211,-1.46185 0.8304,-3.10014 0.77975,-2.91459 0.79662,-2.98085 0.78353,-3.07728 -0.058,-0.42705 -0.54148,-0.8248 -1.42503,-1.17236 -0.20578,-0.0809 -0.59328,-0.21269 -0.82034,-0.27891 l -0.0857,-0.025 v 0.47494 0.47495 l -1.22438,3.74506 c -0.67341,2.05979 -1.22438,3.76343 -1.22438,3.78587 v 0.0408 l 1.09786,-0.006 c 0.93997,-0.005 1.11328,-0.0101 1.20513,-0.0326 z m 3.69532,-6.26944 c 0.10469,-0.13726 0.30049,-0.69574 0.35426,-1.0105 0.0284,-0.16645 0.0327,-0.24211 0.0253,-0.44539 -0.013,-0.35554 -0.0796,-0.61989 -0.2388,-0.94685 -0.15672,-0.32196 -0.35766,-0.59309 -0.69259,-0.93454 l -0.22812,-0.23255 0.22729,0.10368 c 1.00687,0.45927 2.17632,0.67996 3.60187,0.67969 0.83339,-1.6e-4 1.55341,-0.0767 2.36368,-0.25141 0.91513,-0.19729 1.98141,-0.56381 2.89597,-0.99548 l 0.19418,-0.0916 0.10054,0.0635 c 0.39446,0.24913 0.74472,0.35615 1.11097,0.33947 0.31952,-0.0146 0.5293,-0.0934 0.70291,-0.26424 0.21206,-0.20866 0.29233,-0.5439 0.18758,-0.78343 -0.19717,-0.45089 -0.93039,-1.11267 -2.16311,-1.95235 -0.12233,-0.0833 -0.15676,-0.12256 -0.59349,-0.67616 -4.9794,-6.31189 -8.24583,-9.96395 -9.68524,-10.82868 -0.14699,-0.0883 -0.30376,-0.16044 -0.31792,-0.14627 -0.005,0.005 -0.0156,0.0537 -0.0246,0.10904 -0.0489,0.30344 -0.24042,0.56846 -0.5622,0.77781 -0.0718,0.0467 -0.17047,0.10502 -0.21921,0.12953 -0.12219,0.0615 -0.42271,0.1751 -0.5848,0.22114 -0.13362,0.038 -0.1569,0.0528 -0.11066,0.0705 0.0392,0.0151 0.65277,0.42814 0.87357,0.58816 0.5243,0.37995 1.05055,0.8513 1.31382,1.17675 0.59158,0.73131 0.60071,1.30796 0.0283,1.78681 -0.1511,0.1264 -0.53488,0.35465 -0.8929,0.53106 -0.65537,0.32292 -1.16456,0.4662 -1.65681,0.4662 -0.25774,0 -0.42802,-0.0272 -0.63161,-0.10086 -0.1097,-0.0397 -0.18375,-0.0838 -0.36144,-0.21533 -2.0509,-1.51797 -3.52277,-2.84573 -4.30944,-3.88752 -0.49473,-0.65517 -0.86684,-1.35138 -1.05622,-1.97618 -0.36117,-1.19154 -0.13092,-2.22394 0.64428,-2.8888 0.20574,-0.17647 0.47407,-0.34778 0.7855,-0.50152 0.51904,-0.25622 0.68461,-0.28763 0.59322,-0.11251 -0.017,0.0325 -0.21846,0.24641 -0.44778,0.47537 -0.43833,0.43765 -0.57756,0.60554 -0.74461,0.89788 -0.32056,0.56101 -0.40234,1.23167 -0.21897,1.79576 0.23806,0.73233 0.96284,1.7159 2.16354,2.93603 0.22447,0.2281 0.51254,0.51006 0.64016,0.62657 0.78137,0.71336 1.47903,1.16697 2.11433,1.3747 0.30679,0.10032 0.49342,0.13172 0.77988,0.13123 0.33572,-5.7e-4 0.56126,-0.0523 0.85707,-0.19634 0.51119,-0.24901 0.76703,-0.56412 0.71194,-0.87688 -0.0355,-0.20129 -0.15655,-0.3954 -0.37953,-0.60837 -0.2012,-0.19218 -0.29973,-0.26381 -0.92011,-0.66897 -0.99674,-0.65094 -1.61218,-1.23723 -1.78915,-1.70441 -0.0485,-0.12806 -0.096,-0.36701 -0.0959,-0.48299 0,-0.23579 0.10618,-0.26186 0.33421,-0.0821 0.31982,0.25212 0.51071,0.35873 0.79992,0.44675 0.26363,0.0802 0.58739,0.13282 0.81954,0.13313 0.50829,6.7e-4 0.75671,-0.36146 0.75555,-1.10138 -5e-4,-0.3211 -0.0233,-0.46473 -0.0971,-0.61145 -0.30321,-0.60305 -0.789,-1.19565 -1.33924,-1.63368 -0.78013,-0.62103 -1.84718,-1.08943 -3.10585,-1.36337 -0.0696,-0.0151 -0.12659,-0.036 -0.12667,-0.0463 -0.003,-0.30303 -0.0713,-1.19845 -0.12337,-1.60653 -0.20862,-1.63456 -0.65305,-2.85187 -1.37227,-3.7587 -0.16977,-0.21404 -0.59487,-0.62891 -0.80604,-0.78663 -0.66467,-0.49641 -1.40609,-0.77161 -2.27735,-0.84529 -0.77841,-0.0658 -1.41567,0.0507 -2.08961,0.38227 -0.27785,0.13668 -0.56719,0.31532 -0.80951,0.49978 l -0.12918,0.0983 v 0.41221 0.41221 l 0.11835,0.0829 c 0.30798,0.21582 0.54785,0.47599 0.67475,0.73183 0.13639,0.27498 0.15221,0.51116 0.0562,0.83933 -0.10058,0.34386 -0.10014,0.60236 0.002,0.90745 0.0783,0.23497 0.18411,0.40357 0.43073,0.68635 0.32056,0.36756 0.49988,0.8014 0.59014,1.42775 0.0171,0.11875 0.0288,0.40462 0.0381,0.93053 0.0107,0.60498 0.0203,0.81709 0.0476,1.04464 0.10897,0.90907 0.3433,1.81043 0.71518,2.75094 0.49663,1.25601 1.36852,2.97917 2.88194,5.69575 2.07607,3.72653 3.28199,6.11353 3.86488,7.65017 0.47573,1.25413 0.80203,2.52991 0.87471,3.41993 0.0403,0.49306 0.0819,0.68716 0.15706,0.73282 0.0821,0.0498 0.20284,-0.22199 0.34778,-0.7826 l 0.0572,-0.22134 v -0.91332 c 0,-0.50233 0.006,-0.91333 0.0135,-0.91333 0.007,0 0.18557,0.065 0.39588,0.1445 1.92053,0.72573 3.09712,1.47013 3.54568,2.24326 0.16034,0.27636 0.19107,0.40344 0.20817,0.86093 0.008,0.20202 0.0219,0.41782 0.0318,0.47956 0.0331,0.20536 0.0908,0.25671 0.17076,0.15191 z m -13.11817,-27.58533 c -0.42141,-0.0619 -0.61734,-0.31858 -0.61799,-0.80957 -6.8e-4,-0.52104 0.19001,-0.83205 0.56486,-0.92125 0.12094,-0.0288 0.41995,-0.0238 0.545,0.009 0.37523,0.0986 0.55449,0.36534 0.55449,0.82506 0,0.5118 -0.23189,0.81008 -0.69131,0.88923 -0.15694,0.027 -0.21383,0.0282 -0.35505,0.007 z m -2.39909,1.24146 c 0.25014,-0.19773 0.25398,-0.4383 0.0121,-0.76004 -0.0756,-0.10056 -0.26635,-0.29041 -0.40672,-0.40479 l -0.0777,-0.0633 -0.61594,0.142 c -0.33877,0.0781 -0.61895,0.145 -0.62263,0.14868 -0.0148,0.0148 0.27717,0.28686 0.42258,0.39384 0.28628,0.21062 0.54955,0.35342 0.94685,0.51358 0.13019,0.0525 0.24156,0.0955 0.24749,0.0956 0.006,1.7e-4 0.0482,-0.0294 0.0939,-0.0656 z m -1.46783,-1.35278 0.88972,-0.15952 0.004,-0.42721 c 0.004,-0.36255 8e-4,-0.42722 -0.0191,-0.42722 -0.049,0 -0.31994,0.10482 -0.52397,0.20268 -0.40527,0.19436 -0.76626,0.44843 -1.11259,0.78304 -0.15575,0.15048 -0.19924,0.20073 -0.16893,0.1952 0.0225,-0.004 0.44119,-0.0792 0.93053,-0.16697 z m -5.98834,-14.88497 -3.92019,-7.52299 0.86075,-0.012 c 0.47342,-0.007 1.13929,-0.0103 1.47971,-0.008 l 0.61896,0.004 3.91633,7.51533 c 2.15398,4.13344 3.91405,7.51728 3.91125,7.51964 -0.003,0.002 -0.66692,0.009 -1.47585,0.0158 l -1.47077,0.0115 z m 24.7999,6.70839 c 0.009,-0.79924 0.0251,-1.09678 0.0845,-1.58132 0.20314,-1.65762 0.77019,-2.96872 1.73336,-4.00775 1.01643,-1.0965 2.60626,-2.0629 4.31531,-2.62313 2.12792,-0.69753 4.10748,-0.73723 6.23561,-0.12505 2.22134,0.63899 4.21814,1.90458 5.22745,3.31321 0.58846,0.82127 0.98138,1.83553 1.15418,2.97933 0.0984,0.65153 0.1176,0.94626 0.12767,1.96309 l 0.009,0.8938 h -9.44813 -9.44813 z m 17.52072,-0.55505 c -0.004,-0.0337 -0.0119,-0.17876 -0.017,-0.32242 -0.0575,-1.61182 -0.40912,-2.76573 -1.11184,-3.64865 -0.32795,-0.41205 -0.89659,-0.8933 -1.5131,-1.28055 -1.34589,-0.84542 -2.98273,-1.42012 -4.61534,-1.62049 -0.3392,-0.0416 -1.30991,-0.0416 -1.64883,0 -2.10513,0.25865 -4.27185,1.1954 -5.60738,2.42427 -0.82733,0.76126 -1.30026,1.76119 -1.47632,3.1214 -0.052,0.40199 -0.0987,1.00758 -0.0992,1.28559 l -1.6e-4,0.10204 h 8.04845 8.04846 l -0.008,-0.0612 z m -32.83677,-6.19426 c -2.86763,-5.4951 -3.91488,-7.51604 -3.89979,-7.52566 0.0113,-0.007 0.67696,-0.0114 1.47914,-0.009 l 1.45849,0.004 3.90977,7.50137 c 2.15038,4.12575 3.91361,7.51055 3.91829,7.52178 0.007,0.0162 -0.29324,0.0204 -1.46849,0.0204 h -1.47699 z m 15.31565,-7.15149 c 0.009,-0.82705 0.0274,-1.1496 0.0948,-1.66924 0.24129,-1.8599 0.94693,-3.2802 2.17655,-4.38091 1.70356,-1.52497 4.13103,-2.53229 6.53951,-2.7137 0.32942,-0.0248 1.26436,-0.0104 1.57537,0.0243 0.5434,0.0607 1.04821,0.14948 1.54446,0.2718 1.7023,0.41958 3.32524,1.21876 4.54476,2.23796 0.2301,0.19229 0.64515,0.6017 0.82623,0.81499 0.83757,0.98653 1.33806,2.24398 1.50704,3.78633 0.0526,0.48062 0.0609,0.66377 0.0696,1.53864 l 0.009,0.89379 h -9.448 -9.44799 z m 17.51706,-0.64484 c -0.0564,-1.45307 -0.23152,-2.31333 -0.63577,-3.12217 -0.15375,-0.30763 -0.31792,-0.56302 -0.51692,-0.80413 -1.38627,-1.67962 -4.86284,-3.05919 -7.31679,-2.90345 -1.71301,0.10872 -3.62486,0.75581 -5.09382,1.72407 -1.77658,1.17103 -2.40732,2.42056 -2.51545,4.98324 l -0.0112,0.26529 h 8.04775 8.04774 z m -18.68898,-12.50642 c -0.13272,-0.081 -0.24773,-0.29101 -0.31402,-0.57359 -0.054,-0.23002 -0.1095,-0.39164 -0.17002,-0.49477 -0.1719,-0.29291 -0.48459,-0.55041 -0.91726,-0.75537 -0.0844,-0.04 -0.15701,-0.0726 -0.16148,-0.0726 -0.004,0 -0.0316,0.0658 -0.0604,0.14612 -0.0612,0.17106 -0.18471,0.37467 -0.35206,0.58034 -0.14587,0.17928 -0.52723,0.55538 -0.75832,0.74785 l -0.17051,0.14203 -6.46563,-0.004 -6.46563,-0.004 -0.0834,-0.0377 c -0.16205,-0.0734 -0.25067,-0.20597 -0.28485,-0.42631 -0.0412,-0.26582 0.0466,-0.45969 0.28511,-0.62887 0.53832,-0.3819 1.72274,-0.60816 3.63382,-0.69416 1.47948,-0.0666 2.77034,-0.23436 3.10993,-0.40421 0.0572,-0.0286 0.13876,-0.10157 0.13876,-0.12412 0,-0.009 0.10573,-0.31392 0.23495,-0.67852 1.31697,-3.71571 1.95846,-6.14 1.8566,-7.01632 -0.082,-0.70515 -0.63366,-2.16529 -1.65503,-4.38031 -0.409,-0.887 -0.6399,-1.35841 -1.29938,-2.65282 -0.7846,-1.54002 -2.61199,-5.19314 -3.08684,-6.17088 -0.87504,-1.80177 -1.3803,-2.89656 -1.66524,-3.60822 -0.52434,-1.30955 -0.81299,-2.90455 -0.88154,-4.8711 l -0.0156,-0.44738 -0.0773,-0.124 c -0.39728,-0.63723 -0.67712,-1.20128 -0.78956,-1.59143 l -0.0418,-0.14511 -0.21172,-0.0691 c -0.74588,-0.24346 -1.54558,-0.73713 -2.4055,-1.48496 -0.0932,-0.081 -0.18844,-0.16299 -0.21163,-0.18208 l -0.0422,-0.0347 0.12161,-0.14487 c 0.18799,-0.22392 0.75477,-0.78394 0.95465,-0.94324 0.35003,-0.27898 0.70137,-0.49372 1.02032,-0.62361 0.12199,-0.0497 0.20386,-0.1 0.38364,-0.23574 0.96216,-0.72652 1.91116,-1.157 2.88137,-1.30701 0.39806,-0.0615 1.37256,-0.0601 1.97534,0.003 1.47244,0.15394 2.54729,0.58658 3.2816,1.32089 0.22341,0.22342 0.39221,0.44319 0.56719,0.73849 0.6714,1.13302 1.06726,2.3965 1.2034,3.84096 0.0185,0.19568 0.0546,0.78011 0.0573,0.92637 1.6e-4,0.007 0.15633,0.0903 0.34713,0.18571 1.47489,0.73782 2.51761,1.37962 3.10585,1.91167 0.53188,0.48107 1.06212,1.20596 1.43754,1.96524 0.0745,0.15073 0.0814,0.15888 0.17705,0.21143 0.84392,0.46343 2.26402,1.79405 4.0673,3.81102 0.97133,1.08644 2.72991,3.16725 3.30437,3.90986 0.0868,0.11223 0.28226,0.36568 0.4343,0.56321 1.4262,1.85293 2.95198,3.61311 4.57905,5.28249 0.42801,0.43914 0.52295,0.54561 0.64053,0.7183 0.42386,0.62256 0.62055,1.12124 0.62082,1.57405 1.8e-4,0.31563 -0.0955,0.56201 -0.30575,0.78767 -0.44949,0.48233 -1.18693,0.71972 -2.04454,0.65815 -0.26272,-0.0189 -0.56897,-0.0603 -0.78741,-0.10659 l -0.12055,-0.0255 -0.40186,0.14547 c -2.12086,0.76776 -4.56077,1.20762 -7.33672,1.32266 -0.18674,0.008 -0.34356,0.0181 -0.34848,0.023 -0.005,0.005 -0.35206,1.45654 -0.77141,3.22582 l -0.76246,3.21688 0.3284,0.33089 c 0.36348,0.36623 0.5397,0.57714 0.76748,0.91859 0.24697,0.3702 0.44047,0.7711 0.54049,1.11976 0.0395,0.13761 0.0419,0.16173 0.0264,0.26166 -0.0341,0.22051 -0.14294,0.37767 -0.31922,0.46106 -0.10966,0.0519 -0.22514,0.057 -0.29711,0.0131 z m -4.30165,-2.37607 c 0.0584,-0.0163 0.16855,-0.0592 0.24487,-0.0954 0.11275,-0.0534 0.16359,-0.0908 0.27116,-0.19943 0.15337,-0.15481 0.2415,-0.31443 0.30697,-0.55597 0.0219,-0.0808 0.3954,-1.47505 0.83,-3.09831 0.77775,-2.90495 0.78997,-2.95295 0.77651,-3.05135 -0.0234,-0.17112 -0.1101,-0.32398 -0.28082,-0.49515 -0.29232,-0.29308 -0.7269,-0.52963 -1.43855,-0.78304 -0.17914,-0.0638 -0.57642,-0.1878 -0.60163,-0.1878 -0.006,0 -0.0106,0.21215 -0.0106,0.47145 v 0.47144 l -1.22425,3.74451 c -0.67334,2.05948 -1.22431,3.76132 -1.22438,3.78187 l -1.7e-4,0.0374 1.12235,-0.005 c 1.02395,-0.005 1.13165,-0.008 1.22846,-0.0349 z m 3.62375,-6.2295 c 0.0868,-0.0868 0.28646,-0.61021 0.36295,-0.95162 0.05,-0.22297 0.0535,-0.67903 0.007,-0.89266 -0.11968,-0.54889 -0.41534,-1.04577 -0.92436,-1.55349 l -0.20634,-0.2058 0.15617,0.0728 c 0.84867,0.39564 1.75542,0.61423 2.85796,0.68898 1.51066,0.10241 2.91768,-0.0754 4.40733,-0.55696 0.47794,-0.15451 1.19284,-0.43826 1.66359,-0.66032 0.10251,-0.0483 0.19449,-0.0879 0.20439,-0.0878 0.01,0 0.0511,0.0225 0.0915,0.0499 0.11521,0.0782 0.40338,0.21896 0.54689,0.26718 0.2129,0.0716 0.44152,0.0992 0.64044,0.0775 0.46502,-0.0507 0.74859,-0.26525 0.84533,-0.63959 0.0413,-0.15981 0.0285,-0.29117 -0.043,-0.44077 -0.20753,-0.43436 -0.82613,-1.00129 -1.94163,-1.77944 l -0.33934,-0.23671 -0.56718,-0.7183 c -4.53309,-5.74084 -7.65823,-9.28409 -9.21114,-10.44349 -0.21376,-0.15958 -0.47464,-0.32 -0.60137,-0.36978 l -0.0842,-0.0331 -0.0186,0.10694 c -0.0422,0.24259 -0.13765,0.41685 -0.33066,0.60396 -0.23206,0.22498 -0.57368,0.40269 -1.02537,0.53341 -0.0675,0.0195 -0.12261,0.0428 -0.12244,0.0517 1.6e-4,0.009 0.16311,0.12442 0.3621,0.25678 0.65003,0.43237 1.12715,0.80813 1.50843,1.18799 0.50328,0.5014 0.73695,0.89484 0.76121,1.28171 0.0179,0.28516 -0.0728,0.51104 -0.29565,0.73614 -0.28667,0.28961 -1.05936,0.71322 -1.69912,0.93151 -0.38804,0.1324 -0.64001,0.17728 -0.98767,0.17592 -0.29718,-0.001 -0.45574,-0.0293 -0.66882,-0.11886 -0.19938,-0.0838 -1.57216,-1.14074 -2.40845,-1.85439 -0.90818,-0.77499 -1.68308,-1.5499 -2.15206,-2.15211 -0.46855,-0.60166 -0.87191,-1.32438 -1.06865,-1.91476 -0.14823,-0.44481 -0.20588,-0.78144 -0.20531,-1.19889 5.8e-4,-0.43181 0.0623,-0.73014 0.21933,-1.05973 0.24909,-0.52287 0.65614,-0.90855 1.30926,-1.2405 0.29782,-0.15137 0.49425,-0.23117 0.5955,-0.24194 0.0774,-0.008 0.0857,-0.006 0.0857,0.023 0,0.064 -0.10249,0.18345 -0.45279,0.52778 -0.49087,0.48248 -0.67088,0.71375 -0.85116,1.09348 -0.14879,0.3134 -0.20884,0.55123 -0.22467,0.88972 -0.0166,0.3556 0.032,0.61388 0.18273,0.97158 0.17714,0.42025 0.54936,0.98452 1.03275,1.56561 0.5369,0.64541 1.42454,1.55427 1.97013,2.01723 0.77326,0.65614 1.47209,1.05443 2.10845,1.20167 0.18761,0.0434 0.60709,0.0602 0.78563,0.0315 0.29648,-0.0477 0.57749,-0.161 0.84813,-0.34202 0.45893,-0.30698 0.55416,-0.65366 0.28962,-1.0543 -0.0853,-0.1291 -0.30899,-0.34999 -0.49973,-0.49335 -0.0844,-0.0635 -0.29295,-0.20509 -0.46334,-0.31471 -0.70331,-0.45245 -1.12617,-0.77678 -1.4814,-1.13622 -0.33309,-0.33705 -0.50505,-0.61959 -0.56683,-0.93136 -0.0955,-0.48206 0.0185,-0.57014 0.36711,-0.28362 0.38192,0.31388 0.79886,0.47057 1.38799,0.52161 0.31126,0.027 0.49491,-0.0183 0.64848,-0.15987 0.22007,-0.20285 0.31455,-0.66417 0.25786,-1.25912 -0.0131,-0.13756 -0.0233,-0.1717 -0.0905,-0.30201 -0.74663,-1.44905 -2.12449,-2.41544 -4.14654,-2.90826 -0.20651,-0.0503 -0.38393,-0.0937 -0.39427,-0.0965 -0.0194,-0.005 -0.0222,-0.0378 -0.0548,-0.62758 -0.0897,-1.62337 -0.43285,-3.04091 -0.97385,-4.02305 -0.47337,-0.8594 -1.15046,-1.52822 -1.94993,-1.92614 -0.54368,-0.2706 -1.09101,-0.4085 -1.78741,-0.45031 -0.96645,-0.058 -1.82964,0.21795 -2.69307,0.86104 l -0.17011,0.1267 -1.6e-4,0.41033 -1.7e-4,0.41033 0.15101,0.1118 c 0.37649,0.27873 0.61392,0.57011 0.71677,0.87962 0.0596,0.17924 0.0539,0.41658 -0.0156,0.65489 -0.0728,0.24973 -0.0927,0.42786 -0.0697,0.6234 0.0402,0.34055 0.18913,0.63829 0.4835,0.96641 0.32098,0.35776 0.50277,0.7821 0.59797,1.39579 0.0274,0.17679 0.0352,0.33897 0.0464,0.97134 0.007,0.41752 0.0215,0.83258 0.0314,0.92237 0.13046,1.18588 0.44204,2.26985 1.03572,3.60317 0.54983,1.23485 1.24622,2.57932 2.56451,4.95117 1.29476,2.32949 1.92707,3.5148 2.65854,4.98357 0.58605,1.17676 0.91528,1.90145 1.19994,2.6412 0.48187,1.25228 0.82004,2.56557 0.89305,3.46812 0.0275,0.34064 0.0602,0.55523 0.0992,0.65289 0.0886,0.22131 0.20424,0.0323 0.39453,-0.6446 l 0.0597,-0.21236 0.009,-0.94937 0.009,-0.94937 0.31834,0.11872 c 2.0485,0.76399 3.28204,1.55936 3.68275,2.37457 0.11586,0.23571 0.15325,0.40884 0.15366,0.71146 5e-4,0.37246 0.045,0.6932 0.1012,0.72883 0.0313,0.0199 0.0424,0.0173 0.0779,-0.0183 z m -13.20234,-27.63844 c -0.27787,-0.0728 -0.43932,-0.25033 -0.49508,-0.54436 -0.0236,-0.1246 -0.018,-0.42281 0.0106,-0.56222 0.0454,-0.22151 0.14783,-0.3936 0.29406,-0.4942 0.11777,-0.081 0.23838,-0.1152 0.43925,-0.12446 0.59376,-0.0274 0.90547,0.26874 0.90547,0.86014 0,0.4858 -0.21986,0.78319 -0.6457,0.87341 -0.155,0.0328 -0.36465,0.0294 -0.50858,-0.008 z m -2.31132,1.28053 c 0.12643,-0.0964 0.19066,-0.19415 0.20876,-0.31761 0.031,-0.21131 -0.17732,-0.52668 -0.55152,-0.83502 l -0.11131,-0.0917 -0.0928,0.0216 c -0.051,0.0119 -0.32049,0.0738 -0.59884,0.13762 -0.27834,0.0638 -0.51663,0.11975 -0.52953,0.12429 -0.0336,0.0118 0.19894,0.24289 0.39104,0.38848 0.20055,0.15199 0.39044,0.26608 0.64764,0.38911 0.20951,0.10022 0.51663,0.22375 0.55861,0.22467 0.0126,2.8e-4 0.0477,-0.0184 0.0779,-0.0414 z m -1.48114,-1.36203 c 0.49965,-0.0898 0.91361,-0.16325 0.9199,-0.16325 0.006,0 0.0114,-0.19467 0.0114,-0.43261 0,-0.23794 -0.003,-0.43262 -0.007,-0.43262 -0.0434,0 -0.39822,0.14204 -0.58929,0.23588 -0.27605,0.13559 -0.50754,0.28412 -0.75911,0.48708 -0.18415,0.14856 -0.52375,0.46673 -0.49953,0.468 0.008,4.3e-4 0.42353,-0.0727 0.92317,-0.16248 z"
       id="path1202" />
  </g>
</svg>
